<svg width="1920" height="1020" viewBox="0 0 1920 1020" fill="none" xmlns="http://www.w3.org/2000/svg">
<rect x="1953" y="1020" width="1969" height="479" transform="rotate(-180 1953 1020)" fill="#4257FF"/>
<rect x="1944" y="543.842" width="1969.85" height="69.3672" transform="rotate(-180 1944 543.842)" fill="#4257FF" fill-opacity="0.98"/>
<path d="M-32 59.8798C77.7778 57.7416 187.556 55.6035 297.333 41.4678C407.111 27.3322 516.889 1.19902 626.667 0.0408451C736.444 -1.11733 846.222 22.6995 956 27.6588C1065.78 32.6182 1175.56 18.7251 1285.33 18.4528C1395.11 18.1806 1504.89 31.5243 1614.67 46.0708C1724.44 60.6173 1834.22 76.3566 1944 92.1008V405.105C1834.22 405.105 1724.44 405.105 1614.67 405.105C1504.89 405.105 1395.11 405.105 1285.33 405.105C1175.56 405.105 1065.78 405.105 956 405.105C846.222 405.105 736.444 405.105 626.667 405.105C516.889 405.105 407.111 405.105 297.333 405.105C187.556 405.105 77.7778 405.105 -32 405.105L-32 59.8798Z" fill="#4257FF" fill-opacity="0.2"/>
<path d="M-32 27.6563C77.7778 29.9182 187.556 32.1801 297.333 50.6713C407.111 69.1624 516.889 103.883 626.667 119.716C736.444 135.55 846.222 132.501 956 124.319C1065.78 116.138 1175.56 102.819 1285.33 78.2892C1395.11 53.7597 1504.89 18.0197 1614.67 23.0533C1724.44 28.0869 1834.22 73.904 1944 119.716V405.102C1834.22 405.102 1724.44 405.102 1614.67 405.102C1504.89 405.102 1395.11 405.102 1285.33 405.102C1175.56 405.102 1065.78 405.102 956 405.102C846.222 405.102 736.444 405.102 626.667 405.102C516.889 405.102 407.111 405.102 297.333 405.102C187.556 405.102 77.7778 405.102 -32 405.102L-32 27.6563Z" fill="#4257FF" fill-opacity="0.2"/>
<path d="M-32 138.133C77.7778 119.958 187.556 101.784 297.333 87.4998C407.111 73.2157 516.889 62.8169 626.667 69.0878C736.444 75.3588 846.222 98.2896 956 119.721C1065.78 141.152 1175.56 161.074 1285.33 156.545C1395.11 152.016 1504.89 123.027 1614.67 110.515C1724.44 98.0026 1834.22 101.957 1944 105.912V405.107C1834.22 405.107 1724.44 405.107 1614.67 405.107C1504.89 405.107 1395.11 405.107 1285.33 405.107C1175.56 405.107 1065.78 405.107 956 405.107C846.222 405.107 736.444 405.107 626.667 405.107C516.889 405.107 407.111 405.107 297.333 405.107C187.556 405.107 77.7778 405.107 -32 405.107L-32 138.133Z" fill="#4257FF" fill-opacity="0.2"/>
<path d="M-32 170.356C77.7778 156.151 187.556 141.942 297.333 138.135C407.111 134.329 516.889 140.917 626.667 128.929C736.444 116.942 846.222 86.379 956 96.7085C1065.78 107.038 1175.56 158.265 1285.33 165.753C1395.11 173.242 1504.89 136.987 1614.67 119.723C1724.44 102.46 1834.22 104.187 1944 105.914V405.109C1834.22 405.109 1724.44 405.109 1614.67 405.109C1504.89 405.109 1395.11 405.109 1285.33 405.109C1175.56 405.109 1065.78 405.109 956 405.109C846.222 405.109 736.444 405.109 626.667 405.109C516.889 405.109 407.111 405.109 297.333 405.109C187.556 405.109 77.7778 405.109 -32 405.109L-32 170.356Z" fill="#4257FF" fill-opacity="0.2"/>
<path d="M-32 156.547C77.7778 184.625 187.556 212.709 297.333 207.18C407.111 201.652 516.889 162.516 626.667 156.547C736.444 150.578 846.222 177.77 956 174.959C1065.78 172.148 1175.56 139.323 1285.33 142.738C1395.11 146.153 1504.89 185.798 1614.67 188.768C1724.44 191.738 1834.22 158.032 1944 124.326V405.109C1834.22 405.109 1724.44 405.109 1614.67 405.109C1504.89 405.109 1395.11 405.109 1285.33 405.109C1175.56 405.109 1065.78 405.109 956 405.109C846.222 405.109 736.444 405.109 626.667 405.109C516.889 405.109 407.111 405.109 297.333 405.109C187.556 405.109 77.7778 405.109 -32 405.109L-32 156.547Z" fill="#4257FF" fill-opacity="0.2"/>
<path d="M-32 188.764C77.7778 162.289 187.556 135.815 297.333 133.528C407.111 131.241 516.889 153.148 626.667 174.955C736.444 196.762 846.222 218.481 956 211.779C1065.78 205.077 1175.56 169.966 1285.33 170.352C1395.11 170.738 1504.89 206.632 1614.67 211.779C1724.44 216.926 1834.22 191.338 1944 165.749V405.105C1834.22 405.105 1724.44 405.105 1614.67 405.105C1504.89 405.105 1395.11 405.105 1285.33 405.105C1175.56 405.105 1065.78 405.105 956 405.105C846.222 405.105 736.444 405.105 626.667 405.105C516.889 405.105 407.111 405.105 297.333 405.105C187.556 405.105 77.7778 405.105 -32 405.105L-32 188.764Z" fill="#4257FF" fill-opacity="0.2"/>
<path d="M-32 197.969C77.7778 188.08 187.556 178.191 297.333 184.16C407.111 190.129 516.889 211.952 626.667 207.175C736.444 202.399 846.222 171.015 956 174.954C1065.78 178.894 1175.56 218.148 1285.33 239.396C1395.11 260.644 1504.89 263.876 1614.67 257.808C1724.44 251.74 1834.22 236.362 1944 220.984V405.104C1834.22 405.104 1724.44 405.104 1614.67 405.104C1504.89 405.104 1395.11 405.104 1285.33 405.104C1175.56 405.104 1065.78 405.104 956 405.104C846.222 405.104 736.444 405.104 626.667 405.104C516.889 405.104 407.111 405.104 297.333 405.104C187.556 405.104 77.7778 405.104 -32 405.104L-32 197.969Z" fill="#4257FF" fill-opacity="0.2"/>
<path d="M-32 188.766C77.7778 197.239 187.556 205.713 297.333 225.59C407.111 245.467 516.889 276.742 626.667 267.017C736.444 257.291 846.222 206.564 956 202.575C1065.78 198.585 1175.56 241.334 1285.33 262.414C1395.11 283.493 1504.89 282.904 1614.67 280.826C1724.44 278.747 1834.22 275.183 1944 271.62V405.106C1834.22 405.106 1724.44 405.106 1614.67 405.106C1504.89 405.106 1395.11 405.106 1285.33 405.106C1175.56 405.106 1065.78 405.106 956 405.106C846.222 405.106 736.444 405.106 626.667 405.106C516.889 405.106 407.111 405.106 297.333 405.106C187.556 405.106 77.7778 405.106 -32 405.106L-32 188.766Z" fill="#4257FF" fill-opacity="0.2"/>
<path d="M-32 322.248C77.7778 328.193 187.556 334.132 297.333 322.248C407.111 310.365 516.889 280.648 626.667 276.218C736.444 271.788 846.222 292.636 956 294.63C1065.78 296.625 1175.56 279.767 1285.33 267.012C1395.11 254.257 1504.89 245.616 1614.67 253.203C1724.44 260.791 1834.22 284.617 1944 308.439V405.102C1834.22 405.102 1724.44 405.102 1614.67 405.102C1504.89 405.102 1395.11 405.102 1285.33 405.102C1175.56 405.102 1065.78 405.102 956 405.102C846.222 405.102 736.444 405.102 626.667 405.102C516.889 405.102 407.111 405.102 297.333 405.102C187.556 405.102 77.7778 405.102 -32 405.102L-32 322.248Z" fill="#4257FF" fill-opacity="0.2"/>
<path d="M-32 262.408C77.7778 266.313 187.556 270.214 297.333 280.82C407.111 291.427 516.889 308.735 626.667 317.644C736.444 326.553 846.222 327.053 956 331.453C1065.78 335.853 1175.56 344.144 1285.33 349.865C1395.11 355.587 1504.89 358.735 1614.67 345.262C1724.44 331.79 1834.22 301.702 1944 271.614V405.101C1834.22 405.101 1724.44 405.101 1614.67 405.101C1504.89 405.101 1395.11 405.101 1285.33 405.101C1175.56 405.101 1065.78 405.101 956 405.101C846.222 405.101 736.444 405.101 626.667 405.101C516.889 405.101 407.111 405.101 297.333 405.101C187.556 405.101 77.7778 405.101 -32 405.101L-32 262.408Z" fill="#4257FF" fill-opacity="0.2"/>
<rect x="1944" y="474.475" width="1969.85" height="69.3672" transform="rotate(-180 1944 474.475)" fill="#4257FF" fill-opacity="0.93"/>
</svg>
