<svg width="401" height="401" viewBox="0 0 401 401" fill="none" xmlns="http://www.w3.org/2000/svg">
<path d="M54.5399 125.65C66.7399 113.63 80.1799 102.62 88.8699 87.3295C97.3699 72.3595 101.32 55.0195 112.44 41.5095C132.41 17.2495 167.79 14.2195 199.18 13.0495C214.92 12.4695 230.91 11.9095 246.18 15.7395C261.22 19.5095 269.77 27.3695 280.5 37.6195C292.47 49.0495 306.44 49.2595 320.2 57.7395C339.38 69.5595 326.82 98.1095 337.76 115.46C343.29 124.24 350.64 131.72 356.86 140.03C374.84 164.05 373.99 199.679 361.97 226.219C323.21 311.77 199.81 346.29 114.42 334.35C94.6198 331.58 74.2798 326.15 59.4598 312.74C23.3998 280.13 15.8798 206.549 29.5798 162.579C34.3598 147.229 43.9898 136.07 54.5498 125.66L54.5399 125.65Z" fill="#4257FF"/>
<path d="M56.0198 80.9186C60.1098 95.9486 75.6098 104.819 90.6398 100.729C105.67 96.6386 114.52 81.1386 110.44 66.1186C109.38 62.2386 107.56 58.7486 105.17 55.8086L83.6498 72.7986L55.0498 73.3886C55.0198 75.8686 55.3398 78.4086 56.0298 80.9186H56.0198Z" fill="#CCD7F2"/>
<path d="M48.9502 68.6495L77.5502 68.0595L70.3102 41.4395C70.3102 41.4395 69.9402 41.5295 69.7402 41.5795C57.2302 44.9795 48.9902 56.2895 48.9502 68.6495Z" fill="white"/>
<path d="M76.4004 46.1801L83.6404 72.8001L105.16 55.8101C98.4604 47.5201 87.3504 43.4401 76.4004 46.1801Z" fill="#4257FF"/>
<path d="M296.2 27.9802L301.71 26.2302L296.2 24.3502C294.55 23.9202 293.29 22.5902 292.94 20.9302L291.19 12.6602L289.31 20.7502C288.91 22.4602 287.57 23.7802 285.85 24.1402L280.67 25.9202L285.67 27.6802C287.42 28.0902 288.77 29.5002 289.08 31.2702L290.53 39.2702L292.64 31.2602C293.09 29.5702 294.47 28.2902 296.19 27.9702L296.2 27.9802Z" fill="white"/>
<path d="M290.54 40.1303C290.54 40.1303 290.52 40.1303 290.51 40.1303C290.11 40.1103 289.78 39.8203 289.71 39.4303L288.26 31.4303C288 29.9903 286.91 28.8503 285.49 28.5203C285.46 28.5203 285.43 28.5003 285.4 28.4903L280.4 26.7303C280.06 26.6103 279.83 26.2903 279.83 25.9303C279.83 25.5703 280.06 25.2503 280.4 25.1303L285.58 23.3503C285.58 23.3503 285.65 23.3303 285.68 23.3203C287.06 23.0303 288.17 21.9503 288.49 20.5703L290.37 12.4803C290.46 12.0903 290.8 11.8203 291.2 11.8203C291.6 11.8203 291.94 12.1003 292.02 12.4903L293.77 20.7603C294.06 22.1203 295.07 23.1903 296.42 23.5403L301.98 25.4403C302.33 25.5603 302.56 25.8903 302.55 26.2503C302.55 26.6203 302.31 26.9403 301.96 27.0503L296.45 28.8003C296.45 28.8003 296.38 28.8203 296.34 28.8303C294.95 29.0803 293.81 30.1303 293.46 31.5003L291.35 39.5103C291.25 39.8803 290.91 40.1403 290.53 40.1403L290.54 40.1303ZM285.92 26.8803C287.98 27.3803 289.55 29.0403 289.93 31.1303L290.69 35.3603L291.82 31.0603C292.34 29.0703 293.98 27.5503 295.99 27.1703L298.99 26.2203L295.92 25.1703C294.01 24.6703 292.52 23.1103 292.1 21.1203L291.14 16.6003L290.13 20.9603C289.67 22.9603 288.08 24.5303 286.08 24.9803L283.25 25.9503L285.91 26.8903L285.92 26.8803Z" fill="black"/>
<path d="M51.5007 153.9L61.0107 150.88L51.5007 147.63C48.6507 146.88 46.4707 144.59 45.8707 141.71L42.8507 127.42L39.6107 141.4C38.9307 144.35 36.6007 146.63 33.6407 147.26L24.6807 150.34L33.3207 153.39C36.3507 154.09 38.6707 156.53 39.2207 159.59L41.7207 173.41L45.3607 159.58C46.1307 156.65 48.5307 154.44 51.5007 153.9Z" fill="white"/>
<path d="M41.7103 174.27C41.7103 174.27 41.6903 174.27 41.6803 174.27C41.2803 174.25 40.9503 173.96 40.8803 173.57L38.3803 159.75C37.8903 157.02 35.8203 154.85 33.1203 154.23C33.0903 154.23 33.0603 154.21 33.0303 154.2L24.3903 151.15C24.0503 151.03 23.8203 150.71 23.8203 150.35C23.8203 149.99 24.0503 149.67 24.3903 149.55L33.3503 146.47C33.3503 146.47 33.4203 146.45 33.4503 146.44C36.0803 145.88 38.1703 143.84 38.7703 141.22L42.0103 127.24C42.1003 126.85 42.4403 126.58 42.8403 126.58C43.2403 126.58 43.5803 126.86 43.6603 127.25L46.6803 141.54C47.2303 144.12 49.1503 146.14 51.7003 146.81L61.2703 150.08C61.6203 150.2 61.8503 150.53 61.8403 150.89C61.8403 151.26 61.6003 151.58 61.2503 151.69L51.7403 154.71C51.7403 154.71 51.6703 154.73 51.6303 154.74C48.9903 155.22 46.8403 157.2 46.1603 159.8L42.5203 173.63C42.4203 174 42.0803 174.26 41.7003 174.26L41.7103 174.27ZM33.5503 152.58C36.8903 153.37 39.4403 156.06 40.0503 159.44L41.8703 169.49L44.5403 159.36C45.3903 156.15 48.0303 153.68 51.3003 153.07L58.3103 150.84L51.2303 148.42C48.1103 147.6 45.7203 145.09 45.0403 141.88L42.8103 131.34L40.4303 141.59C39.6803 144.83 37.1003 147.37 33.8603 148.07L27.2503 150.34L33.5503 152.56V152.58Z" fill="black"/>
<path d="M364.5 146.649L371.9 144.299L364.5 141.769C362.29 141.189 360.59 139.409 360.12 137.169L357.77 126.059L355.25 136.929C354.72 139.219 352.91 140.999 350.6 141.489L343.63 143.889L350.35 146.259C352.71 146.809 354.51 148.699 354.94 151.079L356.88 161.829L359.71 151.069C360.31 148.789 362.17 147.069 364.49 146.649H364.5Z" fill="black"/>
<path d="M127.65 15.5698L131 14.5098L127.65 13.3698C126.65 13.1098 125.88 12.2998 125.67 11.2898L124.61 6.25977L123.47 11.1798C123.23 12.2198 122.41 13.0198 121.37 13.2398L118.21 14.3298L121.26 15.3998C122.33 15.6498 123.14 16.5098 123.34 17.5798L124.22 22.4498L125.5 17.5798C125.77 16.5498 126.62 15.7698 127.66 15.5798L127.65 15.5698Z" fill="black"/>
<path d="M381.51 102.949H304.63C301.41 102.949 298.84 100.349 298.84 97.1594V57.3994C298.84 54.1794 301.44 51.6094 304.63 51.6094H381.51C384.73 51.6094 387.3 54.2094 387.3 57.3994V97.1594C387.34 100.339 384.74 102.949 381.51 102.949Z" fill="#CCD7F2"/>
<path d="M322.51 89.0098H308.58V98.1698H322.51V89.0098Z" fill="#4257FF"/>
<path d="M342.369 81.5H328.439V98.02H342.369V81.5Z" fill="#4257FF"/>
<path d="M361.51 71.6992H347.58V98.0292H361.51V71.6992Z" fill="#4257FF"/>
<path d="M380.7 61.709H366.76V98.019H380.7V61.709Z" fill="#4257FF"/>
<path d="M307.03 85.7399C306.31 85.7399 305.62 85.3299 305.3 84.6299C304.86 83.6799 305.28 82.5499 306.23 82.1099L353.43 60.3799C354.38 59.9399 355.51 60.3599 355.95 61.3099C356.39 62.2599 355.97 63.3899 355.02 63.8299L307.82 85.5599C307.56 85.6799 307.29 85.7299 307.03 85.7299V85.7399Z" fill="#4257FF"/>
<path d="M354.529 69.4501C354.279 69.4501 354.039 69.4001 353.799 69.3001C352.829 68.8901 352.379 67.7801 352.779 66.8101L354.809 61.9801L349.699 60.9801C348.669 60.7801 347.999 59.7801 348.199 58.7501C348.399 57.7201 349.399 57.0501 350.429 57.2501L357.829 58.6901C358.389 58.8001 358.869 59.1601 359.139 59.6601C359.409 60.1601 359.439 60.7601 359.219 61.2901L356.289 68.2701C355.979 69.0001 355.279 69.4401 354.539 69.4401L354.529 69.4501Z" fill="#4257FF"/>
<path d="M165.73 10.0495C177.11 1.91951 191.89 0.689506 205.86 0.179506C214.81 -0.150494 223.91 -0.280493 232.55 2.06951C241.19 4.41951 249.44 9.59951 253.56 17.5495C257.64 25.4195 257.21 34.7895 259.54 43.3395C262.08 52.6495 268.05 60.9695 276.05 66.3595C280.3 69.2195 285.25 71.4295 288.13 75.6595C295.28 86.1495 285.52 101.47 291.15 112.85C295.5 121.64 306.69 123.93 315.09 129C326.2 135.72 333.04 148.93 332.12 161.89C331.92 164.72 331.34 167.61 329.76 169.97C328.41 171.99 326.41 173.48 324.42 174.88C295.52 195.13 259.59 202.74 224.41 205.57C188.07 208.5 151.09 206.76 115.94 197.09C102.65 193.43 89.0202 188.22 80.1702 177.65C71.3202 167.08 69.1902 149.79 78.8902 139.99C84.1302 134.69 91.6302 132.5 98.5502 129.73C105.47 126.96 112.64 122.84 115.2 115.85C117.72 108.95 115.04 101.36 114.88 94.0095C114.66 84.1095 119.4 74.2195 127.26 68.1995C133.98 63.0495 143.09 60.2395 147.06 52.7595C149.82 47.5695 149.37 41.3495 150.21 35.5295C151.67 25.4095 157.42 15.9795 165.74 10.0395L165.73 10.0495Z" fill="black"/>
<path d="M229.9 148.401C249.26 141.951 300.88 140.331 321.85 162.381C342.82 184.431 345.51 197.331 354.11 206.471C362.71 215.611 403.17 265.671 399.41 288.261C395.65 310.841 375.81 335.581 335.83 326.391C302.31 318.681 274.23 283.671 277.19 285.151C277.76 285.431 290.17 334.411 284.83 335.791C247.2 345.531 102.91 340.031 102.91 340.031C102.91 340.031 110.12 302.721 109.89 303.021C95.2698 322.211 60.4198 340.891 41.2298 339.181C11.1198 336.491 -2.68023 302.211 1.61977 276.941C5.91977 251.671 39.5398 230.671 54.0598 217.231C68.5798 203.791 83.2298 163.021 107.43 151.191C131.63 139.361 199.52 152.041 199.52 152.041L229.89 148.411L229.9 148.401Z" fill="#A1C3FF"/>
<path d="M187.19 342.43C143.95 342.43 103.28 340.9 102.87 340.88C102.62 340.88 102.39 340.75 102.24 340.56C102.09 340.37 102.02 340.11 102.07 339.87C104.25 328.59 107.29 312.71 108.51 306.07C93.4802 323.63 62.5102 340.14 43.7802 340.14C42.8702 340.14 41.9902 340.1 41.1502 340.03C29.6502 339 19.6302 333.34 12.1602 323.65C2.5302 311.15 -1.9398 292.76 0.780199 276.8C4.1902 256.76 25.8802 239.26 41.7102 226.48C46.1302 222.91 50.3102 219.54 53.4802 216.6C58.8902 211.59 64.4702 202.48 70.3802 192.83C80.4202 176.45 91.7902 157.88 107.05 150.42C114.02 147.01 125.17 145.29 140.19 145.29C166.81 145.29 197.3 150.77 199.54 151.18L229.7 147.57C237.72 144.91 250.06 143.33 262.73 143.33C275.4 143.33 306.6 145.13 322.46 161.8C335.35 175.36 341.3 185.35 346.07 193.38C349.07 198.43 351.44 202.42 354.72 205.9C361.32 212.91 404.17 264.81 400.24 288.41C397.1 307.23 382.63 329.22 352.16 329.22C346.94 329.22 341.38 328.55 335.63 327.23C309.69 321.27 287.3 299.21 279.48 290.1C282.33 301.21 289.19 330.43 286.27 335.6C285.88 336.28 285.38 336.53 285.03 336.62C270.12 340.48 237.2 342.44 187.18 342.44L187.19 342.43ZM103.93 339.22C110.42 339.45 147.74 340.73 187.19 340.73C237.07 340.73 269.84 338.79 284.61 334.97C284.64 334.97 284.71 334.91 284.8 334.75C287.4 330.16 279.79 296.76 276.84 286.75C276.2 285.81 275.96 285.26 276.23 284.74C276.38 284.46 276.73 284.26 277.04 284.26C277.21 284.26 277.38 284.3 277.56 284.4C277.92 284.58 278.03 284.84 278.39 286.02C282.01 291.18 306.72 318.83 336.02 325.57C341.64 326.86 347.07 327.52 352.17 327.52C381.58 327.52 395.55 306.3 398.58 288.13C402.4 265.2 360.03 214 353.5 207.06C350.1 203.44 347.56 199.18 344.62 194.25C339.89 186.29 334 176.39 321.23 162.97C305.82 146.77 275.19 145.03 262.73 145.03C250.27 145.03 238.02 146.59 230.16 149.21C230.11 149.23 230.05 149.24 229.99 149.25L199.62 152.88C199.53 152.88 199.45 152.88 199.36 152.88C199.04 152.82 167.55 147 140.19 147C125.43 147 114.53 148.67 107.8 151.96C92.9802 159.2 81.7402 177.55 71.8302 193.73C65.8602 203.48 60.2102 212.7 54.6302 217.86C51.4202 220.83 47.2202 224.22 42.7702 227.81C27.1502 240.42 5.7502 257.68 2.4502 277.09C-0.189801 292.61 4.1502 310.48 13.5002 322.62C20.6702 331.92 30.2802 337.36 41.3002 338.35C42.0902 338.42 42.9202 338.46 43.7802 338.46C62.9802 338.46 95.3902 320.66 109.21 302.52C109.52 302.11 110.21 302.09 110.54 302.49C110.774 302.77 108.567 315.017 103.92 339.23L103.93 339.22Z" fill="black"/>
<path d="M170.57 75.711C170.57 75.711 159.24 64.231 149.81 67.611C140.39 71.001 139.06 91.461 149.22 95.431C159.38 99.401 171.6 91.461 171.6 91.461L170.57 75.711Z" fill="white"/>
<path d="M155.461 97.4004C153.111 97.4004 150.911 97.0104 148.921 96.2304C143.201 93.9904 141.241 87.3404 141.321 81.8704C141.401 75.8204 143.981 68.8204 149.531 66.8204C150.781 66.3704 152.121 66.1504 153.521 66.1504C162.221 66.1504 170.821 74.7604 171.181 75.1204C171.321 75.2704 171.411 75.4604 171.421 75.6604L172.451 91.4104C172.471 91.7204 172.321 92.0104 172.071 92.1804C171.741 92.3904 163.941 97.4104 155.461 97.4104V97.4004ZM153.521 67.8404C152.321 67.8404 151.171 68.0304 150.111 68.4104C146.031 69.8804 143.111 75.4204 143.021 81.8804C142.951 86.7904 144.631 92.7104 149.541 94.6404C151.331 95.3404 153.321 95.6904 155.461 95.7004C162.381 95.7004 169.021 92.0204 170.731 91.0104L169.751 76.0904C168.371 74.7704 160.781 67.8404 153.521 67.8404Z" fill="black"/>
<path d="M228.13 103.09C226.95 106.18 225.77 109.13 224.45 111.63C211.35 136.07 187.8 132.68 180.88 129.88V127.67L181.03 114.86L202.38 115.74L208.71 116.03L211.07 114.26L219.61 107.64L228.15 103.08L228.13 103.09Z" fill="black"/>
<path d="M258.16 64.2304C253.45 63.0504 249.33 64.8204 246.24 67.0304V66.8804C246.24 66.9804 246.19 67.0771 246.09 67.1704C244.91 68.0504 243.88 68.9404 243.15 69.6704C240.94 60.8404 242.12 38.4604 232.55 27.7204C226.96 21.3904 205.61 19.7704 190.6 21.5404C179.85 22.8604 169.84 33.6104 166.75 44.0604C163.22 56.1304 161.3 69.3804 161.16 69.0904C163.66 91.3204 165.43 120.02 196.2 125.18C203.27 126.36 209.6 125.47 215.19 123.41C202.24 134.89 186.19 132.24 180.6 130.03V127.82C180.31 135.92 179.57 147.55 178.1 148.43C175.74 149.75 166.11 147.69 166.11 147.69C166.11 147.69 171.63 175.08 206.07 173.02C240.52 170.96 239.24 146.62 239.24 146.62C239.24 146.62 229.18 147.41 227.56 145.05C226.24 143.28 227.12 125.32 227.56 116.34C228.15 115.9 228.74 115.31 229.33 114.72C236.25 108.54 240.08 100.59 242.58 91.9004C247.14 93.5204 254.8 95.2904 261.13 92.0504C271.14 86.9004 268.05 66.7304 258.19 64.2304H258.16Z" fill="white"/>
<path d="M202.42 173.97C170.88 173.97 165.31 148.11 165.26 147.85C165.2 147.57 165.29 147.28 165.5 147.08C165.7 146.88 165.99 146.79 166.27 146.85C166.32 146.86 171.76 148.02 175.33 148.02C176.75 148.02 177.36 147.84 177.62 147.71C178.35 146.84 179.28 140.37 179.74 127.78C179.76 127.32 180.14 126.97 180.6 126.96C181.06 126.96 181.43 127.35 181.43 127.81V129.43C183.04 130 186.85 131.11 192.18 131.11C197.22 131.11 204.25 130.07 211.02 125.54C206.13 126.7 201.11 126.85 196.04 126.01C165.99 120.98 163.02 93.8995 160.63 72.1395L160.3 69.1895C160.28 69.0195 160.31 68.8495 160.39 68.6995C160.47 68.3795 160.64 67.4095 160.85 66.3095C161.67 61.8395 163.37 52.5495 165.92 43.8295C168.95 33.5795 178.97 22.1195 190.48 20.6995C194.24 20.2595 198.44 20.0195 202.63 20.0195C214.35 20.0195 228.53 21.8995 233.18 27.1595C240.21 35.0595 241.59 49.1095 242.6 59.3595C242.93 62.7295 243.22 65.7195 243.66 68.0395C244.2 67.5695 244.8 67.0795 245.43 66.5995C245.54 66.2795 245.83 66.0495 246.18 66.0295C250.2 63.2895 254.35 62.3995 258.37 63.4095C264.07 64.8595 267.29 71.4295 267.96 77.3095C268.59 82.8695 267.23 89.8595 261.49 92.8095C259.01 94.0795 256.14 94.7195 252.95 94.7195C249.23 94.7195 245.68 93.8395 243.12 92.9995C240.18 102.8 235.95 109.92 229.87 115.36C229.4 115.83 228.89 116.34 228.37 116.77C228 124.25 227.11 142.77 228.23 144.55C228.69 145.21 230.84 145.9 235.56 145.9C237.54 145.9 239.14 145.78 239.16 145.78C239.39 145.76 239.61 145.84 239.79 145.99C239.96 146.14 240.07 146.36 240.08 146.58C240.09 146.83 241 171.79 206.12 173.88C204.88 173.95 203.64 173.99 202.44 173.99L202.42 173.97ZM167.25 148.78C168.73 153.88 175.92 172.28 202.42 172.28C203.59 172.28 204.79 172.24 206 172.17C235.56 170.4 238.15 151.77 238.36 147.52C237.68 147.55 236.69 147.59 235.56 147.59C228.26 147.59 227.2 146.04 226.85 145.53C225.61 143.88 225.87 133.12 226.7 116.3C226.71 116.05 226.84 115.81 227.04 115.66C227.58 115.25 228.16 114.68 228.72 114.12C234.76 108.72 238.89 101.59 241.75 91.6695C241.81 91.4395 241.97 91.2595 242.18 91.1495C242.39 91.0395 242.63 91.0295 242.85 91.1095C245.31 91.9795 249.06 93.0195 252.96 93.0195C255.88 93.0195 258.49 92.4395 260.72 91.2995C265.68 88.7495 266.84 82.4995 266.27 77.4995C265.67 72.1995 262.86 66.2995 257.95 65.0595C254.3 64.1395 250.51 65.0395 246.77 67.6895C246.74 67.7195 246.71 67.7495 246.68 67.7795C246.65 67.8095 246.62 67.8295 246.59 67.8595C245.48 68.6895 244.47 69.5495 243.74 70.2795C243.52 70.4995 243.21 70.5795 242.91 70.4995C242.62 70.4195 242.39 70.1795 242.31 69.8895C241.67 67.3195 241.31 63.7095 240.9 59.5395C239.91 49.5095 238.56 35.7795 231.9 28.2995C228.37 24.3095 216.88 21.7295 202.62 21.7295C198.5 21.7295 194.37 21.9595 190.68 22.3895C179.87 23.7195 170.42 34.5795 167.55 44.3095C165.02 52.9395 163.33 62.1795 162.52 66.6095C162.29 67.8895 162.14 68.6795 162.01 69.1695L162.32 71.9595C164.65 93.1495 167.54 119.52 196.32 124.35C202.66 125.41 208.9 124.83 214.88 122.62C215.26 122.48 215.69 122.62 215.9 122.98C216.11 123.33 216.04 123.78 215.73 124.05C207.55 131.3 198.4 132.82 192.18 132.82C187.04 132.82 183.2 131.82 181.29 131.19C180.52 147.96 179.08 148.82 178.51 149.16C177.83 149.54 176.79 149.72 175.32 149.72C172.65 149.72 169.13 149.13 167.24 148.78H167.25Z" fill="black"/>
<path d="M248.59 100.879C247.41 100.879 246.68 100.439 246.23 99.8488C244.46 97.9388 245.35 94.1088 245.35 93.6688C245.5 93.0788 246.09 92.6388 246.82 92.7888C247.41 92.9388 247.85 93.5288 247.7 94.2588C247.41 95.4388 247.26 97.4988 247.99 98.2288C248.14 98.3788 248.28 98.5188 249.02 98.3788C249.46 98.2288 249.9 98.0888 250.05 97.6388C251.08 96.0188 250.34 92.6388 250.05 91.4588C249.9 90.8688 250.2 90.1388 250.93 89.9888C251.52 89.8388 252.25 90.1388 252.4 90.8688C252.55 91.4588 253.87 96.1688 252.25 98.9688C251.66 99.9988 250.78 100.589 249.6 100.739C249.01 100.889 248.72 100.889 248.57 100.889L248.59 100.879Z" fill="white"/>
<path d="M157.91 103.82C159.09 103.82 159.82 103.38 160.27 102.79C162.04 100.88 161.15 97.0502 161.15 96.6102C161 96.0202 160.41 95.5802 159.68 95.7302C159.09 95.8802 158.65 96.4702 158.8 97.2002C159.09 98.3802 159.24 100.44 158.51 101.17C158.36 101.32 158.22 101.46 157.48 101.32C157.04 101.17 156.6 101.03 156.45 100.58C155.42 98.9602 156.16 95.5702 156.45 94.4002C156.6 93.8102 156.3 93.0802 155.57 92.9302C154.98 92.7802 154.25 93.0802 154.1 93.8102C153.95 94.4002 152.63 99.1102 154.25 101.91C154.84 102.94 155.72 103.53 156.9 103.68C157.34 103.83 157.64 103.83 157.93 103.83L157.91 103.82Z" fill="white"/>
<path d="M227.54 61.8691C226.8 62.3091 225.92 62.3091 225.04 62.0191C224.16 61.7291 223.42 61.2791 222.68 60.8391C221.06 59.8091 219.15 59.2191 217.38 58.7791C216.5 58.6291 215.32 58.3391 214.88 57.5991C214.29 56.7191 214.88 55.3891 215.76 54.7991C216.64 54.2091 217.82 54.2091 218.85 54.3591C221.35 54.7991 223.56 55.8291 225.62 57.2991C226.36 57.8891 226.94 58.4791 227.39 59.2091C227.98 60.0891 227.98 61.1191 227.54 61.8591V61.8691Z" fill="black"/>
<path d="M177.35 62.0188C178.09 62.4588 179.12 62.4588 179.85 62.1688C180.73 61.8788 181.32 61.2888 182.06 60.8488C183.68 59.8188 185.45 59.0788 187.36 58.6388C188.24 58.3488 189.42 58.1988 189.86 57.3188C190.45 56.4388 189.86 55.1088 188.83 54.5188C187.95 53.9288 186.77 54.0788 185.59 54.2288C183.09 54.6688 180.88 55.8488 178.97 57.4688C178.23 58.0588 177.65 58.6488 177.2 59.5288C176.91 60.2688 176.91 61.2988 177.35 62.0288V62.0188Z" fill="black"/>
<path d="M161.59 71.2896C161.59 71.2896 200.6 28.5996 206.34 22.4196C206.34 22.4196 194.42 43.6196 200.45 42.8796C206.49 42.1396 210.02 24.3296 210.02 24.3296C210.02 24.3296 208.11 36.8396 213.26 35.6596C218.41 34.4796 214.58 22.4096 214.58 22.4096L242.79 70.1496C242.79 70.1496 243.43 44.6396 243.57 43.8996C243.72 43.1596 238.57 25.7896 238.57 25.7896L217.81 18.8696L187.34 17.0996L167.32 20.9296L161.58 71.2696L161.59 71.2896Z" fill="black"/>
<path d="M245.06 82.5887C244.95 82.5887 244.84 82.5687 244.73 82.5187C244.3 82.3387 244.1 81.8387 244.28 81.4087C247.97 72.6487 258.37 71.5187 258.81 71.4687C259.28 71.4387 259.69 71.7587 259.74 72.2287C259.79 72.6987 259.45 73.1087 258.98 73.1587C258.88 73.1587 249.13 74.2487 245.84 82.0687C245.7 82.3887 245.39 82.5887 245.06 82.5887Z" fill="black"/>
<path d="M253.01 79.3496C252.83 79.3496 252.66 79.2996 252.51 79.1796L249.12 76.6796C248.74 76.3996 248.66 75.8696 248.94 75.4896C249.22 75.1096 249.75 75.0296 250.13 75.3096L253.52 77.8096C253.9 78.0896 253.98 78.6196 253.7 78.9996C253.53 79.2196 253.28 79.3396 253.02 79.3396L253.01 79.3496Z" fill="black"/>
<path d="M162.48 82.5887C162.15 82.5887 161.83 82.3987 161.7 82.0687C158.41 74.2587 148.66 73.1687 148.56 73.1587C148.09 73.1087 147.75 72.6987 147.8 72.2287C147.85 71.7587 148.25 71.4387 148.73 71.4687C149.17 71.5087 159.58 72.6487 163.27 81.4087C163.45 81.8387 163.25 82.3387 162.82 82.5187C162.71 82.5587 162.6 82.5887 162.49 82.5887H162.48Z" fill="black"/>
<path d="M156.59 79.3499C156.47 79.3499 156.35 79.3199 156.23 79.2699C155.81 79.0699 155.62 78.5599 155.82 78.1399L157 75.6399C157.2 75.2099 157.71 75.0299 158.13 75.2299C158.55 75.4299 158.74 75.9299 158.54 76.3599L157.36 78.8599C157.22 79.1699 156.91 79.3499 156.59 79.3499Z" fill="black"/>
<path d="M65.9902 231.799C66.4302 226.639 70.1902 219.119 77.7202 223.419C85.2502 227.719 116.71 277.459 115.9 283.909C115.09 290.359 104.73 292.029 92.3002 282.999C79.8702 273.959 65.9902 231.799 65.9902 231.799Z" fill="black"/>
<path d="M168.46 183.849C168.31 179.829 165.32 174.029 157.47 177.999C149.62 181.979 141.36 195.899 141.36 195.899C141.36 195.899 138.53 173.889 139.53 169.899C140.39 165.969 153.48 152.709 150.04 145.779C146.66 138.989 137.48 142.519 134.9 145.839C134.68 146.089 133.95 145.899 133.95 145.899C133.95 145.899 130.86 144.699 124.57 146.899C118.28 149.099 108.73 158.979 108.73 158.979C108.73 158.979 101.19 164.949 97.8003 168.269C97.8003 168.269 77.5303 182.299 77.7303 196.569C77.7703 203.559 79.5603 212.459 81.7703 220.379L66.5303 231.799C68.2303 250.919 75.1403 273.859 92.8403 282.999L98.2103 279.459L123.36 262.979L144.5 249.089L148.87 246.189C148.87 246.189 157.39 239.009 158.83 230.439C160.47 221.959 158.56 208.699 159.67 204.999C160.79 201.289 168.59 187.879 168.44 183.859L168.46 183.849Z" fill="white"/>
<path d="M92.84 283.839C92.71 283.839 92.57 283.809 92.45 283.749C71.49 272.929 66.75 243.859 65.68 231.869C65.65 231.579 65.78 231.289 66.02 231.119L80.8 220.049C78.31 210.989 76.92 202.679 76.88 196.579C76.68 182.289 95.8 168.639 97.26 167.619C100.57 164.389 107.49 158.889 108.16 158.349C108.93 157.559 118.03 148.289 124.29 146.099C126.9 145.179 129.29 144.719 131.41 144.719C133.02 144.719 133.94 144.989 134.19 145.079C134.24 145.089 134.32 145.109 134.39 145.109C136.06 143.109 139.92 141.049 143.66 141.049C146.87 141.049 149.4 142.589 150.8 145.389C153.36 150.539 147.9 158.429 143.91 164.189C142.21 166.649 140.61 168.969 140.36 170.069C139.65 172.889 141.04 186.219 141.91 193.419C144.55 189.349 150.86 180.389 157.09 177.239C158.96 176.299 160.69 175.819 162.25 175.819C166.9 175.819 169.17 179.959 169.31 183.819C169.41 186.579 166.35 192.819 163.65 198.329C162.23 201.219 160.9 203.939 160.51 205.229C160.05 206.749 160.16 210.269 160.28 214.349C160.44 219.719 160.62 225.799 159.69 230.589C158.22 239.339 149.8 246.519 149.44 246.829C149.42 246.849 149.39 246.869 149.36 246.889L144.99 249.789L123.84 263.679L93.31 283.699C93.17 283.789 93.01 283.839 92.84 283.839ZM67.41 232.189C68.52 244.089 73.21 271.539 92.79 282.009L97.74 278.739L122.9 262.259L148.37 245.499C148.95 244.989 156.68 238.169 158.01 230.289C158.9 225.659 158.72 219.419 158.57 214.399C158.44 209.999 158.34 206.529 158.88 204.739C159.31 203.319 160.61 200.659 162.12 197.579C164.47 192.779 167.7 186.209 167.61 183.879C167.53 181.679 166.3 177.519 162.24 177.519C160.95 177.519 159.47 177.939 157.84 178.759C150.29 182.579 142.16 196.189 142.08 196.329C141.9 196.639 141.53 196.799 141.18 196.729C140.83 196.659 140.56 196.369 140.51 196.009C140.39 195.099 137.67 173.789 138.7 169.689C139.01 168.279 140.55 166.059 142.5 163.229C146.25 157.819 151.38 150.399 149.27 146.149C148.14 143.889 146.25 142.749 143.65 142.749C140.38 142.749 136.91 144.619 135.56 146.359C135.28 146.679 134.92 146.819 134.47 146.819C134.11 146.819 133.78 146.739 133.72 146.719C133.69 146.719 133.66 146.699 133.63 146.689C133.63 146.689 132.88 146.419 131.4 146.419C130.07 146.419 127.86 146.639 124.84 147.699C118.82 149.809 109.42 159.469 109.33 159.569C109.3 159.599 109.28 159.619 109.25 159.649C109.18 159.709 101.71 165.629 98.39 168.879C98.36 168.909 98.32 168.939 98.28 168.969C98.08 169.109 78.38 182.909 78.57 196.559C78.61 202.639 80.03 211.019 82.58 220.149C82.67 220.489 82.55 220.849 82.27 221.059L67.41 232.199V232.189Z" fill="black"/>
<path d="M96.1993 169.569L96.3393 169.509C103.439 167.299 108.159 168.499 109.769 172.909C111.269 177.029 107.119 182.939 102.079 186.599C97.3093 190.149 96.1393 190.459 95.9893 190.519C95.8493 190.579 95.6493 190.489 95.7393 190.299C95.6793 190.159 95.7693 189.959 95.9593 190.049C95.9593 190.049 97.1393 189.739 101.619 186.299C106.249 182.809 110.449 177.039 109.059 173.199C107.559 169.079 103.099 168.099 96.4193 170.139C96.2793 170.199 96.0793 170.109 96.0293 169.969C96.0593 169.629 96.1993 169.579 96.1993 169.579V169.569Z" fill="black"/>
<path d="M95.9097 190.96C95.6997 190.96 95.5097 190.86 95.3997 190.69C95.3197 190.57 95.2897 190.43 95.3097 190.28C95.2897 190.13 95.3297 189.97 95.4097 189.84C95.5297 189.66 95.7297 189.56 95.9397 189.59C96.2697 189.45 97.6697 188.78 101.37 185.95C105.89 182.54 109.98 176.96 108.67 173.33C107.75 170.8 105.63 169.52 102.38 169.52C100.71 169.52 98.7497 169.86 96.5497 170.53C96.4997 170.55 96.4197 170.57 96.3297 170.57C96.0297 170.57 95.7497 170.39 95.6397 170.12C95.6197 170.06 95.6097 169.99 95.6097 169.93C95.6597 169.37 95.9497 169.21 96.0397 169.18L96.1797 169.12C103.57 166.82 108.49 168.18 110.17 172.76C111.77 177.17 107.44 183.24 102.33 186.94C99.3997 189.12 97.2097 190.53 96.1697 190.9C96.0697 190.94 95.9897 190.95 95.8997 190.95L95.9097 190.96Z" fill="#363636"/>
<path d="M98.8303 188.238C98.9103 188.038 99.1103 188.128 99.3103 188.208C100.66 189.128 103.24 199.178 103.55 200.358C103.61 200.498 103.52 200.698 103.38 200.748C103.24 200.808 103.04 200.718 102.99 200.578C101.91 196.288 99.7603 189.328 99.0003 188.648C98.8003 188.568 98.7503 188.428 98.8303 188.228V188.238Z" fill="black"/>
<path d="M103.28 201.199C102.98 201.199 102.7 201.019 102.59 200.749C101.32 195.709 99.3503 189.709 98.7503 189.019C98.5503 188.909 98.4603 188.769 98.4203 188.659C98.3703 188.539 98.3303 188.339 98.4403 188.079C98.5403 187.839 98.7503 187.699 99.0003 187.699C99.1803 187.699 99.3303 187.769 99.4703 187.829C99.8903 188.109 100.96 188.839 103.89 200.039L103.95 200.269C104 200.389 104 200.589 103.92 200.769C103.84 200.949 103.7 201.089 103.53 201.159C103.45 201.189 103.37 201.209 103.28 201.209V201.199Z" fill="#363636"/>
<path d="M108.93 159.068C109.29 158.758 117.43 154.668 122.32 156.288C123.64 156.738 124.65 157.628 125.3 158.838C128.63 165.488 123.73 171.538 120.95 173.138C118.17 174.748 112.66 181.698 111.82 182.848C112.39 185.068 114.25 191.328 113.92 192.108C113.84 192.308 113.7 192.358 113.5 192.278C113.3 192.198 113.25 192.058 113.33 191.858C113.44 191.328 112.25 186.748 111.15 182.788C111.11 182.695 111.12 182.582 111.18 182.448C111.4 182.198 117.54 174.348 120.54 172.488C123.18 170.938 127.77 165.338 124.69 158.918C124.1 157.848 123.28 157.038 122.16 156.678C117.47 155.148 109.53 159.318 109.39 159.378C109.25 159.438 109.05 159.348 109 159.208C108.907 159.248 108.887 159.202 108.94 159.068H108.93Z" fill="black"/>
<path d="M113.66 192.739C113.55 192.739 113.44 192.719 113.33 192.669C113.07 192.559 112.96 192.389 112.91 192.269C112.87 192.159 112.83 191.979 112.91 191.759C112.92 191.269 112.26 188.369 110.73 182.909C110.63 182.679 110.66 182.549 110.78 182.289C110.8 182.249 110.82 182.209 110.85 182.179C110.87 182.149 110.96 182.049 111.09 181.879C115.32 176.619 118.5 173.249 120.3 172.129C122.81 170.659 127.28 165.339 124.3 159.099C123.72 158.049 122.97 157.389 122.02 157.079C121.37 156.869 120.62 156.759 119.77 156.759C115.88 156.759 111.04 159.019 109.65 159.709C109.58 159.739 109.54 159.759 109.53 159.769C109.29 159.869 109.01 159.809 108.81 159.659C108.69 159.639 108.58 159.569 108.51 159.469C108.37 159.259 108.46 159.069 108.53 158.899C108.56 158.839 108.6 158.789 108.65 158.739C109.08 158.379 114.89 155.479 119.69 155.479C120.72 155.479 121.64 155.609 122.44 155.879C123.83 156.349 124.95 157.299 125.66 158.629C129.02 165.349 124.38 171.629 121.15 173.499C118.65 174.939 113.6 181.139 112.26 182.929C112.38 183.379 112.54 183.969 112.72 184.629C114 189.299 114.56 191.629 114.29 192.269C114.16 192.569 113.93 192.739 113.64 192.739H113.66Z" fill="#363636"/>
<path d="M134.68 146.91C134.76 146.71 134.96 146.8 135.16 146.88C136.82 148.17 138.03 150.78 138.26 153.78C138.44 157.46 137.07 160.94 134.57 163.25C129.86 167.75 128.13 170.73 127.74 171.38L129.87 181.93C129.93 182.07 129.84 182.27 129.7 182.32C129.56 182.37 129.36 182.29 129.31 182.15L127.12 171.46C127.12 171.46 127.06 171.32 127.2 171.26C127.28 171.06 128.82 168 134.12 162.93C136.61 160.62 137.9 157.33 137.64 153.85C137.52 151.13 136.36 148.66 134.9 147.45C134.65 147.23 134.73 147.03 134.67 146.89L134.68 146.91Z" fill="black"/>
<path d="M129.61 182.77C129.31 182.77 129.03 182.58 128.92 182.32L126.71 171.55C126.71 171.55 126.65 171.39 126.73 171.18C126.76 171.1 126.81 171.04 126.87 170.98C127.19 170.36 128.85 167.39 133.83 162.63C136.23 160.41 137.47 157.22 137.22 153.89C137.11 151.42 136.07 148.97 134.64 147.79C134.33 147.51 134.3 147.23 134.29 147.08C134.25 146.99 134.25 146.89 134.28 146.79C134.28 146.77 134.29 146.75 134.3 146.73C134.4 146.49 134.61 146.35 134.86 146.35C135.04 146.35 135.19 146.42 135.33 146.48C135.36 146.49 135.4 146.51 135.42 146.54C137.2 147.92 138.45 150.68 138.69 153.74C138.87 157.57 137.48 161.14 134.87 163.56C132.83 165.51 130.02 168.47 128.2 171.46L130.3 181.85C130.42 182.13 130.23 182.57 129.88 182.72C129.8 182.75 129.71 182.77 129.62 182.77H129.61Z" fill="#363636"/>
<path d="M105.53 210.971C105.61 210.771 105.95 210.801 106.01 210.941C111.86 216.571 113.03 225.561 112.99 231.931C113.03 238.921 111.56 244.571 111.61 244.711C111.53 244.911 111.39 244.961 111.19 244.881C110.99 244.801 110.94 244.661 111.02 244.461C111.1 244.261 116.45 221.901 105.64 211.251C105.5 211.311 105.44 211.171 105.53 210.971Z" fill="black"/>
<path d="M111.36 245.35C111.25 245.35 111.14 245.33 111.03 245.28C110.62 245.11 110.46 244.71 110.64 244.3C110.69 244.12 115.88 222.14 105.47 211.68C105.34 211.65 105.23 211.57 105.16 211.47C105.04 211.3 105.04 211.06 105.14 210.81C105.33 210.36 106.08 210.31 106.34 210.68C112.26 216.41 113.45 225.4 113.41 231.94C113.44 237.61 112.5 242.34 112.14 244.12C112.08 244.42 112.04 244.61 112.03 244.7C112.03 244.76 112.03 244.82 112 244.88C111.87 245.18 111.64 245.34 111.35 245.34L111.36 245.35Z" fill="#363636"/>
<path d="M337.98 232.29C338.52 225.84 338.79 219.38 336.1 216.7C333.41 214.02 326.15 214.55 325.35 221C324.55 227.45 296.04 258.91 292.55 261.33C289.05 263.75 278.84 267.24 276.96 273.43C275.08 279.61 298.74 272.09 306.8 266.98C314.87 261.87 337.99 232.3 337.99 232.3L337.98 232.29Z" fill="black"/>
<path d="M387.27 258.229C387.07 258.229 386.86 258.159 386.7 258.009C386.47 257.799 363.34 236.809 356.97 231.509C354.28 229.269 350.99 225.509 347.81 221.879C343.68 217.159 338.99 211.809 337 211.629C333.47 211.309 331.96 212.449 325.43 217.889C325.07 218.189 324.53 218.139 324.23 217.779C323.93 217.419 323.98 216.879 324.34 216.579C330.66 211.309 332.79 209.539 337.15 209.929C339.64 210.159 343.32 214.169 349.08 220.749C352.22 224.329 355.46 228.029 358.05 230.189C364.44 235.519 387.6 256.529 387.83 256.739C388.18 257.049 388.2 257.589 387.89 257.939C387.72 258.119 387.49 258.219 387.26 258.219L387.27 258.229Z" fill="black"/>
<path d="M277.93 286.549C277.71 286.549 277.5 286.469 277.33 286.299C271.75 280.719 269.88 275.359 271.76 270.349C273.22 266.459 276.01 264.609 279.23 262.469C281.06 261.249 282.96 259.989 284.88 258.199C285.22 257.879 285.76 257.899 286.08 258.239C286.4 258.579 286.38 259.119 286.04 259.439C284.02 261.329 281.97 262.689 280.17 263.879C277.07 265.939 274.61 267.569 273.35 270.949C271.73 275.279 273.47 280.039 278.53 285.109C278.86 285.439 278.86 285.979 278.53 286.309C278.36 286.479 278.15 286.559 277.93 286.559V286.549Z" fill="black"/>
<path d="M334.22 244.649C336.83 240.179 338.14 235.189 337.63 230.399L323.74 215.789C327.24 208.349 330.48 199.879 331.69 192.989C334.27 178.959 316.62 161.739 316.62 161.739C313.83 157.899 307.39 150.759 307.39 150.759C307.39 150.759 299.62 139.429 293.79 136.209C287.96 132.989 284.71 133.659 284.71 133.659C284.71 133.659 283.96 133.729 283.78 133.439C281.79 129.739 273.34 124.729 268.87 130.859C264.32 137.119 275.01 152.369 275.21 156.389C275.53 160.489 269.07 181.719 269.07 181.719C269.07 181.719 263.25 166.619 256.17 161.389C249.09 156.159 245.17 161.389 244.36 165.319C243.54 169.249 249 183.779 249.48 187.619C249.96 191.459 245.87 204.209 246.07 212.849C246.07 221.539 253.27 230.039 253.27 230.039L257.1 233.629L275.63 250.849L295.7 269.459C311.12 266.949 324.95 258.379 334.23 244.649H334.22Z" fill="white"/>
<path d="M295.69 270.309C295.48 270.309 295.27 270.229 295.11 270.079L275.04 251.469L252.68 230.649C252.68 230.649 252.63 230.599 252.61 230.579C252.31 230.219 245.2 221.739 245.21 212.839C245.1 207.979 246.29 202.009 247.34 196.749C248.14 192.749 248.83 189.299 248.63 187.719C248.46 186.379 247.6 183.469 246.68 180.389C244.93 174.509 242.95 167.839 243.51 165.129C244.21 161.739 246.68 158.319 250.62 158.319C252.5 158.319 254.53 159.119 256.66 160.689C262.27 164.829 267 174.719 268.93 179.169C270.98 172.219 274.57 159.309 274.35 156.429C274.29 155.279 273.1 152.719 271.83 150.019C268.86 143.669 264.79 134.979 268.17 130.339C269.71 128.229 271.86 127.109 274.38 127.109C278.44 127.109 282.75 130.009 284.39 132.789C284.45 132.789 284.55 132.789 284.6 132.789C284.73 132.769 285.04 132.729 285.53 132.729C286.93 132.729 289.92 133.079 294.2 135.449C300.01 138.659 307.43 149.309 308.06 150.219C308.64 150.859 314.54 157.439 317.27 161.169C318.54 162.419 335.12 179.059 332.53 193.129C331.48 199.129 328.72 207.099 324.76 215.609L338.25 229.799C338.38 229.939 338.46 230.109 338.48 230.289C339 235.119 337.78 240.229 334.96 245.059C325.71 258.729 311.83 267.669 295.83 270.279C295.78 270.279 295.74 270.289 295.69 270.289V270.309ZM253.87 229.449L257.66 233.009L276.19 250.229L295.96 268.559C311.32 265.939 324.64 257.299 333.51 244.179C336.06 239.799 337.21 235.159 336.81 230.779L323.12 216.379C322.88 216.129 322.82 215.749 322.97 215.429C327 206.849 329.8 198.829 330.86 192.849C333.33 179.419 316.2 162.529 316.03 162.359C316 162.329 315.96 162.289 315.94 162.249C313.21 158.489 306.83 151.409 306.77 151.339C306.74 151.309 306.72 151.279 306.7 151.249C306.62 151.139 298.97 140.049 293.39 136.959C289.45 134.779 286.78 134.459 285.54 134.459C285.11 134.459 284.88 134.499 284.88 134.499C284.86 134.499 284.82 134.499 284.8 134.509C284.8 134.509 284.69 134.519 284.52 134.519C283.81 134.519 283.32 134.309 283.07 133.899C281.92 131.759 278.09 128.839 274.4 128.839C272.41 128.839 270.79 129.689 269.56 131.369C266.77 135.209 270.59 143.369 273.39 149.339C274.84 152.449 275.99 154.899 276.06 156.369C276.39 160.559 270.15 181.119 269.89 181.989C269.78 182.339 269.47 182.579 269.11 182.589C268.75 182.619 268.42 182.389 268.29 182.049C268.23 181.899 262.48 167.119 255.68 162.099C253.85 160.749 252.16 160.059 250.65 160.059C247.24 160.059 245.62 163.489 245.2 165.509C244.73 167.799 246.81 174.809 248.33 179.939C249.31 183.229 250.15 186.059 250.33 187.539C250.56 189.389 249.88 192.799 249.02 197.109C248.04 202.029 246.81 208.159 246.92 212.849C246.92 220.879 253.4 228.879 253.89 229.479L253.87 229.449Z" fill="black"/>
<path d="M317.97 163.291L317.84 163.211C311.21 159.851 306.35 160.241 304.03 164.321C301.87 168.141 304.97 174.651 309.33 179.101C313.44 183.391 314.55 183.901 314.68 183.981C314.81 184.061 315.02 184.011 314.97 183.801C315.05 183.671 315 183.461 314.79 183.511C314.79 183.511 313.68 183.011 309.83 178.871C305.85 174.661 302.67 168.271 304.68 164.711C306.84 160.891 311.41 160.681 317.66 163.801C317.79 163.881 318 163.831 318.08 163.701C318.11 163.361 317.98 163.281 317.98 163.281L317.97 163.291Z" fill="black"/>
<path d="M314.809 184.44C314.689 184.44 314.569 184.41 314.459 184.34C313.479 183.79 311.549 182.03 309.029 179.39C304.609 174.89 301.349 168.19 303.669 164.1C305.009 161.75 307.209 160.51 310.049 160.51C312.329 160.51 315.019 161.29 318.039 162.82L318.199 162.92C318.279 162.97 318.549 163.18 318.499 163.73C318.499 163.8 318.469 163.86 318.439 163.92C318.309 164.13 318.069 164.26 317.809 164.26C317.679 164.26 317.549 164.23 317.439 164.16C311.449 161.17 307.059 161.37 305.049 164.92C303.159 168.28 306.259 174.47 310.139 178.58C313.309 181.98 314.579 182.88 314.889 183.08C315.089 183.09 315.259 183.2 315.349 183.37C315.429 183.52 315.449 183.7 315.399 183.86C315.399 183.99 315.359 184.11 315.279 184.21C315.169 184.35 314.999 184.43 314.809 184.43V184.44Z" fill="#363636"/>
<path d="M312.27 181.259C312.22 181.049 312.01 181.099 311.8 181.149C310.31 181.839 306.1 191.309 305.59 192.419C305.51 192.549 305.56 192.759 305.69 192.839C305.82 192.919 306.03 192.869 306.11 192.739C307.89 188.689 311.17 182.179 312.03 181.649C312.24 181.599 312.32 181.469 312.27 181.259Z" fill="black"/>
<path d="M305.84 193.299C305.71 193.299 305.58 193.269 305.47 193.199C305.14 192.999 305.03 192.529 305.23 192.199L305.3 192.039C308.46 185.039 310.58 181.249 311.62 180.769C311.81 180.719 311.93 180.689 312.06 180.689C312.37 180.689 312.61 180.869 312.68 181.169C312.74 181.439 312.68 181.629 312.61 181.739C312.55 181.839 312.43 181.969 312.22 182.039C311.51 182.619 308.56 188.209 306.5 192.919C306.34 193.179 306.1 193.309 305.84 193.309V193.299Z" fill="#363636"/>
<path d="M307.18 150.811C306.87 150.441 299.53 145.051 294.44 145.831C293.06 146.051 291.91 146.761 291.07 147.851C286.68 153.851 290.5 160.631 292.97 162.681C295.44 164.731 299.72 172.501 300.36 173.781C299.43 175.871 296.55 181.731 296.75 182.561C296.8 182.771 296.93 182.851 297.14 182.801C297.35 182.751 297.43 182.621 297.38 182.411C297.36 181.871 299.3 177.551 301.04 173.841C301.093 173.754 301.103 173.641 301.07 173.501C300.89 173.211 296.15 164.451 293.5 162.121C291.16 160.151 287.56 153.871 291.67 148.041C292.43 147.091 293.37 146.421 294.54 146.251C299.42 145.521 306.55 150.961 306.68 151.041C306.81 151.121 307.02 151.071 307.1 150.941C307.187 150.994 307.213 150.951 307.18 150.811Z" fill="black"/>
<path d="M297.02 183.23C296.68 183.23 296.42 183.01 296.33 182.65C296.17 181.97 297.11 179.77 299.15 175.38C299.44 174.76 299.69 174.21 299.89 173.78C298.87 171.79 294.92 164.84 292.7 163C289.82 160.62 286.29 153.65 290.73 147.59C291.66 146.39 292.92 145.64 294.37 145.41C294.73 145.36 295.1 145.33 295.49 145.33C300.67 145.33 307.23 150.22 307.5 150.53C307.54 150.58 307.57 150.64 307.59 150.7C307.63 150.88 307.68 151.06 307.54 151.24C307.46 151.34 307.33 151.41 307.2 151.41C306.98 151.52 306.68 151.53 306.47 151.4C306.46 151.4 306.42 151.37 306.36 151.32C304.84 150.21 299.57 146.6 295.49 146.6C295.18 146.6 294.89 146.62 294.61 146.66C293.64 146.8 292.76 147.35 292.01 148.29C288.04 153.92 291.57 159.91 293.78 161.78C295.38 163.19 297.96 167.04 301.25 172.93C301.35 173.11 301.42 173.23 301.44 173.26C301.46 173.3 301.48 173.34 301.49 173.39C301.56 173.66 301.57 173.79 301.41 174.05C299.02 179.15 297.88 181.89 297.81 182.38C297.85 182.61 297.79 182.78 297.72 182.88C297.65 182.99 297.51 183.14 297.24 183.2C297.17 183.22 297.1 183.23 297.03 183.23H297.02Z" fill="#363636"/>
<path d="M283.811 134.529C283.761 134.319 283.551 134.369 283.341 134.419C281.491 135.409 279.861 137.779 279.131 140.709C278.341 144.309 279.111 147.969 281.181 150.659C285.071 155.889 286.281 159.109 286.561 159.819L282.701 169.869C282.621 169.999 282.671 170.209 282.801 170.289C282.931 170.369 283.141 170.319 283.221 170.189L287.161 160.009C287.161 160.009 287.241 159.879 287.111 159.799C287.061 159.589 286.051 156.309 281.681 150.439C279.611 147.749 278.891 144.289 279.721 140.899C280.291 138.229 281.841 135.989 283.491 135.049C283.781 134.869 283.731 134.659 283.811 134.529Z" fill="black"/>
<path d="M282.96 170.74C282.83 170.74 282.7 170.71 282.59 170.64C282.43 170.54 282.32 170.38 282.27 170.19C282.22 170 282.25 169.8 282.35 169.64L286.12 159.81C284.79 156.51 282.53 153.16 280.85 150.9C278.68 148.09 277.9 144.33 278.72 140.6C279.47 137.61 281.16 135.09 283.15 134.03C283.18 134.01 283.22 134 283.25 133.99C283.36 133.96 283.48 133.93 283.61 133.93C283.86 133.93 284.06 134.05 284.17 134.25C284.23 134.32 284.26 134.41 284.26 134.51C284.26 134.61 284.23 134.7 284.17 134.77C284.13 134.94 284.04 135.19 283.73 135.39C282.1 136.33 280.67 138.57 280.15 140.97C279.35 144.23 280.03 147.57 282.03 150.16C286.3 155.9 287.38 159.14 287.52 159.62C287.59 159.73 287.63 159.86 287.62 159.95C287.62 160.02 287.57 160.15 287.54 160.21L283.64 170.32C283.48 170.6 283.24 170.73 282.97 170.73L282.96 170.74Z" fill="#363636"/>
<path d="M301.87 202.549C301.82 202.339 301.48 202.309 301.4 202.439C294.69 207.019 292.04 215.679 291.01 221.969C289.8 228.859 290.31 234.669 290.24 234.799C290.29 235.009 290.42 235.089 290.63 235.039C290.84 234.989 290.92 234.859 290.87 234.649C290.82 234.439 289.28 211.499 301.71 202.799C301.84 202.879 301.92 202.749 301.87 202.539V202.549Z" fill="black"/>
<path d="M290.52 235.479C290.18 235.479 289.92 235.259 289.83 234.899C289.82 234.839 289.81 234.779 289.83 234.719C289.83 234.629 289.83 234.429 289.82 234.129C289.77 232.309 289.62 227.489 290.6 221.899C291.65 215.449 294.32 206.789 301.12 202.119C301.23 201.999 301.4 201.939 301.59 201.939C301.93 201.939 302.21 202.149 302.29 202.449C302.35 202.689 302.31 202.909 302.19 203.059C302.12 203.149 301.95 203.239 301.82 203.249C289.81 211.829 291.27 234.369 291.29 234.589C291.39 234.989 291.17 235.349 290.73 235.449C290.66 235.469 290.59 235.479 290.52 235.479Z" fill="#363636"/>
<path d="M109.81 303.399C109.69 303.399 109.56 303.369 109.45 303.319C109.03 303.119 108.85 302.609 109.05 302.189C109.2 301.879 112.76 294.449 115.76 292.199C116.19 291.879 116.6 291.589 117 291.319C119.24 289.779 120.71 288.759 120.44 284.329C120.1 278.859 114.16 268.679 114.1 268.569C113.86 268.169 114 267.649 114.4 267.409C114.8 267.169 115.33 267.309 115.56 267.709C115.81 268.139 121.76 278.349 122.13 284.219C122.47 289.599 120.38 291.039 117.96 292.709C117.58 292.969 117.18 293.249 116.77 293.549C114.1 295.549 110.61 302.839 110.57 302.909C110.42 303.219 110.12 303.389 109.8 303.389L109.81 303.399Z" fill="black"/>
<path d="M22.6898 257.869C22.4598 257.869 22.2398 257.779 22.0698 257.599C21.7498 257.259 21.7698 256.719 22.1098 256.399C23.7898 254.839 27.7298 251.799 32.2998 248.279C40.6998 241.799 53.3998 232.019 54.5198 229.109C56.4198 224.179 65.6798 217.919 70.1898 216.929C74.7398 215.949 79.7398 221.259 79.9498 221.479C80.2698 221.819 80.2498 222.359 79.9098 222.679C79.5698 222.999 79.0298 222.979 78.7098 222.639C78.6598 222.589 74.1498 217.799 70.5498 218.589C66.5698 219.449 57.7698 225.389 56.1098 229.719C54.9198 232.819 45.5098 240.239 33.3398 249.619C28.8098 253.109 24.8998 256.129 23.2698 257.639C23.1098 257.789 22.8998 257.869 22.6898 257.869Z" fill="black"/>
<path d="M199.43 88.7702C199.27 88.7702 199.1 88.7202 198.96 88.6302C198.39 88.2502 195.52 86.2402 195.35 84.1702C195.27 83.2402 195.73 81.7802 196.53 79.2702C197.31 76.8502 198.28 73.8402 198.59 71.2002C198.65 70.7302 199.07 70.4002 199.53 70.4602C200 70.5102 200.33 70.9402 200.27 71.4002C199.94 74.2102 198.94 77.3102 198.14 79.8002C197.57 81.5702 196.98 83.4102 197.03 84.0402C197.11 84.9802 198.75 86.4702 199.89 87.2302C200.28 87.4902 200.39 88.0202 200.13 88.4102C199.97 88.6602 199.7 88.7902 199.42 88.7902L199.43 88.7702Z" fill="black"/>
<path d="M222.23 72.1401C222.23 69.6201 220.9 67.5801 219.26 67.5801C217.62 67.5801 216.29 69.6201 216.29 72.1401C216.29 74.6601 217.62 76.7001 219.26 76.7001C220.9 76.7001 222.23 74.6601 222.23 72.1401Z" fill="black"/>
<path d="M186.581 72.1401C186.581 69.6201 185.251 67.5801 183.611 67.5801C181.971 67.5801 180.641 69.6201 180.641 72.1401C180.641 74.6601 181.971 76.7001 183.611 76.7001C185.251 76.7001 186.581 74.6601 186.581 72.1401Z" fill="black"/>
<path d="M203.68 100.42C199.49 100.42 196.15 99.3902 196.08 99.3702C195.63 99.2302 195.39 98.7502 195.53 98.3002C195.67 97.8502 196.15 97.6102 196.6 97.7502C196.74 97.7902 210.67 102.08 216.41 92.4002C216.65 92.0002 217.17 91.8602 217.57 92.1002C217.97 92.3402 218.11 92.8602 217.87 93.2602C214.44 99.0602 208.5 100.42 203.68 100.42Z" fill="black"/>
<path d="M218.69 94.3903C218.53 94.3903 218.36 94.3403 218.21 94.2403L215.1 92.1203C214.71 91.8603 214.61 91.3303 214.88 90.9403C215.14 90.5503 215.67 90.4503 216.06 90.7203L219.17 92.8403C219.56 93.1003 219.66 93.6303 219.39 94.0203C219.23 94.2603 218.96 94.3903 218.69 94.3903Z" fill="black"/>
<path d="M164.26 25.1791C163.13 23.7891 162.91 21.7291 163.73 20.1291C164.12 19.3791 164.7 18.7491 165.3 18.1591C166.84 16.6491 168.59 15.2891 170.63 14.5791C172.77 13.8291 175.69 14.1891 176.51 16.2991C177 17.5791 176.52 19.0391 176.8 20.3891C177.29 22.7191 179.79 23.9391 181.97 24.9091C184.14 25.8791 186.58 27.3891 186.68 29.7691C186.76 31.7491 185.14 33.3491 183.65 34.6591C181.43 36.6091 179.08 38.6191 176.19 39.2191C173.3 39.8191 169.77 38.3891 169.12 35.5191C168.67 33.5191 169.66 31.2991 168.83 29.4291C167.97 27.5191 165.59 26.8191 164.27 25.1891L164.26 25.1791Z" fill="white"/>
<path d="M229.44 34.6402C227.74 33.2102 226.1 31.6102 225.26 29.5602C224.42 27.5102 224.55 24.9202 226.1 23.3402C227.92 21.4902 230.9 21.6002 233.44 22.1202C235.98 22.6402 238.65 23.4402 241.09 22.5702C243.71 21.6302 245.39 18.9802 247.95 17.9102C249.45 19.7502 250.95 21.7002 251.46 24.0102C251.97 26.3202 251.17 29.1002 249.04 30.1402C246.82 31.2302 244.02 30.1302 241.75 31.1002C238.98 32.2902 237.88 36.1702 234.93 36.8102C232.93 37.2402 231 35.9602 229.44 34.6402Z" fill="white"/>
<path d="M52.1004 381.659L88.8004 385.439C90.8504 385.649 93.2804 384.769 94.2304 383.469L119.73 348.389C120.68 347.089 119.78 345.859 117.73 345.649L81.0304 341.869C78.9804 341.659 76.5504 342.539 75.6004 343.839L50.1004 378.919C49.1504 380.219 50.0504 381.449 52.1004 381.659Z" fill="white"/>
<path d="M89.4202 386.32C89.1802 386.32 88.9402 386.31 88.7102 386.28L52.0102 382.5C50.5502 382.35 49.4702 381.73 49.0502 380.79C48.7102 380.04 48.8402 379.2 49.4102 378.42L74.9102 343.34C76.0302 341.81 78.7102 340.77 81.1102 341.02L117.81 344.8C119.27 344.95 120.35 345.57 120.77 346.51C121.11 347.26 120.98 348.1 120.41 348.88L94.9102 383.96C93.9002 385.35 91.6402 386.31 89.4202 386.31V386.32ZM80.3902 342.69C78.7502 342.69 76.9502 343.42 76.2702 344.34L50.7702 379.42C50.6302 379.61 50.4902 379.88 50.5902 380.1C50.7102 380.37 51.1902 380.71 52.1702 380.81L88.8702 384.59C89.0502 384.61 89.2302 384.62 89.4102 384.62C91.0502 384.62 92.8502 383.89 93.5302 382.97L119.03 347.89C119.17 347.7 119.31 347.43 119.21 347.21C119.09 346.94 118.61 346.6 117.63 346.5L80.9302 342.72C80.7502 342.7 80.5702 342.69 80.3902 342.69Z" fill="black"/>
<path d="M83.9497 363.759C85.7597 362.639 87.9797 361.559 90.3097 361.349C93.3097 361.079 95.4997 362.469 95.5197 364.159C95.5397 365.849 93.7897 367.709 91.4997 369.169C89.2097 370.629 86.4097 371.779 83.6497 372.899C81.8497 373.629 80.0597 374.359 78.2597 375.099C77.8597 375.259 77.4497 375.429 77.0097 375.489C76.1097 375.619 75.4297 375.299 74.9297 374.949C72.9597 373.569 72.1197 371.679 71.6297 369.759C71.2497 368.279 71.0797 366.699 72.0297 365.099C72.9897 363.499 75.3397 361.869 78.0997 361.409C80.7297 360.969 83.2097 361.819 83.4897 363.249" fill="black"/>
<path d="M89.3897 358.639C88.3597 359.499 87.5797 360.509 86.0797 361.079C86.3597 359.169 86.2397 357.309 85.7197 355.549C88.5197 355.549 91.1897 355.849 93.5897 356.409C91.9597 356.949 90.4897 357.729 89.3997 358.639H89.3897Z" fill="black"/>
<path d="M84.1004 395.979L120.8 399.759C122.85 399.969 125.28 399.089 126.23 397.789L151.73 362.709C152.68 361.409 151.78 360.179 149.73 359.969L113.03 356.189C110.98 355.979 108.55 356.859 107.6 358.159L82.1004 393.239C81.1504 394.539 82.0504 395.769 84.1004 395.979Z" fill="white"/>
<path d="M121.43 400.64C121.19 400.64 120.95 400.63 120.72 400.6L84.0199 396.82C82.5599 396.67 81.4799 396.05 81.0599 395.11C80.7199 394.36 80.8499 393.52 81.4199 392.74L106.92 357.66C108.04 356.13 110.72 355.09 113.12 355.34L149.82 359.12C151.28 359.27 152.36 359.89 152.78 360.83C153.12 361.58 152.99 362.42 152.42 363.2L126.92 398.28C125.91 399.67 123.65 400.63 121.43 400.63V400.64ZM112.41 357.01C110.77 357.01 108.97 357.74 108.29 358.66L82.7899 393.74C82.6499 393.93 82.5099 394.2 82.6099 394.42C82.7299 394.69 83.2099 395.03 84.1899 395.13L120.89 398.91C122.66 399.09 124.79 398.31 125.54 397.28L151.04 362.2C151.18 362.01 151.32 361.74 151.22 361.52C151.1 361.25 150.62 360.91 149.64 360.81L112.94 357.03C112.76 357.01 112.59 357 112.4 357L112.41 357.01Z" fill="black"/>
<path d="M95.3896 391.65C94.4396 392.31 93.2396 392.96 91.9196 393.13C90.2196 393.35 88.8696 392.65 88.7296 391.72C88.5896 390.79 89.4596 389.73 90.6596 388.87C91.8596 388.01 93.3796 387.31 94.8796 386.62C95.8496 386.17 96.8296 385.73 97.7996 385.28C98.0196 385.18 98.2396 385.08 98.4796 385.03C98.9796 384.93 99.3996 385.1 99.7096 385.27C100.94 385.98 101.56 386.99 101.99 388.04C102.31 388.84 102.53 389.71 102.1 390.61C101.67 391.51 100.44 392.47 98.8996 392.79C97.4196 393.1 95.9396 392.69 95.6796 391.91" fill="#4257FF"/>
<path d="M112.86 367.62C111.91 368.28 110.71 368.93 109.39 369.1C107.69 369.32 106.34 368.62 106.2 367.69C106.06 366.76 106.93 365.7 108.13 364.84C109.33 363.98 110.85 363.28 112.35 362.59C113.32 362.14 114.3 361.7 115.27 361.25C115.49 361.15 115.71 361.05 115.95 361C116.45 360.9 116.87 361.07 117.18 361.24C118.41 361.95 119.03 362.961 119.46 364.011C119.78 364.811 120 365.68 119.57 366.58C119.14 367.48 117.91 368.441 116.37 368.761C114.89 369.071 113.41 368.66 113.15 367.88" fill="#4257FF"/>
<path d="M135.91 369.999C134.96 370.659 133.76 371.309 132.44 371.479C130.74 371.699 129.39 370.999 129.25 370.069C129.11 369.139 129.98 368.079 131.18 367.219C132.38 366.359 133.9 365.659 135.4 364.969C136.37 364.519 137.35 364.079 138.32 363.629C138.54 363.529 138.76 363.429 139 363.379C139.5 363.279 139.92 363.449 140.23 363.619C141.46 364.329 142.08 365.339 142.51 366.389C142.83 367.189 143.05 368.059 142.62 368.959C142.19 369.859 140.96 370.819 139.42 371.139C137.94 371.449 136.46 371.039 136.2 370.259" fill="#4257FF"/>
<path d="M118.59 393.829C117.64 394.489 116.44 395.139 115.12 395.309C113.42 395.529 112.07 394.829 111.93 393.899C111.79 392.969 112.66 391.909 113.86 391.049C115.06 390.189 116.58 389.489 118.08 388.799C119.05 388.349 120.03 387.909 121 387.459C121.22 387.359 121.44 387.259 121.68 387.209C122.18 387.109 122.6 387.279 122.91 387.449C124.14 388.159 124.76 389.169 125.19 390.219C125.51 391.019 125.73 391.889 125.3 392.789C124.87 393.699 123.64 394.649 122.1 394.969C120.62 395.279 119.14 394.869 118.88 394.089" fill="#4257FF"/>
<path d="M146.77 387.751L183.47 391.531C185.52 391.741 187.95 390.861 188.9 389.561L214.4 354.481C215.35 353.181 214.45 351.951 212.4 351.741L175.7 347.961C173.65 347.751 171.22 348.631 170.27 349.931L144.77 385.011C143.82 386.311 144.72 387.541 146.77 387.751Z" fill="white"/>
<path d="M184.09 392.4C183.85 392.4 183.61 392.39 183.38 392.36L146.68 388.58C145.22 388.43 144.14 387.81 143.72 386.87C143.38 386.12 143.51 385.28 144.08 384.5L169.58 349.42C170.7 347.88 173.38 346.85 175.78 347.1L212.48 350.88C213.94 351.03 215.02 351.65 215.44 352.59C215.78 353.34 215.65 354.18 215.08 354.96L189.58 390.04C188.57 391.43 186.31 392.39 184.09 392.39V392.4ZM175.07 348.77C173.43 348.77 171.63 349.5 170.95 350.42L145.45 385.5C145.31 385.69 145.17 385.96 145.27 386.18C145.39 386.45 145.87 386.79 146.85 386.89L183.55 390.67C185.32 390.86 187.45 390.07 188.2 389.04L213.7 353.96C213.84 353.77 213.98 353.5 213.88 353.28C213.76 353.01 213.28 352.67 212.3 352.57L175.6 348.79C175.42 348.77 175.25 348.76 175.06 348.76L175.07 348.77Z" fill="black"/>
<path d="M162.86 378.979C163.01 376.429 162.78 373.859 162.17 371.379C159.81 373.199 157.66 375.279 155.76 377.569C155.44 377.949 155.12 378.369 155.04 378.859C154.92 379.579 155.32 380.269 155.67 380.899C156.42 382.269 156.98 383.739 157.34 385.259C157.82 385.199 158.2 384.819 158.53 384.459C159.74 383.179 160.95 381.899 162.16 380.609C162.35 380.399 162.55 380.199 162.67 379.939C162.81 379.639 162.84 379.299 162.86 378.979Z" fill="#4257FF"/>
<path d="M201.51 361.139C201.66 358.589 201.43 356.019 200.82 353.539C198.46 355.359 196.31 357.439 194.41 359.729C194.09 360.109 193.77 360.529 193.69 361.019C193.57 361.739 193.97 362.429 194.32 363.059C195.07 364.429 195.63 365.899 195.99 367.419C196.47 367.349 196.85 366.979 197.18 366.619C198.39 365.339 199.6 364.059 200.81 362.769C201 362.569 201.2 362.359 201.32 362.099C201.46 361.799 201.49 361.459 201.51 361.139Z" fill="#4257FF"/>
<path d="M252.76 191.489C254.53 188.799 257.86 187.229 261.06 187.569C264.26 187.919 267.18 190.169 268.33 193.169C268.76 194.289 268.96 195.509 269.51 196.579C271.57 200.599 277.33 200.909 280.56 204.059C281.89 205.349 282.72 207.079 283.24 208.859C284.87 214.429 283.43 220.739 279.75 225.219C276.07 229.699 270.28 232.309 264.48 232.369C262.13 232.389 259.71 231.989 257.73 230.729C255.55 229.339 254.12 227.029 253.1 224.649C249.89 217.129 250.25 208.629 250.67 200.469C250.83 197.359 251.04 194.089 252.75 191.499L252.76 191.489Z" fill="#CCD7F2"/>
<path d="M139.41 244.739C143.49 242.049 144.76 236.709 145.36 231.859C146.25 224.599 146.35 217.139 144.58 210.039C142.81 202.939 139.04 196.179 133.23 191.729C132.69 191.319 132.11 190.909 131.44 190.819C130.57 190.689 129.72 191.099 128.93 191.499C127.39 192.279 125.82 193.079 124.57 194.269C121.6 197.099 120.95 201.619 121.36 205.699C121.78 209.779 123.07 213.739 123.31 217.829C123.74 225.229 120.69 232.459 120.84 239.859C120.85 240.619 120.92 241.419 121.33 242.049C121.73 242.649 122.39 243.019 123.04 243.349C128.15 245.989 134.61 247.899 139.41 244.729V244.739Z" fill="#CCD7F2"/>
<path d="M197.21 353.08C232.622 353.08 261.33 343.924 261.33 332.63C261.33 321.335 232.622 312.18 197.21 312.18C161.797 312.18 133.09 321.335 133.09 332.63C133.09 343.924 161.797 353.08 197.21 353.08Z" fill="white"/>
<path d="M197.21 353.92C160.78 353.92 132.24 344.57 132.24 332.62C132.24 320.67 160.78 311.32 197.21 311.32C233.64 311.32 262.18 320.67 262.18 332.62C262.18 344.57 233.64 353.92 197.21 353.92ZM197.21 313.03C162.92 313.03 133.94 322.01 133.94 332.63C133.94 343.25 162.91 352.23 197.21 352.23C231.51 352.23 260.48 343.25 260.48 332.63C260.48 322.01 231.51 313.03 197.21 313.03Z" fill="black"/>
<path d="M251.2 320.589C246.68 313.089 236.04 293.009 237.72 272.459L198.05 273.159L158.38 272.459C160.06 293.009 149.43 313.089 144.9 320.589C143.31 322.239 142.45 323.989 142.45 325.809C142.45 335.599 167.34 343.539 198.05 343.539C228.76 343.539 253.65 335.599 253.65 325.809C253.65 323.989 252.79 322.239 251.2 320.589Z" fill="#CCD7F2"/>
<path d="M198.06 344.389C166.41 344.389 141.61 336.229 141.61 325.809C141.61 323.829 142.49 321.899 144.23 320.069C148.82 312.429 159.19 292.689 157.54 272.529C157.52 272.289 157.6 272.049 157.77 271.879C157.93 271.709 158.18 271.609 158.4 271.609L198.07 272.309L237.71 271.609C237.96 271.609 238.18 271.699 238.34 271.879C238.5 272.049 238.59 272.289 238.57 272.529C236.92 292.699 247.28 312.439 251.88 320.069C253.62 321.899 254.5 323.829 254.5 325.809C254.5 336.229 229.71 344.389 198.05 344.389H198.06ZM159.3 273.319C160.61 293.719 150.22 313.419 145.64 321.029C145.61 321.079 145.57 321.139 145.52 321.179C144.05 322.699 143.31 324.259 143.31 325.809C143.31 334.959 168.38 342.689 198.06 342.689C227.74 342.689 252.81 334.959 252.81 325.809C252.81 324.259 252.07 322.699 250.6 321.179C250.56 321.129 250.52 321.079 250.48 321.029C245.9 313.429 235.5 293.729 236.82 273.319L198.08 273.999L159.31 273.319H159.3Z" fill="black"/>
<path d="M197.259 292.9C223.372 292.9 244.539 284.08 244.539 273.2C244.539 262.32 223.372 253.5 197.259 253.5C171.147 253.5 149.979 262.32 149.979 273.2C149.979 284.08 171.147 292.9 197.259 292.9Z" fill="white"/>
<path d="M197.26 293.75C170.27 293.75 149.13 284.72 149.13 273.2C149.13 261.68 170.27 252.65 197.26 252.65C224.25 252.65 245.39 261.68 245.39 273.2C245.39 284.72 224.25 293.75 197.26 293.75ZM197.26 254.35C171.66 254.35 150.82 262.81 150.82 273.2C150.82 283.59 171.65 292.05 197.26 292.05C222.87 292.05 243.7 283.59 243.7 273.2C243.7 262.81 222.87 254.35 197.26 254.35Z" fill="black"/>
<path d="M243.142 267.484C268.51 242.116 268.51 200.986 243.142 175.617C217.773 150.249 176.643 150.249 151.274 175.617C125.906 200.986 125.906 242.116 151.274 267.484C176.643 292.853 217.773 292.853 243.142 267.484Z" fill="#A2BFF9"/>
<path d="M197.21 287.36C160.92 287.36 131.4 257.84 131.4 221.55C131.4 185.26 160.92 155.74 197.21 155.74C233.5 155.74 263.02 185.26 263.02 221.55C263.02 257.84 233.5 287.36 197.21 287.36ZM197.21 157.43C161.86 157.43 133.1 186.19 133.1 221.54C133.1 256.89 161.86 285.65 197.21 285.65C232.56 285.65 261.32 256.89 261.32 221.54C261.32 186.19 232.56 157.43 197.21 157.43Z" fill="black"/>
<path d="M171.45 176.371C170.51 173.281 173.29 169.811 176.51 169.671C177.42 169.631 178.35 169.801 179.24 169.641C180.29 169.451 181.2 168.841 182.14 168.351C183.97 167.401 186 166.881 188.03 166.491C190.2 166.081 192.43 165.801 194.6 166.211C196.77 166.621 198.88 167.791 199.97 169.711C200.3 170.281 200.53 170.951 200.42 171.601C200.13 173.311 197.9 173.751 196.16 173.801C190.38 173.961 184.38 174.261 179.25 176.931C178.15 177.501 177.09 178.191 175.9 178.521C174.71 178.851 173.31 178.771 172.39 177.951C171.93 177.541 171.62 176.971 171.44 176.381L171.45 176.371Z" fill="white"/>
<path d="M184.72 276.6C181.47 276.37 178.46 274.76 175.82 272.86C173.69 271.33 171.54 269.16 171.76 266.55C171.91 264.81 173.15 263.29 174.7 262.47C176.25 261.66 178.05 261.46 179.8 261.54C187.24 261.88 194.03 266.8 201.47 266.51C211.14 266.13 218.93 257.11 228.61 257.02C229.24 257.02 229.89 257.06 230.42 257.39C230.83 257.65 231.13 258.06 231.35 258.49C232.63 260.89 232.01 263.98 230.37 266.15C228.73 268.32 226.24 269.69 223.69 270.63C214.57 273.98 204.35 272.43 194.9 274.72C191.53 275.54 188.17 276.85 184.71 276.6H184.72Z" fill="white"/>
<path d="M228.58 174.68C228.94 175.24 229.24 175.9 229.14 176.57C228.95 177.83 227.51 178.44 226.27 178.68C221.58 179.6 216.52 178.55 212.59 175.83C211.27 174.92 209.95 173.42 210.45 171.9C210.87 170.61 212.38 170.06 213.71 169.84C215.96 169.47 218.28 169.56 220.53 169.98C223.67 170.58 226.85 171.99 228.58 174.67V174.68Z" fill="white"/>
<path d="M209.307 253.692C227.789 247.198 237.507 226.951 231.013 208.469C224.519 189.987 204.272 180.269 185.79 186.763C167.309 193.257 157.591 213.504 164.085 231.986C170.579 250.468 190.825 260.186 209.307 253.692Z" fill="#4257FF"/>
<path d="M197.55 256.531C181.51 256.531 167.57 246.221 162.85 230.881C160 221.611 160.93 211.781 165.47 203.211C170.01 194.641 177.62 188.351 186.89 185.501C190.37 184.431 193.97 183.891 197.57 183.891C213.61 183.891 227.55 194.201 232.27 209.541C238.15 228.681 227.37 249.041 208.23 254.931C204.75 256.001 201.15 256.541 197.55 256.541V256.531ZM197.57 185.581C194.13 185.581 190.7 186.101 187.38 187.121C178.54 189.841 171.29 195.831 166.96 204.011C162.63 212.181 161.74 221.551 164.46 230.391C168.96 245.021 182.25 254.841 197.54 254.841C200.98 254.841 204.4 254.321 207.72 253.301C225.97 247.691 236.25 228.281 230.64 210.041C226.14 195.411 212.85 185.591 197.56 185.591L197.57 185.581Z" fill="black"/>
<path d="M220.731 232.48C227.509 219.683 222.63 203.815 209.834 197.036C197.037 190.258 181.169 195.137 174.39 207.933C167.612 220.73 172.491 236.598 185.287 243.377C198.084 250.155 213.952 245.276 220.731 232.48Z" fill="white"/>
<path d="M197.55 247.281C185.6 247.281 175.2 239.591 171.68 228.161C169.56 221.251 170.25 213.921 173.63 207.531C177.01 201.141 182.68 196.451 189.6 194.331C192.19 193.531 194.87 193.131 197.56 193.131C209.51 193.131 219.91 200.811 223.43 212.251C225.55 219.161 224.86 226.491 221.48 232.881C218.1 239.271 212.42 243.961 205.51 246.081C202.92 246.881 200.24 247.281 197.55 247.281ZM197.57 194.821C195.05 194.821 192.54 195.201 190.1 195.951C183.62 197.941 178.31 202.341 175.14 208.331C171.97 214.321 171.32 221.181 173.31 227.661C176.61 238.381 186.35 245.581 197.55 245.581C200.07 245.581 202.58 245.201 205.01 244.451C211.49 242.461 216.8 238.061 219.97 232.071C223.14 226.081 223.79 219.221 221.8 212.741C218.5 202.021 208.76 194.821 197.56 194.821H197.57Z" fill="#290A43"/>
<path d="M214.148 228.993C219 219.832 215.508 208.473 206.347 203.62C197.187 198.768 185.827 202.26 180.974 211.421C176.122 220.582 179.615 231.941 188.775 236.794C197.936 241.646 209.296 238.154 214.148 228.993Z" fill="#4257FF"/>
<path d="M197.551 239.83C188.891 239.83 181.351 234.26 178.801 225.97C175.621 215.63 181.451 204.63 191.791 201.45C193.671 200.87 195.611 200.58 197.561 200.58C206.221 200.58 213.761 206.15 216.311 214.44C217.851 219.45 217.351 224.76 214.891 229.39C212.441 234.02 208.331 237.42 203.321 238.96C201.441 239.54 199.501 239.83 197.551 239.83ZM197.561 202.28C195.781 202.28 194.011 202.55 192.291 203.08C182.851 205.98 177.521 216.03 180.431 225.48C182.761 233.05 189.641 238.14 197.551 238.14C199.331 238.14 201.101 237.87 202.821 237.34C207.401 235.93 211.151 232.83 213.391 228.6C215.631 224.37 216.091 219.52 214.681 214.95C212.351 207.38 205.471 202.29 197.561 202.29V202.28Z" fill="black"/>
<path d="M203.289 230.409C208.924 227.247 210.928 220.115 207.766 214.48C204.604 208.845 197.472 206.84 191.837 210.003C186.202 213.165 184.197 220.297 187.36 225.932C190.522 231.567 197.653 233.571 203.289 230.409Z" fill="white"/>
<path d="M197.55 232.75C192.01 232.75 187.19 229.19 185.56 223.89C184.58 220.69 184.9 217.29 186.47 214.33C188.04 211.37 190.67 209.2 193.87 208.21C195.07 207.84 196.31 207.65 197.56 207.65C203.1 207.65 207.92 211.21 209.55 216.51C211.58 223.12 207.86 230.15 201.25 232.19C200.05 232.56 198.81 232.75 197.56 232.75H197.55ZM197.55 209.35C196.47 209.35 195.4 209.51 194.36 209.83C191.59 210.68 189.32 212.56 187.96 215.12C186.6 217.68 186.33 220.62 187.18 223.38C188.59 227.96 192.75 231.04 197.54 231.04C198.62 231.04 199.69 230.88 200.73 230.56C206.45 228.8 209.67 222.72 207.91 217C206.5 212.42 202.34 209.34 197.55 209.34V209.35Z" fill="#290A43"/>
<path d="M203.13 218.49C202.18 215.41 198.92 213.68 195.84 214.63C192.76 215.58 191.03 218.84 191.98 221.92C192.93 225 196.19 226.73 199.27 225.78C202.35 224.83 204.08 221.57 203.13 218.49Z" fill="#4257FF"/>
<path d="M197.55 226.89C194.6 226.89 192.04 224.99 191.17 222.17C190.09 218.65 192.07 214.9 195.59 213.82C196.23 213.62 196.89 213.52 197.55 213.52C200.5 213.52 203.07 215.42 203.93 218.24C204.45 219.95 204.28 221.75 203.45 223.33C202.61 224.91 201.22 226.06 199.51 226.59C198.87 226.79 198.21 226.89 197.55 226.89ZM197.55 215.23C197.06 215.23 196.56 215.3 196.08 215.45C193.45 216.26 191.97 219.05 192.78 221.68C193.43 223.78 195.34 225.2 197.54 225.2C198.03 225.2 198.53 225.13 199.01 224.98C200.28 224.59 201.33 223.73 201.95 222.55C202.57 221.37 202.7 220.03 202.31 218.75C201.66 216.64 199.75 215.23 197.55 215.23Z" fill="black"/>
<path d="M162.84 199.5L161.55 193.38L151.61 187.07L154.44 195.71L162.84 199.5Z" fill="#4257FF"/>
<path d="M162.841 200.351C162.721 200.351 162.601 200.331 162.491 200.271L154.091 196.481C153.871 196.381 153.711 196.201 153.631 195.971L150.801 187.331C150.691 186.991 150.801 186.621 151.091 186.401C151.371 186.181 151.761 186.161 152.071 186.351L162.011 192.651C162.201 192.771 162.341 192.971 162.391 193.191L163.681 199.321C163.751 199.631 163.631 199.961 163.381 200.161C163.231 200.281 163.041 200.351 162.851 200.351H162.841ZM155.131 195.091L161.671 198.041L160.801 193.901L153.161 189.051L155.141 195.091H155.131Z" fill="black"/>
<path d="M162.86 199.411L157.3 202.281L146.13 198.551L154.62 195.291L162.86 199.411Z" fill="#4257FF"/>
<path d="M157.3 203.131C157.21 203.131 157.12 203.121 157.03 203.091L145.86 199.361C145.52 199.251 145.29 198.931 145.28 198.571C145.28 198.211 145.49 197.891 145.82 197.761L154.31 194.501C154.53 194.421 154.78 194.431 154.99 194.531L163.24 198.651C163.53 198.791 163.71 199.081 163.71 199.401C163.71 199.721 163.53 200.011 163.25 200.161L157.69 203.031C157.57 203.091 157.44 203.121 157.3 203.121V203.131ZM148.64 198.501L157.23 201.371L160.99 199.431L154.57 196.221L148.64 198.501Z" fill="black"/>
<path d="M195.23 219.441C195.04 219.481 194.83 219.461 194.64 219.351L154.25 196.411C153.86 196.191 153.72 195.691 153.94 195.291C154.16 194.901 154.66 194.761 155.06 194.981L195.45 217.921C195.84 218.141 195.98 218.641 195.76 219.041C195.64 219.251 195.45 219.381 195.23 219.431V219.441Z" fill="black"/>
<path d="M198.5 220.87L193.11 211.15L192.67 217.07L187.69 220.2L198.5 220.87Z" fill="#4257FF"/>
<path d="M198.501 221.72C198.501 221.72 198.471 221.72 198.451 221.72L187.641 221.05C187.271 221.03 186.961 220.77 186.871 220.41C186.781 220.05 186.931 219.68 187.241 219.48L191.851 216.58L192.261 211.09C192.291 210.72 192.561 210.4 192.921 210.32C193.291 210.24 193.661 210.41 193.841 210.74L199.231 220.46C199.381 220.73 199.371 221.06 199.211 221.33C199.051 221.58 198.781 221.73 198.491 221.73L198.501 221.72ZM190.371 219.52L197.001 219.93L193.741 214.05L193.511 217.14C193.491 217.41 193.341 217.65 193.121 217.8L190.371 219.53V219.52Z" fill="black"/>
</svg>
