<svg width="420" height="365" viewBox="0 0 420 365" fill="none" xmlns="http://www.w3.org/2000/svg">
<path d="M170.74 14.4897C158.19 23.1297 152.32 38.7097 141.13 49.0497C130.03 59.2997 114.73 63.4997 99.9098 66.4397C85.0898 69.3797 69.7498 71.5297 56.4998 78.7797C43.2398 86.0297 32.2798 99.9197 33.6098 114.97C34.3498 123.39 38.8098 131.34 38.3498 139.79C37.7998 149.98 30.3898 158.25 24.3398 166.48C8.71983 187.73 0.749825 217.96 14.7398 240.32C26.3898 258.94 50.7198 268.29 58.3898 288.87C64.7598 305.96 57.7298 326.7 67.0698 342.37C77.0598 359.14 100.91 361.43 119.7 356.12C167.23 342.69 199.77 295.8 247.44 282.9C295.91 269.78 352.19 294.09 395.67 268.97C400.16 266.37 404.46 263.21 407.41 258.95C410.63 254.29 412.05 248.61 412.73 242.99C414.89 225.18 410.06 206.61 399.48 192.11C384.87 172.08 359.65 159 352.92 135.14C350.07 125.03 351.04 114.29 350.18 103.82C347.51 71.3997 325.51 41.3197 295.43 28.9497C278.81 22.1197 260.59 20.4897 243.11 16.3297C218.83 10.5597 191.29 0.379665 170.73 14.5297L170.74 14.4897Z" fill="#4257FF"/>
<path d="M399.67 191.708L408.23 188.988L399.67 186.068C397.11 185.398 395.15 183.338 394.6 180.748L391.88 167.898L388.96 180.478C388.35 183.128 386.25 185.188 383.59 185.748L375.53 188.518L383.31 191.258C386.03 191.888 388.12 194.078 388.62 196.838L390.87 209.278L394.15 196.828C394.84 194.198 397 192.208 399.68 191.718L399.67 191.708Z" fill="white"/>
<path d="M390.86 210.109C390.86 210.109 390.84 210.109 390.83 210.109C390.43 210.089 390.1 209.809 390.03 209.409L387.78 196.969C387.34 194.549 385.51 192.629 383.11 192.069C383.08 192.069 383.05 192.049 383.02 192.039L375.24 189.299C374.9 189.179 374.67 188.859 374.67 188.499C374.67 188.139 374.9 187.819 375.24 187.699L383.3 184.929C383.3 184.929 383.37 184.909 383.4 184.899C385.73 184.409 387.58 182.589 388.12 180.269L391.04 167.689C391.13 167.299 391.47 167.029 391.87 167.029C392.27 167.029 392.61 167.309 392.69 167.699L395.41 180.549C395.89 182.839 397.6 184.629 399.86 185.229L408.48 188.169C408.83 188.289 409.06 188.619 409.05 188.979C409.05 189.349 408.81 189.669 408.46 189.779L399.9 192.499C399.9 192.499 399.83 192.519 399.79 192.529C397.45 192.949 395.54 194.719 394.93 197.019L391.65 209.469C391.55 209.839 391.21 210.099 390.83 210.099L390.86 210.109ZM383.54 190.429C386.57 191.149 388.89 193.599 389.45 196.669L391.02 205.339L393.32 196.599C394.09 193.679 396.5 191.439 399.46 190.879L405.51 188.959L399.39 186.869C396.56 186.129 394.38 183.839 393.76 180.919L391.84 171.809L389.79 180.659C389.11 183.599 386.77 185.909 383.82 186.559L378.11 188.519L383.55 190.439L383.54 190.429Z" fill="black"/>
<path d="M348.47 40.0187L355.98 37.6387L348.47 35.0787C346.22 34.4887 344.5 32.6787 344.02 30.4087L341.64 19.1387L339.08 30.1687C338.54 32.4987 336.7 34.2987 334.37 34.7887L327.3 37.2187L334.12 39.6287C336.51 40.1787 338.34 42.1087 338.78 44.5187L340.75 55.4287L343.62 44.5087C344.23 42.1987 346.12 40.4487 348.47 40.0287V40.0187Z" fill="black"/>
<path d="M13.3098 309.939L18.0298 308.439L13.3098 306.829C11.8998 306.459 10.8198 305.319 10.5198 303.889L9.01977 296.799L7.40977 303.729C7.06977 305.189 5.91977 306.319 4.44977 306.639L0.00976562 308.169L4.29977 309.679C5.79977 310.029 6.94977 311.239 7.22977 312.749L8.46977 319.609L10.2798 312.749C10.6598 311.299 11.8498 310.199 13.3298 309.929L13.3098 309.939Z" fill="black"/>
<path d="M273.42 172.679C276.49 167.769 274.05 161.279 275.24 155.609C277.4 145.329 289.64 141.579 299.22 137.269C308.07 133.289 316.18 127.119 321.06 118.729C325.94 110.339 327.19 99.5593 322.97 90.8193C317.45 79.3993 304.34 73.6893 297.01 63.3393C289.27 52.3993 288.96 37.7793 282.61 25.9693C275.35 12.4793 259.87 3.88927 244.58 4.86927C231.12 -3.32073 213.57 -0.08073 199.19 6.37927C187.91 11.4493 177.18 18.5693 170.22 28.7893C158.31 46.2893 159.18 69.8893 148.38 88.0893C145.97 92.1393 142.88 95.9793 138.69 98.1193C131.14 101.979 122.08 99.5793 113.78 97.8193C107.08 96.3993 100.04 95.4693 93.4403 97.3193C86.8403 99.1693 80.7903 104.399 79.8603 111.179C78.5803 120.519 85.7503 128.769 81.6903 138.089C78.0103 146.529 68.1903 147.499 60.9903 151.429C50.1103 157.369 50.4603 169.079 55.5403 179.529C58.0103 184.609 62.6403 188.979 68.2503 189.619C77.0703 190.639 85.8303 181.239 94.4503 185.399C102.09 189.089 100.63 198.529 96.4003 204.329C92.9003 209.129 88.3203 213.829 88.1203 219.769C88.0303 222.399 88.8603 225.009 90.2003 227.289C94.0303 233.829 101.75 237.349 109.31 237.899C116.87 238.449 124.37 236.459 131.6 234.179C138.88 231.889 146.15 229.239 152.45 224.929C167.75 214.469 176.7 194.749 194.43 189.329C204.91 186.119 216.17 188.759 227.13 188.969C241.68 189.249 256.28 185.079 268.48 177.139C270.37 175.909 272.24 174.549 273.44 172.639L273.42 172.679Z" fill="black"/>
<path d="M276.28 141.969C269.25 141.329 264.04 135.089 264.68 128.059C265.32 121.029 271.56 115.819 278.59 116.459C285.62 117.099 290.83 123.339 290.19 130.369C289.55 137.399 283.31 142.609 276.28 141.969ZM278.35 119.179C272.82 118.679 267.91 122.769 267.4 128.309C266.9 133.839 270.99 138.749 276.53 139.259C282.06 139.759 286.97 135.669 287.48 130.129C287.98 124.599 283.89 119.689 278.35 119.179Z" fill="white"/>
<path d="M265.111 93.2383C265.111 93.2383 278.621 81.7283 288.681 86.4083C298.731 91.0883 298.101 113.618 286.531 116.968C274.961 120.308 262.351 110.348 262.351 110.348L265.121 93.2483L265.111 93.2383Z" fill="white"/>
<path d="M281.52 118.499C271.42 118.499 262.21 111.319 261.82 111.009C261.58 110.819 261.46 110.509 261.51 110.209L264.28 93.1092C264.31 92.9092 264.41 92.7292 264.57 92.5992C264.96 92.2692 274.25 84.4492 283.38 84.4492C285.43 84.4492 287.34 84.8492 289.04 85.6492C294.91 88.3792 297.03 96.2592 296.52 102.859C296.06 108.849 293.25 115.919 286.77 117.789C285.12 118.269 283.35 118.509 281.52 118.509V118.499ZM263.27 109.969C265.11 111.319 273.14 116.799 281.52 116.799C283.19 116.799 284.8 116.579 286.29 116.149C291.94 114.519 294.41 108.139 294.82 102.719C295.37 95.6092 292.69 89.2192 288.32 87.1792C286.84 86.4892 285.17 86.1392 283.37 86.1392C275.63 86.1392 267.39 92.4892 265.9 93.6892L263.27 109.969Z" fill="black"/>
<path d="M281.76 101.119C281.55 101.119 281.35 101.049 281.18 100.889C280.84 100.569 280.81 100.039 281.13 99.6886C281.36 99.4386 286.92 93.4986 290.91 96.6186C291.28 96.9086 291.34 97.4386 291.06 97.8086C290.77 98.1786 290.24 98.2386 289.87 97.9586C287.15 95.8286 282.43 100.789 282.38 100.839C282.21 101.019 281.98 101.109 281.76 101.109V101.119Z" fill="black"/>
<path d="M353.34 227.468C351.82 236.588 351.54 260.658 351.73 285.998C352.02 322.918 353.34 362.518 353.34 362.518L279.82 362.688L230.96 362.798L77 363.148C77 363.148 80.8 321.498 87.82 280.588C93.81 245.658 102.16 211.268 112.47 203.808C123.67 195.718 141.1 189.028 156.97 183.578C169.87 179.158 181.74 175.548 188.41 172.688C189.95 172.028 191.2 171.398 192.14 170.808C194.33 169.018 196.22 167.648 196.92 166.748C198.88 164.208 197.39 119.158 197.27 115.488C195.61 111.808 194.31 107.958 193.38 104.018C190.09 105.208 177.96 108.968 169.18 103.528C158.95 97.1782 164.43 75.3082 175.37 73.5282C180.14 72.7482 184.69 75.1182 188.34 78.0282C188.93 78.9482 189.52 79.8682 190.11 80.7782C190.63 81.5882 191.22 82.4582 192.14 82.7682C193.4 83.1882 194.7 82.3982 195.83 81.6882C214.26 69.9582 244.41 59.7982 251.99 38.6582C254.09 46.5482 266.8 57.9582 271.39 62.7882C273.81 65.3482 281.84 73.1582 283.7 79.2682C283.6 80.8582 283.29 84.9182 283.26 85.2482C280.8 114.588 278.16 138.638 251.07 144.538C251.01 149.348 250.99 157.178 251.34 163.398C251.72 163.398 251.92 163.378 251.92 163.378C252.07 164.218 252.6 164.808 253.43 165.178C262.48 169.278 308.53 148.608 328.47 157.148C350.25 166.488 357.1 205.078 353.36 227.478L353.34 227.468Z" fill="white"/>
<path d="M77.0102 364.149C76.7702 364.149 76.5402 363.969 76.3802 363.799C76.2202 363.619 76.1402 363.349 76.1602 363.109C76.2002 362.689 80.0502 320.939 86.9902 280.459C94.6902 235.579 103.1 209.549 111.98 203.129C123.64 194.699 142.01 187.829 156.7 182.779C160.89 181.339 164.92 180.009 168.81 178.719C176.75 176.089 183.61 173.819 188.09 171.899C189.6 171.249 190.8 170.649 191.66 170.109C192.24 169.639 192.8 169.189 193.32 168.779C194.66 167.719 195.82 166.799 196.26 166.219C197.43 164.259 197.24 139.329 196.44 115.669C194.94 112.319 193.71 108.769 192.79 105.109C190.34 105.919 185.61 107.229 180.44 107.229C175.88 107.229 171.95 106.219 168.75 104.239C163.01 100.679 162.22 93.1189 163.4 87.2289C164.69 80.7389 168.86 73.7189 175.25 72.6789C179.53 71.9789 184.14 73.5689 188.88 77.3589C188.95 77.4189 189.02 77.4889 189.07 77.5689C189.66 78.4889 190.25 79.4089 190.84 80.3189C191.32 81.0689 191.79 81.7489 192.43 81.9689C193.29 82.2489 194.54 81.5189 195.39 80.9789C200.09 77.9889 205.46 75.1389 211.16 72.1289C227.33 63.5689 245.66 53.8589 251.21 38.3789C251.34 38.0289 251.67 37.7889 252.04 37.8189C252.41 37.8389 252.73 38.0889 252.82 38.4489C254.49 44.7189 263.5 53.6889 268.89 59.0489C270.12 60.2789 271.19 61.3389 272.01 62.2089C272.27 62.4789 272.59 62.8089 272.96 63.1889C276.15 66.4889 282.8 73.3689 284.52 79.0189C284.55 79.1189 284.56 79.2189 284.56 79.3189C284.46 80.9189 284.15 84.9989 284.12 85.3189C281.82 112.809 279.65 138.789 251.92 145.219C251.87 149.429 251.85 156.589 252.15 162.559C252.46 162.639 252.7 162.899 252.76 163.229C252.82 163.569 252.99 164.049 253.78 164.409C254.47 164.719 255.49 164.879 256.82 164.879C261.54 164.879 269.35 162.939 278.39 160.699C290.65 157.659 304.54 154.219 316.01 154.219C321.24 154.219 325.43 154.929 328.82 156.379C341.59 161.859 348.1 176.159 351.31 187.189C355.09 200.169 356.2 215.669 354.21 227.629C352.91 235.429 352.37 255.069 352.61 286.019C352.9 322.499 354.2 362.119 354.22 362.519C354.22 362.749 354.14 362.969 353.98 363.139C353.82 363.309 353.6 363.469 353.37 363.469L77.0302 364.169L77.0102 364.149ZM193.38 103.159C193.52 103.159 193.66 103.189 193.78 103.259C193.99 103.379 194.15 103.579 194.2 103.809C195.14 107.749 196.43 111.559 198.04 115.129C198.09 115.229 198.11 115.339 198.11 115.449C198.61 130.179 199.56 164.699 197.59 167.259C197.02 167.999 195.85 168.929 194.36 170.109C193.83 170.529 193.27 170.979 192.68 171.459C192.65 171.479 192.62 171.499 192.6 171.519C191.65 172.119 190.39 172.749 188.75 173.459C184.21 175.409 177.32 177.689 169.34 180.329C165.45 181.619 161.44 182.939 157.25 184.379C142.67 189.379 124.46 196.189 112.98 204.489C104.59 210.559 96.1802 236.919 88.6702 280.719C82.3102 317.789 78.5502 355.909 77.9402 362.289L352.47 361.669C352.28 355.629 351.16 319.499 350.89 286.009C350.65 254.969 351.19 235.229 352.51 227.329C356.35 204.359 348.93 166.839 328.13 157.919C325 156.579 320.91 155.899 315.99 155.899C304.73 155.899 290.94 159.319 278.78 162.329C269.63 164.599 261.73 166.559 256.8 166.559C255.21 166.559 253.99 166.359 253.07 165.939C252.22 165.559 251.61 164.969 251.29 164.229C250.86 164.209 250.51 163.869 250.48 163.429C250.12 156.939 250.16 148.789 250.21 144.509C250.21 144.109 250.49 143.779 250.88 143.689C278 137.779 280.14 112.219 282.41 85.1589C282.43 84.8589 282.73 81.0289 282.84 79.3489C281.17 74.1089 274.81 67.5289 271.73 64.3489C271.36 63.9589 271.03 63.6289 270.77 63.3489C269.97 62.4989 268.91 61.4489 267.68 60.2289C262.43 54.9989 254.77 47.3789 251.95 41.0289C245.37 55.8989 227.65 65.2789 211.94 73.6089C206.28 76.6089 200.93 79.4389 196.29 82.3889C195.19 83.0889 194.09 83.7189 192.88 83.7189C192.53 83.7189 192.2 83.6689 191.88 83.5589C190.63 83.1289 189.89 81.9789 189.41 81.2189C188.85 80.3489 188.28 79.4689 187.72 78.5889C183.41 75.1689 179.29 73.7389 175.53 74.3489C170.76 75.1289 166.46 80.5589 165.07 87.5589C164.01 92.8889 164.65 99.6989 169.65 102.799C172.58 104.619 176.21 105.539 180.45 105.539C186.08 105.539 191.18 103.919 193.11 103.219C193.2 103.189 193.3 103.169 193.4 103.169L193.38 103.159Z" fill="black"/>
<path d="M353.34 227.54C351.82 236.66 351.54 261.14 351.73 286.14H279.02V363.14H128.61L130.69 323.82C119.08 311.32 123.25 285.48 123.25 285.48L87.8203 280.62C93.8103 245.69 102.16 211.28 112.47 203.82C123.67 195.73 141.1 189.03 156.97 183.58C169.87 179.16 181.74 175.55 188.41 172.68C191.69 176.59 197.71 180.07 208.08 182.26C237.31 188.43 249.37 172.78 253.4 165.16C262.45 169.26 308.5 148.62 328.44 157.17C350.22 166.51 357.07 205.13 353.33 227.53L353.34 227.54Z" fill="#A1C3FF"/>
<path d="M280.03 364.15H127.72L129.83 324.21C119.42 312.63 121.67 290.9 122.3 286.25L86.8398 281.37L86.9898 280.5C94.6898 235.6 103.1 209.57 111.98 203.15C123.67 194.7 142.02 187.83 156.7 182.8C160.87 181.37 164.87 180.05 168.74 178.76C176.71 176.12 183.59 173.84 188.08 171.92L188.66 171.67L189.07 172.15C192.61 176.38 199.07 179.5 208.27 181.44C212.64 182.36 216.83 182.83 220.74 182.83C240.21 182.83 249.1 171.52 252.66 164.77L253.03 164.06L253.76 164.39C254.45 164.7 255.47 164.86 256.79 164.86C261.51 164.86 269.32 162.92 278.36 160.68C290.62 157.64 304.51 154.18 315.99 154.18C321.21 154.18 325.4 154.89 328.79 156.34C341.56 161.82 348.07 176.11 351.28 187.14C355.06 200.12 356.17 215.61 354.18 227.57C352.55 237.33 352.41 264.87 352.58 286.1V287.13H280.02V364.13L280.03 364.15ZM129.52 362.15H279.03V285.15H350.88C350.72 264.15 350.88 237.08 352.51 227.33C356.35 204.36 348.92 166.84 328.13 157.92C325 156.58 320.92 155.89 316 155.89C304.74 155.89 290.95 159.31 278.78 162.33C269.63 164.6 261.73 166.56 256.8 166.56C255.61 166.56 254.62 166.45 253.82 166.21C249.86 173.34 240.5 184.52 220.75 184.52C216.73 184.52 212.41 184.04 207.93 183.09C198.69 181.14 192.06 177.98 188.2 173.7C183.65 175.6 176.98 177.81 169.3 180.35C165.43 181.63 161.43 182.95 157.27 184.38C142.7 189.38 124.51 196.18 113 204.5C104.66 210.53 96.3098 236.59 88.8298 279.89L124.25 284.75L124.11 285.61C124.07 285.86 120.14 311.2 131.33 323.25L131.57 323.42L129.52 362.13V362.15Z" fill="black"/>
<path d="M179.37 129.749C172.34 129.109 167.13 122.869 167.77 115.839C168.41 108.799 174.65 103.599 181.69 104.229C188.73 104.869 193.93 111.109 193.3 118.149C192.66 125.179 186.42 130.389 179.38 129.749H179.37ZM181.44 106.949C175.91 106.449 171 110.539 170.49 116.079C169.99 121.609 174.08 126.519 179.62 127.029C185.16 127.529 190.07 123.439 190.57 117.899C191.07 112.359 186.98 107.449 181.44 106.949Z" fill="white"/>
<path d="M279.13 285.258C278.67 285.258 278.29 284.878 278.29 284.418V244.738C278.29 244.278 278.67 243.898 279.13 243.898C279.59 243.898 279.97 244.278 279.97 244.738V284.418C279.97 284.878 279.59 285.258 279.13 285.258Z" fill="black"/>
<path d="M278.89 256.08C278.76 256.08 278.64 256.05 278.52 255.99C276.49 254.97 273.95 249.44 273.46 248.34C273.27 247.92 273.46 247.42 273.89 247.23C274.31 247.04 274.81 247.23 275 247.66C276.11 250.16 278.17 253.93 279.28 254.49C279.7 254.7 279.86 255.2 279.66 255.62C279.51 255.91 279.22 256.08 278.91 256.08H278.89Z" fill="black"/>
<path d="M252.29 143.428C247.08 144.468 231.16 144.618 217.46 134.648C217.46 134.648 233.83 161.288 253.03 159.058C272.23 156.828 252.29 143.428 252.29 143.428Z" fill="black"/>
<path d="M239.48 120.48C241.42 122.27 243.97 123.33 247.31 123.02C250.24 122.74 252.93 121.38 254.95 119.56C256.89 117.82 258.45 115.57 259.36 113.3C259.51 112.92 260.73 108.55 261 108.57C252.38 108.06 243.76 107.4 235.28 106.03C234.84 105.96 234.32 105.91 234.02 106.18C233.77 106.41 233.79 106.76 233.83 107.07C234.32 111.11 235.81 117.09 239.5 120.48H239.48Z" fill="white"/>
<path d="M246.16 123.919C243.37 123.919 240.93 122.969 238.9 121.099C234.6 117.139 233.31 110.039 232.96 107.169C232.92 106.879 232.83 106.089 233.42 105.549C233.73 105.259 234.16 105.119 234.68 105.119C234.92 105.119 235.16 105.149 235.39 105.189C244.14 106.599 252.87 107.239 261 107.719C261.47 107.719 261.84 108.099 261.84 108.569C261.84 108.819 261.73 109.039 261.56 109.199C261.31 109.749 260.72 111.689 260.46 112.549C260.29 113.099 260.17 113.509 260.12 113.619C259.16 116.039 257.51 118.369 255.49 120.199C253.17 122.289 250.28 123.589 247.36 123.869C246.95 123.909 246.53 123.929 246.13 123.929L246.16 123.919ZM234.64 106.819C234.64 106.819 234.64 106.899 234.65 106.969C234.98 109.649 236.16 116.279 240.05 119.859C241.76 121.429 243.81 122.229 246.16 122.229C246.51 122.229 246.86 122.209 247.23 122.179C249.79 121.939 252.33 120.789 254.38 118.939C256.21 117.289 257.7 115.179 258.57 112.999C258.61 112.889 258.72 112.529 258.86 112.059C259.22 110.859 259.49 109.989 259.71 109.359C251.88 108.879 243.53 108.239 235.14 106.879C234.98 106.849 234.78 106.829 234.65 106.839L234.64 106.819Z" fill="black"/>
<path d="M252.14 78.6895C251.84 81.6695 254.07 90.7395 255.27 93.8695C256.46 96.9995 250.66 99.0795 250.66 99.0795" fill="white"/>
<path d="M250.65 99.9298C250.3 99.9298 249.98 99.7098 249.85 99.3698C249.69 98.9298 249.92 98.4398 250.36 98.2798C251.27 97.9498 253.77 96.7898 254.42 95.3598C254.61 94.9498 254.62 94.5798 254.47 94.1698C253.35 91.2298 250.96 81.9098 251.29 78.5998C251.34 78.1298 251.75 77.8098 252.22 77.8398C252.69 77.8898 253.03 78.2998 252.98 78.7698C252.7 81.5798 254.9 90.5298 256.05 93.5598C256.36 94.3898 256.33 95.2498 255.96 96.0598C254.89 98.3898 251.33 99.7198 250.93 99.8698C250.84 99.8998 250.74 99.9198 250.64 99.9198L250.65 99.9298Z" fill="black"/>
<path d="M189.19 94.8684C188.83 94.8684 188.5 94.6484 188.38 94.2884C186.59 88.9084 184.07 85.7684 180.91 84.9484C176.27 83.7484 171.65 87.9084 171.6 87.9484C171.25 88.2584 170.72 88.2384 170.4 87.8984C170.08 87.5484 170.11 87.0184 170.45 86.6984C170.67 86.4984 175.81 81.8684 181.33 83.3084C185.09 84.2884 188 87.7984 189.99 93.7584C190.14 94.2084 189.9 94.6884 189.45 94.8284C189.36 94.8584 189.27 94.8684 189.18 94.8684H189.19Z" fill="black"/>
<path d="M180.56 92.1892C180.41 92.1892 180.25 92.1492 180.11 92.0592C179.71 91.8092 179.59 91.2892 179.84 90.8892L183.11 85.6792C183.36 85.2792 183.88 85.1692 184.28 85.4092C184.68 85.6592 184.8 86.1792 184.55 86.5792L181.28 91.7892C181.12 92.0492 180.84 92.1892 180.56 92.1892Z" fill="black"/>
<path d="M261.52 85.6797C261.52 85.6797 267.77 78.6897 273.57 86.4197Z" fill="white"/>
<path d="M273.57 87.2796C273.31 87.2796 273.06 87.1596 272.89 86.9396C271.31 84.8296 269.57 83.7196 267.73 83.6396C264.66 83.4996 262.17 86.2196 262.15 86.2496C261.84 86.5996 261.3 86.6296 260.95 86.3096C260.6 85.9996 260.57 85.4596 260.88 85.1096C261 84.9696 263.92 81.7696 267.79 81.9296C270.17 82.0296 272.35 83.3696 274.25 85.9096C274.53 86.2796 274.46 86.8196 274.08 87.0996C273.93 87.2096 273.75 87.2696 273.57 87.2696V87.2796Z" fill="black"/>
<path d="M273.57 86.7584C273.26 86.7584 272.96 86.5884 272.81 86.2884C272.6 85.8684 272.77 85.3584 273.19 85.1484L276.02 83.7384C276.44 83.5284 276.95 83.6984 277.16 84.1184C277.37 84.5384 277.2 85.0484 276.78 85.2584L273.95 86.6684C273.83 86.7284 273.7 86.7584 273.57 86.7584Z" fill="black"/>
<path d="M271.19 84.6694C270.93 84.6694 270.67 84.5494 270.5 84.3194C270.23 83.9394 270.31 83.4094 270.69 83.1294L273.07 81.4194C273.45 81.1394 273.98 81.2294 274.25 81.6094C274.52 81.9894 274.44 82.5194 274.06 82.7894L271.68 84.4994C271.53 84.6094 271.36 84.6594 271.19 84.6594V84.6694Z" fill="black"/>
<path d="M235.32 83.8985C235.32 83.8985 229.07 76.9085 223.27 84.6385Z" fill="white"/>
<path d="M223.27 85.4891C223.09 85.4891 222.91 85.4291 222.76 85.3191C222.38 85.0391 222.31 84.5091 222.59 84.1291C224.49 81.5891 226.67 80.2591 229.05 80.1491C232.9 79.9791 235.84 83.1891 235.96 83.3291C236.27 83.6791 236.24 84.2191 235.89 84.5291C235.54 84.8391 235.01 84.8091 234.69 84.4591C234.69 84.4591 232.18 81.6991 229.11 81.8491C227.26 81.9291 225.53 83.0391 223.95 85.1491C223.78 85.3691 223.53 85.4891 223.27 85.4891Z" fill="black"/>
<path d="M223.27 84.9694C223.14 84.9694 223.01 84.9394 222.89 84.8794L220.06 83.4694C219.64 83.2594 219.47 82.7494 219.68 82.3294C219.89 81.9094 220.4 81.7394 220.82 81.9494L223.65 83.3594C224.07 83.5694 224.24 84.0794 224.03 84.4994C223.88 84.7994 223.58 84.9694 223.27 84.9694Z" fill="black"/>
<path d="M225.65 82.8899C225.48 82.8899 225.31 82.8399 225.16 82.7299L222.78 81.0199C222.4 80.7499 222.31 80.2199 222.59 79.8399C222.86 79.4599 223.4 79.3699 223.77 79.6499L226.15 81.3599C226.53 81.6299 226.62 82.1599 226.34 82.5499C226.17 82.7799 225.91 82.8999 225.65 82.8999V82.8899Z" fill="black"/>
<path d="M223.42 75.3487C222.13 74.8987 221.38 73.2887 221.88 72.0087C225.74 69.9687 230.27 69.2187 234.58 69.8987C235.7 70.0787 236.87 70.3787 237.69 71.1587C238.52 71.9387 238.87 73.3187 238.19 74.2287C237.45 75.2187 235.99 75.1987 234.76 75.1187C231.79 74.9387 228.8 75.0387 225.84 75.3987C225.03 75.4987 224.18 75.6187 223.41 75.3487H223.42Z" fill="black"/>
<path d="M273.47 77.13C274.76 76.68 275.51 75.07 275.01 73.79C271.15 71.75 266.62 71 262.31 71.68C261.19 71.86 260.02 72.16 259.2 72.94C258.37 73.72 258.02 75.1 258.7 76.01C259.44 77 260.9 76.98 262.13 76.9C265.1 76.72 268.09 76.82 271.05 77.18C271.86 77.28 272.71 77.4 273.48 77.13H273.47Z" fill="black"/>
<path d="M190.69 38.7887C188.54 36.6087 188.16 33.2887 188.06 30.2287C188.03 29.2087 188.01 28.1587 188.35 27.1887C188.68 26.2387 189.31 25.4287 189.98 24.6787C194.61 19.4987 201.41 16.3187 208.36 16.0987C210.33 16.0387 212.47 16.2587 213.93 17.5887C214.86 18.4387 215.39 19.6287 215.89 20.7787C216.49 22.1487 217.09 23.6087 216.89 25.0887C216.61 27.0887 214.91 28.6587 214.57 30.6487C213.98 34.1087 217.55 36.7587 220.78 38.1287C224.01 39.4887 227.85 40.9387 228.82 44.3187C229.57 46.9287 228.15 49.7787 226.04 51.4987C223.93 53.2187 221.26 54.0387 218.66 54.8287C216.13 55.5987 212.93 56.1887 211.21 54.1787C209.53 52.2187 210.49 49.1687 209.66 46.7187C208.5 43.3187 204.37 42.0886 200.8 41.7586C197.23 41.4286 193.23 41.3287 190.71 38.7787L190.69 38.7887Z" fill="white"/>
<path d="M204.69 103.69C204.6 103.69 204.5 103.69 204.41 103.69C203.28 103.61 202.19 103.06 201.5 102.22C200.34 100.81 200.11 98.6596 200.91 96.7396C201.24 95.9496 201.71 95.2196 202.16 94.5196C202.92 93.3496 203.63 92.2396 203.5 91.0796C203.32 89.5696 201.74 88.4796 200.38 87.6996L200.25 87.6296C198.58 86.6696 196.69 85.5796 196 83.5796C195.28 81.4896 196.32 79.0196 198.33 78.0896C198.75 77.8896 199.26 78.0796 199.46 78.4996C199.66 78.9296 199.48 79.4296 199.05 79.6296C197.85 80.1896 197.18 81.7796 197.61 83.0296C198.09 84.4296 199.62 85.3096 201.1 86.1696L201.23 86.2496C202.93 87.2296 204.92 88.6396 205.18 90.8996C205.39 92.6596 204.47 94.0896 203.58 95.4596C203.15 96.1296 202.74 96.7596 202.47 97.4096C201.92 98.7396 202.06 100.25 202.81 101.16C203.2 101.64 203.86 101.96 204.52 102.01C205.07 102.04 205.56 101.9 205.9 101.58C206.24 101.26 206.78 101.28 207.1 101.63C207.42 101.97 207.4 102.51 207.05 102.83C206.43 103.41 205.6 103.72 204.69 103.72V103.69Z" fill="black"/>
<path d="M43.2299 195.3C41.6199 195.3 40.2099 194.67 39.2399 193.49C38.9399 193.13 38.9999 192.59 39.3599 192.29C39.7199 191.99 40.2599 192.05 40.5499 192.41C41.6599 193.76 43.2899 193.68 44.1599 193.51C46.2399 193.11 48.1099 191.54 48.6999 189.7C49.6499 186.71 48.6999 183.09 45.8899 178.92C45.3799 178.16 44.8399 177.41 44.2999 176.67C42.4099 174.05 40.4499 171.33 39.5999 168.11C37.6599 160.7 42.3499 153.2 47.3899 148.66C49.9599 146.34 52.8499 144.35 55.6399 142.43C58.5599 140.42 61.5799 138.34 64.1899 135.9C68.7899 131.61 72.9499 124.65 70.8299 117.99C70.3299 116.41 69.5099 114.97 68.6399 113.44C67.8899 112.12 67.1099 110.75 66.5599 109.28C63.5099 101.22 67.9399 92.3701 73.8899 87.7801C79.3199 83.6001 86.8699 81.3701 96.3299 81.1601C105.47 80.9701 114.48 82.4201 123.1 85.5001C123.81 85.7501 124.51 86.0101 125.21 86.2801C127.75 87.2301 130.38 88.2101 133.05 88.6101C145.38 90.4301 156.03 79.3801 157.86 68.3201C158 67.4701 158.11 66.5901 158.21 65.7401C158.47 63.5701 158.74 61.3301 159.6 59.2301C159.78 58.8001 160.27 58.5901 160.71 58.7601C161.14 58.9401 161.35 59.4301 161.18 59.8701C160.41 61.7601 160.16 63.7901 159.9 65.9401C159.79 66.8101 159.68 67.7101 159.54 68.6001C157.57 80.4401 146.11 92.2601 132.8 90.2901C129.95 89.8701 127.24 88.8501 124.61 87.8701C123.91 87.6101 123.22 87.3501 122.52 87.1001C114.1 84.0901 105.3 82.6701 96.3599 82.8601C87.2699 83.0601 80.0599 85.1601 74.9199 89.1201C69.4699 93.3201 65.3799 101.39 68.1399 108.67C68.6499 110.02 69.3599 111.27 70.1099 112.59C70.9799 114.13 71.8799 115.71 72.4399 117.46C74.7999 124.88 70.3199 132.48 65.3399 137.13C62.6399 139.65 59.5699 141.77 56.5999 143.81C53.8499 145.7 51.0199 147.66 48.5199 149.91C43.8499 154.12 39.4899 160.99 41.2299 167.67C41.9899 170.59 43.7799 173.06 45.6599 175.67C46.2099 176.43 46.7599 177.2 47.2799 177.97C50.3999 182.59 51.4199 186.71 50.2999 190.22C49.5199 192.67 47.1699 194.66 44.4599 195.18C44.0299 195.26 43.6199 195.3 43.2099 195.3H43.2299Z" fill="black"/>
<path d="M240.37 314.99C224.86 314.99 213.71 310.41 206.46 305.87C195.72 299.14 191.1 291.23 190.91 290.89C190.68 290.48 190.82 289.97 191.22 289.73C191.63 289.5 192.15 289.64 192.38 290.04C192.43 290.12 197.02 297.97 207.44 304.47C217.05 310.47 233.74 316.52 258.67 311.29C259.13 311.2 259.58 311.49 259.68 311.95C259.78 312.41 259.48 312.86 259.02 312.95C252.22 314.38 246.01 314.98 240.38 314.98L240.37 314.99Z" fill="black"/>
<path d="M123.26 286.25C123.18 286.25 123.11 286.24 123.03 286.22C122.58 286.09 122.31 285.63 122.44 285.18C126.26 271.37 133.08 245.58 133.15 245.32C133.27 244.87 133.73 244.6 134.19 244.72C134.64 244.84 134.91 245.3 134.79 245.76C134.72 246.02 127.9 271.82 124.08 285.64C123.98 286.02 123.63 286.26 123.26 286.26V286.25Z" fill="black"/>
<path d="M219.94 191.119C204.98 191.119 194.47 185.939 194.31 185.849C193.89 185.639 193.72 185.129 193.94 184.709C194.15 184.289 194.66 184.119 195.08 184.339C195.32 184.459 219.75 196.479 247.01 183.139C247.43 182.929 247.94 183.109 248.15 183.529C248.36 183.949 248.18 184.459 247.76 184.669C237.8 189.539 228.2 191.119 219.95 191.119H219.94Z" fill="black"/>
<path d="M110.71 326.129L111.5 292.879L112.13 264.909L112.23 259.109C112.23 259.109 111.04 246.849 104.15 240.149C97.4597 233.329 84.1897 226.749 81.5197 223.409C78.8397 220.069 71.5297 204.539 67.7897 202.159C64.0397 199.769 56.8797 198.849 55.5697 208.499C54.2597 218.149 61.7497 234.399 61.7497 234.399C61.7497 234.399 39.9397 223.159 36.9397 219.739C33.8997 216.489 30.0497 196.249 21.5797 195.039C13.2797 193.859 10.7297 204.429 12.1297 208.859C12.2197 209.219 11.5797 209.769 11.5797 209.769C11.5797 209.769 8.54968 211.829 6.60968 218.939C4.66968 226.049 7.65968 240.939 7.65968 240.939C7.65968 240.939 8.35968 251.549 9.25968 256.719C9.25968 256.719 9.29968 283.979 22.4097 292.759C28.7997 297.109 38.0297 301.069 46.6197 304.029L46.1697 364.009C67.3197 364.069 89.4797 363.269 110.66 363.509L110.72 326.149L110.71 326.129Z" fill="white"/>
<path d="M48.37 364.838H46.17C45.94 364.838 45.73 364.748 45.57 364.578C45.41 364.418 45.32 364.198 45.32 363.978L45.76 304.608C35.95 301.188 27.5 297.228 21.93 293.438C8.80997 284.658 8.40997 258.668 8.39997 256.778C7.53997 251.738 6.86997 241.958 6.80997 241.028C6.57997 239.868 3.84997 225.758 5.77997 218.688C7.65997 211.788 10.6 209.408 11.04 209.078C11.11 209.018 11.19 208.928 11.24 208.868C10.42 205.998 11.02 201.068 13.51 197.668C15.51 194.938 18.37 193.718 21.68 194.188C27.92 195.088 31.66 204.978 34.4 212.208C35.57 215.308 36.68 218.228 37.54 219.158C39.69 221.608 52.96 228.848 60 232.538C57.99 227.708 53.66 216.128 54.71 208.388C55.73 200.858 60.09 199.728 62.59 199.728C64.46 199.728 66.51 200.358 68.23 201.448C70.79 203.078 74.54 209.778 77.85 215.688C79.59 218.788 81.23 221.718 82.17 222.888C83.28 224.268 86.55 226.388 90.35 228.848C95.33 232.068 100.98 235.728 104.75 239.568C111.77 246.388 113.02 258.528 113.07 259.038C113.07 259.068 113.07 259.098 113.07 259.138L112.97 264.938L112.34 292.908L111.55 326.158L111.49 363.498C111.49 363.728 111.4 363.938 111.24 364.098C111.08 364.258 110.86 364.368 110.63 364.338C107.82 364.308 104.99 364.288 102.14 364.288C93.22 364.288 84.03 364.428 75.14 364.568C66.3 364.708 57.17 364.838 48.35 364.838H48.37ZM47.02 363.138H48.37C57.18 363.138 66.31 362.998 75.14 362.868C84.03 362.728 93.23 362.588 102.16 362.588C104.72 362.588 107.27 362.598 109.81 362.628L109.87 326.128L110.66 292.868L111.39 259.158C111.3 258.348 109.95 246.968 103.57 240.778C99.91 237.058 94.11 233.298 89.44 230.278C85.36 227.638 82.14 225.558 80.86 223.958C79.84 222.678 78.24 219.828 76.39 216.528C73.5 211.368 69.53 204.288 67.34 202.898C65.89 201.978 64.17 201.448 62.61 201.448C59.19 201.448 57.05 203.938 56.41 208.638C55.15 217.928 62.44 233.908 62.52 234.068C62.67 234.398 62.6 234.788 62.34 235.038C62.08 235.288 61.69 235.348 61.36 235.178C60.46 234.718 39.37 223.818 36.3 220.328C35.22 219.178 34.17 216.378 32.83 212.838C30.25 206.008 26.71 196.658 21.46 195.898C18.77 195.508 16.54 196.468 14.9 198.698C12.77 201.608 12.17 206.178 12.94 208.618C13.15 209.458 12.45 210.158 12.14 210.428C12.12 210.448 12.09 210.468 12.07 210.488C12.05 210.508 9.24997 212.538 7.43997 219.178C5.57997 226.008 8.47997 240.648 8.50997 240.788C8.50997 240.828 8.51997 240.858 8.51997 240.898C8.51997 241.008 9.22997 251.528 10.1 256.588C10.1 256.638 10.11 256.688 10.11 256.728C10.11 256.998 10.31 283.638 22.89 292.058C28.46 295.848 36.98 299.808 46.9 303.228C47.24 303.348 47.47 303.668 47.47 304.038L47.03 363.158L47.02 363.138Z" fill="black"/>
<path d="M9.42969 258.98L9.46969 258.82C11.9197 250.97 15.9697 247.43 20.9897 248.73C25.6797 249.96 28.4597 257.44 28.6297 264.33C28.8697 270.9 28.4097 272.17 28.3797 272.33C28.3397 272.49 28.1397 272.62 28.0197 272.42C27.8597 272.38 27.7297 272.18 27.9297 272.06C27.9297 272.06 28.3897 270.79 28.0697 264.55C27.7997 258.15 25.1797 250.7 20.8097 249.55C16.1197 248.32 12.4197 251.78 10.0897 259.14C10.0497 259.3 9.84969 259.43 9.68969 259.39C9.39969 259.15 9.43969 258.99 9.43969 258.99L9.42969 258.98Z" fill="black"/>
<path d="M28.1597 272.929C28.0097 272.929 27.8597 272.869 27.7497 272.759C27.5697 272.669 27.4297 272.489 27.3997 272.299C27.3697 272.119 27.4197 271.949 27.5397 271.809C27.6197 271.439 27.8997 269.759 27.6397 264.549C27.3697 258.279 24.8497 251.029 20.6997 249.939C16.3297 248.799 12.7797 252.049 10.4897 259.249C10.4197 259.549 10.0997 259.809 9.73969 259.809C9.70969 259.809 9.61969 259.809 9.58969 259.789C9.52969 259.769 9.46969 259.749 9.40969 259.699C8.94969 259.329 8.98969 258.979 9.00969 258.879L9.04969 258.719C11.2297 251.719 14.6697 248.029 19.0097 248.029C19.6897 248.029 20.3897 248.119 21.0997 248.309C26.0997 249.619 28.8897 257.349 29.0497 264.309C29.1997 268.349 29.0997 271.219 28.7897 272.389C28.7197 272.709 28.4597 272.929 28.1597 272.929Z" fill="#363636"/>
<path d="M28.0707 268.307C27.9407 268.107 28.1407 267.977 28.3407 267.857C30.0307 267.207 40.7907 271.167 42.0607 271.627C42.2207 271.667 42.3507 271.867 42.3107 272.027C42.2707 272.187 42.0707 272.317 41.9107 272.277C37.3307 270.557 29.6407 268.147 28.5507 268.417C28.3507 268.547 28.1907 268.507 28.0607 268.307H28.0707Z" fill="black"/>
<path d="M41.9802 272.708C41.9802 272.708 41.8602 272.698 41.8302 272.688C37.1102 270.928 30.2802 268.818 28.7902 268.818C28.7602 268.818 28.7302 268.818 28.7102 268.818C28.5902 268.878 28.4702 268.908 28.3502 268.908C28.2002 268.908 27.9302 268.858 27.7202 268.528C27.4902 268.158 27.6202 267.808 28.1202 267.488C28.3702 267.378 28.5902 267.348 28.8802 267.348C31.0802 267.348 37.2202 269.408 41.9802 271.128L42.2102 271.208C42.3502 271.238 42.5202 271.358 42.6302 271.528C42.7402 271.698 42.7802 271.908 42.7402 272.098C42.6602 272.438 42.3402 272.688 41.9902 272.688L41.9802 272.708Z" fill="#363636"/>
<path d="M7.8597 240.8C7.8097 240.27 9.1897 230.3 13.7297 226.87C14.9697 225.95 16.4197 225.59 17.9197 225.76C26.0597 226.9 28.4897 235.16 28.2097 238.7C27.9297 242.24 30.7897 251.62 31.3097 253.11C33.6797 253.99 40.5497 256.22 41.0597 257.01C41.1897 257.21 41.1497 257.37 40.9497 257.5C40.7497 257.63 40.5897 257.59 40.4597 257.39C40.0397 256.95 35.1297 255.16 30.8397 253.69C30.733 253.663 30.6364 253.583 30.5497 253.45C30.4597 253.09 27.1697 242.58 27.3597 238.68C27.5997 235.31 25.3897 227.61 17.6097 226.38C16.2697 226.25 15.0197 226.48 13.9797 227.28C9.6397 230.59 8.4497 240.44 8.4197 240.6C8.3797 240.76 8.1797 240.89 8.0197 240.85C7.99303 240.956 7.9397 240.943 7.8597 240.81V240.8Z" fill="black"/>
<path d="M40.7399 257.989C40.5999 257.989 40.3499 257.949 40.1499 257.669C39.7299 257.359 36.6799 256.139 30.7099 254.079C30.4499 254.019 30.3599 253.929 30.1999 253.669C30.1799 253.629 30.1599 253.589 30.1499 253.539C30.1499 253.499 30.0999 253.359 30.0299 253.129C27.8999 245.989 26.8299 240.979 26.9499 238.649C27.1799 235.429 25.1399 227.989 17.5599 226.789C17.3699 226.769 17.1599 226.759 16.9499 226.759C15.8899 226.759 14.9899 227.039 14.2599 227.599C10.5799 230.399 9.20987 238.209 8.86987 240.529C8.85987 240.609 8.84987 240.659 8.84987 240.679C8.78987 240.939 8.57987 241.159 8.31987 241.239C8.23987 241.339 8.12987 241.389 7.99987 241.389C7.74987 241.389 7.62987 241.209 7.51987 241.039C7.47987 240.979 7.45987 240.919 7.45987 240.859C7.39987 240.309 8.77987 230.109 13.4999 226.549C14.7899 225.589 16.3599 225.169 17.9999 225.349C26.1999 226.499 28.9899 234.639 28.6699 238.739C28.4199 241.939 30.8999 250.469 31.6899 252.789C32.1799 252.969 32.8199 253.189 33.5399 253.439C38.5799 255.199 41.0599 256.149 41.4599 256.789C41.7099 257.189 41.6199 257.609 41.2199 257.869C41.0699 257.959 40.9199 258.009 40.7799 258.009L40.7399 257.989ZM40.6899 257.219L40.5299 257.469L40.8299 257.169C40.8299 257.169 40.7799 257.139 40.7299 257.139L40.6999 257.179C40.6999 257.179 40.6999 257.229 40.6999 257.249C40.6999 257.249 40.6799 257.229 40.6699 257.219H40.6899ZM27.7299 236.959C27.8099 237.609 27.8199 238.199 27.7799 238.699C27.7799 238.739 27.7799 238.779 27.7799 238.819C27.7799 238.759 27.7799 238.709 27.7899 238.649C27.8299 238.199 27.8099 237.619 27.7299 236.959Z" fill="#363636"/>
<path d="M12.9594 209.719C12.8294 209.519 13.0294 209.389 13.2294 209.269C15.4394 208.569 18.5794 209.099 21.4594 210.779C24.9194 212.929 27.2294 216.359 27.7694 220.079C28.9094 227.189 30.5394 230.639 30.8794 231.409L41.8194 236.099C41.9794 236.139 42.1094 236.339 42.0694 236.499C42.0294 236.659 41.8294 236.789 41.6694 236.749L30.5594 232.029C30.5594 232.029 30.3994 231.989 30.4294 231.829C30.2994 231.629 28.4794 228.309 27.1894 220.299C26.6494 216.579 24.4694 213.349 21.1294 211.399C18.5794 209.799 15.5994 209.299 13.5894 209.879C13.2294 209.969 13.0994 209.769 12.9394 209.729L12.9594 209.719Z" fill="black"/>
<path d="M41.7298 237.179C41.7298 237.179 41.6098 237.169 41.5798 237.159L30.3998 232.409C30.3998 232.409 30.2198 232.369 30.0998 232.169C30.0498 232.099 30.0198 232.009 30.0198 231.919C29.6698 231.269 27.9998 227.899 26.7898 220.359C26.2698 216.759 24.1398 213.629 20.9398 211.759C19.2198 210.679 17.1998 210.059 15.4098 210.059C14.7998 210.059 14.2298 210.129 13.7298 210.269C13.2998 210.379 13.0398 210.229 12.8998 210.149C12.8098 210.129 12.7298 210.079 12.6698 210.019C12.6498 209.999 12.6198 209.969 12.5998 209.949C12.4798 209.759 12.4798 209.579 12.5098 209.469C12.5698 209.179 12.8198 209.019 13.0098 208.909C13.0398 208.889 13.0698 208.879 13.1098 208.859C15.4498 208.119 18.7798 208.719 21.6798 210.399C25.2698 212.629 27.6398 216.129 28.1898 220.009C28.6898 223.099 29.6098 227.529 31.1998 231.069L41.9898 235.689C42.0998 235.709 42.2698 235.829 42.3798 236.009C42.4898 236.179 42.5298 236.389 42.4898 236.579C42.4198 236.909 42.0798 237.169 41.7298 237.169V237.179Z" fill="#363636"/>
<path d="M52.9698 276.479C52.8398 276.279 53.0798 275.989 53.2398 276.029C62.0398 274.239 70.9498 278.809 76.7298 282.849C83.1198 287.199 87.3398 292.089 87.4998 292.129C87.6298 292.329 87.5898 292.489 87.3898 292.619C87.1898 292.749 87.0298 292.709 86.8998 292.509C86.7698 292.309 69.7698 273.409 53.2898 276.559C53.2498 276.719 53.0898 276.689 52.9598 276.489L52.9698 276.479Z" fill="black"/>
<path d="M87.1798 293.109C87.0298 293.109 86.7598 293.059 86.5498 292.729C86.4398 292.599 72.1398 276.619 57.1098 276.619C55.8998 276.619 54.7098 276.729 53.5598 276.929C53.3198 277.169 52.8698 277.089 52.6198 276.699C52.4898 276.489 52.4798 276.219 52.6198 275.989C52.7498 275.749 52.9898 275.599 53.2298 275.599C54.5498 275.339 55.9198 275.199 57.3098 275.199C64.9498 275.199 72.2298 279.169 76.9898 282.499C82.1698 286.029 85.8798 289.859 87.2798 291.299C87.5198 291.539 87.6698 291.709 87.7398 291.769C87.7898 291.799 87.8398 291.849 87.8698 291.899C88.0298 292.149 88.0198 292.359 87.9898 292.489C87.9598 292.619 87.8698 292.819 87.6298 292.969C87.4798 293.059 87.3398 293.109 87.1898 293.109H87.1798Z" fill="#363636"/>
<path d="M144.33 72.4788L123.15 66.7188C120.05 69.4188 116.38 71.5988 112.21 73.0388C94.3595 79.1988 74.1895 69.7388 67.1595 51.9188C60.1295 34.0988 68.8895 14.6688 86.7395 8.5088C104.59 2.3488 124.76 11.8088 131.79 29.6288C134.69 36.9788 134.9 44.6088 132.89 51.4588L144.33 72.4688V72.4788Z" fill="white"/>
<path d="M100.95 75.7693C85.8196 75.7693 71.9196 66.3093 66.3596 52.2293C62.8396 43.3093 63.0396 33.7293 66.9396 25.2593C70.7596 16.9593 77.6896 10.7293 86.4496 7.7093C90.1596 6.4293 94.0396 5.7793 97.9796 5.7793C113.11 5.7793 127.01 15.2393 132.57 29.3093C135.41 36.4993 135.83 44.1193 133.8 51.3493L145 71.9293C145.12 72.0793 145.19 72.6693 145.19 72.8793C145.19 73.3493 144.81 74.1393 144.34 74.1393H144.32C144.25 74.1393 144.17 73.7193 144.1 73.6993L123.36 67.8593C120.16 70.5793 116.51 72.5493 112.48 73.9393C108.77 75.2193 104.89 75.7593 100.95 75.7593V75.7693ZM97.9796 7.4793C94.2296 7.4793 90.5296 8.0993 86.9996 9.3093C78.6796 12.1793 72.0996 18.0993 68.4796 25.9693C64.7796 34.0093 64.5896 43.1493 67.9396 51.6393C73.2396 65.0693 86.5096 74.1393 100.95 74.1393C104.71 74.1393 108.4 73.4893 111.93 72.2693C115.89 70.8993 119.48 68.8093 122.59 66.0993C122.8 65.9093 123.1 65.8393 123.37 65.9093L142.63 71.1393L132.14 51.8693C132.03 51.6693 132.01 51.4393 132.07 51.2193C134.11 44.2493 133.74 36.8893 130.99 29.9393C125.69 16.5093 112.42 7.4793 97.9796 7.4793Z" fill="#2B2B2B"/>
<path d="M114.77 46.2399C117.819 46.2399 120.29 43.9297 120.29 41.0799C120.29 38.2301 117.819 35.9199 114.77 35.9199C111.721 35.9199 109.25 38.2301 109.25 41.0799C109.25 43.9297 111.721 46.2399 114.77 46.2399Z" fill="black"/>
<path d="M98.2094 46.2399C101.258 46.2399 103.729 43.9297 103.729 41.0799C103.729 38.2301 101.258 35.9199 98.2094 35.9199C95.1608 35.9199 92.6895 38.2301 92.6895 41.0799C92.6895 43.9297 95.1608 46.2399 98.2094 46.2399Z" fill="black"/>
<path d="M76.1396 41.0799C76.1396 38.2299 78.6097 35.9199 81.6597 35.9199C84.7097 35.9199 87.1796 38.2299 87.1796 41.0799C87.1796 43.9299 84.7097 46.2399 81.6597 46.2399C78.6097 46.2399 76.1396 43.9299 76.1396 41.0799Z" fill="black"/>
<path d="M412.799 260.301C411.719 245.361 348.839 226.751 348.839 226.751C348.839 226.751 342.009 233.221 335.159 241.751C332.009 230.471 328.569 220.241 325.449 215.641C322.309 211.011 315.999 209.791 311.359 212.931C306.719 216.071 305.509 222.381 308.649 227.021C311.359 231.011 316.469 249.271 320.999 268.611C319.169 277.921 322.749 303.941 328.379 310.441L329.249 363.721C355.489 363.401 372.269 363.451 398.559 362.851C398.559 358.921 399.049 323.671 398.989 320.401C405.239 303.151 413.389 268.631 412.789 260.311L412.799 260.301Z" fill="white"/>
<path d="M329.26 364.55C328.8 364.55 328.42 364.18 328.41 363.72L327.55 310.74C321.74 303.54 318.41 278.01 320.14 268.62C315.09 247.11 310.31 230.97 307.95 227.49C304.55 222.47 305.87 215.62 310.88 212.22C312.71 210.98 314.84 210.33 317.04 210.33C320.69 210.33 324.1 212.13 326.15 215.15C328.82 219.1 331.98 227.43 335.53 239.93C341.98 232.08 348.19 226.18 348.26 226.12C348.48 225.91 348.79 225.84 349.08 225.92C351.67 226.69 412.54 244.88 413.64 260.23C414.27 268.98 405.97 303.54 399.84 320.52C399.86 322.87 399.72 335.07 399.59 345.86C399.5 353.73 399.41 361.17 399.41 362.83C399.41 363.29 399.04 363.67 398.58 363.68C381.24 364.07 367.79 364.19 353.54 364.31C346.05 364.37 338.2 364.44 329.26 364.55ZM317.04 212.02C315.18 212.02 313.38 212.57 311.84 213.62C307.6 216.49 306.49 222.29 309.36 226.53C312.36 230.96 317.77 251.06 321.84 268.4C321.87 268.52 321.87 268.64 321.84 268.76C319.94 278.44 323.78 303.81 329.03 309.87C329.16 310.02 329.23 310.21 329.24 310.41L330.09 362.84C338.68 362.74 346.27 362.67 353.53 362.61C367.54 362.49 380.79 362.38 397.72 362C397.74 359.44 397.81 353.07 397.9 345.84C398.03 334.79 398.18 322.27 398.15 320.39C398.15 320.29 398.17 320.18 398.2 320.09C404.67 302.22 412.51 268.16 411.95 260.35C411.11 248.68 366.74 232.97 349.07 227.69C347.59 229.12 341.68 234.97 335.82 242.26C335.62 242.51 335.3 242.62 334.99 242.56C334.68 242.5 334.43 242.26 334.34 241.96C330.66 228.75 327.43 220.05 324.75 216.1C323.02 213.55 320.14 212.02 317.04 212.02Z" fill="black"/>
<path d="M354.08 301.448C354.08 301.448 354 301.428 353.96 301.408C353.53 301.248 353.3 300.758 353.47 300.318C365.27 269.068 338.33 255.498 337.17 254.928C336.75 254.718 336.58 254.218 336.78 253.798C336.99 253.378 337.5 253.198 337.91 253.408C338.21 253.558 367.4 268.198 355.05 300.918C354.9 301.318 354.48 301.528 354.08 301.448Z" fill="black"/>
<path d="M315.11 225.089C331.137 225.089 344.13 212.096 344.13 196.069C344.13 180.042 331.137 167.049 315.11 167.049C299.083 167.049 286.09 180.042 286.09 196.069C286.09 212.096 299.083 225.089 315.11 225.089Z" fill="black"/>
<path d="M343.12 204.639L321.05 223.689L340.16 243.569C347.07 237.979 353.97 232.369 360.88 227.179L343.12 204.639Z" fill="#4257FF"/>
<path d="M340.16 244.419C339.94 244.419 339.71 244.329 339.55 244.159L320.44 224.279C320.28 224.109 320.19 223.879 320.2 223.649C320.21 223.419 320.32 223.199 320.49 223.049L342.56 203.999C342.74 203.849 342.96 203.769 343.2 203.799C343.43 203.819 343.64 203.939 343.79 204.119L361.55 226.659C361.69 226.839 361.75 227.069 361.72 227.289C361.69 227.519 361.57 227.719 361.39 227.859C354.96 232.679 348.42 237.979 342.1 243.089L340.7 244.229C340.54 244.359 340.35 244.419 340.17 244.419H340.16ZM322.28 223.749L340.23 242.419L341.03 241.769C347.14 236.829 353.45 231.719 359.67 227.019L343 205.859L322.28 223.739V223.749Z" fill="black"/>
<path d="M418.9 300.81L360.88 227.18C353.97 232.36 347.07 237.98 340.16 243.57L405.93 312L418.89 300.81H418.9Z" fill="black"/>
<path d="M357.18 206.368L334.99 229.588C331.03 233.738 331.54 240.808 336.13 245.388C339.94 249.198 345.33 250.038 349.33 247.868C347.05 252.038 347.96 257.768 351.88 261.688C354.88 264.688 358.87 265.848 362.39 265.148C361.5 268.918 362.67 273.298 365.86 276.488C369.72 280.348 375.21 281.168 379.23 278.888C378.39 282.298 379.43 286.268 382.32 289.158C386.43 293.268 392.64 293.588 396.19 289.878L416.09 269.058C417.01 268.098 417.66 266.948 418.05 265.718C419.15 262.208 418.11 257.938 415.07 254.888C412.2 252.018 408.31 251.038 405.01 251.948C405.28 251.428 405.54 250.898 405.72 250.338C406.95 246.418 405.79 241.658 402.4 238.258C399.39 235.248 395.38 234.098 391.85 234.808C392.74 231.038 391.61 226.648 388.41 223.458C384.61 219.658 379.21 218.808 375.22 220.978C375.52 220.418 375.79 219.848 375.98 219.238C377.21 215.318 376.05 210.558 372.66 207.158C368.08 202.568 361.15 202.208 357.19 206.348L357.18 206.368Z" fill="white"/>
<path d="M389.97 293.309C386.99 293.309 383.98 292.009 381.72 289.749C379.15 287.179 377.85 283.689 378.14 280.319C376.95 280.759 375.66 280.989 374.34 280.989C371.06 280.989 367.75 279.569 365.27 277.079C362.3 274.119 360.86 270.019 361.36 266.139C357.77 266.439 354.02 265.009 351.29 262.279C347.74 258.729 346.43 253.709 347.76 249.429C346.75 249.729 345.69 249.889 344.6 249.889C341.32 249.889 338.02 248.469 335.54 245.989C330.64 241.089 330.12 233.469 334.39 228.999L356.59 205.779C358.53 203.749 361.21 202.629 364.15 202.629C367.45 202.629 370.78 204.069 373.28 206.569C376.77 210.059 378.16 215.089 376.84 219.409C377.84 219.109 378.9 218.959 379.97 218.959C383.25 218.959 386.55 220.379 389.03 222.859C391.98 225.809 393.41 229.909 392.91 233.799C396.51 233.479 400.28 234.919 403.01 237.659C406.52 241.169 407.91 246.249 406.54 250.589C406.52 250.669 406.49 250.739 406.47 250.809C409.73 250.479 413.19 251.779 415.69 254.279C418.86 257.449 420.11 262.039 418.88 265.959C418.44 267.359 417.72 268.589 416.72 269.629L396.82 290.449C395.06 292.289 392.64 293.299 389.98 293.299L389.97 293.309ZM379.23 278.029C379.41 278.029 379.59 278.089 379.74 278.199C380.01 278.399 380.13 278.749 380.05 279.079C379.24 282.339 380.34 285.969 382.92 288.549C384.86 290.489 387.43 291.609 389.97 291.609C392.15 291.609 394.15 290.789 395.58 289.289L415.48 268.469C416.29 267.619 416.88 266.609 417.24 265.459C418.29 262.129 417.2 258.219 414.47 255.489C412.55 253.569 410 252.469 407.48 252.469C406.71 252.469 405.96 252.569 405.24 252.769C404.91 252.859 404.56 252.749 404.35 252.479C404.14 252.219 404.1 251.849 404.26 251.549C404.5 251.089 404.75 250.589 404.91 250.079C406.09 246.329 404.86 241.929 401.79 238.859C399.63 236.699 396.75 235.449 393.91 235.449C393.27 235.449 392.63 235.509 392.01 235.639C391.73 235.689 391.43 235.609 391.23 235.399C391.03 235.189 390.95 234.899 391.01 234.609C391.88 230.949 390.65 226.899 387.8 224.049C385.64 221.889 382.77 220.639 379.94 220.639C378.4 220.639 376.9 221.009 375.61 221.709C375.28 221.889 374.87 221.829 374.6 221.559C374.33 221.289 374.28 220.879 374.46 220.549C374.78 219.959 375.01 219.449 375.16 218.959C376.34 215.209 375.11 210.809 372.05 207.739C369.86 205.549 366.97 204.299 364.12 204.299C361.66 204.299 359.41 205.229 357.79 206.919L335.59 230.139C331.96 233.949 332.46 240.499 336.72 244.749C338.89 246.919 341.75 248.159 344.58 248.159C346.12 248.159 347.62 247.789 348.91 247.089C349.24 246.909 349.65 246.969 349.92 247.239C350.19 247.509 350.24 247.919 350.06 248.249C347.89 252.209 348.88 257.469 352.47 261.059C354.63 263.219 357.51 264.469 360.36 264.469C360.99 264.469 361.62 264.409 362.22 264.289C362.5 264.229 362.8 264.329 363 264.529C363.2 264.739 363.28 265.029 363.22 265.309C362.36 268.959 363.61 272.999 366.47 275.859C368.64 278.029 371.51 279.269 374.34 279.269C375.94 279.269 377.49 278.869 378.81 278.119C378.94 278.039 379.09 278.009 379.23 278.009V278.029Z" fill="black"/>
<path d="M349.551 248.258C349.401 248.338 349.191 248.298 349.051 248.158C348.871 247.978 348.861 247.708 349.011 247.548L374.901 220.668C375.051 220.508 375.321 220.528 375.501 220.698C375.681 220.878 375.691 221.148 375.541 221.308L349.651 248.188C349.651 248.188 349.591 248.238 349.551 248.258Z" fill="black"/>
<path d="M362.61 265.54C362.46 265.61 362.27 265.58 362.12 265.45C361.94 265.28 361.91 265.01 362.05 264.84L377.19 247.63C377.33 247.46 377.6 247.47 377.78 247.63C377.96 247.8 377.99 248.07 377.85 248.24L362.71 265.45C362.71 265.45 362.64 265.51 362.6 265.53L362.61 265.54Z" fill="black"/>
<path d="M385.98 272.829C385.83 272.899 385.64 272.869 385.5 272.739C385.32 272.569 385.28 272.299 385.43 272.129L402.36 252.399C402.5 252.219 402.77 252.229 402.95 252.399C403.13 252.569 403.17 252.839 403.02 253.009L386.09 272.739C386.09 272.739 386.02 272.809 385.98 272.829Z" fill="black"/>
<path d="M379.45 279.27C379.31 279.34 379.13 279.32 378.98 279.2C378.79 279.04 378.74 278.77 378.88 278.59L381.11 275.69C381.25 275.51 381.51 275.5 381.7 275.66C381.89 275.82 381.94 276.09 381.8 276.27L379.57 279.17C379.57 279.17 379.49 279.25 379.45 279.27Z" fill="black"/>
<path d="M352.04 237.739C352.04 237.739 352.01 237.819 351.98 237.849L347.04 244.729C346.97 244.829 346.85 244.889 346.71 244.879C346.5 244.879 341.61 244.649 337.79 240.329C337.62 240.129 337.63 239.849 337.79 239.699C337.96 239.549 338.24 239.579 338.41 239.769C341.51 243.269 345.49 243.869 346.43 243.959L351.14 237.399C349.49 231.039 343.17 228.599 341.8 228.139L337.61 233.769C337.47 233.959 337.2 233.969 337 233.809C336.8 233.649 336.75 233.359 336.89 233.179L341.24 227.329C341.33 227.199 341.5 227.149 341.66 227.189C341.75 227.219 350.14 229.629 352.04 237.479C352.06 237.559 352.06 237.639 352.04 237.719V237.739Z" fill="black"/>
<path d="M366.07 255.57C366.07 255.57 366.03 255.64 366.01 255.67L360.52 262.07C360.44 262.17 360.31 262.21 360.18 262.2C359.97 262.18 355.07 261.57 351.54 257.01C351.39 256.8 351.41 256.52 351.59 256.39C351.78 256.25 352.05 256.31 352.21 256.51C355.07 260.21 359.03 261.11 359.97 261.28L365.21 255.18C364.03 248.77 357.85 245.87 356.51 245.3L351.87 250.53C351.72 250.7 351.44 250.7 351.25 250.52C351.06 250.34 351.04 250.05 351.18 249.89L356 244.46C356.1 244.34 356.27 244.3 356.44 244.36C356.52 244.39 364.8 247.44 366.11 255.34C366.12 255.42 366.11 255.5 366.09 255.57H366.07Z" fill="black"/>
<path d="M381.86 270.329C381.86 270.329 381.82 270.399 381.8 270.429L376.31 276.829C376.23 276.929 376.1 276.969 375.97 276.959C375.76 276.939 370.86 276.329 367.33 271.769C367.18 271.559 367.2 271.279 367.38 271.149C367.57 271.009 367.84 271.069 368 271.269C370.86 274.969 374.82 275.869 375.76 276.039L381 269.939C379.82 263.529 373.64 260.629 372.3 260.059L367.66 265.289C367.51 265.459 367.23 265.459 367.04 265.279C366.85 265.099 366.83 264.809 366.97 264.649L371.79 259.219C371.89 259.099 372.06 259.059 372.23 259.119C372.31 259.149 380.59 262.199 381.9 270.099C381.91 270.179 381.9 270.259 381.88 270.329H381.86Z" fill="black"/>
<path d="M398.491 283.528C398.491 283.528 398.451 283.598 398.431 283.628L393.231 289.698C393.151 289.788 393.031 289.838 392.911 289.818C392.711 289.798 388.071 289.218 384.731 284.898C384.581 284.698 384.611 284.438 384.771 284.308C384.951 284.178 385.211 284.228 385.361 284.418C388.071 287.928 391.821 288.778 392.711 288.938L397.671 283.158C396.551 277.088 390.701 274.338 389.431 273.798L385.031 278.748C384.891 278.908 384.631 278.908 384.451 278.738C384.271 278.568 384.251 278.298 384.391 278.138L388.961 272.988C389.061 272.878 389.221 272.838 389.371 272.888C389.451 272.918 397.291 275.798 398.531 283.288C398.541 283.368 398.531 283.438 398.511 283.508L398.491 283.528Z" fill="black"/>
<path d="M315.73 188.27C320.336 188.27 324.07 184.536 324.07 179.93C324.07 175.324 320.336 171.59 315.73 171.59C311.124 171.59 307.39 175.324 307.39 179.93C307.39 184.536 311.124 188.27 315.73 188.27Z" fill="white"/>
<path d="M331.21 182.859C331.21 179.869 328.79 177.449 325.8 177.449C322.81 177.449 320.39 179.869 320.39 182.859C320.39 185.849 322.81 188.269 325.8 188.269C328.79 188.269 331.21 185.849 331.21 182.859Z" fill="white"/>
<path d="M37.1998 363.66C34.2098 363.66 31.3398 363.22 28.6698 362.35C22.7898 360.43 17.9098 356.22 15.6098 351.08C12.6698 344.54 13.5498 336.09 18.0198 327.89C20.0698 324.13 22.8498 320.75 25.5398 317.48C28.5698 313.8 31.6998 309.99 33.6798 305.72C36.5798 299.46 35.4098 289.68 34.2798 280.23C32.8298 268.14 31.3298 255.63 37.7498 248.59C41.3998 244.59 47.1498 242.76 55.3398 242.99C63.8598 243.23 72.4598 247.8 78.3398 255.22C81.7398 259.52 84.1398 264.51 86.4498 269.34C88.0498 272.68 89.7098 276.14 91.6698 279.31C104.9 300.62 135.27 310.08 157.99 299.97C165.24 296.74 171.21 291.41 176.98 286.25C181.36 282.33 185.9 278.28 191.01 275.11C202.16 268.2 216.69 265.01 231.9 266.12C257.34 267.98 281.71 280.66 295.5 299.22C298.56 303.34 301.48 307.84 304.3 312.19C312.62 325.02 321.22 338.28 335.23 344.98C346.07 350.16 358.76 350.47 370.87 350.03C378.72 349.74 387.75 349.15 395.68 345.73C404.23 342.04 410.6 334.11 412.72 324.53C414.8 315.13 412.51 305.82 406.44 298.99C406.13 298.64 406.16 298.1 406.51 297.79C406.86 297.48 407.4 297.51 407.71 297.86C414.15 305.1 416.58 314.96 414.38 324.9C412.14 335.01 405.4 343.38 396.36 347.29C388.16 350.83 378.94 351.44 370.94 351.73C358.62 352.18 345.67 351.85 334.51 346.51C320.07 339.61 311.33 326.14 302.89 313.11C300.08 308.78 297.18 304.31 294.15 300.23C280.85 282.33 256.37 269.61 231.78 267.81C216.92 266.72 202.76 269.83 191.9 276.55C186.92 279.64 182.44 283.64 178.11 287.51C172.24 292.76 166.17 298.18 158.68 301.51C135.23 311.94 103.89 302.18 90.2298 280.19C88.2098 276.94 86.5398 273.44 84.9198 270.06C82.6498 265.31 80.2998 260.41 77.0098 256.26C71.4398 249.23 63.3198 244.89 55.2898 244.67C47.6198 244.46 42.2998 246.11 38.9998 249.72C33.0998 256.19 34.5498 268.3 35.9598 280.02C37.1798 290.15 38.3298 299.72 35.2198 306.43C33.1498 310.9 29.9498 314.79 26.8498 318.55C24.2098 321.76 21.4898 325.07 19.5098 328.7C15.2998 336.43 14.4398 344.33 17.1598 350.38C19.2698 355.08 23.7698 358.95 29.1998 360.73C34.0998 362.33 39.7498 362.37 45.5398 360.83C45.9898 360.71 46.4598 360.98 46.5798 361.43C46.6998 361.88 46.4298 362.35 45.9798 362.47C42.9998 363.26 40.0598 363.66 37.2198 363.66H37.1998Z" fill="black"/>
<path d="M377.26 83.7488L382.78 103.529C382.9 103.959 383.23 104.309 383.65 104.459L403.08 111.129C404.15 111.499 404.34 112.939 403.39 113.559L386.28 124.929C385.9 125.179 385.68 125.599 385.67 126.049L385.33 146.589C385.31 147.719 384 148.339 383.11 147.639L367.01 134.879C366.66 134.599 366.19 134.509 365.76 134.639L346.12 140.669C345.04 140.999 344.04 139.949 344.44 138.879L351.6 119.629C351.76 119.209 351.7 118.739 351.44 118.369L339.64 101.559C338.99 100.629 339.68 99.3588 340.82 99.4088L361.34 100.269C361.79 100.289 362.22 100.089 362.49 99.7288L374.83 83.3088C375.51 82.3988 376.94 82.6688 377.24 83.7588L377.26 83.7488Z" fill="#CCD7F2"/>
<path d="M383.97 148.779C383.47 148.779 383 148.609 382.6 148.299L366.5 135.539C366.37 135.439 366.19 135.399 366.02 135.449L346.38 141.479C345.46 141.759 344.45 141.399 343.91 140.619C343.49 140.019 343.4 139.279 343.66 138.589L350.82 119.339C350.88 119.179 350.86 118.999 350.76 118.859L338.96 102.049C338.48 101.369 338.42 100.489 338.81 99.7487C339.19 99.0087 339.95 98.5487 340.77 98.5487C340.78 98.5487 340.85 98.5487 340.87 98.5487L361.39 99.4087C361.57 99.4087 361.73 99.3287 361.83 99.1987L374.17 82.7787C374.59 82.2187 375.24 81.8887 375.94 81.8887C376.95 81.8887 377.81 82.5387 378.08 83.5087L383.6 103.289C383.65 103.449 383.77 103.589 383.93 103.639L403.36 110.309C404.16 110.589 404.73 111.279 404.84 112.119C404.95 112.959 404.58 113.779 403.87 114.249L386.76 125.619C386.62 125.709 386.53 125.869 386.53 126.039L386.19 146.579C386.17 147.799 385.19 148.759 383.97 148.759V148.779ZM366.18 133.729C366.68 133.729 367.17 133.899 367.56 134.209L383.66 146.969C383.76 147.049 383.86 147.079 383.98 147.079C384.2 147.079 384.5 146.919 384.51 146.569L384.85 126.029C384.86 125.299 385.23 124.619 385.84 124.219L402.95 112.849C403.19 112.689 403.19 112.449 403.18 112.349C403.17 112.249 403.11 112.019 402.83 111.929L383.4 105.259C382.71 105.019 382.18 104.459 381.98 103.759L376.46 83.9787C376.38 83.6987 376.14 83.5987 375.95 83.5987C375.83 83.5987 375.67 83.6387 375.54 83.8087L363.2 100.229C362.78 100.779 362.12 101.109 361.43 101.109C361.42 101.109 361.35 101.109 361.34 101.109L340.82 100.249C340.51 100.249 340.38 100.449 340.34 100.529C340.3 100.609 340.21 100.839 340.38 101.069L352.18 117.879C352.6 118.479 352.7 119.239 352.44 119.929L345.28 139.179C345.2 139.389 345.27 139.549 345.34 139.649C345.47 139.839 345.7 139.919 345.92 139.849L365.56 133.819C365.77 133.759 365.99 133.719 366.21 133.719L366.18 133.729Z" fill="black"/>
<path d="M33.2304 92.8787L41.4004 101.719C41.5804 101.909 41.8404 102.009 42.1004 101.969L54.0104 100.249C54.6704 100.159 55.1504 100.859 54.8204 101.439L48.9304 111.939C48.8004 112.169 48.7904 112.449 48.9104 112.689L54.2204 123.489C54.5104 124.089 54.0004 124.759 53.3404 124.629L41.5304 122.279C41.2704 122.229 41.0004 122.309 40.8104 122.489L32.1804 130.879C31.7004 131.339 30.9004 131.059 30.8204 130.399L29.4104 118.449C29.3804 118.189 29.2204 117.959 28.9904 117.829L18.3404 112.209C17.7504 111.899 17.7704 111.049 18.3804 110.769L29.3104 105.729C29.5504 105.619 29.7204 105.399 29.7604 105.139L31.8104 93.2787C31.9204 92.6287 32.7404 92.3787 33.1904 92.8687L33.2304 92.8787Z" fill="#CCD7F2"/>
<path d="M31.6602 131.96C30.8202 131.96 30.1102 131.33 30.0202 130.5L28.6102 118.55L17.9902 112.97C17.4302 112.67 17.0902 112.1 17.1102 111.47C17.1302 110.84 17.4902 110.28 18.0702 110.01L29.0002 104.97L31.0202 93.1395C31.1602 92.3495 31.8402 91.7695 32.6502 91.7695C33.1102 91.7695 33.5402 91.9595 33.8602 92.2995L42.0302 101.14L53.9002 99.4095C54.5802 99.3095 55.2302 99.6395 55.5602 100.21C55.8602 100.72 55.8602 101.33 55.5702 101.85L49.6802 112.35L55.0002 123.11C55.2502 123.62 55.2202 124.22 54.9202 124.71C54.5602 125.29 53.9002 125.6 53.2002 125.46L41.3902 123.11L32.8002 131.49C32.4902 131.79 32.0802 131.96 31.6502 131.96H31.6602ZM32.6102 93.4595L30.6402 105.3C30.5502 105.83 30.2002 106.29 29.7102 106.52L18.7702 111.56L29.4202 117.09C29.9002 117.34 30.2302 117.82 30.2902 118.36L31.6902 130.22L40.2502 121.89C40.6402 121.51 41.1802 121.35 41.7302 121.45L53.5302 123.8L48.1602 113.06C47.9202 112.57 47.9402 112 48.2002 111.53L54.0402 101.11L42.2202 102.81C41.6802 102.89 41.1402 102.69 40.7702 102.3L32.6002 93.4595H32.6102Z" fill="black"/>
</svg>
