<svg width="368" height="378" viewBox="0 0 368 378" fill="none" xmlns="http://www.w3.org/2000/svg">
<path d="M337.89 62.1413C358.48 94.7213 357.04 136.711 336.56 169.491C322.2 192.481 302.08 211.031 284.96 231.881C266.41 254.471 256.36 279.741 246.97 307.041C239.3 329.361 229.39 351.481 206.35 361.461C191.74 367.791 175.49 369.211 159.56 369.791C106.7 371.721 25.2702 362.021 5.92017 303.491C0.250167 286.301 -0.199832 267.881 0.0501676 249.791C0.520168 216.601 3.28017 182.921 15.0202 151.841C26.7602 120.761 48.4502 92.2513 78.7102 78.1213C110.71 63.1813 141.26 70.4812 174.69 68.8812C197.08 67.8012 216.03 60.8613 234.98 49.3513C251.76 39.1613 269.61 26.4713 290.34 28.2813C306 29.6513 319.84 39.4413 329.98 51.3713C332.91 54.8213 335.55 58.4213 337.9 62.1413H337.89Z" fill="#4257FF"/>
<path d="M57.4604 154.391L71.2904 150.001L57.4504 145.281C53.3104 144.191 50.1404 140.861 49.2604 136.671L44.8704 115.891L40.1604 136.221C39.1704 140.511 35.7804 143.831 31.4704 144.741L18.4404 149.221L31.0104 153.651C35.4104 154.671 38.7904 158.211 39.5904 162.661L43.2204 182.761L48.5204 162.641C49.6404 158.381 53.1204 155.161 57.4504 154.381L57.4604 154.391Z" fill="white"/>
<path d="M338.16 359.611L343.67 357.861L338.16 355.981C336.51 355.551 335.25 354.221 334.9 352.561L333.15 344.291L331.27 352.381C330.87 354.091 329.53 355.411 327.81 355.771L322.63 357.551L327.63 359.311C329.38 359.721 330.73 361.131 331.05 362.901L332.5 370.901L334.61 362.891C335.06 361.201 336.44 359.921 338.17 359.601L338.16 359.611Z" fill="black"/>
<path d="M263.14 103.021L270.47 100.691L263.14 98.1911C260.95 97.6111 259.27 95.8511 258.8 93.6311L256.47 82.6211L253.97 93.3911C253.44 95.6611 251.65 97.4211 249.37 97.9011L242.47 100.271L249.13 102.621C251.46 103.161 253.25 105.041 253.68 107.391L255.6 118.041L258.4 107.381C258.99 105.131 260.84 103.421 263.13 103.011L263.14 103.021Z" fill="black"/>
<path d="M266.45 138.07C292.48 162.77 307.8 214.16 307.8 214.16C307.8 214.16 305.1 240.31 283.46 248.42C261.82 256.53 237.48 195.23 237.48 195.23L266.45 138.08V138.07Z" fill="#2E5FB3"/>
<path d="M279.41 250.01C258.56 250.01 237.58 197.77 236.7 195.54C236.61 195.31 236.62 195.06 236.73 194.84L265.7 137.69C265.82 137.45 266.05 137.28 266.31 137.24C266.58 137.19 266.84 137.28 267.04 137.46C292.93 162.03 308.47 213.4 308.62 213.92C308.65 214.03 308.66 214.14 308.65 214.25C308.62 214.52 305.64 241.01 283.76 249.22C282.36 249.75 280.89 250.01 279.41 250.01ZM238.42 195.27C240.32 199.91 260.56 248.32 279.41 248.32C280.69 248.32 281.95 248.09 283.17 247.63C303.17 240.13 306.67 216.45 306.95 214.24C305.97 211.03 291.04 163.33 266.7 139.49L238.43 195.27H238.42Z" fill="black"/>
<path d="M210.231 57.2916L210.141 56.5416L214.761 55.9316L214.861 56.6816L210.231 57.2916Z" fill="black"/>
<path d="M209.87 57.7612L209.66 56.1712L215.13 55.4512L215.33 57.0412L209.87 57.7612Z" fill="black"/>
<path d="M202.31 65.1897C202.31 65.1897 208.8 57.6397 214.78 59.3497C220.76 61.0597 222.36 73.6197 216.24 76.4797C210.12 79.3397 202.26 74.9097 202.26 74.9097L202.31 65.1897Z" fill="white"/>
<path d="M211.59 78.29C206.59 78.29 202.04 75.76 201.84 75.65C201.57 75.5 201.41 75.21 201.41 74.91L201.46 65.19C201.46 64.99 201.53 64.79 201.66 64.64C201.88 64.38 207.21 58.25 212.93 58.25C213.64 58.25 214.34 58.35 215.01 58.54C218.68 59.59 220.62 63.93 220.92 67.76C221.19 71.25 220.2 75.57 216.59 77.25C215.11 77.94 213.43 78.29 211.58 78.29H211.59ZM203.11 74.4C204.32 75 207.88 76.6 211.59 76.6C213.19 76.6 214.63 76.3 215.88 75.72C218.7 74.4 219.46 70.82 219.23 67.9C218.93 64.06 217 60.89 214.54 60.18C214.03 60.03 213.49 59.96 212.93 59.96C208.55 59.96 204.13 64.46 203.15 65.53L203.11 74.41V74.4Z" fill="black"/>
<path d="M156.34 98.8702C156.1 96.0702 163.87 100.98 178.46 100.33C193.05 99.6802 203.33 98.5602 203.72 99.4902C204.11 100.42 202.74 107.19 202.74 107.19L164.24 111.09L156.34 98.8802V98.8702Z" fill="black"/>
<path d="M210.2 27.3797C213.79 32.3097 213.12 43.2997 211.05 53.0797C208.98 62.8597 207.58 34.4197 207.58 34.4197L200.69 26.4297L210.19 27.3797H210.2Z" fill="black"/>
<path d="M211.86 56.191C210.16 45.361 212.26 37.461 210.29 32.251C210.29 32.251 203.31 9.22103 171.97 15.421C171.59 15.491 171.22 15.581 170.85 15.661C154.87 19.391 144.94 32.321 149.21 48.161L152.71 61.141C150.72 60.331 148.55 59.961 146.47 60.651C140.02 62.771 138.78 76.521 145.57 79.391C149.69 81.131 154.38 79.921 157.45 78.701L157.9 80.361L159.32 110.841C179.46 111.701 200.46 104.491 200.46 104.491L199.35 94.181C218.19 88.461 213.51 66.701 211.86 56.191Z" fill="white"/>
<path d="M162.74 111.761C161.57 111.761 160.41 111.741 159.29 111.691C158.85 111.671 158.5 111.321 158.48 110.881L157.07 80.5015L156.89 79.8315C152.51 81.4015 148.47 81.5315 145.26 80.1715C141.3 78.5015 140.05 73.8515 140.21 70.0715C140.38 65.9115 142.31 61.1315 146.23 59.8415C147.83 59.3215 149.6 59.3115 151.5 59.8315L148.41 48.3915C146.46 41.1615 147.3 34.2215 150.83 28.3115C154.8 21.6815 161.84 16.8915 170.67 14.8415C171.05 14.7515 171.43 14.6715 171.82 14.5915C175.43 13.8815 178.9 13.5215 182.14 13.5215C205.25 13.5215 211.06 31.8315 211.12 32.0115C212.17 34.7715 212.11 38.3115 212.04 42.4015C211.97 46.3615 211.9 50.8415 212.72 56.0615C212.81 56.6315 212.91 57.2315 213.01 57.8615C214.78 68.7415 218.06 88.8615 200.29 94.7815L201.33 104.401C201.37 104.791 201.14 105.171 200.76 105.291C200.57 105.351 181.71 111.761 162.76 111.761H162.74ZM160.14 110.021C160.99 110.051 161.86 110.061 162.74 110.061C179.46 110.061 196.11 105.001 199.55 103.891L198.51 94.2615C198.47 93.8515 198.72 93.4815 199.11 93.3615C216.22 88.1615 213.16 69.3615 211.32 58.1215C211.22 57.4915 211.12 56.8815 211.03 56.3115C210.19 50.9415 210.27 46.3815 210.33 42.3515C210.4 38.2715 210.45 35.0515 209.5 32.5415C209.27 31.7815 203.94 15.2015 182.13 15.2015C179 15.2015 175.64 15.5515 172.14 16.2415C171.77 16.3115 171.41 16.3915 171.05 16.4815C162.67 18.4315 156.01 22.9415 152.28 29.1715C148.99 34.6715 148.21 41.1615 150.04 47.9315L153.54 60.9115C153.62 61.2215 153.52 61.5515 153.28 61.7715C153.04 61.9815 152.7 62.0415 152.4 61.9215C150.3 61.0715 148.39 60.9115 146.75 61.4415C144.07 62.3215 142.07 65.8915 141.9 70.1315C141.77 73.3515 142.75 77.2615 145.92 78.6015C147.18 79.1315 148.61 79.4015 150.15 79.4015C152.27 79.4015 154.69 78.8815 157.15 77.9015C157.38 77.8115 157.63 77.8215 157.84 77.9315C158.06 78.0415 158.22 78.2315 158.28 78.4715L158.73 80.1315C158.75 80.1915 158.75 80.2515 158.76 80.3115L160.14 110.011V110.021Z" fill="black"/>
<path d="M203.79 106.471C200.12 105.681 198.6 108.731 198.6 108.731L168.14 107.861C167.18 108.141 163.97 105.711 163.03 106.001C170.89 124.631 178.89 143.251 190.5 161.811C200.45 144.511 201.34 124.381 203.8 106.471H203.79Z" fill="#2E5FB3"/>
<path d="M195.28 112.361L192.78 120.351L195.37 147.081C195.37 147.081 191.94 157.661 189.49 160.811L181.57 147.471L186.52 121.021L180.78 112.481L185.73 108.481L189.47 106.881L195.97 111.501L195.29 112.351L195.28 112.361Z" fill="black"/>
<path d="M264.9 215.51C262.37 185.58 257.33 168.17 266.45 138.07C265.37 136.92 264.29 135.74 263.22 134.7C244.07 116 215.1 108.11 202.79 105.47C200.34 123.37 199.44 143.51 189.49 160.81C177.88 142.25 169.88 123.63 162.02 105C126.01 116.06 105.79 129.87 95.6504 138.74C113.75 168.94 129.67 208.48 102.24 240C103.13 247.56 103.75 254.31 103.92 259.56C105.03 293.23 100.04 375.03 100.04 375.03L272.27 376.72C273.97 310.28 266.42 228.23 266.42 228.23C266.98 228.15 264.35 215.59 264.9 215.51Z" fill="#A1C3FF"/>
<path d="M272.27 377.561L100.04 375.881C99.8101 375.881 99.5901 375.781 99.4301 375.611C99.2701 375.441 99.1901 375.211 99.2001 374.981C99.2501 374.161 104.18 292.841 103.08 259.591C102.92 254.721 102.36 248.161 101.4 240.101C101.37 239.861 101.45 239.621 101.6 239.441C122.89 214.991 120.7 182.191 94.9201 139.181C94.7101 138.831 94.7801 138.381 95.0901 138.101C105.9 128.651 126.25 115.091 161.77 104.191C162.19 104.061 162.63 104.271 162.8 104.671C171.33 124.881 178.74 141.801 189.45 159.141C197.11 145.121 199 129.441 200.82 114.261C201.17 111.321 201.54 108.271 201.94 105.351C201.97 105.121 202.1 104.911 202.29 104.771C202.48 104.631 202.73 104.591 202.96 104.631C214.78 107.171 244.38 115.111 263.81 134.081C264.76 135.011 265.72 136.041 266.65 137.041L267.06 137.481C267.27 137.701 267.34 138.021 267.25 138.311C260.01 162.211 261.79 178.321 264.04 198.711C264.62 203.971 265.22 209.421 265.73 215.431C265.74 215.581 265.72 215.731 265.65 215.861C265.65 216.621 266.12 219.531 266.47 221.681C267.27 226.561 267.43 227.831 267.26 228.401C267.72 233.531 274.72 312.841 273.09 376.731C273.08 377.191 272.7 377.561 272.24 377.561H272.27ZM100.94 374.191L271.44 375.861C273.03 310.381 265.65 229.121 265.57 228.311C265.56 228.151 265.58 228.001 265.65 227.871C265.65 227.101 265.18 224.151 264.82 221.971C264.03 217.161 263.87 215.901 264.03 215.341C263.53 209.451 262.94 204.091 262.36 198.921C260.1 178.461 258.31 162.281 265.49 138.311L265.41 138.221C264.49 137.241 263.54 136.221 262.62 135.321C243.98 117.121 215.72 109.211 203.5 106.511C203.15 109.111 202.84 111.731 202.51 114.481C200.61 130.271 198.64 146.611 190.22 161.241C190.07 161.501 189.8 161.661 189.5 161.671C189.2 161.641 188.92 161.521 188.76 161.271C177.7 143.601 170.16 126.491 161.53 106.051C127.32 116.651 107.48 129.681 96.7301 138.931C107.9 157.681 114.48 173.991 116.84 188.751C120.02 208.661 115.41 226.001 103.11 240.281C104.04 248.221 104.59 254.701 104.75 259.541C105.79 290.981 101.46 365.201 100.92 374.201L100.94 374.191Z" fill="black"/>
<path d="M267.23 235.7C265.72 235.88 264.19 236.08 262.76 236.12C256.61 236.37 250.21 234.92 244.36 233.74L241.67 233.2C228.53 230.54 214.95 227.77 200.8 227.3C185.78 226.78 171.23 228.9 157.16 230.93C144.69 232.72 132.91 234.37 121.2 234.36C118.81 234.35 116.4 234.26 113.99 234.17C111.67 234.09 109.25 234.02 106.79 233.99C105.46 235.91 104.02 237.8 102.39 239.67C103.28 247.23 103.9 253.98 104.07 259.23C104.09 259.72 104.1 260.26 104.11 260.77C107 260.74 109.98 260.81 113.07 260.92C115.74 261.01 118.41 261.1 121.05 261.11C134.78 261.19 148.09 259.26 160.98 257.41C174.5 255.45 187.28 253.59 199.91 254.04C211.82 254.44 223.74 256.86 236.35 259.42L239.07 259.97C245.86 261.34 254.29 263.04 263.07 262.88C263.18 262.88 263.3 262.88 263.41 262.88C265.41 262.83 267.3 262.58 269.21 262.38C268.46 251.01 267.74 241.75 267.24 235.7H267.23Z" fill="black"/>
<path d="M160.87 206.341C152.73 207.121 144.32 207.921 136.13 208.071C134.38 208.071 132.91 208.101 131.3 208.111C126.57 208.131 121.65 208.131 116.78 208.781C116.7 208.791 116.62 208.811 116.54 208.821C116.3 210.581 115.98 212.331 115.58 214.071C116.2 213.971 116.81 213.841 117.43 213.751C121.97 213.141 126.72 213.131 131.3 213.121C132.93 213.121 134.55 213.121 136.17 213.081C136.18 213.081 136.2 213.081 136.21 213.081C144.59 212.921 153.1 212.111 161.34 211.331C177.85 209.751 194.92 208.121 211.04 211.921C212.72 212.311 214.39 212.771 216.06 213.231C219.28 214.111 222.61 215.011 226.04 215.511C229.73 216.051 233.45 216.111 237.05 216.171L265.12 216.851C264.9 215.171 264.43 213.251 264.19 211.571L237.12 211.151C233.69 211.101 230.14 211.041 226.76 210.541C223.63 210.081 220.59 209.261 217.37 208.391C215.64 207.921 213.92 207.451 212.18 207.041C195.27 203.051 177.76 204.721 160.85 206.341H160.87Z" fill="black"/>
<path d="M186.15 349.151C186.1 349.151 186.05 349.141 186 349.111C185.86 349.031 185.81 348.851 185.89 348.711C192.9 336.521 215.8 290.041 216.03 289.581C216.1 289.431 216.28 289.381 216.42 289.451C216.57 289.521 216.63 289.701 216.55 289.841C216.32 290.311 193.41 336.801 186.39 349.011C186.33 349.101 186.24 349.151 186.14 349.161L186.15 349.151Z" fill="black"/>
<path d="M214.52 325.67C214.52 325.67 214.45 325.67 214.42 325.65C214.27 325.6 214.19 325.43 214.24 325.28L221.66 304.15C221.72 304 221.88 303.93 222.03 303.97C222.18 304.02 222.26 304.19 222.21 304.34L214.79 325.47C214.75 325.59 214.64 325.66 214.52 325.67Z" fill="black"/>
<path d="M180.1 59.3406C180.07 57.5606 179.21 56.1306 178.19 56.1506C177.17 56.1706 176.37 57.6306 176.4 59.4106C176.43 61.1906 177.29 62.6206 178.31 62.6006C179.33 62.5806 180.13 61.1206 180.1 59.3406Z" fill="black"/>
<path d="M206.02 58.6609C205.99 56.8809 205.13 55.4509 204.11 55.4709C203.09 55.4909 202.29 56.9509 202.32 58.7309C202.35 60.5109 203.21 61.9409 204.23 61.9209C205.25 61.9009 206.05 60.4409 206.02 58.6609Z" fill="black"/>
<path d="M182.921 52.3512C182.871 52.8412 182.381 53.1512 181.931 53.3512C179.651 54.4212 177.171 55.0312 174.661 55.1612C174.221 55.1812 173.761 55.1912 173.341 55.0212C172.631 54.7312 172.181 53.9112 172.331 53.1612C172.451 52.5412 172.911 52.0412 173.461 51.7212C174.011 51.4012 174.621 51.2512 175.231 51.1012C177.501 50.5512 180.021 50.1012 182.081 51.2112C182.521 51.4512 182.971 51.8512 182.921 52.3412V52.3512Z" fill="black"/>
<path d="M207.721 53.7009C206.141 53.9209 204.011 53.3109 202.851 53.4209C201.831 53.5109 199.791 54.1709 199.521 52.6609C199.561 51.6509 200.361 50.8309 201.251 50.4509C201.951 50.1409 202.731 50.0509 203.491 49.9609C205.221 49.7609 207.95 49.3709 209.26 50.8609C209.58 51.2209 209.751 51.7309 209.631 52.2009C209.381 53.1809 208.641 53.5809 207.721 53.7109V53.7009Z" fill="black"/>
<path d="M188.26 106.811C177.3 108.221 160.11 103.401 156.48 99.541L153.08 107.841C153.08 107.841 167.22 133.041 170.02 132.621C172.82 132.201 183.07 109.161 188.1 107.941C193.13 106.721 204.91 125.791 206.23 126.141C207.55 126.491 205.01 100.701 203.88 100.161C202.75 99.621 205.27 104.631 188.27 106.821L188.26 106.811Z" fill="#2E5FB3"/>
<path d="M169.94 133.471C166.82 133.471 156.59 115.841 152.33 108.251C152.2 108.021 152.19 107.751 152.29 107.511L155.69 99.211C155.8 98.941 156.04 98.751 156.32 98.701C156.61 98.651 156.9 98.741 157.09 98.951C160.09 102.151 173.37 106.211 184.01 106.211C185.5 106.211 186.89 106.131 188.14 105.971C200.82 104.341 202.16 101.231 202.6 100.211C202.74 99.881 203.01 99.271 203.71 99.271C203.88 99.271 204.05 99.311 204.22 99.391C204.68 99.611 205.44 99.971 206.65 111.911C207.19 117.271 207.68 124.161 207.27 125.971C207.06 126.891 206.48 126.991 206.23 126.991C206.16 126.991 206.06 126.981 205.99 126.961C205.37 126.791 204.78 126.071 202.05 122.421C198.47 117.641 191.8 108.731 188.57 108.731C188.47 108.731 188.37 108.741 188.28 108.761C185.78 109.361 181.03 117.431 177.56 123.331C173.34 130.501 171.6 133.231 170.13 133.461C170.09 133.461 169.97 133.471 169.93 133.471H169.94ZM154.02 107.781C160.43 119.171 168.03 131.081 169.93 131.761C170.92 131.291 173.8 126.401 176.11 122.471C180.35 115.271 183.71 109.811 186.43 107.841C185.66 107.891 184.85 107.911 184.01 107.911C174.44 107.911 161.53 104.531 156.81 100.961L154.01 107.781H154.02ZM190.21 107.391C193.83 108.891 198.53 114.851 203.43 121.401C204.27 122.521 205.13 123.671 205.76 124.451C205.89 120.081 204.59 106.311 203.63 101.931C202.56 103.521 199.68 105.941 190.22 107.391H190.21Z" fill="black"/>
<path d="M144.35 40.4606C139.78 36.2406 131.99 30.2006 140.66 23.4906C149.33 16.7806 151.71 23.4706 157.15 14.0106C162.59 4.55059 175.16 -4.29941 184.46 2.27059C193.76 8.84059 211.55 -1.03941 216.93 6.16059C222.31 13.3606 219.29 22.4106 214.5 26.4306C209.71 30.4506 195.7 32.5806 181.07 31.3606C166.44 30.1306 154.9 44.0206 154.9 44.0206L144.35 40.4706V40.4606Z" fill="black"/>
<path d="M196.11 35.2504C191.73 35.3304 187.41 34.6904 183.2 34.0504C178.26 33.3104 173.6 32.6104 169.35 33.1904L169.25 32.4504C173.61 31.8504 178.32 32.5604 183.31 33.3104C189.33 34.2104 195.56 35.1404 201.83 33.9104C213.21 31.6704 219.08 22.0104 218.79 16.1904L219.54 16.1504C219.84 22.2404 213.76 32.3304 201.97 34.6504C200 35.0404 198.05 35.2204 196.11 35.2504Z" fill="black"/>
<path d="M155.65 39.1608C155.65 39.1608 155.57 39.1608 155.53 39.1408C155.39 39.0808 155.32 38.9108 155.38 38.7708C160.17 27.6508 167.6 23.4708 180.22 24.7608C190.04 25.7608 211.12 22.6208 215.34 15.4808C216.44 13.6208 216.25 11.6008 214.78 9.48079C214.69 9.35079 214.72 9.1808 214.85 9.0908C214.98 9.0008 215.15 9.03079 215.24 9.16079C216.84 11.4808 217.04 13.7108 215.82 15.7708C211.49 23.0908 190.1 26.3408 180.16 25.3208C167.82 24.0608 160.57 28.1508 155.89 39.0008C155.85 39.1008 155.74 39.1708 155.64 39.1708L155.65 39.1608Z" fill="white"/>
<path d="M169.48 25.6705C169.37 25.6705 169.27 25.6105 169.22 25.5105C169.16 25.3705 169.22 25.2005 169.36 25.1405C172.04 23.9005 178.03 22.9405 184.36 21.9205C189.95 21.0205 195.74 20.0905 198.98 18.9605C202.7 17.6705 205.29 14.9305 205.43 12.1405C205.53 10.2005 204.39 8.57051 202.23 7.56051C202.09 7.49051 202.03 7.33051 202.09 7.19051C202.15 7.05051 202.32 6.99051 202.46 7.05051C204.84 8.16051 206.1 9.98051 205.99 12.1705C205.84 15.1805 203.09 18.1305 199.16 19.4905C195.88 20.6305 190.07 21.5705 184.45 22.4705C178.43 23.4405 172.21 24.4405 169.59 25.6505C169.55 25.6705 169.52 25.6705 169.48 25.6805V25.6705Z" fill="white"/>
<path d="M177.92 68.432C172.71 68.532 168.37 63.642 168.26 57.542C168.15 51.442 172.3 46.392 177.51 46.302C182.72 46.212 187.06 51.092 187.17 57.192C187.28 63.292 183.13 68.332 177.92 68.432ZM177.52 47.062C172.72 47.152 168.9 51.852 169.01 57.532C169.12 63.212 173.11 67.762 177.9 67.682C182.7 67.592 186.51 62.902 186.41 57.212C186.3 51.532 182.32 46.972 177.52 47.062Z" fill="black"/>
<path d="M177.76 68.8511C172.4 68.8511 167.94 63.7811 167.82 57.5411C167.76 54.4911 168.73 51.5911 170.55 49.3911C172.38 47.1711 174.85 45.9211 177.49 45.8711H177.65C183.01 45.8711 187.47 50.9411 187.58 57.1811C187.64 60.2311 186.67 63.1311 184.86 65.3311C183.03 67.5511 180.56 68.8011 177.92 68.8511H177.76ZM177.65 47.4711H177.52C175.33 47.5111 173.28 48.5711 171.75 50.4511C170.2 52.3511 169.38 54.8611 169.43 57.5111C169.53 62.8811 173.27 67.2411 177.76 67.2411H177.89C182.45 67.1511 186.08 62.6511 185.98 57.2011C185.88 51.8311 182.14 47.4711 177.65 47.4711Z" fill="black"/>
<path d="M205.79 67.9108C200.58 68.0108 196.24 63.1208 196.13 57.0208C196.02 50.9208 200.17 45.8708 205.38 45.7808C210.59 45.6808 214.93 50.5708 215.04 56.6708C215.15 62.7708 211 67.8108 205.79 67.9108ZM205.39 46.5408C200.59 46.6308 196.77 51.3308 196.88 57.0108C196.99 62.6908 200.98 67.2408 205.77 67.1608C210.57 67.0708 214.39 62.3808 214.28 56.6908C214.17 51.0108 210.18 46.4508 205.39 46.5408Z" fill="black"/>
<path d="M205.64 68.3413C200.28 68.3413 195.82 63.2713 195.7 57.0313C195.64 53.9813 196.61 51.0813 198.43 48.8813C200.26 46.6613 202.73 45.4013 205.37 45.3613H205.53C210.89 45.3613 215.35 50.4313 215.47 56.6713C215.53 59.7213 214.56 62.6213 212.74 64.8213C210.91 67.0413 208.44 68.2913 205.8 68.3413H205.64ZM205.53 46.9613H205.4C203.21 47.0013 201.16 48.0613 199.63 49.9413C198.08 51.8413 197.26 54.3513 197.31 57.0013C197.41 62.3613 201.15 66.7313 205.64 66.7313H205.77C207.96 66.6913 210.01 65.6313 211.54 63.7513C213.09 61.8513 213.91 59.3413 213.86 56.6913C213.76 51.3213 210.02 46.9613 205.53 46.9613Z" fill="black"/>
<path d="M186.94 58.4813L186.51 57.8613C192.59 53.7513 196.63 57.1513 196.68 57.1813L196.19 57.7513C196.04 57.6313 192.53 54.7113 186.94 58.4813Z" fill="black"/>
<path d="M186.83 59.0704L185.93 57.7404L186.28 57.5004C188.34 56.1004 190.41 55.4004 192.41 55.4004C195.14 55.4004 196.78 56.7004 196.96 56.8504L197.29 57.1304L196.24 58.3404L195.92 58.0704C195.79 57.9604 194.56 56.9804 192.45 56.9804C190.77 56.9804 189 57.6004 187.18 58.8304L186.83 59.0704Z" fill="black"/>
<path d="M157.4 60.8918L168.63 59.8518L168.56 59.0918L157.32 60.1318C157.35 60.3818 157.38 60.6318 157.4 60.8818V60.8918Z" fill="black"/>
<path d="M157.01 61.3509L156.98 60.9209C156.96 60.6809 156.93 60.4309 156.9 60.1909L156.84 59.7509L168.94 58.6309L169.08 60.2309L157 61.3509H157.01Z" fill="black"/>
<path d="M266.43 228.521C266.29 228.521 266.16 228.411 266.14 228.271C263.73 211.421 261.37 189.671 261.35 189.451C261.33 189.291 261.45 189.141 261.61 189.131C261.61 189.131 261.63 189.131 261.64 189.131C261.79 189.131 261.92 189.241 261.93 189.391C261.96 189.611 264.32 211.341 266.72 228.191C266.74 228.351 266.63 228.501 266.47 228.521C266.46 228.521 266.45 228.521 266.44 228.521H266.43Z" fill="black"/>
<path d="M148.49 60.4204L142.59 36.6904L164.38 33.6504C164.38 33.6504 159.51 40.3104 159.71 51.2904C159.79 55.5404 160.12 58.6104 160.5 60.7704C160.84 62.7104 158.92 64.2804 157.07 63.5904L148.48 60.4104L148.49 60.4204Z" fill="black"/>
<path d="M200.12 92.9512C197.47 94.0012 186.99 94.7112 177.99 93.1612C177.99 93.1612 189.23 99.2312 199.78 98.8212L200.12 92.9512Z" fill="black"/>
<path d="M191.9 78.1506C186.27 78.1506 181.67 74.8006 181.42 74.6206C181.04 74.3406 180.97 73.8106 181.24 73.4306C181.52 73.0506 182.05 72.9806 182.43 73.2506C182.5 73.3006 189.89 78.6606 196.82 75.3606C197.24 75.1606 197.75 75.3406 197.95 75.7606C198.15 76.1806 197.97 76.6906 197.55 76.8906C195.64 77.8006 193.72 78.1506 191.91 78.1506H191.9Z" fill="black"/>
<path d="M181.28 75.8806C181.13 75.8806 180.98 75.8406 180.84 75.7606C180.44 75.5206 180.31 75.0006 180.55 74.6006L181.92 72.3206C182.16 71.9206 182.68 71.7906 183.08 72.0306C183.48 72.2706 183.61 72.7906 183.37 73.1906L182 75.4706C181.84 75.7406 181.56 75.8806 181.27 75.8806H181.28Z" fill="black"/>
<path d="M156.791 73.1608C156.411 73.1608 156.071 72.9108 155.971 72.5208C154.821 68.0808 151.761 67.7508 150.491 67.8008C148.401 67.9008 146.441 69.2008 146.211 70.6308C146.141 71.0908 145.701 71.4108 145.241 71.3308C144.781 71.2608 144.461 70.8208 144.541 70.3608C144.901 68.1108 147.481 66.2408 150.421 66.1008C153.901 65.9308 156.611 68.1708 157.621 72.0808C157.741 72.5308 157.471 73.0008 157.011 73.1108C156.941 73.1308 156.871 73.1408 156.801 73.1408L156.791 73.1608Z" fill="black"/>
<path d="M151.23 72.7101C151.16 72.7101 151.1 72.7101 151.03 72.6901C150.57 72.5801 150.29 72.1201 150.4 71.6701L151.45 67.3101C151.56 66.8501 152.03 66.5701 152.47 66.6801C152.93 66.7901 153.21 67.2501 153.1 67.7001L152.05 72.0601C151.96 72.4501 151.61 72.7101 151.23 72.7101Z" fill="black"/>
<path d="M351.13 160.171C355.27 148.431 361.17 127.671 360.85 120.241C360.54 113.151 338.62 107.071 324.12 103.821C326.74 95.1505 329.74 84.8906 331.32 77.8606L334.48 63.9006C335.35 60.0306 332.93 56.1906 329.06 55.3206C325.17 54.4206 321.36 56.8806 320.49 60.7506L317.35 74.7106C315.63 82.3706 312.04 94.5206 309.24 103.651C307.33 105.511 304.54 108.351 301.74 111.641C299.74 103.601 297.51 96.2906 295.4 92.9706C293.27 89.6306 288.83 88.6405 285.49 90.7705C282.15 92.9005 281.16 97.3405 283.29 100.681C285.13 103.561 288.37 116.581 291.19 130.351C287.27 147.661 298.14 162.661 298.14 162.661L298.52 228.071C297.33 229.101 296.28 229.981 295.43 230.611C289.32 235.191 273.84 233.051 273.84 233.051C273.84 233.051 269.11 253.871 268.34 258.451C267.69 262.411 271.58 273.781 267.48 280.471C275.31 293.671 285.99 303.781 300.38 304.411C348.01 306.481 351.27 273.171 351.45 234.861L351.12 160.141L351.13 160.171Z" fill="white"/>
<path d="M304.511 305.811C303.161 305.811 301.761 305.561 300.351 305.501C287.311 304.941 276.011 296.641 266.761 281.041C266.601 280.771 266.601 280.381 266.761 280.111C269.371 275.851 268.511 269.241 267.881 264.431C267.551 261.931 267.271 259.761 267.511 258.351C268.271 253.801 272.821 233.741 273.021 232.891C273.121 232.461 273.531 232.171 273.961 232.231C273.991 232.231 277.561 232.721 281.861 232.721C287.991 232.721 292.501 231.761 294.921 229.951C295.641 229.411 296.561 228.661 297.671 227.701L297.291 162.951C295.891 160.931 286.691 146.811 290.321 130.361C287.201 115.091 284.161 103.641 282.571 101.151C280.191 97.421 281.301 92.441 285.031 90.071C286.321 89.251 287.811 88.811 289.331 88.811C292.091 88.811 294.631 90.201 296.111 92.521C297.901 95.341 299.941 101.171 302.161 109.851C304.571 107.111 306.861 104.781 308.491 103.191C311.221 94.291 314.801 82.161 316.521 74.521L319.661 60.561C320.491 56.871 323.691 54.291 327.451 54.291C328.051 54.291 328.661 54.361 329.251 54.501C333.561 55.471 336.271 59.771 335.301 64.091L332.141 78.061C330.531 85.231 327.461 95.661 325.191 103.201C349.161 108.631 361.441 114.351 361.691 120.211C362.021 127.801 356.101 148.561 351.971 160.321L352.291 235.101C352.101 273.671 348.371 305.811 304.491 305.811H304.511ZM268.471 280.501C277.361 295.291 288.101 303.131 300.421 303.661C301.801 303.721 303.181 303.821 304.501 303.821C324.311 303.821 336.711 297.271 343.531 283.351C349.901 270.351 350.521 252.281 350.601 234.921L350.271 160.201C350.271 160.101 350.291 160.001 350.321 159.911C354.571 147.851 360.301 127.371 359.991 120.301C359.781 115.451 346.631 109.751 323.921 104.671C323.691 104.621 323.491 104.471 323.371 104.271C323.251 104.071 323.221 103.821 323.291 103.601C325.581 96.031 328.811 85.101 330.471 77.701L333.631 63.731C334.401 60.321 332.251 56.931 328.851 56.171C328.381 56.061 327.901 56.011 327.421 56.011C324.471 56.011 321.941 58.041 321.291 60.961L318.151 74.921C316.401 82.671 312.771 94.971 310.021 103.921C309.981 104.061 309.901 104.181 309.801 104.281C307.961 106.071 305.181 108.901 302.351 112.211C302.141 112.451 301.821 112.561 301.511 112.491C301.201 112.421 300.961 112.181 300.881 111.871C298.551 102.481 296.451 96.281 294.651 93.451C293.481 91.621 291.481 90.521 289.301 90.521C288.101 90.521 286.931 90.861 285.911 91.511C282.971 93.381 282.101 97.311 283.971 100.251C286.021 103.481 289.461 117.841 291.981 130.211C292.001 130.331 292.001 130.451 291.981 130.571C288.191 147.311 298.681 162.051 298.791 162.201C298.891 162.341 298.951 162.521 298.951 162.691L299.331 228.101C299.331 228.351 299.221 228.581 299.041 228.751C297.771 229.851 296.721 230.721 295.901 231.331C293.141 233.391 288.411 234.441 281.821 234.441C278.561 234.441 275.761 234.181 274.461 234.031C273.611 237.791 269.811 254.621 269.141 258.641C268.951 259.811 269.211 261.851 269.521 264.211C270.161 269.111 271.031 275.771 268.431 280.511L268.471 280.501Z" fill="black"/>
<path d="M320.74 158.26C320.74 158.26 320.68 158.24 320.66 158.23C320.36 158.11 320.21 157.75 320.34 157.45C329.32 135.58 310.53 125.43 309.73 125.01C309.44 124.86 309.33 124.5 309.48 124.2C309.63 123.91 310 123.79 310.29 123.95C310.5 124.06 330.86 135.01 321.45 157.91C321.34 158.19 321.04 158.33 320.75 158.26H320.74Z" fill="black"/>
<path d="M351.941 123.111C351.881 123.111 351.821 123.091 351.771 123.071C351.501 122.961 325.231 112.491 315.411 109.621C315.091 109.531 314.911 109.201 315.001 108.881C315.091 108.561 315.421 108.391 315.741 108.471C325.621 111.361 351.951 121.851 352.211 121.951C352.521 122.071 352.671 122.421 352.551 122.731C352.451 122.981 352.201 123.131 351.951 123.111H351.941Z" fill="black"/>
<path d="M335.41 94.8903C338.35 95.9003 340.38 98.2703 340.98 100.88C342.95 99.3703 345.78 98.8703 348.56 99.8203C351.69 100.89 353.85 103.49 354.28 106.29C354.34 106.69 354.34 107.09 354.33 107.5C356.1 105.94 358.8 105.36 361.45 106.27C364.26 107.23 366.19 109.56 366.57 112.07C366.7 112.95 366.65 113.85 366.37 114.73L360.35 133.64C359.28 137.01 355.33 138.69 351.54 137.39C348.88 136.48 347.03 134.33 346.52 131.97C344.73 134.6 341.08 135.75 337.52 134.53C334.58 133.52 332.53 131.16 331.94 128.56C329.97 130.06 327.15 130.55 324.38 129.6C321.18 128.5 319.11 125.8 318.76 122.92C320.2 113.56 322.75 106.9 326.72 95.0503C328.41 94.4303 333.46 94.2103 335.42 94.8803L335.41 94.8903Z" fill="white"/>
<path d="M354.13 138.681C353.16 138.681 352.2 138.521 351.26 138.191C348.95 137.401 347.11 135.731 346.18 133.651C344.69 135.051 342.62 135.861 340.38 135.861C339.32 135.861 338.26 135.681 337.23 135.331C334.53 134.401 332.39 132.371 331.44 129.881C329.3 131.051 326.57 131.261 324.09 130.401C320.74 129.251 318.31 126.351 317.91 123.021C317.91 122.941 317.91 122.861 317.91 122.791C319.16 114.691 321.2 108.671 324.29 99.5611C324.8 98.0611 325.34 96.4711 325.9 94.7811C325.98 94.5311 326.17 94.3411 326.41 94.2511C327.61 93.8111 329.94 93.6211 331.73 93.6211C332.93 93.6211 334.58 93.7011 335.68 94.0711C338.37 95.0011 340.5 97.0311 341.45 99.5311C343.59 98.3511 346.33 98.1411 348.82 98.9911C352.07 100.111 354.5 102.811 355.06 105.911C356.98 104.861 359.44 104.671 361.7 105.441C364.71 106.471 366.95 109.021 367.39 111.921C367.55 112.961 367.47 113.981 367.16 114.971L361.14 133.881C360.23 136.741 357.41 138.661 354.12 138.661L354.13 138.681ZM346.51 131.121C346.56 131.121 346.62 131.121 346.67 131.141C347 131.201 347.27 131.461 347.34 131.791C347.81 133.971 349.52 135.811 351.81 136.591C352.57 136.851 353.35 136.981 354.13 136.981C356.71 136.981 358.83 135.571 359.53 133.381L365.55 114.471C365.78 113.741 365.84 112.971 365.72 112.191C365.37 109.911 363.58 107.901 361.16 107.071C358.92 106.301 356.46 106.731 354.88 108.131C354.63 108.351 354.26 108.411 353.96 108.261C353.65 108.121 353.46 107.801 353.47 107.471C353.48 107.121 353.48 106.761 353.43 106.411C353.04 103.831 351.02 101.561 348.28 100.621C345.91 99.8011 343.29 100.171 341.5 101.551C341.27 101.731 340.97 101.771 340.7 101.671C340.43 101.571 340.22 101.341 340.16 101.061C339.61 98.6211 337.69 96.5611 335.15 95.6911C334.48 95.4611 333.24 95.3311 331.76 95.3311C330.1 95.3311 328.37 95.5011 327.4 95.7511C326.88 97.2911 326.39 98.7411 325.92 100.121C322.87 109.101 320.85 115.051 319.63 122.941C320 125.581 321.96 127.881 324.66 128.811C327.02 129.621 329.63 129.261 331.43 127.891C331.66 127.721 331.96 127.671 332.23 127.771C332.5 127.871 332.7 128.101 332.77 128.381C333.32 130.811 335.25 132.861 337.8 133.741C338.65 134.031 339.53 134.181 340.4 134.181C342.66 134.181 344.68 133.181 345.83 131.501C345.99 131.261 346.25 131.131 346.53 131.131L346.51 131.121Z" fill="black"/>
<path d="M332.18 128.741C332.11 128.831 331.98 128.871 331.85 128.831C331.68 128.781 331.58 128.621 331.62 128.471L335.79 113.231C335.83 113.081 336 113.011 336.16 113.061C336.33 113.111 336.43 113.271 336.39 113.421L332.22 128.661C332.22 128.661 332.2 128.721 332.18 128.741Z" fill="black"/>
<path d="M331.95 129.271C331.87 129.271 331.8 129.261 331.73 129.241C331.34 129.121 331.12 128.741 331.22 128.371L335.39 113.131C335.48 112.771 335.9 112.551 336.29 112.661C336.68 112.781 336.9 113.161 336.81 113.541L332.64 128.781C332.62 128.861 332.58 128.941 332.53 129.011C332.4 129.181 332.19 129.281 331.96 129.281L331.95 129.271Z" fill="black"/>
<path d="M348.85 126.182C348.78 126.272 348.649 126.312 348.519 126.272C348.359 126.222 348.25 126.062 348.29 125.912L352.799 108.572C352.829 108.422 353 108.342 353.17 108.392C353.33 108.442 353.439 108.602 353.399 108.752L348.89 126.092C348.89 126.092 348.87 126.152 348.85 126.182Z" fill="black"/>
<path d="M348.62 126.712C348.55 126.712 348.47 126.702 348.4 126.682C348.02 126.572 347.79 126.182 347.88 125.812L352.39 108.482C352.47 108.122 352.9 107.882 353.29 108.002C353.67 108.112 353.9 108.502 353.8 108.872L349.29 126.212C349.27 126.292 349.23 126.372 349.17 126.452C349.04 126.622 348.83 126.722 348.61 126.722L348.62 126.712Z" fill="black"/>
<path d="M346.759 132.15C346.689 132.24 346.569 132.28 346.449 132.25C346.279 132.21 346.169 132.05 346.199 131.9L346.699 129.43C346.729 129.28 346.889 129.19 347.059 129.23C347.229 129.27 347.339 129.43 347.309 129.58L346.809 132.05C346.809 132.05 346.789 132.12 346.759 132.15Z" fill="black"/>
<path d="M346.53 132.681L346.34 132.661C345.95 132.561 345.71 132.191 345.78 131.821L346.28 129.351C346.35 129.031 346.63 128.801 346.97 128.801L347.16 128.821C347.55 128.921 347.79 129.291 347.72 129.661L347.22 132.141C347.2 132.241 347.16 132.331 347.1 132.411C346.97 132.581 346.76 132.681 346.53 132.681Z" fill="black"/>
<path d="M331.3 121.521C331.3 121.521 331.3 121.581 331.3 121.601L329.84 127.231C329.82 127.311 329.76 127.381 329.67 127.411C329.54 127.461 326.31 128.571 322.75 126.811C322.59 126.731 322.52 126.551 322.59 126.411C322.66 126.271 322.85 126.221 323.01 126.301C325.9 127.731 328.63 127.091 329.26 126.901L330.65 121.531C327.98 117.921 323.28 117.991 322.27 118.051L320.98 122.691C320.94 122.841 320.77 122.921 320.6 122.871C320.43 122.821 320.33 122.651 320.37 122.501L321.71 117.681C321.74 117.571 321.83 117.501 321.95 117.491C322.01 117.491 328.06 116.861 331.26 121.361C331.29 121.411 331.31 121.461 331.32 121.511L331.3 121.521Z" fill="black"/>
<path d="M327 128.231C325.44 128.231 323.95 127.881 322.56 127.201C322.19 127.011 322.04 126.581 322.21 126.231C322.39 125.891 322.84 125.751 323.2 125.931C324.36 126.501 325.62 126.791 326.95 126.791C327.83 126.791 328.52 126.661 328.92 126.571L330.2 121.641C327.84 118.621 323.94 118.461 322.61 118.481L321.4 122.831C321.3 123.201 320.88 123.431 320.48 123.301C320.09 123.181 319.86 122.781 319.97 122.411L321.31 117.591C321.38 117.321 321.62 117.121 321.91 117.091C321.93 117.091 322.24 117.061 322.77 117.061C324.56 117.061 328.99 117.461 331.62 121.141C331.7 121.251 331.74 121.381 331.75 121.501V121.571L331.73 121.721L330.27 127.351C330.21 127.571 330.05 127.751 329.83 127.821C329.79 127.841 328.67 128.231 327.02 128.231H327Z" fill="black"/>
<path d="M345.54 125.88C345.54 125.88 345.54 125.94 345.54 125.96L344.08 131.59C344.06 131.67 344 131.74 343.91 131.77C343.78 131.82 340.55 132.93 336.99 131.17C336.83 131.09 336.76 130.91 336.83 130.77C336.9 130.63 337.09 130.58 337.25 130.66C340.14 132.09 342.87 131.45 343.5 131.26L344.89 125.9C342.22 122.29 337.52 122.36 336.51 122.42L335.22 127.06C335.18 127.21 335.01 127.29 334.84 127.24C334.67 127.19 334.57 127.02 334.61 126.87L335.95 122.05C335.98 121.94 336.07 121.87 336.19 121.86C336.25 121.86 342.3 121.23 345.5 125.73C345.53 125.78 345.55 125.83 345.56 125.88H345.54Z" fill="black"/>
<path d="M341.24 132.59C339.68 132.59 338.19 132.24 336.8 131.56C336.43 131.37 336.28 130.94 336.45 130.59C336.62 130.25 337.08 130.11 337.44 130.28C338.6 130.85 339.86 131.14 341.19 131.14C342.07 131.14 342.76 131.01 343.15 130.92L344.43 125.99C342.07 122.97 338.17 122.8 336.84 122.83L335.63 127.18C335.53 127.56 335.11 127.78 334.71 127.65C334.32 127.53 334.09 127.13 334.2 126.76L335.54 121.94C335.61 121.67 335.85 121.47 336.14 121.44C336.18 121.44 336.49 121.4 337 121.4C338.79 121.4 343.22 121.8 345.85 125.48C345.93 125.59 345.97 125.72 345.98 125.84V125.91L345.96 126.06L344.5 131.69C344.44 131.91 344.28 132.09 344.05 132.17C344.01 132.18 342.91 132.58 341.25 132.58L341.24 132.59Z" fill="black"/>
<path d="M359.84 129.02C359.84 129.02 359.84 129.07 359.84 129.1L358.45 134.43C358.43 134.51 358.37 134.57 358.29 134.6C358.16 134.65 355.11 135.7 351.74 134.03C351.59 133.95 351.53 133.78 351.59 133.65C351.66 133.52 351.84 133.47 351.99 133.54C354.73 134.89 357.31 134.28 357.91 134.11L359.23 129.03C356.7 125.61 352.25 125.68 351.29 125.73L350.07 130.13C350.03 130.27 349.87 130.35 349.71 130.3C349.55 130.25 349.45 130.09 349.49 129.95L350.76 125.38C350.79 125.28 350.88 125.21 350.99 125.2C351.05 125.2 356.77 124.61 359.81 128.86C359.84 128.9 359.86 128.95 359.86 129L359.84 129.02Z" fill="black"/>
<path d="M355.76 135.39C354.28 135.39 352.86 135.06 351.54 134.41C351.18 134.22 351.03 133.8 351.2 133.46C351.37 133.13 351.81 132.99 352.16 133.16C353.26 133.7 354.45 133.97 355.7 133.97C356.52 133.97 357.17 133.85 357.54 133.76L358.75 129.12C356.53 126.29 352.86 126.1 351.6 126.14L350.46 130.24C350.36 130.61 349.95 130.82 349.56 130.7C349.18 130.58 348.96 130.19 349.06 129.83L350.33 125.26C350.4 125 350.63 124.8 350.92 124.77C350.95 124.77 351.25 124.74 351.74 124.74C353.43 124.74 357.64 125.12 360.14 128.61C360.22 128.72 360.26 128.85 360.27 128.97V129.03L360.25 129.17L358.86 134.51C358.81 134.73 358.64 134.9 358.42 134.98C358.38 134.99 357.32 135.37 355.76 135.37V135.39Z" fill="black"/>
<path d="M95.6507 138.742C69.7907 151.052 41.5407 219.262 41.5407 219.262C41.5407 219.262 39.7407 227.372 55.3607 235.792C70.9907 244.202 108.851 247.212 113.061 246.012C117.271 244.812 119.671 203.342 119.671 203.342C119.671 203.342 119.071 181.702 113.061 163.072C107.051 144.442 95.6407 138.742 95.6407 138.742H95.6507Z" fill="#2E5FB3"/>
<path d="M109.471 247.811C99.2106 247.811 68.9506 244.421 54.9606 236.891C38.9506 228.271 40.6306 219.611 40.7106 219.261C40.7206 219.211 40.7406 219.081 40.7506 219.031C41.9106 216.231 69.4206 150.331 95.2806 138.021C95.5206 137.911 95.7906 137.891 96.0206 138.011C96.5006 138.251 107.811 144.071 113.871 162.821C119.851 181.351 120.521 203.101 120.521 203.321C120.521 203.501 119.901 213.901 118.791 224.321C116.471 245.931 114.331 246.881 113.301 247.181C112.621 247.371 111.371 247.811 109.471 247.811ZM42.3606 219.511C42.2706 220.211 41.6706 227.661 55.7706 235.251C69.3006 242.531 99.6706 245.811 109.471 245.811C111.801 245.811 112.601 245.461 112.831 245.391C115.091 244.391 117.701 222.761 118.831 203.391C118.831 203.251 118.161 181.681 112.261 163.381C107.031 147.181 97.5706 140.871 95.6206 139.731C70.8606 152.061 43.5206 216.741 42.3606 219.511Z" fill="black"/>
<path d="M52.0209 218.061C46.0109 217.161 44.8509 220.171 44.5509 221.071C44.2509 221.971 45.1509 225.881 49.9609 227.981C54.7709 230.081 106.161 243.911 109.761 243.911C113.361 243.911 112.091 241.521 109.841 239.171C107.591 236.821 52.0209 218.061 52.0209 218.061Z" fill="black"/>
<path d="M276.95 245.912C285.29 247.562 293.25 250.342 301.59 252.012C303.76 252.442 306.05 252.802 308.25 252.312C310.21 251.872 311.93 250.812 313.6 249.772C317.87 247.112 322.14 244.442 326.41 241.782C327.22 241.272 328.05 240.752 328.61 240.032C329.2 239.262 329.44 238.342 329.67 237.452C332.77 225.432 336.99 213.602 342.28 202.102C339.18 202.142 336.13 201.212 333.79 199.512C329.57 204.662 325.35 209.812 321.14 214.972C317.14 219.862 312.98 225.112 312.53 231.012C312.2 228.172 308.45 226.912 305.24 226.542C299.7 225.902 294.04 226.252 288.41 226.402C278.35 226.672 268.29 226.312 258.35 225.302C248.08 224.272 238.33 221.822 228.23 220.312C226.18 223.652 226.08 229.232 225.26 232.992C225.2 233.272 225.14 233.562 225.26 233.812C225.46 234.222 226.04 234.332 226.54 234.412C233.13 235.462 238.77 238.872 245 240.902C254.43 243.972 264.93 243.822 274.86 245.532C275.55 245.652 276.24 245.782 276.93 245.922L276.95 245.912Z" fill="white"/>
<path d="M305.96 253.401C304.4 253.401 302.86 253.131 301.42 252.851C297.25 252.021 293.13 250.891 289.14 249.801C285.12 248.701 280.96 247.571 276.78 246.741C276.1 246.601 275.41 246.481 274.73 246.361C271.13 245.741 267.39 245.361 263.77 244.991C257.41 244.341 250.83 243.681 244.75 241.701C242.4 240.931 240.12 239.971 237.9 239.031C234.24 237.481 230.45 235.881 226.41 235.241C225.89 235.161 224.91 235.001 224.5 234.181C224.23 233.641 224.35 233.111 224.42 232.791C224.66 231.691 224.84 230.421 225.03 229.081C225.47 225.921 225.97 222.341 227.5 219.851C227.68 219.561 228.02 219.411 228.35 219.451C232.39 220.061 236.44 220.821 240.35 221.561C246.22 222.671 252.29 223.821 258.43 224.441C268.27 225.431 278.37 225.801 288.38 225.531C289.31 225.511 290.24 225.481 291.17 225.441C293.37 225.371 295.64 225.291 297.87 225.291C300.73 225.291 303.1 225.411 305.33 225.671C306.99 225.861 310.27 226.461 312.1 228.311C313.42 223.021 317.28 218.301 320.47 214.401L333.12 198.941C333.4 198.591 333.91 198.531 334.27 198.791C336.43 200.361 339.2 201.221 342.08 201.221H342.25C342.25 201.221 342.25 201.221 342.26 201.221C342.55 201.221 342.82 201.371 342.97 201.611C343.13 201.851 343.15 202.161 343.03 202.431C337.78 213.851 333.55 225.691 330.47 237.631C330.23 238.571 329.96 239.621 329.26 240.521C328.6 241.371 327.66 241.961 326.83 242.481L314.02 250.471C312.39 251.491 310.54 252.641 308.41 253.121C307.63 253.291 306.82 253.381 305.94 253.381L305.96 253.401ZM226.04 233.411C226.14 233.461 226.36 233.511 226.68 233.571C230.92 234.251 234.81 235.891 238.56 237.481C240.74 238.401 242.99 239.351 245.27 240.091C251.17 242.011 257.66 242.671 263.94 243.311C267.59 243.681 271.36 244.061 275.02 244.691C275.72 244.811 276.42 244.941 277.12 245.081C281.35 245.921 285.54 247.061 289.59 248.161C293.55 249.241 297.65 250.361 301.76 251.181C303.11 251.451 304.56 251.701 305.97 251.701C306.73 251.701 307.42 251.631 308.07 251.481C309.92 251.071 311.56 250.041 313.15 249.051L325.96 241.061C326.7 240.601 327.47 240.121 327.94 239.511C328.42 238.891 328.63 238.091 328.85 237.251C331.85 225.611 335.93 214.061 340.98 202.911C338.43 202.731 336 201.951 333.96 200.651L321.8 215.511C318.25 219.851 313.82 225.251 313.38 231.071C313.35 231.511 312.99 231.841 312.55 231.851C312.09 231.831 311.74 231.531 311.69 231.101C311.43 228.881 308.14 227.721 305.15 227.371C302.99 227.121 300.68 227.011 297.89 227.011C295.68 227.011 293.42 227.081 291.24 227.151C290.31 227.181 289.38 227.211 288.44 227.241C278.35 227.511 268.18 227.141 258.27 226.141C252.06 225.521 245.95 224.361 240.05 223.241C236.34 222.541 232.51 221.811 228.69 221.231C227.56 223.411 227.12 226.541 226.73 229.321C226.54 230.701 226.35 232.001 226.1 233.161C226.09 233.211 226.06 233.331 226.05 233.411H226.04Z" fill="black"/>
<path d="M322.771 230.761C322.771 230.761 319.661 230.001 312.851 231.931C306.041 233.861 302.391 235.941 302.391 235.941L311.151 244.171L325.271 235.741L322.761 230.761H322.771Z" fill="black"/>
<path d="M298.49 345.642C298.49 345.642 312.04 346.552 320.1 338.302L322.75 230.152C322.75 230.152 315.43 241.152 302.34 235.272L298.49 345.642Z" fill="#A1C3FF"/>
<path d="M299.7 346.522C298.89 346.522 298.43 346.492 298.43 346.492C297.97 346.462 297.62 346.072 297.64 345.612L301.49 235.242C301.49 234.962 301.65 234.702 301.89 234.552C302.13 234.402 302.43 234.382 302.69 234.502C305.13 235.602 307.54 236.152 309.84 236.152C317.62 236.152 322 229.742 322.05 229.682C322.26 229.372 322.65 229.232 323.01 229.342C323.37 229.452 323.61 229.792 323.6 230.172L320.95 338.332C320.95 338.542 320.86 338.752 320.71 338.902C313.99 345.782 303.78 346.522 299.71 346.522H299.7ZM299.36 344.822C299.46 344.822 299.57 344.822 299.69 344.822C302.67 344.822 312.79 344.322 319.25 337.942L321.83 232.552C319.75 234.692 315.69 237.842 309.82 237.842C307.65 237.842 305.4 237.402 303.13 236.522L299.35 344.812L299.36 344.822Z" fill="black"/>
<path d="M302.34 235.271L223.71 227.251C222.2 227.101 220.89 228.281 220.88 229.791L220.37 325.451C220.37 326.651 221.19 327.691 222.36 327.961L298.49 345.641L302.34 235.271Z" fill="#CCD7F2"/>
<path d="M298.49 346.492C298.43 346.492 298.36 346.492 298.3 346.472L222.17 328.792C220.61 328.432 219.52 327.052 219.53 325.442L220.04 229.782C220.05 227.792 221.77 226.202 223.8 226.402L302.43 234.422C302.87 234.472 303.21 234.852 303.19 235.292L299.34 345.662C299.34 345.912 299.21 346.152 299.01 346.302C298.86 346.412 298.68 346.472 298.49 346.472V346.492ZM223.45 228.092C222.51 228.092 221.74 228.862 221.73 229.802L221.22 325.462C221.22 326.272 221.76 326.962 222.55 327.142L297.68 344.592L301.47 236.052L223.63 228.112C223.57 228.112 223.51 228.112 223.45 228.112V228.092Z" fill="black"/>
<path d="M322.751 230.152L343.431 199.392C343.671 199.032 344.231 199.212 344.221 199.642L342.581 309.912L320.101 338.312L322.751 230.162V230.152Z" fill="#CCD7F2"/>
<path d="M320.1 339.151C320 339.151 319.91 339.131 319.81 339.101C319.47 338.981 319.24 338.651 319.25 338.281L321.9 230.121C321.9 229.961 321.95 229.801 322.04 229.671L342.72 198.911C343.15 198.271 344.16 198.181 344.7 198.731C344.94 198.971 345.07 199.301 345.06 199.651L343.42 309.921C343.42 310.111 343.35 310.291 343.24 310.431L320.76 338.831C320.6 339.041 320.35 339.151 320.09 339.151H320.1ZM323.59 230.411L321.01 335.781L341.74 309.601L343.35 201.021L323.59 230.411Z" fill="black"/>
<path d="M302.21 242.42L302.07 246.4C305.17 247.03 309.83 247.6 314.61 246.77C317.3 246.3 320.03 245.37 322.53 243.78L322.65 238.73C316.43 244.55 306.8 243.42 302.2 242.41L302.21 242.42Z" fill="black"/>
<path d="M298.941 330.312L298.801 334.322C301.801 335.042 307.121 335.922 312.601 334.972C315.161 334.522 317.761 333.672 320.171 332.212L320.291 327.252C313.391 333.292 302.671 331.282 298.941 330.312Z" fill="black"/>
<path d="M304.97 321.21C304.91 321.22 304.84 321.23 304.77 321.22C304.23 321.2 303.81 320.75 303.82 320.21L305.87 256.33C305.89 255.79 306.34 255.35 306.88 255.38C307.42 255.4 307.84 255.85 307.83 256.39L305.78 320.27C305.77 320.74 305.42 321.12 304.97 321.2V321.21Z" fill="black"/>
<path d="M311.891 322.481C311.821 322.491 311.751 322.501 311.681 322.491C311.141 322.471 310.721 322.011 310.751 321.471L312.151 290.951C312.181 290.411 312.631 289.991 313.171 290.021C313.711 290.041 314.131 290.501 314.101 291.041L312.701 321.561C312.681 322.031 312.331 322.401 311.891 322.481Z" fill="black"/>
<path d="M37.5901 286.461C37.1901 254.951 49.7101 218.621 49.7101 218.621C93.6601 222.871 109 239.651 109 239.651L103.84 265.941L182.22 271.111C210.2 267.181 221.09 272.711 221.09 272.711L220.18 284.641C220.18 284.641 219.54 289.551 232.2 300.181C244.28 310.321 247.72 311.261 254.5 314.951C261.44 318.731 271.54 322.921 267.91 329.781C264.28 336.641 255.16 333.711 255.16 333.711C255.16 333.711 256.67 338.141 251.94 341.661C247.21 345.181 237.17 340.741 237.17 340.741C236.15 356.181 221.42 348.821 221.42 348.821C221.42 348.821 216.31 352.621 211.06 349.121C205.81 345.621 182.15 326.971 178.16 327.291C174.17 327.611 124.14 328.321 124.14 328.321L124 328.121C104.93 329.401 85.4701 329.711 70.3701 327.701C57.2501 325.951 47.4101 322.461 43.9901 316.321C39.4701 308.201 37.7201 297.641 37.5801 286.471L37.5901 286.461Z" fill="white"/>
<path d="M215.83 351.44C213.97 351.44 212.21 350.89 210.59 349.81C209.23 348.9 206.73 347.05 203.56 344.7C195.73 338.9 181.17 328.11 178.26 328.11C174.25 328.43 126.19 329.12 124.15 329.15C123.99 329.15 123.78 329.09 123.63 328.98C113.66 329.64 104.43 329.97 96.1904 329.97C86.2304 329.97 77.5104 329.48 70.2604 328.52C55.6204 326.57 46.5304 322.6 43.2604 316.71C39.1004 309.23 36.9004 299.05 36.7404 286.46C36.3504 255.17 48.7804 218.7 48.9104 218.33C49.0404 217.96 49.4104 217.73 49.7904 217.76C93.5604 221.99 108.99 238.37 109.63 239.06C109.81 239.26 109.89 239.53 109.84 239.8L104.87 265.14L182.2 270.24C188.87 269.31 195.14 268.83 200.82 268.83C215.21 268.83 221.23 271.81 221.48 271.94C221.79 272.1 221.97 272.42 221.94 272.76L221.03 284.69C221.03 284.76 220.82 289.51 232.75 299.51C242.62 307.79 246.56 309.83 251.54 312.41C252.6 312.96 253.7 313.53 254.91 314.18C255.68 314.6 256.49 315.03 257.32 315.46C262.31 318.08 267.97 321.04 269.25 325.17C269.75 326.78 269.55 328.46 268.66 330.15C266.93 333.42 263.78 335.16 259.54 335.16C258.22 335.16 257.04 334.99 256.2 334.82C256.32 336.59 255.94 339.72 252.45 342.32C251.09 343.33 249.25 343.84 246.98 343.84C243.44 343.84 239.71 342.61 237.91 341.93C237 349.72 232.42 351.4 228.64 351.4C225.52 351.4 222.59 350.25 221.49 349.77C220.61 350.31 218.48 351.43 215.83 351.43V351.44ZM178.26 326.43C181.47 326.43 192.07 334.09 204.57 343.35C207.72 345.68 210.21 347.52 211.53 348.41C212.86 349.3 214.31 349.75 215.83 349.75C218.71 349.75 220.89 348.15 220.91 348.14C221.17 347.95 221.51 347.92 221.8 348.06C221.83 348.08 225.19 349.73 228.65 349.73C233.35 349.73 235.94 346.69 236.33 340.69C236.35 340.41 236.5 340.16 236.74 340.02C236.98 339.88 237.27 339.86 237.52 339.97C237.57 339.99 242.57 342.17 246.99 342.17C248.89 342.17 250.38 341.77 251.44 340.98C255.62 337.87 254.37 334.03 254.36 333.99C254.26 333.69 254.33 333.35 254.56 333.12C254.78 332.89 255.12 332.81 255.42 332.91C255.44 332.91 257.27 333.49 259.55 333.49C263.17 333.49 265.73 332.11 267.17 329.39C267.85 328.09 268.01 326.89 267.64 325.7C266.57 322.25 261.24 319.45 256.54 316.99C255.7 316.55 254.88 316.12 254.1 315.7C252.91 315.05 251.82 314.49 250.77 313.94C245.9 311.42 241.68 309.23 231.67 300.83C219.02 290.21 219.28 285.08 219.35 284.53L220.21 273.25C218.51 272.57 212.46 270.55 200.83 270.55C195.2 270.55 188.98 271.02 182.36 271.95C182.3 271.95 182.24 271.95 182.19 271.95L103.81 266.78C103.57 266.76 103.34 266.64 103.19 266.45C103.04 266.26 102.98 266.01 103.03 265.77L108.1 239.93C105.79 237.7 89.6704 223.48 50.3204 219.53C48.6804 224.51 38.1004 257.71 38.4604 286.45C38.6104 298.76 40.7304 308.67 44.7604 315.9C47.7604 321.29 56.4204 324.98 70.5104 326.85C77.6804 327.8 86.3304 328.29 96.2104 328.29C104.54 328.29 113.88 327.95 123.97 327.27C124.18 327.26 124.4 327.33 124.56 327.46C129.37 327.39 174.38 326.74 178.11 326.44C178.17 326.44 178.23 326.44 178.29 326.44L178.26 326.43Z" fill="black"/>
<path d="M255.23 334.101C255.15 334.111 255.07 334.101 254.99 334.071C254.87 334.011 242.86 328.152 235.33 321.922C235.16 321.782 235.14 321.531 235.28 321.361C235.42 321.191 235.67 321.171 235.84 321.311C243.29 327.481 255.22 333.291 255.34 333.351C255.54 333.451 255.62 333.691 255.52 333.881C255.46 334.001 255.35 334.081 255.23 334.101Z" fill="black"/>
<path d="M237.24 341.131C237.17 341.141 237.1 341.131 237.03 341.111C227.01 337.291 221.09 331.231 221.03 331.171C220.88 331.011 220.88 330.761 221.03 330.611C221.19 330.461 221.44 330.461 221.59 330.611C221.65 330.671 227.45 336.601 237.3 340.351C237.51 340.431 237.61 340.661 237.53 340.871C237.48 341.011 237.36 341.101 237.23 341.121L237.24 341.131Z" fill="black"/>
<path d="M221.491 349.201C221.401 349.221 221.311 349.201 221.221 349.151C213.431 344.691 210.231 341.831 210.101 341.711C209.941 341.561 209.921 341.311 210.071 341.151C210.221 340.981 210.471 340.971 210.631 341.121C210.661 341.151 213.921 344.051 221.611 348.461C221.801 348.571 221.871 348.811 221.761 349.001C221.701 349.111 221.591 349.181 221.481 349.201H221.491Z" fill="black"/>
<path d="M230.021 308.73C229.931 308.75 229.831 308.73 229.741 308.67L224.741 305.51C224.551 305.39 224.501 305.15 224.621 304.96C224.741 304.77 224.981 304.72 225.171 304.84L230.171 308C230.361 308.12 230.411 308.36 230.291 308.55C230.231 308.65 230.131 308.71 230.021 308.73Z" fill="black"/>
<path d="M227.381 310.171C227.381 310.171 227.321 310.171 227.291 310.171C227.071 310.161 226.901 309.971 226.911 309.751L227.211 304.101C227.221 303.881 227.421 303.721 227.631 303.721C227.851 303.731 228.021 303.921 228.011 304.141L227.711 309.791C227.701 309.981 227.561 310.131 227.381 310.161V310.171Z" fill="black"/>
<path d="M216.851 319.322C216.761 319.342 216.661 319.322 216.571 319.262L211.571 316.102C211.381 315.982 211.331 315.742 211.451 315.552C211.571 315.362 211.811 315.312 212.001 315.432L217.001 318.592C217.191 318.712 217.241 318.952 217.121 319.142C217.061 319.242 216.961 319.302 216.851 319.322Z" fill="black"/>
<path d="M214.22 320.751C214.22 320.751 214.16 320.751 214.13 320.751C213.91 320.741 213.74 320.551 213.75 320.331L214.05 314.681C214.06 314.461 214.26 314.291 214.47 314.301C214.69 314.311 214.86 314.501 214.85 314.721L214.55 320.371C214.54 320.561 214.4 320.711 214.22 320.741V320.751Z" fill="black"/>
<path d="M205.54 328.65C205.45 328.67 205.35 328.65 205.26 328.59L200.26 325.43C200.07 325.31 200.02 325.07 200.14 324.88C200.26 324.69 200.51 324.64 200.69 324.76L205.69 327.92C205.88 328.04 205.93 328.28 205.81 328.47C205.75 328.57 205.65 328.63 205.54 328.65Z" fill="black"/>
<path d="M202.91 330.091C202.91 330.091 202.85 330.091 202.82 330.091C202.6 330.081 202.43 329.891 202.44 329.671L202.74 324.021C202.75 323.801 202.94 323.641 203.16 323.641C203.38 323.651 203.55 323.841 203.54 324.061L203.24 329.711C203.23 329.901 203.09 330.051 202.91 330.081V330.091Z" fill="black"/>
<path d="M168.291 270.132C168.291 270.132 158.861 296.892 161.841 327.462L154.281 327.662C154.281 327.662 151.051 288.112 161.791 269.432L168.291 270.122V270.132Z" fill="black"/>
<path d="M166.84 305.331C165.94 300.171 161.04 296.721 155.88 297.611C150.72 298.511 147.27 303.411 148.16 308.571C149.06 313.731 153.96 317.181 159.12 316.291C164.28 315.391 167.73 310.491 166.84 305.331Z" fill="white"/>
<path d="M159.19 316.681C153.82 317.611 148.7 314.011 147.77 308.641C146.84 303.271 150.44 298.151 155.81 297.221C161.18 296.291 166.3 299.891 167.23 305.261C168.16 310.631 164.56 315.751 159.19 316.681ZM155.94 298.001C151.01 298.861 147.69 303.571 148.55 308.501C149.41 313.431 154.12 316.751 159.05 315.891C163.98 315.031 167.3 310.321 166.44 305.391C165.58 300.461 160.87 297.141 155.94 298.001Z" fill="black"/>
<path d="M150.371 306.741L157.501 306.951L156.241 303.961" fill="white"/>
<path d="M157.571 307.342C157.571 307.342 157.521 307.342 157.491 307.342L150.361 307.132C150.141 307.132 149.971 306.942 149.971 306.722C149.971 306.502 150.171 306.332 150.381 306.332L156.891 306.522L155.871 304.102C155.781 303.902 155.871 303.662 156.081 303.582C156.301 303.492 156.521 303.582 156.601 303.792L157.861 306.782C157.911 306.912 157.901 307.052 157.821 307.162C157.761 307.252 157.661 307.312 157.561 307.332L157.571 307.342Z" fill="black"/>
<path d="M193.911 58.4902C193.761 60.5902 196.311 63.3002 196.611 64.9502C196.911 66.6002 193.911 68.5602 193.911 68.5602" fill="white"/>
<path d="M193.91 69.3998C193.63 69.3998 193.36 69.2598 193.2 69.0098C192.94 68.6198 193.06 68.0898 193.45 67.8398C194.51 67.1498 195.91 65.8098 195.78 65.0998C195.68 64.5698 195.19 63.7398 194.72 62.9298C193.89 61.5298 192.96 59.9298 193.07 58.4298C193.1 57.9598 193.52 57.5998 193.98 57.6398C194.45 57.6698 194.8 58.0798 194.77 58.5498C194.7 59.5298 195.49 60.8798 196.19 62.0698C196.77 63.0498 197.31 63.9698 197.46 64.7998C197.84 66.8998 194.96 68.8898 194.38 69.2698C194.24 69.3598 194.08 69.4098 193.92 69.4098L193.91 69.3998Z" fill="black"/>
<path d="M121.041 98.9612H36.0406C32.4806 98.9612 29.6406 96.0812 29.6406 92.5612V48.6012C29.6406 45.0412 32.5206 42.2012 36.0406 42.2012H121.041C124.601 42.2012 127.441 45.0812 127.441 48.6012V92.5612C127.481 96.0812 124.611 98.9612 121.041 98.9612Z" fill="#CCD7F2"/>
<path d="M55.8102 83.5508H40.4102V93.6808H55.8102V83.5508Z" fill="#4257FF"/>
<path d="M77.7604 75.2402H62.3604V93.5102H77.7604V75.2402Z" fill="#4257FF"/>
<path d="M98.9205 64.4121H83.5205V93.5121H98.9205V64.4121Z" fill="#4257FF"/>
<path d="M120.131 53.3711H104.721V93.5111H120.131V53.3711Z" fill="#4257FF"/>
<path d="M38.6904 79.9315C37.9004 79.9315 37.1304 79.4815 36.7804 78.7115C36.2904 77.6615 36.7604 76.4115 37.8104 75.9215L89.9904 51.9015C91.0404 51.4115 92.2904 51.8815 92.7804 52.9315C93.2704 53.9815 92.8004 55.2315 91.7504 55.7215L39.5704 79.7415C39.2904 79.8715 38.9904 79.9315 38.6904 79.9315Z" fill="#4257FF"/>
<path d="M91.2106 61.9208C90.9406 61.9208 90.6606 61.8708 90.4006 61.7608C89.3306 61.3108 88.8306 60.0808 89.2806 59.0108L91.5206 53.6708L85.8706 52.5708C84.7306 52.3508 83.9906 51.2408 84.2106 50.1108C84.4306 48.9708 85.5406 48.2308 86.6706 48.4508L94.8506 50.0508C95.4706 50.1708 96.0006 50.5708 96.3006 51.1208C96.6006 51.6808 96.6306 52.3408 96.3806 52.9208L93.1406 60.6408C92.8006 61.4408 92.0206 61.9308 91.2006 61.9308L91.2106 61.9208Z" fill="#4257FF"/>
<path d="M233.85 72.5013L252.66 67.0313C255.41 69.6013 258.67 71.6713 262.38 73.0413C278.24 78.8913 296.16 69.9113 302.41 52.9713C308.66 36.0313 300.87 17.5613 285.01 11.7113C269.15 5.86126 251.23 14.8413 244.98 31.7813C242.4 38.7713 242.22 46.0213 244 52.5313L233.84 72.5013H233.85Z" fill="white"/>
<path d="M272.39 75.6703C268.87 75.6703 265.41 75.0503 262.1 73.8303C258.53 72.5103 255.29 70.5403 252.45 67.9703L234.1 73.3103C233.78 73.4103 233.43 73.3003 233.21 73.0403C232.99 72.7803 232.95 72.4203 233.11 72.1103L243.12 52.4303C241.31 45.5503 241.68 38.3203 244.21 31.4803C249.16 18.0703 261.55 9.07031 275.04 9.07031C278.56 9.07031 282.02 9.69031 285.33 10.9103C301.6 16.9103 309.63 35.9103 303.23 53.2603C298.28 66.6703 285.89 75.6703 272.4 75.6703H272.39ZM252.67 66.1803C252.88 66.1803 253.09 66.2603 253.25 66.4103C256.01 68.9803 259.18 70.9503 262.69 72.2403C265.81 73.3903 269.07 73.9803 272.39 73.9803C285.17 73.9803 296.92 65.4203 301.62 52.6803C307.7 36.2103 300.12 18.1903 284.73 12.5103C281.61 11.3603 278.35 10.7803 275.03 10.7803C262.25 10.7803 250.5 19.3403 245.8 32.0803C243.36 38.6903 243.03 45.6903 244.84 52.3203C244.9 52.5203 244.87 52.7403 244.78 52.9303L235.51 71.1603L252.44 66.2403C252.52 66.2203 252.6 66.2103 252.68 66.2103L252.67 66.1803Z" fill="#2B2B2B"/>
<path d="M265.02 42.65C265.02 39.94 262.83 37.75 260.12 37.75C257.41 37.75 255.22 39.94 255.22 42.65C255.22 45.36 257.41 47.55 260.12 47.55C262.83 47.55 265.02 45.36 265.02 42.65Z" fill="black"/>
<path d="M274.82 47.55C277.526 47.55 279.72 45.3562 279.72 42.65C279.72 39.9438 277.526 37.75 274.82 37.75C272.114 37.75 269.92 39.9438 269.92 42.65C269.92 45.3562 272.114 47.55 274.82 47.55Z" fill="black"/>
<path d="M289.53 47.55C292.236 47.55 294.43 45.3562 294.43 42.65C294.43 39.9438 292.236 37.75 289.53 37.75C286.824 37.75 284.63 39.9438 284.63 42.65C284.63 45.3562 286.824 47.55 289.53 47.55Z" fill="black"/>
<path d="M15.1299 213.49V374.72H117.23L15.1299 213.49ZM31.2999 356.63V271.99L83.7099 356.63H31.2999Z" fill="#A1C3FF"/>
<path d="M117.23 375.57H15.1303C14.6603 375.57 14.2803 375.19 14.2803 374.72V213.49C14.2803 213.11 14.5303 212.78 14.8903 212.68C15.2503 212.57 15.6403 212.72 15.8403 213.04L117.94 374.27C118.11 374.53 118.12 374.86 117.97 375.13C117.82 375.4 117.54 375.57 117.23 375.57ZM15.9803 373.87H115.69L15.9803 216.42V373.87ZM83.7103 357.48H31.3003C30.8303 357.48 30.4503 357.1 30.4503 356.63V271.99C30.4503 271.61 30.7003 271.28 31.0703 271.17C31.4303 271.07 31.8203 271.22 32.0203 271.54L84.4303 356.18C84.5903 356.44 84.6003 356.77 84.4503 357.04C84.3003 357.31 84.0203 357.48 83.7103 357.48ZM32.1503 355.78H82.1903L32.1503 274.97V355.78Z" fill="black"/>
<path d="M25.2598 367.651V366.971H15.1398V367.651H25.2598Z" fill="black"/>
<path d="M25.68 366.551H14.71V368.081H25.68V366.551Z" fill="black"/>
<path d="M20.8896 364.809V364.129H15.1296V364.809H20.8896Z" fill="black"/>
<path d="M21.32 363.699H14.71V365.229H21.32V363.699Z" fill="black"/>
<path d="M20.8896 362.299V361.619H15.1296V362.299H20.8896Z" fill="black"/>
<path d="M21.32 361.189H14.71V362.719H21.32V361.189Z" fill="black"/>
<path d="M20.8896 359.741V359.061H15.1296V359.741H20.8896Z" fill="black"/>
<path d="M21.32 358.641H14.71V360.171H21.32V358.641Z" fill="black"/>
<path d="M20.8896 357.28V356.6H15.1296V357.28H20.8896Z" fill="black"/>
<path d="M21.32 356.17H14.71V357.7H21.32V356.17Z" fill="black"/>
<path d="M25.25 354.471V353.791H15.13V354.471H25.25Z" fill="black"/>
<path d="M25.68 353.361H14.71V354.891H25.68V353.361Z" fill="black"/>
<path d="M20.8896 351.619V350.939H15.1296V351.619H20.8896Z" fill="black"/>
<path d="M21.32 350.51H14.71V352.04H21.32V350.51Z" fill="black"/>
<path d="M20.8896 349.11V348.43H15.1297V349.11H20.8896Z" fill="black"/>
<path d="M21.32 348H14.71V349.53H21.32V348Z" fill="black"/>
<path d="M20.8896 346.561V345.881H15.1296V346.561H20.8896Z" fill="black"/>
<path d="M21.32 345.451H14.71V346.981H21.32V345.451Z" fill="black"/>
<path d="M20.8896 344.09V343.41H15.1296V344.09H20.8896Z" fill="black"/>
<path d="M21.32 342.98H14.71V344.51H21.32V342.98Z" fill="black"/>
<path d="M25.25 341.621V340.941H15.13V341.621H25.25Z" fill="black"/>
<path d="M25.68 340.521H14.71V342.051H25.68V340.521Z" fill="black"/>
<path d="M20.8896 338.77V338.09H15.1296V338.77H20.8896Z" fill="black"/>
<path d="M21.32 337.67H14.71V339.2H21.32V337.67Z" fill="black"/>
<path d="M20.8896 336.26V335.58H15.1297V336.26H20.8896Z" fill="black"/>
<path d="M21.32 335.16H14.71V336.69H21.32V335.16Z" fill="black"/>
<path d="M20.8896 333.711V333.031H15.1296V333.711H20.8896Z" fill="black"/>
<path d="M21.32 332.602H14.71V334.132H21.32V332.602Z" fill="black"/>
<path d="M20.8896 331.241V330.561H15.1296V331.241H20.8896Z" fill="black"/>
<path d="M21.32 330.141H14.71V331.671H21.32V330.141Z" fill="black"/>
<path d="M25.2598 328.432V327.752H15.1398V328.432H25.2598Z" fill="black"/>
<path d="M25.68 327.332H14.71V328.862H25.68V327.332Z" fill="black"/>
<path d="M20.8896 325.58V324.9H15.1296V325.58H20.8896Z" fill="black"/>
<path d="M21.32 324.48H14.71V326.01H21.32V324.48Z" fill="black"/>
<path d="M20.8799 323.071V322.391H15.1199V323.071H20.8799Z" fill="black"/>
<path d="M21.32 321.971H14.71V323.501H21.32V321.971Z" fill="black"/>
<path d="M20.8896 320.522V319.842H15.1296V320.522H20.8896Z" fill="black"/>
<path d="M21.32 319.422H14.71V320.952H21.32V319.422Z" fill="black"/>
<path d="M20.8799 318.061V317.381H15.1199V318.061H20.8799Z" fill="black"/>
<path d="M21.32 316.951H14.71V318.481H21.32V316.951Z" fill="black"/>
<path d="M25.25 315.461V314.781H15.13V315.461H25.25Z" fill="black"/>
<path d="M25.68 314.361H14.71V315.891H25.68V314.361Z" fill="black"/>
<path d="M20.8896 312.61V311.93H15.1297V312.61H20.8896Z" fill="black"/>
<path d="M21.32 311.51H14.71V313.04H21.32V311.51Z" fill="black"/>
<path d="M20.8896 310.1V309.42H15.1296V310.1H20.8896Z" fill="black"/>
<path d="M21.32 309H14.71V310.53H21.32V309Z" fill="black"/>
<path d="M20.8896 307.551V306.871H15.1296V307.551H20.8896Z" fill="black"/>
<path d="M21.32 306.441H14.71V307.971H21.32V306.441Z" fill="black"/>
<path d="M20.8896 305.08V304.4H15.1296V305.08H20.8896Z" fill="black"/>
<path d="M21.32 303.98H14.71V305.51H21.32V303.98Z" fill="black"/>
<path d="M25.2598 302.272V301.592H15.1398V302.272H25.2598Z" fill="black"/>
<path d="M25.68 301.172H14.71V302.702H25.68V301.172Z" fill="black"/>
<path d="M20.8896 299.42V298.74H15.1297V299.42H20.8896Z" fill="black"/>
<path d="M21.32 298.32H14.71V299.85H21.32V298.32Z" fill="black"/>
<path d="M20.8896 296.91V296.23H15.1296V296.91H20.8896Z" fill="black"/>
<path d="M21.32 295.811H14.71V297.341H21.32V295.811Z" fill="black"/>
<path d="M20.8896 294.362V293.682H15.1297V294.362H20.8896Z" fill="black"/>
<path d="M21.32 293.262H14.71V294.792H21.32V293.262Z" fill="black"/>
<path d="M20.8896 291.891V291.211H15.1297V291.891H20.8896Z" fill="black"/>
<path d="M21.32 290.791H14.71V292.321H21.32V290.791Z" fill="black"/>
<path d="M25.2598 289.42V288.74H15.1397V289.42H25.2598Z" fill="black"/>
<path d="M25.68 288.32H14.71V289.85H25.68V288.32Z" fill="black"/>
<path d="M20.8896 286.578V285.898H15.1296V286.578H20.8896Z" fill="black"/>
<path d="M21.32 285.469H14.71V286.999H21.32V285.469Z" fill="black"/>
<path d="M20.8896 284.069V283.389H15.1297V284.069H20.8896Z" fill="black"/>
<path d="M21.32 282.959H14.71V284.489H21.32V282.959Z" fill="black"/>
<path d="M20.8896 281.51V280.83H15.1297V281.51H20.8896Z" fill="black"/>
<path d="M21.32 280.41H14.71V281.94H21.32V280.41Z" fill="black"/>
<path d="M20.8896 279.049V278.369H15.1296V279.049H20.8896Z" fill="black"/>
<path d="M21.32 277.939H14.71V279.469H21.32V277.939Z" fill="black"/>
<path d="M25.25 276.241V275.561H15.13V276.241H25.25Z" fill="black"/>
<path d="M25.68 275.131H14.71V276.661H25.68V275.131Z" fill="black"/>
<path d="M20.8896 273.389V272.709H15.1297V273.389H20.8896Z" fill="black"/>
<path d="M21.32 272.279H14.71V273.809H21.32V272.279Z" fill="black"/>
<path d="M20.8896 270.879V270.199H15.1296V270.879H20.8896Z" fill="black"/>
<path d="M21.32 269.77H14.71V271.3H21.32V269.77Z" fill="black"/>
<path d="M20.8896 268.33V267.65H15.1296V268.33H20.8896Z" fill="black"/>
<path d="M21.32 267.221H14.71V268.751H21.32V267.221Z" fill="black"/>
<path d="M20.8896 265.86V265.18H15.1297V265.86H20.8896Z" fill="black"/>
<path d="M21.32 264.75H14.71V266.28H21.32V264.75Z" fill="black"/>
<path d="M25.25 262.371V261.691H15.13V262.371H25.25Z" fill="black"/>
<path d="M25.68 261.271H14.71V262.801H25.68V261.271Z" fill="black"/>
<path d="M20.8896 259.52V258.84H15.1296V259.52H20.8896Z" fill="black"/>
<path d="M21.32 258.42H14.71V259.95H21.32V258.42Z" fill="black"/>
<path d="M20.8896 257.01V256.33H15.1297V257.01H20.8896Z" fill="black"/>
<path d="M21.32 255.91H14.71V257.44H21.32V255.91Z" fill="black"/>
<path d="M20.8896 254.461V253.781H15.1297V254.461H20.8896Z" fill="black"/>
<path d="M21.32 253.352H14.71V254.882H21.32V253.352Z" fill="black"/>
<path d="M20.8896 251.991V251.311H15.1297V251.991H20.8896Z" fill="black"/>
<path d="M21.32 250.891H14.71V252.421H21.32V250.891Z" fill="black"/>
<path d="M25.2598 249.182V248.502H15.1398V249.182H25.2598Z" fill="black"/>
<path d="M25.68 248.082H14.71V249.612H25.68V248.082Z" fill="black"/>
<path d="M20.8896 246.33V245.65H15.1297V246.33H20.8896Z" fill="black"/>
<path d="M21.32 245.23H14.71V246.76H21.32V245.23Z" fill="black"/>
<path d="M20.8896 243.821V243.141H15.1297V243.821H20.8896Z" fill="black"/>
<path d="M21.32 242.721H14.71V244.251H21.32V242.721Z" fill="black"/>
<path d="M20.8896 241.272V240.592H15.1297V241.272H20.8896Z" fill="black"/>
<path d="M21.32 240.172H14.71V241.702H21.32V240.172Z" fill="black"/>
<path d="M20.8896 238.801V238.121H15.1297V238.801H20.8896Z" fill="black"/>
<path d="M21.32 237.701H14.71V239.231H21.32V237.701Z" fill="black"/>
</svg>
