<svg width="438" height="361" viewBox="0 0 438 361" fill="none" xmlns="http://www.w3.org/2000/svg">
<path d="M156.38 21.2607C162.71 15.3807 170.099 11.2307 178.549 9.62065C188.879 7.65065 199.869 8.96065 209.549 14.0407C219.589 19.3107 226.719 29.8607 236.899 34.8907C247.129 39.9507 258.65 38.6807 269.6 37.3207C283.94 35.5407 298.449 34.2407 312.709 32.1407C325.879 30.2007 339.29 27.1207 351.87 34.5907C373.48 47.4407 379.22 81.0006 376.31 106.381C373.74 128.751 365.58 149.511 357.9 170.111C350.22 190.711 342.81 212.031 341.9 234.611C340.93 258.421 347.079 283.801 338.649 305.361C332.529 321.001 319.499 331.651 305.579 337.141C291.659 342.631 276.719 343.631 261.999 344.571C249.449 345.381 236.9 346.181 224.35 346.991C204.36 348.271 184.169 349.551 164.359 345.651C144.549 341.751 124.859 332.181 111.109 314.811C97.7495 297.931 91.0995 275.211 87.5995 252.681C85.1395 236.861 84.2295 219.651 90.8795 205.751C99.7095 187.301 119.829 178.931 127.519 159.781C135.319 140.351 127.689 117.341 128.189 95.7506C128.799 69.3106 138.24 38.1507 156.41 21.2707L156.38 21.2607Z" fill="#4257FF"/>
<path d="M330.91 101.31L337.3 99.2795L330.91 97.0995C329 96.5995 327.53 95.0595 327.13 93.1195L325.1 83.5195L322.92 92.9095C322.46 94.8895 320.9 96.4195 318.91 96.8395L312.89 98.9095L318.7 100.96C320.73 101.43 322.29 103.07 322.66 105.12L324.34 114.4L326.79 105.11C327.31 103.14 328.92 101.66 330.92 101.3L330.91 101.31Z" fill="white"/>
<path d="M363.34 197.8C367.58 192.64 385.98 200.85 401.6 201.9C417.22 202.96 424.77 205.471 424.77 210.241C424.77 215.011 408.22 220.3 408.22 220.3L380.82 211.961L363.34 197.79V197.8Z" fill="#333333"/>
<path d="M386.53 174.421C386.53 174.421 386.47 174.401 386.44 174.391C386.11 174.261 385.95 173.881 386.09 173.541C395.82 149.861 375.47 138.871 374.6 138.411C374.28 138.241 374.16 137.851 374.33 137.531C374.5 137.211 374.9 137.091 375.2 137.261C375.42 137.381 397.47 149.241 387.29 174.031C387.17 174.331 386.84 174.491 386.54 174.411L386.53 174.421Z" fill="#333333"/>
<path d="M420.309 136.361C420.249 136.361 420.179 136.341 420.119 136.321C419.829 136.211 391.379 124.871 380.739 121.761C380.399 121.661 380.199 121.301 380.299 120.951C380.399 120.611 380.749 120.421 381.099 120.511C391.799 123.631 420.299 134.991 420.589 135.111C420.919 135.241 421.079 135.621 420.949 135.951C420.839 136.221 420.569 136.381 420.299 136.361H420.309Z" fill="#333333"/>
<path d="M417.19 184.539C419.32 178.139 430.59 143.649 430.14 133.259C429.81 125.579 405.98 118.989 390.28 115.479C393.12 106.089 396.32 94.9795 398.03 87.3695L401.43 72.2495C402.37 68.0595 399.74 63.8995 395.55 62.9595C391.34 61.9895 387.2 64.6495 386.26 68.8395L382.86 83.9595C380.99 92.2595 377.11 105.419 374.08 115.289C372.01 117.309 368.99 120.379 365.96 123.939C363.8 115.229 361.38 107.319 359.1 103.729C356.79 100.109 351.99 99.0395 348.37 101.349C344.75 103.659 343.68 108.459 345.99 112.079C347.98 115.199 351.5 129.299 354.54 144.209C351.23 158.829 357.65 171.929 360.65 176.979C361.36 193.919 361.78 211.27 361.88 227.77C370.12 235.69 383.5 239.089 394.25 240.229C402.29 240.769 410.23 241.109 418.15 241.309C418.15 239.679 418.16 238.03 418.16 236.35C418.16 217.44 417.7 199.139 417.19 184.529V184.539Z" fill="white"/>
<path d="M418.15 242.62H418.13C409.83 242.62 402 241.83 394.19 241.31C385.9 240.44 370.66 237.52 361.29 228.5C361.13 228.34 361.03 228.07 361.03 227.84C360.93 211.49 360.51 193.99 359.81 177.27C356.78 172.1 350.42 158.94 353.67 144.23C350.28 127.68 346.99 115.25 345.27 112.56C342.72 108.55 343.9 103.2 347.91 100.65C349.3 99.7699 350.9 99.2999 352.53 99.2999C355.5 99.2999 358.22 100.79 359.81 103.29C361.76 106.35 363.97 112.7 366.38 122.17C369.02 119.16 371.55 116.59 373.33 114.85C376.29 105.2 380.17 92.0499 382.03 83.7799L385.43 68.6599C386.32 64.6899 389.76 61.9199 393.8 61.9199C394.45 61.9199 395.1 61.9899 395.74 62.1399C400.37 63.1799 403.3 67.7999 402.25 72.4399L398.85 87.5599C397.45 93.7699 394.93 102.95 391.35 114.85C417.38 120.74 430.71 126.92 430.98 133.22C431.43 143.66 420.39 177.56 418.04 184.66C418.67 202.94 419 220.33 419 236.35C419 238.03 419 239.68 418.99 241.31C418.99 241.54 418.9 241.98 418.73 242.14C418.57 242.29 418.36 242.61 418.14 242.61L418.15 242.62ZM362.72 227.41C371.75 235.88 386.37 238.55 394.33 239.39C401.81 239.89 409.34 240.23 417.3 240.44C417.3 239.09 417.3 237.73 417.3 236.35C417.3 220.3 416.97 202.88 416.33 184.56C416.33 184.46 416.34 184.36 416.37 184.26C418.6 177.54 429.72 143.5 429.28 133.28C429.05 128.01 414.76 121.82 390.08 116.29C389.85 116.24 389.65 116.09 389.53 115.89C389.41 115.69 389.38 115.44 389.45 115.22C393.11 103.11 395.78 93.4099 397.19 87.1699L400.59 72.0499C401.43 68.3199 399.08 64.6099 395.36 63.7699C394.84 63.6499 394.32 63.5899 393.8 63.5899C390.56 63.5899 387.8 65.8199 387.09 68.9999L383.69 84.1199C381.81 92.4899 377.86 105.82 374.89 115.52C374.85 115.66 374.77 115.78 374.67 115.88C372.67 117.82 369.65 120.89 366.6 124.48C366.39 124.72 366.07 124.83 365.76 124.76C365.45 124.69 365.21 124.45 365.13 124.14C362.6 113.96 360.33 107.25 358.38 104.18C357.1 102.17 354.91 100.98 352.53 100.98C351.22 100.98 349.93 101.35 348.82 102.06C345.6 104.11 344.65 108.4 346.7 111.62C348.92 115.1 352.63 130.65 355.37 144.04C355.39 144.16 355.39 144.28 355.37 144.4C352.12 158.76 358.49 171.67 361.38 176.55C361.45 176.67 361.49 176.81 361.5 176.95C362.2 193.63 362.63 211.07 362.73 227.41H362.72Z" fill="#333333"/>
<path d="M402.409 105.8C405.599 106.89 407.799 109.46 408.439 112.28C410.569 110.65 413.639 110.1 416.639 111.13C420.029 112.29 422.369 115.1 422.829 118.14C422.899 118.57 422.899 119.01 422.879 119.45C424.789 117.76 427.719 117.14 430.589 118.12C433.629 119.16 435.719 121.68 436.139 124.4C436.279 125.35 436.219 126.33 435.919 127.28L429.409 147.76C428.249 151.41 423.979 153.23 419.869 151.82C416.989 150.83 414.979 148.51 414.429 145.95C412.489 148.8 408.529 150.05 404.679 148.73C401.489 147.64 399.279 145.09 398.629 142.26C396.499 143.88 393.439 144.42 390.449 143.39C386.979 142.2 384.749 139.27 384.369 136.16C385.929 126.02 388.689 118.82 392.989 105.99C394.819 105.32 400.289 105.08 402.409 105.8Z" fill="white"/>
<path d="M422.68 153.15C421.64 153.15 420.6 152.97 419.59 152.63C417.08 151.77 415.08 149.93 414.09 147.66C412.49 149.21 410.23 150.1 407.79 150.1C406.65 150.1 405.51 149.91 404.4 149.53C401.47 148.52 399.16 146.3 398.14 143.59C395.83 144.88 392.87 145.12 390.17 144.19C386.56 142.95 383.95 139.84 383.52 136.25C383.52 136.17 383.52 136.1 383.52 136.02C384.87 127.26 387.08 120.74 390.43 110.88C390.98 109.25 391.56 107.54 392.18 105.71C392.26 105.46 392.45 105.27 392.69 105.18C393.98 104.71 396.5 104.5 398.42 104.5C399.48 104.5 401.43 104.56 402.67 104.99C405.59 105.99 407.9 108.22 408.91 110.94C411.22 109.64 414.2 109.4 416.9 110.33C420.43 111.54 423.06 114.49 423.63 117.87C425.71 116.7 428.39 116.47 430.85 117.32C434.09 118.43 436.49 121.16 436.96 124.28C437.13 125.39 437.05 126.49 436.71 127.55L430.2 148.03C429.22 151.1 426.19 153.16 422.67 153.16L422.68 153.15ZM414.43 145.1C414.48 145.1 414.54 145.1 414.59 145.12C414.92 145.18 415.19 145.44 415.26 145.77C415.77 148.15 417.65 150.16 420.15 151.02C420.98 151.31 421.83 151.45 422.69 151.45C425.52 151.45 427.84 149.9 428.61 147.5L435.12 127.02C435.37 126.22 435.44 125.38 435.31 124.52C434.93 122.02 432.98 119.82 430.33 118.92C427.88 118.08 425.19 118.54 423.46 120.08C423.21 120.3 422.84 120.36 422.54 120.21C422.23 120.07 422.04 119.75 422.05 119.42C422.06 119.04 422.06 118.64 422.01 118.26C421.58 115.44 419.37 112.96 416.38 111.93C413.79 111.04 410.93 111.44 408.97 112.95C408.74 113.13 408.44 113.17 408.17 113.07C407.9 112.97 407.69 112.74 407.63 112.46C407.02 109.79 404.93 107.54 402.16 106.59C401.43 106.34 400.08 106.19 398.46 106.19C396.64 106.19 394.74 106.38 393.68 106.65C393.12 108.33 392.58 109.91 392.07 111.42C388.77 121.15 386.58 127.6 385.25 136.16C385.65 139.05 387.79 141.57 390.75 142.58C393.33 143.47 396.18 143.07 398.14 141.58C398.37 141.41 398.67 141.36 398.94 141.46C399.21 141.56 399.41 141.79 399.48 142.07C400.08 144.72 402.19 146.97 404.97 147.92C405.9 148.24 406.86 148.4 407.81 148.4C410.28 148.4 412.49 147.3 413.74 145.47C413.9 145.23 414.16 145.1 414.44 145.1H414.43Z" fill="#333333"/>
<path d="M398.909 142.46C398.839 142.56 398.689 142.6 398.549 142.56C398.369 142.51 398.259 142.33 398.299 142.17L402.809 125.67C402.849 125.51 403.029 125.43 403.209 125.48C403.389 125.53 403.499 125.71 403.459 125.87L398.949 142.37C398.949 142.37 398.919 142.43 398.899 142.46H398.909Z" fill="#333333"/>
<path d="M416.96 139.681C416.89 139.781 416.75 139.821 416.61 139.781C416.43 139.731 416.32 139.551 416.36 139.401L421.24 120.631C421.28 120.471 421.46 120.381 421.64 120.441C421.82 120.491 421.93 120.671 421.89 120.821L417.01 139.591C417.01 139.591 416.99 139.661 416.96 139.681Z" fill="#333333"/>
<path d="M414.7 146.14C414.63 146.23 414.5 146.28 414.36 146.24C414.18 146.19 414.06 146.03 414.09 145.86L414.63 143.18C414.67 143.02 414.84 142.92 415.02 142.97C415.2 143.02 415.32 143.18 415.29 143.35L414.75 146.03C414.75 146.03 414.72 146.11 414.7 146.14Z" fill="#333333"/>
<path d="M397.959 134.64C397.959 134.64 397.959 134.7 397.959 134.73L396.379 140.83C396.359 140.92 396.289 140.99 396.189 141.03C396.039 141.08 392.559 142.28 388.699 140.38C388.529 140.29 388.449 140.1 388.529 139.95C388.609 139.8 388.809 139.74 388.979 139.83C392.109 141.37 395.059 140.68 395.739 140.48L397.249 134.67C394.359 130.76 389.269 130.84 388.179 130.9L386.779 135.93C386.739 136.1 386.549 136.18 386.359 136.12C386.179 136.06 386.059 135.88 386.109 135.72L387.559 130.5C387.589 130.39 387.689 130.3 387.819 130.29C387.889 130.29 394.429 129.61 397.899 134.48C397.929 134.53 397.959 134.59 397.959 134.64Z" fill="#333333"/>
<path d="M413.38 139.349C413.38 139.349 413.38 139.409 413.38 139.439L411.8 145.539C411.78 145.629 411.71 145.699 411.61 145.739C411.46 145.789 407.98 146.989 404.12 145.089C403.95 144.999 403.87 144.809 403.95 144.659C404.03 144.509 404.23 144.449 404.4 144.539C407.53 146.079 410.48 145.389 411.16 145.189L412.67 139.379C409.78 135.469 404.69 135.549 403.6 135.609L402.2 140.639C402.16 140.809 401.97 140.889 401.78 140.829C401.6 140.769 401.48 140.589 401.53 140.429L402.98 135.209C403.01 135.099 403.11 135.009 403.24 134.999C403.31 134.999 409.85 134.319 413.32 139.189C413.35 139.239 413.38 139.299 413.38 139.349Z" fill="#333333"/>
<path d="M428.859 142.75C428.859 142.75 428.859 142.81 428.859 142.84L427.359 148.61C427.339 148.7 427.269 148.77 427.179 148.8C427.039 148.85 423.739 149.99 420.079 148.19C419.919 148.11 419.849 147.92 419.919 147.78C419.989 147.63 420.189 147.58 420.349 147.66C423.319 149.12 426.109 148.47 426.759 148.28L428.189 142.78C425.449 139.08 420.629 139.15 419.599 139.21L418.279 143.97C418.239 144.13 418.059 144.21 417.889 144.15C417.709 144.1 417.609 143.92 417.649 143.77L419.019 138.82C419.049 138.71 419.139 138.63 419.269 138.62C419.329 138.62 425.529 137.98 428.819 142.59C428.849 142.64 428.869 142.69 428.879 142.75H428.859Z" fill="#333333"/>
<path d="M374.32 137.539C374.32 137.539 391.82 146.759 393.95 166.699Z" fill="white"/>
<path d="M393.95 167.55C393.52 167.55 393.15 167.23 393.11 166.79C391.05 147.52 374.1 138.38 373.93 138.29C373.52 138.07 373.36 137.56 373.57 137.14C373.79 136.73 374.3 136.57 374.72 136.78C374.9 136.87 392.64 146.45 394.8 166.6C394.85 167.07 394.51 167.48 394.05 167.53C394.02 167.53 393.99 167.53 393.96 167.53L393.95 167.55Z" fill="#333333"/>
<path d="M40.4395 210.239C41.2295 202.429 59.3695 206.399 71.8195 203.619C84.2595 200.839 99.6195 199.779 99.6195 199.779L60.9595 220.169L40.4395 210.239Z" fill="#333333"/>
<path d="M101.739 217.66L99.8894 208.52L94.7294 182.7L90.3594 160.99L89.4294 156.49C89.4294 156.49 86.3794 147.22 79.8994 143.25C73.5494 139.15 62.1594 136.37 59.5094 134.25C56.8594 132.13 48.5194 121.41 45.2094 120.22C41.8994 119.03 36.2094 119.56 36.8694 127.24C37.5294 134.92 46.1394 146.17 46.1394 146.17C46.1394 146.17 27.3394 141.27 24.4294 139.15C21.5194 137.16 15.0294 122.2 8.27939 122.73C1.65939 123.26 1.52939 131.86 3.37939 135.04C3.50939 135.3 3.11939 135.83 3.11939 135.83C3.11939 135.83 1.12939 137.95 0.869387 143.77C0.609387 149.6 5.49939 160.58 5.49939 160.58C5.49939 160.58 7.87939 168.66 9.46939 172.5C9.46939 172.5 14.2394 193.55 25.8894 198.05C31.5794 200.3 39.3894 201.76 46.5394 202.55L55.6794 236.84L101.749 217.64L101.739 217.66Z" fill="white"/>
<path d="M55.6699 237.699C55.5399 237.699 55.4099 237.669 55.2899 237.609C55.0699 237.499 54.9099 237.299 54.8399 237.069L45.8499 203.339C37.6999 202.399 30.5099 200.809 25.5599 198.849C13.8599 194.329 9.00985 174.349 8.63985 172.769C7.09985 169.029 4.90985 161.649 4.67985 160.889C4.26985 159.959 -0.270146 149.559 -0.000145989 143.739C0.259854 138.089 2.10985 135.689 2.42985 135.309C2.44985 135.279 2.46985 135.249 2.48985 135.219C1.28985 132.939 0.969854 128.679 2.59985 125.559C3.74985 123.359 5.68985 122.089 8.19985 121.879C13.2999 121.479 17.7499 128.259 21.3099 133.669C22.7399 135.839 24.0999 137.899 24.8999 138.439C26.9199 139.909 37.8799 143.059 44.0499 144.729C41.5399 141.129 36.5299 133.269 36.0199 127.299C35.7699 124.439 36.3299 122.249 37.6899 120.769C38.8299 119.529 40.4699 118.869 42.4299 118.869C43.4599 118.869 44.5199 119.059 45.4899 119.409C47.7899 120.239 51.8699 124.779 55.4599 128.779C57.3399 130.869 59.1099 132.839 60.0299 133.579C61.0999 134.439 64.1299 135.559 67.3299 136.739C71.7399 138.369 76.7499 140.209 80.3499 142.539C87.0099 146.619 90.0999 155.839 90.2299 156.229C90.2399 156.259 90.2499 156.289 90.2499 156.319L91.1799 160.819L102.57 217.479C102.65 217.879 102.44 218.279 102.06 218.429L55.9899 237.629C55.8899 237.669 55.7699 237.699 55.6599 237.699H55.6699ZM8.61985 123.569C8.51985 123.569 8.42985 123.569 8.32985 123.579C6.40985 123.729 4.97985 124.669 4.09985 126.349C2.75985 128.919 3.01985 132.769 4.09985 134.619C4.45985 135.329 3.99985 136.069 3.77985 136.349C3.75985 136.369 3.73985 136.399 3.71985 136.419C3.70985 136.429 1.93985 138.459 1.69985 143.819C1.44985 149.379 6.20985 160.139 6.25985 160.249C6.26985 160.279 6.28985 160.319 6.29985 160.359C6.31985 160.439 8.68985 168.439 10.2399 172.189C10.2599 172.229 10.2699 172.279 10.2799 172.329C10.3299 172.539 15.0799 192.989 26.1699 197.279C31.1199 199.229 38.3699 200.809 46.6099 201.729C46.9599 201.769 47.2499 202.019 47.3399 202.349L56.2299 235.699L100.76 217.149L99.0499 208.699L88.5999 156.719C88.3699 156.039 85.3599 147.609 79.4499 143.979C75.9899 141.749 70.8699 139.859 66.7499 138.339C63.1299 136.999 60.2599 135.949 58.9799 134.919C57.9599 134.099 56.2199 132.169 54.2099 129.929C51.0899 126.459 46.8199 121.699 44.9199 121.019C44.1399 120.739 43.2499 120.579 42.4299 120.579C41.3999 120.579 39.9599 120.809 38.9399 121.929C37.9199 123.039 37.5099 124.799 37.7099 127.159C38.3399 134.509 46.7199 145.539 46.8099 145.649C47.0299 145.939 47.0399 146.329 46.8399 146.639C46.6399 146.939 46.2699 147.079 45.9199 146.989C43.9799 146.479 26.8799 141.989 23.9199 139.839C22.8599 139.119 21.5499 137.129 19.8899 134.609C16.8199 129.949 12.6099 123.569 8.61985 123.569Z" fill="#333333"/>
<path d="M9.99023 174.228V174.098C10.5202 167.608 13.0402 164.168 17.1402 164.298C20.9802 164.428 24.4202 169.728 25.7502 175.018C27.0702 180.048 26.9402 181.108 26.9402 181.238C26.9402 181.368 26.8102 181.498 26.6802 181.368C26.5502 181.368 26.4202 181.238 26.5502 181.108C26.5502 181.108 26.6802 180.048 25.3602 175.278C24.0402 170.378 20.7302 165.088 17.1502 164.948C13.3102 164.818 11.0602 168.128 10.5302 174.218C10.5302 174.348 10.4002 174.478 10.2702 174.478C10.0002 174.348 10.0002 174.218 10.0002 174.218L9.99023 174.228Z" fill="#333333"/>
<path d="M26.7901 181.859C26.6901 181.859 26.6001 181.829 26.5101 181.779C26.3301 181.729 26.1801 181.599 26.1101 181.439C26.0501 181.289 26.0601 181.129 26.1301 180.979C26.1301 180.659 26.0301 179.299 24.9501 175.399C23.6601 170.639 20.4901 165.509 17.1401 165.379H16.9401C12.6401 165.379 11.3201 170.209 10.9601 174.259C10.9601 174.649 10.4701 175.059 10.0801 174.869C9.62008 174.639 9.58008 174.319 9.58008 174.229V174.099C10.1201 167.489 12.7301 163.879 16.9301 163.879H17.1701C21.3001 164.029 24.8301 169.549 26.1701 174.929C26.9901 178.029 27.4101 180.269 27.3801 181.239C27.3801 181.589 27.1201 181.859 26.8001 181.859H26.7901Z" fill="#363636"/>
<path d="M26.0099 178.198C25.8799 178.068 26.0099 177.938 26.1399 177.798C27.3299 177.008 36.3299 178.198 37.3899 178.328C37.5199 178.328 37.6499 178.458 37.6499 178.588C37.6499 178.718 37.5199 178.848 37.3899 178.848C33.5499 178.318 27.1999 177.788 26.3999 178.188C26.2699 178.318 26.1399 178.318 25.9999 178.188L26.0099 178.198Z" fill="#333333"/>
<path d="M37.3996 179.289C37.3996 179.289 37.3596 179.289 37.3396 179.289C34.4996 178.899 30.1796 178.489 27.8696 178.489C27.0296 178.489 26.7296 178.549 26.6396 178.569C26.4796 178.699 26.3296 178.729 26.2196 178.729C26.0896 178.729 25.9096 178.689 25.7196 178.509C25.5196 178.309 25.3896 177.979 25.8496 177.519C25.8696 177.499 25.8896 177.479 25.9196 177.469C26.1596 177.309 26.6396 177.129 28.2296 177.129C29.5596 177.129 32.2096 177.269 37.2696 177.909L37.4696 177.929C37.7796 177.929 38.0996 178.249 38.0996 178.619C38.0996 178.989 37.7796 179.309 37.4096 179.309L37.3996 179.289Z" fill="#363636"/>
<path d="M5.61936 160.458C5.48936 160.058 4.82936 152.118 7.73936 148.678C8.52936 147.748 9.58936 147.218 10.7894 147.088C17.2794 146.558 20.5894 152.518 20.9794 155.298C21.3794 158.078 25.2194 164.828 25.8794 165.888C27.8694 166.148 33.5594 166.678 34.0894 167.208C34.2194 167.338 34.2194 167.468 34.0894 167.608C33.9594 167.738 33.8294 167.738 33.6894 167.608C33.2894 167.348 29.1894 166.818 25.6094 166.418C25.5227 166.418 25.436 166.375 25.3494 166.288C25.2194 166.028 20.8494 158.478 20.3194 155.428C19.9194 152.778 16.8794 147.218 10.6594 147.618C9.59936 147.748 8.66936 148.148 8.00936 148.938C5.22936 152.248 6.01936 160.058 6.01936 160.188C6.01936 160.318 5.88936 160.448 5.75936 160.448C5.75936 160.535 5.71602 160.535 5.62936 160.448L5.61936 160.458Z" fill="#333333"/>
<path d="M33.8897 168.139C33.7797 168.139 33.6097 168.109 33.4497 167.969C33.0297 167.799 30.4597 167.389 25.5697 166.849C25.3297 166.849 25.2297 166.779 25.0497 166.599C25.0197 166.569 24.9897 166.529 24.9697 166.489C24.9497 166.459 24.8997 166.359 24.8097 166.189C21.9197 161.029 20.2197 157.339 19.9097 155.509C19.5497 153.079 16.7197 147.659 10.6897 148.049C9.66971 148.179 8.88971 148.559 8.33971 149.219C6.00971 151.999 6.29971 158.229 6.43971 160.079C6.43971 160.149 6.43971 160.189 6.43971 160.199C6.43971 160.439 6.29971 160.669 6.09971 160.789C5.97971 160.979 5.76971 160.989 5.73971 160.989C5.54971 160.989 5.43971 160.879 5.31971 160.769C5.26971 160.719 5.23971 160.669 5.21971 160.609C5.07971 160.199 4.36971 152.019 7.41971 148.419C8.26971 147.429 9.41971 146.829 10.7397 146.679C11.0397 146.659 11.3197 146.639 11.5897 146.639C17.6597 146.639 20.9697 152.239 21.3997 155.249C21.7497 157.729 25.0997 163.809 26.1297 165.509C26.5297 165.559 27.0497 165.619 27.6297 165.689C31.9397 166.189 33.9397 166.489 34.3897 166.929C34.6897 167.229 34.6897 167.629 34.3897 167.929C34.2097 168.119 34.0197 168.149 33.8897 168.149V168.139Z" fill="#363636"/>
<path d="M4.17006 135.568C4.04006 135.438 4.17006 135.308 4.30006 135.168C5.89006 134.238 8.40006 134.108 10.9201 134.908C13.9701 135.968 16.3501 138.218 17.4101 140.998C19.5301 146.298 21.3801 148.678 21.7801 149.208L31.0501 150.928C31.1801 150.928 31.3101 151.058 31.3101 151.188C31.3101 151.318 31.1801 151.448 31.0501 151.448L21.6501 149.728C21.6501 149.728 21.5201 149.728 21.5201 149.598C21.3901 149.468 19.4001 147.218 17.0201 141.258C15.9601 138.478 13.7101 136.358 10.8001 135.428C8.55006 134.638 6.17006 134.768 4.71006 135.558C4.44006 135.688 4.31006 135.558 4.18006 135.558L4.17006 135.568Z" fill="#333333"/>
<path d="M31.0402 151.889C31.0402 151.889 30.9902 151.889 30.9602 151.889L21.5602 150.169C21.4002 150.159 21.1902 150.049 21.1102 149.819C20.6902 149.329 18.8302 146.989 16.6102 141.439C15.5902 138.769 13.4202 136.739 10.6502 135.859C8.63018 135.149 6.27018 135.209 4.89018 135.959C4.59018 136.109 4.30018 136.059 4.16018 136.019C4.02018 136.019 3.90018 135.949 3.83018 135.849C3.65018 135.649 3.56018 135.329 3.99018 134.889C4.02018 134.859 4.05018 134.839 4.08018 134.819C5.77018 133.829 8.49018 133.709 11.0402 134.519C14.2202 135.629 16.6802 137.939 17.8002 140.859C18.7202 143.149 20.1902 146.379 22.0102 148.829L31.1102 150.519C31.4002 150.519 31.7202 150.829 31.7202 151.199C31.7202 151.569 31.4002 151.889 31.0302 151.889H31.0402Z" fill="#363636"/>
<path d="M46.6691 180.189C46.5391 180.059 46.6691 179.789 46.7991 179.789C53.2891 176.879 60.9691 178.859 66.1291 180.979C71.8191 183.229 75.9291 186.279 76.0591 186.279C76.1891 186.409 76.1891 186.539 76.0591 186.679C75.9291 186.809 75.7991 186.809 75.6591 186.679C75.5291 186.549 59.1091 174.899 46.9291 180.189C46.9291 180.319 46.7991 180.319 46.6691 180.189Z" fill="#333333"/>
<path d="M75.8594 187.2C75.7294 187.2 75.5494 187.16 75.3594 186.98C75.2894 186.93 64.5094 179.24 53.9994 179.24C51.5394 179.24 49.2694 179.67 47.2594 180.52C47.0794 180.77 46.6594 180.79 46.3694 180.5C46.1894 180.32 46.1394 180.04 46.2494 179.79C46.3294 179.59 46.4994 179.44 46.6794 179.4C48.8894 178.42 51.3894 177.92 54.1094 177.92C58.7694 177.92 63.2994 179.38 66.2894 180.61C70.9094 182.44 74.4394 184.75 75.7794 185.62C75.9994 185.76 76.1394 185.86 76.2094 185.9C76.2694 185.92 76.3194 185.95 76.3594 186C76.5394 186.18 76.5794 186.37 76.5794 186.5C76.5794 186.63 76.5394 186.81 76.3594 187C76.1794 187.18 75.9894 187.22 75.8594 187.22V187.2Z" fill="#363636"/>
<path d="M239.16 8.34991C239.16 8.34991 244.33 -0.260087 247.5 -8.72216e-05C250.68 0.259913 244.72 8.33991 244.72 8.33991C244.72 8.33991 252.53 1.31991 272.79 11.5199C293.05 21.7099 287.75 81.2899 292.65 89.6299C297.68 97.9699 303.9 95.7199 308.27 105.91C312.64 116.1 292.12 121.27 295.16 128.55C298.21 135.83 321.9 122.2 326.01 141.26C329.98 160.46 317.27 172.5 317.27 172.5L170.45 162.97C170.45 162.97 154.83 148.27 162.11 132.39C169.26 116.5 180.78 128.29 188.06 121.27C195.34 114.25 177.2 115.58 176.67 104.46C176.14 93.3399 179.58 89.6299 183.82 82.6199C188.19 75.5999 178.13 38.2699 193.48 21.0599C208.7 3.84991 233.59 8.34991 233.59 8.34991C233.59 8.34991 228.82 2.25991 232 1.99991C235.18 1.59991 239.15 8.34991 239.15 8.34991H239.16Z" fill="#333333"/>
<path d="M424.77 210.24C402.53 212.62 377.73 203.22 357.74 195.67L354.77 224.95C354.11 227.33 353.01 226.26 352.22 223.87C349.7 216.46 345.87 205.86 342.95 199.51C330.9 173.16 327.33 159.13 304.16 147.08C280.99 135.03 239.82 147.08 239.82 147.08H225.65V147.21C225.65 147.21 184.34 135.16 161.18 147.21C138.01 159.26 134.3 173.16 122.26 199.5C119.35 205.85 115.51 216.58 112.99 223.86C112.2 226.24 109.15 226.11 108.62 223.6L102.66 197.78C82.8004 205.33 63.0804 212.61 40.8304 210.22C40.1704 261.59 62.9404 326.33 95.7704 326.33C133.5 326.33 156.01 303.56 162.63 289.53C162.63 297.74 162.76 308.06 163.29 310.84C163.29 310.97 163.95 311.37 163.82 311.5C185.66 314.68 208.57 316.13 229.75 316.27C254.9 316.4 275.42 315.87 298.99 312.56C298.99 312.43 304.02 311.24 304.02 311.1C304.55 307.92 307.07 294.68 308.65 286.21C311.17 299.58 328.38 326.32 369.68 326.32C402.51 326.32 425.55 261.58 424.75 210.21L424.77 210.24Z" fill="#A1C3FF"/>
<path d="M369.7 327.199C333.22 327.199 313.87 305.829 308.8 290.139L308.21 293.269C306.85 300.519 305.3 308.719 304.88 311.199C304.88 311.849 304.71 311.889 301.74 312.669C300.9 312.889 299.77 313.189 299.45 313.299C299.35 313.359 299.24 313.399 299.12 313.419C277.06 316.519 258.05 317.149 236.28 317.149C234.14 317.149 231.96 317.149 229.75 317.129C207.04 316.989 184.2 315.339 163.7 312.349C163.39 312.309 163.13 312.089 163.02 311.789C163.01 311.779 162.99 311.769 162.98 311.749C162.76 311.559 162.5 311.329 162.45 310.959C161.96 308.299 161.82 299.579 161.79 292.919C153.97 306.259 132.43 327.179 95.7699 327.179C87.7399 327.179 79.99 323.459 72.76 316.129C63.09 306.339 54.47 289.919 48.49 269.889C42.76 250.709 39.74 229.509 39.99 210.209C39.99 209.969 40.0999 209.739 40.2799 209.589C40.4599 209.429 40.69 209.349 40.93 209.379C43.75 209.679 46.64 209.829 49.5 209.829C68.5499 209.829 86.51 202.999 102.36 196.979C102.59 196.889 102.84 196.909 103.06 197.019C103.28 197.139 103.43 197.339 103.49 197.579L109.45 223.399C109.65 224.369 110.29 224.709 110.82 224.709C111.44 224.709 111.95 224.289 112.19 223.579C114.85 215.889 118.62 205.409 121.49 199.129C122.96 195.929 124.3 192.909 125.57 190.049C134.68 169.539 140.19 157.149 160.8 146.429C167.76 142.809 176.98 140.979 188.2 140.979C205.51 140.979 222.41 145.409 225.43 146.239C225.5 146.219 225.58 146.209 225.67 146.209H239.72C241.34 145.749 259.03 140.859 277.2 140.859C288.41 140.859 297.61 142.689 304.57 146.309C325.02 156.939 330.45 169.219 339.45 189.559C340.8 192.599 342.19 195.749 343.74 199.139C346.6 205.369 350.42 215.849 353.04 223.579C353.33 224.459 353.61 224.959 353.79 225.219C353.84 225.109 353.89 224.969 353.95 224.769L356.91 195.559C356.94 195.299 357.08 195.059 357.31 194.919C357.53 194.779 357.81 194.759 358.06 194.849L358.31 194.949C375.77 201.539 397.5 209.749 417.51 209.749C419.97 209.749 422.39 209.619 424.69 209.379C424.93 209.359 425.16 209.429 425.34 209.589C425.52 209.749 425.62 209.969 425.63 210.209C426.26 250.919 412.18 296.409 392.87 316.009C385.57 323.419 377.78 327.179 369.7 327.179V327.199ZM308.67 285.389C309.08 285.389 309.43 285.679 309.5 286.079C312.37 301.319 331.24 325.499 369.7 325.499C377.31 325.499 384.69 321.909 391.66 314.839C410.53 295.669 424.34 251.249 423.94 211.179C421.86 211.369 419.7 211.469 417.5 211.469C397.48 211.469 375.93 203.449 358.48 196.859L355.62 225.039C355.62 225.039 355.61 225.139 355.59 225.179C355.23 226.479 354.64 227.139 353.84 227.139C352.88 227.139 352.09 226.159 351.42 224.149C348.81 216.469 345.02 206.049 342.19 199.879C340.64 196.479 339.24 193.329 337.89 190.289C329.04 170.289 323.7 158.219 303.78 147.859C297.07 144.369 288.12 142.599 277.19 142.599C258.46 142.599 240.25 147.869 240.06 147.919C239.98 147.939 239.9 147.949 239.82 147.949H226.11C225.9 148.079 225.65 148.119 225.42 148.049C225.24 147.999 206.95 142.729 188.2 142.729C177.25 142.729 168.29 144.499 161.58 147.989C141.5 158.429 136.39 169.929 127.12 190.789C125.85 193.649 124.5 196.679 123.04 199.889C120.19 206.099 116.45 216.519 113.8 224.169C113.34 225.549 112.17 226.449 110.83 226.449C109.35 226.449 108.13 225.389 107.8 223.799L102.06 198.949C86.2999 204.939 68.4999 211.559 49.5099 211.559C46.8999 211.559 44.27 211.439 41.68 211.189C41.38 251.459 55.19 295.939 73.98 314.959C80.89 321.959 88.22 325.509 95.79 325.509C134.52 325.509 155.95 301.749 161.88 289.189C162.05 288.829 162.45 288.639 162.83 288.719C163.22 288.809 163.49 289.149 163.49 289.549C163.49 300.489 163.71 308.069 164.1 310.489C164.19 310.569 164.28 310.649 164.37 310.739C184.69 313.669 207.29 315.299 229.76 315.439C231.97 315.449 234.14 315.459 236.28 315.459C257.93 315.459 276.85 314.829 298.76 311.759C299.2 311.589 299.97 311.379 301.31 311.029C301.97 310.859 302.8 310.639 303.28 310.499C303.78 307.639 305.18 300.179 306.54 292.959L307.83 286.079C307.91 285.679 308.26 285.389 308.66 285.389H308.67Z" fill="#333333"/>
<path d="M162.64 310.59C162.11 317.47 138.02 358.78 138.02 358.78H328.53C328.53 358.78 307.22 320.65 304.3 310.33C256.64 317.08 209.11 317.74 162.64 310.59Z" fill="#333333"/>
<path d="M204.61 74.1402C204.61 74.1402 194.42 63.8102 185.94 66.8602C177.47 69.9002 176.28 88.3102 185.41 91.8802C194.55 95.4502 205.53 88.3102 205.53 88.3102L204.6 74.1402H204.61Z" fill="white"/>
<path d="M191.01 93.7292C188.88 93.7292 186.9 93.3692 185.1 92.6692C179.91 90.6392 178.14 84.6192 178.21 79.6692C178.29 74.1992 180.62 67.8692 185.65 66.0592C186.78 65.6492 188 65.4492 189.26 65.4492C197.12 65.4492 204.88 73.2092 205.2 73.5492C205.34 73.6992 205.43 73.8892 205.44 74.0892L206.37 88.2592C206.39 88.5692 206.24 88.8592 205.99 89.0292C205.69 89.2192 198.66 93.7392 191 93.7392L191.01 93.7292ZM189.27 67.1492C188.2 67.1492 187.18 67.3192 186.23 67.6592C182.59 68.9692 179.99 73.9192 179.91 79.6992C179.85 84.0792 181.34 89.3792 185.72 91.0892C187.32 91.7192 189.1 92.0292 191.01 92.0292C197.15 92.0292 203.06 88.7892 204.65 87.8492L203.78 74.5192C202.48 73.2792 195.73 67.1492 189.27 67.1492Z" fill="#333333"/>
<path d="M256.37 98.7698C255.31 101.55 254.25 104.2 253.06 106.45C241.28 128.43 220.09 125.38 213.87 122.87V120.88L214 109.36L233.2 110.15L238.89 110.41L241.01 108.82L248.69 102.86L256.37 98.7598V98.7698Z" fill="#333333"/>
<path d="M283.38 63.8184C279.14 62.7584 275.44 64.3484 272.66 66.3384V66.2084C272.66 66.295 272.616 66.3817 272.53 66.4684C271.47 67.2584 270.54 68.0584 269.88 68.7184C267.89 60.7784 268.95 40.6484 260.35 30.9884C255.32 25.2984 236.12 23.8384 222.62 25.4284C212.96 26.6184 203.95 36.2884 201.17 45.6884C197.99 56.5484 196.27 68.4584 196.14 68.1984C198.39 88.1884 199.98 114.008 227.65 118.638C234 119.698 239.7 118.898 244.73 117.048C233.08 127.378 218.65 124.988 213.62 123.008V121.018C213.36 128.298 212.69 138.758 211.37 139.548C209.25 140.738 201.84 142.988 201.84 142.988C201.84 142.988 205.55 163.508 236.53 161.658C267.51 159.808 266.85 140.208 266.85 140.208C266.85 140.208 257.32 138.618 255.86 136.498C254.67 134.908 255.46 118.758 255.86 110.678C256.39 110.278 256.92 109.748 257.45 109.218C263.67 103.658 267.11 96.5084 269.37 88.6984C273.47 90.1584 280.36 91.7484 286.05 88.8284C295.05 84.1984 292.27 66.0584 283.4 63.8084L283.38 63.8184Z" fill="white"/>
<path d="M232.65 162.619C204.84 162.619 201.03 143.329 201 143.139C200.92 142.719 201.18 142.299 201.59 142.179C201.66 142.159 208.79 139.989 210.89 138.849C211.54 138.009 212.36 132.199 212.77 120.989C212.79 120.529 213.16 120.169 213.62 120.169H213.64C214.1 120.169 214.47 120.559 214.47 121.019V122.419C215.94 122.929 219.34 123.899 224.06 123.899C228.48 123.899 234.61 122.999 240.56 119.159C236.3 120.109 231.93 120.209 227.52 119.469C200.43 114.929 197.75 90.539 195.6 70.939L195.31 68.279C195.29 68.109 195.32 67.949 195.4 67.799C195.47 67.509 195.63 66.639 195.81 65.659C196.55 61.639 198.08 53.279 200.38 45.429C203.12 36.179 212.15 25.849 222.54 24.569C225.92 24.169 229.7 23.959 233.47 23.959C244.03 23.959 256.81 25.649 261.01 30.409C267.35 37.529 268.6 50.179 269.5 59.419C269.79 62.379 270.05 65.009 270.42 67.069C270.87 66.679 271.37 66.279 271.88 65.889C271.99 65.589 272.27 65.379 272.59 65.339C276.22 62.879 279.97 62.069 283.6 62.979C288.76 64.289 291.69 70.239 292.29 75.549C292.86 80.579 291.62 86.899 286.43 89.579C284.19 90.729 281.59 91.309 278.71 91.309C275.4 91.309 272.23 90.539 269.92 89.779C267.27 98.569 263.47 104.959 258.01 109.849C257.6 110.259 257.15 110.709 256.68 111.099C256.38 117.289 255.56 134.329 256.54 135.999C257.41 137.269 263.17 138.729 266.98 139.369C267.38 139.439 267.67 139.769 267.69 140.179C267.69 140.379 268.02 160.619 236.57 162.499C235.24 162.579 233.92 162.619 232.65 162.619ZM202.84 143.559C203.78 146.989 209.05 160.919 232.65 160.919C233.89 160.919 235.17 160.879 236.47 160.799C263.01 159.209 265.7 144.289 265.96 140.909C263.35 140.439 256.56 139.029 255.15 136.979C254.15 135.649 254.11 128.749 255 110.639C255.01 110.389 255.14 110.149 255.34 109.999C255.82 109.639 256.31 109.149 256.84 108.619C262.27 103.769 265.97 97.379 268.54 88.469C268.6 88.239 268.76 88.059 268.97 87.949C269.18 87.839 269.42 87.829 269.64 87.909C271.85 88.689 275.21 89.629 278.71 89.629C281.32 89.629 283.66 89.109 285.65 88.089C290.07 85.809 291.11 80.229 290.6 75.769C290.06 71.039 287.56 65.759 283.18 64.649C279.92 63.829 276.54 64.629 273.21 66.999C273.19 67.019 273.16 67.049 273.14 67.079C273.11 67.109 273.08 67.129 273.05 67.159C272.05 67.909 271.15 68.679 270.49 69.329C270.27 69.549 269.96 69.629 269.66 69.549C269.36 69.469 269.14 69.229 269.06 68.939C268.48 66.619 268.16 63.379 267.79 59.619C266.9 50.619 265.69 38.279 259.71 31.569C256.55 27.999 246.24 25.689 233.44 25.689C229.74 25.689 226.02 25.899 222.71 26.289C213.02 27.479 204.56 37.219 201.98 45.939C199.71 53.699 198.19 61.999 197.45 65.989C197.24 67.119 197.11 67.829 196.99 68.279L197.27 70.769C199.36 89.799 201.96 113.479 227.78 117.809C233.46 118.759 239.06 118.239 244.42 116.259C244.8 116.119 245.23 116.259 245.44 116.619C245.65 116.969 245.58 117.419 245.27 117.689C237.89 124.229 229.65 125.599 224.03 125.599C219.49 125.599 216.07 124.739 214.32 124.169C213.62 139.189 212.35 139.949 211.79 140.289C209.99 141.299 204.8 142.969 202.83 143.579L202.84 143.559Z" fill="#333333"/>
<path d="M274.78 96.7797C273.72 96.7797 273.06 96.3797 272.66 95.8497C271.07 94.1297 271.87 90.6897 271.87 90.2897C272 89.7597 272.53 89.3597 273.19 89.4997C273.72 89.6297 274.12 90.1597 273.98 90.8197C273.72 91.8797 273.58 93.7297 274.24 94.3897C274.37 94.5197 274.5 94.6497 275.17 94.5197C275.57 94.3897 275.96 94.2597 276.1 93.8597C277.03 92.3997 276.36 89.3597 276.1 88.2997C275.97 87.7697 276.23 87.1097 276.89 86.9797C277.42 86.8497 278.08 87.1097 278.21 87.7697C278.34 88.2997 279.53 92.5397 278.08 95.0497C277.55 95.9797 276.76 96.5097 275.7 96.6397C275.17 96.7697 274.91 96.7697 274.77 96.7697L274.78 96.7797Z" fill="white"/>
<path d="M193.22 99.4301C194.28 99.4301 194.94 99.0301 195.34 98.5001C196.93 96.7801 196.13 93.3401 196.13 92.9401C196 92.4101 195.47 92.0101 194.81 92.1501C194.28 92.2801 193.88 92.8101 194.02 93.4701C194.28 94.5301 194.42 96.3801 193.76 97.0401C193.63 97.1701 193.5 97.3001 192.83 97.1701C192.43 97.0401 192.04 96.9101 191.9 96.5101C190.97 95.0501 191.64 92.0101 191.9 90.9501C192.03 90.4201 191.77 89.7601 191.11 89.6301C190.58 89.5001 189.92 89.7601 189.79 90.4201C189.66 90.9501 188.47 95.1901 189.92 97.7001C190.45 98.6301 191.24 99.1601 192.3 99.2901C192.7 99.4201 192.96 99.4201 193.23 99.4201L193.22 99.4301Z" fill="white"/>
<path d="M230.56 85.9793C230.4 85.9793 230.23 85.9293 230.09 85.8393C229.57 85.4893 226.96 83.6593 226.8 81.7593C226.73 80.9093 227.14 79.5893 227.87 77.3193C228.57 75.1493 229.44 72.4393 229.72 70.0693C229.78 69.5993 230.2 69.2693 230.66 69.3293C231.13 69.3793 231.46 69.8093 231.4 70.2693C231.1 72.7993 230.2 75.5893 229.48 77.8393C228.97 79.4293 228.44 81.0693 228.49 81.6193C228.56 82.4193 230.04 83.7693 231.03 84.4293C231.42 84.6893 231.53 85.2193 231.27 85.6093C231.11 85.8593 230.84 85.9893 230.56 85.9893V85.9793Z" fill="#333333"/>
<path d="M255.84 61.699C255.18 62.099 254.38 62.099 253.59 61.829C252.8 61.569 252.13 61.169 251.47 60.769C250.01 59.839 248.29 59.309 246.7 58.919C245.91 58.789 244.85 58.519 244.45 57.859C243.92 57.069 244.45 55.869 245.24 55.339C246.03 54.809 247.09 54.809 248.02 54.939C250.27 55.339 252.26 56.259 254.11 57.589C254.77 58.119 255.3 58.649 255.7 59.309C256.23 60.099 256.23 61.029 255.83 61.689L255.84 61.699Z" fill="#333333"/>
<path d="M210.7 61.8292C211.36 62.2292 212.29 62.2292 212.95 61.9592C213.74 61.6992 214.27 61.1692 214.94 60.7692C216.4 59.8392 217.99 59.1792 219.71 58.7792C220.5 58.5192 221.56 58.3792 221.96 57.5892C222.49 56.7992 221.96 55.5992 221.03 55.0692C220.24 54.5392 219.18 54.6692 218.12 54.8092C215.87 55.2092 213.88 56.2692 212.16 57.7192C211.5 58.2492 210.97 58.7792 210.57 59.5692C210.31 60.2292 210.31 61.1592 210.7 61.8192V61.8292Z" fill="#333333"/>
<path d="M248.03 67C249.13 67 250.02 68.54 250.02 70.44C250.02 72.34 249.13 73.88 248.03 73.88C246.93 73.88 246.04 72.34 246.04 70.44C246.04 68.54 246.93 67 248.03 67Z" fill="#333333"/>
<path d="M214.8 67C215.9 67 216.79 68.54 216.79 70.44C216.79 72.34 215.9 73.88 214.8 73.88C213.7 73.88 212.81 72.34 212.81 70.44C212.81 68.54 213.7 67 214.8 67Z" fill="#333333"/>
<path d="M196.53 70.1694C196.53 70.1694 231.61 31.7795 236.78 26.2195C236.78 26.2195 226.06 45.2795 231.48 44.6195C236.91 43.9595 240.09 27.9395 240.09 27.9395C240.09 27.9395 238.37 39.1895 243 38.1295C247.63 37.0695 244.19 26.2095 244.19 26.2095L268.95 69.0994C268.95 69.0994 270.14 46.1995 270.27 45.5295C270.4 44.8595 265.77 29.2495 265.77 29.2495L247.1 23.0295L219.7 21.4395L201.69 24.8795L196.53 70.1595V70.1694Z" fill="#333333"/>
<path d="M271.6 80.4194C271.49 80.4194 271.38 80.3994 271.27 80.3494C270.84 80.1694 270.64 79.6694 270.82 79.2394C274.15 71.3194 283.56 70.2894 283.96 70.2494C284.43 70.2094 284.84 70.5394 284.89 71.0094C284.94 71.4794 284.6 71.8894 284.13 71.9394C284.04 71.9394 275.32 72.9194 272.38 79.8994C272.24 80.2194 271.93 80.4194 271.6 80.4194Z" fill="#333333"/>
<path d="M278.75 77.5098C278.57 77.5098 278.4 77.4598 278.25 77.3398L275.21 75.0898C274.83 74.8098 274.75 74.2798 275.03 73.8998C275.31 73.5198 275.84 73.4398 276.22 73.7198L279.26 75.9698C279.64 76.2498 279.72 76.7798 279.44 77.1598C279.27 77.3798 279.02 77.4998 278.76 77.4998L278.75 77.5098Z" fill="#333333"/>
<path d="M197.33 80.4194C197 80.4194 196.68 80.2294 196.55 79.8994C193.61 72.9194 184.89 71.9494 184.8 71.9394C184.33 71.8894 183.99 71.4794 184.04 71.0094C184.09 70.5394 184.5 70.2094 184.97 70.2494C185.37 70.2894 194.78 71.3194 198.11 79.2394C198.29 79.6694 198.09 80.1694 197.66 80.3494C197.55 80.3894 197.44 80.4194 197.33 80.4194Z" fill="#333333"/>
<path d="M192.03 77.5101C191.91 77.5101 191.79 77.4801 191.67 77.4301C191.25 77.2301 191.06 76.7301 191.26 76.3001L192.32 74.0501C192.52 73.6201 193.03 73.4401 193.45 73.6401C193.87 73.8401 194.06 74.3401 193.86 74.7701L192.8 77.0201C192.66 77.3301 192.35 77.5101 192.03 77.5101Z" fill="#333333"/>
<path d="M162.51 290.39C162.09 290.39 161.72 290.07 161.67 289.64C160.7 281.27 158.95 272.38 157.09 262.98C156.16 258.25 155.19 253.36 154.27 248.26C151.48 232.83 161.95 207.67 162.4 206.61C162.58 206.18 163.08 205.98 163.51 206.16C163.94 206.34 164.14 206.84 163.96 207.27C163.85 207.53 153.23 233.03 155.94 247.96C156.86 253.05 157.83 257.93 158.76 262.65C160.62 272.09 162.39 281.01 163.36 289.45C163.41 289.92 163.08 290.34 162.61 290.39C162.58 290.39 162.54 290.39 162.51 290.39Z" fill="#333333"/>
<path d="M307.61 290.39C307.61 290.39 307.54 290.39 307.51 290.39C307.04 290.34 306.71 289.91 306.76 289.45C307.74 281.01 309.5 272.09 311.36 262.65C312.29 257.93 313.26 253.05 314.18 247.96C316.88 233.02 306.26 207.52 306.16 207.27C305.98 206.84 306.18 206.34 306.61 206.16C307.04 205.98 307.54 206.18 307.72 206.61C308.17 207.67 318.64 232.84 315.85 248.26C314.93 253.36 313.96 258.25 313.03 262.97C311.17 272.38 309.42 281.27 308.45 289.64C308.4 290.07 308.03 290.39 307.61 290.39Z" fill="#333333"/>
<path d="M340.769 276.301H340.749C340.279 276.291 339.909 275.901 339.929 275.431C340.139 268.201 345.899 249.341 350.109 235.581C351.339 231.541 352.409 228.051 353.119 225.571C353.249 225.121 353.72 224.861 354.17 224.991C354.62 225.121 354.879 225.591 354.749 226.041C354.039 228.531 352.97 232.031 351.73 236.081C347.78 248.981 341.819 268.481 341.619 275.491C341.609 275.951 341.229 276.311 340.769 276.311V276.301Z" fill="#333333"/>
<path d="M132.72 273.181C132.26 273.181 131.89 272.821 131.87 272.361C131.73 267.421 125.88 257.581 120.23 248.061C115.57 240.221 111.17 232.811 109.79 227.951C109.66 227.501 109.92 227.031 110.37 226.901C110.82 226.771 111.29 227.031 111.42 227.481C112.74 232.131 117.09 239.441 121.69 247.191C127.45 256.891 133.41 266.931 133.57 272.301C133.58 272.771 133.21 273.161 132.75 273.171H132.73L132.72 273.181Z" fill="#333333"/>
<path d="M261.31 22.3105C262.71 21.3405 263.28 19.5905 264.07 18.0805C264.86 16.5705 266.31 15.0705 267.98 15.3605C268.47 15.4405 268.91 15.6705 269.34 15.9205C272.05 17.4805 274.29 19.8205 275.75 22.5805C276.7 24.3805 277.29 26.6205 276.32 28.4105C275.01 30.8205 271.69 31.1405 268.97 30.7905C267.32 30.5805 265.59 30.2605 264.05 30.8705C261.8 31.7705 260.23 34.5605 257.83 34.2505C256.68 34.1005 255.74 33.2005 255.22 32.1605C254.7 31.1205 254.55 29.9405 254.39 28.7905C254.23 27.5805 254.09 26.2505 254.74 25.2105C256.04 23.1305 259.3 23.6905 261.31 22.2905V22.3105Z" fill="white"/>
<path d="M258.2 34.7104C258.06 34.7104 257.92 34.7104 257.77 34.6804C256.58 34.5204 255.48 33.6604 254.84 32.3504C254.29 31.2404 254.12 29.9704 253.97 28.8504C253.79 27.4604 253.68 26.1104 254.38 24.9904C255.22 23.6404 256.76 23.2904 258.25 22.9504C259.25 22.7204 260.29 22.4904 261.07 21.9504C262.07 21.2604 262.61 20.1104 263.19 18.9104C263.36 18.5604 263.52 18.2104 263.7 17.8804C264.07 17.1804 265.43 14.9004 267.57 14.9004C267.73 14.9004 267.89 14.9104 268.06 14.9404C268.61 15.0304 269.1 15.2904 269.56 15.5504C272.32 17.1404 274.65 19.5604 276.13 22.3804C276.85 23.7604 277.89 26.4104 276.7 28.6104C275.48 30.8604 272.8 31.3304 270.76 31.3304C270.17 31.3304 269.55 31.2904 268.93 31.2104L268.41 31.1404C267.66 31.0404 266.89 30.9404 266.15 30.9404C265.41 30.9404 264.77 31.0504 264.22 31.2704C263.4 31.6004 262.64 32.2304 261.91 32.8404C260.8 33.7604 259.65 34.7104 258.21 34.7104H258.2ZM267.57 15.7504C266.25 15.7504 265.09 17.0604 264.45 18.2804C264.28 18.6104 264.12 18.9404 263.96 19.2804C263.36 20.5404 262.74 21.8304 261.56 22.6604C260.65 23.3004 259.53 23.5504 258.45 23.7904C257.07 24.1004 255.77 24.4004 255.11 25.4504C254.56 26.3404 254.66 27.5204 254.82 28.7504C254.97 29.8504 255.12 31.0004 255.61 31.9804C256.01 32.7904 256.82 33.7004 257.89 33.8404C259.17 34.0004 260.23 33.1304 261.36 32.1904C262.14 31.5404 262.95 30.8704 263.9 30.4904C264.55 30.2304 265.28 30.1004 266.14 30.1004C266.93 30.1004 267.73 30.2104 268.51 30.3104L269.03 30.3804C269.62 30.4504 270.2 30.4904 270.76 30.4904C272.57 30.4904 274.93 30.1004 275.95 28.2104C276.96 26.3504 276.03 24.0104 275.38 22.7804C273.97 20.1004 271.76 17.8004 269.14 16.2904C268.69 16.0304 268.32 15.8504 267.92 15.7804C267.8 15.7604 267.69 15.7504 267.57 15.7504Z" fill="#333333"/>
<path d="M197.49 30.3904C200.53 33.1604 206.29 29.5304 209.22 32.4004C210.04 33.2104 210.44 34.3904 211.31 35.1404C212.86 36.4604 215.28 35.9304 216.98 34.8204C218.12 34.0804 219.15 33.0704 219.6 31.7804C220.05 30.4904 219.81 28.9104 218.76 28.0304C217.39 26.8704 215.22 27.2604 213.74 26.2404C212.62 25.4704 212.15 24.1004 211.62 22.8504C211.01 21.4004 210.26 20.0204 209.38 18.7304C208.91 18.0404 208.34 17.3304 207.55 17.0604C206.61 16.7404 205.59 17.1104 204.69 17.5304C202.41 18.6204 200.34 20.1604 198.64 22.0404C197.59 23.2004 196.66 24.5304 196.32 26.0604C195.98 27.5904 196.32 29.3404 197.47 30.3904H197.49Z" fill="white"/>
<path d="M213.59 36.3295C212.6 36.3295 211.72 36.0295 211.05 35.4495C210.54 35.0095 210.18 34.4495 209.84 33.9195C209.55 33.4695 209.28 33.0395 208.93 32.6995C208.18 31.9695 207.16 31.6395 205.64 31.6395C204.92 31.6395 204.14 31.7095 203.39 31.7795C202.62 31.8495 201.82 31.9295 201.05 31.9295C199.98 31.9295 198.42 31.7995 197.21 30.7095C196.03 29.6295 195.53 27.7695 195.93 25.9695C196.24 24.5795 197.01 23.2395 198.35 21.7595C200.07 19.8495 202.21 18.2595 204.53 17.1495C205.15 16.8495 205.97 16.5195 206.81 16.5195C207.12 16.5195 207.43 16.5695 207.71 16.6595C208.62 16.9695 209.23 17.7195 209.76 18.4895C210.66 19.8095 211.43 21.2195 212.04 22.6895L212.2 23.0695C212.65 24.1595 213.11 25.2795 214.01 25.8995C214.64 26.3295 215.43 26.4795 216.26 26.6495C217.24 26.8395 218.25 27.0395 219.06 27.7195C220.17 28.6595 220.57 30.3895 220.02 31.9395C219.59 33.1595 218.62 34.2895 217.23 35.1895C216.09 35.9295 214.76 36.3495 213.6 36.3495L213.59 36.3295ZM205.64 30.7795C206.74 30.7795 208.33 30.9195 209.52 32.0795C209.94 32.4895 210.25 32.9795 210.55 33.4595C210.87 33.9695 211.18 34.4495 211.59 34.7995C212.12 35.2495 212.79 35.4795 213.58 35.4795C214.59 35.4795 215.74 35.1095 216.75 34.4495C217.61 33.8895 218.74 32.9495 219.21 31.6295C219.64 30.4095 219.35 29.0595 218.5 28.3395C217.86 27.7995 217 27.6395 216.09 27.4595C215.21 27.2895 214.29 27.1095 213.52 26.5795C212.41 25.8195 211.9 24.5795 211.41 23.3795L211.26 23.0095C210.67 21.5895 209.93 20.2295 209.06 18.9595C208.62 18.3095 208.11 17.6795 207.44 17.4495C206.66 17.1895 205.62 17.5595 204.9 17.8995C202.68 18.9595 200.63 20.4895 198.98 22.3095C197.75 23.6795 197.04 24.8995 196.76 26.1395C196.42 27.6495 196.82 29.1895 197.78 30.0595C198.54 30.7495 199.55 31.0595 201.04 31.0595C201.77 31.0595 202.55 30.9895 203.3 30.9195C204.07 30.8495 204.87 30.7695 205.63 30.7695L205.64 30.7795Z" fill="#333333"/>
<path d="M232.12 104.111C231.8 104.111 231.48 104.101 231.16 104.071C227.14 103.761 221.33 100.771 220.91 95.9607C220.8 94.7607 221.32 93.6207 222.22 93.0507C222.88 92.6407 223.61 92.5907 224.11 92.5907C224.36 92.5907 224.61 92.6007 224.86 92.6207C225.41 92.6507 225.88 92.6607 226.35 92.6607C229.55 92.6607 232.67 92.0707 235.64 90.9207L236.04 90.7607C236.8 90.4607 237.59 90.1407 238.46 90.0207C238.7 89.9807 238.95 89.9707 239.2 89.9707C240.23 89.9707 241.12 90.2807 241.77 90.8807C242.76 91.7807 243.14 93.2607 242.86 95.1607C242.1 100.441 237.68 104.121 232.11 104.121L232.12 104.111ZM224.11 94.2907C223.65 94.2907 223.34 94.3507 223.12 94.4907C222.76 94.7107 222.55 95.2607 222.6 95.8107C222.94 99.6407 227.95 102.121 231.29 102.381C236.34 102.771 240.51 99.5807 241.19 94.9107C241.32 93.9907 241.33 92.7707 240.63 92.1307C240.21 91.7507 239.45 91.5907 238.71 91.7007C238.04 91.8007 237.37 92.0607 236.67 92.3407L236.25 92.5007C232.62 93.9107 228.74 94.5407 224.83 94.3207C224.54 94.3007 224.32 94.2907 224.1 94.2907H224.11Z" fill="#333333"/>
<path d="M306.03 75.5888L325.36 69.9688C328.19 72.6088 331.54 74.7288 335.35 76.1388C351.64 82.1488 370.05 72.9188 376.47 55.5188C382.89 38.1188 374.89 19.1388 358.6 13.1288C342.31 7.11883 323.9 16.3488 317.48 33.7488C314.83 40.9288 314.64 48.3688 316.47 55.0688L306.03 75.5888Z" fill="white"/>
<path d="M345.62 78.8195C342.01 78.8195 338.45 78.1895 335.06 76.9295C331.39 75.5795 328.06 73.5495 325.14 70.9095L306.27 76.3995C305.95 76.4995 305.6 76.3894 305.38 76.1294C305.16 75.8694 305.12 75.5094 305.28 75.1994L315.57 54.9695C313.71 47.9095 314.09 40.4695 316.69 33.4495C321.77 19.6895 334.49 10.4395 348.34 10.4395C351.95 10.4395 355.51 11.0695 358.9 12.3295C375.6 18.4895 383.84 37.9995 377.27 55.8095C372.19 69.5695 359.47 78.8195 345.62 78.8195ZM325.36 69.1195C325.57 69.1195 325.78 69.1995 325.94 69.3495C328.77 71.9995 332.04 74.0094 335.64 75.3394C338.85 76.5194 342.2 77.1195 345.62 77.1195C358.76 77.1195 370.84 68.3195 375.68 55.2195C381.93 38.2895 374.14 19.7595 358.31 13.9195C355.1 12.7395 351.75 12.1395 348.33 12.1395C335.19 12.1395 323.11 20.9395 318.28 34.0395C315.77 40.8295 315.43 48.0295 317.29 54.8395C317.35 55.0395 317.32 55.2595 317.23 55.4495L307.68 74.2195L325.13 69.1495C325.21 69.1295 325.29 69.1195 325.37 69.1195H325.36Z" fill="#2B2B2B"/>
<path d="M149.24 66.9997C149.24 39.3197 126.68 16.9197 98.9198 17.2497C72.0898 17.5697 50.2198 39.4697 49.8498 66.2897C49.6398 81.2397 56.0198 94.7097 66.3098 103.96C74.3298 111.17 79.0898 121.32 79.0898 132.11V133.41H119.98V132.43C119.98 121.48 124.79 111.18 132.9 103.83C142.95 94.7297 149.23 81.5997 149.23 66.9997H149.24Z" fill="white"/>
<path d="M119.99 134.251H79.1001C78.6301 134.251 78.2501 133.871 78.2501 133.401V132.101C78.2501 121.751 73.6901 111.721 65.7501 104.581C54.9101 94.8306 48.8001 80.8706 49.0101 66.2706C49.3901 39.0906 71.7801 16.7106 98.9201 16.3906H99.5301C127.41 16.3906 150.09 39.0906 150.09 66.9906C150.09 81.2406 144.04 94.8906 133.48 104.451C125.45 111.731 120.84 121.921 120.84 132.421V133.401C120.84 133.871 120.46 134.251 119.99 134.251ZM79.9501 132.551H119.14V132.421C119.14 121.451 123.95 110.791 132.34 103.201C142.54 93.9606 148.39 80.7606 148.39 67.0006C148.39 40.0306 126.47 18.0906 99.5301 18.0906H98.9401C72.7101 18.4006 51.0701 40.0306 50.7101 66.3006C50.5101 80.4106 56.4101 93.9006 66.8901 103.331C75.1901 110.791 79.9501 121.281 79.9501 132.111V132.561V132.551Z" fill="#333333"/>
<path d="M79.3896 141.689H119.58V143.139C119.58 151.149 113.08 157.649 105.07 157.649H93.9097C85.8997 157.649 79.3997 151.149 79.3997 143.139V141.689H79.3896Z" fill="#4257FF"/>
<path d="M107.26 158.5H91.71C84.45 158.5 78.54 152.59 78.54 145.33V140.84H120.43V145.33C120.43 152.59 114.52 158.5 107.26 158.5ZM80.24 142.54V145.34C80.24 151.66 85.39 156.81 91.71 156.81H107.26C113.58 156.81 118.73 151.66 118.73 145.34V142.54H80.24Z" fill="#333333"/>
<path d="M121.15 120.99H77.9797C74.7986 120.99 72.2197 123.569 72.2197 126.75V127.61C72.2197 130.791 74.7986 133.37 77.9797 133.37H121.15C124.331 133.37 126.91 130.791 126.91 127.61V126.75C126.91 123.569 124.331 120.99 121.15 120.99Z" fill="#4257FF"/>
<path d="M121.15 134.211H77.9801C74.3301 134.211 71.3701 131.241 71.3701 127.601V126.751C71.3701 123.101 74.3401 120.141 77.9801 120.141H121.15C124.8 120.141 127.76 123.111 127.76 126.751V127.601C127.76 131.251 124.79 134.211 121.15 134.211ZM77.9801 121.831C75.2701 121.831 73.0601 124.031 73.0601 126.751V127.601C73.0601 130.311 75.2601 132.521 77.9801 132.521H121.15C123.86 132.521 126.07 130.321 126.07 127.601V126.751C126.07 124.041 123.87 121.831 121.15 121.831H77.9801Z" fill="#333333"/>
<path d="M121.15 133.361H77.9797C74.7986 133.361 72.2197 135.94 72.2197 139.121V139.981C72.2197 143.162 74.7986 145.741 77.9797 145.741H121.15C124.331 145.741 126.91 143.162 126.91 139.981V139.121C126.91 135.94 124.331 133.361 121.15 133.361Z" fill="#4257FF"/>
<path d="M121.15 146.591H77.9801C74.3301 146.591 71.3701 143.621 71.3701 139.981V139.131C71.3701 135.481 74.3401 132.521 77.9801 132.521H121.15C124.8 132.521 127.76 135.491 127.76 139.131V139.981C127.76 143.631 124.79 146.591 121.15 146.591ZM77.9801 134.211C75.2701 134.211 73.0601 136.411 73.0601 139.131V139.981C73.0601 142.691 75.2601 144.901 77.9801 144.901H121.15C123.86 144.901 126.07 142.701 126.07 139.981V139.131C126.07 136.421 123.87 134.211 121.15 134.211H77.9801Z" fill="#333333"/>
<path d="M94.4503 121.031L92.7503 120.951C93.7603 100.561 92.9403 85.6813 91.1203 75.2713C83.4703 75.0513 77.1703 74.3113 74.8803 73.1913C70.7203 71.1613 70.1503 65.5613 71.3803 61.2213C72.8403 56.0713 76.4503 53.0213 80.5803 53.4313C86.1603 53.9913 90.2403 61.0913 92.5803 73.5913C96.4303 73.6613 100.59 73.6113 104.72 73.4213C106.86 73.3213 108.9 73.1813 110.84 73.0213C112.24 63.8613 114.25 56.6013 117.11 54.9313C121.36 52.4513 126.52 53.0913 130.25 56.5513C133.67 59.7313 134.67 64.2613 132.8 68.0913C131.13 71.5113 122.49 73.5713 112.33 74.5813C110.2 89.8713 109.41 110.691 109.3 121.011L107.6 120.991C107.65 116.971 108.03 92.7813 110.58 74.7413C104.74 75.2413 98.5203 75.4213 92.8803 75.3213C94.8003 86.7113 95.3703 102.211 94.4403 121.041L94.4503 121.031ZM79.8303 55.0813C76.2003 55.0813 73.9003 58.5613 73.0203 61.6813C71.9403 65.4813 72.4903 70.1313 75.6303 71.6613C77.6603 72.6513 83.5403 73.3213 90.8103 73.5413C88.3503 60.9513 84.3303 55.5013 80.4203 55.1113C80.2203 55.0913 80.0303 55.0813 79.8403 55.0813H79.8303ZM122.52 55.1113C121.06 55.1113 119.52 55.4813 117.97 56.3813C115.63 57.7413 113.88 64.2713 112.59 72.8413C123.14 71.8013 130.08 69.8013 131.28 67.3313C132.82 64.1913 131.96 60.4413 129.1 57.7813C127.55 56.3413 125.18 55.1113 122.52 55.1113Z" fill="#313131"/>
<path d="M90.7402 126.621H78.8602C77.6902 126.621 76.7402 126.291 76.7402 125.121C76.7402 123.951 77.6902 123.621 78.8602 123.621H90.7402C91.9102 123.621 92.8602 123.951 92.8602 125.121C92.8602 126.291 91.9102 126.621 90.7402 126.621Z" fill="white"/>
<path d="M90.7402 142.621H78.8602C77.6902 142.621 76.7402 141.791 76.7402 140.621C76.7402 139.451 77.6902 138.621 78.8602 138.621H90.7402C91.9102 138.621 92.8602 139.451 92.8602 140.621C92.8602 141.791 91.9102 142.621 90.7402 142.621Z" fill="white"/>
<path d="M78.5399 58.7302C86.3382 58.7302 92.6599 52.4085 92.6599 44.6102C92.6599 36.812 86.3382 30.4902 78.5399 30.4902C70.7417 30.4902 64.4199 36.812 64.4199 44.6102C64.4199 52.4085 70.7417 58.7302 78.5399 58.7302Z" fill="white"/>
<path d="M67.2794 64.4201C71.1012 64.4201 74.1994 61.3219 74.1994 57.5001C74.1994 53.6783 71.1012 50.5801 67.2794 50.5801C63.4576 50.5801 60.3594 53.6783 60.3594 57.5001C60.3594 61.3219 63.4576 64.4201 67.2794 64.4201Z" fill="white"/>
<path d="M244.94 301.839C244.94 301.839 242.38 295.539 245.65 270.359H374.48C374.48 270.359 364.22 279.809 373.06 301.839H244.94Z" fill="white"/>
<path d="M373.08 302.69C373.08 302.69 373.07 302.69 373.06 302.69H244.94C244.59 302.69 244.28 302.48 244.15 302.16C244.04 301.89 241.55 295.37 244.8 270.25C244.85 269.83 245.22 269.51 245.64 269.51H374.47C374.82 269.51 375.13 269.72 375.26 270.05C375.39 270.38 375.3 270.75 375.04 270.98C374.94 271.07 365.38 280.32 373.78 301.38C373.87 301.51 373.92 301.67 373.92 301.84C373.92 302.31 373.54 302.69 373.07 302.69H373.08ZM245.57 300.99H371.82C365.38 284.02 370.14 274.61 372.64 271.2H246.4C243.82 291.48 245.1 299.07 245.58 300.99H245.57Z" fill="#333333"/>
<path d="M246.36 303.01L246.95 270.77C246.95 270.77 234.68 276.46 235.03 286.37C235.38 296.28 246.36 303 246.36 303V303.01Z" fill="#333333"/>
<path d="M374.479 300.11H247.069C246.449 300.11 245.859 300.27 245.329 300.53C243.799 298.78 239.249 293 239.579 286.53C239.779 282.73 241.729 279.17 245.359 275.91C245.879 276.16 246.459 276.31 247.059 276.31H374.469C376.819 276.31 378.719 274.19 378.719 271.85C378.719 269.51 376.819 267.39 374.469 267.39H370.269C330.639 267.39 290.779 268.6 251.179 267.28C250.419 267.25 249.649 267.22 248.889 267.22C246.009 267.2 243.049 267.52 240.509 268.88C234.839 271.91 231.379 280.05 231.089 286.18C230.739 293.44 233.379 301.16 239.209 305.75C246.099 311.18 256.919 309.88 265.209 309.63C299.369 308.61 333.549 309.05 367.689 309.05H374.479C376.829 309.05 378.729 306.93 378.729 304.59C378.729 302.25 376.829 300.13 374.479 300.13V300.11Z" fill="#4257FF"/>
<path d="M255.609 310.78C250.319 310.78 243.609 310.28 238.689 306.4C233.089 301.99 229.859 294.22 230.249 286.12C230.549 279.78 234.119 271.32 240.119 268.11C242.359 266.91 245.089 266.35 248.699 266.35H248.909C249.519 266.35 250.129 266.37 250.749 266.4L251.229 266.42C263.869 266.84 277.239 267.04 293.309 267.04C306.149 267.04 319.209 266.91 331.839 266.79C344.449 266.66 357.499 266.54 370.299 266.54H374.499C377.259 266.54 379.599 268.97 379.599 271.85C379.599 274.73 377.269 277.16 374.499 277.16H247.089C246.569 277.16 246.059 277.07 245.559 276.9C242.349 279.91 240.629 283.16 240.449 286.57C240.159 292.25 243.919 297.47 245.599 299.5C246.089 299.34 246.579 299.25 247.089 299.25H374.499C377.259 299.25 379.599 301.68 379.599 304.56C379.599 307.44 377.269 309.87 374.499 309.87H367.709C359.869 309.87 352.019 309.85 344.169 309.82C336.319 309.8 328.469 309.77 320.619 309.77C305.409 309.77 285.369 309.85 265.259 310.44C264.219 310.47 263.139 310.52 262.039 310.57C259.959 310.66 257.809 310.76 255.629 310.76L255.609 310.78ZM248.699 268.05C245.379 268.05 242.909 268.54 240.919 269.61C235.669 272.42 232.229 280.25 231.949 286.21C231.589 293.77 234.569 301 239.749 305.08C244.259 308.64 250.599 309.09 255.619 309.09C257.769 309.09 259.899 309 261.959 308.91C263.069 308.86 264.159 308.81 265.209 308.78C285.339 308.18 305.399 308.11 320.619 308.11C328.469 308.11 336.329 308.13 344.179 308.16C352.029 308.18 359.869 308.21 367.709 308.21H374.499C376.309 308.21 377.899 306.52 377.899 304.6C377.899 302.68 376.309 300.99 374.499 300.99H247.089C246.629 300.99 246.169 301.1 245.729 301.32C245.389 301.49 244.969 301.41 244.719 301.12C243.229 299.42 238.409 293.33 238.769 286.52C238.979 282.51 241.019 278.74 244.829 275.31C245.089 275.08 245.449 275.03 245.759 275.18C246.189 275.39 246.639 275.49 247.099 275.49H374.509C376.319 275.49 377.909 273.8 377.909 271.88C377.909 269.96 376.319 268.27 374.509 268.27H370.309C357.519 268.27 344.479 268.4 331.869 268.52C319.239 268.64 306.169 268.77 293.329 268.77C277.239 268.77 263.849 268.57 251.199 268.15L250.719 268.13C250.119 268.11 249.529 268.09 248.929 268.09H248.729L248.699 268.05Z" fill="#333333"/>
<path d="M292.859 281.979H245.829C245.359 281.979 244.979 281.599 244.979 281.129C244.979 280.659 245.359 280.279 245.829 280.279H292.859C293.329 280.279 293.709 280.659 293.709 281.129C293.709 281.599 293.329 281.979 292.859 281.979Z" fill="#333333"/>
<path d="M329.66 282.71H302.98C302.51 282.71 302.13 282.33 302.13 281.86C302.13 281.39 302.51 281.01 302.98 281.01H329.66C330.13 281.01 330.51 281.39 330.51 281.86C330.51 282.33 330.13 282.71 329.66 282.71Z" fill="#333333"/>
<path d="M369.249 282.1H351.459C350.989 282.1 350.609 281.72 350.609 281.25C350.609 280.78 350.989 280.4 351.459 280.4H369.249C369.719 280.4 370.099 280.78 370.099 281.25C370.099 281.72 369.719 282.1 369.249 282.1Z" fill="#333333"/>
<path d="M369.41 288.8H305.77C305.3 288.8 304.92 288.42 304.92 287.95C304.92 287.48 305.3 287.1 305.77 287.1H369.41C369.88 287.1 370.26 287.48 370.26 287.95C370.26 288.42 369.88 288.8 369.41 288.8Z" fill="#333333"/>
<path d="M276.54 288.19H244.86C244.39 288.19 244.01 287.81 244.01 287.34C244.01 286.87 244.39 286.49 244.86 286.49H276.54C277.01 286.49 277.39 286.87 277.39 287.34C277.39 287.81 277.01 288.19 276.54 288.19Z" fill="#333333"/>
<path d="M252.779 296.36H244.129C243.659 296.36 243.279 295.98 243.279 295.51C243.279 295.04 243.659 294.66 244.129 294.66H252.779C253.249 294.66 253.629 295.04 253.629 295.51C253.629 295.98 253.249 296.36 252.779 296.36Z" fill="#333333"/>
<path d="M371.44 297.329H349.27C348.8 297.329 348.42 296.949 348.42 296.479C348.42 296.009 348.8 295.629 349.27 295.629H371.44C371.91 295.629 372.29 296.009 372.29 296.479C372.29 296.949 371.91 297.329 371.44 297.329Z" fill="#333333"/>
<path d="M386.989 347.168C386.989 347.168 390.159 339.798 386.109 310.318H226.529C226.529 310.318 239.239 321.378 228.279 347.168H386.979H386.989Z" fill="white"/>
<path d="M386.99 348.019H228.29C228.01 348.019 227.74 347.879 227.58 347.639C227.42 347.399 227.4 347.099 227.51 346.839C238.11 321.899 226.1 311.059 225.98 310.959C225.71 310.729 225.62 310.349 225.74 310.019C225.86 309.689 226.18 309.469 226.53 309.469H386.11C386.53 309.469 386.89 309.779 386.95 310.199C390.98 339.579 387.9 347.199 387.77 347.499C387.64 347.809 387.33 348.009 386.99 348.009V348.019ZM229.56 346.319H386.37C386.93 344.209 388.62 335.249 385.37 311.159H228.47C231.5 314.939 237.78 325.999 229.56 346.319Z" fill="#333333"/>
<path d="M385.24 350.758L384.5 310.828C384.5 310.828 399.7 317.878 399.27 330.158C398.84 342.438 385.24 350.768 385.24 350.768V350.758Z" fill="#333333"/>
<path d="M226.54 347.169H384.37C385.14 347.169 385.86 347.359 386.52 347.689C388.41 345.519 394.05 338.359 393.64 330.349C393.4 325.649 390.97 321.229 386.48 317.199C385.83 317.509 385.12 317.689 384.37 317.689H226.54C223.63 317.689 221.28 315.069 221.28 312.159C221.28 309.249 223.63 306.629 226.54 306.629H231.74C280.83 306.629 330.2 308.129 379.26 306.489C380.21 306.459 381.15 306.419 382.1 306.409C385.66 306.389 389.34 306.779 392.48 308.459C399.51 312.219 403.78 322.299 404.15 329.889C404.58 338.879 401.31 348.439 394.09 354.129C385.56 360.859 372.15 359.249 361.88 358.939C319.56 357.679 277.22 358.219 234.94 358.219H226.53C223.62 358.219 221.27 355.599 221.27 352.689C221.27 349.779 223.62 347.159 226.53 347.159L226.54 347.169Z" fill="white"/>
<path d="M373.78 360.179C371.08 360.179 368.42 360.059 365.85 359.949C364.48 359.889 363.14 359.829 361.85 359.789C336.93 359.049 312.09 358.949 293.24 358.949C283.52 358.949 273.8 358.979 264.08 359.009C254.36 359.039 244.65 359.069 234.94 359.069H226.53C223.22 359.069 220.42 356.149 220.42 352.689C220.42 349.229 223.22 346.309 226.53 346.309H384.36C385.01 346.309 385.65 346.419 386.27 346.649C388.32 344.189 393.15 337.589 392.78 330.379C392.56 326.069 390.38 321.969 386.3 318.179C385.67 318.409 385.02 318.529 384.36 318.529H226.53C223.22 318.529 220.42 315.609 220.42 312.149C220.42 308.689 223.22 305.769 226.53 305.769H231.73C247.59 305.769 263.74 305.929 279.37 306.079C295.02 306.229 311.2 306.389 327.1 306.389C347.01 306.389 363.57 306.149 379.22 305.619L379.74 305.599C380.52 305.569 381.3 305.549 382.08 305.539H382.34C386.78 305.539 390.12 306.219 392.87 307.689C400.24 311.629 404.61 322.039 404.99 329.829C405.47 339.799 401.49 349.359 394.61 354.779C388.56 359.549 380.3 360.159 373.78 360.159V360.179ZM293.24 357.259C312.1 357.259 336.96 357.359 361.9 358.099C363.2 358.139 364.54 358.199 365.92 358.259C368.47 358.369 371.12 358.489 373.78 358.489C380.03 358.489 387.92 357.919 393.56 353.469C400.02 348.379 403.75 339.359 403.29 329.929C402.94 322.599 398.89 312.849 392.07 309.199C389.58 307.869 386.49 307.249 382.34 307.249H382.09C381.33 307.249 380.56 307.279 379.8 307.309L379.28 307.329C363.6 307.859 347.02 308.099 327.1 308.099C311.19 308.099 295 307.939 279.35 307.789C263.73 307.629 247.58 307.479 231.73 307.479H226.53C224.18 307.479 222.12 309.669 222.12 312.159C222.12 314.649 224.18 316.839 226.53 316.839H384.36C384.95 316.839 385.54 316.699 386.1 316.429C386.41 316.279 386.78 316.329 387.03 316.559C391.71 320.759 394.22 325.389 394.47 330.299C394.9 338.659 388.97 346.149 387.14 348.239C386.89 348.529 386.47 348.609 386.13 348.439C385.55 348.159 384.95 348.009 384.35 348.009H226.52C224.17 348.009 222.11 350.199 222.11 352.689C222.11 355.179 224.17 357.369 226.52 357.369H234.93C244.64 357.369 254.35 357.339 264.07 357.309C273.79 357.279 283.51 357.249 293.24 357.249V357.259Z" fill="#333333"/>
<path d="M385.89 324.509H327.64C327.17 324.509 326.79 324.129 326.79 323.659C326.79 323.189 327.17 322.809 327.64 322.809H385.89C386.36 322.809 386.74 323.189 386.74 323.659C386.74 324.129 386.36 324.509 385.89 324.509Z" fill="#333333"/>
<path d="M315.11 325.419H282.06C281.59 325.419 281.21 325.039 281.21 324.569C281.21 324.099 281.59 323.719 282.06 323.719H315.11C315.58 323.719 315.96 324.099 315.96 324.569C315.96 325.039 315.58 325.419 315.11 325.419Z" fill="#333333"/>
<path d="M255.05 324.659H233.02C232.55 324.659 232.17 324.279 232.17 323.809C232.17 323.339 232.55 322.959 233.02 322.959H255.05C255.52 322.959 255.9 323.339 255.9 323.809C255.9 324.279 255.52 324.659 255.05 324.659Z" fill="#333333"/>
<path d="M311.64 332.96H232.81C232.34 332.96 231.96 332.58 231.96 332.11C231.96 331.64 232.34 331.26 232.81 331.26H311.64C312.11 331.26 312.49 331.64 312.49 332.11C312.49 332.58 312.11 332.96 311.64 332.96Z" fill="#333333"/>
<path d="M387.09 332.21H347.85C347.38 332.21 347 331.83 347 331.36C347 330.89 347.38 330.51 347.85 330.51H387.09C387.56 330.51 387.94 330.89 387.94 331.36C387.94 331.83 387.56 332.21 387.09 332.21Z" fill="#333333"/>
<path d="M387.999 342.319H377.289C376.819 342.319 376.439 341.939 376.439 341.469C376.439 340.999 376.819 340.619 377.289 340.619H387.999C388.469 340.619 388.849 340.999 388.849 341.469C388.849 341.939 388.469 342.319 387.999 342.319Z" fill="#333333"/>
<path d="M257.759 343.528H230.289C229.819 343.528 229.439 343.148 229.439 342.678C229.439 342.208 229.819 341.828 230.289 341.828H257.759C258.229 341.828 258.609 342.208 258.609 342.678C258.609 343.148 258.229 343.528 257.759 343.528Z" fill="#333333"/>
<path d="M263.14 285.932V329.222L273.96 323.242L284.5 330.072V285.932C284.5 285.932 262.71 286.362 263.14 285.932Z" fill="#A1C3FF"/>
<path d="M284.5 330.921C284.34 330.921 284.18 330.871 284.04 330.781L273.93 324.221L263.55 329.951C263.29 330.091 262.97 330.091 262.71 329.941C262.45 329.791 262.29 329.511 262.29 329.211V286.041C262.29 286.041 262.29 285.981 262.29 285.951C262.29 285.721 262.38 285.491 262.54 285.321C262.78 285.081 263.15 285.001 263.47 285.141C263.49 285.141 263.51 285.161 263.53 285.171C263.86 285.211 264.94 285.271 268.49 285.271C274.74 285.271 284.39 285.081 284.48 285.081C284.71 285.101 284.93 285.161 285.09 285.321C285.25 285.481 285.34 285.701 285.34 285.931V330.071C285.34 330.381 285.17 330.671 284.9 330.821C284.77 330.891 284.63 330.921 284.49 330.921H284.5ZM273.96 322.391C274.12 322.391 274.28 322.441 274.42 322.531L283.65 328.511V286.801C281.13 286.851 273.65 286.971 268.49 286.971C266.18 286.971 264.82 286.951 263.99 286.911V327.781L273.55 322.501C273.68 322.431 273.82 322.391 273.96 322.391Z" fill="#333333"/>
<path d="M284.5 330.31C284.5 330.31 284.41 330.3 284.37 330.27L273.96 323.51L263.27 329.42C263.19 329.46 263.1 329.46 263.03 329.42C262.96 329.38 262.91 329.3 262.91 329.21V285.99C262.91 285.99 262.91 285.96 262.91 285.94C262.91 285.87 262.94 285.8 262.99 285.75C263.06 285.68 263.16 285.66 263.26 285.7C263.29 285.71 263.31 285.73 263.34 285.75C263.58 285.79 264.57 285.87 268.52 285.87C274.77 285.87 284.43 285.68 284.53 285.68C284.6 285.68 284.66 285.7 284.71 285.75C284.76 285.8 284.78 285.86 284.78 285.92V330.06C284.78 330.15 284.73 330.23 284.65 330.27C284.61 330.29 284.57 330.3 284.53 330.3L284.5 330.31ZM273.96 322.99C273.96 322.99 274.05 323 274.09 323.03L284.25 329.62V286.18C282.69 286.21 274.18 286.36 268.48 286.36C265.2 286.36 263.91 286.31 263.38 286.25V328.8L273.84 323.02C273.84 323.02 273.92 322.99 273.96 322.99Z" fill="#A1C3FF"/>
<path d="M284.5 331.16C284.29 331.16 284.08 331.1 283.91 330.99L273.92 324.51L263.67 330.17C263.32 330.36 262.91 330.35 262.58 330.15C262.25 329.95 262.04 329.59 262.04 329.21V286.04C262.04 286.04 262.04 285.97 262.04 285.94C262.04 285.67 262.15 285.36 262.37 285.15C262.68 284.84 263.17 284.74 263.58 284.92C263.58 284.92 263.59 284.92 263.6 284.92C263.94 284.95 265.03 285.01 268.49 285.01C274.22 285.01 282.77 284.85 284.43 284.82C284.45 284.82 284.51 284.82 284.53 284.82C284.81 284.82 285.07 284.94 285.27 285.13C285.48 285.34 285.6 285.62 285.6 285.91V330.05C285.6 330.45 285.38 330.82 285.03 331.01C284.87 331.1 284.69 331.14 284.51 331.14L284.5 331.16ZM273.96 322.14C274.17 322.14 274.38 322.2 274.55 322.31L283.4 328.05V287.03C280.36 287.08 273.4 287.2 268.48 287.2C266.23 287.2 264.97 287.18 264.23 287.15V327.35L273.43 322.26C273.6 322.17 273.78 322.12 273.96 322.12V322.14Z" fill="#333333"/>
<path d="M347.03 46.0698L337.94 47.9098L332.77 22.4298L341.86 20.5898L347.03 46.0698ZM349.46 54.1398C349.75 55.5798 349.49 56.8998 348.66 58.0998C347.83 59.2998 346.68 60.0498 345.2 60.3498C343.79 60.6398 342.47 60.3898 341.22 59.6098C339.97 58.8298 339.21 57.7398 338.92 56.3298C338.63 54.9198 338.9 53.6098 339.73 52.3898C340.55 51.1698 341.69 50.4198 343.13 50.1198C344.61 49.8198 345.96 50.0598 347.19 50.8398C348.42 51.6198 349.18 52.7198 349.46 54.1298V54.1398Z" fill="#333333"/>
<path d="M360.21 57.6195C360.06 58.6695 359.55 59.4995 358.7 60.1195C357.85 60.7295 356.88 60.9595 355.8 60.8095C354.77 60.6595 353.93 60.1695 353.28 59.3395C352.62 58.5095 352.37 57.5795 352.52 56.5495C352.67 55.5295 353.17 54.6995 354.02 54.0695C354.88 53.4395 355.83 53.2095 356.88 53.3595C357.96 53.5195 358.82 54.0095 359.46 54.8395C360.1 55.6695 360.35 56.5995 360.2 57.6195H360.21ZM360.52 51.5495L353.9 50.5895L356.59 32.0195L363.21 32.9795L360.52 51.5495Z" fill="#333333"/>
<path d="M110.66 338.829L118.13 336.459L110.65 333.909C108.41 333.319 106.7 331.519 106.22 329.259L103.85 318.029L101.3 329.009C100.76 331.329 98.9303 333.119 96.6103 333.609L89.5703 336.029L96.3603 338.429C98.7403 338.979 100.56 340.899 101 343.299L102.96 354.159L105.82 343.289C106.43 340.989 108.31 339.249 110.65 338.829H110.66Z" fill="#333333"/>
<path d="M168 29.7307L173.58 27.9607L168 26.0607C166.33 25.6207 165.05 24.2807 164.7 22.5907L162.93 14.2207L161.03 22.4107C160.63 24.1407 159.26 25.4807 157.53 25.8407L152.28 27.6507L157.35 29.4407C159.12 29.8507 160.48 31.2807 160.81 33.0707L162.27 41.1707L164.4 33.0607C164.85 31.3507 166.26 30.0507 168 29.7307Z" fill="#333333"/>
</svg>
