<svg width="498" height="395" viewBox="0 0 498 395" fill="none" xmlns="http://www.w3.org/2000/svg">
<path d="M177.43 88.5893C168.93 81.1993 160.66 73.0693 151.8 66.6193C122.33 45.1293 80.6496 42.6993 51.3596 64.4893C30.3096 80.1393 17.3396 106.109 11.4196 132.929C-2.0704 193.959 3.0096 289.559 53.4096 331.239C63.6696 339.729 75.6596 345.429 87.7296 350.439C126.83 366.649 168.17 382.799 209.92 388.549C236.78 392.249 265.64 389.179 287.97 372.669C318 350.459 325.82 312.669 336.2 277.569C347.61 239.019 370.37 205.329 388.57 170.209C400.59 147.019 411.29 121.569 409.84 95.0493C408.38 68.5293 390.96 41.3493 366.44 38.7993C354.82 37.5893 343.34 41.8593 332.56 46.6893C311.81 55.9893 291.96 67.6493 273.47 81.4093C256 94.4093 237.63 110.009 216.43 108.699C201.56 107.779 189.28 98.8993 177.43 88.5993V88.5893Z" fill="#4257FF"/>
<path d="M325.135 154.737C357.185 122.687 357.185 70.7231 325.135 38.6728C293.085 6.62249 241.121 6.6225 209.07 38.6728C177.02 70.7231 177.02 122.687 209.07 154.737C241.121 186.788 293.085 186.788 325.135 154.737Z" fill="#D0E1FF"/>
<path d="M267.08 179.65C249.72 179.65 232.39 174 218.28 163.73C203.69 153.12 193.16 138.37 187.85 121.07C181.34 99.8998 183.47 77.4598 193.83 57.8898C204.2 38.3198 221.57 23.9498 242.74 17.4398C250.69 14.9998 258.9 13.7598 267.14 13.7598C284.5 13.7598 301.83 19.4098 315.94 29.6798C330.53 40.2898 341.06 55.0498 346.37 72.3398C359.81 116.05 335.18 162.54 291.48 175.97C283.53 178.41 275.32 179.65 267.09 179.65H267.08ZM267.13 15.4598C259.06 15.4598 251.02 16.6698 243.23 19.0698C222.49 25.4498 205.48 39.5198 195.32 58.6898C185.16 77.8598 183.08 99.8398 189.46 120.58C200.01 154.9 231.2 177.95 267.07 177.96C275.13 177.96 283.17 176.75 290.96 174.35C333.77 161.19 357.89 115.65 344.73 72.8398C334.18 38.5198 302.99 15.4598 267.12 15.4598H267.13Z" fill="black"/>
<path d="M300.078 147.636C328.21 129.423 336.25 91.8532 318.037 63.7216C299.824 35.5901 262.255 27.5496 234.123 45.7626C205.992 63.9757 197.951 101.545 216.164 129.677C234.377 157.808 271.947 165.849 300.078 147.636Z" fill="white"/>
<path d="M267.091 158.248C239.921 158.248 216.291 140.778 208.301 114.788C203.471 99.078 205.051 82.428 212.741 67.908C220.431 53.388 233.321 42.728 249.031 37.898C254.931 36.088 261.021 35.168 267.131 35.168C294.301 35.168 317.931 52.638 325.921 78.628C330.751 94.338 329.171 110.988 321.481 125.508C313.791 140.028 300.901 150.688 285.191 155.518C279.291 157.328 273.201 158.248 267.091 158.248ZM267.131 36.858C261.191 36.858 255.261 37.748 249.531 39.518C234.251 44.218 221.721 54.578 214.241 68.698C206.761 82.818 205.231 99.008 209.921 114.288C217.691 139.568 240.661 156.548 267.091 156.548C273.031 156.548 278.951 155.658 284.691 153.888C299.971 149.188 312.501 138.828 319.981 124.708C327.461 110.588 328.991 94.398 324.301 79.118C316.531 53.838 293.551 36.858 267.131 36.858Z" fill="#A1C3FF"/>
<path d="M305.608 116.778C316.695 95.5082 308.44 69.2783 287.17 58.1917C265.9 47.1052 239.67 55.3604 228.584 76.6302C217.497 97.9 225.752 124.13 247.022 135.216C268.292 146.303 294.522 138.048 305.608 116.778Z" fill="#D0E1FF"/>
<path d="M267.09 140.998C247.53 140.998 230.53 128.428 224.78 109.718C221.3 98.4082 222.44 86.4282 227.98 75.9782C233.52 65.5282 242.79 57.8582 254.1 54.3782C258.35 53.0782 262.73 52.4082 267.13 52.4082C286.69 52.4082 303.69 64.9782 309.44 83.6882C316.62 107.028 303.47 131.848 280.13 139.028C275.89 140.328 271.5 140.998 267.1 140.998H267.09ZM267.12 54.1082C262.89 54.1082 258.67 54.7482 254.59 55.9982C243.72 59.3382 234.8 66.7182 229.47 76.7682C224.15 86.8182 223.05 98.3382 226.4 109.218C231.93 127.208 248.28 139.298 267.09 139.298C271.32 139.298 275.53 138.658 279.62 137.408C302.06 130.508 314.71 106.638 307.81 84.1882C302.28 66.1982 285.93 54.1082 267.12 54.1082Z" fill="black"/>
<path d="M291.876 107.669C297.919 93.9943 291.732 78.0102 278.057 71.9675C264.382 65.9248 248.398 72.1118 242.355 85.7865C236.313 99.4613 242.5 115.445 256.174 121.488C269.849 127.531 285.833 121.344 291.876 107.669Z" fill="white"/>
<path d="M267.1 124.629C254.77 124.629 244.05 116.709 240.43 104.909C238.24 97.7793 238.95 90.2293 242.44 83.6393C245.93 77.0493 251.78 72.2193 258.9 70.0193C261.58 69.1993 264.34 68.7793 267.11 68.7793C279.44 68.7793 290.16 76.6993 293.78 88.4993C298.3 103.209 290.01 118.859 275.3 123.389C272.62 124.209 269.86 124.629 267.09 124.629H267.1ZM267.12 70.4793C264.52 70.4793 261.92 70.8693 259.41 71.6493C252.72 73.7093 247.22 78.2493 243.95 84.4393C240.67 90.6293 240 97.7193 242.06 104.419C245.46 115.499 255.53 122.939 267.11 122.939C269.71 122.939 272.31 122.549 274.82 121.779C288.64 117.529 296.42 102.829 292.17 89.0193C288.76 77.9393 278.7 70.4993 267.12 70.4993V70.4793Z" fill="#A1C3FF"/>
<path d="M267.1 110.199C274.551 110.199 280.59 104.159 280.59 96.7087C280.59 89.2584 274.551 83.2188 267.1 83.2188C259.65 83.2188 253.61 89.2584 253.61 96.7087C253.61 104.159 259.65 110.199 267.1 110.199Z" fill="#D0E1FF"/>
<path d="M267.1 111.049C260.77 111.049 255.26 106.979 253.4 100.919C251.08 93.3594 255.34 85.3194 262.89 82.9994C264.26 82.5794 265.68 82.3594 267.11 82.3594C273.44 82.3594 278.95 86.4294 280.81 92.4894C281.94 96.1494 281.57 100.029 279.77 103.419C277.98 106.809 274.97 109.289 271.31 110.419C269.94 110.839 268.52 111.059 267.09 111.059L267.1 111.049ZM267.1 84.0594C265.84 84.0594 264.59 84.2494 263.38 84.6194C256.72 86.6694 252.96 93.7594 255.01 100.419C256.65 105.759 261.51 109.349 267.09 109.349C268.34 109.349 269.6 109.159 270.81 108.789C274.04 107.799 276.69 105.609 278.27 102.619C279.85 99.6394 280.18 96.2094 279.18 92.9894C277.54 87.6494 272.68 84.0594 267.1 84.0594Z" fill="black"/>
<path d="M186.76 48.7993L183.78 34.6193L160.77 20.0293L167.32 40.0293L186.76 48.7993Z" fill="white"/>
<path d="M186.76 49.6496C186.64 49.6496 186.52 49.6296 186.41 49.5696L166.97 40.7996C166.75 40.6996 166.59 40.5196 166.51 40.2896L159.96 20.2896C159.85 19.9496 159.96 19.5796 160.25 19.3596C160.53 19.1396 160.92 19.1196 161.23 19.3096L184.24 33.8996C184.43 34.0196 184.57 34.2196 184.62 34.4396L187.6 48.6196C187.67 48.9296 187.55 49.2596 187.3 49.4596C187.15 49.5796 186.96 49.6496 186.77 49.6496H186.76ZM168.01 39.4096L185.59 47.3396L183.03 35.1396L162.32 22.0096L168.01 39.4096Z" fill="black"/>
<path d="M186.82 48.5808L173.94 55.2308L148.1 46.6008L167.74 39.0508L186.82 48.5808Z" fill="white"/>
<path d="M173.94 56.0804C173.85 56.0804 173.76 56.0704 173.67 56.0404L147.83 47.4104C147.49 47.3004 147.26 46.9804 147.25 46.6204C147.25 46.2604 147.46 45.9404 147.79 45.8104L167.43 38.2604C167.65 38.1804 167.9 38.1904 168.11 38.2904L187.19 47.8304C187.48 47.9704 187.66 48.2604 187.66 48.5804C187.66 48.9004 187.48 49.1904 187.2 49.3404L174.32 55.9904C174.2 56.0504 174.06 56.0804 173.93 56.0804H173.94ZM150.61 46.5504L173.87 54.3204L184.94 48.6004L167.69 39.9804L150.61 46.5504Z" fill="black"/>
<path d="M261.72 94.9402C261.27 95.0402 260.79 94.9902 260.36 94.7402L166.9 41.6502C165.99 41.1302 165.67 39.9802 166.19 39.0702C166.71 38.1602 167.86 37.8502 168.77 38.3602L262.23 91.4502C263.14 91.9702 263.46 93.1202 262.94 94.0302C262.67 94.5102 262.22 94.8202 261.72 94.9402Z" fill="black"/>
<path d="M269.29 98.2402L256.81 75.7402L255.79 89.4402L244.28 96.6902L269.29 98.2402Z" fill="white"/>
<path d="M269.29 99.0902C269.29 99.0902 269.26 99.0902 269.24 99.0902L244.23 97.5302C243.86 97.5102 243.55 97.2502 243.46 96.8902C243.37 96.5302 243.52 96.1602 243.83 95.9602L254.98 88.9502L255.97 75.6802C256 75.3102 256.27 74.9902 256.63 74.9102C257 74.8302 257.37 75.0002 257.55 75.3302L270.03 97.8302C270.18 98.1002 270.17 98.4302 270.01 98.7002C269.85 98.9502 269.58 99.1002 269.29 99.1002V99.0902ZM246.96 96.0002L267.8 97.3002L257.45 78.6402L256.64 89.5002C256.62 89.7702 256.47 90.0102 256.25 90.1602L246.97 96.0002H246.96Z" fill="black"/>
<path d="M50.5703 111.248L59.8003 108.318L50.5703 105.168C47.8103 104.438 45.6903 102.218 45.1003 99.4284L42.1703 85.5684L39.0203 99.1284C38.3603 101.988 36.1003 104.208 33.2203 104.808L24.5303 107.798L32.9203 110.758C35.8603 111.438 38.1103 113.808 38.6503 116.768L41.0703 130.178L44.6003 116.758C45.3503 113.918 47.6703 111.768 50.5603 111.248H50.5703Z" fill="white"/>
<path d="M359.56 41.1091L364.32 39.5991L359.56 37.9791C358.14 37.6091 357.05 36.4591 356.74 35.0191L355.23 27.8691L353.61 34.8591C353.27 36.3291 352.1 37.4791 350.62 37.7891L346.14 39.3291L350.46 40.8591C351.97 41.2091 353.13 42.4291 353.41 43.9591L354.66 50.8691L356.48 43.9491C356.87 42.4891 358.06 41.3791 359.55 41.1091H359.56Z" fill="black"/>
<path d="M366.46 220.039L372.96 217.979L366.46 215.759C364.52 215.249 363.03 213.679 362.61 211.719L360.55 201.959L358.33 211.509C357.86 213.519 356.27 215.089 354.25 215.509L348.13 217.619L354.04 219.699C356.11 220.179 357.7 221.849 358.07 223.939L359.78 233.389L362.27 223.939C362.8 221.939 364.43 220.429 366.47 220.059L366.46 220.039Z" fill="black"/>
<path d="M257.97 150.751C264.77 140.241 271.55 155.601 275.12 164.671C278.68 173.731 302.46 208.501 309.58 209.151C316.69 209.801 336.63 220.821 327.89 225.831C319.16 230.851 275.6 216.591 275.6 216.591L255.7 184.401C255.7 184.401 251.17 161.271 257.97 150.751Z" fill="black"/>
<path d="M60.1205 393.279L20.5605 392.309L27.9405 313.209L57.0205 334.319L67.4905 362.829L60.1205 393.269V393.279Z" fill="white"/>
<path d="M60.1201 394.12H60.1001L20.5401 393.15C20.3101 393.15 20.0801 393.04 19.9301 392.86C19.7701 392.68 19.7001 392.45 19.7201 392.22L27.1001 313.12C27.1301 312.82 27.3201 312.55 27.6001 312.43C27.8801 312.3 28.2001 312.34 28.4501 312.52L57.5301 333.63C57.6701 333.73 57.7701 333.87 57.8301 334.02L68.3001 362.53C68.3601 362.69 68.3701 362.86 68.3301 363.02L60.9601 393.47C60.8701 393.85 60.5301 394.12 60.1401 394.12H60.1201ZM21.4901 391.48L59.4601 392.41L66.6101 362.88L56.3201 334.85L28.6501 314.76L21.4901 391.47V391.48Z" fill="black"/>
<path d="M250.71 174.239C294.54 147.469 381.43 63.4893 381.43 63.4893C387.88 47.8193 406.83 19.3693 418.13 28.9193C418.13 28.9193 423.46 22.6293 429.53 23.5393C435.15 24.3793 436.41 31.0293 436.41 31.0293C436.41 31.0293 443.58 24.3993 449.59 28.0893C453.1 30.2393 454.37 35.6893 454.37 35.6893L485.58 2.36931C493.19 -3.16069 501.34 7.25931 493.63 19.7893C487.12 30.3893 462.71 59.4993 464.36 62.7293C466.69 67.2993 467.81 85.4993 460.27 97.9993C452.73 110.509 418.47 122.289 418.47 122.289C418.47 122.289 325.97 214.119 293.33 234.519C282.13 230.049 206.88 201.019 250.71 174.229V174.239Z" fill="white"/>
<path d="M293.33 235.37C293.22 235.37 293.12 235.35 293.01 235.31L292.28 235.02C256.79 220.91 237.44 206.5 236.32 193.33C235.71 186.2 240.4 179.54 250.26 173.51C292.74 147.56 376.9 66.66 380.7 63C386.07 50.06 400.96 26.16 413.04 26.16C414.85 26.16 416.52 26.7 418.02 27.78C419.46 26.3 423.5 22.61 428.29 22.61C428.74 22.61 429.2 22.64 429.64 22.71C434.21 23.39 436.14 27.41 436.86 29.55C438.51 28.3 441.89 26.13 445.57 26.13C447.18 26.13 448.67 26.55 450.02 27.37C452.64 28.98 454.09 32.16 454.75 34.04L484.97 1.79C484.97 1.79 485.05 1.72 485.09 1.68C486.6 0.58 488.25 0 489.85 0C492.44 0 494.75 1.47 496.18 4.03C498.61 8.38 497.93 14.44 494.36 20.24C491.9 24.25 486.96 30.79 481.74 37.72C474.96 46.72 464.7 60.32 465.14 62.4C467.59 67.21 468.6 85.87 461 98.45C453.6 110.73 421.95 121.99 418.93 123.04C414.85 127.08 325.55 215.4 293.78 235.25C293.64 235.34 293.49 235.38 293.33 235.38V235.37ZM413.05 27.85C402.73 27.85 388.27 49.11 382.22 63.81C382.18 63.92 382.11 64.02 382.03 64.1C381.16 64.94 294.57 148.45 251.16 174.96C241.89 180.62 237.48 186.75 238.02 193.19C238.76 201.9 248.89 215.95 292.92 233.45L293.25 233.58C325.76 213.01 416.96 122.61 417.88 121.7C417.97 121.61 418.08 121.54 418.2 121.5C418.54 121.38 452.26 109.68 459.55 97.58C466.84 85.5 465.95 67.72 463.62 63.13C462.47 60.87 467.85 53.34 480.39 36.7C485.59 29.81 490.5 23.3 492.92 19.35C496.74 13.15 496.34 7.8 494.7 4.86C493.58 2.85 491.81 1.7 489.85 1.7C488.62 1.7 487.37 2.14 486.16 3.01L455 36.27C454.79 36.5 454.46 36.59 454.16 36.51C453.86 36.43 453.62 36.19 453.55 35.88C453.54 35.83 452.31 30.75 449.15 28.81C448.08 28.15 446.88 27.82 445.59 27.82C441.19 27.82 437.03 31.61 436.99 31.65C436.76 31.86 436.44 31.93 436.15 31.83C435.86 31.73 435.64 31.49 435.58 31.18C435.57 31.12 434.36 25.11 429.41 24.37C429.05 24.32 428.68 24.29 428.31 24.29C423.21 24.29 418.82 29.41 418.78 29.46C418.48 29.82 417.94 29.86 417.58 29.56C416.21 28.41 414.73 27.84 413.05 27.84V27.85Z" fill="black"/>
<path d="M451.81 82.0795C451.66 82.0795 451.51 82.0395 451.37 81.9495C450.97 81.6995 450.85 81.1795 451.09 80.7795C451.15 80.6895 456.92 71.2895 463.54 60.7695C463.79 60.3695 464.31 60.2495 464.71 60.4995C465.11 60.7495 465.23 61.2695 464.98 61.6695C458.37 72.1895 452.6 81.5795 452.54 81.6695C452.38 81.9295 452.1 82.0695 451.82 82.0695L451.81 82.0795Z" fill="black"/>
<path d="M448.631 43.7605C448.451 43.7605 448.271 43.7005 448.111 43.5805C447.741 43.2905 447.671 42.7605 447.951 42.3905L448.321 41.9105C449.691 40.1305 451.391 37.9105 453.791 34.9605C454.091 34.6005 454.621 34.5405 454.981 34.8405C455.341 35.1405 455.401 35.6705 455.101 36.0305C452.721 38.9605 451.021 41.1705 449.661 42.9505L449.291 43.4305C449.121 43.6505 448.871 43.7605 448.621 43.7605H448.631Z" fill="black"/>
<path d="M423.15 37.0906C423.1 37.0906 423.05 37.0906 423 37.0806C422.54 36.9906 422.23 36.5506 422.32 36.0906C422.56 34.7906 424.53 34.0606 429.68 32.4406C432.37 31.5906 435.42 30.6306 436.6 29.7706C436.98 29.4906 437.51 29.5706 437.79 29.9506C438.07 30.3306 437.98 30.8606 437.61 31.1406C436.21 32.1706 433.15 33.1306 430.2 34.0606C427.92 34.7806 424.48 35.8606 423.99 36.4806C423.89 36.8506 423.55 37.1006 423.17 37.1006L423.15 37.0906Z" fill="black"/>
<path d="M408.81 41.6205C408.72 41.6205 408.64 41.6105 408.55 41.5805C408.1 41.4405 407.86 40.9605 408 40.5105C408.7 38.3505 415.82 29.9605 418.41 27.5405C418.75 27.2205 419.29 27.2405 419.61 27.5805C419.93 27.9205 419.91 28.4605 419.57 28.7805C416.84 31.3405 410.12 39.4605 409.62 41.0305C409.5 41.3905 409.17 41.6205 408.81 41.6205Z" fill="black"/>
<path d="M436.3 64.8493C435.99 64.8493 435.69 64.6793 435.54 64.3893C435.33 63.9693 435.49 63.4593 435.91 63.2493L443.72 59.2293C444.14 59.0093 444.65 59.1793 444.86 59.5993C445.07 60.0193 444.91 60.5293 444.49 60.7393L436.68 64.7593C436.56 64.8193 436.42 64.8493 436.29 64.8493H436.3Z" fill="black"/>
<path d="M441.201 66.7993C440.811 66.7993 440.461 66.5293 440.371 66.1393L438.561 58.0493C438.461 57.5893 438.751 57.1393 439.201 57.0393C439.661 56.9393 440.111 57.2293 440.211 57.6793L442.021 65.7693C442.121 66.2293 441.831 66.6793 441.381 66.7793C441.321 66.7893 441.261 66.7993 441.191 66.7993H441.201Z" fill="black"/>
<path d="M418.46 59.7009C418.15 59.7009 417.85 59.5309 417.7 59.2409C417.49 58.8209 417.65 58.3109 418.07 58.1009L425.88 54.0809C426.3 53.8609 426.81 54.0309 427.02 54.4509C427.23 54.8709 427.07 55.3809 426.65 55.5909L418.84 59.6009C418.72 59.6609 418.58 59.6909 418.45 59.6909L418.46 59.7009Z" fill="black"/>
<path d="M423.361 61.6506C422.971 61.6506 422.621 61.3806 422.531 60.9906L420.731 52.9106C420.631 52.4506 420.921 52.0006 421.371 51.9006C421.831 51.8006 422.281 52.0906 422.381 52.5406L424.181 60.6206C424.281 61.0806 423.991 61.5306 423.541 61.6306C423.481 61.6406 423.421 61.6506 423.361 61.6506Z" fill="black"/>
<path d="M401.34 55.5602C401.03 55.5602 400.73 55.3902 400.58 55.1002C400.37 54.6802 400.53 54.1702 400.95 53.9602L408.76 49.9402C409.18 49.7202 409.69 49.8902 409.9 50.3102C410.11 50.7302 409.95 51.2402 409.53 51.4502L401.72 55.4702C401.6 55.5302 401.46 55.5602 401.33 55.5602H401.34Z" fill="black"/>
<path d="M406.241 57.51C405.851 57.51 405.501 57.24 405.411 56.85L403.611 48.77C403.511 48.31 403.801 47.86 404.251 47.76C404.711 47.66 405.161 47.95 405.261 48.4L407.061 56.48C407.161 56.94 406.871 57.39 406.421 57.49C406.361 57.5 406.301 57.51 406.241 57.51Z" fill="black"/>
<path d="M486.72 16.7192C486.72 16.7192 486.67 16.7192 486.64 16.7192C486.43 16.6992 481.51 16.1692 477.68 11.1092C477.4 10.7392 477.47 10.1992 477.84 9.91925C478.21 9.63925 478.75 9.70925 479.03 10.0892C481.75 13.6792 485.13 14.6992 486.34 14.9492L491.23 8.19925C491.5 7.81925 492.03 7.72925 492.41 8.00925C492.79 8.27925 492.87 8.80925 492.6 9.18925L487.4 16.3692C487.24 16.5892 486.98 16.7192 486.71 16.7192H486.72Z" fill="black"/>
<path d="M149.14 214.1C169.2 201.57 177.43 194.76 211.46 182.59C245.48 170.41 259.8 149.99 259.8 149.99C259.8 149.99 264.33 177.38 277.21 196.36C290.1 215.34 327.84 224.84 327.84 224.84C327.84 224.84 307.69 240.5 300.27 248.12C290.64 258 250.48 269.15 252.62 293.5C254.77 317.85 258.84 389.23 258.84 389.23C66.4001 393.11 59.9801 393.48 59.9801 393.48L61.6901 347.21L18.4801 348.15L9.87012 321.97C9.87012 321.97 18.1201 321.53 28.7601 284.5C41.3901 240.56 59.5501 216.68 117.69 211.74C117.69 211.74 129.09 226.63 149.15 214.09L149.14 214.1Z" fill="black"/>
<path d="M107.35 159.461C107.35 159.461 98.2297 152.411 91.8397 155.731C85.4697 159.041 86.3897 173.511 94.0397 175.341C101.68 177.171 109.59 170.431 109.59 170.431L107.35 159.461Z" fill="white"/>
<path d="M96.78 176.51C95.77 176.51 94.78 176.4 93.84 176.17C90.16 175.29 87.5 171.65 86.89 166.67C86.36 162.31 87.56 157.01 91.45 154.98C92.71 154.33 94.14 153.99 95.71 153.99C101.6 153.99 107.61 158.59 107.87 158.79C108.03 158.91 108.14 159.09 108.18 159.29L110.42 170.26C110.48 170.56 110.37 170.87 110.14 171.08C109.88 171.3 103.69 176.51 96.78 176.51ZM95.71 155.69C94.41 155.69 93.24 155.96 92.23 156.48C89.53 157.89 88.03 161.99 88.57 166.46C88.98 169.8 90.68 173.67 94.23 174.52C95.04 174.71 95.89 174.81 96.77 174.81C102.13 174.81 107.23 171.18 108.64 170.09L106.57 159.95C105.41 159.11 100.38 155.69 95.7 155.69H95.71Z" fill="black"/>
<path d="M89.6903 118.53C86.6703 124.98 89.9603 137.18 94.6003 147.8C99.2203 158.33 94.3503 125.9 94.3503 125.9L100.41 115.32L89.6903 118.53Z" fill="black"/>
<path d="M90.5899 127.819C92.6499 124.489 98.6499 115.749 105.78 117.079C114.52 118.719 114.01 123.179 129.06 118.869C142.93 114.879 143.54 103.799 150.37 121.229C151.15 124.849 152.07 129.249 152.94 133.969C155.18 146.059 154.04 151.549 154.02 151.959L162.96 146.949L164.31 128.099C165.63 109.159 151.33 96.8791 132.2 96.3491C131.79 96.3191 131.27 96.3191 130.85 96.2891C93.5399 96.4991 90.8499 124.129 90.8499 124.129C90.5199 125.209 90.4799 126.529 90.5999 127.829L90.5899 127.819Z" fill="#4257FF"/>
<path d="M83.0901 122.9C90.7101 125.65 90.1201 128.61 89.9101 129.15C89.9901 129.03 90.2201 128.59 90.6101 127.91C92.6701 124.58 98.6701 115.84 105.8 117.17C114.54 118.81 114.03 123.27 129.08 118.96C142.94 114.97 143.56 103.89 150.39 121.32C151.17 124.93 152.09 129.34 152.96 134.06C155.2 146.15 154.06 151.64 154.03 152.05L158.13 149.76C159.86 147.41 163.66 142.94 168.27 141.69L169.02 120.2C175.31 110.3 177.71 105.48 170.8 100.36C163.66 95.0797 164.29 91.8197 152.85 90.6697C141.43 89.5397 139.74 73.1897 126.06 75.4197C112.38 77.6497 113.9 95.8597 103.66 95.0097C93.4401 94.2597 84.9601 87.9097 79.3901 96.7597C73.8101 105.52 74.8201 119.86 83.1001 122.9H83.0901Z" fill="black"/>
<path d="M158.12 149.659L162.95 146.939L168.08 144.059L168.14 141.609C163.64 142.839 159.83 147.309 158.12 149.659Z" fill="black"/>
<path d="M113.27 213.659L119.17 208.809L117.32 191.579C94.3804 189.419 94.7804 163.739 94.3604 151.519C93.9004 141.239 91.0604 133.739 90.6104 127.929C92.6704 124.599 98.6704 115.859 105.8 117.189C114.54 118.829 114.03 123.289 129.08 118.979C142.94 114.989 143.56 103.909 150.39 121.339C151.17 124.949 152.09 129.359 152.96 134.079C155.2 146.169 154.06 151.659 154.03 152.069L158.13 149.779C159.86 147.429 163.66 142.959 168.27 141.709C169.35 141.399 170.56 141.289 171.69 141.369C179.58 142.249 184.16 157.559 177.02 162.329C172.17 165.569 165.66 164.849 161.9 164.019L161.74 166.489L165.39 195.209L176.64 197.669C176.64 197.669 164.99 231.039 122.99 228.949C105.36 228.069 113.27 213.679 113.27 213.679V213.659Z" fill="white"/>
<path d="M126.72 229.869C125.48 229.869 124.22 229.839 122.95 229.779C117.22 229.489 113.43 227.769 111.7 224.659C108.99 219.809 112.39 213.509 112.53 213.249C112.58 213.159 112.65 213.069 112.73 212.999L118.28 208.439L116.55 192.339C94.6403 189.789 93.9403 166.129 93.5703 153.359C93.5503 152.719 93.5303 152.109 93.5103 151.529C93.2403 145.479 92.1403 140.449 91.1803 136.019C90.5203 132.989 89.9503 130.379 89.7603 127.979C89.7503 127.799 89.7903 127.619 89.8803 127.469C92.4903 123.259 97.8303 116.189 104.33 116.189C104.87 116.189 105.42 116.239 105.95 116.339C108.71 116.859 110.58 117.649 112.24 118.349C114.26 119.199 116.01 119.939 118.85 119.939C121.39 119.939 124.57 119.369 128.84 118.149C133.25 116.879 136.24 114.899 138.64 113.309C140.62 111.999 142.19 110.959 143.76 110.959C146.33 110.959 148.27 113.589 151.18 121.009C151.2 121.049 151.21 121.099 151.22 121.139C152.22 125.779 153.06 129.959 153.79 133.899C154.99 140.379 155.43 146.199 155.06 150.499L157.56 149.109C159.49 146.519 163.32 142.159 168.05 140.869C169.2 140.539 170.52 140.409 171.76 140.509C176.53 141.039 179.8 145.969 180.94 150.629C181.96 154.829 181.6 160.289 177.5 163.029C174.98 164.709 171.79 165.559 168.04 165.559C166.33 165.559 164.53 165.379 162.69 165.029L162.6 166.439L166.16 194.479L176.82 196.809C177.06 196.859 177.26 197.009 177.38 197.219C177.5 197.429 177.52 197.689 177.44 197.909C177.33 198.229 165.83 229.859 126.72 229.859V229.869ZM113.95 214.199C113.5 215.089 111.13 220.159 113.19 223.839C114.62 226.399 117.94 227.829 123.04 228.079C124.28 228.139 125.52 228.169 126.73 228.169C160.95 228.169 173.32 203.329 175.49 198.259L165.22 196.019C164.87 195.939 164.61 195.649 164.56 195.299L160.91 166.579C160.91 166.529 160.91 166.469 160.91 166.419L161.07 163.949C161.09 163.699 161.21 163.479 161.41 163.329C161.61 163.179 161.86 163.129 162.1 163.179C164.16 163.629 166.16 163.859 168.05 163.859C171.47 163.859 174.33 163.099 176.57 161.609C179.94 159.359 180.19 154.659 179.31 151.019C178.13 146.189 174.97 142.559 171.62 142.189C171.42 142.179 171.2 142.169 170.97 142.169C170.13 142.169 169.29 142.289 168.52 142.499C164.02 143.719 160.25 148.329 158.83 150.259C158.76 150.359 158.67 150.439 158.56 150.499L154.46 152.789C154.19 152.939 153.85 152.929 153.59 152.769C153.33 152.599 153.18 152.309 153.2 151.999C153.2 151.959 153.21 151.869 153.23 151.739C153.84 147.519 153.45 141.299 152.14 134.219C151.42 130.309 150.59 126.169 149.59 121.569C147.11 115.239 145.42 112.659 143.78 112.659C142.72 112.659 141.35 113.569 139.6 114.729C137.23 116.299 133.99 118.439 129.33 119.779C124.9 121.049 121.58 121.639 118.87 121.639C115.68 121.639 113.7 120.799 111.6 119.919C109.94 119.219 108.23 118.499 105.66 118.019C105.23 117.939 104.79 117.899 104.35 117.899C98.7903 117.899 93.9603 124.209 91.5003 128.139C91.7003 130.359 92.2403 132.829 92.8603 135.679C93.8403 140.179 94.9503 145.279 95.2303 151.479C95.2503 152.069 95.2703 152.689 95.2903 153.329C95.6503 165.709 96.3203 188.749 117.42 190.739C117.82 190.779 118.14 191.089 118.18 191.489L120.03 208.729C120.06 209.009 119.95 209.299 119.73 209.479L113.96 214.219L113.95 214.199Z" fill="black"/>
<path d="M106.35 147.97C105.98 145.96 104.79 144.5 103.7 144.69C102.6 144.89 102 146.68 102.37 148.69C102.74 150.7 103.92 152.17 105.02 151.97C106.13 151.77 106.72 149.99 106.35 147.97Z" fill="black"/>
<path d="M133.991 143.869C133.621 141.869 132.441 140.399 131.341 140.589C130.241 140.799 129.651 142.579 130.021 144.599C130.381 146.599 131.571 148.069 132.661 147.879C133.761 147.679 134.371 145.889 133.991 143.869Z" fill="black"/>
<path d="M123.231 132.95C123.451 133.62 124.241 133.99 125.001 134.15C128.651 135 132.501 135.2 136.301 134.59C136.991 134.46 137.591 134.35 138.251 134.03C139.271 133.44 139.631 132.05 139.231 131C138.861 130.15 138.031 129.5 137.161 129.25C136.271 128.9 135.341 128.88 134.411 128.85C130.891 128.68 126.991 128.8 124.321 131.02C123.581 131.46 123.001 132.17 123.241 132.94L123.231 132.95Z" fill="black"/>
<path d="M98.2999 138.89C100.54 138.78 103.15 137.38 104.76 137.18C106.18 137.02 109.13 137.39 109.04 135.28C108.69 133.92 107.39 133.04 106.11 132.77C105.04 132.55 104.03 132.64 102.91 132.75C100.59 132.98 96.7099 133.18 95.3899 135.46C95.0799 136.02 94.9099 136.76 95.2199 137.31C95.9699 138.6 97.0699 139.01 98.2899 138.88L98.2999 138.89Z" fill="black"/>
<path d="M117.34 162.019C117.22 162.019 117.1 161.989 116.98 161.939C116.81 161.859 112.89 159.989 112.07 156.829C111.59 154.999 112.56 152.459 113.58 149.769C114.25 148.009 114.94 146.199 115.12 144.759C115.18 144.289 115.6 143.979 116.07 144.019C116.53 144.079 116.86 144.499 116.81 144.969C116.6 146.599 115.87 148.519 115.17 150.369C114.29 152.689 113.37 155.089 113.71 156.399C114.23 158.389 116.76 159.969 117.7 160.399C118.12 160.599 118.31 161.099 118.11 161.529C117.97 161.839 117.66 162.019 117.34 162.019Z" fill="black"/>
<path d="M116.28 190.43C121.62 191.48 140.36 184.34 140.36 184.34C140.36 184.34 131.52 200.51 118.35 201.62L116.28 190.42V190.43Z" fill="black"/>
<path d="M164.35 157.58C164.02 157.58 163.71 157.39 163.57 157.07C162.67 155.02 162.11 150.43 166.38 147.74C167.97 146.74 169.56 146.41 171.13 146.76C173.81 147.37 175.35 149.8 175.42 149.9C175.67 150.3 175.55 150.82 175.15 151.07C174.75 151.32 174.23 151.2 173.98 150.8C173.71 150.37 171.21 146.69 167.29 149.17C163.19 151.75 165.05 156.2 165.13 156.39C165.31 156.82 165.12 157.32 164.69 157.5C164.58 157.55 164.46 157.57 164.35 157.57V157.58Z" fill="black"/>
<path d="M168.351 154.101C168.201 154.101 168.041 154.061 167.901 153.971L164.051 151.531C163.651 151.281 163.541 150.761 163.791 150.361C164.041 149.961 164.561 149.841 164.961 150.101L168.811 152.541C169.211 152.791 169.321 153.311 169.071 153.711C168.911 153.971 168.631 154.101 168.351 154.101Z" fill="black"/>
<path d="M137.78 100.99C138.31 100.59 138.73 99.9902 139.25 99.4902C140.32 98.5802 142.08 98.6602 143.14 97.6502C144.12 96.8602 144.34 95.2902 143.62 94.2102C142.89 93.0302 141.28 92.7102 139.92 92.5602C138.45 92.4202 137.03 92.4802 135.75 91.7002C134.25 90.7602 133.62 89.0502 132.63 87.6102C130.8 84.9002 127.4 83.2902 124.06 83.5102C122.13 83.6702 120.23 84.5302 119.07 86.0602C117.92 87.6002 117.94 89.9302 119.22 91.3202C120.63 92.7902 122.97 92.6602 125.09 92.4702C127.22 92.2702 129.44 92.0702 131.04 93.4002C132.02 94.2402 132.44 95.4802 132.78 96.7302C133.13 97.9902 133.46 99.2502 134.36 100.2C135.26 101.15 136.79 101.68 137.79 100.99H137.78Z" fill="white"/>
<path d="M88.6701 128.409C88.6701 128.409 88.5801 128.409 88.5401 128.399C82.7801 127.479 74.7001 123.979 70.8901 117.129C68.0901 112.099 68.0701 106.219 70.8101 99.6689C78.4701 81.4189 88.8801 84.8489 97.2401 87.5989C104.08 89.8589 107.54 87.8089 113.83 84.0789C114.93 83.4289 116.1 82.7389 117.37 82.0089C117.77 81.7789 118.29 81.9189 118.52 82.3289C118.75 82.7389 118.61 83.2489 118.2 83.4789C116.93 84.1989 115.77 84.8789 114.69 85.5289C108.42 89.2489 104.28 91.6989 96.7501 89.2089C88.2201 86.3989 79.4301 83.5089 72.3701 100.319C69.8301 106.379 69.8301 111.759 72.3701 116.309C75.8901 122.629 83.4201 125.869 88.8101 126.729C89.2701 126.799 89.5801 127.239 89.5101 127.699C89.4401 128.119 89.0801 128.409 88.6801 128.409H88.6701Z" fill="black"/>
<path d="M130.5 170.36C129.12 172.77 126.66 174.77 124.38 175.37C120.71 176.34 115 175.94 112.56 172.6C111.62 171.32 110.04 168.25 111.82 167.03C112.13 166.82 112.54 166.83 112.91 166.84C117.05 167.02 121.03 166.71 124.54 164.2C125.43 163.59 126.28 162.89 127.31 162.54C128.33 162.19 129.6 162.29 130.3 163.12C132.15 165.32 131.84 168.03 130.51 170.35L130.5 170.36Z" fill="white"/>
<path d="M120.65 176.68C116.74 176.68 113.54 175.38 111.88 173.11C111.67 172.82 109.85 170.26 110.21 168.12C110.34 167.37 110.73 166.75 111.34 166.33C111.79 166.02 112.29 165.99 112.63 165.99C112.74 165.99 112.84 165.99 112.94 165.99C113.54 166.02 114.13 166.03 114.71 166.03C118.72 166.03 121.59 165.25 124.04 163.51C124.24 163.37 124.43 163.24 124.61 163.11C125.35 162.59 126.11 162.05 127.02 161.73C127.47 161.58 127.96 161.49 128.43 161.49C129.47 161.49 130.36 161.87 130.94 162.56C132.83 164.8 132.94 167.79 131.23 170.76C129.76 173.33 127.09 175.51 124.59 176.17C123.38 176.49 122.01 176.66 120.64 176.66L120.65 176.68ZM112.63 167.69C112.38 167.69 112.31 167.73 112.29 167.74C112.06 167.9 111.93 168.11 111.88 168.41C111.69 169.5 112.59 171.22 113.24 172.11C115.14 174.71 119.05 174.99 120.64 174.99C121.87 174.99 123.09 174.84 124.16 174.56C126.25 174.01 128.5 172.16 129.76 169.95C130.54 168.59 131.56 165.96 129.64 163.68C129.3 163.28 128.73 163.21 128.43 163.21C128.14 163.21 127.85 163.26 127.57 163.35C126.88 163.59 126.25 164.03 125.59 164.5C125.4 164.64 125.2 164.77 125.01 164.91C122.28 166.86 119.1 167.74 114.71 167.74C114.1 167.74 113.48 167.72 112.86 167.7C112.78 167.7 112.7 167.7 112.62 167.7L112.63 167.69Z" fill="black"/>
<path d="M61.5605 348.11C61.5605 348.11 61.4905 348.11 61.4505 348.11C60.9705 348.05 60.6305 347.62 60.6905 347.14C65.0505 311.39 63.6005 290.18 63.5905 289.97C63.5605 289.49 63.9205 289.07 64.4005 289.03C64.8905 288.99 65.3005 289.36 65.3405 289.84C65.3505 290.05 66.8105 311.43 62.4405 347.35C62.3905 347.79 62.0105 348.12 61.5705 348.12L61.5605 348.11Z" fill="black"/>
<path d="M63.7597 307.8C63.5697 307.8 63.3897 307.74 63.2297 307.62C60.5897 305.58 56.0597 296.39 55.5497 295.35C55.3397 294.92 55.5197 294.39 55.9497 294.18C56.3797 293.97 56.9097 294.15 57.1197 294.58C58.4497 297.31 62.3297 304.71 64.2997 306.23C64.6797 306.53 64.7497 307.08 64.4597 307.46C64.2897 307.68 64.0297 307.8 63.7697 307.8H63.7597Z" fill="black"/>
<path d="M228.4 300.639C227.97 300.639 227.6 300.329 227.53 299.889C226.23 290.799 230.05 269.649 236.2 258.829C236.44 258.409 236.97 258.259 237.39 258.499C237.81 258.739 237.96 259.269 237.72 259.689C231.88 269.949 228 290.899 229.26 299.639C229.33 300.119 229 300.559 228.52 300.629C228.48 300.629 228.44 300.629 228.39 300.629L228.4 300.639Z" fill="black"/>
<path d="M125.75 239.079C120.17 239.079 114.89 238.199 110.7 236.029C104.65 232.909 101.65 227.569 101.78 220.179C101.78 219.699 102.18 219.279 102.67 219.319C103.15 219.319 103.54 219.729 103.53 220.209C103.42 226.879 106.1 231.689 111.5 234.479C124.5 241.189 149.64 234.599 157.78 228.619C158.17 228.329 158.72 228.419 159 228.809C159.29 229.199 159.2 229.749 158.81 230.029C152.78 234.459 138.51 239.089 125.74 239.089L125.75 239.079Z" fill="black"/>
<path d="M1.99006 168.74C1.95006 165.44 4.60006 162.74 7.86006 162.71C11.1201 162.68 13.8001 165.37 13.8301 168.67L13.9501 197.01L15.9301 196.96L15.7801 156.53C15.7601 152.67 18.8401 149.52 22.6601 149.51C26.4801 149.51 29.6101 152.63 29.6201 156.49L29.7601 196.84L31.5101 196.81L31.2801 148.25C31.2601 144.39 34.3501 141.24 38.1601 141.23C41.9801 141.23 45.1101 144.35 45.1301 148.21L45.3501 196.68H46.8601L46.6601 156.51C46.6401 152.64 49.7201 149.5 53.5401 149.49C57.3601 149.49 60.4801 152.61 60.4901 156.46L60.7001 198.17C60.7001 203.49 59.2601 215.22 62.1201 215.96C67.0101 217.12 68.9201 210.26 73.9601 200.93C79.0001 191.6 84.8801 193.79 87.1301 196.92C88.0601 198.19 80.4901 227.52 75.3001 240.65C70.5501 252.6 71.5401 254.32 65.0601 263.81L65.9101 393.25L10.7201 394.06L9.32006 267.23C0.320062 254.8 0.760062 237.77 0.900062 222.04C0.780062 221.66 2.17006 213.99 2.21006 213.59L1.98006 168.74H1.99006Z" fill="white"/>
<path d="M10.7 394.93C10.48 394.93 10.27 394.84 10.11 394.69C9.95001 394.53 9.86001 394.32 9.85001 394.09L8.45001 267.53C-0.259989 255.26 -0.109989 239.1 0.0400112 223.47V222.09C0.0200112 221.66 0.170011 220.51 1.08001 215.25C1.23001 214.39 1.34001 213.74 1.37001 213.54L1.14001 168.75C1.12001 166.93 1.81001 165.21 3.09001 163.91C4.36001 162.61 6.05001 161.89 7.85001 161.87C11.61 161.87 14.64 164.92 14.68 168.67L14.79 196.15H15.08L14.94 156.55C14.93 154.44 15.74 152.45 17.22 150.96C18.68 149.49 20.61 148.68 22.66 148.68C26.9 148.68 30.35 152.09 30.46 156.32L30.42 148.28C30.41 146.17 31.22 144.18 32.7 142.69C34.16 141.22 36.09 140.41 38.14 140.4C42.44 140.4 45.93 143.91 45.96 148.23L45.99 154.72C46.31 153.3 47.02 152 48.07 150.94C49.53 149.47 51.46 148.66 53.51 148.66C57.8 148.66 61.29 152.17 61.32 156.48L61.53 198.19C61.53 199.45 61.45 201.07 61.37 202.78C61.18 206.67 60.79 214.76 62.31 215.16C62.59 215.23 62.87 215.26 63.14 215.26C65.8 215.26 67.58 211.66 70.29 206.21C71.14 204.51 72.09 202.57 73.19 200.55C76.38 194.64 79.8 193.4 82.1 193.4C84.4 193.4 86.43 194.54 87.8 196.45C88.04 196.78 88.77 197.78 84.31 214.58C82.14 222.77 78.83 234 76.07 240.99C74.54 244.83 73.59 247.66 72.83 249.93C71.2 254.78 70.22 257.73 65.89 264.1L66.74 393.28C66.74 393.75 66.37 394.13 65.9 394.13L10.71 394.94H10.7V394.93ZM1.74001 221.93C1.74001 221.93 1.74001 222.01 1.74001 222.05V223.49C1.58001 238.94 1.43001 254.92 9.98001 266.76C10.08 266.9 10.14 267.07 10.14 267.25L11.53 393.23L65.02 392.45L64.18 263.85C64.18 263.68 64.23 263.51 64.33 263.37C68.65 257.04 69.56 254.33 71.21 249.4C71.98 247.11 72.93 244.25 74.48 240.37C79.72 227.1 86.55 199.95 86.33 197.34C85.49 196.24 83.97 195.1 82.09 195.1C79.45 195.1 76.89 197.26 74.67 201.36C73.59 203.36 72.64 205.28 71.8 206.97C68.81 212.99 66.84 216.96 63.13 216.96C62.73 216.96 62.31 216.91 61.89 216.81C59.21 216.12 59.27 210.77 59.66 202.7C59.74 201.01 59.82 199.42 59.82 198.2L59.61 156.49C59.59 153.11 56.86 150.36 53.52 150.36C51.9 150.36 50.4 151 49.26 152.14C48.1 153.31 47.46 154.87 47.47 156.53L47.67 196.7C47.67 196.93 47.58 197.14 47.42 197.3C47.26 197.46 47.04 197.55 46.82 197.55H45.31C44.84 197.55 44.46 197.17 44.46 196.71L44.24 148.24C44.22 144.85 41.49 142.1 38.14 142.1C36.53 142.1 35.02 142.74 33.88 143.88C32.72 145.05 32.08 146.61 32.09 148.27L32.32 196.83C32.32 197.3 31.95 197.67 31.49 197.68L29.74 197.71C29.5 197.69 29.29 197.63 29.13 197.47C28.97 197.31 28.88 197.09 28.88 196.87L28.74 156.52C28.74 153.14 26 150.38 22.65 150.38C21.04 150.38 19.53 151.02 18.39 152.16C17.23 153.33 16.59 154.89 16.6 156.55L16.75 196.98C16.75 197.44 16.38 197.82 15.92 197.83L13.94 197.88C13.71 197.88 13.49 197.8 13.33 197.64C13.17 197.48 13.07 197.26 13.07 197.03L12.95 168.69C12.92 165.87 10.65 163.58 7.88001 163.58C6.49001 163.59 5.22001 164.14 4.27001 165.11C3.31001 166.09 2.79001 167.38 2.81001 168.75L3.04001 213.6C3.04001 213.6 3.04001 213.66 3.04001 213.69C3.03001 213.83 2.95001 214.26 2.73001 215.56C2.43001 217.29 1.74001 221.32 1.72001 221.96L1.74001 221.93ZM30.46 157.92L30.59 195.98H30.64L30.46 157.92Z" fill="black"/>
<path d="M53.6795 222.529C53.6795 222.529 34.4695 227.339 32.0195 245.889Z" fill="white"/>
<path d="M32.0199 246.74C32.0199 246.74 31.9499 246.74 31.9099 246.74C31.4499 246.68 31.1199 246.25 31.1799 245.79C33.6799 226.89 53.2799 221.77 53.4799 221.72C53.9399 221.61 54.3899 221.88 54.5099 222.34C54.6199 222.8 54.3499 223.26 53.8899 223.37C53.6999 223.42 35.2099 228.28 32.8599 246.02C32.7999 246.45 32.4399 246.76 32.0199 246.76V246.74Z" fill="black"/>
<path d="M53.2803 204.049L11.7803 204.179Z" fill="white"/>
<path d="M11.7699 205.019C11.2999 205.019 10.9199 204.639 10.9199 204.169C10.9199 203.699 11.2999 203.319 11.7699 203.319L53.2699 203.189C53.7399 203.189 54.1199 203.569 54.1199 204.039C54.1199 204.509 53.7399 204.889 53.2699 204.889L11.7699 205.019Z" fill="black"/>
<path d="M344.6 264.139C339.69 260.099 334.54 258.529 329.3 259.449C324.45 260.309 320.42 263.199 317.45 266.089L318.33 253.479L218.68 252.699L219.35 265.009C216.46 262.179 212.58 259.399 207.92 258.509C202.69 257.509 197.52 258.999 192.55 262.959C186.69 267.629 184.2 274.389 185.53 281.999C187.39 292.629 196.27 302.349 207.63 306.189C217.28 309.449 222.31 313.259 224.84 315.869C229.89 327.699 239.81 336.909 252.06 340.979C258.73 343.199 263.14 349.569 263.08 356.609L263.02 364.669C262.96 372.059 256.92 378.009 249.53 377.949C245 377.909 241.3 381.559 241.27 386.079L241.25 388.189L293.65 388.599L293.67 386.489C293.71 381.959 290.06 378.259 285.54 378.229C278.15 378.169 272.2 372.129 272.26 364.739L272.32 356.679C272.37 349.649 276.88 343.339 283.58 341.229C295.7 337.409 305.64 328.589 310.94 317.109C313.31 314.539 318.43 310.479 328.85 307.139C340.27 303.479 349.3 293.899 351.33 283.299C352.78 275.709 350.39 268.909 344.61 264.149L344.6 264.139ZM209.27 301.299C199.79 298.099 192.11 289.789 190.59 281.099C189.89 277.089 190.21 271.389 195.75 266.979C199.53 263.959 203.18 262.839 206.92 263.559C213.2 264.759 217.98 270.899 219.81 273.579L221.27 300.619C221.39 302.849 221.69 305.039 222.12 307.169C218.93 305.189 214.75 303.149 209.28 301.299H209.27ZM346.26 282.319C344.6 290.979 336.79 299.169 327.27 302.219C321.57 304.049 317.26 306.099 314 308.089C314.49 305.899 314.83 303.649 314.99 301.349L316.84 274.819C318.39 272.519 323.5 265.699 330.22 264.519C333.97 263.859 337.59 265.039 341.33 268.119C346.79 272.609 347.03 278.319 346.27 282.319H346.26Z" fill="white"/>
<path d="M293.65 389.45L241.25 389.04C241.02 389.04 240.81 388.95 240.65 388.79C240.49 388.63 240.4 388.41 240.41 388.19L240.43 386.08C240.47 381.13 244.53 377.1 249.47 377.1H249.64C256.5 377.1 262.12 371.52 262.18 364.66L262.24 356.6C262.29 349.83 258.1 343.88 251.8 341.79C239.4 337.66 229.32 328.4 224.13 316.35C221.62 313.8 216.69 310.15 207.36 306.99C195.72 303.05 186.61 293.07 184.69 282.14C183.3 274.21 185.91 267.16 192.02 262.29C197.17 258.19 202.61 256.62 208.08 257.67C211.64 258.36 215.1 260.14 218.39 262.97L217.84 252.75C217.83 252.52 217.91 252.29 218.07 252.12C218.23 251.95 218.49 251.83 218.69 251.86L318.34 252.64C318.57 252.64 318.8 252.74 318.96 252.91C319.12 253.08 319.2 253.31 319.18 253.55L318.45 264.04C321.88 261.1 325.48 259.28 329.16 258.62C334.64 257.66 340.07 259.31 345.15 263.49C351.19 268.46 353.68 275.54 352.17 283.45C350.09 294.34 340.82 304.19 329.12 307.94C319.2 311.12 314.16 314.92 311.66 317.58C306.22 329.26 296.09 338.17 283.84 342.03C277.51 344.03 273.22 349.91 273.17 356.68L273.11 364.74C273.06 371.65 278.64 377.32 285.55 377.38C287.97 377.4 290.23 378.36 291.93 380.08C293.62 381.8 294.55 384.08 294.53 386.5L294.51 388.61C294.51 389.08 294.13 389.45 293.66 389.45H293.65ZM242.1 387.35L292.81 387.75V386.49C292.83 384.53 292.08 382.68 290.71 381.28C289.33 379.88 287.49 379.1 285.53 379.09C277.68 379.03 271.34 372.59 271.41 364.74L271.47 356.68C271.53 349.18 276.29 342.64 283.33 340.43C295.17 336.7 304.95 328.07 310.18 316.76C310.22 316.68 310.27 316.6 310.33 316.54C312.93 313.72 318.21 309.67 328.6 306.33C339.73 302.76 348.54 293.44 350.5 283.14C351.89 275.87 349.61 269.36 344.07 264.81C339.37 260.95 334.44 259.43 329.45 260.3C325.54 260.99 321.7 263.15 318.04 266.71C317.79 266.96 317.41 267.02 317.09 266.87C316.77 266.72 316.58 266.39 316.6 266.04L317.42 254.33L219.57 253.57L220.19 264.97C220.21 265.32 220.01 265.64 219.69 265.79C219.37 265.93 219 265.87 218.75 265.62C215.24 262.18 211.54 260.07 207.75 259.34C202.78 258.39 197.82 259.83 193.07 263.62C187.47 268.09 185.08 274.56 186.36 281.85C188.17 292.18 196.83 301.64 207.9 305.38C217.69 308.69 222.85 312.59 225.45 315.27C225.52 315.34 225.58 315.43 225.62 315.53C230.6 327.2 240.33 336.18 252.33 340.17C259.33 342.5 263.99 349.1 263.93 356.61L263.87 364.67C263.81 372.46 257.42 378.8 249.64 378.8H249.53C245.45 378.8 242.16 382.07 242.12 386.09V387.35H242.1ZM314 308.94C313.83 308.94 313.65 308.89 313.51 308.78C313.23 308.58 313.1 308.24 313.18 307.9C313.67 305.71 314 303.48 314.15 301.29L316 274.76C316.01 274.61 316.06 274.47 316.14 274.34C318.03 271.54 323.17 264.89 330.07 263.68C334.08 262.98 337.92 264.21 341.87 267.46C347.65 272.22 347.91 278.25 347.1 282.47C345.39 291.43 337.34 299.88 327.53 303.02C322.47 304.64 318.07 306.59 314.44 308.81C314.3 308.89 314.15 308.94 314 308.94ZM317.67 275.11L315.84 301.41C315.72 303.07 315.51 304.74 315.21 306.4C318.61 304.51 322.57 302.83 327.01 301.41C336.25 298.45 343.83 290.53 345.43 282.16C346.15 278.39 345.93 273.01 340.79 268.78C337.24 265.86 333.87 264.75 330.36 265.36C324.11 266.45 319.21 272.87 317.67 275.11ZM222.11 308.02C221.96 308.02 221.8 307.98 221.66 307.89C218.13 305.7 213.87 303.75 208.99 302.1C199.23 298.8 191.32 290.23 189.75 281.25C189.01 277.02 189.36 270.99 195.21 266.32C199.21 263.13 203.08 261.96 207.06 262.73C213.67 264 218.65 270.41 220.49 273.11C220.58 273.24 220.63 273.39 220.63 273.54L222.09 300.58C222.2 302.68 222.48 304.84 222.92 307C222.99 307.33 222.85 307.67 222.57 307.87C222.43 307.97 222.26 308.02 222.09 308.02H222.11ZM204.75 264.2C201.96 264.2 199.19 265.33 196.27 267.65C191.06 271.8 190.76 277.18 191.42 280.96C192.89 289.36 200.34 297.39 209.53 300.5C213.81 301.95 217.64 303.62 220.93 305.49C220.67 303.86 220.49 302.25 220.4 300.67L218.95 273.87C217.13 271.25 212.58 265.52 206.74 264.4C206.07 264.27 205.4 264.21 204.74 264.21L204.75 264.2Z" fill="black"/>
<path d="M216.13 254.46L216.161 250.61C216.164 250.16 216.527 249.803 216.977 249.806L320.694 250.621C321.144 250.624 321.501 250.987 321.497 251.437L321.467 255.287C321.464 255.737 321.101 256.094 320.651 256.09L216.934 255.276C216.484 255.272 216.127 254.91 216.13 254.46Z" fill="#4257FF"/>
<path d="M320.65 256.929H320.641L216.921 256.119C216.481 256.119 216.061 255.939 215.751 255.619C215.441 255.299 215.271 254.879 215.271 254.439L215.301 250.589C215.301 249.679 216.051 248.939 216.961 248.939L320.691 249.749C321.611 249.749 322.35 250.509 322.34 251.419L322.311 255.269C322.311 256.179 321.56 256.919 320.65 256.919V256.929ZM216.961 250.639V254.459L320.61 255.229L320.641 251.409L216.961 250.639Z" fill="black"/>
<path d="M265.09 284.778L253.92 294.448L247.34 286.748L265.5 271.658L276.43 271.748L276 327.038L264.75 326.948L265.08 284.778H265.09Z" fill="#4257FF"/>
<path d="M276 327.879L264.75 327.789C264.28 327.789 263.9 327.399 263.91 326.929L264.22 286.639L254.47 295.079C254.3 295.229 254.07 295.299 253.85 295.279C253.62 295.259 253.41 295.159 253.27 294.979L246.69 287.279C246.54 287.109 246.47 286.879 246.49 286.659C246.51 286.429 246.62 286.219 246.79 286.079L264.95 270.989C265.1 270.859 265.32 270.819 265.5 270.789L276.43 270.879C276.9 270.879 277.28 271.269 277.27 271.739L276.84 327.029C276.84 327.259 276.75 327.469 276.59 327.629C276.43 327.789 276.22 327.869 275.99 327.869L276 327.879ZM265.61 326.099L275.16 326.169L275.58 272.579L265.81 272.499L248.55 286.839L254.01 293.239L264.53 284.129C264.78 283.909 265.14 283.859 265.44 283.999C265.74 284.139 265.94 284.439 265.93 284.779L265.61 326.099Z" fill="black"/>
<path d="M105.16 61.9992C104.74 61.9992 104.38 61.6892 104.32 61.2592L101.85 42.4492C101.79 41.9792 102.12 41.5592 102.58 41.4992C103.04 41.4392 103.47 41.7692 103.53 42.2292L106 61.0392C106.06 61.4992 105.73 61.9292 105.27 61.9892C105.23 61.9892 105.19 61.9892 105.16 61.9892V61.9992Z" fill="black"/>
<path d="M89.3299 63.4793C88.9799 63.4793 88.6499 63.2593 88.5299 62.9093L83.5799 48.5593C83.4299 48.1193 83.6599 47.6293 84.1099 47.4793C84.5499 47.3193 85.0399 47.5593 85.1899 48.0093L90.1399 62.3593C90.2899 62.7993 90.0599 63.2893 89.6099 63.4393C89.5199 63.4693 89.4199 63.4893 89.3299 63.4893V63.4793Z" fill="black"/>
<path d="M74.9802 71.3991C74.7402 71.3991 74.5002 71.2991 74.3302 71.0991L66.4102 61.6991C66.1102 61.3391 66.1502 60.8091 66.5102 60.4991C66.8702 60.1991 67.4002 60.2391 67.7102 60.5991L75.6302 69.9991C75.9302 70.3591 75.8902 70.8891 75.5302 71.1991C75.3702 71.3291 75.1802 71.3991 74.9802 71.3991Z" fill="black"/>
</svg>
