<svg width="360" height="392" viewBox="0 0 360 392" fill="none" xmlns="http://www.w3.org/2000/svg">
<path d="M10.6404 288.581C13.9704 295.921 18.0304 302.691 22.7504 308.601C38.6504 328.481 61.9904 341.341 86.3204 348.861C135.73 364.121 195.67 368.621 246.56 359.311C293.95 350.651 328.21 319.061 340.94 272.651C351.47 234.281 346.06 199.871 336.04 162.581C327.59 131.101 337.51 102.461 315.86 74.2906C302.85 57.3706 284.74 45.0806 265.91 35.0306C224.73 13.0606 177.68 3.03061 133.41 21.9506C96.1804 37.8706 64.9104 71.7206 60.3004 113.021C59.4904 120.301 59.4504 127.741 57.3004 134.751C50.9604 155.451 29.9504 165.251 17.4204 181.451C-4.4896 209.771 -4.5696 255.071 10.6304 288.591L10.6404 288.581Z" fill="#4257FF"/>
<path d="M293.131 232.82C306.691 237.64 299.761 207.81 299.761 205.1C299.761 202.39 281.681 214.44 281.681 214.44L293.131 232.82Z" fill="#333333"/>
<path d="M297.12 291.881L305.69 289.161L297.12 286.231C294.56 285.561 292.59 283.491 292.05 280.901L289.33 268.031L286.41 280.621C285.79 283.271 283.7 285.331 281.03 285.891L272.96 288.671L280.74 291.421C283.47 292.051 285.56 294.251 286.05 297.001L288.3 309.451L291.58 296.991C292.27 294.361 294.43 292.361 297.11 291.881H297.12Z" fill="#333333"/>
<path d="M244.501 69.3301L257.52 65.1901L244.491 60.7401C240.591 59.7101 237.611 56.5801 236.781 52.6401L232.65 33.0801L228.211 52.2201C227.271 56.2601 224.091 59.3801 220.031 60.2401L207.771 64.4601L219.601 68.6401C223.751 69.6001 226.92 72.9401 227.68 77.1301L231.101 96.0501L236.09 77.1101C237.14 73.1001 240.421 70.0701 244.501 69.3401V69.3301Z" fill="white"/>
<path d="M28.9804 178.721L34.1604 177.071L28.9804 175.301C27.4304 174.891 26.2404 173.641 25.9104 172.081L24.2604 164.301L22.4904 171.921C22.1204 173.531 20.8504 174.771 19.2404 175.111L14.3604 176.791L19.0704 178.451C20.7204 178.831 21.9804 180.161 22.2904 181.831L23.6504 189.361L25.6304 181.821C26.0504 180.231 27.3504 179.021 28.9804 178.731V178.721Z" fill="#333333"/>
<path d="M193.4 127.42C191.58 120.1 186.28 119.98 176.59 120.73C166.9 121.47 141.79 124.99 138.07 128.33C134.35 131.67 133.12 142.92 133.12 142.92L165.79 147.28C165.79 147.28 194.77 132.93 193.4 127.43V127.42Z" fill="#2B2B2B"/>
<path d="M195.31 127.18C188.86 129.15 192.54 130.44 182.28 133.32C172.02 136.2 136.02 137.97 132.95 139.47C129.88 140.97 132.26 197.39 132.26 197.39L94.6504 371.33C94.6504 371.33 143.14 382.7 171.84 383.47C203.93 384.34 225.48 373.17 234.29 371.33C243.09 369.49 195.32 127.19 195.32 127.19L195.31 127.18Z" fill="#333333"/>
<path d="M141.83 130.281C141.83 130.281 134.77 131.371 134.39 137.991C134 144.611 138.56 160.301 143.62 185.831C148.68 211.361 153.12 382.761 144.51 387.811C127.74 397.641 78.1604 376.101 63.4204 361.501L78.2304 240.691C78.2304 240.691 70.7004 230.331 26.4404 226.091C26.4404 226.091 54.6904 154.521 77.7604 146.991C101.62 139.201 128.31 135.811 128.31 135.811C128.31 135.811 130.06 127.891 141.79 125.141L141.83 130.281Z" fill="#A1C3FF"/>
<path d="M133.021 391.13C111.971 391.13 75.6305 374.77 62.8205 362.09C62.6305 361.91 62.5405 361.64 62.5705 361.38L77.3405 240.95C75.8705 239.44 65.8105 230.7 26.3505 226.92C26.0805 226.9 25.8505 226.75 25.7105 226.52C25.5705 226.29 25.5505 226.01 25.6405 225.76C26.8005 222.82 54.3005 153.73 77.4905 146.16C99.2705 139.05 123.69 135.55 127.64 135.02C128.3 133.05 131.2 126.72 141.59 124.29C141.84 124.23 142.11 124.29 142.31 124.45C142.51 124.61 142.631 124.85 142.631 125.11L142.67 130.25C142.67 130.67 142.37 131.03 141.95 131.1C141.69 131.14 135.56 132.18 135.22 138.02C134.98 142.11 136.7 149.85 139.31 161.58C140.77 168.15 142.59 176.32 144.44 185.65C146.88 197.94 149.33 245.75 150.03 294.47C150.39 319.71 150.22 341.58 149.55 357.73C148.35 386.52 145.95 387.92 144.93 388.52C141.99 390.25 137.98 391.12 133.01 391.12L133.021 391.13ZM64.3105 361.18C77.1505 373.6 112.48 389.44 133.021 389.44C137.681 389.44 141.4 388.64 144.08 387.07C146.63 385.57 149.28 360.43 148.34 294.51C147.65 245.87 145.21 198.2 142.78 185.99C140.93 176.69 139.12 168.52 137.66 161.96C135.02 150.1 133.28 142.26 133.53 137.94C133.87 132.05 139.03 130.13 140.97 129.61L140.94 126.23C130.84 129 129.191 135.7 129.131 136C129.051 136.35 128.76 136.61 128.41 136.66C128.14 136.69 101.53 140.13 78.0205 147.81C57.0905 154.64 31.2505 216.52 27.6405 225.37C70.7805 229.66 78.5905 239.77 78.9105 240.2C79.0405 240.37 79.0905 240.59 79.0705 240.8L64.3105 361.19V361.18Z" fill="#333333"/>
<path d="M316.47 7.97077C316.04 4.66077 311.08 -1.56923 305.9 1.83077C300.72 5.24077 304.43 19.8408 303.49 22.9808C302.55 26.1108 291.67 40.4008 291.67 40.4008C291.67 40.4008 291.56 27.3108 287.64 21.3008C283.72 15.2908 279.35 18.1908 277.58 20.9308C275.81 23.6708 275.8 36.2708 275.12 39.3708C274.44 42.4608 267.69 51.0608 265.34 57.6608C263 64.2608 265.93 72.7908 265.93 72.7908L267.67 76.6608V76.6908L274.77 90.4008L301.85 156.291L243.4 138.211L250.08 206.061C250.08 206.061 325.08 241.261 350.67 207.811C372.88 178.781 342.42 109.011 323.88 81.4908C328.49 76.9208 333.19 71.4908 336.04 66.6908C341.9 56.8208 333.35 38.6808 333.35 38.6808C332.25 34.9608 329.43 27.7408 329.43 27.7408C329.43 27.7408 326.71 17.0008 323.21 12.8808C319.71 8.75077 317.06 8.39077 317.06 8.39077C317.06 8.39077 316.51 8.23077 316.47 7.96077V7.97077Z" fill="white"/>
<path d="M314.741 223.38C284.731 222.38 250.081 207.14 249.741 206.98C249.471 206.85 249.291 206.52 249.261 206.22L242.581 138.33C242.551 138.05 242.671 137.75 242.891 137.57C243.111 137.39 243.411 137.32 243.681 137.41L300.411 154.95L274.011 90.7205L266.951 77.0805L265.171 73.1405C265.021 72.7105 262.141 64.1805 264.561 57.3805C265.861 53.7105 268.421 49.5705 270.671 45.9005C272.391 43.1005 274.021 40.4605 274.301 39.1905C274.531 38.1605 274.691 35.8205 274.861 33.3405C275.281 27.1605 275.701 22.2905 276.881 20.4705C277.991 18.7505 280.071 16.9205 282.561 16.9205C284.711 16.9205 286.671 18.2405 288.361 20.8405C291.371 25.4505 292.211 33.8505 292.441 37.9805C296.001 33.2205 302.051 24.8505 302.681 22.7305C302.931 21.8905 302.751 19.6605 302.571 17.2905C302.111 11.5605 301.491 3.71047 305.441 1.11047C306.581 0.360469 307.781 -0.0195312 309.011 -0.0195312C313.111 -0.0195312 316.681 4.40047 317.271 7.55047C317.811 7.66047 320.511 8.37047 323.861 12.3105C327.361 16.4305 330.011 26.5505 330.241 27.4605C330.511 28.1505 333.071 34.7505 334.141 38.3605C334.771 39.7205 342.671 57.1505 336.771 67.1005C333.451 72.7105 328.151 78.4005 324.981 81.5705C333.481 94.3405 345.851 118.04 353.381 143.82C359.341 164.24 363.831 192.14 351.361 208.44C343.871 218.23 331.551 223.34 314.751 223.34L314.741 223.38ZM250.891 205.49C254.981 207.34 286.921 220.38 314.731 221.38C330.981 221.38 342.841 216.65 349.991 207.3C371.371 179.35 342.581 110.78 323.171 81.9705C322.941 81.6305 322.991 81.1805 323.281 80.8905C328.511 75.7205 332.781 70.5205 335.301 66.2705C340.861 56.8905 332.651 39.2405 332.571 39.0605C332.551 39.0205 332.541 38.9805 332.521 38.9405C331.441 35.2905 328.651 28.1405 328.631 28.0705C328.621 28.0405 328.611 28.0005 328.601 27.9705C328.571 27.8605 325.891 17.3705 322.561 13.4505C319.361 9.68047 316.951 9.25047 316.931 9.25047C316.901 9.25047 316.851 9.24047 316.821 9.23047C316.491 9.14047 315.721 8.84047 315.631 8.10047C315.341 5.86047 312.411 1.72047 309.011 1.72047C308.121 1.72047 307.231 2.01047 306.381 2.57047C303.271 4.62047 303.871 12.1805 304.271 17.1905C304.491 19.9305 304.661 22.1005 304.321 23.2505C303.371 26.4405 293.491 39.4705 292.371 40.9405C292.151 41.2305 291.771 41.3405 291.431 41.2305C291.091 41.1105 290.851 40.7905 290.851 40.4305C290.851 40.3005 290.701 27.5205 286.961 21.7905C285.601 19.7005 284.121 18.6405 282.581 18.6405C280.761 18.6405 279.151 20.1305 278.321 21.4105C277.291 23.0005 276.871 29.0505 276.571 33.4705C276.391 36.1205 276.231 38.4105 275.971 39.5705C275.631 41.1205 274.081 43.6305 272.121 46.8105C269.911 50.4005 267.401 54.4705 266.161 57.9605C263.941 64.2005 266.721 72.4405 266.751 72.5205L268.471 76.3205L275.551 90.0105L302.661 155.97C302.791 156.27 302.721 156.62 302.501 156.87C302.281 157.11 301.941 157.21 301.621 157.11L244.391 139.41L250.901 205.5L250.891 205.49Z" fill="#2B2B2B"/>
<path d="M323.47 36.9514C320.74 39.1914 321.31 45.0614 323.27 49.7114C323.69 50.7014 324.05 51.4914 324.35 52.1414C322.59 52.9214 317.37 58.2314 316.74 58.8714C316.65 58.9714 316.65 59.1214 316.74 59.2114C316.84 59.3014 316.99 59.3014 317.08 59.2114C319.45 56.7814 323.44 52.9814 324.55 52.5714C325.49 54.4714 325.89 54.8214 325.94 54.8614C326.05 54.9414 326.2 54.9214 326.28 54.8114C326.36 54.7014 326.34 54.5514 326.23 54.4714C326.21 54.4514 325.53 53.8414 323.7 49.5314C321.85 45.1614 321.24 39.3914 323.76 37.3314C326.47 35.1114 330.09 36.1714 333.94 40.3414C334.03 40.4414 334.19 40.4414 334.28 40.3514C334.33 40.3014 334.36 40.2314 334.36 40.1614C334.36 40.1014 334.34 40.0514 334.3 40.0014C330.25 35.6214 326.39 34.5414 323.46 36.9514H323.47Z" fill="#2B2B2B"/>
<path d="M316.931 59.7115C316.761 59.7115 316.591 59.6415 316.461 59.5215C316.201 59.2615 316.191 58.8415 316.451 58.5815C317.371 57.6415 321.771 53.1815 323.811 51.9615C323.521 51.3315 323.211 50.6415 322.891 49.8815C320.861 45.0815 320.321 38.9915 323.211 36.6215C324.301 35.7215 325.531 35.2715 326.851 35.2715C329.251 35.2715 331.941 36.8115 334.631 39.7115C334.741 39.8315 334.801 39.9815 334.811 40.1415C334.811 40.3315 334.741 40.5215 334.601 40.6515C334.341 40.8915 333.901 40.8715 333.661 40.6115C330.021 36.6815 326.581 35.5815 324.061 37.6415C321.791 39.5015 322.311 45.0515 324.131 49.3415C325.861 53.4215 326.531 54.1115 326.551 54.1415C326.811 54.3315 326.871 54.7415 326.661 55.0415C326.451 55.3315 326.011 55.4015 325.731 55.1915C325.561 55.0615 325.171 54.6315 324.401 53.1415C323.151 53.9215 320.021 56.8315 317.421 59.5015C317.291 59.6315 317.121 59.7015 316.941 59.7015L316.931 59.7115Z" fill="#363636"/>
<path d="M318.391 20.9518C313.361 24.3318 314.371 30.4818 315.611 32.7718C316.821 35.0118 317.941 42.2118 318.101 43.2518C316.801 44.5218 313.011 48.2318 312.851 48.8618C312.821 48.9918 312.901 49.1218 313.031 49.1618C313.161 49.1918 313.291 49.1118 313.331 48.9818C313.471 48.5718 316.111 45.8618 318.531 43.5118C318.591 43.4618 318.611 43.3818 318.601 43.3018C318.551 42.9618 317.381 35.0218 316.041 32.5418C314.871 30.3818 313.901 24.5618 318.661 21.3618C319.461 20.8218 320.371 20.6518 321.361 20.8618C325.221 21.6718 329.171 27.8318 329.211 27.8918C329.281 28.0018 329.431 28.0418 329.551 27.9718C329.631 27.9218 329.671 27.8418 329.661 27.7618C329.661 27.7218 329.651 27.6718 329.621 27.6418C329.451 27.3818 325.521 21.2418 321.451 20.3918C320.331 20.1518 319.291 20.3518 318.381 20.9618L318.391 20.9518Z" fill="#2B2B2B"/>
<path d="M313.091 49.5815C313.091 49.5815 312.961 49.5715 312.931 49.5615C312.581 49.4715 312.361 49.1115 312.451 48.7515C312.591 48.2215 314.341 46.3115 317.661 43.0915C317.431 41.6215 316.371 35.0315 315.251 32.9715C313.961 30.5815 312.891 24.1415 318.171 20.6015C319.181 19.9215 320.331 19.7015 321.571 19.9615C325.721 20.8315 329.581 26.7315 330.011 27.4015C330.071 27.5015 330.111 27.6215 330.111 27.7415C330.111 27.9715 330.001 28.2015 329.801 28.3215C329.691 28.3915 329.571 28.4215 329.441 28.4215C329.211 28.4215 329.001 28.3015 328.881 28.1115C328.841 28.0515 324.981 22.0415 321.301 21.2715C320.431 21.0915 319.631 21.2315 318.921 21.7115C314.401 24.7515 315.321 30.2815 316.431 32.3415C317.781 34.8315 318.911 42.3915 319.041 43.2415C319.071 43.4515 319.001 43.6715 318.841 43.8215C315.911 46.6615 313.911 48.7915 313.741 49.1415C313.681 49.3915 313.411 49.5915 313.111 49.5915L313.091 49.5815Z" fill="#363636"/>
<path d="M316.211 8.46094C314.471 8.69094 312.591 10.0709 311.291 12.0609C309.681 14.5309 309.211 17.5309 310.011 20.2709C311.491 25.3409 311.531 28.1909 311.521 28.7009L305.691 35.2709C305.601 35.3709 305.611 35.5209 305.711 35.6109C305.811 35.7009 305.961 35.6909 306.051 35.5909L311.941 28.9609C311.941 28.9609 312.001 28.8709 312.001 28.8109C312.001 28.6909 312.141 25.8209 310.471 20.1409C309.711 17.5409 310.151 14.6909 311.691 12.3409C312.911 10.4709 314.661 9.17094 316.261 8.96094C316.391 8.94094 316.481 8.84094 316.471 8.71094C316.471 8.71094 316.471 8.69094 316.471 8.68094C316.451 8.55094 316.331 8.45094 316.201 8.47094L316.211 8.46094Z" fill="#2B2B2B"/>
<path d="M305.881 36.0812C305.721 36.0812 305.561 36.0212 305.441 35.9112C305.311 35.7912 305.231 35.6312 305.221 35.4512C305.211 35.2712 305.271 35.1012 305.391 34.9712L311.111 28.5312C311.111 27.7412 310.971 24.9912 309.621 20.3812C308.781 17.5212 309.271 14.4012 310.951 11.8212C312.311 9.73119 314.311 8.28119 316.171 8.03119C316.531 7.98119 316.871 8.26119 316.921 8.61119C316.931 9.02119 316.691 9.31119 316.351 9.36119C314.871 9.55119 313.231 10.7812 312.081 12.5512C310.611 14.8012 310.191 17.5212 310.921 20.0012C312.601 25.7412 312.471 28.6912 312.461 28.8112C312.461 28.9612 312.391 29.1012 312.291 29.2212L306.401 35.8512C306.271 35.9912 306.091 36.0712 305.901 36.0712L305.881 36.0812Z" fill="#363636"/>
<path d="M297.251 77.1722C294.431 82.0622 293.071 86.6322 293.061 86.6822C293.021 86.8122 293.101 86.9422 293.231 86.9822C293.361 87.0222 293.491 86.9422 293.531 86.8122C293.581 86.6322 298.931 68.7722 310.801 65.7322C310.911 65.7022 310.991 65.6022 310.981 65.4922C310.981 65.4722 310.981 65.4522 310.981 65.4422C310.951 65.3122 310.811 65.2322 310.681 65.2622C304.321 66.8922 299.871 72.6322 297.251 77.1622V77.1722Z" fill="#2B2B2B"/>
<path d="M293.301 87.412C293.301 87.412 293.151 87.392 293.111 87.382C292.761 87.282 292.551 86.912 292.661 86.552C292.721 86.352 294.101 81.792 296.891 76.952C299.551 72.352 304.081 66.512 310.581 64.852C310.611 64.852 310.711 64.832 310.751 64.832C311.051 64.832 311.321 65.042 311.401 65.332C311.401 65.362 311.421 65.452 311.421 65.482C311.421 65.792 311.221 66.072 310.921 66.142C299.251 69.132 294.001 86.752 293.951 86.932C293.871 87.212 293.601 87.412 293.311 87.412H293.301Z" fill="#363636"/>
<path d="M293.13 232.821C293.13 232.821 279.87 212.631 294.03 151.771C294.03 151.771 277.86 146.021 244.92 127.061C222.92 114.411 195.03 123.541 195.03 123.541C195.03 123.541 187.57 117.551 181.19 119.211L183.25 123.921C183.25 123.921 188.82 123.751 190.01 125.211C191.2 126.671 192.77 139.981 194.37 154.671C195.6 166.031 205.56 315.501 210 382.671C230.34 378.741 250.12 371.051 266.68 358.881C260.05 301.081 253.42 230.371 255.16 224.381C257.73 215.541 293.12 232.821 293.12 232.821H293.13Z" fill="#A1C3FF"/>
<path d="M210 383.531C209.81 383.531 209.63 383.471 209.48 383.351C209.29 383.201 209.17 382.981 209.15 382.731C204.86 317.991 194.76 166.181 193.52 154.761C192.63 146.551 190.54 127.311 189.35 125.741C188.96 125.271 187.05 124.761 183.76 124.761C183.46 124.761 183.28 124.761 183.27 124.761C182.93 124.761 182.61 124.571 182.47 124.251L180.41 119.541C180.31 119.311 180.32 119.051 180.42 118.831C180.53 118.611 180.73 118.441 180.97 118.381C181.78 118.171 182.64 118.061 183.54 118.061C188.72 118.061 193.8 121.561 195.19 122.591C197.23 121.981 206.24 119.491 217.27 119.491C228.3 119.491 237.47 121.791 245.34 126.311C277.82 145.001 294.15 150.901 294.31 150.951C294.72 151.101 294.95 151.521 294.85 151.941C281.47 209.431 292.81 230.601 293.77 232.231C293.9 232.381 293.99 232.581 293.99 232.801C293.99 233.271 293.61 233.651 293.14 233.651C293.01 233.651 292.87 233.621 292.75 233.561C292.53 233.451 270.36 222.691 260.24 222.691C257.78 222.691 256.34 223.331 255.97 224.601C254.32 230.271 260.61 298.551 267.52 358.761C267.55 359.061 267.42 359.361 267.18 359.541C251.58 371.011 231.86 379.291 210.16 383.481C210.11 383.491 210.05 383.501 210 383.501V383.531ZM183.8 123.071C186.35 123.071 189.59 123.361 190.67 124.681C191.79 126.051 192.93 133.601 195.21 154.581C196.45 165.971 206.46 316.371 210.78 381.651C231.68 377.481 250.67 369.491 265.78 358.481C260 308.051 252.41 230.811 254.35 224.141C254.95 222.061 256.94 221.011 260.25 221.011C268.91 221.011 285.24 228.191 291.24 230.981C288.27 224.221 281.63 201.821 293.04 152.301C289.56 150.961 273.36 144.401 244.5 127.801C236.89 123.421 227.74 121.211 217.28 121.211C205.07 121.211 195.39 124.331 195.3 124.361C195.03 124.451 194.73 124.391 194.51 124.221C194.45 124.181 188.91 119.781 183.56 119.781C183.17 119.781 182.78 119.801 182.41 119.851L183.82 123.071H183.8Z" fill="#333333"/>
<path d="M148.17 254.981C147.85 254.981 147.55 254.801 147.4 254.501L128.85 215.851C128.76 215.661 128.74 215.451 128.8 215.251L136.09 189.801L113.33 167.421C113.08 167.171 113.01 166.791 113.15 166.471C113.24 166.271 122.13 146.221 127.86 135.111C128.07 134.691 128.59 134.531 129 134.741C129.42 134.951 129.58 135.471 129.37 135.881C124.19 145.931 116.4 163.341 114.94 166.621L137.64 188.941C137.86 189.161 137.95 189.481 137.86 189.781L130.52 215.401L148.93 253.761C149.13 254.181 148.95 254.691 148.53 254.891C148.41 254.951 148.29 254.971 148.16 254.971L148.17 254.981Z" fill="#2B2B2B"/>
<path d="M200.981 243.511C200.891 243.511 200.791 243.501 200.701 243.461C200.261 243.311 200.021 242.821 200.181 242.381L213.421 204.661L200.061 173.771C199.961 173.551 199.971 173.291 200.071 173.071L211.151 149.541C209.811 146.971 201.691 131.691 194.401 124.131C194.071 123.791 194.081 123.251 194.421 122.931C194.761 122.601 195.291 122.621 195.621 122.951C203.731 131.361 212.481 148.411 212.851 149.141C212.971 149.371 212.971 149.651 212.861 149.891L201.761 173.451L215.101 204.291C215.181 204.491 215.191 204.711 215.121 204.911L201.771 242.941C201.651 243.291 201.321 243.511 200.971 243.511H200.981Z" fill="#2B2B2B"/>
<path d="M142.6 267.701C142.58 265.151 140.5 263.111 137.95 263.131C135.4 263.151 133.36 265.231 133.38 267.781C133.4 270.331 135.48 272.371 138.03 272.351C140.58 272.331 142.62 270.251 142.6 267.701Z" fill="#2B2B2B"/>
<path d="M141.701 300.631C141.681 298.081 139.601 296.041 137.051 296.061C134.501 296.081 132.461 298.161 132.481 300.711C132.501 303.261 134.581 305.301 137.131 305.281C139.681 305.261 141.721 303.181 141.701 300.631Z" fill="#2B2B2B"/>
<path d="M140.17 335.46C140.15 332.7 137.89 330.47 135.12 330.5C132.36 330.52 130.13 332.78 130.16 335.55C130.18 338.31 132.44 340.54 135.21 340.51C137.97 340.49 140.2 338.23 140.17 335.46Z" fill="#2B2B2B"/>
<path d="M141.15 368.71C141.13 365.95 138.87 363.72 136.1 363.75C133.34 363.77 131.11 366.03 131.14 368.8C131.16 371.56 133.42 373.79 136.19 373.76C138.95 373.74 141.18 371.48 141.15 368.71Z" fill="#2B2B2B"/>
<path d="M180.14 80.4799C180.14 80.4799 186.36 70.6599 193.55 71.6299C200.75 72.5999 204.73 86.8199 198.14 91.1599C191.55 95.4999 181.73 91.7199 181.73 91.7199L180.14 80.4799Z" fill="white"/>
<path d="M190.28 94.0907C185.59 94.0907 181.59 92.5707 181.42 92.5107C181.13 92.4007 180.93 92.1407 180.88 91.8407L179.29 80.6007C179.26 80.4007 179.31 80.2007 179.41 80.0307C179.65 79.6507 185.39 70.7207 192.53 70.7207C192.91 70.7207 193.28 70.7507 193.65 70.8007C197.99 71.3907 200.93 76.0107 201.92 80.3407C202.82 84.2707 202.41 89.3707 198.59 91.8907C196.35 93.3707 193.55 94.1107 190.26 94.1107L190.28 94.0907ZM182.49 91.0807C183.64 91.4607 186.8 92.3907 190.28 92.3907C193.23 92.3907 195.71 91.7407 197.67 90.4507C200.76 88.4107 201.04 84.0807 200.27 80.7007C199.26 76.2607 196.44 72.8807 193.43 72.4707C193.13 72.4307 192.83 72.4107 192.53 72.4107C186.94 72.4107 181.98 79.2707 181.01 80.6807L182.48 91.0807H182.49Z" fill="#2B2B2B"/>
<path d="M182.36 53.8018C181.62 54.0718 180.9 54.2218 180.24 54.1718C175.35 53.9018 165.97 42.9318 149.06 46.1018C133.05 49.1118 136.1 62.0218 115.59 63.3918C115.59 67.0518 116.36 70.8618 118.04 74.7218L123.85 88.3218C120.9 86.6918 116.8 85.2618 113.2 87.0518C106.7 90.2918 107.52 105.042 115.16 107.022C121.71 108.722 128.56 104.012 130.39 102.632C131.5 104.512 132.75 106.292 134.13 107.972L138.41 129.942C138.82 132.072 137.33 138.992 136.15 140.732C150.95 153.142 177.9 151.292 190.07 131.052C188.12 130.462 182.4 125.172 181.83 122.812L179.41 112.682C189.36 102.472 186.86 86.4418 185.58 73.4918C184.77 65.2518 183.86 58.7318 182.38 53.7918L182.36 53.8018Z" fill="white"/>
<path d="M158.659 149.381C149.929 149.381 141.739 146.551 135.589 141.391C135.259 141.111 135.189 140.631 135.429 140.271C136.499 138.681 137.919 131.951 137.559 130.121L133.319 108.361C132.169 106.961 131.099 105.451 130.119 103.881C127.969 105.381 123.169 108.261 118.079 108.261C116.989 108.261 115.929 108.131 114.929 107.871C110.499 106.721 108.479 102.031 108.059 98.0114C107.599 93.6014 108.889 88.2714 112.809 86.3214C115.439 85.0114 118.649 85.1114 122.159 86.5914L117.249 75.0814C115.569 71.2114 114.729 67.2914 114.729 63.4114C114.729 62.9614 115.079 62.5914 115.519 62.5614C126.439 61.8314 130.339 57.8814 134.479 53.6914C137.879 50.2514 141.389 46.6914 148.889 45.2814C150.979 44.8914 153.059 44.6914 155.089 44.6914C163.859 44.6914 170.179 48.2714 174.789 50.8914C177.129 52.2114 178.969 53.2614 180.269 53.3314C180.339 53.3314 180.399 53.3314 180.459 53.3314C180.929 53.3314 181.459 53.2214 182.059 53.0014C182.279 52.9214 182.519 52.9314 182.729 53.0414C182.939 53.1414 183.099 53.3314 183.159 53.5614C184.499 58.0214 185.469 63.9614 186.399 73.4214C186.489 74.3214 186.589 75.2514 186.679 76.1814C187.999 88.8414 189.489 103.181 180.319 112.951L182.629 122.631C183.129 124.741 188.639 129.761 190.289 130.261C190.539 130.341 190.739 130.521 190.839 130.771C190.929 131.011 190.909 131.281 190.779 131.511C184.049 142.711 172.039 149.391 158.649 149.391L158.659 149.381ZM137.219 140.541C142.989 145.161 150.579 147.691 158.659 147.691C171.129 147.691 182.339 141.631 188.839 131.421C186.239 129.901 181.559 125.401 180.989 123.021L178.569 112.891C178.499 112.611 178.579 112.311 178.789 112.101C187.759 102.891 186.299 88.7914 185.009 76.3514C184.909 75.4114 184.819 74.4914 184.729 73.5814C183.869 64.8114 182.979 59.1214 181.789 54.8614C181.219 55.0014 180.689 55.0514 180.189 55.0214C178.499 54.9314 176.499 53.7914 173.969 52.3614C169.519 49.8414 163.419 46.3814 155.099 46.3814C153.179 46.3814 151.189 46.5714 149.209 46.9414C142.239 48.2514 139.059 51.4714 135.699 54.8714C131.619 59.0014 127.409 63.2614 116.449 64.1814C116.549 67.5614 117.339 70.9914 118.819 74.3914L124.629 87.9914C124.769 88.3214 124.689 88.7114 124.419 88.9514C124.149 89.1914 123.759 89.2414 123.439 89.0614C119.619 86.9414 116.209 86.5014 113.579 87.8114C110.859 89.1714 109.289 93.2814 109.759 97.8114C110.119 101.251 111.779 105.271 115.369 106.201C116.229 106.421 117.149 106.541 118.099 106.541C123.399 106.541 128.459 103.031 129.879 101.951C130.069 101.801 130.319 101.751 130.559 101.791C130.799 101.841 130.999 101.981 131.129 102.191C132.229 104.041 133.459 105.801 134.789 107.421C134.879 107.531 134.939 107.661 134.969 107.801L139.249 129.771C139.649 131.851 138.459 137.921 137.239 140.511L137.219 140.541Z" fill="#2B2B2B"/>
<path d="M182.36 53.8008C181.62 54.0708 180.9 54.2208 180.24 54.1708C175.35 53.9008 165.97 42.9308 149.06 46.1008C133.05 49.1108 136.1 62.0208 115.59 63.3908C115.59 51.8208 123.47 41.8608 135.88 36.9808C136.26 36.8308 136.64 36.6908 137.04 36.5508C169.24 25.1208 180.19 48.4108 180.19 48.4108C181.03 49.9408 181.75 51.7308 182.36 53.7908V53.8008Z" fill="#4257FF"/>
<path d="M146.55 63.8016C146.71 64.4616 146.2 65.0816 145.71 65.5516C143.22 67.9616 140.26 69.8716 137.04 71.1616C136.47 71.3916 135.87 71.6016 135.26 71.5716C134.21 71.5116 133.25 70.6416 133.11 69.5916C132.99 68.7316 133.37 67.8716 133.94 67.2116C134.51 66.5616 135.24 66.0816 135.97 65.6116C138.69 63.8816 141.77 62.1716 144.94 62.7016C145.62 62.8116 146.38 63.1316 146.54 63.8016H146.55Z" fill="#2B2B2B"/>
<path d="M161.4 61.7616C161.59 62.4116 162.35 62.6916 163 62.8516C166.36 63.6716 169.89 63.8416 173.31 63.3316C173.92 63.2416 174.54 63.1216 175.05 62.7816C175.93 62.2016 176.31 60.9616 175.91 59.9916C175.58 59.1916 174.82 58.6316 174 58.3516C173.18 58.0716 172.3 58.0316 171.44 58.0016C168.22 57.8816 164.7 57.9416 162.22 60.0016C161.69 60.4416 161.19 61.1016 161.39 61.7616H161.4Z" fill="#2B2B2B"/>
<path d="M122.36 88.6797L123.28 89.2497C124.45 89.9697 125.92 88.9897 125.69 87.6297C124.34 79.6597 121.66 60.5697 126.26 57.4297C132.1 53.4397 116.75 61.2897 116.75 61.2897L110.91 61.0197C110.91 61.0197 117.34 81.8397 121.53 87.9397L122.36 88.6797Z" fill="#2B2B2B"/>
<path d="M185.41 74.1314C185.41 74.1314 181.4 57.2014 175.99 49.6914C170.58 42.1814 176.57 49.5714 176.57 49.5714L183.78 47.7214C183.78 47.7214 186.74 68.2914 185.88 74.2514L185.41 74.1314Z" fill="#2B2B2B"/>
<path d="M193.21 36.6707C192.77 44.3707 187.05 52.0507 182.36 53.8107C181.62 54.0807 180.9 54.2307 180.24 54.1807C175.35 53.9107 165.97 42.9407 149.06 46.1107C133.05 49.1207 136.1 62.0307 115.59 63.4007C114.43 63.4807 113.2 63.5207 111.88 63.5207C105.42 63.5207 103.05 43.8507 110.43 40.3007C117.8 36.7407 122.7 40.1007 129.19 33.4307C135.68 26.7607 132.27 18.0407 140.34 15.6507C148.41 13.2707 164.73 10.4307 164.48 19.5007C164.22 28.5807 170.9 33.0807 176.88 29.1607C182.87 25.2407 193.73 27.7607 193.22 36.6607L193.21 36.6707Z" fill="#2B2B2B"/>
<path d="M180.63 109.881C175.94 114.751 159.11 121.101 147.5 114.411C147.5 114.411 162.36 129.371 180.4 119.671L179.68 113.411L180.63 109.881Z" fill="#2B2B2B"/>
<path d="M158.29 74.0508C158.75 76.1908 162.02 82.3508 162.68 83.4708C163.34 84.5908 160.11 87.8008 160.11 87.8008" fill="white"/>
<path d="M160.11 88.6411C159.89 88.6411 159.67 88.5611 159.51 88.3911C159.18 88.0611 159.18 87.5211 159.51 87.1911C160.81 85.9011 161.96 84.2911 161.92 83.8211C161.38 82.9411 157.95 76.5511 157.46 74.2211C157.36 73.7611 157.65 73.3111 158.11 73.2111C158.57 73.1111 159.02 73.4011 159.12 73.8611C159.54 75.8211 162.72 81.8411 163.41 83.0211C164.28 84.4911 162.09 87.0111 160.7 88.3811C160.53 88.5411 160.32 88.6311 160.1 88.6311L160.11 88.6411Z" fill="#2B2B2B"/>
<path d="M126.639 98.8016C126.349 98.8016 126.069 98.6516 125.909 98.3916C124.599 96.2116 122.939 94.8716 120.979 94.4316C117.589 93.6716 114.349 95.7816 114.309 95.8016C113.919 96.0616 113.389 95.9516 113.129 95.5616C112.869 95.1716 112.979 94.6416 113.369 94.3816C113.529 94.2816 117.229 91.8416 121.339 92.7616C123.769 93.3116 125.799 94.9016 127.369 97.5016C127.609 97.9016 127.479 98.4216 127.079 98.6616C126.939 98.7416 126.789 98.7816 126.639 98.7816V98.8016Z" fill="#2B2B2B"/>
<path d="M118.92 99.5908C118.86 99.5908 118.79 99.5908 118.73 99.5708C118.27 99.4608 117.99 99.0108 118.09 98.5508L119.21 93.7208C119.32 93.2608 119.77 92.9808 120.23 93.0808C120.69 93.1908 120.97 93.6408 120.87 94.1008L119.75 98.9308C119.66 99.3208 119.31 99.5908 118.92 99.5908Z" fill="#2B2B2B"/>
<path d="M186.97 85.3202C186.87 85.3202 186.77 85.3002 186.67 85.2702C186.23 85.1102 186.01 84.6202 186.17 84.1802C187.29 81.2002 188.9 79.2302 190.98 78.3302C193.44 77.2602 195.62 78.1302 195.71 78.1702C196.14 78.3502 196.35 78.8402 196.17 79.2802C195.99 79.7102 195.5 79.9202 195.07 79.7402C194.99 79.7102 193.42 79.1102 191.63 79.9002C190 80.6202 188.7 82.2602 187.76 84.7802C187.63 85.1202 187.31 85.3302 186.97 85.3302V85.3202Z" fill="#2B2B2B"/>
<path d="M192.85 85.3509C192.63 85.3509 192.4 85.2609 192.24 85.0909L188.92 81.6409C188.59 81.3009 188.61 80.7609 188.94 80.4409C189.28 80.1209 189.82 80.1309 190.14 80.4609L193.46 83.9109C193.78 84.2509 193.77 84.7909 193.44 85.1109C193.28 85.2709 193.06 85.3509 192.85 85.3509Z" fill="#2B2B2B"/>
<path d="M158.06 28.2207C162.66 28.3707 164.53 34.0107 168.7 34.9107C171.06 35.4107 173.41 34.2207 175.77 33.7007C178.24 33.1507 181.55 33.8407 181.9 36.4807C182.07 37.7207 181.43 38.9407 180.41 39.6807C178.67 40.9407 176.47 40.8107 174.48 40.3207C172.83 39.9207 171.22 39.2907 169.54 39.0607C166.5 38.6507 163.37 39.5507 160.3 40.2107C155.17 41.3107 150.73 36.0007 153.07 31.3007C153.32 30.8007 153.63 30.3307 154.04 29.9007C155.07 28.8007 156.56 28.1807 158.06 28.2307V28.2207Z" fill="white"/>
<path d="M177.08 41.081C176.26 41.081 175.38 40.961 174.38 40.721C173.77 40.571 173.18 40.401 172.58 40.221C171.57 39.921 170.53 39.611 169.48 39.471C168.99 39.401 168.47 39.371 167.93 39.371C165.91 39.371 163.81 39.841 161.78 40.301C161.31 40.411 160.85 40.511 160.39 40.611C157.54 41.221 154.55 39.911 153.01 37.431C151.79 35.461 151.67 33.151 152.69 31.101C152.97 30.551 153.32 30.041 153.73 29.601C154.81 28.451 156.33 27.791 157.9 27.791H158.07C160.71 27.881 162.48 29.631 164.19 31.331C165.62 32.751 166.98 34.101 168.78 34.481C169.14 34.561 169.5 34.591 169.89 34.591C171.13 34.591 172.35 34.221 173.65 33.821C174.31 33.621 174.99 33.411 175.67 33.261C176.22 33.141 176.8 33.071 177.39 33.071C179.46 33.071 181.99 33.941 182.32 36.391C182.5 37.731 181.87 39.111 180.66 39.991C179.68 40.701 178.47 41.061 177.07 41.061L177.08 41.081ZM167.93 38.521C168.5 38.521 169.06 38.561 169.59 38.631C170.7 38.781 171.77 39.101 172.82 39.411C173.41 39.581 173.99 39.761 174.58 39.901C177.04 40.501 178.81 40.311 180.16 39.331C181.1 38.651 181.61 37.551 181.47 36.531C181.21 34.621 179.19 33.941 177.38 33.941C176.86 33.941 176.34 34.001 175.85 34.111C175.2 34.261 174.54 34.461 173.89 34.651C172.59 35.041 171.24 35.451 169.88 35.451C169.44 35.451 169 35.411 168.6 35.321C166.55 34.881 165.04 33.391 163.59 31.941C161.92 30.281 160.35 28.721 158.04 28.651H157.89C156.55 28.651 155.26 29.211 154.34 30.191C153.98 30.571 153.68 31.001 153.44 31.481C152.56 33.261 152.66 35.261 153.72 36.981C155.07 39.161 157.7 40.321 160.2 39.781C160.66 39.681 161.12 39.581 161.59 39.471C163.66 39.001 165.81 38.521 167.93 38.521Z" fill="#2B2B2B"/>
<path d="M107.91 48.4708C107.67 48.4708 107.42 48.3708 107.26 48.1608C104.9 45.3108 104.87 40.8208 107.19 37.9408C109.68 34.8508 113.74 34.1308 118.03 33.6308C121.6 33.2108 125.58 32.5208 127.62 29.7708C128.81 28.1608 129.16 25.9008 128.49 24.0208C127.83 22.1308 126.14 20.5808 124.21 20.0808C123.76 19.9608 123.48 19.5008 123.6 19.0408C123.72 18.5908 124.18 18.3208 124.64 18.4308C127.15 19.0808 129.24 21.0108 130.1 23.4508C130.96 25.8908 130.53 28.7008 128.99 30.7808C126.54 34.0708 122.16 34.8408 118.24 35.3108C114.31 35.7708 110.62 36.4108 108.52 39.0008C106.72 41.2408 106.74 44.8608 108.57 47.0708C108.87 47.4308 108.82 47.9708 108.46 48.2608C108.3 48.3908 108.11 48.4608 107.92 48.4608L107.91 48.4708Z" fill="#2B2B2B"/>
<path d="M166.21 112.991C165.99 112.991 165.78 112.911 165.61 112.741C165.28 112.411 165.28 111.871 165.61 111.541C166.1 111.051 166.38 110.351 166.35 109.661C166.33 108.971 166 108.281 165.48 107.831C165.13 107.521 165.09 106.991 165.4 106.631C165.71 106.281 166.24 106.241 166.6 106.551C167.47 107.311 168.01 108.451 168.05 109.601C168.09 110.751 167.63 111.931 166.81 112.741C166.64 112.911 166.43 112.991 166.21 112.991Z" fill="#2B2B2B"/>
<path d="M155.66 101.61C154.85 101.05 154.11 100.36 153.58 99.5303C152.59 97.9903 152.48 95.6903 153.88 94.5003C155.21 93.3703 157.19 93.7003 158.93 93.9003C160.68 94.1003 162.52 94.0903 164.13 93.3803C165.66 92.7103 167.08 91.4003 168.74 91.6203C170.2 91.8103 171.28 93.2503 171.42 94.7103C171.56 96.1803 170.95 97.6203 170.09 98.8303C168.52 101.05 166.1 102.66 163.44 103.19C160.78 103.72 157.9 103.16 155.67 101.62L155.66 101.61Z" fill="white"/>
<path d="M161.44 104.23C159.19 104.23 156.97 103.55 155.18 102.31C154.2 101.63 153.42 100.85 152.87 99.9901C151.7 98.1601 151.55 95.3701 153.33 93.8601C154.13 93.1801 155.17 92.8601 156.53 92.8601C157.25 92.8601 157.97 92.9501 158.66 93.0301L159.02 93.0701C161.07 93.3101 162.54 93.1601 163.78 92.6101C164.19 92.4301 164.6 92.1901 165.03 91.9401C166.18 91.2801 167.4 90.5901 168.83 90.7801C170.59 91.0101 172.05 92.6701 172.25 94.6301C172.4 96.1301 171.89 97.7501 170.77 99.3201C169.06 101.74 166.44 103.45 163.59 104.02C162.89 104.16 162.16 104.23 161.43 104.23H161.44ZM156.52 94.5501C155.57 94.5501 154.9 94.7401 154.42 95.1501C153.36 96.0501 153.53 97.8901 154.29 99.0701C154.72 99.7401 155.35 100.36 156.14 100.91C158.14 102.29 160.83 102.84 163.27 102.35C165.7 101.86 167.94 100.4 169.4 98.3301C170.01 97.4701 170.71 96.1501 170.57 94.7901C170.47 93.7601 169.71 92.6001 168.62 92.4601C167.72 92.3401 166.84 92.8601 165.88 93.4101C165.43 93.6701 164.96 93.9401 164.46 94.1601C162.94 94.8301 161.19 95.0201 158.82 94.7501L158.45 94.7101C157.81 94.6301 157.14 94.5501 156.52 94.5501Z" fill="#2B2B2B"/>
<path d="M172.62 73.1514C172.37 71.1514 171.22 69.6514 170.06 69.8014C168.9 69.9514 168.16 71.6914 168.42 73.6914C168.67 75.6914 169.82 77.1914 170.98 77.0414C172.14 76.8914 172.88 75.1514 172.62 73.1514Z" fill="#2B2B2B"/>
<path d="M146.26 79.7412C146.01 77.7412 144.86 76.2412 143.7 76.3912C142.54 76.5412 141.8 78.2812 142.06 80.2812C142.31 82.2812 143.46 83.7812 144.62 83.6312C145.78 83.4812 146.52 81.7412 146.26 79.7412Z" fill="#2B2B2B"/>
<path d="M266.66 127.89C266.46 127.89 266.26 127.82 266.1 127.68C258.26 120.84 241.36 114.35 241.19 114.28C240.75 114.11 240.53 113.62 240.7 113.18C240.87 112.74 241.36 112.52 241.8 112.69C242.5 112.96 259.15 119.35 267.22 126.39C267.57 126.7 267.61 127.23 267.3 127.59C267.13 127.78 266.9 127.88 266.66 127.88V127.89Z" fill="#2B2B2B"/>
<path d="M219.67 188.391H156.43C155.45 188.391 154.87 189.481 155.41 190.301L186.75 237.091C186.88 237.291 186.96 237.531 186.96 237.771V289.121H189.15V237.771C189.15 237.531 189.22 237.291 189.36 237.091L220.7 190.301C221.24 189.491 220.66 188.391 219.68 188.391H219.67Z" fill="#CCD7F2"/>
<path d="M189.15 289.971H186.96C186.49 289.971 186.11 289.591 186.11 289.121V237.771C186.11 237.701 186.09 237.621 186.05 237.561L154.71 190.771C154.28 190.131 154.24 189.321 154.6 188.641C154.96 187.961 155.66 187.541 156.43 187.541H219.67C220.44 187.541 221.14 187.961 221.5 188.641C221.86 189.321 221.82 190.131 221.4 190.771L190.06 237.571C190.02 237.631 190 237.701 190 237.781V289.131C190 289.601 189.62 289.981 189.15 289.981V289.971ZM187.81 288.271H188.3V237.771C188.3 237.361 188.42 236.961 188.65 236.621L219.99 189.831C220.1 189.671 220.05 189.521 220.01 189.441C219.97 189.371 219.87 189.241 219.68 189.241H156.44C156.24 189.241 156.15 189.361 156.11 189.441C156.07 189.511 156.02 189.661 156.13 189.831L187.47 236.621C187.7 236.961 187.82 237.361 187.82 237.771V288.271H187.81Z" fill="#333333"/>
<path d="M209.171 289.121C209.171 286.691 199.721 284.721 188.051 284.721C176.381 284.721 166.931 286.691 166.931 289.121H209.161H209.171Z" fill="#CCD7F2"/>
<path d="M209.171 289.961H166.941C166.471 289.961 166.091 289.581 166.091 289.111C166.091 284.961 180.461 283.861 188.061 283.861C195.661 283.861 210.031 284.961 210.031 289.111C210.031 289.581 209.651 289.961 209.181 289.961H209.171ZM168.661 288.261H207.441C205.161 287.041 198.501 285.561 188.051 285.561C177.601 285.561 170.941 287.051 168.661 288.261Z" fill="#333333"/>
<path d="M208.68 201.771L188.08 231.201L167.94 202.391L208.68 201.771Z" fill="white"/>
<path d="M187.62 218.661C187.62 218.661 189 215.471 191.24 210.791C193.48 206.111 196.74 200.021 200.04 193.941C203.47 187.941 206.94 181.961 209.74 177.601C212.54 173.231 214.53 170.381 214.53 170.381C214.53 170.381 213.15 173.571 210.91 178.251C208.67 182.931 205.41 189.021 202.11 195.101C198.67 201.091 195.21 207.071 192.41 211.441C189.61 215.811 187.62 218.661 187.62 218.661Z" fill="#333333"/>
<path d="M212.51 184.531C213.94 181.091 213.58 177.181 210.89 176.061C208.2 174.941 204.21 177.041 202.78 180.481C201.35 183.921 202.36 187.621 205.05 188.741C207.74 189.861 211.07 187.971 212.51 184.531Z" fill="#4257FF"/>
<path d="M206.68 189.92C206 189.92 205.34 189.79 204.72 189.53C201.61 188.23 200.38 184.03 201.99 180.16C203.23 177.17 206.37 174.91 209.29 174.91C209.97 174.91 210.62 175.03 211.2 175.28C212.74 175.92 213.75 177.34 214.07 179.29C214.34 181 214.07 182.98 213.28 184.86C212.02 187.88 209.36 189.91 206.67 189.91L206.68 189.92ZM209.3 176.62C207.06 176.62 204.54 178.47 203.56 180.82C202.31 183.83 203.12 187.03 205.37 187.97C205.78 188.14 206.22 188.23 206.67 188.23C208.66 188.23 210.73 186.58 211.71 184.22C212.36 182.65 212.61 180.96 212.39 179.57C212.24 178.62 211.79 177.37 210.55 176.86C210.17 176.7 209.75 176.62 209.29 176.62H209.3Z" fill="#333333"/>
<path d="M207.351 176.841C207.131 177.371 208.091 178.271 209.491 178.851C210.891 179.431 212.201 179.471 212.421 178.951C212.641 178.421 211.681 177.521 210.281 176.941C208.881 176.361 207.571 176.321 207.351 176.841Z" fill="#333333"/>
<path d="M33.4998 226.561C33.4998 226.561 -1.90016 292.751 17.2798 320.511C46.3498 362.581 134.73 305.631 134.73 305.631C134.73 305.631 159.02 311.391 166.75 300.861C166.75 300.861 168.41 307.411 175.39 306.551C182.37 305.691 197.07 289.981 194.55 280.761C194.55 280.761 198.61 273.421 193.34 267.021C193.34 267.021 197.73 262.131 193.75 255.971C193.75 255.971 212.08 260.571 212.58 248.951C212.58 248.951 214.69 247.241 196.43 238.521C178.17 229.801 169.56 229.811 162.54 231.121C155.52 232.431 131.32 245.921 125.53 248.671C119.74 251.421 86.9798 260.581 86.9798 260.581L91.3798 246.811C79.6198 238.331 69.9898 233.351 33.4798 226.561H33.4998Z" fill="white"/>
<path d="M50.85 336.851C35.38 336.851 23.85 331.511 16.58 320.991C-2.68002 293.121 31.3 228.871 32.75 226.151C32.93 225.821 33.29 225.661 33.65 225.721C70.04 232.491 79.75 237.361 91.89 246.121C92.19 246.341 92.31 246.721 92.2 247.071L88.28 259.341C94.79 257.501 120.22 250.261 125.17 247.911C126.63 247.221 129.25 245.841 132.57 244.111C142.32 239.011 157.04 231.291 162.39 230.291C164.75 229.851 166.85 229.651 168.99 229.651C176.37 229.651 185.21 232.231 196.8 237.761C213.14 245.561 213.41 247.831 213.49 248.581C213.52 248.841 213.48 249.041 213.41 249.201C213.07 254.701 208.8 257.731 201.35 257.731C198.99 257.731 196.81 257.441 195.35 257.181C197.42 261.821 195.35 265.621 194.39 267.021C198.75 272.881 196.13 279.371 195.43 280.861C196.26 284.451 194.85 289.191 191.45 294.261C186.87 301.091 179.85 306.861 175.47 307.401C175.02 307.461 174.57 307.491 174.13 307.491C169.58 307.491 167.38 304.401 166.46 302.521C163 306.211 157.06 308.071 148.77 308.071C142.21 308.071 136.35 306.881 134.87 306.551C130.75 309.151 85.87 336.871 50.83 336.871L50.85 336.851ZM33.97 227.501C30.65 233.911 0.229982 294.321 17.98 320.021C24.91 330.061 35.97 335.151 50.85 335.151C86.93 335.151 133.8 305.211 134.27 304.911C134.46 304.781 134.7 304.741 134.93 304.801C135 304.811 141.56 306.351 148.8 306.351C154.67 306.351 162.43 305.311 166.07 300.351C166.26 300.091 166.59 299.961 166.92 300.021C167.24 300.081 167.5 300.331 167.58 300.641C167.63 300.851 168.97 305.771 174.16 305.771C174.52 305.771 174.9 305.751 175.29 305.701C179.17 305.221 185.8 299.661 190.07 293.301C193.29 288.491 194.6 284.111 193.74 280.971C193.68 280.761 193.71 280.531 193.82 280.341C193.97 280.061 197.52 273.411 192.7 267.551C192.43 267.231 192.44 266.761 192.72 266.441C192.88 266.261 196.62 261.941 193.05 256.421C192.86 256.131 192.87 255.751 193.07 255.471C193.27 255.191 193.63 255.061 193.97 255.141C194 255.141 197.5 256.011 201.38 256.011C208.06 256.011 211.55 253.621 211.75 248.901C211.75 248.821 211.77 248.751 211.79 248.681C211.52 248.151 209.62 245.741 196.09 239.281C184.73 233.861 176.13 231.331 169.01 231.331C166.98 231.331 164.98 231.531 162.72 231.951C157.62 232.901 142.44 240.851 133.37 245.601C130.04 247.351 127.4 248.721 125.91 249.431C120.12 252.181 88.57 261.021 87.23 261.391C86.93 261.481 86.61 261.391 86.39 261.161C86.17 260.931 86.1 260.611 86.19 260.311L90.41 247.131C78.77 238.801 69.02 234.061 33.97 227.501Z" fill="#333333"/>
<path d="M193.44 256.721C193.77 256.861 194.17 256.771 194.4 256.461C194.67 256.101 194.6 255.591 194.25 255.321C187.84 250.441 180.78 247.141 172.04 244.941C171.61 244.831 171.16 245.091 171.05 245.531C170.94 245.961 171.2 246.411 171.64 246.521C180.16 248.671 187.03 251.881 193.26 256.621C193.31 256.661 193.37 256.691 193.43 256.721H193.44Z" fill="#333333"/>
<path d="M174.15 260.051C174.22 260.081 174.29 260.101 174.37 260.111C181.45 261.021 192.83 267.661 192.94 267.721C193.33 267.951 193.83 267.821 194.05 267.431C194.28 267.041 194.15 266.551 193.76 266.321C193.28 266.041 181.97 259.441 174.57 258.501C174.13 258.441 173.72 258.761 173.66 259.201C173.61 259.571 173.82 259.911 174.15 260.051Z" fill="#333333"/>
<path d="M194.23 281.501C194.53 281.631 194.88 281.571 195.12 281.331C195.44 281.011 195.44 280.501 195.12 280.181C191.49 276.531 181.38 273.431 180.95 273.301C180.52 273.171 180.07 273.411 179.94 273.841C179.81 274.271 180.05 274.721 180.48 274.851C180.58 274.881 190.63 277.971 193.97 281.321C194.05 281.401 194.13 281.451 194.23 281.491V281.501Z" fill="#333333"/>
<path d="M166.43 301.602C166.73 301.732 167.1 301.662 167.34 301.412C172.65 295.772 176.66 285.952 176.82 285.542C176.99 285.132 176.79 284.662 176.39 284.492C175.97 284.322 175.5 284.522 175.33 284.942C175.29 285.042 171.27 294.892 166.17 300.312C165.86 300.642 165.88 301.152 166.2 301.462C166.27 301.532 166.35 301.582 166.44 301.622L166.43 301.602Z" fill="#333333"/>
<path d="M174.17 289.691C174.38 289.781 174.63 289.781 174.85 289.671L178.22 287.991C178.62 287.791 178.79 287.301 178.59 286.901C178.39 286.501 177.9 286.331 177.5 286.531L174.13 288.211C173.73 288.411 173.56 288.901 173.76 289.301C173.85 289.481 174 289.611 174.17 289.691Z" fill="#333333"/>
<path d="M200.06 248.511C200.06 248.511 200.07 248.511 200.08 248.511L207.57 251.481C207.92 251.621 208.32 251.501 208.54 251.181L209.46 249.841C209.71 249.471 209.62 248.961 209.25 248.711C208.88 248.451 208.37 248.551 208.12 248.921L207.57 249.721L201.2 247.201C201.32 244.021 202.79 242.371 202.85 242.301C203.15 241.971 203.13 241.461 202.8 241.151C202.47 240.851 201.96 240.871 201.66 241.191C201.57 241.281 199.52 243.541 199.57 247.761C199.57 248.081 199.77 248.371 200.06 248.501V248.511Z" fill="#333333"/>
<path d="M146.56 244.461C146.67 244.511 146.79 244.531 146.91 244.521L156.43 244.091C156.88 244.071 157.23 243.691 157.21 243.241C157.19 242.791 156.81 242.441 156.36 242.471L146.84 242.901C146.39 242.921 146.04 243.301 146.06 243.751C146.08 244.071 146.28 244.341 146.55 244.461H146.56Z" fill="#333333"/>
<path d="M148.53 247.142C148.86 247.282 149.25 247.192 149.49 246.902L154.48 240.612C154.76 240.262 154.7 239.752 154.35 239.472C154 239.192 153.49 239.252 153.21 239.602L148.22 245.892C147.94 246.242 148 246.752 148.35 247.032C148.41 247.082 148.47 247.112 148.54 247.142H148.53Z" fill="#333333"/>
<path d="M149.11 258.462C149.22 258.512 149.34 258.532 149.46 258.522L158.98 258.092C159.43 258.072 159.78 257.692 159.76 257.242C159.74 256.792 159.36 256.442 158.91 256.462L149.39 256.892C148.94 256.912 148.59 257.292 148.61 257.742C148.62 258.062 148.83 258.332 149.1 258.452L149.11 258.462Z" fill="#333333"/>
<path d="M151.08 261.151C151.41 261.291 151.8 261.201 152.04 260.911L157.03 254.621C157.31 254.271 157.25 253.761 156.9 253.481C156.55 253.201 156.04 253.261 155.76 253.611L150.77 259.901C150.49 260.251 150.55 260.761 150.9 261.041C150.96 261.091 151.02 261.121 151.09 261.151H151.08Z" fill="#333333"/>
<path d="M151.42 270.871C151.53 270.921 151.65 270.941 151.77 270.931L161.29 270.501C161.74 270.481 162.09 270.101 162.07 269.651C162.05 269.201 161.67 268.861 161.22 268.871L151.7 269.301C151.25 269.321 150.9 269.701 150.92 270.151C150.93 270.471 151.14 270.741 151.41 270.861L151.42 270.871Z" fill="#333333"/>
<path d="M153.39 273.552C153.72 273.692 154.11 273.602 154.35 273.312L159.34 267.022C159.62 266.672 159.56 266.162 159.21 265.882C158.86 265.602 158.35 265.662 158.07 266.012L153.08 272.302C152.8 272.652 152.86 273.162 153.21 273.442C153.27 273.492 153.33 273.522 153.4 273.552H153.39Z" fill="#333333"/>
<path d="M133.13 306.082C133.89 306.412 134.64 306.652 135.3 306.712C135.75 306.752 136.15 306.432 136.19 305.982C136.24 305.532 135.91 305.142 135.46 305.092C133.7 304.912 130.48 302.812 129.39 302.022C129.03 301.752 128.52 301.842 128.26 302.202C128 302.562 128.08 303.072 128.44 303.332C128.76 303.572 130.98 305.152 133.13 306.072V306.082Z" fill="#333333"/>
<path d="M42.1497 274.432C42.3197 274.502 42.5097 274.522 42.6997 274.462L87.4597 261.452C87.8897 261.322 88.1397 260.872 88.0097 260.442C87.8897 260.012 87.4297 259.762 86.9997 259.892L42.2397 272.902C41.8097 273.032 41.5597 273.482 41.6897 273.912C41.7597 274.152 41.9397 274.342 42.1497 274.432Z" fill="#333333"/>
<path d="M37.2598 322.581C35.7898 322.581 34.3198 322.191 33.3398 321.871C31.6498 321.301 29.8798 320.621 28.3898 319.481C26.8498 318.301 25.3098 316.161 25.5798 314.261C25.6898 313.441 26.1898 312.311 27.8998 311.631C30.7798 310.491 33.3498 313.151 34.1998 314.021C34.5298 314.361 34.5198 314.891 34.1798 315.221C33.8398 315.551 33.3098 315.541 32.9798 315.201C31.2098 313.371 29.7598 312.721 28.5298 313.211C27.3798 313.671 27.2998 314.291 27.2698 314.491C27.1098 315.611 28.2498 317.221 29.4298 318.131C30.7198 319.121 32.3398 319.741 33.8898 320.261C36.2398 321.051 38.3098 321.091 39.4098 320.361C40.0698 319.921 40.4398 319.201 40.5298 318.151C40.9898 312.871 34.9198 309.371 31.2598 308.131C30.8198 307.981 30.5798 307.501 30.7298 307.051C30.8798 306.611 31.3598 306.371 31.8098 306.521C37.3498 308.391 42.7098 312.761 42.2298 318.301C42.0898 319.881 41.4598 321.061 40.3498 321.781C39.4498 322.371 38.3598 322.581 37.2798 322.581H37.2598Z" fill="#333333"/>
<path d="M106.62 119.529L93.1502 101.299C94.8402 97.2895 95.7802 92.9195 95.7802 88.3395C95.7802 68.7895 78.8502 52.9395 57.9702 52.9395C37.0902 52.9395 20.1602 68.7895 20.1602 88.3395C20.1602 107.889 37.0902 123.739 57.9702 123.739C66.5902 123.739 74.5302 121.039 80.8902 116.489L106.64 119.519L106.62 119.529Z" fill="white"/>
<path d="M57.95 124.6C36.63 124.6 19.29 108.34 19.29 88.3496C19.29 68.3596 36.63 52.0996 57.95 52.0996C79.27 52.0996 96.61 68.3596 96.61 88.3496C96.61 92.7596 95.77 97.0696 94.1 101.19L107.29 119.03C107.49 119.3 107.51 119.67 107.34 119.96C107.17 120.25 106.84 120.42 106.51 120.38L81.09 117.39C74.36 122.11 66.37 124.61 57.95 124.61V124.6ZM57.95 53.7896C37.57 53.7896 20.98 69.2896 20.98 88.3396C20.98 107.39 37.56 122.9 57.95 122.9C66.13 122.9 73.88 120.45 80.37 115.81C80.54 115.69 80.75 115.63 80.96 115.66L104.76 118.46L92.45 101.81C92.27 101.57 92.23 101.25 92.35 100.98C94.05 96.9396 94.91 92.6896 94.91 88.3496C94.91 69.2996 78.33 53.7996 57.94 53.7996L57.95 53.7896Z" fill="#2B2B2B"/>
<path d="M61.8886 111.801C75.5882 109.577 84.8912 96.6688 82.6674 82.9692C80.4436 69.2696 67.5352 59.9666 53.8356 62.1903C40.136 64.4141 30.833 77.3225 33.0567 91.0221C35.2805 104.722 48.1889 114.025 61.8886 111.801Z" fill="#A1C3FF"/>
<path d="M68.0099 81.4706C68.0099 77.5206 67.0399 74.3105 65.8399 74.3105C64.6399 74.3105 63.6699 77.5206 63.6699 81.4706C63.6699 85.4206 64.6399 88.6305 65.8399 88.6305C67.0399 88.6305 68.0099 85.4206 68.0099 81.4706Z" fill="#2B2B2B"/>
<path d="M51.34 81.4706C51.34 77.5206 50.37 74.3105 49.17 74.3105C47.97 74.3105 47 77.5206 47 81.4706C47 85.4206 47.97 88.6305 49.17 88.6305C50.37 88.6305 51.34 85.4206 51.34 81.4706Z" fill="#2B2B2B"/>
<path d="M41.6702 91.5918C41.6702 91.5918 56.7702 99.0818 74.2902 91.5918C74.2902 91.5918 70.1802 105.242 57.3702 105.242C44.5602 105.242 41.6602 91.5918 41.6602 91.5918H41.6702Z" fill="white"/>
<path d="M57.38 106.091C44.04 106.091 40.87 91.9112 40.84 91.7612C40.77 91.4412 40.89 91.1112 41.15 90.9112C41.41 90.7112 41.75 90.6712 42.05 90.8212C42.12 90.8512 48.72 94.0612 58.05 94.0612C63.55 94.0612 68.9 92.9612 73.96 90.8012C74.26 90.6712 74.61 90.7312 74.86 90.9512C75.11 91.1712 75.2 91.5112 75.11 91.8312C75.07 91.9712 70.67 106.091 57.38 106.091ZM42.98 93.0712C44.18 96.5812 47.91 104.401 57.38 104.401C66.85 104.401 71.21 96.6712 72.8 93.1112C68.07 94.8812 63.12 95.7712 58.06 95.7712C51.05 95.7712 45.6 94.0712 42.99 93.0712H42.98Z" fill="#2B2B2B"/>
</svg>
