<svg width="506" height="380" viewBox="0 0 506 380" fill="none" xmlns="http://www.w3.org/2000/svg">
<path d="M216.94 18.5598C195.32 3.94977 165.32 9.54977 140.13 17.9298C119.9 24.6498 98.4997 34.0398 88.4797 52.8598C79.2297 70.2398 82.0397 91.3898 86.3497 110.61C90.6697 129.82 96.2697 149.68 91.8697 168.88C88.0997 185.33 77.3997 199.21 70.3497 214.54C57.3997 242.7 58.6497 279.61 81.1197 300.97C95.4697 314.6 115.87 319.88 135.59 321.58C174.87 324.98 214.18 314.55 253.21 318.28C289.52 321.75 326.67 337.34 363.15 326.75C421.69 309.74 445.93 236.17 431.95 181.72C426.4 160.12 417.92 139.48 410.98 118.32C401.98 90.8998 405.91 41.8998 379.16 25.0198C367.35 17.5598 352.97 15.5098 339.02 14.6698C306.58 12.7198 273.81 16.4698 242.65 25.6998C238.42 26.9498 233.94 28.3098 229.69 27.1398C225.84 26.0698 222.88 23.1098 219.74 20.6398C218.82 19.9198 217.89 19.2398 216.94 18.5898V18.5598Z" fill="#4257FF"/>
<path d="M3.22978 145.799C0.789777 143.369 -1.21022 135.409 4.81978 133.299C10.8498 131.189 20.4898 143.379 23.6498 144.579C26.7998 145.769 45.3298 145.819 45.3298 145.819C45.3298 145.819 34.6698 137.529 32.2098 130.549C29.7498 123.569 34.8498 121.809 38.2098 122.079C41.5698 122.339 51.8898 130.239 54.8498 131.609C57.8098 132.989 69.0798 132.849 75.9598 135.059C82.8298 137.269 87.9798 145.019 87.9798 145.019L90.0598 148.879V148.909L96.8598 163.309L132.27 225.339L175.7 162.399L207.07 215.569C207.07 215.569 175.7 288.579 132.27 288.579C94.5798 288.579 69.7298 230.389 58.7998 197.949C52.1698 198.869 44.7798 199.309 39.0698 198.629C27.3198 197.239 17.8198 178.879 17.8198 178.879C15.4598 175.649 11.3098 168.819 11.3098 168.819C11.3098 168.819 4.21978 159.869 3.02978 154.409C1.83978 148.959 3.20978 146.559 3.20978 146.559C3.20978 146.559 3.42978 146.009 3.22978 145.809V145.799Z" fill="white"/>
<path d="M132.27 289.41C94.6198 289.41 69.7998 233 58.2298 198.87C50.9498 199.83 43.9998 200.06 38.9798 199.46C27.1398 198.06 17.8098 180.67 17.0998 179.31C14.8198 176.17 11.0098 169.93 10.6198 169.28C10.0198 168.52 3.39976 160.01 2.20976 154.57C1.06976 149.35 2.18976 146.7 2.43976 146.2C2.43976 146.2 2.43976 146.19 2.43976 146.18C0.769765 144.34 -0.520235 140.53 0.209765 137.29C0.739765 134.95 2.23976 133.29 4.54976 132.48C5.09976 132.29 5.69976 132.19 6.32976 132.19C10.5998 132.19 15.5698 136.67 19.5698 140.26C21.3898 141.9 23.0998 143.44 23.9598 143.76C26.1098 144.57 36.8298 144.86 42.9498 144.93C39.7298 142.17 33.3198 136.19 31.4198 130.81C30.3898 127.89 30.4998 125.53 31.7298 123.78C32.8798 122.15 35.0698 121.18 37.5798 121.18C37.8198 121.18 38.0598 121.18 38.2898 121.21C40.5098 121.38 44.7598 124.09 50.0798 127.61C52.2198 129.02 54.2398 130.36 55.2198 130.82C56.4398 131.39 59.6298 131.71 63.0098 132.05C67.4198 132.5 72.4198 133 76.2298 134.23C83.2998 136.51 88.4798 144.2 88.6998 144.53L90.8198 148.45L97.6398 162.91L132.35 223.71L175.01 161.88C175.17 161.64 175.46 161.49 175.74 161.51C176.03 161.51 176.29 161.68 176.44 161.93L207.81 215.1C207.95 215.33 207.97 215.62 207.86 215.87C207.78 216.05 199.83 234.42 186.65 252.54C169.12 276.65 150.32 289.4 132.28 289.4L132.27 289.41ZM58.8098 197.08C59.1698 197.08 59.4998 197.31 59.6098 197.66C70.9398 231.29 95.4398 287.71 132.27 287.71C173.01 287.71 203.55 221.35 206.12 215.6L175.64 163.95L132.97 225.8C132.8 226.04 132.55 226.18 132.23 226.17C131.94 226.16 131.67 226 131.53 225.74L96.1198 163.71L89.3098 149.25L87.2398 145.41C87.2398 145.41 82.2098 137.95 75.7098 135.86C72.0698 134.68 67.1598 134.19 62.8398 133.75C59.0098 133.36 55.9898 133.06 54.5098 132.37C53.4098 131.86 51.4298 130.55 49.1498 129.04C45.3398 126.52 40.1198 123.07 38.1598 122.91C37.9698 122.9 37.7798 122.89 37.5798 122.89C36.8498 122.89 34.3598 123.03 33.1198 124.77C32.2198 126.04 32.1898 127.89 33.0198 130.25C35.3698 136.92 45.7498 145.05 45.8598 145.13C46.1498 145.35 46.2598 145.62 46.1398 145.96C46.0198 146.3 45.6998 146.42 45.3398 146.42C43.4298 146.42 26.5698 146.45 23.3698 145.24C22.2198 144.8 20.5498 143.36 18.4498 141.47C14.8698 138.25 9.95976 133.86 6.34976 133.86C5.91976 133.86 5.50976 133.94 5.12976 134.07C3.37976 134.68 2.28976 135.89 1.88976 137.66C1.27976 140.33 2.43976 143.77 3.84976 145.18C4.37976 145.71 4.14976 146.52 4.02976 146.84C4.01976 146.88 3.99976 146.92 3.97976 146.95C3.97976 146.96 2.80976 149.21 3.88976 154.2C5.01976 159.4 11.9298 168.17 11.9998 168.26C12.0198 168.29 12.0398 168.32 12.0598 168.35C12.0998 168.42 16.2198 175.19 18.5298 178.35C18.5598 178.38 18.5798 178.42 18.5998 178.46C18.6898 178.64 28.0298 196.44 39.1998 197.76C44.2298 198.36 51.3298 198.1 58.7198 197.08C58.7598 197.08 58.7998 197.08 58.8398 197.08H58.8098Z" fill="#333333"/>
<path d="M22.579 169.693C26.119 168.863 30.579 173.003 33.159 177.533C33.709 178.493 34.129 179.283 34.469 179.943C36.209 178.993 43.829 178.043 44.749 177.923C44.889 177.903 45.009 178.003 45.029 178.143C45.049 178.283 44.949 178.403 44.809 178.423C41.339 178.843 35.729 179.733 34.689 180.383C35.659 182.343 35.689 182.883 35.689 182.953C35.689 183.093 35.569 183.203 35.429 183.203C35.289 183.203 35.179 183.083 35.179 182.943C35.179 182.913 35.099 181.973 32.709 177.773C30.289 173.513 25.949 169.413 22.689 170.173C19.169 171.003 17.779 174.633 18.769 180.393C18.789 180.533 18.699 180.663 18.569 180.683C18.499 180.693 18.419 180.683 18.369 180.633C18.319 180.593 18.289 180.543 18.279 180.483C17.229 174.423 18.759 170.583 22.579 169.693Z" fill="#333333"/>
<path d="M35.4394 183.442H35.4194C35.0494 183.442 34.7494 183.212 34.7594 182.842C34.7594 182.842 34.5994 181.902 32.3494 177.942C30.2294 174.222 26.5194 170.492 23.5194 170.492C23.2694 170.492 23.0294 170.532 22.7994 170.582C19.5294 171.352 18.2494 174.812 19.2094 180.322C19.2394 180.502 19.2094 180.682 19.0994 180.832C18.9994 180.982 18.8394 181.082 18.6594 181.112C18.6394 181.112 18.5694 181.122 18.5494 181.122C18.3994 181.122 18.2494 181.072 18.1294 180.972C17.9994 180.872 17.9194 180.722 17.8894 180.562C16.7994 174.242 18.4394 170.242 22.5094 169.282C22.8394 169.202 23.1894 169.162 23.5494 169.162C27.2494 169.162 31.2394 173.262 33.5494 177.322C33.9694 178.062 34.3494 178.752 34.6794 179.382C37.0294 178.452 43.8894 177.602 44.7194 177.502C45.1294 177.492 45.4294 177.752 45.4694 178.092C45.5094 178.462 45.2494 178.802 44.8794 178.842C41.0494 179.312 36.6894 180.052 35.2794 180.582C36.0594 182.222 36.1394 182.702 36.1394 182.872C36.1394 183.232 35.8294 183.442 35.4594 183.442H35.4394Z" fill="#290A43"/>
<path d="M12.6494 155.502C18.5794 153.502 22.9694 158.182 24.0694 160.632C25.1494 163.032 30.3394 168.462 31.0894 169.232C32.9394 168.952 38.3494 168.182 38.9694 168.452C39.0994 168.512 39.1594 168.652 39.0994 168.782C39.0494 168.912 38.8994 168.972 38.7694 168.912C38.3494 168.772 34.4694 169.232 31.0294 169.752C30.9494 169.762 30.8694 169.742 30.8094 169.682C30.5694 169.432 24.7894 163.492 23.5994 160.842C22.5594 158.532 18.3994 154.092 12.7994 155.982C11.8594 156.302 11.1494 156.942 10.6994 157.882C8.93942 161.552 11.5094 168.652 11.5394 168.722C11.5894 168.852 11.5194 168.992 11.3894 169.042C11.2994 169.072 11.2094 169.052 11.1494 169.002C11.1194 168.972 11.0894 168.942 11.0694 168.892C10.9594 168.592 8.39942 161.522 10.2494 157.662C10.7594 156.592 11.5694 155.872 12.6394 155.502H12.6494Z" fill="#333333"/>
<path d="M30.9993 170.182C30.8193 170.182 30.6393 170.112 30.5193 169.972C29.8993 169.332 24.4193 163.652 23.2293 161.012C22.4893 159.362 19.6293 155.952 15.5193 155.952C14.6693 155.952 13.8093 156.102 12.9493 156.392C12.1193 156.672 11.4893 157.242 11.0893 158.072C9.40933 161.572 11.9193 168.512 11.9393 168.582C12.0693 168.932 11.8893 169.322 11.5393 169.452C11.3093 169.532 11.0593 169.492 10.8793 169.342C10.7893 169.272 10.7093 169.162 10.6693 169.052C10.5593 168.742 7.93933 161.512 9.86933 157.492C10.4293 156.312 11.3193 155.512 12.5093 155.112C13.5093 154.772 14.5193 154.602 15.5093 154.602C20.1093 154.602 23.4393 158.202 24.4593 160.462C25.4593 162.682 30.1993 167.692 31.2493 168.792C33.0693 168.522 36.9493 167.982 38.4493 167.982C38.7893 167.982 38.9993 168.012 39.1493 168.072C39.4893 168.222 39.6493 168.622 39.5093 168.962C39.3693 169.292 38.9593 169.462 38.6293 169.322C38.6293 169.322 38.5693 169.322 38.4793 169.322C37.4193 169.322 33.9693 169.752 31.1193 170.182C31.0993 170.182 31.0393 170.182 31.0193 170.182H30.9993Z" fill="#290A43"/>
<path d="M3.79938 145.891C5.06937 144.611 7.37937 143.931 9.82937 144.121C12.8694 144.351 15.6094 145.841 17.3494 148.221C20.5694 152.611 22.8894 154.421 23.3094 154.741L32.3394 154.081C32.4794 154.071 32.5994 154.171 32.6094 154.311C32.6094 154.451 32.5194 154.571 32.3794 154.581L23.2594 155.251C23.1994 155.251 23.1494 155.241 23.0994 155.211C22.9994 155.141 20.5694 153.451 16.9494 148.531C15.2994 146.271 12.6894 144.851 9.79938 144.641C7.49938 144.471 5.33938 145.091 4.16938 146.271C4.07938 146.361 3.92937 146.371 3.82937 146.291C3.82937 146.291 3.81938 146.281 3.80938 146.271C3.70938 146.171 3.70938 146.011 3.80938 145.911L3.79938 145.891Z" fill="#333333"/>
<path d="M23.2296 155.662C23.0896 155.662 22.9596 155.622 22.8496 155.542C22.5796 155.362 20.1596 153.612 16.5996 148.762C15.0196 146.602 12.5196 145.252 9.75957 145.042C7.56957 144.872 5.52957 145.462 4.45957 146.542C4.21957 146.782 3.81957 146.802 3.55957 146.592C3.37957 146.422 3.30957 146.252 3.30957 146.072C3.30957 145.892 3.37957 145.722 3.50957 145.592C4.85957 144.242 7.29957 143.502 9.86957 143.692C13.0296 143.932 15.8896 145.492 17.6996 147.962C20.6296 151.962 22.7996 153.692 23.4396 154.192L32.3096 153.442C32.7096 153.442 32.9996 153.822 33.0296 154.172C33.0596 154.542 32.7796 154.912 32.3996 154.942L23.2796 155.632C23.2796 155.632 23.2396 155.662 23.2296 155.662Z" fill="#290A43"/>
<path d="M71.9503 173.411C77.7303 174.161 82.3203 175.921 82.3603 175.941C82.4903 175.991 82.5503 176.141 82.5003 176.261C82.4503 176.391 82.3003 176.451 82.1803 176.401C82.0003 176.331 64.0203 169.521 54.0903 177.341C54.0003 177.411 53.8703 177.411 53.7803 177.341C53.7703 177.331 53.7503 177.321 53.7403 177.301C53.6503 177.191 53.6703 177.031 53.7803 176.951C59.1003 172.761 66.5903 172.711 71.9403 173.411H71.9503Z" fill="#333333"/>
<path d="M53.94 177.832C53.78 177.832 53.63 177.782 53.51 177.682C53.48 177.662 53.42 177.592 53.4 177.562C53.3 177.432 53.25 177.252 53.27 177.072C53.29 176.892 53.38 176.732 53.52 176.622C56.86 173.992 61.39 172.652 66.97 172.652C68.58 172.652 70.27 172.762 72 172.992C77.75 173.742 82.32 175.472 82.51 175.542C82.68 175.612 82.81 175.732 82.89 175.902C82.96 176.062 82.97 176.252 82.9 176.422C82.77 176.752 82.37 176.942 82.03 176.812C81.96 176.782 74.72 174.022 66.89 174.022C61.66 174.022 57.44 175.252 54.36 177.682C54.24 177.772 54.09 177.832 53.94 177.832Z" fill="#290A43"/>
<path d="M333.76 35.0402L338.36 33.4102L333.66 31.9702C332.26 31.6502 331.16 30.5702 330.81 29.1702L329.11 22.2402L327.75 29.1202C327.46 30.5702 326.36 31.7202 324.93 32.0702L320.6 33.7202L324.87 35.0702C326.36 35.3702 327.53 36.5202 327.85 38.0002L329.29 44.7102L330.85 37.9002C331.18 36.4602 332.32 35.3402 333.76 35.0302V35.0402Z" fill="#333333"/>
<path d="M133.99 162.121L140.96 159.651L133.83 157.471C131.7 156.981 130.03 155.341 129.51 153.221L126.93 142.711L124.86 153.141C124.42 155.341 122.75 157.091 120.58 157.621L114.02 160.121L120.5 162.171C122.76 162.621 124.54 164.371 125.02 166.621L127.2 176.801L129.57 166.461C130.07 164.271 131.79 162.581 133.98 162.111L133.99 162.121Z" fill="#333333"/>
<path d="M381.59 159.14L390.38 156.03L381.4 153.28C378.72 152.67 376.62 150.59 375.96 147.92L372.71 134.67L370.1 147.82C369.55 150.59 367.44 152.8 364.7 153.47L356.43 156.62L364.59 159.21C367.44 159.77 369.68 161.98 370.29 164.82L373.04 177.65L376.02 164.62C376.65 161.86 378.82 159.72 381.58 159.13L381.59 159.14Z" fill="white"/>
<path d="M188.54 35.9414L193.66 34.1314L188.43 32.5314C186.87 32.1714 185.64 30.9614 185.26 29.4114L183.37 21.6914L181.85 29.3514C181.53 30.9714 180.3 32.2514 178.7 32.6414L173.88 34.4714L178.64 35.9814C180.3 36.3114 181.61 37.5914 181.96 39.2514L183.56 46.7314L185.3 39.1414C185.67 37.5314 186.93 36.2914 188.54 35.9414Z" fill="white"/>
<path d="M502.31 145.801C504.75 143.371 506.75 135.411 500.72 133.301C494.69 131.191 485.05 143.381 481.89 144.581C478.74 145.771 460.21 145.821 460.21 145.821C460.21 145.821 470.87 137.531 473.33 130.551C475.79 123.571 470.69 121.811 467.33 122.081C463.97 122.341 453.65 130.241 450.69 131.611C447.73 132.991 436.46 132.851 429.58 135.061C422.71 137.271 417.56 145.021 417.56 145.021L415.48 148.881V148.911L408.68 163.311L373.27 225.341L329.84 162.401L298.47 215.571C298.47 215.571 329.84 288.581 373.27 288.581C410.96 288.581 435.81 230.391 446.74 197.951C453.37 198.871 460.76 199.311 466.47 198.631C478.22 197.241 487.72 178.881 487.72 178.881C490.08 175.651 494.23 168.821 494.23 168.821C494.23 168.821 501.32 159.871 502.51 154.411C503.7 148.961 502.33 146.561 502.33 146.561C502.33 146.561 502.11 146.011 502.31 145.811V145.801Z" fill="white"/>
<path d="M373.27 289.411C355.23 289.411 336.43 276.671 318.9 252.551C305.73 234.431 297.77 216.061 297.69 215.881C297.58 215.631 297.6 215.351 297.74 215.111L329.11 161.941C329.26 161.691 329.52 161.531 329.81 161.521C330.1 161.491 330.37 161.651 330.54 161.891L373.2 223.721L407.94 162.871L414.69 148.531L416.8 144.601C417.06 144.211 422.24 136.521 429.31 134.241C433.13 133.011 438.12 132.511 442.53 132.061C445.9 131.721 449.09 131.401 450.32 130.831C451.31 130.371 453.33 129.041 455.46 127.621C460.78 124.101 465.03 121.391 467.25 121.221C467.48 121.201 467.72 121.191 467.96 121.191C470.47 121.191 472.65 122.161 473.81 123.791C475.05 125.541 475.15 127.901 474.12 130.821C472.22 136.201 465.81 142.181 462.59 144.941C468.71 144.871 479.43 144.591 481.58 143.771C482.44 143.451 484.15 141.901 485.97 140.271C489.97 136.671 494.94 132.201 499.21 132.201C499.83 132.201 500.43 132.301 500.99 132.491C503.3 133.301 504.8 134.961 505.33 137.301C506.07 140.541 504.77 144.351 503.1 146.191C503.1 146.191 503.1 146.201 503.1 146.211C503.35 146.711 504.46 149.361 503.33 154.581C502.15 160.021 495.52 168.541 494.92 169.291C494.53 169.931 490.72 176.171 488.44 179.321C487.73 180.671 478.41 198.071 466.56 199.471C464.69 199.691 462.57 199.801 460.26 199.801C456.35 199.801 451.88 199.481 447.31 198.871C435.74 233.011 410.91 289.411 373.26 289.411H373.27ZM299.42 215.601C301.99 221.351 332.53 287.711 373.27 287.711C410.1 287.711 434.6 231.291 445.93 197.661C446.06 197.271 446.45 197.031 446.85 197.091C451.59 197.751 456.23 198.091 460.27 198.091C462.52 198.091 464.57 197.981 466.37 197.771C477.55 196.451 486.87 178.651 486.97 178.471C486.99 178.431 487.01 178.391 487.04 178.361C489.35 175.191 493.46 168.421 493.51 168.361C493.53 168.331 493.55 168.301 493.57 168.271C493.64 168.181 500.55 159.411 501.68 154.211C502.77 149.221 501.6 146.971 501.59 146.951C501.57 146.921 501.55 146.881 501.54 146.851C501.41 146.531 501.18 145.721 501.71 145.191C503.13 143.781 504.28 140.351 503.68 137.681C503.28 135.921 502.19 134.711 500.44 134.101C500.07 133.971 499.66 133.901 499.22 133.901C495.6 133.901 490.7 138.311 487.12 141.541C485.01 143.441 483.35 144.821 482.2 145.261C478.99 146.471 462.14 146.441 460.23 146.441C459.87 146.441 459.54 146.321 459.43 145.981C459.31 145.641 459.43 145.311 459.71 145.091C459.81 145.011 470.2 136.901 472.55 130.241C473.38 127.871 473.35 126.041 472.45 124.771C471.21 123.021 468.72 122.891 467.99 122.891C467.79 122.891 467.6 122.901 467.41 122.921C465.45 123.071 460.23 126.531 456.42 129.051C454.13 130.561 452.16 131.871 451.06 132.381C449.58 133.071 446.55 133.381 442.73 133.761C438.4 134.201 433.5 134.691 429.86 135.871C423.35 137.971 418.33 145.411 418.28 145.491L416.24 149.281L409.46 163.661L374.02 225.751C373.88 226.001 373.61 226.161 373.32 226.181C373.01 226.201 372.75 226.051 372.58 225.811L329.91 163.961L299.43 215.611L299.42 215.601Z" fill="#333333"/>
<path d="M256.98 3.04062C256.98 3.04062 267.6 -2.26938 280.24 3.35062C285.75 5.80062 300.74 17.1206 303.5 35.7906C306.25 54.4606 328.29 94.2406 328.29 94.2406C328.29 94.2406 318.19 104.641 308.71 108.621C299.22 112.601 290.04 115.961 290.04 115.961L282.7 100.661L284.84 116.271C284.84 116.271 229.76 120.551 217.21 118.111C204.66 115.661 200.69 113.211 200.69 113.211L207.12 98.5206L198.55 111.681L180.8 99.1306C180.8 99.1306 200.38 78.3206 205.28 63.3306C210.18 48.3406 209.56 -14.3994 257 3.05062L256.98 3.04062Z" fill="#333333"/>
<path d="M202.71 203.051C196.37 212.461 190.18 222.451 184.72 231.941C184.54 231.951 184.34 231.951 184.16 231.961C157.18 233.111 137.97 213.771 130.87 205.261C141.81 186.011 152.44 170.211 152.94 169.471L177.82 186.261L202.71 203.041V203.051Z" fill="#4257FF"/>
<path d="M227.78 62.41C227.78 62.41 219.11 53.55 211.82 56.17C204.53 58.79 203.55 74.5 211.39 77.56C219.23 80.62 228.63 74.48 228.63 74.48L227.78 62.41Z" fill="white"/>
<path d="M216.17 79.2598C214.34 79.2598 212.63 78.9498 211.08 78.3498C206.56 76.5898 205.02 71.3898 205.07 67.1098C205.13 62.3998 207.15 56.9398 211.53 55.3698C212.52 55.0198 213.57 54.8398 214.68 54.8398C221.47 54.8398 228.11 61.5298 228.39 61.8198C228.53 61.9598 228.62 62.1498 228.63 62.3498L229.48 74.4198C229.5 74.7298 229.36 75.0198 229.1 75.1898C228.84 75.3598 222.78 79.2598 216.18 79.2598H216.17ZM214.68 56.5298C213.77 56.5298 212.91 56.6798 212.1 56.9598C209.02 58.0598 206.83 62.2398 206.77 67.1198C206.72 70.8298 207.99 75.3098 211.7 76.7598C213.05 77.2898 214.56 77.5498 216.18 77.5498C221.33 77.5498 226.3 74.8598 227.75 74.0098L226.96 62.7798C225.79 61.6598 220.13 56.5198 214.69 56.5198L214.68 56.5298Z" fill="#333333"/>
<path d="M319.66 240.499C319.66 240.499 357.57 232.289 375.9 207.329C375.9 207.329 334.71 132.089 316.34 126.949C311.61 125.629 278.4 118.869 278.4 118.869L226.5 121.079C223.68 121.429 177.59 134.009 170.68 139.189C159.91 147.269 154.52 169.539 143.75 182.519C132.98 195.489 127.83 201.369 127.83 201.369C127.83 201.369 128.86 202.899 130.85 205.279C137.95 213.779 157.16 233.129 184.14 231.979C184.32 231.969 184.52 231.969 184.7 231.959C185.77 231.919 186.89 231.869 188.06 231.829C188.21 232.089 188.3 232.229 188.3 232.229C188.3 232.229 182.67 262.339 179.73 276.049C176.79 289.759 171.41 324.699 171.41 324.699C171.41 324.699 175.36 327.959 190.54 324.039C205.72 320.119 196.63 312.769 220.13 312.769C243.63 312.769 274.2 331.449 329.03 314.799C329.03 314.799 317.62 237.329 319.02 228.149L319.66 240.519V240.499Z" fill="#A1C3FF"/>
<path d="M177.82 326.79C172.81 326.79 171.07 325.48 170.89 325.33C170.66 325.14 170.55 324.84 170.59 324.55C170.64 324.2 176.01 289.43 178.92 275.85C181.59 263.4 186.54 237.09 187.37 232.68C186.47 232.71 185.6 232.75 184.76 232.78C184.68 232.78 184.57 232.78 184.46 232.79H184.21C183.41 232.83 182.63 232.85 181.86 232.85C155.64 232.85 137.01 213.93 130.22 205.8C128.23 203.42 127.19 201.89 127.15 201.82C126.93 201.5 126.96 201.07 127.21 200.78C127.26 200.72 132.48 194.76 143.11 181.95C147.85 176.24 151.57 168.64 155.16 161.28C159.73 151.92 164.06 143.08 170.18 138.48C177.25 133.17 222.94 120.64 226.4 120.21L278.37 118C278.43 118 278.51 118 278.57 118.02C279.93 118.3 311.86 124.79 316.57 126.11C335.07 131.28 374.96 203.81 376.64 206.9C376.8 207.19 376.78 207.54 376.58 207.81C359.53 231.04 325.32 239.99 320.42 241.18C322.67 265.61 329.78 314.03 329.87 314.64C329.93 315.06 329.68 315.45 329.28 315.58C313.89 320.25 299.32 322.52 284.74 322.52C268.27 322.52 254.96 319.64 243.21 317.09C234.52 315.21 227.02 313.58 220.13 313.58C206.62 313.58 204.24 315.99 201.49 318.79C199.48 320.84 197.2 323.15 190.75 324.82C185.72 326.12 181.36 326.78 177.8 326.78L177.82 326.79ZM172.36 324.23C173.04 324.54 174.69 325.1 177.82 325.1C181.23 325.1 185.45 324.46 190.34 323.2C196.33 321.65 198.35 319.61 200.29 317.63C203.31 314.56 205.91 311.91 220.14 311.91C227.21 311.91 234.8 313.55 243.58 315.46C255.24 317.99 268.46 320.85 284.75 320.85C298.94 320.85 313.13 318.67 328.1 314.19C326.88 305.83 316.85 236.84 318.19 228.01C318.26 227.58 318.64 227.27 319.07 227.29C319.51 227.31 319.85 227.66 319.88 228.09L320.46 239.44C326.45 237.95 358.5 229.13 374.9 207.26C371.36 200.86 333.18 132.54 316.12 127.76C311.6 126.49 280.38 120.13 278.35 119.72L226.55 121.92C222.9 122.38 177.77 134.94 171.21 139.86C165.41 144.21 161.18 152.87 156.69 162.04C153.05 169.48 149.29 177.18 144.42 183.04C135.51 193.78 130.39 199.71 128.93 201.4C129.39 202.03 130.27 203.2 131.53 204.71C138.36 212.89 157.46 232.23 184.13 231.1C184.21 231.1 184.31 231.1 184.41 231.09C184.5 231.09 184.59 231.09 184.67 231.08C185.76 231.04 186.88 230.99 188.05 230.95C188.37 230.93 188.66 231.1 188.82 231.37C188.96 231.61 189.04 231.75 189.05 231.75C189.16 231.93 189.2 232.14 189.16 232.35C189.1 232.65 183.49 262.63 180.59 276.19C177.9 288.76 173.08 319.62 172.37 324.21L172.36 324.23Z" fill="#333333"/>
<path d="M299.04 54.3508C295.16 53.3508 291.2 55.4508 288.28 57.7008L288.3 57.6008C288.27 57.6608 288.25 57.7108 288.23 57.7408C288.21 57.7608 288.19 57.7708 288.16 57.7908C287.58 57.2308 256.05 20.3108 254.84 18.8008L220.64 57.1408C222.15 70.8908 223.33 87.8408 236.03 96.0408L235.78 96.0908C235.78 96.0908 235.52 117.061 233.68 118.101C231.85 119.151 225.56 120.981 225.56 120.981C225.56 120.981 228.7 138.541 255.17 136.971C281.64 135.401 281.12 118.621 281.12 118.621C281.12 118.621 273 117.311 271.69 115.471C270.71 114.101 271.34 100.301 271.72 93.4108C272.2 93.0208 272.68 92.6208 273.13 92.2208C278.49 87.4308 282.31 81.2108 284.59 74.4208C286.8 75.4508 295 78.8408 301.45 75.6008C308.97 71.8308 306.54 56.2708 299.04 54.3408V54.3508Z" fill="white"/>
<path d="M251.9 137.911C228.01 137.911 224.76 121.291 224.73 121.131C224.65 120.701 224.91 120.291 225.33 120.171C227.03 119.671 231.71 118.221 233.21 117.401C234.13 116.131 234.81 105.791 234.94 96.3313C223.14 88.2213 221.5 72.9213 220.04 59.4013L219.81 57.2413C219.78 57.0013 219.86 56.7613 220.02 56.5813L254.22 18.2413C254.39 18.0513 254.63 17.9413 254.88 17.9613C255.13 17.9613 255.36 18.0813 255.52 18.2813C256.76 19.8413 284.2 51.9613 288.29 56.6513C292.23 53.7513 295.98 52.6913 299.27 53.5413C303.77 54.7013 306.29 59.9413 306.79 64.6313C307.24 68.8913 306.19 74.2113 301.85 76.3813C299.92 77.3513 297.69 77.8413 295.22 77.8413C291.07 77.8413 287.19 76.4813 285.11 75.5913C282.67 82.4213 278.74 88.3813 273.71 92.8713C273.34 93.2013 272.95 93.5313 272.56 93.8513C271.78 108.191 271.98 114.221 272.41 115.021C273.16 116.061 278.05 117.281 281.27 117.801C281.67 117.861 281.97 118.211 281.98 118.611C281.98 118.791 282.22 136.231 255.24 137.831C254.11 137.901 252.99 137.931 251.91 137.931L251.9 137.911ZM226.58 121.561C227.46 124.651 232.07 136.211 251.9 136.211C252.94 136.211 254.03 136.181 255.13 136.111C277.67 134.771 280.02 122.431 280.25 119.321C277.94 118.911 272.27 117.731 271 115.961C270.65 115.471 269.72 114.171 270.88 93.3613C270.89 93.1213 271.01 92.9013 271.19 92.7513C271.66 92.3713 272.13 91.9813 272.57 91.5813C277.59 87.1013 281.47 81.0713 283.79 74.1513C283.87 73.9213 284.04 73.7413 284.26 73.6413C284.48 73.5513 284.73 73.5513 284.95 73.6513C286.54 74.3913 290.73 76.1213 295.2 76.1213C297.41 76.1213 299.38 75.6913 301.07 74.8513C304.63 73.0713 305.47 68.4913 305.08 64.8013C304.56 59.9513 301.99 55.9913 298.83 55.1813C295.91 54.4313 292.5 55.5313 288.8 58.3813C288.8 58.3813 288.78 58.3913 288.78 58.4013C288.78 58.4013 288.76 58.4113 288.76 58.4213C288.43 58.6813 287.88 58.7113 287.58 58.4213C287.06 57.9213 259.55 25.7313 254.83 20.1213L221.53 57.4413L221.72 59.2313C223.16 72.6213 224.79 87.7913 236.49 95.3413C236.78 95.5313 236.93 95.8813 236.86 96.2213C236.83 96.3913 236.74 96.5513 236.62 96.6613C236.48 106.341 235.93 117.801 234.1 118.851C232.58 119.721 228.33 121.051 226.57 121.581L226.58 121.561Z" fill="#333333"/>
<path d="M285.57 306.09C289.41 306.09 293.22 305.85 296.86 305.28C297.1 305.24 297.27 305.01 297.23 304.76C297.19 304.52 296.97 304.35 296.71 304.39C273.31 308.04 242.87 298.03 242.57 297.92C242.32 297.85 242.08 297.97 242 298.2C241.92 298.44 242.05 298.69 242.28 298.77C242.54 298.85 264.51 306.08 285.56 306.08L285.57 306.09Z" fill="#333333"/>
<path d="M236.81 95.3301C243.09 99.5501 259.18 99.2601 264.75 95.3301C264.75 95.3301 255.72 107.07 235.49 105.54L236.82 95.3301H236.81Z" fill="#333333"/>
<path d="M287.33 68.8799C287.18 68.8799 287.02 68.8399 286.88 68.7499C286.48 68.4999 286.36 67.9799 286.6 67.5799C288.98 63.7199 291.69 61.5099 294.64 61.0099C298.01 60.4399 300.41 62.3599 300.51 62.4399C300.87 62.7399 300.93 63.2699 300.63 63.6299C300.33 63.9899 299.8 64.0499 299.44 63.7499C299.42 63.7299 297.5 62.2299 294.89 62.6799C292.45 63.0999 290.14 65.0499 288.04 68.4599C287.88 68.7199 287.6 68.8599 287.32 68.8599L287.33 68.8799Z" fill="#333333"/>
<path d="M293.9 67.93C293.63 67.93 293.36 67.8 293.2 67.56L290.68 63.86C290.42 63.47 290.52 62.94 290.9 62.68C291.29 62.42 291.81 62.52 292.08 62.9L294.6 66.61C294.86 67 294.76 67.52 294.38 67.79C294.23 67.89 294.07 67.94 293.9 67.94V67.93Z" fill="#333333"/>
<path d="M222.019 69.4714C221.699 69.4714 221.389 69.2914 221.249 68.9714C220.019 66.2814 218.419 64.6413 216.509 64.0913C213.819 63.3213 211.299 64.9713 211.279 64.9913C210.889 65.2513 210.359 65.1414 210.099 64.7614C209.839 64.3714 209.939 63.8514 210.329 63.5814C210.459 63.4914 213.499 61.4814 216.959 62.4514C219.389 63.1314 221.349 65.0914 222.799 68.2614C222.989 68.6914 222.799 69.1913 222.379 69.3813C222.269 69.4313 222.149 69.4614 222.029 69.4614L222.019 69.4714Z" fill="#333333"/>
<path d="M252.45 70.7899C252.32 70.7899 252.19 70.7599 252.07 70.6999C251.26 70.2799 250.47 69.6799 249.75 68.8999C248.73 67.7999 248.48 66.1899 249.12 64.7899C250.39 62.0199 251.63 58.1099 251.65 58.0799C251.79 57.6299 252.27 57.3799 252.72 57.5299C253.17 57.6699 253.41 58.1499 253.27 58.5999C253.22 58.7599 251.98 62.6399 250.67 65.5099C250.32 66.2699 250.45 67.1699 251 67.7499C251.59 68.3799 252.21 68.8699 252.85 69.1899C253.27 69.3999 253.43 69.9099 253.22 70.3299C253.07 70.6199 252.77 70.7899 252.46 70.7899H252.45Z" fill="#333333"/>
<path d="M272.18 47.6712C271.83 47.3712 271.42 47.1512 271.02 47.0712C268.97 46.6412 266.86 46.2812 264.78 46.5812C263.86 46.7112 261.68 47.3812 262.24 48.6812C262.54 49.3712 263.93 49.6112 264.54 49.7612C266.46 50.2212 268.45 50.3212 270.41 50.4412C270.95 50.4712 271.51 50.4912 272.01 50.2812C273.5 49.6612 273.07 48.4212 272.18 47.6712Z" fill="#333333"/>
<path d="M233.49 46.2709C233.85 45.9909 234.28 45.8009 234.69 45.7409C236.76 45.4309 238.89 45.1909 240.94 45.5909C241.86 45.7709 243.99 46.5609 243.36 47.8309C243.03 48.5009 241.62 48.6709 241 48.7809C239.06 49.1309 237.06 49.1209 235.1 49.1309C234.56 49.1309 234 49.1309 233.51 48.8909C232.06 48.1909 232.56 46.9809 233.49 46.2709Z" fill="#333333"/>
<path d="M482.96 169.693C479.42 168.863 474.96 173.003 472.38 177.533C471.83 178.493 471.41 179.283 471.07 179.943C469.33 178.993 461.71 178.043 460.79 177.923C460.65 177.903 460.53 178.003 460.51 178.143C460.49 178.283 460.59 178.403 460.73 178.423C464.2 178.843 469.81 179.733 470.85 180.383C469.88 182.343 469.85 182.883 469.85 182.953C469.85 183.093 469.97 183.203 470.11 183.203C470.25 183.203 470.36 183.083 470.36 182.943C470.36 182.913 470.44 181.973 472.83 177.773C475.25 173.513 479.59 169.413 482.85 170.173C486.37 171.003 487.76 174.633 486.77 180.393C486.75 180.533 486.84 180.663 486.97 180.683C487.04 180.693 487.12 180.683 487.17 180.633C487.22 180.593 487.25 180.543 487.26 180.483C488.31 174.423 486.78 170.583 482.96 169.693Z" fill="#333333"/>
<path d="M470.1 183.442C469.74 183.442 469.43 183.242 469.42 182.872C469.42 182.642 469.53 182.092 470.28 180.532C468.87 180.002 464.51 179.282 460.68 178.812C460.31 178.772 460.05 178.442 460.09 178.072C460.13 177.732 460.42 177.482 460.76 177.482C461.66 177.582 468.53 178.442 470.88 179.372C471.21 178.732 471.59 178.052 472.01 177.312C474.32 173.252 478.31 169.152 482.01 169.152C482.37 169.152 482.72 169.192 483.05 169.272C487.12 170.232 488.76 174.232 487.67 180.552C487.64 180.712 487.56 180.862 487.43 180.962C487.31 181.062 487.16 181.112 487 181.112C486.98 181.112 486.91 181.112 486.88 181.102C486.71 181.072 486.55 180.972 486.44 180.822C486.34 180.672 486.3 180.492 486.33 180.312C487.28 174.802 486 171.342 482.74 170.582C482.51 170.532 482.27 170.502 482.02 170.502C479.01 170.502 475.3 174.262 473.19 177.982C470.93 181.962 470.78 182.942 470.78 182.982C470.78 183.112 470.72 183.192 470.6 183.322C470.48 183.452 470.31 183.442 470.13 183.442H470.11H470.1Z" fill="#290A43"/>
<path d="M492.889 155.502C486.959 153.502 482.569 158.182 481.469 160.632C480.389 163.032 475.199 168.462 474.449 169.232C472.599 168.952 467.189 168.182 466.569 168.452C466.439 168.512 466.379 168.652 466.439 168.782C466.489 168.912 466.639 168.972 466.769 168.912C467.189 168.772 471.069 169.232 474.509 169.752C474.589 169.762 474.669 169.742 474.729 169.682C474.969 169.432 480.749 163.492 481.939 160.842C482.979 158.532 487.139 154.092 492.739 155.982C493.679 156.302 494.389 156.942 494.839 157.882C496.599 161.552 494.029 168.652 493.999 168.722C493.949 168.852 494.019 168.992 494.149 169.042C494.239 169.072 494.329 169.052 494.389 169.002C494.419 168.972 494.449 168.942 494.469 168.892C494.579 168.592 497.139 161.522 495.289 157.662C494.779 156.592 493.969 155.872 492.899 155.502H492.889Z" fill="#333333"/>
<path d="M474.539 170.182C474.539 170.182 474.449 170.182 474.429 170.182C471.579 169.762 468.129 169.322 467.069 169.322C466.979 169.322 466.919 169.322 466.879 169.322C466.839 169.342 466.749 169.362 466.659 169.362C466.389 169.362 466.139 169.202 466.039 168.952C465.899 168.612 466.05 168.212 466.39 168.062C466.54 168.002 466.749 167.972 467.089 167.972C468.589 167.972 472.469 168.512 474.289 168.782C475.339 167.692 480.079 162.672 481.079 160.452C482.099 158.182 485.419 154.592 490.029 154.592C491.019 154.592 492.029 154.762 493.029 155.102C494.219 155.502 495.11 156.302 495.67 157.482C497.59 161.502 494.979 168.732 494.869 169.042C494.829 169.162 494.749 169.262 494.659 169.332C494.479 169.482 494.229 169.522 493.999 169.442C493.829 169.382 493.699 169.252 493.619 169.092C493.539 168.932 493.539 168.742 493.599 168.572C494.309 166.642 495.849 160.982 494.449 158.062C494.049 157.232 493.429 156.662 492.589 156.382C491.729 156.092 490.869 155.942 490.019 155.942C485.909 155.942 483.049 159.352 482.309 161.002C481.159 163.572 476.039 168.912 475.029 169.962C474.899 170.102 474.729 170.172 474.539 170.172V170.182Z" fill="#290A43"/>
<path d="M501.74 145.891C500.47 144.611 498.16 143.931 495.71 144.121C492.67 144.351 489.93 145.841 488.19 148.221C484.97 152.611 482.65 154.421 482.23 154.741L473.2 154.081C473.06 154.071 472.94 154.171 472.93 154.311C472.93 154.451 473.02 154.571 473.16 154.581L482.28 155.251C482.34 155.251 482.39 155.241 482.44 155.211C482.54 155.141 484.97 153.451 488.59 148.531C490.24 146.271 492.85 144.851 495.74 144.641C498.04 144.471 500.2 145.091 501.37 146.271C501.46 146.361 501.61 146.371 501.71 146.291C501.71 146.291 501.72 146.281 501.73 146.271C501.83 146.171 501.83 146.011 501.73 145.911L501.74 145.891Z" fill="#333333"/>
<path d="M482.31 155.662C482.31 155.662 482.27 155.662 482.26 155.662L473.14 154.992C472.77 154.962 472.49 154.642 472.52 154.272C472.55 153.922 472.84 153.642 473.19 153.642L482.11 154.292C482.75 153.792 484.92 151.952 487.85 147.962C489.67 145.492 492.52 143.932 495.68 143.692C498.26 143.502 500.69 144.242 502.04 145.592C502.17 145.722 502.24 145.892 502.24 146.072C502.24 146.252 502.17 146.422 502.04 146.552C502.03 146.562 501.99 146.592 501.98 146.612C501.87 146.702 501.72 146.752 501.57 146.752C501.39 146.752 501.22 146.682 501.09 146.552C500.01 145.472 497.97 144.872 495.79 145.052C493.02 145.262 490.53 146.612 488.95 148.772C485.38 153.642 482.97 155.372 482.7 155.552C482.59 155.632 482.46 155.672 482.32 155.672L482.31 155.662Z" fill="#290A43"/>
<path d="M433.59 173.411C427.81 174.161 423.22 175.921 423.18 175.941C423.05 175.991 422.99 176.141 423.04 176.261C423.09 176.391 423.24 176.451 423.36 176.401C423.54 176.331 441.52 169.521 451.45 177.341C451.54 177.411 451.67 177.411 451.76 177.341C451.77 177.331 451.79 177.321 451.8 177.301C451.89 177.191 451.87 177.031 451.76 176.951C446.44 172.761 438.95 172.711 433.6 173.411H433.59Z" fill="#333333"/>
<path d="M451.6 177.832C451.45 177.832 451.3 177.782 451.18 177.682C448.09 175.252 443.88 174.022 438.65 174.022C430.83 174.022 423.58 176.782 423.51 176.812C423.17 176.942 422.77 176.762 422.64 176.422C422.57 176.252 422.58 176.072 422.65 175.902C422.72 175.742 422.86 175.612 423.03 175.542C423.22 175.472 427.8 173.742 433.54 172.992C435.27 172.772 436.96 172.652 438.57 172.652C444.16 172.652 448.68 173.982 452.02 176.622C452.16 176.732 452.25 176.892 452.27 177.072C452.29 177.252 452.24 177.432 452.13 177.572C452.11 177.602 452.04 177.662 452.01 177.692C451.9 177.782 451.75 177.832 451.59 177.832H451.6Z" fill="#290A43"/>
<path d="M188.31 233.051C188.31 233.051 188.26 233.051 188.23 233.051C187.76 233.001 187.42 232.591 187.47 232.121C187.98 226.841 187.26 222.681 186.49 218.271C185.59 213.091 184.65 207.741 185.43 199.891C186.86 185.371 191.17 171.751 191.21 171.621C191.35 171.171 191.83 170.931 192.28 171.071C192.73 171.211 192.97 171.691 192.83 172.141C192.79 172.271 188.53 185.731 187.12 200.061C186.37 207.691 187.28 212.921 188.16 217.981C188.95 222.501 189.69 226.781 189.16 232.291C189.12 232.731 188.75 233.061 188.32 233.061L188.31 233.051Z" fill="#333333"/>
<path d="M319.03 229.441C318.56 229.441 318.18 228.831 318.18 228.361C318.18 225.161 318.41 222.441 318.63 219.931C319.07 215.041 319.52 209.931 318.19 200.151C316.2 185.561 307.69 165.841 307.6 165.641C307.41 165.211 307.6 164.701 308.04 164.511C308.47 164.321 308.97 164.511 309.16 164.941C309.25 165.141 317.85 185.041 319.87 199.861C321.23 209.831 320.77 214.981 320.32 219.961C320.1 222.441 319.87 225.231 319.87 228.361C319.87 228.831 319.49 229.441 319.02 229.441H319.03Z" fill="#333333"/>
<path d="M313.7 180.091C313.63 180.091 313.56 180.091 313.49 180.071C313.04 179.961 312.76 179.501 312.87 179.041L315.3 169.281C315.41 168.831 315.87 168.551 316.33 168.661C316.78 168.771 317.06 169.231 316.95 169.691L314.52 179.451C314.42 179.841 314.08 180.091 313.7 180.091Z" fill="#290A43"/>
<path d="M189.01 180.091C188.73 180.091 188.45 179.951 188.29 179.691L185.28 174.811C185.03 174.411 185.16 173.891 185.56 173.641C185.96 173.391 186.48 173.521 186.73 173.921L189.74 178.801C189.99 179.201 189.86 179.721 189.46 179.971C189.32 180.061 189.17 180.101 189.01 180.101V180.091Z" fill="#290A43"/>
<path d="M256.39 143.971C241.33 143.971 229.06 136.201 228.9 136.101C228.51 135.851 228.39 135.321 228.65 134.931C228.9 134.541 229.43 134.421 229.82 134.681C230.02 134.811 249.81 147.321 269.57 139.981C270.01 139.821 270.5 140.041 270.66 140.481C270.82 140.921 270.6 141.411 270.16 141.571C265.49 143.311 260.81 143.981 256.39 143.981V143.971Z" fill="#333333"/>
<path d="M179.319 223.272C158.909 223.272 143.089 206.052 142.929 205.872C142.619 205.522 142.639 204.992 142.989 204.672C143.339 204.362 143.869 204.382 144.189 204.732C144.349 204.902 160.299 222.232 180.519 221.552C181.019 221.512 181.379 221.902 181.399 222.372C181.419 222.842 181.049 223.232 180.579 223.252C180.159 223.262 179.739 223.272 179.329 223.272H179.319Z" fill="#333333"/>
<path d="M269.869 210.821C269.809 210.821 269.739 210.821 269.669 210.801C266.259 209.991 257.719 207.421 250.229 204.941C235.209 199.971 235.309 199.221 235.439 198.361C235.579 197.371 236.779 197.441 237.349 197.471C244.389 197.851 281.559 195.881 281.929 195.861C282.399 195.831 282.799 196.191 282.819 196.661C282.839 197.131 282.489 197.531 282.019 197.551C280.629 197.621 250.639 199.211 239.859 199.211C239.649 199.211 239.439 199.211 239.239 199.211C245.729 201.911 263.879 207.681 270.059 209.151C270.519 209.261 270.799 209.711 270.689 210.171C270.599 210.561 270.249 210.821 269.869 210.821Z" fill="#333333"/>
<path d="M335.42 227.03C335.02 227.03 334.66 226.74 334.59 226.33C334.51 225.87 334.81 225.43 335.28 225.35C345.64 223.5 361.5 208.48 361.66 208.33C362 208.01 362.54 208.02 362.86 208.36C363.18 208.7 363.17 209.24 362.83 209.56C362.17 210.19 346.43 225.08 335.58 227.02C335.53 227.02 335.48 227.03 335.43 227.03H335.42Z" fill="#333333"/>
<path d="M277.56 23.7809C276.5 25.3009 277.52 27.4909 276.84 29.2109C276.03 31.2809 273.1 31.7009 271.1 30.7309C269.1 29.7609 267.72 27.8909 266.14 26.3209C265.05 25.2409 263.83 24.2609 262.99 22.9809C262.15 21.7009 261.74 19.9909 262.45 18.6309C263.44 16.7209 266.02 16.3909 268.17 16.5009C269.87 16.5909 271.81 16.7409 273.03 15.5509C274.25 14.3609 274.16 12.3909 273.78 10.7309C273.39 9.07094 272.789 7.35094 273.269 5.71094C279.129 8.28094 284.36 12.2709 288.39 17.2509C289.54 18.6709 290.49 21.0409 288.99 22.0909C288.23 22.6209 287.199 22.4709 286.269 22.3709C283.319 22.0509 280.28 22.5409 277.57 23.7609L277.56 23.7809Z" fill="white"/>
<path d="M232.41 23.7809C233.47 25.3009 232.45 27.4909 233.13 29.2109C233.94 31.2809 236.87 31.7009 238.87 30.7309C240.87 29.7609 242.25 27.8909 243.83 26.3209C244.92 25.2409 246.14 24.2609 246.98 22.9809C247.82 21.7009 248.23 19.9909 247.52 18.6309C246.53 16.7209 243.95 16.3909 241.8 16.5009C240.1 16.5909 238.16 16.7409 236.94 15.5509C235.72 14.3609 235.81 12.3909 236.19 10.7309C236.58 9.07094 237.18 7.35094 236.7 5.71094C230.84 8.28094 225.61 12.2709 221.58 17.2509C220.43 18.6709 219.48 21.0409 220.98 22.0909C221.74 22.6209 222.77 22.4709 223.7 22.3709C226.65 22.0509 229.69 22.5409 232.4 23.7609L232.41 23.7809Z" fill="white"/>
<path d="M330.95 239.68H164.38C159.503 239.68 155.55 243.633 155.55 248.51V339.8C155.55 344.676 159.503 348.63 164.38 348.63H330.95C335.826 348.63 339.78 344.676 339.78 339.8V248.51C339.78 243.633 335.826 239.68 330.95 239.68Z" fill="#333333"/>
<path d="M261.769 297.24C262.659 293.28 262.319 288.79 259.759 285.64C253.149 277.51 232.839 278.19 235.479 292.11C236.009 294.91 237.469 297.47 239.249 299.7C241.199 302.14 243.599 304.3 246.469 305.52C250.239 307.12 255.019 306.89 258.159 304.06C260.099 302.31 261.199 299.79 261.769 297.23V297.24Z" fill="white"/>
<path d="M293.48 71.9902H292.23C291.031 71.9902 290.06 72.9618 290.06 74.1602V80.3602C290.06 81.5587 291.031 82.5302 292.23 82.5302H293.48C294.678 82.5302 295.65 81.5587 295.65 80.3602V74.1602C295.65 72.9618 294.678 71.9902 293.48 71.9902Z" fill="white"/>
<path d="M216.489 71.9902H215.239C214.041 71.9902 213.069 72.9618 213.069 74.1602V80.3602C213.069 81.5587 214.041 82.5302 215.239 82.5302H216.489C217.688 82.5302 218.659 81.5587 218.659 80.3602V74.1602C218.659 72.9618 217.688 71.9902 216.489 71.9902Z" fill="white"/>
<path d="M253.22 83.6099C249.62 83.6099 246.9 82.4299 246.84 82.4099C246.41 82.2199 246.22 81.7199 246.41 81.2899C246.6 80.8599 247.1 80.6699 247.53 80.8599C247.92 81.0299 257.18 84.9999 263.49 76.7399C263.78 76.3699 264.31 76.2899 264.68 76.5799C265.05 76.8599 265.12 77.3999 264.84 77.7699C261.28 82.4399 256.81 83.6099 253.22 83.6099Z" fill="#333333"/>
<path d="M266.07 79.1608C265.9 79.1608 265.73 79.1108 265.58 79.0008L261.93 76.4108C261.55 76.1408 261.46 75.6108 261.73 75.2308C262 74.8508 262.53 74.7608 262.91 75.0308L266.56 77.6208C266.94 77.8908 267.03 78.4208 266.76 78.8008C266.59 79.0308 266.33 79.1608 266.07 79.1608Z" fill="#333333"/>
<path d="M396.149 44.9113V49.6413H444.159V117.311H348.079V44.9113C348.079 43.1813 349.479 41.7812 351.209 41.7812H393.029C394.759 41.7812 396.159 43.1813 396.159 44.9113H396.149Z" fill="#333333"/>
<path d="M393.229 47.8312V52.5612H441.239V116.921H345.159V47.8312C345.159 46.1012 346.559 44.7012 348.289 44.7012H390.109C391.839 44.7012 393.239 46.1012 393.239 47.8312H393.229Z" fill="#5669FF"/>
<path d="M441.24 117.762H345.16C344.69 117.762 344.31 117.382 344.31 116.912V47.8316C344.31 45.6416 346.09 43.8516 348.29 43.8516H390.11C392.3 43.8516 394.09 45.6316 394.09 47.8316V51.7116H441.25C441.72 51.7116 442.1 52.0916 442.1 52.5616V116.922C442.1 117.392 441.72 117.772 441.25 117.772L441.24 117.762ZM346 116.062H440.39V53.4016H393.23C392.76 53.4016 392.38 53.0216 392.38 52.5516V47.8216C392.38 46.5616 391.36 45.5416 390.1 45.5416H348.28C347.02 45.5416 346 46.5616 346 47.8216V116.062Z" fill="#333333"/>
<path d="M419.6 42.1411L441.71 29.3711L463.84 42.1411V67.6711L441.71 80.4511L419.6 67.6711V42.1411Z" fill="#A1C3FF"/>
<path d="M441.71 81.4306L418.75 68.1606V41.6506L441.71 28.3906L464.69 41.6506V68.1606L441.71 81.4306ZM420.45 67.1806L441.71 79.4706L462.99 67.1806V42.6306L441.71 30.3506L420.45 42.6306V67.1806Z" fill="#333333"/>
<path d="M439.92 67.8794C438.65 67.8794 437.44 67.3194 436.6 66.3494L427.34 55.4294C425.79 53.6094 426.02 50.8594 427.84 49.2994C429.68 47.7494 432.41 47.9794 433.97 49.7994L439.79 56.6794L449.88 43.9094C451.37 42.0194 454.1 41.6994 455.98 43.1994C457.86 44.6894 458.19 47.4194 456.69 49.2994L443.3 66.2294C442.5 67.2494 441.27 67.8594 439.97 67.8794H439.92Z" fill="white"/>
<path d="M439.98 68.7299H439.92C438.4 68.7299 436.95 68.0699 435.96 66.9099L426.7 55.9799C424.86 53.7999 425.13 50.5199 427.3 48.6599C428.25 47.8599 429.44 47.4299 430.66 47.4299C432.19 47.4299 433.63 48.0999 434.62 49.2599L439.77 55.3499L449.22 43.3999C450.21 42.1399 451.7 41.4199 453.29 41.4199C454.45 41.4199 455.6 41.8199 456.51 42.5499C457.59 43.4099 458.28 44.6499 458.44 46.0199C458.6 47.3999 458.22 48.7599 457.35 49.8399L443.96 66.7699C443.02 67.9799 441.52 68.7199 439.97 68.7399L439.98 68.7299ZM430.66 49.1199C429.84 49.1199 429.03 49.4099 428.39 49.9499C426.93 51.1999 426.75 53.4199 427.99 54.8799L437.25 65.7999C437.92 66.5799 438.89 67.0299 439.92 67.0299L439.97 67.8799V67.0299C441 67.0199 442 66.5199 442.64 65.7099L456.04 48.7699C456.62 48.0399 456.88 47.1299 456.77 46.1999C456.66 45.2699 456.2 44.4399 455.46 43.8599C454.84 43.3599 454.09 43.0999 453.3 43.0999C452.23 43.0999 451.23 43.5899 450.56 44.4299L439.83 58.0099L433.34 50.3399C432.67 49.5599 431.7 49.1099 430.67 49.1099L430.66 49.1199Z" fill="#290A43"/>
<path d="M85.2003 330.959L85.2715 368.049L241.101 367.75L241.03 330.66L85.2003 330.959Z" fill="#A1C3FF"/>
<path d="M84.4196 368.91L84.3496 330.13L241.87 329.84L241.94 368.62L84.4196 368.91ZM86.0496 331.82L86.1196 367.21L240.25 366.93L240.19 331.54L86.0596 331.82H86.0496Z" fill="#333333"/>
<path d="M222.939 339.359C228.469 339.349 232.969 343.779 232.979 349.249C232.989 354.719 228.509 359.169 222.979 359.179C217.449 359.189 212.949 354.759 212.939 349.289C212.929 343.819 217.409 339.369 222.939 339.359Z" fill="#333333"/>
<path d="M131.111 340.148L131.146 358.688L192.246 358.57L192.211 340.03L131.111 340.148Z" fill="white"/>
<path d="M131.159 359.559C130.689 359.559 130.309 359.179 130.309 358.709L130.279 340.169C130.279 339.939 130.369 339.729 130.529 339.569C130.689 339.409 130.899 339.319 131.129 339.319L192.229 339.209C192.699 339.209 193.079 339.589 193.079 340.059L193.109 358.599C193.109 358.829 193.019 359.039 192.859 359.199C192.699 359.359 192.489 359.449 192.259 359.449L131.159 359.559ZM131.979 341.019L132.009 357.869L191.409 357.759L191.379 340.909L131.979 341.019Z" fill="#333333"/>
<path d="M178.106 340.064L178.142 358.604L192.362 358.576L192.326 340.036L178.106 340.064Z" fill="#333333"/>
<path d="M173.681 344.815L149.571 344.862C149.13 344.863 148.772 345.221 148.773 345.663L148.774 346.353C148.775 346.795 149.134 347.153 149.576 347.152L173.686 347.105C174.128 347.105 174.485 346.746 174.484 346.304L174.483 345.614C174.482 345.172 174.123 344.815 173.681 344.815Z" fill="#CCD7F2"/>
<path d="M173.693 351.036L157.703 351.067C157.261 351.068 156.904 351.427 156.905 351.868L156.906 352.558C156.907 353 157.266 353.358 157.708 353.357L173.698 353.326C174.14 353.325 174.497 352.966 174.496 352.525L174.495 351.835C174.494 351.393 174.135 351.035 173.693 351.036Z" fill="#CCD7F2"/>
<path d="M144.562 344.872L136.772 344.887C136.33 344.888 135.972 345.247 135.973 345.689L135.975 346.379C135.975 346.82 136.334 347.178 136.776 347.177L144.566 347.162C145.008 347.161 145.365 346.802 145.365 346.361L145.363 345.671C145.362 345.229 145.003 344.871 144.562 344.872Z" fill="#CCD7F2"/>
<path d="M216.5 302.214L99.0098 302.439L99.0634 330.399L216.553 330.174L216.5 302.214Z" fill="#5669FF"/>
<path d="M99.0494 331.261C98.5794 331.261 98.1994 330.881 98.1994 330.411L98.1494 302.451C98.1494 302.221 98.2394 302.011 98.3994 301.851C98.5594 301.691 98.7694 301.601 98.9994 301.601L216.489 301.391C216.959 301.391 217.339 301.771 217.339 302.241L217.389 330.201C217.389 330.431 217.299 330.641 217.139 330.801C216.979 330.961 216.769 331.051 216.539 331.051L99.0494 331.261ZM99.8494 303.301L99.8994 329.571L215.689 329.361L215.639 303.091L99.8494 303.301Z" fill="#333333"/>
<path d="M202.85 308.771C207.02 308.771 210.41 312.102 210.42 316.232C210.42 320.362 207.05 323.711 202.88 323.721C198.71 323.721 195.32 320.392 195.31 316.262C195.31 312.132 198.68 308.781 202.85 308.771Z" fill="#333333"/>
<path d="M133.615 309.358L133.642 323.338L179.711 323.249L179.685 309.269L133.615 309.358Z" fill="white"/>
<path d="M133.65 324.201C133.18 324.201 132.8 323.821 132.8 323.351L132.77 309.371C132.77 309.141 132.86 308.931 133.02 308.771C133.18 308.611 133.39 308.521 133.62 308.521L179.69 308.441C180.16 308.441 180.54 308.821 180.54 309.291L180.57 323.271C180.57 323.501 180.48 323.711 180.32 323.871C180.16 324.031 179.95 324.121 179.72 324.121L133.65 324.201ZM134.47 310.221L134.49 322.501L178.86 322.421L178.84 310.141L134.47 310.221Z" fill="#333333"/>
<path d="M169.031 309.293L169.058 323.273L179.788 323.253L179.761 309.273L169.031 309.293Z" fill="#333333"/>
<path d="M147.729 312.924L165.519 312.884C165.959 312.883 166.319 313.242 166.32 313.682L166.321 313.822C166.322 314.262 165.963 314.623 165.523 314.624L147.733 314.664C147.293 314.665 146.932 314.306 146.931 313.866L146.931 313.726C146.93 313.286 147.289 312.925 147.729 312.924Z" fill="#CCD7F2"/>
<path d="M153.813 317.606L165.483 317.59C165.923 317.589 166.283 317.949 166.284 318.389L166.284 318.529C166.285 318.969 165.925 319.329 165.485 319.33L153.815 319.346C153.375 319.347 153.015 318.987 153.014 318.547L153.014 318.407C153.013 317.967 153.373 317.607 153.813 317.606Z" fill="#CCD7F2"/>
<path d="M138.07 312.936L143.56 312.923C144 312.922 144.36 313.281 144.361 313.721L144.362 313.861C144.363 314.301 144.003 314.662 143.563 314.663L138.073 314.676C137.633 314.677 137.273 314.317 137.272 313.878L137.271 313.737C137.27 313.297 137.63 312.937 138.07 312.936Z" fill="#CCD7F2"/>
<path d="M167.93 35.7207H63.9199V121.241H167.93V35.7207Z" fill="#333333"/>
<path d="M164.94 32.6602H60.9297V118.18H164.94V32.6602Z" fill="white"/>
<path d="M164.94 119.031H60.9301C60.4601 119.031 60.0801 118.651 60.0801 118.181V32.6605C60.0801 32.1905 60.4601 31.8105 60.9301 31.8105H164.94C165.41 31.8105 165.79 32.1905 165.79 32.6605V118.181C165.79 118.651 165.41 119.031 164.94 119.031ZM61.7801 117.331H164.09V33.5105H61.7801V117.341V117.331Z" fill="#333333"/>
<path d="M89.0897 48.6105C89.2897 43.1405 85.0297 38.5505 79.5597 38.3505C74.0897 38.1505 69.4997 42.4105 69.2997 47.8805C69.0997 53.3505 73.3597 57.9405 78.8297 58.1405C84.2997 58.3405 88.8897 54.0805 89.0897 48.6105Z" fill="#A1C3FF"/>
<path d="M77.9701 53.5914H77.9501C77.5601 53.6114 77.1901 53.4214 76.9201 53.1514L72.8501 48.9914C72.3201 48.4514 72.3201 47.5614 72.8701 47.0314C73.4101 46.5014 74.2901 46.5014 74.8201 47.0414L77.8401 50.1214L82.6801 44.5214C83.1801 43.9414 84.0501 43.8814 84.6301 44.3814C85.2101 44.8814 85.2701 45.7514 84.7701 46.3314L78.9501 53.1014C78.7001 53.3914 78.3501 53.5914 77.9701 53.6114V53.5914Z" fill="white"/>
<path d="M89.0897 74.7511C89.2897 69.2811 85.0297 64.6911 79.5597 64.4911C74.0897 64.2911 69.4997 68.5511 69.2997 74.0211C69.0997 79.4911 73.3597 84.0811 78.8297 84.2811C84.2997 84.4811 88.8897 80.2211 89.0897 74.7511Z" fill="#A1C3FF"/>
<path d="M77.9701 79.7321H77.9501C77.5601 79.7521 77.1901 79.5621 76.9201 79.2921L72.8501 75.1321C72.3201 74.5921 72.3201 73.7021 72.8701 73.1721C73.4101 72.6421 74.2901 72.6421 74.8201 73.1821L77.8401 76.2621L82.6801 70.6621C83.1801 70.0821 84.0501 70.0221 84.6301 70.5221C85.2101 71.0221 85.2701 71.8921 84.7701 72.4721L78.9501 79.2421C78.7001 79.5321 78.3501 79.7321 77.9701 79.7521V79.7321Z" fill="white"/>
<path d="M89.0897 102.03C89.2897 96.5604 85.0297 91.9704 79.5597 91.7704C74.0897 91.5704 69.4997 95.8304 69.2997 101.3C69.0997 106.77 73.3597 111.36 78.8297 111.56C84.2997 111.76 88.8897 107.5 89.0897 102.03Z" fill="#A1C3FF"/>
<path d="M77.9701 107.011H77.9501C77.5601 107.031 77.1901 106.841 76.9201 106.571L72.8501 102.411C72.3201 101.871 72.3201 100.981 72.8701 100.451C73.4101 99.9214 74.2901 99.9214 74.8201 100.461L77.8401 103.541L82.6801 97.9414C83.1801 97.3614 84.0501 97.3014 84.6301 97.8014C85.2101 98.3014 85.2701 99.1714 84.7701 99.7514L78.9501 106.521C78.7001 106.811 78.3501 107.011 77.9701 107.031V107.011Z" fill="white"/>
<path d="M118.32 46.4414H94.5502C94.0802 46.4414 93.7002 45.9114 93.7002 45.4414C93.7002 44.9714 94.0802 44.4414 94.5502 44.4414H118.32C118.79 44.4414 119.17 44.9714 119.17 45.4414C119.17 45.9114 118.79 46.4414 118.32 46.4414Z" fill="#333333"/>
<path d="M126.81 53.4414H94.56C94.09 53.4414 93.71 52.9114 93.71 52.4414C93.71 51.9714 94.09 51.4414 94.56 51.4414H126.81C127.28 51.4414 127.66 51.9714 127.66 52.4414C127.66 52.9114 127.28 53.4414 126.81 53.4414Z" fill="#333333"/>
<path d="M151.42 46.4414H121.71C121.24 46.4414 120.86 45.9114 120.86 45.4414C120.86 44.9714 121.24 44.4414 121.71 44.4414H151.42C151.89 44.4414 152.27 44.9714 152.27 45.4414C152.27 45.9114 151.89 46.4414 151.42 46.4414Z" fill="#333333"/>
<path d="M118.32 71.4414H94.5502C94.0802 71.4414 93.7002 71.4114 93.7002 70.9414C93.7002 70.4714 94.0802 70.4414 94.5502 70.4414H118.32C118.79 70.4414 119.17 70.4714 119.17 70.9414C119.17 71.4114 118.79 71.4414 118.32 71.4414Z" fill="#333333"/>
<path d="M126.81 81.4414H94.56C94.09 81.4414 93.71 80.9114 93.71 80.4414C93.71 79.9714 94.09 79.4414 94.56 79.4414H126.81C127.28 79.4414 127.66 79.9714 127.66 80.4414C127.66 80.9114 127.28 81.4414 126.81 81.4414Z" fill="#333333"/>
<path d="M151.42 71.4414H121.71C121.24 71.4414 120.86 71.4114 120.86 70.9414C120.86 70.4714 121.24 70.4414 121.71 70.4414H151.42C151.89 70.4414 152.27 70.4714 152.27 70.9414C152.27 71.4114 151.89 71.4414 151.42 71.4414Z" fill="#333333"/>
<path d="M118.32 99.4414H94.5502C94.0802 99.4414 93.7002 98.9114 93.7002 98.4414C93.7002 97.9714 94.0802 97.4414 94.5502 97.4414H118.32C118.79 97.4414 119.17 97.9714 119.17 98.4414C119.17 98.9114 118.79 99.4414 118.32 99.4414Z" fill="#333333"/>
<path d="M126.81 107.441H94.56C94.09 107.441 93.71 106.911 93.71 106.441C93.71 105.971 94.09 105.441 94.56 105.441H126.81C127.28 105.441 127.66 105.971 127.66 106.441C127.66 106.911 127.28 107.441 126.81 107.441Z" fill="#333333"/>
<path d="M151.42 99.4414H121.71C121.24 99.4414 120.86 98.9114 120.86 98.4414C120.86 97.9714 121.24 97.4414 121.71 97.4414H151.42C151.89 97.4414 152.27 97.9714 152.27 98.4414C152.27 98.9114 151.89 99.4414 151.42 99.4414Z" fill="#333333"/>
<path d="M356.26 377.805C377.708 374.37 392.31 354.198 388.875 332.75C385.439 311.302 365.267 296.7 343.819 300.135C322.371 303.571 307.769 323.743 311.205 345.19C314.64 366.638 334.812 381.24 356.26 377.805Z" fill="white"/>
<path d="M350.059 379.97C327.439 379.97 309.029 361.56 309.029 338.94C309.029 316.32 327.439 297.91 350.059 297.91C372.679 297.91 391.089 316.32 391.089 338.94C391.089 361.56 372.679 379.97 350.059 379.97ZM350.059 301.3C329.309 301.3 312.419 318.18 312.419 338.93C312.419 359.68 329.299 376.57 350.059 376.57C370.819 376.57 387.689 359.69 387.689 338.93C387.689 318.17 370.809 301.3 350.059 301.3Z" fill="#333333"/>
<path d="M351.28 341.121L381.63 330.051C381.63 330.051 373.19 305.421 350.52 306.021L351.27 341.121H351.28Z" fill="#A1C3FF"/>
<path d="M350.309 308.541H349.809C349.031 308.541 348.399 309.172 348.399 309.951V347.641C348.399 348.42 349.031 349.051 349.809 349.051H350.309C351.088 349.051 351.719 348.42 351.719 347.641V309.951C351.719 309.172 351.088 308.541 350.309 308.541Z" fill="#333333"/>
<path d="M365.389 336.56C365.079 335.7 364.119 335.26 363.259 335.57L343.039 342.98C342.179 343.29 341.739 344.25 342.049 345.11L342.249 345.67C342.449 346.22 343.069 346.51 343.619 346.31L364.399 338.69C365.259 338.38 365.699 337.42 365.389 336.56Z" fill="#333333"/>
<path d="M383.209 341.649C383.209 341.419 383.039 341.229 382.819 341.219L374.719 340.869C374.489 340.869 374.299 341.039 374.289 341.259C374.289 341.489 374.459 341.679 374.679 341.689L382.779 342.039C383.009 342.039 383.199 341.869 383.209 341.649Z" fill="#333333"/>
<path d="M381.229 332.97C381.189 332.82 381.039 332.73 380.889 332.78L375.599 334.22C375.449 334.26 375.359 334.41 375.409 334.56C375.449 334.71 375.599 334.8 375.749 334.75L381.039 333.31C381.189 333.27 381.279 333.12 381.229 332.97Z" fill="#333333"/>
<path d="M381.889 337.569C381.889 337.419 381.759 337.289 381.609 337.299L376.129 337.409C375.979 337.409 375.849 337.539 375.859 337.689C375.859 337.839 375.989 337.969 376.139 337.959L381.619 337.849C381.769 337.849 381.899 337.719 381.889 337.569Z" fill="#333333"/>
<path d="M376.74 358.49C376.87 358.31 376.83 358.05 376.64 357.92L370.02 353.24C369.84 353.11 369.58 353.15 369.45 353.34C369.32 353.52 369.36 353.78 369.55 353.91L376.17 358.59C376.35 358.72 376.61 358.68 376.74 358.49Z" fill="#333333"/>
<path d="M380.969 345.8C380.989 345.65 380.889 345.51 380.739 345.48L375.329 344.62C375.179 344.6 375.039 344.7 375.009 344.85C374.989 345 375.089 345.14 375.239 345.17L380.649 346.03C380.799 346.05 380.939 345.95 380.969 345.8Z" fill="#333333"/>
<path d="M379.78 350.129C379.83 349.979 379.74 349.829 379.6 349.779L374.38 348.129C374.23 348.079 374.08 348.169 374.03 348.309C373.98 348.459 374.07 348.609 374.21 348.659L379.43 350.309C379.58 350.359 379.73 350.269 379.78 350.129Z" fill="#333333"/>
<path d="M377.839 354.35C377.919 354.22 377.879 354.05 377.749 353.97L373.089 351.09C372.959 351.01 372.789 351.05 372.709 351.18C372.629 351.31 372.669 351.48 372.799 351.56L377.459 354.44C377.589 354.52 377.759 354.48 377.839 354.35Z" fill="#333333"/>
<path d="M362.469 370.15C362.679 370.06 362.769 369.82 362.679 369.61L359.429 362.18C359.339 361.97 359.099 361.88 358.889 361.97C358.679 362.06 358.589 362.3 358.679 362.51L361.929 369.94C362.019 370.15 362.259 370.24 362.469 370.15Z" fill="#333333"/>
<path d="M372.649 361.459C372.749 361.339 372.729 361.169 372.619 361.069L368.429 357.539C368.309 357.439 368.139 357.459 368.039 357.569C367.939 357.689 367.959 357.859 368.069 357.959L372.259 361.489C372.379 361.589 372.549 361.569 372.649 361.459Z" fill="#333333"/>
<path d="M369.389 364.55C369.499 364.45 369.519 364.27 369.419 364.16L365.799 360.05C365.699 359.94 365.519 359.92 365.409 360.02C365.299 360.12 365.279 360.3 365.379 360.41L368.999 364.52C369.099 364.63 369.279 364.65 369.389 364.55Z" fill="#333333"/>
<path d="M365.549 367.159C365.689 367.089 365.739 366.919 365.669 366.789L363.169 361.919C363.099 361.779 362.929 361.729 362.799 361.799C362.659 361.869 362.609 362.039 362.679 362.169L365.179 367.039C365.249 367.179 365.419 367.229 365.549 367.159Z" fill="#333333"/>
<path d="M343.469 371.839C343.689 371.889 343.909 371.739 343.959 371.519L345.639 363.589C345.689 363.369 345.539 363.149 345.319 363.099C345.099 363.049 344.879 363.199 344.829 363.419L343.149 371.349C343.099 371.569 343.249 371.789 343.469 371.839Z" fill="#333333"/>
<path d="M356.799 370.69C356.949 370.65 357.039 370.5 356.999 370.35L355.649 365.04C355.609 364.89 355.459 364.8 355.309 364.84C355.159 364.88 355.069 365.03 355.109 365.18L356.459 370.49C356.499 370.64 356.649 370.73 356.799 370.69Z" fill="#333333"/>
<path d="M352.359 371.319C352.509 371.299 352.619 371.169 352.609 371.019L352.059 365.569C352.039 365.419 351.909 365.309 351.759 365.319C351.609 365.339 351.499 365.469 351.509 365.619L352.059 371.069C352.079 371.219 352.209 371.329 352.359 371.319Z" fill="#333333"/>
<path d="M332.49 311.29C332.68 311.17 332.94 311.23 333.05 311.43L337.26 318.36C337.38 318.55 337.32 318.81 337.12 318.93C336.93 319.05 336.67 318.99 336.56 318.79L332.35 311.86C332.23 311.67 332.29 311.41 332.49 311.3V311.29Z" fill="#333333"/>
<path d="M345.449 307.96C345.599 307.95 345.739 308.06 345.749 308.21L346.239 313.67C346.249 313.82 346.139 313.96 345.989 313.97C345.839 313.98 345.699 313.87 345.689 313.72L345.199 308.26C345.189 308.11 345.299 307.97 345.449 307.96Z" fill="#333333"/>
<path d="M341.05 308.839C341.2 308.799 341.35 308.899 341.39 309.039L342.68 314.369C342.72 314.519 342.62 314.669 342.48 314.709C342.33 314.749 342.18 314.649 342.14 314.509L340.85 309.179C340.81 309.029 340.91 308.879 341.05 308.839Z" fill="#333333"/>
<path d="M336.699 310.481C336.839 310.411 336.999 310.461 337.079 310.601L339.629 315.451C339.699 315.591 339.649 315.751 339.509 315.831C339.369 315.901 339.209 315.851 339.129 315.711L336.579 310.861C336.509 310.721 336.559 310.561 336.699 310.481Z" fill="#333333"/>
<path d="M320.59 324.319C320.69 324.119 320.94 324.039 321.14 324.149L328.33 327.899C328.53 327.999 328.61 328.249 328.5 328.449C328.4 328.649 328.15 328.729 327.95 328.619L320.76 324.869C320.56 324.769 320.48 324.519 320.59 324.319Z" fill="#333333"/>
<path d="M329.959 314.759C330.079 314.669 330.259 314.699 330.349 314.819L333.589 319.239C333.679 319.359 333.649 319.539 333.529 319.629C333.409 319.719 333.229 319.689 333.139 319.569L329.899 315.149C329.809 315.029 329.839 314.849 329.959 314.759Z" fill="#333333"/>
<path d="M326.649 317.799C326.759 317.689 326.939 317.689 327.039 317.799L330.899 321.689C331.009 321.799 331.009 321.979 330.899 322.079C330.789 322.189 330.609 322.189 330.509 322.079L326.649 318.189C326.539 318.079 326.539 317.899 326.649 317.799Z" fill="#333333"/>
<path d="M323.779 321.45C323.859 321.32 324.029 321.28 324.159 321.36L328.849 324.19C328.979 324.27 329.019 324.44 328.939 324.57C328.859 324.7 328.689 324.74 328.559 324.66L323.869 321.83C323.739 321.75 323.699 321.58 323.779 321.45Z" fill="#333333"/>
<path d="M317.089 341.94C317.079 341.71 317.249 341.52 317.479 341.51L325.579 341.09C325.809 341.08 325.999 341.25 326.009 341.48C326.019 341.71 325.849 341.9 325.619 341.91L317.519 342.33C317.289 342.34 317.099 342.17 317.089 341.94Z" fill="#333333"/>
<path d="M320.31 328.949C320.37 328.809 320.53 328.739 320.68 328.799L325.71 330.959C325.85 331.019 325.92 331.179 325.86 331.329C325.8 331.469 325.64 331.539 325.49 331.479L320.46 329.319C320.32 329.259 320.25 329.099 320.31 328.949Z" fill="#333333"/>
<path d="M319 333.251C319.04 333.101 319.19 333.011 319.34 333.051L324.64 334.451C324.79 334.491 324.88 334.641 324.84 334.791C324.8 334.941 324.65 335.031 324.5 334.991L319.2 333.591C319.05 333.551 318.96 333.401 319 333.251Z" fill="#333333"/>
<path d="M318.39 337.86C318.39 337.71 318.52 337.58 318.67 337.59L324.15 337.65C324.3 337.65 324.43 337.78 324.43 337.93C324.43 338.08 324.3 338.21 324.15 338.2L318.67 338.14C318.52 338.14 318.39 338.01 318.4 337.86H318.39Z" fill="#333333"/>
<path d="M323.719 358.73C323.589 358.55 323.629 358.29 323.809 358.16L330.379 353.42C330.559 353.29 330.819 353.33 330.949 353.51C331.079 353.69 331.039 353.95 330.859 354.08L324.289 358.82C324.109 358.95 323.849 358.91 323.719 358.73Z" fill="#333333"/>
<path d="M319.379 346.069C319.349 345.919 319.459 345.779 319.609 345.749L325.009 344.839C325.159 344.809 325.299 344.919 325.329 345.069C325.359 345.219 325.249 345.359 325.099 345.389L319.699 346.299C319.549 346.329 319.409 346.219 319.379 346.069Z" fill="#333333"/>
<path d="M320.61 350.389C320.56 350.239 320.64 350.089 320.79 350.039L326 348.339C326.15 348.289 326.3 348.369 326.35 348.519C326.4 348.669 326.32 348.819 326.17 348.869L320.96 350.569C320.81 350.619 320.66 350.539 320.61 350.389Z" fill="#333333"/>
<path d="M322.589 354.599C322.509 354.469 322.549 354.299 322.679 354.219L327.319 351.299C327.449 351.219 327.619 351.259 327.699 351.389C327.779 351.519 327.739 351.689 327.609 351.769L322.969 354.689C322.839 354.769 322.669 354.729 322.589 354.599Z" fill="#333333"/>
<path d="M327.84 361.659C327.74 361.539 327.75 361.369 327.87 361.269L332.03 357.699C332.15 357.599 332.32 357.609 332.42 357.729C332.52 357.849 332.51 358.019 332.39 358.119L328.23 361.689C328.11 361.789 327.94 361.779 327.84 361.659Z" fill="#333333"/>
<path d="M331.12 364.73C331 364.63 330.99 364.45 331.09 364.34L334.67 360.19C334.77 360.07 334.95 360.06 335.06 360.16C335.18 360.26 335.19 360.44 335.09 360.55L331.51 364.7C331.41 364.82 331.23 364.83 331.12 364.73Z" fill="#333333"/>
<path d="M334.989 367.3C334.849 367.23 334.799 367.06 334.869 366.93L337.329 362.03C337.399 361.89 337.569 361.84 337.699 361.91C337.839 361.98 337.889 362.15 337.819 362.28L335.359 367.18C335.289 367.32 335.119 367.37 334.989 367.3Z" fill="#333333"/>
<path d="M338.779 369.411C338.639 369.351 338.579 369.181 338.639 369.041L340.839 364.021C340.899 363.881 341.069 363.821 341.209 363.881C341.349 363.941 341.409 364.111 341.349 364.251L339.149 369.271C339.089 369.411 338.919 369.471 338.779 369.411Z" fill="#333333"/>
<path d="M348.219 371.331C348.069 371.321 347.949 371.181 347.969 371.031L348.469 365.571C348.479 365.421 348.619 365.301 348.769 365.321C348.919 365.331 349.039 365.471 349.019 365.621L348.519 371.081C348.509 371.231 348.369 371.351 348.219 371.331Z" fill="#333333"/>
<path d="M267.39 57.901C267.39 56.181 266.63 54.791 265.7 54.791C264.77 54.791 264.01 56.181 264.01 57.901C264.01 59.621 264.77 61.011 265.7 61.011C266.63 61.011 267.39 59.621 267.39 57.901Z" fill="#333333"/>
<path d="M239.48 57.901C239.48 56.181 238.72 54.791 237.79 54.791C236.86 54.791 236.1 56.181 236.1 57.901C236.1 59.621 236.86 61.011 237.79 61.011C238.72 61.011 239.48 59.621 239.48 57.901Z" fill="#333333"/>
</svg>
