<svg width="419" height="375" viewBox="0 0 419 375" fill="none" xmlns="http://www.w3.org/2000/svg">
<path d="M207.26 36.6099C175.91 49.1399 147.49 70.9899 113.92 73.7899C98.75 75.0499 83.26 72.2799 68.37 75.4399C37.86 81.9199 23.11 110.42 19.65 139C16.99 160.98 19.48 184.01 29.7 203.65C37.56 218.75 50.26 231.61 65.84 238.68C84.21 247.01 104.74 241.61 123.08 248.98C138.94 255.35 148.53 271.13 160.26 283.57C202.63 328.51 276.77 328.57 318.66 283.02C332.17 268.32 341.36 250.14 348.49 231.49C373.99 164.83 380.93 65.8199 300.43 34.2499C272.61 23.3399 240.82 24.4699 212.68 34.5499C210.86 35.1999 209.05 35.8899 207.25 36.6099H207.26Z" fill="#4257FF"/>
<path d="M369.24 179.41C354.99 169.68 340.67 160.07 324.12 156.02L300.44 212.73L263.23 183.21L220.73 234.56C220.73 234.56 294.67 302.38 329.79 286.23C352.04 276 370.75 224.03 381.48 187.3C376.8 184.81 372.43 181.6 369.24 179.42V179.41Z" fill="white"/>
<path d="M317.41 289.559C279.88 289.559 222.59 237.399 220.17 235.179C219.84 234.869 219.8 234.359 220.09 234.009L262.59 182.659C262.89 182.299 263.41 182.249 263.77 182.539L300.1 211.359L323.35 155.679C323.51 155.289 323.93 155.079 324.34 155.179C341.46 159.369 356.48 169.639 369.74 178.699C370.33 179.099 370.96 179.539 371.62 179.999C374.52 182.019 378.12 184.519 381.9 186.529C382.26 186.719 382.43 187.129 382.32 187.519C370.7 227.299 352.22 276.849 330.17 286.989C326.47 288.689 322.18 289.549 317.43 289.549L317.41 289.559ZM221.91 234.469C228.21 240.119 282.55 287.859 317.41 287.859C321.92 287.859 325.97 287.049 329.44 285.449C351.89 275.129 370.98 220.089 380.47 187.709C376.83 185.719 373.41 183.329 370.63 181.399C369.97 180.939 369.35 180.509 368.76 180.109C355.81 171.259 341.15 161.249 324.62 157.019L301.22 213.059C301.12 213.309 300.91 213.489 300.65 213.549C300.39 213.609 300.12 213.549 299.91 213.389L263.35 184.389L221.9 234.469H221.91Z" fill="#333333"/>
<path d="M282.67 192.63C282.67 192.63 270.13 183.99 237.28 152.43C227.48 143.02 208.32 126.06 162.5 130.39L103.73 130.55C103.73 130.55 59.6602 143.57 43.7602 157.76C38.4402 162.51 34.3102 168.75 31.0102 175.53C24.6902 188.54 21.4502 203.53 18.8002 213.93C17.8502 217.67 16.9802 220.83 16.0702 223.06C11.3102 234.75 -0.00976562 253.97 -0.00976562 253.97L75.5902 271C75.5902 271 73.8002 284.3 74.1202 295.66C74.4402 307.02 57.8302 369.17 57.8302 369.17L221.13 369.62L224.3 284.35C224.3 284.35 217.23 245.64 225.17 245.36C233.11 245.08 256.72 266.97 256.72 266.97C240.87 238.99 282.65 192.62 282.65 192.62L282.67 192.63Z" fill="#333333"/>
<path d="M167.36 29.14C172.75 28.64 177.64 32.24 178.79 37.52C180.24 44.18 180.33 52.78 179.68 60.56C178.66 72.84 172.56 38.26 172.56 38.26L162.9 29.55L167.36 29.14Z" fill="#333333"/>
<path d="M170.979 77.3686C170.979 77.3686 178.379 66.1886 186.649 67.4786C194.919 68.7686 199.18 85.2586 191.49 90.1086C183.79 94.9586 172.549 90.3686 172.549 90.3686L170.979 77.3786V77.3686Z" fill="white"/>
<path d="M182.85 93.1793C177.26 93.1793 172.43 91.2293 172.23 91.1493C171.94 91.0293 171.75 90.7693 171.71 90.4693L170.14 77.4793C170.12 77.2793 170.16 77.0793 170.27 76.9093C170.55 76.4893 177.23 66.5293 185.31 66.5293C185.8 66.5293 186.3 66.5693 186.78 66.6393C191.71 67.4093 194.96 72.7593 195.98 77.7293C196.91 82.2393 196.34 88.0493 191.93 90.8293C189.45 92.3893 186.39 93.1793 182.84 93.1793H182.85ZM173.33 89.7493C174.64 90.2193 178.56 91.4793 182.85 91.4793C186.08 91.4793 188.83 90.7793 191.03 89.3893C194.7 87.0793 195.14 82.0293 194.32 78.0693C193.25 72.8793 190.04 68.8593 186.52 68.3193C186.12 68.2593 185.71 68.2293 185.31 68.2293C178.8 68.2293 172.93 76.0793 171.86 77.5993L173.33 89.7593V89.7493Z" fill="#333333"/>
<path d="M186.43 92.4504C179.63 93.6704 172.68 90.8705 172.39 90.7605C172.25 90.7005 172.15 90.5704 172.13 90.4204L170.56 77.4305C170.55 77.3305 170.57 77.2305 170.63 77.1505C170.87 76.7905 176.5 68.3905 183.57 67.1205C184.64 66.9305 185.7 66.9105 186.71 67.0705C191.44 67.8105 194.56 73.0005 195.56 77.8205C196.46 82.1905 195.92 87.8105 191.7 90.4705C190.17 91.4305 188.39 92.1004 186.42 92.4504H186.43Z" fill="white"/>
<path d="M182.82 93.6C177.16 93.6 172.27 91.62 172.07 91.53C171.65 91.36 171.35 90.97 171.29 90.51L169.72 77.5199C169.68 77.2199 169.75 76.92 169.92 76.67C170.17 76.3 175.99 67.5999 183.42 66.2699C184.58 66.0599 185.74 66.05 186.85 66.22C191.98 67.02 195.35 72.53 196.4 77.64C197.36 82.29 196.75 88.29 192.17 91.18C190.55 92.2 188.67 92.91 186.58 93.28C185.39 93.49 184.13 93.6 182.82 93.6ZM172.95 90.05C173.97 90.44 178.1 91.9 182.82 91.9C184.03 91.9 185.2 91.8 186.28 91.61C188.15 91.28 189.82 90.65 191.26 89.74C195.11 87.31 195.58 82.07 194.74 77.98C193.8 73.45 190.92 68.57 186.59 67.9C185.67 67.75 184.7 67.7699 183.72 67.9499C177.37 69.0899 172.18 76.38 171.42 77.48L172.94 90.0599L172.95 90.05Z" fill="#333333"/>
<path d="M181.6 66.7396C177.95 54.2696 179.36 44.6396 176.2 38.8196C176.2 38.8196 164.31 12.8196 126.88 25.0296C126.43 25.1796 125.98 25.3296 125.54 25.4896C106.54 32.3796 96.27 49.1496 103.81 67.1196L110.29 82.5796C107.26 81.5196 103.83 81.0596 100.82 82.4496C93.24 85.9496 93.72 102.33 102.45 104.64C108.4 106.22 114.71 103.29 118.13 101.27L119.13 103.65L115.86 122.29C115.31 125.45 113.31 128.16 110.46 129.64L107.86 130.99C107.86 130.99 138.58 160.05 155.89 151.45C173.2 142.85 163.59 130.83 163.59 130.83L161 130.04L162.39 115.77C196.44 105.64 185.15 78.8696 181.6 66.7596V66.7396Z" fill="white"/>
<path d="M148.63 153.88C131.04 153.88 108.24 132.51 107.28 131.6C107.08 131.41 106.98 131.14 107.02 130.86C107.06 130.59 107.23 130.35 107.47 130.22L110.07 128.87C112.67 127.53 114.52 125.01 115.02 122.13L118.25 103.74L117.72 102.48C114.7 104.16 110.46 105.94 106.02 105.94C104.71 105.94 103.43 105.78 102.24 105.46C98.0903 104.36 95.2103 100.21 94.7203 94.6202C94.2903 89.7002 95.9003 83.7902 100.47 81.6802C102.83 80.5902 105.65 80.4402 108.82 81.2502L103.03 67.4502C99.6903 59.4902 99.6203 51.4002 102.84 44.0702C106.62 35.4502 114.58 28.5702 125.26 24.6902C125.71 24.5302 126.16 24.3702 126.62 24.2202C133.34 22.0302 139.72 20.9102 145.56 20.9102C168.68 20.9102 176.89 38.2802 176.97 38.4502C178.64 41.5202 179.08 45.6802 179.59 50.4902C180.08 55.1602 180.65 60.4602 182.41 66.4802C182.67 67.3602 182.97 68.3202 183.29 69.3502C185.93 77.8102 189.92 90.5902 184.16 101.39C180.54 108.18 173.49 113.22 163.17 116.39L161.9 129.41L163.83 130C163.99 130.05 164.14 130.15 164.24 130.28C164.4 130.48 168.11 135.2 166.82 141.02C165.84 145.43 162.29 149.19 156.26 152.18C154.02 153.29 151.45 153.86 148.62 153.86L148.63 153.88ZM109.33 131.18C113.74 135.14 133.6 152.18 148.63 152.19C151.19 152.19 153.51 151.68 155.52 150.69C161.07 147.93 164.32 144.57 165.18 140.68C166.16 136.26 163.72 132.46 163.08 131.56L160.76 130.85C160.37 130.73 160.12 130.36 160.16 129.96L161.55 115.69C161.58 115.35 161.82 115.06 162.15 114.96C172.31 111.94 179.21 107.12 182.67 100.63C188.09 90.4602 184.23 78.0802 181.68 69.8902C181.36 68.8502 181.05 67.8802 180.79 66.9902C178.98 60.8202 178.41 55.4402 177.91 50.7002C177.4 45.8802 176.99 42.0602 175.46 39.2402C175.36 39.0202 167.56 22.6302 145.57 22.6302C139.9 22.6302 133.71 23.7102 127.15 25.8502C126.71 25.9902 126.27 26.1502 125.84 26.3002C115.6 30.0102 107.99 36.5702 104.4 44.7602C101.38 51.6602 101.45 59.2802 104.6 66.8002L111.08 82.2602C111.21 82.5702 111.15 82.9302 110.92 83.1702C110.69 83.4102 110.34 83.5002 110.02 83.3902C106.58 82.1902 103.57 82.1302 101.19 83.2302C97.3903 84.9902 96.0503 90.2902 96.4203 94.4802C96.7503 98.2902 98.5703 102.74 102.68 103.83C103.73 104.11 104.86 104.25 106.03 104.25C110.52 104.25 114.86 102.24 117.71 100.55C117.92 100.42 118.18 100.4 118.41 100.47C118.64 100.55 118.83 100.72 118.93 100.95L119.93 103.33C119.99 103.48 120.01 103.65 119.98 103.81L116.71 122.45C116.11 125.85 113.93 128.82 110.87 130.4L109.35 131.19L109.33 131.18Z" fill="#333333"/>
<path d="M105 81.48L95.1299 54L119.63 44.5C119.63 44.5 114.83 52.76 116.77 66.16C117.5 71.21 118.13 75.18 119.23 77.97C124.21 90.64 117.07 85.34 113.97 84.74L104.99 81.47L105 81.48Z" fill="#333333"/>
<path d="M171.56 111.73C161.18 115.16 143.34 114.23 135.95 110.25C135.95 110.25 148.08 119.86 161.68 120.17L162.39 115.76L171.56 111.73Z" fill="#333333"/>
<path d="M116.31 61.09C117.45 49.92 131.72 43.36 134.3 38.75C134.3 38.75 153.59 42.71 160.43 35.55C160.43 35.55 173.49 44.18 177.7 39.87C181.91 35.56 195.33 24.27 190.08 15.43C184.83 6.59001 168.87 16.86 168.87 16.86C168.87 16.86 178.43 4.48001 171.22 0.730012C164.01 -3.01999 154.08 8.84001 146.98 11.59C139.88 14.34 148.79 5.63001 141.93 2.42001C135.07 -0.799988 128.89 4.16001 121.81 14.32C114.73 24.48 94.97 33.5 92.18 40.37C86.73 53.79 101.88 66.79 101.88 66.79L116.31 61.1V61.09Z" fill="#333333"/>
<path d="M83.7204 273.751C83.7204 273.751 83.6204 273.751 83.5804 273.751L75.8604 272.061C75.6304 272.011 75.4904 271.791 75.5404 271.561C75.5904 271.331 75.8104 271.191 76.0404 271.241L83.3204 272.831L91.0004 216.061C91.0304 215.831 91.2404 215.671 91.4704 215.701C91.7004 215.731 91.8604 215.941 91.8304 216.171L84.0904 273.391C84.0704 273.511 84.0104 273.611 83.9104 273.681C83.8504 273.721 83.7904 273.741 83.7204 273.751Z" fill="white"/>
<path d="M88.8707 235.291C88.7907 235.291 88.7007 235.291 88.6207 235.241C88.4207 235.131 88.3407 234.871 88.4607 234.671L94.5207 223.861C94.6307 223.661 94.8907 223.581 95.0907 223.701C95.2907 223.811 95.3707 224.071 95.2507 224.271L89.1907 235.081C89.1207 235.201 89.0007 235.281 88.8707 235.291Z" fill="white"/>
<path d="M77.8499 180.77C77.6799 180.8 77.4999 180.72 77.4099 180.57C68.3299 165 45.9399 157.87 45.7199 157.8C45.4999 157.73 45.3699 157.49 45.4399 157.27C45.5099 157.05 45.7399 156.92 45.9699 156.99C46.1999 157.06 68.8999 164.29 78.1399 180.14C78.2599 180.34 78.1899 180.6 77.9899 180.72C77.9499 180.75 77.8999 180.76 77.8499 180.77Z" fill="white"/>
<path d="M177.3 39.0393C176.35 39.2093 175.41 39.2193 174.48 38.9993C174.25 38.9493 174.11 38.7193 174.16 38.4893C174.21 38.2593 174.44 38.1193 174.67 38.1693C178.23 38.9893 182.29 36.0293 185.25 33.8593C185.65 33.5693 186.04 33.2793 186.41 33.0193C190.46 30.1493 193.83 27.3193 194.2 21.8793C194.38 19.1193 193.97 17.0693 192.93 15.5993C190.2 11.7493 185.77 14.6393 182.54 16.7593L181.81 17.2293C181.61 17.3593 181.35 17.2993 181.23 17.0993C181.1 16.8993 181.16 16.6393 181.36 16.5193L182.08 16.0493C185.4 13.8793 190.42 10.5993 193.62 15.1093C194.78 16.7393 195.24 18.9793 195.05 21.9393C194.66 27.7593 191.13 30.7093 186.91 33.7093C186.55 33.9693 186.16 34.2493 185.76 34.5393C183.4 36.2693 180.371 38.4793 177.321 39.0293L177.3 39.0393Z" fill="#333333"/>
<path d="M377.511 205.799L307.631 188.269C307.631 188.269 314.371 137.949 315.611 127.069C316.851 116.189 329.171 103.289 329.171 103.289C329.171 103.289 346.451 18.1791 362.571 15.8491C378.681 13.5291 380.341 33.4191 379.301 41.0591C378.261 48.6991 373.131 78.0091 373.131 78.0091C373.131 78.0091 380.811 76.4191 388.991 82.8691C397.171 89.3291 396.441 92.0991 396.441 92.0991C396.441 92.0991 404.991 94.6891 408.261 98.5291C411.531 102.359 411.731 110.329 411.731 110.329C411.731 110.329 421.441 123.459 416.661 139.009C411.881 154.559 388.041 178.579 388.041 178.579L380.221 206.849L377.531 205.809L377.511 205.799Z" fill="#D0E1FF"/>
<path d="M380.201 207.7C380.101 207.7 379.991 207.68 379.891 207.64L377.251 206.62L307.421 189.1C307.001 188.99 306.731 188.59 306.791 188.16C306.861 187.66 313.541 137.73 314.761 126.98C315.951 116.51 326.821 104.56 328.381 102.89C329.601 96.9296 346.201 17.3596 362.441 15.0196C367.681 14.2596 371.961 15.6996 375.061 19.2496C380.171 25.0996 380.901 35.5696 380.131 41.1796C379.221 47.8896 375.111 71.5796 374.161 77.0296C374.501 76.9996 374.911 76.9896 375.381 76.9896C378.191 76.9896 383.751 77.6696 389.511 82.2096C395.761 87.1396 397.061 90.0996 397.271 91.4796C399.311 92.1496 405.981 94.5596 408.901 97.9796C412.021 101.64 412.491 108.58 412.561 110.05C413.861 111.9 422.031 124.39 417.461 139.26C412.821 154.34 391.041 176.73 388.781 179.02L381.021 207.07C380.961 207.3 380.801 207.49 380.581 207.6C380.461 207.66 380.331 207.69 380.201 207.69V207.7ZM308.571 187.64L377.711 204.99C377.711 204.99 377.781 205.01 377.811 205.02L379.631 205.72L387.201 178.36C387.241 178.22 387.311 178.09 387.421 177.99C387.661 177.75 411.171 153.94 415.841 138.77C420.431 123.83 411.131 110.98 411.041 110.85C410.941 110.71 410.881 110.54 410.871 110.37C410.871 110.29 410.641 102.66 407.611 99.0996C404.541 95.4996 396.281 92.9596 396.191 92.9296C395.751 92.7996 395.501 92.3396 395.621 91.8996C395.621 91.8996 395.771 89.3096 388.471 83.5496C383.121 79.3296 377.981 78.6996 375.391 78.6996C374.091 78.6996 373.311 78.8596 373.311 78.8596C373.041 78.9196 372.751 78.8296 372.551 78.6396C372.351 78.4496 372.261 78.1596 372.311 77.8896C372.361 77.5996 377.451 48.5096 378.471 40.9696C379.191 35.6696 378.541 25.8096 373.801 20.3796C371.091 17.2796 367.351 16.0396 362.701 16.7096C349.971 18.5496 334.791 79.9696 330.011 103.48C329.981 103.64 329.901 103.78 329.791 103.9C329.671 104.03 317.651 116.72 316.461 127.19C315.321 137.23 309.431 181.33 308.581 187.65L308.571 187.64Z" fill="#333333"/>
<path d="M376.31 196.63L316.23 180.71C315.52 180.52 314.99 180.12 315.1 179.39C316.6 169.54 324.22 120.33 327.35 116.13C330.69 111.63 371.95 89.7399 380.55 94.0799C383.05 95.3399 384.36 97.8299 384.25 101.02C383.97 108.82 375.06 120.81 356.2 129.17C360.09 134.49 370.75 152.78 351.71 173.11C351.17 173.69 350.26 173.72 349.68 173.18C349.1 172.64 349.07 171.73 349.61 171.15C370.31 149.06 353.58 130.36 352.85 129.57C352.53 129.23 352.4 128.75 352.5 128.29C352.6 127.83 352.92 127.45 353.35 127.27C373.52 118.83 381.16 106.9 381.37 100.93C381.42 99.5099 381.09 97.6299 379.24 96.6899C377.03 95.5699 368.99 97.0599 353.03 104.54C340.43 110.45 330.75 116.41 329.62 117.94C327.57 120.69 321.68 155.62 318.07 178.77L375.41 193.97L378.9 174.76C378.96 174.43 379.13 174.15 379.38 173.94C379.67 173.7 407.96 149.66 409.53 135.74C411.23 120.7 409.94 116.33 403.22 114.55H403.18C399.55 113.58 388.81 125.97 382.17 138.95C377.83 147.45 378.3 150.25 378.64 150.51C380.04 151.59 381.56 151.88 383.26 151.51C390.22 149.97 398.36 136.88 400.9 131.98C401.26 131.28 402.14 130.99 402.84 131.35C403.54 131.71 403.82 132.57 403.45 133.28C403.05 134.05 393.58 152.12 383.89 154.26C381.34 154.82 379 154.29 376.91 152.68C374.51 150.83 375.44 145.7 379.67 137.43C384.83 127.34 397.29 109.36 404.14 111.37C413.3 114.08 414.1 121.11 412.43 135.86C410.82 150.13 385.26 172.66 381.62 175.8L377.94 196.06C377.87 196.45 377.71 196.52 377.37 196.73C377.03 196.94 376.7 196.73 376.31 196.62V196.63Z" fill="white"/>
<path d="M335.381 112.69C334.611 112.49 334.421 111.77 334.621 111.01L343.441 77.7299C343.681 76.8099 343.581 75.4299 343.971 73.8899C349.411 52.2399 356.531 26.6799 365.061 21.6499C366.611 20.7399 368.061 20.4499 369.601 20.8599C373.241 21.8299 377.361 27.0699 371.521 61.4299C368.401 79.7899 363.831 97.8199 363.781 97.9999C363.591 98.7699 362.831 99.0399 362.061 98.8399H362.041C361.281 98.6299 360.771 98.0499 360.971 97.2899C361.021 97.1099 365.561 79.0799 368.661 60.8299C374.291 27.6699 370.161 23.9399 368.761 23.5699C367.991 23.3599 367.181 23.5399 366.301 24.0599C357.711 29.1299 349.601 62.1299 346.481 74.5299C346.091 76.0899 345.931 77.4299 345.681 78.3499L336.861 111.63C336.661 112.4 336.131 112.92 335.371 112.72L335.381 112.69Z" fill="white"/>
<path d="M368.081 144.98C366.951 144.68 365.861 144.07 364.881 143.04C358.971 136.82 367.241 125.85 376.001 114.24C384.441 103.04 393.311 93.44 400.991 99.02C406.761 103.21 406.201 110.16 405.091 113.24C404.821 113.99 404.011 114.37 403.261 114.11C402.521 113.84 402.131 113.02 402.391 112.28C402.491 111.99 404.761 105.31 399.311 101.34C394.791 98.06 388.511 102.43 378.301 115.97C370.651 126.12 362.741 136.61 366.971 141.07C370.911 145.21 379.121 137.7 379.201 137.62C379.781 137.08 380.691 137.1 381.231 137.68C381.771 138.26 381.751 139.16 381.171 139.71C380.821 140.04 373.841 146.51 368.091 144.99L368.081 144.98Z" fill="white"/>
<path d="M364.391 98.2801L362.221 96.4001C368.571 89.1001 378.041 80.1801 387.021 86.9801C393.801 92.1201 391.051 100.57 388.651 104.33L386.231 102.78C386.451 102.43 391.641 94.0901 385.281 89.2701C381.901 86.7101 376.061 84.8501 364.381 98.2801H364.391Z" fill="white"/>
<path d="M361.161 131.67C357.971 130.83 355.701 128.63 355.551 128.48L357.561 126.43C357.741 126.61 362.041 130.72 366.361 128.41L367.711 130.94C365.371 132.19 363.091 132.18 361.161 131.67Z" fill="white"/>
<path d="M365.1 67.6495L352.36 64.2695L353.29 60.7595L357.46 61.8695L360.78 49.3295L356.25 49.1195L357.2 45.5195L366.37 46.0695L361.87 63.0395L366.01 64.1395L365.08 67.6495H365.1Z" fill="white"/>
<path d="M318.54 220.93C312.53 215.99 306.22 214.06 299.8 215.19C293.86 216.24 288.92 219.78 285.29 223.32L286.37 207.88L164.35 206.93L165.16 222C161.62 218.54 156.87 215.14 151.17 214.04C144.77 212.81 138.44 214.64 132.35 219.49C125.18 225.21 122.12 233.49 123.75 242.8C126.03 255.81 136.91 267.72 150.81 272.42C162.63 276.41 168.78 281.07 171.89 284.27C178.07 298.76 190.22 310.03 205.22 315.02C213.39 317.74 218.78 325.54 218.72 334.15L218.64 344.02C218.57 353.07 211.17 360.35 202.12 360.28C196.58 360.24 192.05 364.7 192.01 370.24L191.99 372.83L256.15 373.33L256.17 370.74C256.21 365.2 251.75 360.67 246.21 360.63C237.16 360.56 229.88 353.16 229.95 344.11L230.03 334.24C230.1 325.63 235.61 317.91 243.82 315.32C258.66 310.64 270.83 299.84 277.32 285.79C280.22 282.64 286.49 277.67 299.25 273.58C313.23 269.09 324.29 257.36 326.77 244.39C328.55 235.1 325.62 226.77 318.54 220.95V220.93ZM152.84 266.43C141.24 262.51 131.83 252.34 129.97 241.7C129.11 236.79 129.51 229.81 136.28 224.41C140.91 220.72 145.38 219.34 149.95 220.22C157.64 221.69 163.5 229.21 165.73 232.49L167.52 265.6C167.67 268.33 168.03 271.01 168.56 273.62C164.65 271.19 159.54 268.7 152.84 266.43ZM320.57 243.19C318.54 253.8 308.98 263.82 297.32 267.56C290.34 269.8 285.07 272.31 281.07 274.75C281.67 272.07 282.08 269.32 282.28 266.5L284.55 234.02C286.45 231.2 292.7 222.85 300.93 221.41C305.52 220.61 309.96 222.05 314.54 225.82C321.23 231.32 321.52 238.31 320.58 243.2L320.57 243.19Z" fill="white"/>
<path d="M256.15 374.17L191.99 373.67C191.76 373.67 191.55 373.58 191.39 373.42C191.23 373.26 191.14 373.04 191.15 372.82L191.17 370.23C191.22 364.27 196.1 359.43 202.05 359.43H202.26C210.76 359.43 217.73 352.51 217.8 344.01L217.88 334.14C217.95 325.77 212.76 318.41 204.97 315.82C189.82 310.78 177.52 299.46 171.19 284.75C168.11 281.61 162.05 277.11 150.56 273.22C136.37 268.42 125.26 256.25 122.93 242.94C121.24 233.3 124.41 224.74 131.83 218.82C138.09 213.84 144.71 211.93 151.34 213.2C155.78 214.06 160.11 216.32 164.21 219.95L163.51 206.98C163.5 206.75 163.58 206.52 163.74 206.35C163.9 206.18 164.12 206.09 164.35 206.09L286.37 207.04C286.6 207.04 286.83 207.14 286.99 207.31C287.15 207.48 287.23 207.71 287.21 207.94L286.28 221.24C290.56 217.48 295.05 215.16 299.65 214.35C306.31 213.18 312.89 215.19 319.07 220.27C326.4 226.3 329.43 234.92 327.6 244.53C325.06 257.8 313.77 269.79 299.5 274.37C287.28 278.29 281.08 282.98 278.02 286.25C271.39 300.51 259.02 311.4 244.06 316.11C236.23 318.58 230.93 325.86 230.86 334.23L230.78 344.1C230.75 348.25 232.33 352.17 235.25 355.13C238.16 358.09 242.05 359.74 246.21 359.77C249.12 359.79 251.84 360.95 253.88 363.02C255.92 365.09 257.03 367.83 257.01 370.74L256.99 373.33C256.99 373.55 256.9 373.77 256.74 373.93C256.58 374.09 256.37 374.17 256.14 374.17H256.15ZM192.84 371.98L255.31 372.47V370.73C255.34 368.28 254.4 365.96 252.68 364.21C250.96 362.46 248.66 361.49 246.2 361.47C241.59 361.43 237.28 359.61 234.05 356.33C230.82 353.05 229.06 348.71 229.1 344.1L229.18 334.23C229.25 325.12 235.03 317.2 243.57 314.51C258.12 309.92 270.14 299.32 276.56 285.43C276.6 285.35 276.65 285.27 276.71 285.21C279.87 281.78 286.31 276.84 299 272.77C312.69 268.38 323.52 256.9 325.95 244.23C327.66 235.26 324.85 227.22 318.01 221.6C312.22 216.84 306.12 214.96 299.96 216.04C295.13 216.89 290.4 219.55 285.89 223.94C285.64 224.19 285.26 224.25 284.94 224.1C284.62 223.95 284.43 223.62 284.45 223.27L285.46 208.73L165.25 207.79L166.02 221.96C166.04 222.31 165.84 222.63 165.52 222.78C165.2 222.92 164.83 222.86 164.58 222.61C160.26 218.38 155.69 215.77 151.02 214.87C144.88 213.69 138.75 215.48 132.89 220.15C125.97 225.66 123.03 233.66 124.6 242.65C126.83 255.36 137.48 267 151.1 271.61C163.05 275.65 169.34 280.4 172.51 283.68C172.58 283.75 172.64 283.84 172.68 283.94C178.8 298.28 190.76 309.31 205.5 314.21C213.99 317.03 219.65 325.05 219.58 334.15L219.5 344.02C219.43 353.45 211.69 361.13 202.26 361.13H202.12C197.02 361.13 192.9 365.22 192.86 370.24V371.98H192.84ZM281.07 275.6C280.9 275.6 280.72 275.55 280.58 275.44C280.3 275.24 280.17 274.9 280.25 274.56C280.85 271.87 281.25 269.13 281.44 266.43L283.7 233.95C283.71 233.8 283.76 233.66 283.84 233.53C286.14 230.12 292.4 222.03 300.77 220.56C305.62 219.71 310.27 221.21 315.06 225.15C322.07 230.92 322.38 238.23 321.4 243.35C319.32 254.25 309.52 264.54 297.57 268.37C291.36 270.36 285.96 272.75 281.51 275.48C281.37 275.56 281.22 275.61 281.07 275.61V275.6ZM285.38 234.3L283.13 266.56C282.98 268.72 282.7 270.89 282.29 273.05C286.51 270.66 291.47 268.54 297.06 266.75C308.44 263.1 317.77 253.34 319.74 243.03C320.63 238.36 320.36 231.7 313.99 226.46C309.59 222.84 305.41 221.47 301.07 222.24C293.3 223.6 287.24 231.58 285.38 234.3ZM168.56 274.47C168.4 274.47 168.25 274.43 168.11 274.34C163.78 271.65 158.55 269.26 152.56 267.24C140.68 263.22 131.04 252.78 129.13 241.85C128.23 236.72 128.65 229.41 135.75 223.75C140.6 219.88 145.28 218.46 150.11 219.39C158.13 220.93 164.2 228.73 166.43 232.01C166.52 232.14 166.57 232.29 166.58 232.44L168.37 265.55C168.51 268.13 168.85 270.78 169.39 273.44C169.46 273.77 169.32 274.11 169.04 274.31C168.9 274.41 168.73 274.46 168.56 274.46V274.47ZM147.3 220.82C143.84 220.82 140.4 222.21 136.81 225.08C130.36 230.22 129.98 236.88 130.8 241.56C132.61 251.91 141.79 261.81 153.11 265.63C158.49 267.45 163.28 269.56 167.38 271.93C167.02 269.81 166.78 267.71 166.67 265.65L164.89 232.78C162.68 229.57 157.04 222.45 149.79 221.06C148.96 220.9 148.12 220.82 147.3 220.82Z" fill="#333333"/>
<path d="M161.229 209.258L161.269 204.179C161.272 203.729 161.635 203.371 162.085 203.375L289.451 204.375C289.901 204.379 290.258 204.742 290.255 205.192L290.215 210.271C290.212 210.721 289.849 211.079 289.399 211.075L162.033 210.075C161.583 210.071 161.225 209.708 161.229 209.258Z" fill="#4257FF"/>
<path d="M289.39 211.91H289.38L162.02 210.92C161.58 210.92 161.16 210.74 160.85 210.42C160.54 210.1 160.37 209.68 160.37 209.24L160.41 204.16C160.41 203.25 161.16 202.51 162.07 202.51L289.45 203.5C290.37 203.5 291.11 204.26 291.1 205.18L291.06 210.26C291.06 211.17 290.31 211.91 289.4 211.91H289.39ZM162.07 204.21V209.25L289.36 210.21L289.4 205.16L162.07 204.2V204.21Z" fill="#333333"/>
<path d="M221.181 246.199L207.511 258.039L199.461 248.609L221.691 230.139L235.081 230.239L234.551 297.939L220.781 297.829L221.181 246.199Z" fill="#4257FF"/>
<path d="M234.541 298.779L220.771 298.669C220.301 298.669 219.921 298.279 219.931 297.809L220.321 248.059L208.071 258.679C207.901 258.829 207.681 258.899 207.451 258.879C207.221 258.859 207.021 258.759 206.871 258.579L198.821 249.149C198.671 248.979 198.601 248.749 198.621 248.529C198.641 248.299 198.751 248.089 198.921 247.949L221.151 229.479C221.301 229.349 221.521 229.279 221.701 229.279L235.091 229.379C235.561 229.379 235.941 229.769 235.931 230.239L235.401 297.939C235.401 298.169 235.311 298.379 235.151 298.539C234.991 298.699 234.781 298.779 234.551 298.779H234.541ZM221.631 296.979L233.701 297.069L234.211 231.069L221.981 230.969L200.651 248.699L207.591 256.829L220.611 245.539C220.861 245.319 221.221 245.269 221.521 245.409C221.821 245.549 222.021 245.849 222.011 246.189L221.611 296.969L221.631 296.979Z" fill="#333333"/>
<path d="M14.6808 257.469C60.7908 263.229 75.8608 270.699 75.8608 270.699L73.9408 297.119L151.391 292.799C172.281 283.549 190.301 290.879 190.301 290.879C190.301 290.879 217.201 293.639 222.121 294.839C230.651 296.759 226.561 312.129 212.631 309.489C206.151 308.289 199.661 307.929 194.501 308.289C196.541 310.329 199.421 312.609 203.751 315.369C216.841 323.899 220.321 324.379 227.411 327.259C234.741 330.139 245.061 333.019 242.301 340.229C239.541 347.309 230.291 345.629 230.291 345.629C230.291 345.629 232.331 349.829 228.011 353.799C223.811 357.759 213.481 354.639 213.481 354.639C214.321 369.889 198.951 364.369 198.951 364.369C198.951 364.369 194.391 368.689 188.861 365.929C183.221 363.169 157.881 347.679 154.041 348.519C150.201 349.359 101.201 355.969 101.201 355.969L101.081 355.849C82.4708 359.329 63.6108 361.969 48.4808 361.849C35.3908 361.729 25.3008 359.449 21.3408 353.799C15.9408 346.349 12.9308 336.269 11.4908 325.339C7.29076 294.239 14.6708 257.469 14.6708 257.469H14.6808Z" fill="white"/>
<path d="M192.65 367.699C191.23 367.699 189.82 367.359 188.48 366.689C186.91 365.919 183.94 364.239 180.18 362.109C171.74 357.329 157.621 349.329 154.381 349.329C154.291 349.329 154.241 349.329 154.211 349.339C150.381 350.179 103.31 356.529 101.31 356.799L100.89 356.859L100.79 356.759C79.3405 360.759 62.5505 362.699 49.4805 362.699H48.4705C33.8305 362.559 24.4705 359.729 20.6405 354.289C15.6205 347.379 12.2605 337.669 10.6505 325.449C6.4805 294.569 13.7705 257.669 13.8405 257.299L14.0005 256.529L14.7805 256.629C60.5005 262.349 75.6105 269.639 76.2305 269.939L76.7405 270.189L74.8505 296.209L151.191 291.949C158.271 288.839 165.761 287.269 173.471 287.269C182.981 287.269 189.521 289.659 190.501 290.039C192.681 290.259 217.511 292.839 222.321 294.009C225.781 294.789 227.761 297.689 227.351 301.409C226.841 305.999 222.691 310.639 215.741 310.639C214.691 310.639 213.59 310.529 212.48 310.319C207.12 309.329 201.49 308.869 196.54 309.029C198.52 310.779 201.051 312.639 204.211 314.649C214.741 321.509 219.011 323.129 223.961 324.999C225.151 325.449 226.37 325.909 227.73 326.459C228.51 326.769 229.341 327.079 230.191 327.399C235.411 329.369 241.33 331.599 243.09 335.499C243.78 337.039 243.78 338.729 243.09 340.519C241.01 345.849 235.651 346.639 232.641 346.639C232.201 346.639 231.801 346.619 231.461 346.599C231.801 348.339 231.781 351.469 228.581 354.409C227.011 355.889 224.561 356.639 221.311 356.639C218.531 356.639 215.831 356.089 214.361 355.739C214.361 359.149 213.52 361.769 211.84 363.549C210.19 365.299 207.801 366.179 204.741 366.179C202.281 366.179 200.071 365.599 199.131 365.309C198.221 366.039 195.8 367.689 192.65 367.689V367.699ZM154.381 347.639C157.791 347.639 168.461 353.529 181.021 360.639C184.611 362.669 187.71 364.429 189.23 365.169C190.34 365.729 191.49 366.009 192.65 366.009C195.95 366.009 198.341 363.779 198.361 363.759L198.741 363.399L199.23 363.579C199.23 363.579 201.851 364.509 204.741 364.509C207.311 364.509 209.291 363.799 210.611 362.409C212.141 360.789 212.821 358.199 212.631 354.699L212.561 353.489L213.721 353.839C213.721 353.839 217.521 354.969 221.301 354.969C224.111 354.969 226.171 354.369 227.421 353.189C231.211 349.719 229.591 346.159 229.521 346.009L228.821 344.519L230.441 344.809C230.441 344.809 231.351 344.969 232.641 344.969C235.791 344.969 239.89 344.099 241.51 339.929C242.03 338.559 242.04 337.349 241.54 336.219C240.08 332.959 234.51 330.859 229.59 329.009C228.74 328.689 227.901 328.369 227.101 328.059C225.751 327.509 224.541 327.049 223.361 326.609C218.321 324.699 213.96 323.049 203.29 316.099C199.22 313.499 196.151 311.139 193.911 308.899L192.59 307.579L194.451 307.449C195.741 307.359 197.111 307.309 198.521 307.309C203.101 307.309 208.03 307.779 212.79 308.659C213.81 308.849 214.801 308.949 215.741 308.949C221.691 308.949 225.241 305.059 225.671 301.229C225.921 299.009 225.071 296.379 221.941 295.669C217.111 294.489 190.491 291.749 190.221 291.719L189.991 291.659C189.921 291.629 183.241 288.969 173.491 288.969C165.961 288.969 158.651 290.519 151.751 293.569L151.611 293.629H151.461L73.0405 298.019L74.9905 271.229C72.0105 269.939 55.6405 263.499 15.3805 258.409C14.3605 263.869 8.5505 297.099 12.3505 325.229C13.9205 337.169 17.1805 346.609 22.0405 353.309C25.5405 358.289 34.4405 360.879 48.5005 361.009H49.4905C62.5505 361.009 79.3705 359.049 100.93 355.019L101.37 354.939L101.51 355.079C106.29 354.429 150.281 348.489 153.861 347.699C154.021 347.659 154.201 347.649 154.391 347.649L154.381 347.639Z" fill="#333333"/>
<path d="M230.29 345.76H230.05C229.93 345.64 217.44 341.44 209.28 336.27C209.16 336.15 209.04 335.91 209.16 335.67C209.28 335.55 209.52 335.43 209.76 335.55C217.81 340.71 230.17 345.04 230.29 345.04C230.53 345.16 230.65 345.4 230.53 345.52C230.53 345.64 230.53 345.76 230.29 345.76Z" fill="#333333"/>
<path d="M213.48 354.759H213.24C203.03 352.239 196.43 346.949 196.31 346.949C196.19 346.829 196.19 346.589 196.19 346.349C196.31 346.229 196.55 346.229 196.79 346.229C196.91 346.349 203.27 351.389 213.36 353.919C213.6 354.039 213.72 354.158 213.72 354.398C213.72 354.638 213.72 354.759 213.48 354.759Z" fill="#333333"/>
<path d="M199.07 364.61H198.83C190.66 361.13 187.18 358.73 187.06 358.61C186.94 358.49 186.82 358.25 186.94 358.01C187.06 357.89 187.3 357.77 187.54 357.89C187.54 357.89 191.14 360.41 199.19 363.77C199.43 363.89 199.55 364.13 199.43 364.25C199.31 364.49 199.19 364.61 199.07 364.61Z" fill="#333333"/>
<path d="M202.67 323.899H202.31L197.03 321.379C196.91 321.259 196.67 321.019 196.91 320.779C197.03 320.659 197.27 320.539 197.51 320.659L202.79 323.179C202.91 323.299 203.15 323.539 202.91 323.779C202.79 323.899 202.67 323.899 202.67 323.899Z" fill="#333333"/>
<path d="M200.151 325.7C199.791 325.7 199.671 325.58 199.671 325.34L199.311 319.7C199.311 319.46 199.431 319.34 199.671 319.34C199.911 319.34 200.031 319.46 200.031 319.7L200.391 325.34C200.511 325.46 200.391 325.58 200.151 325.7Z" fill="#333333"/>
<path d="M191.021 335.909H190.661L185.381 333.389C185.261 333.269 185.021 333.029 185.261 332.789C185.381 332.669 185.621 332.549 185.861 332.669L191.141 335.189C191.261 335.309 191.501 335.549 191.261 335.789L191.021 335.909Z" fill="#333333"/>
<path d="M188.621 337.589C188.261 337.589 188.141 337.469 188.141 337.229L187.781 331.589C187.781 331.349 187.901 331.229 188.141 331.229C188.381 331.229 188.501 331.349 188.501 331.589L188.861 337.229C188.861 337.349 188.741 337.589 188.621 337.589Z" fill="#333333"/>
<path d="M181.05 346.36H180.69L175.41 343.84C175.29 343.72 175.05 343.48 175.29 343.24C175.41 343.12 175.65 343 175.89 343.12L181.17 345.64C181.29 345.76 181.53 346 181.29 346.24C181.17 346.24 181.17 346.36 181.05 346.36Z" fill="#333333"/>
<path d="M178.53 348.04C178.17 348.04 178.05 347.92 178.05 347.68L177.69 342.04C177.69 341.8 177.81 341.68 178.05 341.68C178.29 341.68 178.41 341.8 178.41 342.04L178.77 347.68C178.89 347.92 178.77 348.04 178.53 348.04Z" fill="#333333"/>
<path d="M137.58 293.52C137.58 293.52 131.46 320.9 138.06 350.44L130.73 351.52C130.73 351.52 122.92 313.09 131.09 293.64L137.57 293.52H137.58Z" fill="#333333"/>
<path d="M140.711 330.858C140.711 325.698 136.511 321.488 131.341 321.488C126.171 321.488 121.971 325.688 121.971 330.858C121.971 336.028 126.171 340.228 131.341 340.228C136.511 340.228 140.711 336.028 140.711 330.858Z" fill="white"/>
<path d="M134.221 340.229C129.061 341.789 123.531 338.909 122.091 333.749C120.531 328.589 123.411 323.059 128.571 321.619C133.731 320.059 139.261 322.939 140.701 328.099C142.261 333.259 139.261 338.669 134.221 340.229ZM128.701 322.219C124.021 323.659 121.251 328.699 122.701 333.389C124.141 338.069 129.181 340.839 133.871 339.389C138.551 337.949 141.321 332.909 139.871 328.219C138.551 323.539 133.511 320.769 128.701 322.219Z" fill="#333333"/>
<path d="M124.381 331.59L131.471 330.99L129.911 328.23" fill="white"/>
<path d="M131.461 331.23L124.381 331.83C124.141 331.83 124.021 331.71 124.021 331.47C124.021 331.23 124.141 331.11 124.381 331.11L130.741 330.51L129.421 328.23C129.301 328.11 129.301 327.87 129.541 327.63C129.661 327.51 129.901 327.51 130.141 327.75L131.701 330.51C131.821 330.63 131.821 330.75 131.701 330.87C131.701 331.11 131.581 331.23 131.461 331.23Z" fill="#333333"/>
<path d="M32.9404 354.459C31.8004 354.459 30.5804 354.309 29.4204 353.829C27.4604 353.139 25.4404 351.159 25.4404 348.729C25.4404 346.099 27.5804 343.879 31.3104 342.639C33.5804 341.879 35.5104 341.819 37.0704 342.439C38.1904 342.889 39.1404 343.849 39.6004 345.019C39.9904 346.009 39.9804 347.029 39.5704 347.899C39.4304 348.199 39.1304 348.389 38.8004 348.389C38.4704 348.389 38.0704 348.389 37.8804 348.449C37.4304 348.599 36.9504 348.359 36.8104 347.909C36.6604 347.469 36.9004 346.979 37.3504 346.839C37.6104 346.749 37.8904 346.719 38.1804 346.699C38.2304 346.299 38.1404 345.919 38.0304 345.639C37.7404 344.909 37.1404 344.289 36.4504 344.009C34.9804 343.419 33.1404 343.809 31.8504 344.239C30.4304 344.709 27.1404 346.089 27.1404 348.719C27.1404 350.339 28.6304 351.739 30.0304 352.239C31.4604 352.829 33.1204 352.909 35.4404 352.529C37.8304 352.179 40.8604 351.529 43.1404 349.689C44.9004 348.099 46.0904 345.029 44.8804 342.889C43.9504 341.189 41.8504 340.139 38.6104 339.749C35.4204 339.359 31.9704 339.679 28.3604 340.699C27.9104 340.829 27.4404 340.559 27.3104 340.109C27.1804 339.659 27.4504 339.189 27.9004 339.059C31.7204 337.979 35.3904 337.649 38.8104 338.059C42.6204 338.519 45.1604 339.859 46.3604 342.059C48.0004 344.959 46.5704 348.879 44.2404 350.979C41.6004 353.119 38.2904 353.829 35.7004 354.209C34.9304 354.339 33.9704 354.459 32.9504 354.459H32.9404Z" fill="#333333"/>
<path d="M75.0207 108.949L84.2807 106.009L75.0207 102.849C72.2507 102.119 70.1307 99.8894 69.5407 97.0894L66.6007 83.1895L63.4507 96.7895C62.7907 99.6595 60.5207 101.879 57.6407 102.489L48.9307 105.489L57.3407 108.459C60.2907 109.139 62.5407 111.509 63.0807 114.489L65.5107 127.939L69.0507 114.479C69.8007 111.629 72.1307 109.479 75.0307 108.959L75.0207 108.949Z" fill="white"/>
<path d="M291.8 330.82L302.19 327.52L291.8 323.97C288.69 323.15 286.31 320.65 285.65 317.51L282.35 301.91L278.81 317.18C278.06 320.4 275.52 322.89 272.29 323.58L262.51 326.95L271.95 330.28C275.26 331.05 277.79 333.71 278.39 337.05L281.12 352.14L285.1 337.03C285.94 333.83 288.56 331.42 291.81 330.83L291.8 330.82Z" fill="#333333"/>
<path d="M222.931 64.7808L228.851 62.9008L222.931 60.8808C221.161 60.4108 219.801 58.9908 219.421 57.2008L217.541 48.3008L215.521 57.0008C215.091 58.8408 213.641 60.2608 211.801 60.6508L206.221 62.5708L211.601 64.4708C213.491 64.9108 214.931 66.4208 215.271 68.3308L216.831 76.9408L219.101 68.3308C219.581 66.5108 221.071 65.1308 222.931 64.7908V64.7808Z" fill="#333333"/>
<path d="M142.17 73.0199C141.81 70.9399 140.64 69.4099 139.56 69.5999C138.48 69.7899 137.9 71.6199 138.26 73.6999C138.62 75.7799 139.79 77.3099 140.87 77.1199C141.95 76.9299 142.53 75.0999 142.17 73.0199Z" fill="#333333"/>
<path d="M171.88 67.0805C171.52 65.0005 170.35 63.4705 169.27 63.6605C168.19 63.8505 167.61 65.6805 167.97 67.7605C168.33 69.8405 169.5 71.3705 170.58 71.1805C171.66 70.9905 172.24 69.1605 171.88 67.0805Z" fill="#333333"/>
<path d="M141.47 60.7608C141.74 61.5108 141.51 62.4208 140.91 62.9508C139.38 64.2908 136.5 65.1208 134.57 65.7008C133.88 65.9108 133.12 66.0808 132.45 65.8208C130.25 64.9808 130.82 62.5908 132.28 61.4908C133.59 60.5008 135.27 59.9208 136.83 59.4708C137.68 59.2208 138.58 59.0508 139.45 59.2108C140.32 59.3708 141.17 59.9208 141.47 60.7608Z" fill="#333333"/>
<path d="M163.95 55.8506C163.83 56.6406 164.23 57.4906 164.92 57.8906C166.68 58.9106 169.67 59.1706 171.67 59.3706C172.39 59.4406 173.16 59.4706 173.78 59.0806C175.78 57.8306 174.76 55.6006 173.11 54.8006C171.63 54.0806 169.88 53.8406 168.26 53.6906C167.38 53.6106 166.46 53.6106 165.64 53.9406C164.81 54.2706 164.09 54.9706 163.96 55.8506H163.95Z" fill="#333333"/>
<path d="M161.651 83.331C161.441 83.331 161.221 83.251 161.061 83.091C160.721 82.761 160.711 82.231 161.041 81.891C162.561 80.321 163.451 78.631 163.231 78.361C162.281 77.231 157.931 71.071 157.231 68.381C157.111 67.931 157.381 67.461 157.841 67.341C158.291 67.221 158.761 67.491 158.881 67.951C159.451 70.141 163.371 75.871 164.551 77.271C165.991 79.001 163.181 82.151 162.281 83.071C162.111 83.241 161.891 83.331 161.671 83.331H161.651Z" fill="#333333"/>
<path d="M283.211 120.439C289.321 129.949 290.251 142.409 279.631 154.689L274.841 139.159L268.411 148.819L262.111 139.369C262.111 139.369 256.181 147.459 258.531 156.159C258.531 156.159 243.571 140.219 253.101 122.879L283.211 120.439Z" fill="white"/>
<path d="M258.531 157.01C258.301 157.01 258.081 156.92 257.911 156.74C257.761 156.58 242.641 140.15 252.351 122.47C252.491 122.22 252.741 122.06 253.031 122.03L283.141 119.59C283.451 119.57 283.751 119.71 283.921 119.98C291.191 131.3 289.861 144.15 280.271 155.24C280.071 155.47 279.761 155.58 279.451 155.52C279.151 155.46 278.901 155.23 278.811 154.94L274.541 141.12L269.101 149.29C268.941 149.53 268.681 149.67 268.391 149.67C268.111 149.67 267.841 149.53 267.681 149.29L262.091 140.92C260.671 143.3 257.631 149.41 259.281 155.78C259.341 155.89 259.371 156.02 259.371 156.15C259.371 156.62 259.001 157.04 258.511 157L258.531 157.01ZM253.631 123.69C247.021 136.22 253.581 148.06 257.161 153.07C256.661 145.48 261.201 139.18 261.421 138.88C261.581 138.66 261.841 138.52 262.121 138.53C262.401 138.53 262.651 138.68 262.811 138.91L268.411 147.3L274.141 138.7C274.321 138.43 274.641 138.28 274.971 138.33C275.291 138.38 275.561 138.61 275.661 138.92L279.991 152.95C290.881 139.41 286.621 127.54 282.771 121.34L253.631 123.7V123.69Z" fill="#333333"/>
<path d="M251.94 98.5996C250.09 98.5796 238.96 110.69 240.33 133.07L241.81 133.09C241.81 133.09 243.75 123.07 254.38 123.18L260.55 113.31L251.94 98.6096V98.5996Z" fill="black"/>
<path d="M242.52 133.94L239.54 133.91L239.49 133.12C238.5 116.99 244.01 105.04 249.03 99.7C250.25 98.41 251.23 97.75 251.94 97.75H252.43L252.68 98.17L261.55 113.32L254.86 124.03H254.21C244.55 124.03 242.72 132.87 242.65 133.24L242.52 133.93V133.94ZM241.14 132.23H241.17C241.86 129.9 244.78 122.49 253.92 122.33L259.57 113.29L251.57 99.63C249.15 101.23 240.2 112.6 241.15 132.23H241.14Z" fill="#333333"/>
<path d="M254.601 123.571H254.381C251.261 123.531 248.601 124.401 246.481 126.131C243.041 128.941 242.201 133.121 242.191 133.161L242.131 133.481L239.971 133.461L239.951 133.101C238.741 113.261 247.361 101.521 250.481 98.9707C251.101 98.4607 251.581 98.2207 251.951 98.2207H252.171L261.011 113.321L254.601 123.581V123.571ZM246.001 125.531C248.211 123.721 250.961 122.801 254.181 122.801L260.111 113.311L251.761 99.0507C251.601 99.1207 251.341 99.2807 250.981 99.5707C247.961 102.041 239.641 113.401 240.711 132.701H241.521C241.791 131.631 242.881 128.101 246.011 125.541L246.001 125.531Z" fill="#333333"/>
<path d="M238.571 133.601L243.791 133.661C244.151 133.661 244.441 133.381 244.441 133.021C244.441 132.661 244.161 132.371 243.801 132.371L238.581 132.311C238.221 132.311 237.931 132.591 237.931 132.951C237.931 133.311 238.211 133.601 238.571 133.601Z" fill="#333333"/>
<path d="M284.28 98.758C286.15 98.778 297.13 111.248 295.26 133.818L293.76 133.798C293.76 133.798 292.02 123.638 281.27 123.528L275.25 113.418L284.27 98.748L284.28 98.758Z" fill="black"/>
<path d="M296.05 134.668L293.06 134.638L292.94 133.938C292.87 133.548 291.17 124.468 281.28 124.368H280.8L274.28 113.408L283.82 97.8984H284.3C285.01 97.9084 285.96 98.5684 287.14 99.8684C288.25 101.078 297.89 112.348 296.12 133.888L296.06 134.678L296.05 134.668ZM294.44 132.958H294.48C295.86 113.218 287.14 101.558 284.63 99.8184L276.26 113.428L281.77 122.688C291 123.038 293.79 130.598 294.44 132.958Z" fill="#333333"/>
<path d="M295.621 134.209L293.441 134.189L293.391 133.869C293.321 133.469 291.561 124.029 281.281 123.919H281.061L274.811 113.429L284.061 98.3789H284.281C285.031 98.3889 286.171 99.5189 286.791 100.199C287.881 101.399 297.411 112.529 295.651 133.869L295.621 134.229V134.209ZM294.081 133.419H294.911C296.511 112.649 287.281 101.869 286.221 100.699C285.341 99.7289 284.751 99.3289 284.461 99.1989L275.721 113.419L281.511 123.139C291.181 123.359 293.671 131.669 294.091 133.409L294.081 133.419Z" fill="#333333"/>
<path d="M297.04 134.388L291.77 134.328C291.41 134.328 291.12 134.028 291.12 133.668C291.12 133.308 291.42 133.018 291.78 133.018L297.05 133.078C297.41 133.078 297.7 133.378 297.7 133.738C297.7 134.098 297.4 134.388 297.04 134.388Z" fill="#333333"/>
<path d="M246.621 52.4886C247.231 29.1886 269.691 7.55859 269.691 7.55859H270.041C270.041 7.55859 292.041 29.6686 292.151 52.9786C292.261 76.2886 284.231 123.889 284.231 123.889L268.811 123.729H268.461L253.041 123.559C253.041 123.559 246.021 75.7986 246.621 52.4986V52.4886Z" fill="white"/>
<path d="M284.941 124.739L252.311 124.389L252.201 123.669C252.131 123.189 245.171 75.5692 245.771 52.4592C246.381 29.0792 268.171 7.82922 269.101 6.93922L269.351 6.69922H270.391L270.641 6.95922C271.551 7.86922 292.881 29.5792 292.991 52.9692C293.101 76.0792 285.141 123.549 285.051 124.029L284.931 124.749L284.941 124.739ZM253.781 122.709L283.501 123.029C284.501 116.989 291.401 74.3992 291.291 52.9792C291.191 32.0592 272.871 11.7992 269.851 8.59922C266.761 11.7292 248.011 31.6092 247.471 52.5192C246.911 73.9292 252.911 116.659 253.771 122.719L253.781 122.709Z" fill="#333333"/>
<path d="M284.461 124.18C284.391 124.24 284.311 124.27 284.211 124.27L253.031 123.94C252.841 123.94 252.681 123.8 252.651 123.61C252.581 123.13 245.631 75.5499 246.231 52.4799C246.831 29.2899 269.191 7.49992 269.411 7.27992C269.481 7.20992 269.581 7.16992 269.681 7.16992H270.031C270.131 7.16992 270.231 7.21992 270.301 7.28992C270.521 7.50992 292.411 29.7799 292.521 52.9699C292.631 76.0399 284.671 123.47 284.591 123.95C284.571 124.05 284.521 124.13 284.451 124.18H284.461ZM253.371 123.17L283.891 123.49C284.601 119.25 291.861 74.9699 291.751 52.9699C291.641 30.9299 271.541 9.66992 269.861 7.93992H269.831C268.121 9.63992 247.571 30.4699 246.991 52.4999C246.421 74.4899 252.741 118.91 253.361 123.17H253.371Z" fill="#333333"/>
<path d="M255.391 25.9586C261.911 15.0486 269.691 7.55859 269.691 7.55859H270.041C270.041 7.55859 277.281 14.8486 283.481 25.4686C279.631 27.2386 270.411 30.0186 255.401 25.9686L255.391 25.9586Z" fill="#D0E1FF"/>
<path d="M270.001 28.8994C265.381 28.8994 260.391 28.1894 255.171 26.7794C254.911 26.7094 254.701 26.5194 254.601 26.2794C254.501 26.0294 254.521 25.7494 254.661 25.5294C261.171 14.6494 269.021 7.02938 269.101 6.94938C269.261 6.79938 269.471 6.68938 269.701 6.70938H270.051C270.271 6.70938 270.491 6.80938 270.641 6.95938C270.711 7.02938 278.031 14.4494 284.211 25.0294C284.331 25.2394 284.361 25.4794 284.291 25.7094C284.221 25.9394 284.051 26.1294 283.841 26.2294C281.201 27.4494 276.661 28.8894 270.011 28.8894L270.001 28.8994ZM256.711 25.4294C261.381 26.6094 265.851 27.2094 270.001 27.2094C275.661 27.2094 279.691 26.1194 282.261 25.0794C277.161 16.5494 271.431 10.2694 269.861 8.60938C268.211 10.2794 262.101 16.6994 256.721 25.4394L256.711 25.4294Z" fill="#333333"/>
<path d="M283.72 25.7599C283.72 25.7599 283.67 25.7999 283.64 25.8099C279.47 27.7299 270.23 30.3599 255.29 26.3299C255.17 26.2999 255.08 26.2099 255.03 26.0999C254.98 25.9899 254.99 25.8599 255.06 25.7599C261.54 14.9299 269.34 7.34992 269.42 7.27992C269.49 7.20992 269.59 7.16992 269.69 7.16992H270.04C270.14 7.16992 270.24 7.21992 270.31 7.28992C270.38 7.35992 277.66 14.7399 283.81 25.2699C283.86 25.3599 283.88 25.4799 283.84 25.5799C283.82 25.6499 283.77 25.7199 283.72 25.7599ZM255.99 25.7199C269.96 29.3799 278.73 27.1199 282.93 25.2899C277.29 15.7399 270.79 8.88992 269.88 7.94992H269.85C268.89 8.89992 261.93 15.9199 255.99 25.7199Z" fill="#333333"/>
<path d="M287.141 104.939C285.561 115.929 284.221 123.879 284.221 123.879L268.801 123.719H268.451L253.031 123.549C253.031 123.549 251.891 115.779 250.561 104.969L287.131 104.939H287.141Z" fill="#D0E1FF"/>
<path d="M284.221 124.73L253.041 124.4C252.621 124.4 252.271 124.09 252.211 123.67C252.201 123.59 251.051 115.76 249.741 105.07C249.711 104.83 249.791 104.59 249.951 104.4C250.111 104.22 250.341 104.11 250.581 104.11L287.151 104.08C287.401 104.08 287.631 104.19 287.791 104.37C287.951 104.56 288.021 104.8 287.991 105.05C286.431 115.93 285.081 123.93 285.071 124.01C285.001 124.42 284.651 124.72 284.231 124.72L284.221 124.73ZM253.781 122.71L283.501 123.03C283.851 120.92 284.931 114.32 286.161 105.79L251.531 105.82C252.561 114.17 253.471 120.62 253.771 122.71H253.781Z" fill="#333333"/>
<path d="M284.461 124.181C284.391 124.241 284.311 124.271 284.211 124.271L253.031 123.941C252.841 123.941 252.681 123.801 252.651 123.611C252.641 123.531 251.491 115.711 250.181 105.021C250.171 104.911 250.201 104.801 250.271 104.721C250.341 104.641 250.451 104.591 250.561 104.591L287.131 104.561C287.241 104.561 287.351 104.611 287.421 104.691C287.491 104.771 287.531 104.891 287.511 105.001C285.951 115.871 284.601 123.871 284.591 123.951C284.571 124.051 284.521 124.131 284.451 124.181H284.461ZM253.371 123.171L283.891 123.491C284.151 121.911 285.331 114.731 286.691 105.321L251.011 105.351C252.151 114.581 253.151 121.601 253.381 123.161L253.371 123.171Z" fill="#333333"/>
<path d="M268.23 100.729H268.3L269.67 100.749H269.74C269.74 100.749 275.28 113.039 269.37 135.949H268.72H268.51H267.86C262.43 112.909 268.23 100.739 268.23 100.739V100.729Z" fill="black"/>
<path d="M270.03 136.809L267.18 136.779L267.03 136.129C261.59 113.069 267.22 100.879 267.46 100.369L267.69 99.8789L270.22 99.9089L270.52 100.399C270.75 100.909 276.12 113.229 270.19 136.159L270.02 136.799L270.03 136.809ZM268.53 135.099H268.71C273.58 115.689 270.06 104.069 269.16 101.599H268.79C267.84 104.039 264.07 115.589 268.53 135.099Z" fill="#333333"/>
<path d="M269.67 136.339L267.55 136.319L267.48 136.029C262.08 113.129 267.82 100.699 267.88 100.579L267.99 100.359L270 100.379L270.1 100.609C270.16 100.729 275.63 113.289 269.75 136.059L269.67 136.349V136.339ZM268.16 135.549H269.07C274.34 114.909 270.17 102.889 269.48 101.129H268.47C267.74 102.859 263.32 114.789 268.15 135.549H268.16Z" fill="#333333"/>
<path d="M265.971 136.729L271.021 136.779C271.361 136.779 271.651 136.509 271.651 136.159C271.651 135.819 271.381 135.529 271.031 135.529L265.981 135.479C265.641 135.479 265.351 135.749 265.351 136.099C265.351 136.439 265.621 136.729 265.971 136.729Z" fill="#333333"/>
<path d="M276.79 49.7497C272.18 45.4197 264.93 45.6497 260.6 50.2597C256.27 54.8697 256.5 62.1197 261.11 66.4497C265.72 70.7797 272.97 70.5497 277.3 65.9397C281.63 61.3297 281.4 54.0797 276.79 49.7497Z" fill="#CCD7F2"/>
<path d="M268.95 70.3988C265.81 70.3988 262.82 69.2188 260.53 67.0688C258.13 64.8188 256.76 61.7688 256.65 58.4888C256.55 55.2088 257.73 52.0788 259.98 49.6788C262.3 47.2088 265.57 45.7988 268.95 45.7988C272.09 45.7988 275.08 46.9788 277.37 49.1288C282.32 53.7688 282.56 61.5788 277.92 66.5188C275.6 68.9888 272.33 70.3988 268.95 70.3988ZM268.95 47.4888C265.99 47.4888 263.24 48.6788 261.22 50.8388C259.28 52.9088 258.26 55.5988 258.35 58.4288C258.44 61.2588 259.63 63.8888 261.69 65.8288C263.66 67.6788 266.24 68.6988 268.95 68.6988C271.91 68.6988 274.66 67.5088 276.68 65.3488C280.68 61.0888 280.47 54.3588 276.21 50.3588C274.24 48.5088 271.66 47.4888 268.95 47.4888Z" fill="#333333"/>
<path d="M276.42 67.2496C271.85 70.9896 265.15 70.7596 260.84 66.7096C256.08 62.2396 255.85 54.7396 260.32 49.9796C260.68 49.5996 261.07 49.2396 261.47 48.9096C266.04 45.1696 272.75 45.4096 277.06 49.4596C281.82 53.9296 282.05 61.4296 277.58 66.1896C277.22 66.5696 276.83 66.9196 276.43 67.2496H276.42ZM261.95 49.5096C261.57 49.8196 261.21 50.1596 260.88 50.5096C256.7 54.9596 256.95 62.0096 261.4 66.1896C265.43 69.9796 271.72 70.2296 276 66.7296C276.38 66.4196 276.71 66.0496 277.05 65.6896C281.23 61.2396 280.99 54.2096 276.54 50.0296C272.51 46.2396 266.23 46.0096 261.95 49.4996V49.5096Z" fill="#333333"/>
<path d="M265.351 54.719C263.941 53.399 261.731 53.469 260.401 54.879C259.081 56.289 259.151 58.499 260.561 59.829C261.971 61.149 264.181 61.079 265.511 59.669C266.831 58.259 266.761 56.049 265.351 54.719Z" fill="white"/>
<path d="M265.86 59.9993C264.9 59.0993 263.39 59.1493 262.49 60.1093C261.59 61.0693 261.64 62.5793 262.6 63.4793C263.56 64.3793 265.07 64.3293 265.97 63.3693C266.87 62.4093 266.82 60.8993 265.86 59.9993Z" fill="white"/>
<path d="M158.29 97.1005C150.43 97.1005 144.69 91.6605 144.62 91.5805C144.28 91.2505 144.28 90.7205 144.6 90.3805C144.93 90.0405 145.46 90.0305 145.8 90.3605C146.2 90.7505 155.77 99.7705 166.93 92.8005C167.33 92.5505 167.85 92.6705 168.1 93.0705C168.35 93.4705 168.23 93.9905 167.83 94.2405C164.48 96.3405 161.23 97.1005 158.29 97.1005Z" fill="#333333"/>
<path d="M143.72 93.0892C143.53 93.0892 143.34 93.0292 143.18 92.8992C142.82 92.5992 142.76 92.0692 143.06 91.7092L145.39 88.8492C145.69 88.4892 146.22 88.4292 146.58 88.7292C146.94 89.0292 147 89.5592 146.7 89.9192L144.37 92.7792C144.2 92.9892 143.96 93.0892 143.71 93.0892H143.72Z" fill="#333333"/>
<path d="M116.24 94.7899C115.91 94.7899 115.6 94.5999 115.46 94.2799C113.58 89.9999 109.11 88.7799 105.76 89.4499C103.72 89.8599 101.53 91.1499 101.49 93.5299C101.49 93.9999 101.07 94.3499 100.63 94.3599C100.16 94.3599 99.79 93.9699 99.8 93.4999C99.85 90.7099 102.06 88.4599 105.44 87.7899C109.43 86.9799 114.76 88.4599 117.03 93.5999C117.22 94.0299 117.03 94.5299 116.59 94.7199C116.48 94.7699 116.36 94.7899 116.25 94.7899H116.24Z" fill="#333333"/>
<path d="M108.6 94.5809C108.47 94.5809 108.34 94.5509 108.22 94.4909C107.8 94.2809 107.63 93.7709 107.84 93.3509L110.17 88.6809C110.38 88.2609 110.89 88.0909 111.31 88.3009C111.73 88.5109 111.9 89.0209 111.69 89.4409L109.36 94.1109C109.21 94.4109 108.91 94.5809 108.6 94.5809Z" fill="#333333"/>
<path d="M184.88 77.1791C184.74 77.1791 184.6 77.1491 184.47 77.0691C184.06 76.8391 183.91 76.3291 184.14 75.9191C184.29 75.6491 185.67 73.2291 187.77 72.7391C188.69 72.5291 189.62 72.7191 190.46 73.2991C190.85 73.5691 190.94 74.0991 190.67 74.4791C190.4 74.8591 189.87 74.9591 189.49 74.6891C189.04 74.3791 188.62 74.2791 188.16 74.3891C187 74.6591 185.94 76.1791 185.63 76.7391C185.47 77.0191 185.18 77.1791 184.89 77.1791H184.88Z" fill="#333333"/>
<path d="M131.15 19.7095C132.57 18.2595 134.59 16.8495 136.46 17.6195C137.54 18.0595 138.21 19.1195 139.05 19.9295C141.2 22.0095 144.75 22.4595 147.35 20.9695C148.86 20.1095 149.99 18.7095 151.4 17.6895C152.86 16.6395 154.62 16.0095 156.41 15.8995C157.08 15.8595 157.79 15.8995 158.38 16.2195C159.81 16.9995 159.93 19.0195 159.55 20.5995C158.95 23.1095 157.51 25.4595 155.36 26.8795C153.21 28.3095 150.34 28.6995 147.99 27.6395C146.82 27.1095 145.82 26.2595 144.61 25.8195C142.24 24.9495 139.6 25.8195 137.33 26.9195C135.06 28.0195 132.81 29.3795 130.29 29.5395C129.72 29.5695 129.12 29.5395 128.63 29.2595C127.72 28.7395 127.41 27.5595 127.46 26.5095C127.58 23.8695 129.28 21.5795 131.13 19.6995L131.15 19.7095Z" fill="white"/>
</svg>
