<svg width="453" height="380" viewBox="0 0 453 380" fill="none" xmlns="http://www.w3.org/2000/svg">
<path d="M229.75 105.111C243.11 120.231 267.89 121.221 286.26 125.331C310.52 130.761 334.78 136.181 359.05 141.611C366.02 143.171 373.2 144.821 378.98 149.011C406.41 168.911 391.36 214.941 370.8 233.241C354.63 247.641 334.03 255.801 314.79 265.731C277.55 284.951 246.63 312.151 205.57 323.891C123.84 347.271 -0.360196 326.541 -0.000195711 219.061C0.0998043 189.941 13.8398 160.531 37.8998 144.141C47.5498 137.571 58.5898 133.121 67.7898 125.921C95.3098 104.371 75.6798 66.5906 92.5098 39.8906C105.47 19.3306 134.05 16.0806 156.13 15.4506C170.76 15.0306 186.68 16.0906 197.79 25.6206C221.1 45.6106 210.08 82.8506 229.75 105.131V105.111Z" fill="#4257FF"/>
<path d="M231.189 31.7009L236.699 29.9509L231.189 28.0709C229.539 27.6409 228.279 26.3109 227.929 24.6509L226.179 16.3809L224.299 24.4709C223.899 26.1809 222.559 27.5009 220.839 27.8609L215.659 29.6409L220.659 31.4009C222.409 31.8109 223.749 33.2209 224.069 34.9909L225.519 42.9909L227.629 34.9809C228.079 33.2909 229.459 32.0109 231.179 31.6909L231.189 31.7009Z" fill="white"/>
<path d="M225.529 43.8413C225.529 43.8413 225.509 43.8413 225.499 43.8413C225.099 43.8213 224.769 43.5313 224.699 43.1413L223.249 35.1413C222.989 33.7013 221.899 32.5613 220.479 32.2313C220.449 32.2313 220.419 32.2113 220.389 32.2013L215.389 30.4413C215.049 30.3213 214.819 30.0012 214.819 29.6412C214.819 29.2812 215.049 28.9613 215.389 28.8413L220.569 27.0612C220.569 27.0612 220.639 27.0413 220.669 27.0313C222.049 26.7413 223.159 25.6613 223.479 24.2813L225.359 16.1913C225.449 15.8013 225.789 15.5312 226.189 15.5312C226.589 15.5312 226.929 15.8113 227.009 16.2013L228.759 24.4712C229.049 25.8312 230.059 26.9013 231.409 27.2513L236.969 29.1512C237.319 29.2712 237.549 29.6012 237.539 29.9612C237.539 30.3312 237.299 30.6513 236.949 30.7613L231.449 32.5112C231.449 32.5112 231.379 32.5313 231.339 32.5413C229.949 32.7913 228.809 33.8413 228.459 35.2113L226.349 43.2213C226.249 43.5913 225.909 43.8512 225.529 43.8512V43.8413ZM220.909 30.5913C222.969 31.0913 224.539 32.7513 224.919 34.8413L225.679 39.0713L226.809 34.7713C227.329 32.7813 228.969 31.2612 230.979 30.8812L233.979 29.9313L230.909 28.8812C228.999 28.3812 227.509 26.8213 227.089 24.8313L226.129 20.3112L225.119 24.6713C224.659 26.6713 223.069 28.2413 221.069 28.6913L218.239 29.6613L220.899 30.6013L220.909 30.5913Z" fill="#333333"/>
<path d="M40.9598 153.83L48.3598 151.48L40.9598 148.95C38.7498 148.37 37.0498 146.59 36.5798 144.35L34.2298 133.24L31.7098 144.11C31.1798 146.4 29.3698 148.18 27.0598 148.67L20.0898 151.07L26.8098 153.44C29.1698 153.99 30.9698 155.88 31.3998 158.26L33.3398 169.01L36.1698 158.25C36.7698 155.97 38.6298 154.25 40.9498 153.83H40.9598Z" fill="#333333"/>
<path d="M387.09 149.34L393.36 147.35L387.09 145.21C385.22 144.72 383.78 143.21 383.38 141.31L381.39 131.9L379.25 141.11C378.8 143.05 377.27 144.56 375.32 144.97L369.42 147L375.11 149.01C377.1 149.47 378.63 151.08 379 153.09L380.65 162.2L383.05 153.09C383.56 151.16 385.14 149.7 387.1 149.35L387.09 149.34Z" fill="#333333"/>
<path d="M356.88 27.7913C340.88 27.8313 327.09 36.6713 319.67 49.6313C312.19 36.7013 298.36 27.9213 282.36 27.9613C258.53 28.0113 239.26 47.3813 239.31 71.2013C239.36 95.0313 274.25 126.521 319.96 176.921C363 130.731 400.18 94.6613 400.13 70.8313C400.08 47.0013 380.71 27.7313 356.88 27.7813V27.7913Z" fill="#5669FF"/>
<path d="M319.96 177.781C319.72 177.781 319.5 177.681 319.34 177.501C310.3 167.541 301.85 158.491 293.68 149.741C260.46 114.171 238.51 90.6612 238.47 71.2112C238.41 46.9512 258.11 27.1712 282.36 27.1212H282.46C297.51 27.1212 311.63 35.0812 319.67 47.9912C327.66 35.0112 341.79 26.9912 356.89 26.9512H356.99C381.19 26.9512 400.93 46.6412 400.98 70.8412C401.03 92.0312 372.49 122.331 336.36 160.701C331.24 166.131 325.95 171.751 320.58 177.511C320.42 177.681 320.19 177.781 319.96 177.781ZM282.46 28.8212H282.36C259.04 28.8712 240.11 47.8912 240.16 71.2112C240.2 89.9912 263.15 114.571 294.91 148.581C302.9 157.141 311.15 165.971 319.97 175.681C325.13 170.151 330.21 164.761 335.12 159.541C370.99 121.451 399.32 91.3712 399.28 70.8512C399.23 47.5812 380.25 28.6512 356.98 28.6512H356.88C341.92 28.6812 327.94 36.8912 320.4 50.0712C320.25 50.3312 319.97 50.5012 319.67 50.5012C319.37 50.5012 319.09 50.3412 318.94 50.0812C311.36 36.9712 297.38 28.8312 282.46 28.8312V28.8212Z" fill="#333333"/>
<path d="M281.06 74.7616C291.023 74.7616 299.1 66.6849 299.1 56.7216C299.1 46.7584 291.023 38.6816 281.06 38.6816C271.096 38.6816 263.02 46.7584 263.02 56.7216C263.02 66.6849 271.096 74.7616 281.06 74.7616Z" fill="white"/>
<path d="M266.63 82.4004C272.843 82.4004 277.88 77.3636 277.88 71.1504C277.88 64.9372 272.843 59.9004 266.63 59.9004C260.417 59.9004 255.38 64.9372 255.38 71.1504C255.38 77.3636 260.417 82.4004 266.63 82.4004Z" fill="white"/>
<path d="M113.831 110.142L98.1705 90.472C99.8805 85.952 100.751 81.072 100.571 76.002C99.7905 54.322 80.3905 37.422 57.2405 38.252C34.0905 39.082 15.9405 57.332 16.7205 79.012C17.5005 100.692 36.9005 117.592 60.0505 116.762C69.6005 116.422 78.3005 113.102 85.1705 107.812L113.841 110.142H113.831Z" fill="white"/>
<path d="M58.4103 117.631C35.3303 117.631 16.6403 100.681 15.8603 79.0313C15.0703 56.9213 33.6103 38.2413 57.2003 37.3913C57.7603 37.3713 58.3103 37.3613 58.8603 37.3613C81.9403 37.3613 100.63 54.3113 101.41 75.9613C101.59 80.8513 100.82 85.6813 99.1303 90.3113L114.49 109.611C114.7 109.881 114.73 110.241 114.58 110.541C114.42 110.841 114.1 111.001 113.76 110.991L85.4203 108.681C78.1603 114.181 69.4003 117.271 60.0803 117.601C59.5203 117.621 58.9703 117.631 58.4103 117.631ZM58.8603 39.0713C58.3303 39.0713 57.7903 39.0713 57.2603 39.1013C34.6103 39.9113 16.8003 57.8013 17.5603 78.9813C18.3203 100.201 37.1203 116.721 60.0203 115.911C69.1103 115.581 77.6203 112.551 84.6503 107.141C84.8203 107.011 85.0303 106.951 85.2403 106.971L111.95 109.151L97.5103 91.0113C97.3203 90.7813 97.2703 90.4613 97.3803 90.1813C99.1103 85.6213 99.8903 80.8713 99.7203 76.0413C98.9803 55.3113 81.0303 39.0813 58.8703 39.0813L58.8603 39.0713Z" fill="#2B2B2B"/>
<path d="M80.25 93.425C89.8668 81.3998 87.9144 63.8554 75.8892 54.2386C63.864 44.6218 46.3196 46.5742 36.7028 58.5994C27.086 70.6247 29.0384 88.169 41.0636 97.7858C53.0889 107.403 70.6332 105.45 80.25 93.425Z" fill="#A1C3FF"/>
<path d="M68.9901 68.6713C68.5001 64.3113 67.0401 60.9013 65.7101 61.0413C64.3901 61.1913 63.7101 64.8413 64.1901 69.2013C64.6801 73.5613 66.1401 76.9713 67.4701 76.8313C68.7901 76.6813 69.4701 73.0313 68.9901 68.6713Z" fill="#2B2B2B"/>
<path d="M50.6103 70.7221C50.1203 66.3621 48.6603 62.9521 47.3303 63.0921C46.0003 63.2321 45.3303 66.8921 45.8103 71.2521C46.3003 75.6121 47.7603 79.022 49.0903 78.882C50.4203 78.742 51.0903 75.0821 50.6103 70.7221Z" fill="#2B2B2B"/>
<path d="M41.1907 83.0605C41.1907 83.0605 58.7607 89.4705 77.1607 79.0605C77.1607 79.0605 74.3107 94.6206 60.1807 96.1906C46.0607 97.7606 41.1807 83.0605 41.1807 83.0605H41.1907Z" fill="white"/>
<path d="M58.1002 97.1605C45.1102 97.1605 40.4202 83.4705 40.3802 83.3305C40.2802 83.0205 40.3602 82.6804 40.5902 82.4504C40.8202 82.2204 41.1702 82.1505 41.4702 82.2605C41.5202 82.2805 46.7902 84.1605 54.4202 84.1605C62.0502 84.1605 69.8902 82.1905 76.7402 78.3205C77.0302 78.1605 77.3802 78.1805 77.6502 78.3705C77.9202 78.5605 78.0502 78.8905 77.9902 79.2104C77.9602 79.3704 74.8502 95.4104 60.2702 97.0304C59.5402 97.1104 58.8102 97.1505 58.1002 97.1505V97.1605ZM42.6602 84.4005C44.2702 87.8105 48.9102 95.4604 58.1002 95.4604C58.7502 95.4604 59.4202 95.4204 60.0902 95.3504C70.7302 94.1704 74.6602 84.7605 75.8702 80.7205C69.2302 84.1305 62.0202 85.8605 54.4302 85.8605C49.0802 85.8605 44.9002 84.9905 42.6702 84.3905L42.6602 84.4005Z" fill="#2B2B2B"/>
<path d="M134.3 122.731C135.02 115.931 137.77 110.581 143.85 110.441C149.93 110.301 188.11 110.011 190.57 110.871C193.03 111.741 199.1 123.161 199.1 123.161L178.56 128.951H131.99L134.3 122.731Z" fill="#2B2B2B"/>
<path d="M185.209 120.271C185.209 120.271 198.659 122.441 202.569 125.041C206.469 127.641 212.119 364.551 212.119 364.551C212.119 364.551 153.109 384.511 123.609 361.081L129.969 126.201L147.329 120.411L185.219 120.271H185.209Z" fill="#333333"/>
<path d="M138.57 129.602C137.92 122.662 139 113.982 143.78 112.682L143.13 107.262C133.15 107.912 129.97 120.712 129.97 120.712C129.97 120.712 95.2595 128.812 67.4895 147.322C39.7195 165.832 23.5195 252.612 23.5195 252.612L71.1595 253.272L78.2395 366.512C97.4095 372.942 116.68 377.942 136.71 378.252C138.97 294.072 139.06 134.802 138.57 129.602Z" fill="#A1C3FF"/>
<path d="M137.53 379.111H136.69C114.79 378.761 93.8 372.621 77.96 367.311L77.42 367.131L70.36 254.111L22.5 253.451L22.68 252.461C23.34 248.901 39.26 165.121 67.01 146.621C92.8 129.431 124.93 121.091 129.28 120.011C130.01 117.531 133.63 107.041 143.07 106.421L143.87 106.371L144.7 113.321L143.99 113.511C139.91 114.621 138.75 122.601 139.41 129.531C139.84 134.151 139.84 292.891 137.55 378.281L137.53 379.121V379.111ZM79.04 365.881C94.49 371.041 114.76 376.911 135.88 377.381C138.15 291.831 138.15 134.271 137.72 129.681C137.07 122.711 138.06 114.141 142.85 112.101L142.38 108.181C133.75 109.401 130.82 120.791 130.79 120.911L130.66 121.411L130.15 121.531C129.8 121.611 95.26 129.811 67.95 148.021C42.38 165.071 26.45 242.111 24.54 251.771L71.95 252.431L79.04 365.881Z" fill="#333333"/>
<path d="M321.391 242.341C313.251 219.551 289.481 157.831 265.341 140.961C252.761 132.161 202.571 118.981 202.571 118.981C202.571 118.981 199.361 108.661 185.851 107.311L186.301 112.471C186.301 112.471 193.021 113.341 193.891 119.191C194.521 123.441 199.711 283.841 202.521 371.711C222.681 370.411 242.861 368.371 261.501 361.241L261.371 294.691C261.331 272.111 313.231 252.561 313.231 252.561C313.361 252.541 313.481 252.531 313.601 252.521C317.241 252.081 320.861 251.541 324.351 250.891C324.351 250.891 323.301 247.691 321.401 242.361L321.391 242.341Z" fill="#A1C3FF"/>
<path d="M201.7 372.6L201.67 371.72C196.65 214.35 193.5 122.35 193.05 119.3C192.29 114.16 186.44 113.33 186.19 113.29L185.51 113.2L184.91 106.34L185.93 106.44C198.19 107.66 202.36 116.17 203.21 118.25C208.43 119.63 253.74 131.79 265.82 140.25C289.88 157.06 313.25 217.04 322.19 242.04C324.07 247.32 325.14 250.56 325.15 250.59L325.45 251.51L324.5 251.69C321.2 252.31 317.57 252.86 313.7 253.33L313.43 253.36C310.92 254.32 262.18 273.38 262.22 294.66L262.35 361.8L261.8 362.01C242.34 369.46 221.02 371.35 202.57 372.54L201.7 372.6ZM187.09 111.75C188.94 112.18 193.95 113.81 194.73 119.06C195.36 123.3 200.38 278.17 203.34 370.8C221.29 369.63 241.86 367.72 260.65 360.64L260.52 294.68C260.48 271.78 310.79 252.56 312.93 251.75L313.11 251.7L313.49 251.66C316.96 251.24 320.23 250.75 323.23 250.21C322.79 248.9 321.88 246.24 320.59 242.62C311.71 217.77 288.51 158.18 264.85 141.65C252.54 133.04 202.85 119.92 202.35 119.79L201.89 119.67L201.75 119.22C201.63 118.83 198.68 109.92 186.78 108.26L187.08 111.74L187.09 111.75Z" fill="#333333"/>
<path d="M199.1 255.771C199.02 255.771 198.93 255.761 198.85 255.731C198.4 255.591 198.15 255.111 198.29 254.671L213.23 206.671L201.79 181.511C201.67 181.251 201.69 180.941 201.85 180.701L217.52 156.491C216.07 153.051 205.98 129.081 200.93 118.171C200.73 117.741 200.92 117.241 201.34 117.041C201.77 116.841 202.27 117.031 202.47 117.451C207.91 129.191 219.15 155.971 219.26 156.241C219.37 156.501 219.34 156.791 219.19 157.031L203.53 181.231L214.91 206.261C215 206.451 215.01 206.661 214.95 206.861L199.91 255.171C199.8 255.531 199.46 255.771 199.1 255.771Z" fill="#2B2B2B"/>
<path d="M138.06 256.35C137.69 256.35 137.35 256.11 137.24 255.73L123.93 208.87C123.89 208.71 123.89 208.55 123.93 208.39L131.6 182.84L116.04 167C115.82 166.78 115.74 166.46 115.83 166.16C115.92 165.86 124.84 136.48 129.13 120.48C129.25 120.03 129.71 119.76 130.17 119.88C130.62 120 130.89 120.47 130.77 120.92C126.78 135.82 118.78 162.27 117.6 166.17L133.16 182.01C133.38 182.23 133.46 182.55 133.37 182.85L125.63 208.65L138.87 255.27C139 255.72 138.74 256.19 138.29 256.32C138.21 256.34 138.13 256.35 138.06 256.35Z" fill="#2B2B2B"/>
<path d="M77.83 326.42C76.82 326.42 75.86 326.35 74.99 326.27C73.32 326.14 70.86 325.8 68.91 324.37C67.15 323.22 65.65 320.78 66.24 318.39C66.88 315.81 69.52 314.14 73.49 313.83C75.9 313.64 77.83 314.04 79.21 315.04C80.2 315.75 80.9 316.93 81.07 318.19C81.21 319.25 80.96 320.26 80.35 321.01C80.14 321.27 79.8 321.38 79.49 321.3C79.16 321.22 78.78 321.12 78.57 321.14C78.1 321.18 77.69 320.83 77.66 320.36C77.63 319.89 77.97 319.48 78.44 319.45C78.72 319.43 79.01 319.46 79.29 319.51C79.45 319.12 79.44 318.72 79.4 318.41C79.29 317.62 78.85 316.85 78.23 316.41C76.93 315.47 75.01 315.41 73.64 315.52C72.13 315.64 68.54 316.2 67.9 318.8C67.5 320.4 68.63 322.15 69.89 322.98C71.16 323.91 72.77 324.4 75.15 324.58C77.6 324.81 80.73 324.92 83.43 323.65C85.56 322.51 87.48 319.77 86.8 317.36C86.3 315.46 84.48 313.91 81.38 312.74C78.33 311.58 74.85 311.06 71.05 311.18C70.58 311.23 70.19 310.83 70.17 310.36C70.16 309.89 70.52 309.5 70.99 309.48C75.02 309.34 78.71 309.91 81.97 311.15C85.61 312.53 87.78 314.47 88.43 316.92C89.34 320.17 86.98 323.67 84.18 325.17C82.1 326.15 79.87 326.42 77.83 326.42Z" fill="#363636"/>
<path d="M128.16 284.441C130.667 284.441 132.7 282.409 132.7 279.901C132.7 277.394 130.667 275.361 128.16 275.361C125.653 275.361 123.62 277.394 123.62 279.901C123.62 282.409 125.653 284.441 128.16 284.441Z" fill="#2B2B2B"/>
<path d="M132.91 315.081C132.91 312.571 130.88 310.541 128.37 310.541C125.86 310.541 123.83 312.571 123.83 315.081C123.83 317.591 125.86 319.621 128.37 319.621C130.88 319.621 132.91 317.591 132.91 315.081Z" fill="#2B2B2B"/>
<path d="M126.64 353.9C129.147 353.9 131.18 351.868 131.18 349.36C131.18 346.853 129.147 344.82 126.64 344.82C124.132 344.82 122.1 346.853 122.1 349.36C122.1 351.868 124.132 353.9 126.64 353.9Z" fill="#2B2B2B"/>
<path d="M182.87 66.1002C182.87 66.1002 186.76 56.9202 192.89 56.9102C199.01 56.9002 204.2 68.6502 199.28 73.1502C194.36 77.6602 185.67 75.5702 185.67 75.5702L182.87 66.1002Z" fill="white"/>
<path d="M190.32 76.9005C187.61 76.9005 185.56 76.4105 185.47 76.3905C185.18 76.3205 184.94 76.1005 184.85 75.8105L182.05 66.3405C181.99 66.1505 182.01 65.9505 182.08 65.7705C182.25 65.3705 186.27 56.0805 192.88 56.0605C196.63 56.0605 199.72 59.7005 201.13 63.3105C202.42 66.6205 202.76 71.1105 199.85 73.7805C197.03 76.3605 193.11 76.9005 190.32 76.9005ZM186.34 74.8405C187.06 74.9805 188.55 75.2005 190.32 75.2005C192.81 75.2005 196.29 74.7405 198.7 72.5205C200.98 70.4405 200.63 66.7105 199.54 63.9205C198.13 60.2905 195.39 57.7505 192.89 57.7505C187.95 57.7605 184.45 64.6905 183.77 66.1505L186.34 74.8305V74.8405Z" fill="#2B2B2B"/>
<path d="M178.171 25.5801C183.281 29.5901 186.041 41.1501 187.021 51.8701C188.001 62.5801 177.751 33.6401 177.751 33.6401L168.391 27.4601L178.181 25.5901L178.171 25.5801Z" fill="#2B2B2B"/>
<path d="M188.789 54.8302C183.719 44.1602 183.359 35.3602 179.779 30.5802C179.779 30.5802 165.649 8.89022 136.279 24.6702C135.919 24.8602 135.579 25.0602 135.229 25.2602C120.429 33.8902 114.539 50.2202 123.739 65.3102L131.649 78.2902C128.939 77.7402 125.999 77.7702 123.699 79.4102C117.919 83.5302 120.959 98.1102 128.629 99.0402C133.859 99.6702 138.679 96.2402 141.209 93.9802L142.429 95.9702L145.239 124.03C179.859 144.42 187.029 121.61 187.029 121.61L184.829 99.8102C204.299 88.7802 193.709 65.2102 188.789 54.8502V54.8302Z" fill="white"/>
<path d="M170.07 133.34C162.99 133.34 154.5 130.45 144.82 124.75C144.59 124.61 144.43 124.37 144.41 124.1L141.62 96.2403L141.02 95.2603C138.6 97.2603 134.48 99.9503 129.92 99.9503C129.46 99.9503 128.99 99.9203 128.54 99.8703C124.06 99.3303 121.39 94.9103 120.39 90.9503C119.29 86.6403 119.74 81.1903 123.22 78.7103C125 77.4403 127.27 76.9303 129.99 77.1803L123.02 65.7503C118.75 58.7503 117.47 51.2203 119.3 43.9503C121.28 36.1003 126.79 29.2003 134.8 24.5303C135.15 24.3303 135.51 24.1303 135.87 23.9303C143.1 20.0403 150.06 18.0703 156.55 18.0703C172.45 18.0703 180.17 29.6303 180.49 30.1203C182.39 32.6503 183.42 36.3103 184.63 40.5503C185.8 44.6603 187.12 49.3203 189.56 54.4703C193.99 63.8003 205.69 88.4603 185.73 100.26L187.88 121.52C187.89 121.63 187.88 121.75 187.85 121.86C187.81 121.97 184.08 133.35 170.08 133.35L170.07 133.34ZM146.05 123.5C155.31 128.9 163.39 131.64 170.07 131.64C182.08 131.64 185.69 122.84 186.17 121.5L183.99 99.8803C183.96 99.5503 184.12 99.2203 184.42 99.0603C203.67 88.1503 192.31 64.2103 188.03 55.2003C185.52 49.9203 184.18 45.1903 183 41.0103C181.8 36.7703 180.84 33.4103 179.11 31.0903C179 30.9303 171.52 19.7703 156.56 19.7703C150.35 19.7703 143.67 21.6703 136.69 25.4303C136.34 25.6203 136 25.8103 135.67 26.0003C128.05 30.4403 122.83 36.9703 120.96 44.3703C119.24 51.1803 120.46 58.2703 124.48 64.8703L132.39 77.8503C132.57 78.1403 132.55 78.5003 132.36 78.7803C132.17 79.0603 131.83 79.1903 131.5 79.1203C128.47 78.5003 125.99 78.8303 124.21 80.1003C121.8 81.8103 120.91 86.1103 122.04 90.5403C122.91 93.9503 125.13 97.7603 128.75 98.2003C129.14 98.2503 129.53 98.2703 129.93 98.2703C134.46 98.2703 138.6 95.1903 140.67 93.3503C140.86 93.1803 141.11 93.1103 141.36 93.1503C141.61 93.1903 141.83 93.3303 141.96 93.5503L143.18 95.5403C143.25 95.6503 143.29 95.7703 143.3 95.9003L146.06 123.53L146.05 123.5Z" fill="#2B2B2B"/>
<path d="M185.021 98.9199C179.721 101.61 167.651 102.25 162.061 101.15C162.061 101.15 178.801 107.58 186.281 106.27L185.011 98.9199H185.021Z" fill="#2B2B2B"/>
<path d="M126.431 77.7897L113.561 55.4397L138.631 44.4297C138.631 44.4297 131.581 54.1097 135.201 65.3897C136.601 69.7597 137.961 73.0397 139.111 75.4197C140.141 77.5697 138.281 79.9697 135.941 79.5397L126.431 77.7897Z" fill="#2B2B2B"/>
<path d="M125.7 89.36C125.64 89.36 125.57 89.36 125.51 89.34C125.05 89.24 124.77 88.78 124.87 88.32C124.92 88.11 126.13 83.06 130.98 82.1C135.93 81.12 138.91 87.26 139.04 87.52C139.24 87.94 139.06 88.45 138.64 88.65C138.22 88.85 137.71 88.67 137.51 88.25C137.48 88.2 134.98 83.04 131.31 83.77C127.53 84.51 126.53 88.66 126.53 88.7C126.44 89.09 126.09 89.36 125.7 89.36Z" fill="#2B2B2B"/>
<path d="M132.611 88.3614C132.521 88.3614 132.43 88.3514 132.34 88.3214C131.89 88.1714 131.651 87.6914 131.801 87.2514L133.191 83.0514C133.341 82.6014 133.81 82.3614 134.26 82.5114C134.71 82.6614 134.951 83.1414 134.801 83.5814L133.411 87.7814C133.291 88.1414 132.961 88.3614 132.601 88.3614H132.611Z" fill="#2B2B2B"/>
<path d="M170.341 61.1602C170.341 61.1602 174.731 66.5502 175.161 67.5702C175.591 68.5902 173.731 71.7202 173.731 71.7202" fill="white"/>
<path d="M173.72 72.5704C173.57 72.5704 173.42 72.5304 173.29 72.4504C172.89 72.2104 172.76 71.6904 173 71.2904C173.82 69.9204 174.47 68.3004 174.37 67.8904C174.14 67.3404 171.8 64.3104 169.68 61.7004C169.38 61.3404 169.44 60.8004 169.8 60.5104C170.16 60.2104 170.7 60.2704 170.99 60.6304C171.74 61.5504 175.48 66.1704 175.93 67.2504C176.47 68.5304 175.07 71.1104 174.45 72.1604C174.29 72.4304 174.01 72.5704 173.72 72.5704Z" fill="#2B2B2B"/>
<path d="M182.84 87.6895C182.84 87.6895 185.65 91.0195 183.22 94.2895Z" fill="white"/>
<path d="M183.22 95.1404C183.04 95.1404 182.87 95.0904 182.71 94.9704C182.33 94.6904 182.26 94.1604 182.54 93.7804C184.55 91.0804 182.22 88.2604 182.2 88.2304C181.9 87.8704 181.94 87.3404 182.3 87.0304C182.66 86.7304 183.19 86.7704 183.5 87.1304C184.62 88.4604 186.15 91.7704 183.91 94.7904C183.74 95.0104 183.49 95.1304 183.23 95.1304L183.22 95.1404Z" fill="#2B2B2B"/>
<path d="M155.97 48.7503C156.31 49.3103 156.02 50.0403 155.71 50.6203C154.11 53.5803 151.94 56.2303 149.34 58.3703C148.88 58.7503 148.39 59.1203 147.81 59.2703C146.82 59.5303 145.68 59.0003 145.23 58.0703C144.87 57.3103 144.96 56.4003 145.29 55.6303C145.62 54.8603 146.16 54.2003 146.7 53.5503C148.71 51.1503 151.05 48.6503 154.15 48.2103C154.81 48.1203 155.61 48.1903 155.96 48.7603L155.97 48.7503Z" fill="#2B2B2B"/>
<path d="M168.731 45.4103C168.851 45.9803 169.471 46.2703 170.021 46.4603C172.831 47.4103 175.831 47.8003 178.791 47.6203C179.311 47.5903 179.861 47.5303 180.321 47.2803C181.121 46.8503 181.531 45.8203 181.261 44.9603C181.041 44.2503 180.431 43.7203 179.751 43.4203C179.071 43.1203 178.321 43.0203 177.591 42.9303C174.851 42.5903 171.831 42.3903 169.571 43.9703C169.091 44.3103 168.611 44.8303 168.731 45.4103Z" fill="#2B2B2B"/>
<path d="M191.63 15.2207C192.8 22.7707 188.85 31.4007 184.66 34.0807C184 34.5007 183.33 34.7907 182.68 34.8807C177.89 35.6307 166.52 26.9507 150.78 33.5207C135.89 39.7607 141.52 51.6407 121.92 57.2207C120.81 57.5407 119.62 57.8307 118.34 58.1007C112.08 59.4307 105.7 40.8607 112.12 35.8907C118.53 30.9107 123.97 33.1507 128.88 25.3407C133.78 17.5307 128.68 9.78066 136 5.79066C143.33 1.81066 158.56 -4.31934 160.2 4.52066C161.83 13.3807 169.24 16.3507 174.22 11.3207C179.21 6.28066 190.27 6.47066 191.62 15.2107L191.63 15.2207Z" fill="#2B2B2B"/>
<path d="M155.8 14.3198C160.29 13.5098 163.27 18.5998 167.5 18.5998C169.9 18.5998 171.93 16.9598 174.1 15.9598C176.38 14.9098 179.73 14.8998 180.62 17.3798C181.04 18.5498 180.67 19.8598 179.84 20.7898C178.41 22.3798 176.25 22.6998 174.22 22.6398C172.53 22.5898 170.85 22.3098 169.17 22.4398C166.13 22.6698 163.29 24.1898 160.45 25.4698C155.7 27.5998 150.3 23.3698 151.59 18.3298C151.73 17.7998 151.94 17.2798 152.24 16.7798C153.01 15.4998 154.32 14.5898 155.79 14.3298L155.8 14.3198Z" fill="white"/>
<path d="M157.84 26.4505C155.71 26.4505 153.65 25.4405 152.34 23.7405C151.1 22.1405 150.69 20.1805 151.19 18.2205C151.34 17.6305 151.58 17.0605 151.89 16.5505C152.72 15.1705 154.16 14.1905 155.73 13.9005C156.08 13.8405 156.43 13.8105 156.78 13.8105C158.89 13.8105 160.68 14.9605 162.41 16.0705C164.09 17.1505 165.68 18.1705 167.51 18.1705C169.12 18.1705 170.57 17.3705 172.09 16.5305C172.69 16.2005 173.31 15.8605 173.93 15.5705C174.92 15.1105 176.05 14.8605 177.1 14.8605C179.06 14.8605 180.49 15.7205 181.03 17.2305C181.49 18.5005 181.16 19.9705 180.17 21.0605C178.96 22.4105 177.16 23.0605 174.66 23.0605C174.51 23.0605 174.37 23.0605 174.22 23.0605C173.6 23.0405 172.98 22.9905 172.36 22.9505C171.32 22.8705 170.25 22.7905 169.2 22.8705C166.7 23.0605 164.26 24.1905 161.91 25.2705C161.48 25.4705 161.05 25.6705 160.63 25.8605C159.74 26.2605 158.8 26.4605 157.84 26.4605V26.4505ZM156.77 14.6505C156.47 14.6505 156.17 14.6805 155.88 14.7305C154.54 14.9705 153.32 15.8105 152.62 16.9805C152.35 17.4305 152.15 17.9005 152.02 18.4205C151.58 20.1205 151.94 21.8205 153.02 23.2105C154.69 25.3705 157.77 26.1905 160.29 25.0605C160.71 24.8705 161.14 24.6705 161.57 24.4805C163.99 23.3605 166.5 22.2005 169.16 22.0005C170.26 21.9205 171.37 22.0005 172.45 22.0905C173.05 22.1405 173.66 22.1805 174.26 22.2005C174.4 22.2005 174.54 22.2005 174.68 22.2005C176.92 22.2005 178.52 21.6405 179.55 20.4805C180.32 19.6305 180.59 18.4605 180.24 17.5005C179.68 15.9305 178.04 15.6905 177.11 15.6905C176.18 15.6905 175.18 15.9105 174.3 16.3205C173.7 16.6005 173.1 16.9305 172.51 17.2505C170.95 18.1105 169.35 19.0005 167.52 19.0005C165.44 19.0005 163.67 17.8605 161.96 16.7605C160.26 15.6705 158.66 14.6405 156.79 14.6405L156.77 14.6505Z" fill="#2B2B2B"/>
<path d="M111.21 44.37C111.03 44.37 110.84 44.31 110.68 44.19C107.8 41.91 106.84 37.57 108.49 34.29C110.27 30.77 114.05 29.24 118.11 27.86C121.48 26.71 125.19 25.23 126.6 22.14C127.42 20.34 127.29 18.08 126.25 16.39C125.22 14.7 123.27 13.55 121.29 13.46C120.82 13.44 120.46 13.04 120.48 12.57C120.5 12.1 120.89 11.75 121.37 11.76C123.94 11.88 126.36 13.31 127.71 15.5C129.05 17.69 129.22 20.51 128.15 22.84C126.46 26.54 122.36 28.2 118.66 29.46C114.95 30.72 111.5 32.1 110.01 35.05C108.73 37.59 109.5 41.09 111.73 42.85C112.1 43.14 112.16 43.67 111.87 44.04C111.7 44.25 111.45 44.36 111.2 44.36L111.21 44.37Z" fill="#2B2B2B"/>
<path d="M181.761 56.8798C181.171 55.0998 179.901 53.9198 178.931 54.2398C177.961 54.5598 177.651 56.2698 178.241 58.0498C178.831 59.8298 180.101 61.0098 181.071 60.6898C182.041 60.3698 182.351 58.6598 181.761 56.8798Z" fill="#2B2B2B"/>
<path d="M158.85 66.2197C158.26 64.4397 156.99 63.2597 156.02 63.5797C155.05 63.8997 154.74 65.6097 155.33 67.3897C155.92 69.1697 157.19 70.3497 158.16 70.0297C159.13 69.7097 159.44 67.9997 158.85 66.2197Z" fill="#2B2B2B"/>
<path d="M162.76 79.6405C162.76 79.6405 172.73 86.0105 181.86 77.3105Z" fill="white"/>
<path d="M171.09 82.7115C166.09 82.7115 162.37 80.4015 162.31 80.3615C161.92 80.1115 161.8 79.5915 162.05 79.1915C162.3 78.7915 162.82 78.6815 163.22 78.9315C163.61 79.1715 172.76 84.8215 181.28 76.7015C181.62 76.3815 182.16 76.3915 182.48 76.7315C182.8 77.0715 182.79 77.6115 182.45 77.9315C178.58 81.6215 174.53 82.7215 171.09 82.7215V82.7115Z" fill="#2B2B2B"/>
<path d="M161.59 82.2904C161.46 82.2904 161.32 82.2604 161.19 82.1904C160.78 81.9704 160.62 81.4604 160.84 81.0404L162.86 77.2204C163.08 76.8004 163.59 76.6504 164.01 76.8704C164.42 77.0904 164.58 77.6004 164.36 78.0204L162.34 81.8404C162.19 82.1304 161.89 82.2904 161.59 82.2904Z" fill="#2B2B2B"/>
<path d="M138.009 280.189C140.379 276.169 142.739 272.119 145.099 268.089C131.829 254.429 116.619 242.709 100.449 231.949L93.1191 239.569C109.259 252.129 123.979 265.669 138.009 280.189Z" fill="#2B2B2B"/>
<path d="M138.009 281.04C137.779 281.04 137.559 280.95 137.399 280.78C122.519 265.37 107.859 252.11 92.5994 240.24C92.4094 240.09 92.2894 239.87 92.2694 239.63C92.2494 239.39 92.3394 239.15 92.4994 238.98L99.8294 231.36C100.109 231.06 100.569 231.01 100.909 231.24C119.109 243.35 133.759 255.21 145.699 267.5C145.969 267.77 146.019 268.19 145.819 268.52L143.189 273.01C141.699 275.55 140.219 278.09 138.729 280.62C138.599 280.85 138.359 281 138.099 281.03C138.069 281.03 138.029 281.03 137.999 281.03L138.009 281.04ZM94.3794 239.48C109.179 251.05 123.409 263.93 137.839 278.8C139.139 276.59 140.439 274.37 141.739 272.15L144.039 268.22C132.399 256.31 118.159 244.8 100.569 233.05L94.3794 239.48Z" fill="#2B2B2B"/>
<path d="M93.1201 239.57L78.9201 254.34L78.1001 254.32L45.2501 253.56L28.7401 253.18C28.7401 253.18 3.90008 344.11 43.7801 352.39C87.5801 361.49 113.25 322.26 138.02 280.19C123.99 265.66 109.27 252.12 93.1301 239.57H93.1201Z" fill="white"/>
<path d="M56.2198 354.57C52.1298 354.57 47.8798 354.12 43.5898 353.23C36.7198 351.8 31.2698 347.88 27.4098 341.58C11.1998 315.12 27.2198 255.49 27.9098 252.97C28.0098 252.59 28.3298 252.34 28.7498 252.35L78.5598 253.5L92.5098 239C92.8098 238.69 93.2998 238.65 93.6398 238.92C108.97 250.84 123.68 264.16 138.62 279.62C138.88 279.89 138.93 280.31 138.74 280.64C114.93 321.1 92.2798 354.59 56.2198 354.59V354.57ZM29.3698 254.05C27.6598 260.66 13.8998 316.29 28.8498 340.69C32.4598 346.58 37.5298 350.24 43.9298 351.57C48.1098 352.44 52.2398 352.88 56.2098 352.88C91.2098 352.88 113.51 320.08 136.94 280.33C122.41 265.32 108.08 252.36 93.1898 240.72L79.5198 254.94C79.3598 255.11 79.1198 255.2 78.8898 255.2L78.0698 255.18L29.3698 254.06V254.05Z" fill="#2B2B2B"/>
<path d="M198.93 224.04C202.17 221.26 203.01 216.47 200.71 212.72C199.81 211.23 198.52 210.11 197.07 209.4L197.37 209.24C198.03 208.9 198.62 208.5 199.16 208.04C202.18 205.45 203.17 201.06 201.3 197.34C199.1 192.98 193.78 191.21 189.41 193.42L162.38 207.02L184.47 193.53C184.89 193.27 185.27 192.99 185.62 192.68C188.86 189.9 189.7 185.11 187.41 181.36C184.86 177.19 179.41 175.87 175.23 178.42L144.21 197.35C142.6 198.17 139.28 199.85 133.63 202.81C130.84 204.28 143.14 185.72 140.1 175.61C136.85 164.77 127.47 167.46 126.24 176.45C124.78 187.22 114.7 206.41 112.92 209.78C110.55 214.28 106.26 220.67 104.5 227.73L100.44 231.95C116.61 242.71 131.82 254.43 145.09 268.09C147.4 264.16 149.71 260.23 152.05 256.36C153.6 255.19 155.18 254.08 156.76 253.05C156.82 253.05 156.88 253.03 156.93 253.02L195.85 243.7C196.91 243.45 197.85 242.95 198.62 242.29C200.45 240.72 201.36 238.2 200.76 235.7C199.9 232.12 196.32 229.93 192.75 230.79L185.08 232.63L197.76 224.89C198.18 224.63 198.56 224.35 198.92 224.04H198.93Z" fill="white"/>
<path d="M145.1 268.94C144.87 268.94 144.65 268.85 144.49 268.68C132.63 256.48 118.07 244.69 99.9802 232.65C99.7702 232.51 99.6302 232.29 99.6102 232.04C99.5802 231.79 99.6702 231.54 99.8402 231.36L103.75 227.3C105.16 221.79 108.04 216.73 110.37 212.64C111.04 211.47 111.66 210.37 112.19 209.37C115.73 202.65 124.11 185.96 125.42 176.32C126.1 171.31 129.37 167.67 133.2 167.67C136.6 167.67 139.49 170.54 140.94 175.35C143.02 182.26 138.45 192.5 135.71 198.62C135.27 199.61 134.82 200.62 134.5 201.4C138.09 199.52 141.16 197.95 143.85 196.58L174.81 177.68C176.33 176.75 178.08 176.26 179.86 176.26C183.27 176.26 186.37 178 188.15 180.91C190.64 184.99 189.82 190.21 186.19 193.32C185.82 193.65 185.41 193.95 184.93 194.25L180.5 196.95L189.03 192.66C190.4 191.97 191.86 191.62 193.39 191.62C197.08 191.62 200.4 193.67 202.06 196.96C204.07 200.96 203.1 205.79 199.71 208.69C199.4 208.95 199.09 209.19 198.76 209.41C199.84 210.17 200.75 211.14 201.44 212.28C203.93 216.36 203.11 221.58 199.49 224.69C199.1 225.03 198.68 225.33 198.22 225.62L190.13 230.56L192.57 229.98C193.15 229.84 193.74 229.77 194.33 229.77C197.8 229.77 200.79 232.13 201.6 235.52C202.26 238.26 201.33 241.11 199.18 242.95C198.27 243.73 197.19 244.28 196.06 244.55L157.14 253.87C157.14 253.87 157.11 253.87 157.09 253.88C155.64 254.82 154.17 255.86 152.7 256.96C150.24 261.05 147.85 265.1 145.83 268.54C145.7 268.77 145.46 268.92 145.2 268.95C145.17 268.95 145.13 268.95 145.1 268.95V268.94ZM101.76 231.81C119.18 243.46 133.32 254.89 144.93 266.71C146.85 263.45 149.06 259.7 151.33 255.93C151.39 255.84 151.46 255.76 151.55 255.69C153.14 254.49 154.74 253.37 156.31 252.35C156.41 252.28 156.53 252.24 156.66 252.22C156.68 252.22 156.73 252.21 156.75 252.2L195.67 242.88C196.55 242.67 197.38 242.25 198.08 241.65C199.74 240.23 200.46 238.02 199.95 235.91C199.32 233.29 197.01 231.46 194.33 231.46C193.87 231.46 193.42 231.51 192.97 231.62L185.3 233.46C184.89 233.56 184.48 233.34 184.32 232.96C184.16 232.57 184.31 232.13 184.66 231.91L197.34 224.17C197.72 223.93 198.06 223.68 198.39 223.4C201.38 220.83 202.06 216.53 200 213.16C199.22 211.86 198.08 210.83 196.71 210.16C196.42 210.02 196.24 209.73 196.23 209.41C196.23 209.09 196.41 208.79 196.69 208.65L196.99 208.49C197.58 208.18 198.11 207.83 198.61 207.4C201.4 205.01 202.2 201.03 200.55 197.73C199.18 195.01 196.44 193.33 193.4 193.33C192.15 193.33 190.94 193.62 189.81 194.19L162.78 207.79C162.37 207.99 161.88 207.84 161.66 207.44C161.44 207.04 161.57 206.54 161.96 206.3L184.05 192.81C184.44 192.57 184.78 192.32 185.09 192.05C188.09 189.48 188.77 185.17 186.71 181.81C185.24 179.41 182.68 177.97 179.87 177.97C178.4 177.97 176.96 178.38 175.71 179.15L144.69 198.08C141.63 199.63 138.18 201.41 134.06 203.57C133.83 203.69 133.62 203.75 133.41 203.75C133.07 203.75 132.76 203.58 132.57 203.3C132.12 202.6 132.49 201.69 134.16 197.95C136.62 192.43 141.21 182.16 139.31 175.86C138.09 171.81 135.81 169.39 133.2 169.39C130.59 169.39 127.75 171.86 127.11 176.57C125.77 186.48 117.28 203.38 113.7 210.18C113.16 211.2 112.53 212.32 111.85 213.5C109.55 217.54 106.68 222.58 105.35 227.95C105.31 228.09 105.24 228.23 105.14 228.33L101.78 231.82L101.76 231.81Z" fill="#2B2B2B"/>
<path d="M146.52 208.67C146.56 208.74 146.58 208.82 146.57 208.9C146.55 209.1 146.36 209.24 146.17 209.22L140.85 208.55C140.65 208.53 140.51 208.34 140.53 208.14C140.55 207.94 140.74 207.8 140.93 207.82L146.25 208.49C146.37 208.5 146.46 208.57 146.52 208.67Z" fill="#2B2B2B"/>
<path d="M146.21 209.64H146.11L140.79 208.97C140.58 208.94 140.39 208.84 140.27 208.67C140.14 208.5 140.08 208.29 140.11 208.09C140.16 207.7 140.49 207.4 140.89 207.4H140.99L146.32 208.08C146.56 208.11 146.78 208.25 146.9 208.46C146.99 208.61 147.03 208.79 147 208.96C146.95 209.35 146.62 209.65 146.22 209.65L146.21 209.64Z" fill="#2B2B2B"/>
<path d="M142.23 211.189C142.27 211.259 142.33 211.309 142.41 211.339C142.6 211.419 142.81 211.329 142.88 211.139L144.88 206.159C144.96 205.969 144.86 205.759 144.68 205.689C144.49 205.609 144.28 205.699 144.21 205.889L142.21 210.869C142.17 210.979 142.18 211.099 142.23 211.189Z" fill="#2B2B2B"/>
<path d="M142.55 211.8C142.45 211.8 142.35 211.78 142.25 211.74C142.09 211.68 141.95 211.56 141.87 211.41C141.74 211.2 141.73 210.94 141.82 210.71L143.82 205.73C143.98 205.34 144.45 205.14 144.85 205.29C145.04 205.37 145.2 205.52 145.28 205.71C145.36 205.9 145.37 206.12 145.28 206.32L143.28 211.3C143.16 211.6 142.87 211.79 142.55 211.79V211.8Z" fill="#2B2B2B"/>
<path d="M152.17 223.258C152.21 223.328 152.23 223.408 152.22 223.488C152.2 223.688 152.01 223.828 151.82 223.808L146.5 223.138C146.3 223.118 146.16 222.928 146.18 222.728C146.2 222.528 146.39 222.388 146.58 222.408L151.9 223.078C152.02 223.088 152.11 223.158 152.17 223.258Z" fill="#2B2B2B"/>
<path d="M151.86 224.228H151.76L146.44 223.558C146.23 223.528 146.04 223.428 145.92 223.258C145.79 223.088 145.73 222.878 145.76 222.678C145.81 222.288 146.14 221.988 146.54 221.988H146.64L151.96 222.658C152.2 222.688 152.42 222.828 152.54 223.038C152.63 223.188 152.66 223.368 152.64 223.538C152.59 223.928 152.26 224.228 151.86 224.228Z" fill="#2B2B2B"/>
<path d="M147.88 225.789C147.92 225.859 147.98 225.909 148.06 225.939C148.25 226.019 148.46 225.929 148.53 225.739L150.53 220.759C150.61 220.569 150.51 220.359 150.33 220.289C150.14 220.209 149.93 220.299 149.86 220.489L147.86 225.469C147.82 225.579 147.83 225.699 147.88 225.789Z" fill="#2B2B2B"/>
<path d="M148.199 226.389C148.099 226.389 147.999 226.369 147.909 226.329C147.749 226.269 147.609 226.149 147.519 225.999C147.389 225.789 147.379 225.529 147.469 225.309L149.469 220.329C149.629 219.929 150.099 219.729 150.499 219.889C150.689 219.969 150.849 220.119 150.929 220.309C151.009 220.499 151.009 220.719 150.929 220.919L148.929 225.899C148.809 226.199 148.519 226.389 148.199 226.389Z" fill="#2B2B2B"/>
<path d="M159.12 235.5C159.16 235.57 159.18 235.65 159.17 235.73C159.15 235.93 158.96 236.07 158.77 236.05L153.45 235.38C153.25 235.36 153.11 235.17 153.13 234.97C153.15 234.77 153.34 234.63 153.53 234.65L158.85 235.32C158.97 235.33 159.06 235.4 159.12 235.5Z" fill="#2B2B2B"/>
<path d="M158.81 236.471H158.71L153.39 235.801C153.18 235.781 153 235.671 152.87 235.501C152.74 235.331 152.68 235.121 152.71 234.911C152.76 234.521 153.09 234.221 153.49 234.221H153.59L158.91 234.891C159.15 234.921 159.37 235.061 159.49 235.271C159.58 235.421 159.61 235.601 159.59 235.771C159.54 236.161 159.21 236.461 158.81 236.461V236.471Z" fill="#2B2B2B"/>
<path d="M154.83 238.019C154.87 238.089 154.93 238.139 155.01 238.169C155.2 238.249 155.41 238.159 155.48 237.969L157.48 232.989C157.56 232.799 157.46 232.589 157.28 232.519C157.09 232.439 156.88 232.529 156.81 232.719L154.81 237.699C154.77 237.809 154.78 237.929 154.83 238.019Z" fill="#2B2B2B"/>
<path d="M155.149 238.63C155.049 238.63 154.949 238.61 154.849 238.57C154.689 238.51 154.549 238.39 154.459 238.24C154.339 238.03 154.319 237.78 154.409 237.55L156.409 232.57C156.569 232.18 157.039 231.98 157.439 232.13C157.629 232.21 157.789 232.36 157.869 232.55C157.949 232.74 157.959 232.96 157.869 233.16L155.869 238.14C155.749 238.44 155.459 238.63 155.139 238.63H155.149Z" fill="#2B2B2B"/>
<path d="M130.75 180.79C129.47 180.48 128.04 180.07 127.95 180.05C127.72 179.98 127.58 179.74 127.65 179.51C127.72 179.28 127.93 179.12 128.19 179.21C128.22 179.22 131.3 180.1 132.4 180.24C132.84 179.57 133.33 175.27 132.49 173.17C132.28 172.64 132.02 172.35 131.73 172.38C131.48 172.38 131.29 172.19 131.29 171.95C131.29 171.71 131.48 171.51 131.72 171.51C132.12 171.51 132.69 171.67 133.12 172.48C134.2 174.47 133.91 179.54 133.12 180.75C132.88 181.12 132.59 181.15 132.44 181.14C132.08 181.11 131.44 180.97 130.76 180.81L130.75 180.79Z" fill="#2B2B2B"/>
<path d="M132.48 181.55H132.4C132.05 181.51 131.46 181.4 130.65 181.2C129.49 180.92 128.21 180.56 127.84 180.46C127.61 180.39 127.42 180.25 127.31 180.05C127.2 179.85 127.17 179.62 127.23 179.4C127.36 178.93 127.85 178.66 128.31 178.81C128.5 178.87 130.94 179.55 132.14 179.77C132.47 178.72 132.81 175.12 132.09 173.33C131.9 172.86 131.76 172.8 131.76 172.8C131.25 172.8 130.87 172.43 130.87 171.95C130.87 171.72 130.95 171.5 131.11 171.34C131.27 171.17 131.49 171.08 131.72 171.08C132.24 171.08 132.97 171.29 133.5 172.27C134.66 174.4 134.34 179.67 133.47 180.98C133.14 181.49 132.71 181.56 132.48 181.56V181.55ZM128.04 179.6C128.43 179.74 129.7 180.1 130.85 180.37C131.81 180.6 132.26 180.67 132.47 180.69V181.11L132.48 180.69C132.5 180.69 132.52 180.69 132.56 180.67L132.34 180.64C131.19 180.49 128.06 179.59 128.04 179.59V179.6ZM131.71 171.92C132.21 171.94 132.59 172.3 132.87 173.01C133.72 175.12 133.31 179.62 132.74 180.47L132.63 180.64C132.63 180.64 132.71 180.57 132.75 180.5C133.48 179.39 133.75 174.51 132.74 172.67C132.47 172.18 132.12 171.93 131.71 171.93V171.92Z" fill="#2B2B2B"/>
<path d="M197.61 209C197.61 209 197.65 209.05 197.67 209.08C197.75 209.25 197.69 209.44 197.53 209.52L170.99 222.92C170.83 223.01 170.63 222.92 170.55 222.78C170.47 222.61 170.53 222.42 170.69 222.34L197.23 208.94C197.36 208.87 197.52 208.9 197.62 209H197.61Z" fill="#2B2B2B"/>
<path d="M170.84 223.38C170.57 223.38 170.31 223.23 170.17 222.99C170.06 222.78 170.05 222.58 170.12 222.38C170.18 222.19 170.32 222.04 170.5 221.95L197.04 208.56C197.29 208.42 197.69 208.47 197.92 208.7C197.98 208.76 198.01 208.82 198.04 208.86C198.15 209.07 198.16 209.28 198.1 209.47C198.04 209.66 197.9 209.81 197.72 209.9L171.18 223.29C171.09 223.34 170.97 223.37 170.85 223.37L170.84 223.38Z" fill="#2B2B2B"/>
<path d="M185.361 231.829C185.361 231.829 185.401 231.889 185.431 231.919C185.501 232.089 185.431 232.279 185.271 232.359L173.991 237.489C173.811 237.559 173.641 237.489 173.551 237.329C173.481 237.159 173.551 236.969 173.711 236.889L184.991 231.759C185.131 231.699 185.271 231.729 185.361 231.829Z" fill="#2B2B2B"/>
<path d="M173.85 237.94C173.58 237.94 173.33 237.79 173.18 237.55C172.99 237.13 173.16 236.68 173.52 236.51L184.81 231.38C185.15 231.24 185.45 231.32 185.66 231.54C185.72 231.6 185.75 231.65 185.77 231.69C185.97 232.13 185.81 232.58 185.44 232.75L174.15 237.88C174.04 237.93 173.94 237.94 173.84 237.94H173.85Z" fill="#2B2B2B"/>
<path d="M186.13 188.819C186.04 188.889 185.93 188.929 185.81 188.889C185.62 188.839 185.51 188.639 185.56 188.449C186.59 184.659 182.65 182.419 181.75 181.959L174.63 186.489C174.42 189.209 178.36 193.449 178.4 193.499C178.54 193.649 178.53 193.869 178.39 193.999H178.38C178.24 194.139 178.02 194.119 177.89 193.989C177.71 193.799 173.51 189.279 173.95 186.239C173.97 186.139 174.02 186.039 174.11 185.989L181.54 181.259C181.64 181.199 181.77 181.189 181.88 181.239C181.93 181.259 187.54 183.889 186.25 188.639C186.23 188.709 186.19 188.769 186.14 188.819H186.13Z" fill="#2B2B2B"/>
<path d="M178.14 194.53C177.93 194.53 177.72 194.44 177.57 194.29C177.39 194.1 173.05 189.48 173.52 186.19C173.57 185.94 173.7 185.74 173.88 185.64L181.3 180.91C181.53 180.77 181.82 180.75 182.05 180.87C182.09 180.88 188.04 183.63 186.64 188.77C186.61 188.91 186.52 189.05 186.39 189.16C186.2 189.33 185.92 189.39 185.68 189.32C185.27 189.2 185.03 188.78 185.13 188.37C186 185.18 183 183.16 181.75 182.47L175.03 186.75C175.04 189.27 178.66 193.18 178.69 193.22C178.99 193.54 178.97 194.03 178.66 194.33C178.49 194.48 178.31 194.54 178.12 194.54L178.14 194.53Z" fill="#2B2B2B"/>
<path d="M198.41 205.258C198.32 205.328 198.21 205.369 198.09 205.329C197.9 205.279 197.79 205.079 197.84 204.889C198.87 201.099 194.93 198.858 194.03 198.398L186.91 202.928C186.7 205.648 190.64 209.889 190.68 209.939C190.82 210.089 190.81 210.309 190.67 210.439H190.66C190.52 210.579 190.3 210.558 190.17 210.428C189.99 210.238 185.79 205.718 186.23 202.678C186.25 202.578 186.3 202.478 186.39 202.428L193.82 197.699C193.92 197.639 194.05 197.628 194.16 197.678C194.21 197.698 199.82 200.329 198.53 205.079C198.51 205.149 198.47 205.208 198.42 205.258H198.41Z" fill="#2B2B2B"/>
<path d="M190.42 210.969C190.21 210.969 190 210.879 189.85 210.719C189.67 210.529 185.32 205.919 185.8 202.619C185.85 202.359 185.98 202.169 186.16 202.059L193.57 197.339C193.8 197.199 194.09 197.189 194.33 197.299C194.36 197.309 200.32 200.059 198.92 205.189C198.89 205.329 198.8 205.469 198.68 205.579C198.48 205.749 198.21 205.809 197.96 205.739C197.55 205.619 197.31 205.209 197.42 204.789C198.29 201.599 195.29 199.579 194.04 198.889L187.32 203.169C187.33 205.689 190.94 209.599 190.98 209.639C191.28 209.959 191.26 210.449 190.95 210.739C190.78 210.889 190.6 210.949 190.41 210.949L190.42 210.969Z" fill="#2B2B2B"/>
<path d="M199.84 222.32C199.75 222.38 199.62 222.4 199.51 222.35C199.33 222.27 199.25 222.06 199.33 221.88C200.89 218.28 197.31 215.49 196.49 214.91L188.8 218.38C188.2 221.05 191.49 225.81 191.49 225.81C191.64 226.02 191.6 226.24 191.44 226.35H191.43C191.27 226.46 191.06 226.42 190.95 226.26C190.8 226.05 187.29 220.97 188.16 218.02C188.19 217.93 188.26 217.83 188.35 217.79L196.38 214.17C196.49 214.12 196.62 214.13 196.72 214.2C196.77 214.23 201.94 217.63 199.98 222.15C199.95 222.22 199.9 222.27 199.84 222.31V222.32Z" fill="#2B2B2B"/>
<path d="M191.23 226.831C190.98 226.831 190.74 226.711 190.59 226.501C190.44 226.281 186.8 221.091 187.74 217.901C187.83 217.661 187.98 217.481 188.18 217.401L196.19 213.791C196.44 213.681 196.72 213.711 196.94 213.861C196.97 213.881 202.47 217.451 200.35 222.331C200.29 222.471 200.19 222.591 200.05 222.681C199.84 222.821 199.56 222.841 199.32 222.731C198.93 222.551 198.75 222.111 198.92 221.711C200.23 218.681 197.56 216.251 196.42 215.391L189.16 218.661C188.88 220.741 190.97 224.311 191.82 225.551C191.96 225.741 192.02 225.971 191.98 226.191C191.95 226.391 191.83 226.561 191.67 226.681C191.52 226.781 191.37 226.821 191.22 226.821L191.23 226.831Z" fill="#2B2B2B"/>
<path d="M197.6 242.929C197.51 242.969 197.4 242.959 197.31 242.899C197.17 242.799 197.13 242.609 197.23 242.469C199.16 239.629 196.54 236.639 195.93 235.999L188.74 237.719C187.78 239.919 189.84 244.549 189.86 244.599C189.93 244.759 189.86 244.939 189.71 245.009H189.7C189.55 245.079 189.37 245.009 189.3 244.859C189.21 244.649 187.02 239.709 188.25 237.309C188.29 237.239 188.37 237.169 188.45 237.149L195.95 235.349C196.05 235.329 196.16 235.349 196.24 235.429C196.28 235.459 200.17 239.239 197.74 242.809C197.7 242.859 197.65 242.899 197.6 242.919V242.929Z" fill="#2B2B2B"/>
<path d="M189.57 245.469C189.28 245.469 189.02 245.299 188.9 245.039C188.8 244.829 186.52 239.729 187.86 237.129C187.98 236.919 188.16 236.789 188.36 236.749L196.02 234.939C196.21 234.939 196.4 235.019 196.54 235.159C196.56 235.179 200.72 239.209 198.09 243.079C198.02 243.199 197.9 243.289 197.75 243.349C197.52 243.439 197.26 243.409 197.06 243.269C196.73 243.039 196.64 242.589 196.86 242.259C198.46 239.909 196.61 237.429 195.77 236.489L189.04 238.099C188.47 239.869 189.72 243.329 190.23 244.439C190.4 244.809 190.23 245.249 189.86 245.419C189.74 245.469 189.65 245.489 189.56 245.489L189.57 245.469Z" fill="#2B2B2B"/>
<path d="M46.66 291.061C46.46 291.061 46.26 290.991 46.09 290.841C45.74 290.531 45.71 289.991 46.03 289.641L78.28 253.771C78.59 253.421 79.13 253.391 79.48 253.711C79.83 254.021 79.86 254.561 79.54 254.911L47.29 290.781C47.12 290.971 46.89 291.061 46.66 291.061Z" fill="#2B2B2B"/>
<path d="M53.9497 346.66C51.0897 346.66 47.8497 345.84 45.1497 344.6C39.6497 342.07 36.2897 337.96 36.1897 333.62C36.1797 333.15 36.5497 332.76 37.0197 332.75C37.4797 332.75 37.8797 333.11 37.8897 333.58C37.9797 337.26 40.9597 340.81 45.8697 343.06C50.7197 345.29 56.0397 345.62 58.2397 343.82C59.1797 343.05 59.4697 341.94 59.1197 340.42C58.3097 336.93 50.0697 331.12 45.5597 331.68C44.5897 331.8 43.2997 332.25 43.3497 334.78C43.3697 335.95 44.0597 337.15 45.1997 338C46.1597 338.72 47.3997 339.2 49.1097 339.54C50.6697 339.84 52.7097 339.75 53.2997 338.48C53.4197 338.23 53.4197 337.89 53.3197 337.65C53.2697 337.53 53.1997 337.46 53.1197 337.43C52.6697 337.29 52.4297 336.81 52.5697 336.36C52.7097 335.91 53.1897 335.66 53.6397 335.81C54.1897 335.99 54.6297 336.4 54.8797 336.97C55.1797 337.66 55.1697 338.52 54.8397 339.2C53.8297 341.35 51.0497 341.64 48.7897 341.2C46.8197 340.82 45.3597 340.23 44.1897 339.36C42.6397 338.2 41.6897 336.5 41.6597 334.82C41.5897 331.04 43.9397 330.18 45.3497 330C50.3397 329.37 59.7097 335.47 60.7697 340.04C61.3997 342.76 60.3297 344.32 59.3097 345.14C57.9997 346.21 56.0897 346.66 53.9597 346.66H53.9497Z" fill="#2B2B2B"/>
<path d="M78.1003 254.32L66.0403 267.94L42.0303 254.05L45.2403 253.57L78.1003 254.32Z" fill="#2B2B2B"/>
<path d="M66.0402 268.791C65.8902 268.791 65.7502 268.751 65.6202 268.681L41.6102 254.801C41.3002 254.621 41.1302 254.261 41.2002 253.911C41.2702 253.561 41.5502 253.281 41.9102 253.231L45.1202 252.741C45.1202 252.741 45.2202 252.731 45.2702 252.741L78.1202 253.501C78.4502 253.501 78.7502 253.711 78.8802 254.011C79.0102 254.311 78.9602 254.661 78.7402 254.911L66.6902 268.521C66.5202 268.711 66.2902 268.811 66.0502 268.811L66.0402 268.791ZM44.5502 254.531L65.8602 266.861L76.2402 255.131L45.2902 254.421L44.5502 254.531Z" fill="#2B2B2B"/>
<path d="M124.66 265.079C119.9 266.459 114.92 263.729 113.53 258.969C112.15 254.209 114.88 249.229 119.64 247.839C124.4 246.459 129.38 249.189 130.77 253.949C132.15 258.709 129.42 263.689 124.66 265.079Z" fill="white"/>
<path d="M122.15 266.279C117.81 266.279 113.93 263.369 112.72 259.189C111.21 253.989 114.21 248.519 119.41 247.009C120.31 246.749 121.23 246.619 122.16 246.619C126.5 246.619 130.38 249.529 131.59 253.709C133.1 258.909 130.1 264.379 124.9 265.889C124 266.149 123.08 266.279 122.15 266.279ZM122.15 248.319C121.38 248.319 120.62 248.429 119.88 248.649C115.58 249.899 113.09 254.419 114.34 258.719C115.34 262.169 118.55 264.579 122.14 264.579C122.91 264.579 123.67 264.469 124.41 264.259C128.71 263.009 131.2 258.489 129.95 254.189C128.95 250.739 125.74 248.329 122.15 248.329V248.319Z" fill="#2B2B2B"/>
<path d="M118.97 256.578L124.52 256.248L122.92 260.748" fill="white"/>
<path d="M122.92 261.598C122.83 261.598 122.73 261.578 122.64 261.548C122.2 261.388 121.97 260.908 122.12 260.468L123.29 257.178L119.02 257.428C118.56 257.458 118.15 257.098 118.12 256.628C118.09 256.158 118.45 255.758 118.92 255.728L124.47 255.408C124.76 255.388 125.03 255.518 125.2 255.748C125.37 255.978 125.42 256.278 125.32 256.538L123.72 261.028C123.6 261.378 123.27 261.588 122.92 261.588V261.598Z" fill="#2B2B2B"/>
<path d="M261.75 256.391C261.3 256.391 260.92 256.031 260.9 255.581L259.49 220.781C259.47 220.311 259.84 219.921 260.3 219.901C260.76 219.851 261.16 220.241 261.18 220.711L262.59 255.511C262.61 255.981 262.24 256.371 261.78 256.391C261.77 256.391 261.76 256.391 261.75 256.391Z" fill="#2B2B2B"/>
<path d="M78.8399 254.902C78.3799 254.902 78.0099 254.542 77.9899 254.082L77.1199 228.912C77.0999 228.442 77.4699 228.052 77.9399 228.032C78.3999 227.982 78.7999 228.382 78.8199 228.852L79.6899 254.022C79.7099 254.492 79.3399 254.882 78.8699 254.902C78.8699 254.902 78.8499 254.902 78.8399 254.902Z" fill="#2B2B2B"/>
<path d="M78.4102 242.971C78.1902 242.971 77.9702 242.881 77.8002 242.711L69.3402 234.031C69.0102 233.691 69.0202 233.161 69.3502 232.831C69.6902 232.501 70.2202 232.511 70.5502 232.851L79.0102 241.531C79.3402 241.871 79.3302 242.401 78.9902 242.731C78.8302 242.891 78.6102 242.971 78.4002 242.971H78.4102Z" fill="#2B2B2B"/>
<path d="M75.4399 174.05C75.1299 174.05 74.8299 173.88 74.6799 173.58L62.9699 150.15C62.7599 149.73 62.9299 149.22 63.3499 149.01C63.7699 148.8 64.2799 148.97 64.4899 149.39L76.1999 172.82C76.4099 173.24 76.2399 173.75 75.8199 173.96C75.6999 174.02 75.5699 174.05 75.4399 174.05Z" fill="#2B2B2B"/>
<path d="M257.24 172.321C257.13 172.321 257.02 172.301 256.91 172.251C256.48 172.071 256.28 171.571 256.46 171.141L268.17 143.811C268.35 143.381 268.85 143.181 269.28 143.361C269.71 143.541 269.91 144.041 269.73 144.471L258.02 171.801C257.88 172.121 257.57 172.311 257.24 172.311V172.321Z" fill="#2B2B2B"/>
<path d="M448.86 190.951C448.65 191.111 448.78 191.671 448.78 191.671C448.78 191.671 449.8 194.141 447.99 199.241C446.47 203.541 440.6 209.731 438.8 211.561C438.47 211.901 438.28 212.091 438.28 212.091C438.28 212.091 438.23 212.161 438.14 212.281C437.31 213.321 433.18 218.441 430.8 220.981C430.8 220.981 430.67 221.171 430.43 221.501C430.25 221.751 430 222.091 429.69 222.481C426.56 226.551 417.28 237.461 407.94 237.381C402.36 237.331 395.3 236.001 389.04 234.311C374.57 264.181 329.57 325.581 293.31 320.981C278.97 319.161 268.69 308.231 261.38 294.671L261.3 253.761C261.3 253.761 288.01 255.521 313.24 252.541L313.32 252.881L313.62 252.501L321.41 242.341L356.67 196.351L364.95 183.331L364.97 183.301L367.44 179.841C367.44 179.841 373.34 173.021 380.22 171.731C387.1 170.441 397.92 171.951 400.95 170.981C403.96 170.021 414.86 163.691 418.12 163.841C421.39 164.001 426.08 166.321 422.86 172.731C419.64 179.151 408.37 185.821 408.37 185.821C408.37 185.821 426.19 188.041 429.38 187.271C432.56 186.511 443.33 175.961 448.87 178.721C454.42 181.491 451.52 188.911 448.87 190.941L448.86 190.951Z" fill="white"/>
<path d="M297.219 322.41C295.859 322.41 294.509 322.16 293.189 321.99C280.249 320.34 269.299 311.26 260.619 295.16C260.549 295.04 260.519 294.86 260.519 294.72L260.439 253.79C260.439 253.55 260.539 253.32 260.709 253.16C260.879 253 261.109 252.92 261.349 252.93C261.429 252.93 269.279 253.44 280.289 253.44C292.359 253.44 303.399 252.86 313.129 251.71C313.129 251.71 313.139 251.71 313.149 251.71L355.979 195.85L364.219 182.89L366.729 179.36C367.029 179.01 372.949 172.24 380.049 170.91C382.109 170.52 384.659 170.34 388.079 170.34C389.769 170.34 391.419 170.38 393.029 170.42C394.419 170.45 395.719 170.49 396.879 170.49C398.099 170.49 399.819 170.46 400.679 170.18C401.689 169.86 403.789 168.82 406.029 167.72C410.519 165.51 415.609 163 417.989 163H418.149C420.189 163.1 422.819 163.98 424.079 166.13C425.169 167.99 425.009 170.34 423.619 173.12C421.149 178.04 414.309 182.99 410.849 185.27C414.859 185.73 422.949 186.59 427.129 186.59C428.359 186.59 428.919 186.52 429.179 186.45C430.039 186.24 431.879 184.97 433.829 183.62C437.809 180.86 442.769 177.42 446.759 177.42C447.679 177.42 448.519 177.61 449.249 177.97C451.379 179.03 452.619 180.82 452.849 183.14C453.159 186.35 451.459 189.86 449.619 191.44C449.799 191.97 450.539 194.66 448.809 199.53C447.279 203.86 441.739 209.81 439.419 212.16L438.809 212.8C437.329 214.64 433.679 219.14 431.459 221.51C431.399 221.59 431.279 221.76 431.109 222C430.949 222.24 430.689 222.65 430.389 223.05C426.839 227.66 417.619 238.4 408.049 238.4H407.949C401.399 238.4 393.839 236.7 389.509 235.56C374.469 266.18 332.499 322.4 297.249 322.4L297.219 322.41ZM262.219 294.45C270.609 309.93 281.099 318.59 293.409 320.15C294.649 320.31 295.939 320.4 297.229 320.4C316.579 320.4 336.929 302.77 350.599 288C368.409 268.75 382.029 246.84 388.279 233.95C388.459 233.58 388.869 233.32 389.269 233.43C396.339 235.35 402.979 236.4 407.959 236.4H408.049C417.119 236.4 426.399 225.31 429.019 221.89C429.329 221.49 429.569 221.21 429.739 220.97C429.979 220.64 430.099 220.48 430.109 220.48C430.129 220.44 430.159 220.42 430.189 220.39C432.359 218.08 436.019 213.57 437.489 211.74L437.619 211.57C437.619 211.57 437.669 211.51 437.689 211.49L438.209 210.97C439.959 209.19 445.749 203.08 447.209 198.96C448.859 194.3 448.019 192.01 448.009 191.99C447.999 191.96 447.979 191.91 447.969 191.88C447.889 191.55 447.769 190.73 448.359 190.28C449.879 189.1 451.409 185.95 451.149 183.31C450.979 181.57 450.079 180.29 448.479 179.49C447.979 179.24 447.409 179.12 446.749 179.12C443.289 179.12 438.379 182.53 434.789 185.02C432.529 186.59 430.739 187.83 429.569 188.11C429.049 188.23 428.249 188.29 427.119 188.29C421.349 188.29 408.789 186.74 408.259 186.67C407.899 186.63 407.609 186.36 407.529 186C407.449 185.64 407.619 185.28 407.929 185.1C408.039 185.03 419.019 178.48 422.089 172.36C423.209 170.13 423.379 168.68 422.599 167.34C421.689 165.77 419.579 165.41 418.059 165.41C415.999 165.41 410.669 167.68 406.769 169.6C404.379 170.78 402.309 171.62 401.189 171.98C400.349 172.25 399.059 172.28 396.879 172.28C395.709 172.28 394.389 172.2 392.979 172.17C391.389 172.13 389.739 172.07 388.079 172.07C384.769 172.07 382.319 172.23 380.359 172.6C373.859 173.82 368.119 180.36 368.059 180.42L365.639 183.82L357.359 196.83L313.969 253.42C313.769 253.68 313.439 253.8 313.109 253.73C312.939 253.69 312.789 253.6 312.669 253.48C303.039 254.59 292.139 255.15 280.269 255.15C271.359 255.15 264.499 254.82 262.129 254.69L262.199 294.48L262.219 294.45Z" fill="#2B2B2B"/>
<path d="M427.329 211.572C424.029 210.342 419.229 213.782 416.199 217.822C415.559 218.682 415.049 219.392 414.649 219.982C413.089 218.852 405.879 217.002 405.009 216.792C404.879 216.762 404.749 216.842 404.709 216.972C404.679 217.102 404.759 217.232 404.889 217.272C408.179 218.102 413.469 219.642 414.379 220.392C413.209 222.162 413.109 222.672 413.099 222.742C413.089 222.872 413.179 222.992 413.319 223.012C413.449 223.022 413.569 222.932 413.589 222.792C413.589 222.762 413.779 221.862 416.589 218.122C419.439 214.322 424.119 210.902 427.159 212.042C430.439 213.272 431.339 216.932 429.679 222.352C429.639 222.482 429.709 222.622 429.839 222.652C429.909 222.672 429.979 222.662 430.039 222.622C430.089 222.592 430.129 222.542 430.139 222.482C431.889 216.772 430.889 212.902 427.329 211.572Z" fill="#2B2B2B"/>
<path d="M413.339 223.421C413.339 223.421 413.279 223.421 413.269 223.421C413.099 223.401 412.939 223.321 412.819 223.181C412.709 223.041 412.649 222.871 412.669 222.691C412.689 222.481 412.869 221.921 413.779 220.511C412.479 219.831 408.389 218.581 404.769 217.671C404.409 217.581 404.199 217.221 404.289 216.861C404.369 216.561 404.629 216.351 404.939 216.351C404.969 216.351 405.069 216.361 405.099 216.371C405.879 216.571 412.359 218.211 414.519 219.401C414.919 218.831 415.359 218.221 415.849 217.561C418.339 214.241 422.399 210.891 425.849 210.891C426.429 210.891 426.969 210.981 427.469 211.171C431.269 212.591 432.359 216.651 430.539 222.601C430.489 222.751 430.389 222.881 430.259 222.971C430.149 223.041 430.029 223.071 429.899 223.071C429.899 223.071 429.739 223.051 429.699 223.041C429.349 222.931 429.149 222.561 429.259 222.211C430.849 217.031 430.039 213.561 426.999 212.421C426.649 212.291 426.269 212.231 425.859 212.231C422.879 212.231 419.139 215.411 416.919 218.361C414.259 221.901 413.999 222.831 413.989 222.871C413.959 223.161 413.679 223.421 413.329 223.421H413.339Z" fill="#363636"/>
<path d="M438.61 199.14C433.15 196.49 428.35 200.46 427 202.68C425.67 204.86 420.01 209.45 419.2 210.1C417.45 209.61 412.34 208.21 411.71 208.38C411.58 208.42 411.51 208.55 411.54 208.68C411.58 208.81 411.71 208.88 411.84 208.85C412.26 208.76 415.94 209.69 419.18 210.6C419.26 210.62 419.34 210.6 419.4 210.56C419.67 210.35 425.94 205.34 427.41 202.94C428.69 200.84 433.24 197.08 438.39 199.59C439.26 200.01 439.86 200.71 440.18 201.67C441.42 205.42 438.08 211.93 438.05 211.99C437.99 212.11 438.03 212.26 438.15 212.32C438.23 212.36 438.32 212.35 438.39 212.32C438.43 212.3 438.46 212.27 438.48 212.23C438.62 211.96 441.95 205.47 440.64 201.53C440.28 200.44 439.59 199.64 438.6 199.16L438.61 199.14Z" fill="#2B2B2B"/>
<path d="M438.27 212.76C438.16 212.76 438.06 212.73 437.96 212.68C437.8 212.6 437.69 212.46 437.63 212.29C437.58 212.12 437.59 211.94 437.67 211.78C437.7 211.71 440.95 205.32 439.77 201.78C439.49 200.93 438.96 200.31 438.2 199.94C437.12 199.42 436.01 199.15 434.89 199.15C431.47 199.15 428.71 201.59 427.77 203.13C426.3 205.54 420.33 210.33 419.66 210.87C419.54 210.96 419.4 211.02 419.25 211.02C419.21 211.02 419.1 211 419.07 210.99C415.61 210.02 412.46 209.25 411.92 209.25C411.9 209.25 411.84 209.26 411.78 209.26C411.48 209.26 411.22 209.06 411.14 208.78C411.04 208.43 411.24 208.06 411.6 207.96C411.68 207.94 411.77 207.93 411.88 207.93C412.95 207.93 417.14 209.07 419.12 209.62C420.27 208.69 425.43 204.46 426.66 202.45C427.75 200.66 430.96 197.83 434.93 197.83C436.25 197.83 437.56 198.14 438.82 198.75C439.92 199.28 440.68 200.16 441.08 201.37C442.44 205.48 439.04 212.12 438.89 212.4C438.83 212.51 438.75 212.6 438.65 212.66C438.54 212.73 438.42 212.76 438.3 212.76H438.27Z" fill="#363636"/>
<path d="M448.3 190.969C447.23 189.579 445.09 188.649 442.72 188.529C439.77 188.379 436.95 189.479 434.98 191.549C431.34 195.379 428.9 196.839 428.46 197.089L419.86 195.349C419.73 195.319 419.6 195.409 419.57 195.539C419.54 195.669 419.63 195.799 419.76 195.829L428.45 197.579C428.5 197.589 428.56 197.579 428.61 197.559C428.72 197.509 431.26 196.179 435.34 191.879C437.21 189.909 439.89 188.869 442.7 189.009C444.93 189.119 446.94 189.989 447.92 191.259C448 191.359 448.14 191.379 448.24 191.319C448.24 191.319 448.25 191.319 448.26 191.309C448.37 191.229 448.39 191.069 448.3 190.969Z" fill="#2B2B2B"/>
<path d="M428.5 198.01C428.5 198.01 428.39 198.01 428.36 198L419.67 196.25C419.5 196.22 419.35 196.12 419.25 195.97C419.15 195.82 419.11 195.64 419.15 195.47C419.21 195.16 419.49 194.93 419.8 194.93C419.83 194.93 419.9 194.93 419.93 194.94L428.38 196.64C429.06 196.24 431.36 194.74 434.67 191.26C436.7 189.12 439.66 187.94 442.74 188.11C445.23 188.24 447.49 189.24 448.64 190.72C448.75 190.86 448.8 191.04 448.77 191.21C448.75 191.39 448.66 191.54 448.52 191.65C448.09 191.93 447.79 191.79 447.58 191.53C446.67 190.35 444.79 189.55 442.67 189.44C439.99 189.3 437.41 190.32 435.64 192.18C431.61 196.42 429.07 197.8 428.8 197.94C428.7 197.99 428.6 198.01 428.49 198.01H428.5Z" fill="#363636"/>
<path d="M379.38 209.121C373.73 209.141 369.1 210.271 369.05 210.281C368.92 210.311 368.84 210.441 368.87 210.571C368.9 210.701 369.03 210.781 369.16 210.751C369.34 210.701 387.47 206.351 396.06 215.091C396.14 215.171 396.27 215.191 396.36 215.131C396.38 215.131 396.39 215.111 396.4 215.101C396.5 215.011 396.5 214.851 396.4 214.761C391.8 210.081 384.59 209.121 379.36 209.141L379.38 209.121Z" fill="#2B2B2B"/>
<path d="M396.25 215.58C396.07 215.58 395.9 215.51 395.77 215.38C391.43 210.97 384.52 210.05 379.48 210.05C373.86 210.05 369.31 211.15 369.27 211.16C369.24 211.16 369.14 211.18 369.11 211.18C368.8 211.18 368.54 210.97 368.46 210.67C368.42 210.5 368.44 210.32 368.54 210.16C368.63 210.01 368.78 209.76 368.95 209.72C368.99 209.71 373.68 208.41 379.38 208.41H379.5C384.78 208.41 392.05 209.55 396.72 214.3C396.98 214.56 396.97 215.06 396.72 215.31C396.7 215.33 396.63 215.42 396.6 215.44C396.5 215.5 396.38 215.57 396.25 215.57V215.58Z" fill="#363636"/>
<path d="M385.299 350.84H287.079C282.959 350.84 279.689 347.52 279.689 343.45V292.65C279.689 288.53 283.009 285.26 287.079 285.26H385.299C389.419 285.26 392.689 288.58 392.689 292.65V343.45C392.739 347.52 389.419 350.84 385.299 350.84Z" fill="#CCD7F2"/>
<path d="M309.919 333.029H292.119V344.729H309.919V333.029Z" fill="#5669FF"/>
<path d="M335.289 323.43H317.489V344.54H335.289V323.43Z" fill="#5669FF"/>
<path d="M359.749 310.91H341.949V344.54H359.749V310.91Z" fill="#5669FF"/>
<path d="M384.249 298.16H366.449V344.54H384.249V298.16Z" fill="#5669FF"/>
<path d="M290.139 328.849C289.219 328.849 288.339 328.329 287.929 327.439C287.369 326.219 287.899 324.779 289.119 324.219L349.419 296.459C350.639 295.899 352.079 296.429 352.639 297.649C353.199 298.869 352.669 300.309 351.449 300.869L291.149 328.629C290.819 328.779 290.479 328.849 290.139 328.849Z" fill="#5669FF"/>
<path d="M350.819 308.04C350.509 308.04 350.189 307.98 349.879 307.85C348.639 307.33 348.059 305.91 348.579 304.67L351.169 298.5L344.639 297.23C343.319 296.97 342.469 295.7 342.719 294.38C342.979 293.06 344.249 292.21 345.569 292.46L355.029 294.31C355.749 294.45 356.359 294.91 356.709 295.55C357.049 296.19 357.089 296.96 356.809 297.63L353.059 306.55C352.669 307.48 351.769 308.04 350.819 308.04Z" fill="#5669FF"/>
<path d="M297.82 269.55C297.61 269.55 297.4 269.47 297.23 269.32C296.89 269 296.88 268.46 297.2 268.12L312.6 251.96C312.92 251.62 313.459 251.61 313.799 251.93C314.139 252.25 314.149 252.79 313.829 253.13L298.42 269.29C298.25 269.46 298.03 269.55 297.81 269.55H297.82Z" fill="#2B2B2B"/>
</svg>
