<svg width="364" height="368" viewBox="0 0 364 368" fill="none" xmlns="http://www.w3.org/2000/svg">
<path d="M135.971 11.23C129.041 10.8 122.121 10.93 115.231 11.94C102.061 13.88 88.8707 19.74 79.6807 29.55C67.8607 42.18 71.3107 61.31 56.5507 72.28C49.5907 77.45 41.0007 79.82 33.2407 83.69C1.03071 99.73 0.900708 139.49 15.1207 168.34C21.2907 180.86 28.4407 194.34 30.1507 208.73C32.0507 224.73 24.4607 240.19 31.6507 255.75C38.8607 271.35 53.9207 283.65 71.2007 285.78C82.8807 287.21 94.7707 284.53 106.451 285.96C139.851 290.06 162.261 325.79 195.461 331.24C213.281 334.16 232.411 327.09 244.041 313.28C252.601 303.11 257.241 289.77 267.181 280.94C277.001 272.22 289.331 270.49 301.341 266.49C313.871 262.32 326.151 256.62 335.811 247.43C347.071 236.72 354.051 221.64 355.061 206.13C356.071 190.62 351.141 174.81 341.601 162.54C330.991 148.89 311.661 142.75 303.291 128.15C295.031 113.74 296.471 96.05 297.901 80.15C299.601 61.22 299.841 39.37 285.721 26.65C277.121 18.9 264.901 16.48 253.321 16.5C240.441 16.52 228.411 20.19 215.691 20.97C201.911 21.82 188.131 19.64 174.621 17.13C161.831 14.75 148.881 12.04 135.951 11.25L135.971 11.23Z" fill="#4257FF"/>
<path d="M58.8703 137.6C57.7703 140.45 55.0703 142.41 53.8003 145.2C52.5403 147.98 52.8603 151.18 53.2203 154.21C53.8003 154.3 54.3703 154.4 54.9503 154.49C54.1503 151.49 56.2303 148.4 58.8203 146.68C61.4103 144.96 64.4903 144.16 67.2303 142.71C72.3703 139.98 76.1503 134.83 77.2303 129.11C78.3103 123.39 76.6603 117.22 72.8703 112.81C68.8503 108.12 62.7803 105.53 58.8603 100.75C52.9503 93.5402 53.3003 82.8202 56.8903 74.2202C59.5003 67.9702 63.6703 62.1502 64.2103 55.4002C64.3703 53.4102 64.1403 51.2502 62.8703 49.7002C61.1403 47.5902 58.0903 47.2602 55.3603 47.2202C52.0103 47.1802 48.6203 47.3502 45.4003 48.2702C39.2503 50.0202 34.2103 54.3002 28.9903 57.9902C22.7403 62.4202 15.9203 66.1802 10.5503 71.6502C4.24026 78.0902 0.220261 86.9702 0.540261 95.9802C0.860261 104.99 5.86026 113.92 13.8503 118.08C23.7403 123.24 35.8103 120.64 46.7103 122.99C50.2403 123.75 53.7703 125.11 56.3003 127.68C58.8403 130.25 60.1703 134.23 58.8703 137.6Z" fill="white"/>
<path d="M37.0201 153.721L43.3801 151.701L37.0201 149.531C35.1201 149.031 33.6601 147.501 33.2501 145.571L31.2301 136.021L29.0601 145.361C28.6001 147.331 27.0501 148.861 25.0701 149.271L19.0801 151.331L24.8601 153.371C26.8801 153.841 28.4301 155.471 28.8001 157.511L30.4701 166.751L32.9001 157.501C33.4101 155.541 35.0201 154.061 37.0101 153.701L37.0201 153.721Z" fill="#333333"/>
<path d="M329.28 218.581L335.64 216.561L329.28 214.391C327.38 213.891 325.92 212.361 325.51 210.431L323.49 200.881L321.32 210.221C320.86 212.191 319.31 213.721 317.33 214.131L311.34 216.191L317.12 218.231C319.14 218.701 320.69 220.331 321.06 222.371L322.73 231.611L325.16 222.361C325.67 220.401 327.28 218.921 329.27 218.561L329.28 218.581Z" fill="#333333"/>
<path d="M252.07 18.7107L256.65 17.2607L252.07 15.7007C250.7 15.3407 249.65 14.2407 249.36 12.8507L247.91 5.9707L246.35 12.7007C246.02 14.1207 244.9 15.2207 243.47 15.5207L239.16 17.0007L243.32 18.4707C244.78 18.8107 245.9 19.9807 246.16 21.4507L247.36 28.1107L249.11 21.4507C249.48 20.0407 250.63 18.9707 252.07 18.7207V18.7107Z" fill="#333333"/>
<path d="M252.83 93.391L279.91 86.031C283.87 89.491 288.56 92.271 293.9 94.111C316.72 101.981 342.52 89.891 351.51 67.111C360.51 44.321 349.3 19.471 326.47 11.601C303.65 3.73096 277.85 15.821 268.86 38.601C265.15 48.001 264.88 57.751 267.45 66.521L252.82 93.391H252.83Z" fill="white"/>
<path d="M308.3 97.3713C303.28 97.3713 298.35 96.5513 293.63 94.9213C288.47 93.1413 283.79 90.4713 279.7 86.9713L253.06 94.2113C252.73 94.3013 252.38 94.1813 252.17 93.9213C251.96 93.6513 251.93 93.2913 252.09 92.9913L266.55 66.4313C263.93 57.2013 264.46 47.4813 268.08 38.3013C275.15 20.3913 292.84 8.36133 312.09 8.36133C317.11 8.36133 322.04 9.18133 326.76 10.8113C337.91 14.6513 346.72 22.5813 351.57 33.1313C356.53 43.9013 356.79 56.0813 352.31 67.4313C345.24 85.3413 327.55 97.3713 308.3 97.3713ZM279.92 85.1913C280.12 85.1913 280.32 85.2613 280.48 85.4013C284.48 88.9013 289.1 91.5613 294.19 93.3213C298.73 94.8813 303.48 95.6813 308.3 95.6813C326.86 95.6813 343.92 84.0813 350.73 66.8113C355.04 55.8913 354.79 44.1913 350.03 33.8413C345.37 23.7113 336.91 16.1013 326.2 12.4113C321.66 10.8513 316.92 10.0513 312.09 10.0513C293.53 10.0513 276.47 21.6513 269.66 38.9213C266.13 47.8613 265.65 57.3313 268.28 66.2913C268.34 66.5113 268.32 66.7413 268.21 66.9313L254.54 92.0513L279.7 85.2113C279.77 85.1913 279.85 85.1813 279.92 85.1813V85.1913Z" fill="#2B2B2B"/>
<path d="M290.63 59.8406C294.529 59.8406 297.69 56.8857 297.69 53.2406C297.69 49.5955 294.529 46.6406 290.63 46.6406C286.731 46.6406 283.57 49.5955 283.57 53.2406C283.57 56.8857 286.731 59.8406 290.63 59.8406Z" fill="#333333"/>
<path d="M311.8 59.8406C315.699 59.8406 318.86 56.8857 318.86 53.2406C318.86 49.5955 315.699 46.6406 311.8 46.6406C307.901 46.6406 304.74 49.5955 304.74 53.2406C304.74 56.8857 307.901 59.8406 311.8 59.8406Z" fill="#333333"/>
<path d="M332.97 59.8406C336.869 59.8406 340.03 56.8857 340.03 53.2406C340.03 49.5955 336.869 46.6406 332.97 46.6406C329.071 46.6406 325.91 49.5955 325.91 53.2406C325.91 56.8857 329.071 59.8406 332.97 59.8406Z" fill="#333333"/>
<path d="M90.4295 153.241C91.0995 154.341 91.7995 155.461 92.8595 156.201C93.9595 156.971 95.3295 157.221 96.6495 157.421C119.839 160.971 143.309 154.631 166.749 153.901C179.629 153.501 192.509 154.811 205.399 154.621C218.619 154.431 231.769 152.671 244.879 150.911C246.549 144.511 248.219 138.121 249.889 131.721C250.649 128.791 251.409 125.641 250.349 122.811C248.899 118.921 244.469 116.831 242.779 113.041C240.809 108.611 243.139 103.451 242.549 98.6406C241.909 93.4106 237.899 89.1606 236.689 84.0306C235.459 78.8506 237.159 73.1706 235.229 68.2206C233.999 65.0706 231.419 62.5806 230.269 59.4006C229.409 57.0106 229.429 54.4206 229.259 51.8806C228.849 45.6006 227.269 39.4606 225.689 33.3706C224.509 28.8006 223.309 24.1706 221.019 20.0406C215.179 9.48056 203.109 3.77056 191.219 1.73056C185.319 0.720561 179.309 0.440561 173.329 0.170561C168.899 -0.0294394 164.409 -0.229439 160.059 0.670561C151.879 2.37056 144.669 8.17056 141.249 15.7906C139.329 20.0706 138.459 24.9906 135.229 28.3906C133.309 30.4106 130.619 31.8106 129.399 34.3106C127.909 37.3506 129.039 41.0606 128.039 44.2906C125.859 51.3706 114.759 53.3206 113.899 60.6806C113.419 64.8006 116.599 68.5506 116.719 72.7006C116.869 77.9906 112.219 81.9906 108.139 85.3506C106.529 86.6806 104.889 88.1006 104.049 90.0106C102.819 92.8006 103.509 96.0406 102.879 99.0206C101.499 105.541 94.2395 109.471 92.5695 115.921C91.6095 119.641 92.6695 123.641 91.8095 127.391C90.7395 132.051 86.8295 135.771 86.1795 140.511C85.5595 145.031 88.0395 149.341 90.4195 153.241H90.4295Z" fill="#333333"/>
<path d="M217.43 94.9702C211.99 94.9702 207.57 90.5402 207.57 85.1002C207.57 79.6602 212 75.2402 217.43 75.2402C222.86 75.2402 227.3 79.6702 227.3 85.1002C227.3 90.5302 222.87 94.9702 217.43 94.9702ZM217.43 76.9402C212.93 76.9402 209.26 80.6002 209.26 85.1102C209.26 89.6202 212.92 93.2802 217.43 93.2802C221.94 93.2802 225.6 89.6202 225.6 85.1102C225.6 80.6002 221.94 76.9402 217.43 76.9402Z" fill="white"/>
<path d="M210.51 91.7409C210.24 91.7409 209.98 91.6209 209.82 91.3909C209.55 91.0109 209.64 90.4809 210.02 90.2109L216.94 85.2609C217.22 85.0609 217.58 85.0509 217.87 85.2209L224.48 89.1509C224.88 89.3909 225.02 89.9109 224.78 90.3109C224.54 90.7109 224.02 90.8509 223.62 90.6109L217.49 86.9609L211.02 91.5909C210.87 91.7009 210.7 91.7509 210.53 91.7509L210.51 91.7409Z" fill="white"/>
<path d="M218.23 95.1704C217.76 95.1704 217.23 94.7904 217.23 94.3204V76.5004C217.23 76.0304 217.76 75.6504 218.23 75.6504C218.7 75.6504 219.23 76.0304 219.23 76.5004V94.3204C219.23 94.7904 218.7 95.1704 218.23 95.1704Z" fill="white"/>
<path d="M231.231 366.22H269.491C269.111 347.05 268.111 326.83 265.721 317.53C260.491 297.24 243.861 271.16 243.861 271.16L134.811 272.93C134.811 272.93 116.021 293.98 105.591 314.7C92.2908 341.13 98.9408 355.29 98.9408 355.29L98.2508 365.33C112.761 366.08 127.301 365.85 141.831 365.66C158.011 365.45 174.171 365.79 190.361 365.93C203.411 366.04 216.471 366.09 229.511 366.55C230.011 366.34 230.581 366.22 231.231 366.22Z" fill="#333333"/>
<path d="M229.66 367.4H229.48C218.12 366.99 206.56 366.9 195.37 366.81L190.35 366.77C185.92 366.73 181.48 366.68 177.05 366.63C169.1 366.54 160.88 366.44 152.79 366.44C148.88 366.44 145.3 366.46 141.84 366.51L140.57 366.53C134.29 366.61 127.79 366.7 121.39 366.7C112.48 366.7 105.11 366.53 98.2004 366.18L97.3404 366.14L98.0804 355.45C97.2704 353.51 92.2104 339.41 104.83 314.33C115.19 293.74 133.99 272.59 134.18 272.38L134.43 272.1H134.8L244.32 270.32L244.57 270.72C244.74 270.98 261.33 297.14 266.53 317.34C268.57 325.24 269.84 341.69 270.33 366.23L270.35 367.1H231.22C230.71 367.1 230.24 367.19 229.82 367.36L229.65 367.43L229.66 367.4ZM152.8 364.74C160.9 364.74 169.12 364.84 177.08 364.93C181.51 364.98 185.94 365.04 190.37 365.07L195.38 365.11C206.52 365.2 218.03 365.29 229.36 365.69C229.94 365.48 230.57 365.37 231.23 365.37H268.62C268.13 341.44 266.87 325.42 264.89 317.74C260.11 299.17 245.49 275.38 243.39 272.01L135.2 273.77C132.96 276.32 115.97 295.97 106.35 315.08C93.3804 340.84 99.6404 354.79 99.7104 354.93L99.8004 355.13L99.1504 364.52C105.79 364.84 112.89 365 121.39 365C127.77 365 134.26 364.91 140.54 364.83L141.81 364.81C145.28 364.76 148.87 364.74 152.79 364.74H152.8Z" fill="#333333"/>
<path d="M134.74 365.33H134.73C134.26 365.33 133.89 364.94 133.89 364.47C133.91 363.14 133.96 361.81 134.01 360.46C134.13 357.19 134.24 353.82 133.96 350.58C133.1 340.7 133.84 330.4 136.17 319.98C138.48 309.65 142.26 299.32 147.41 289.29C147.62 288.87 148.14 288.71 148.55 288.92C148.97 289.13 149.13 289.65 148.92 290.06C143.84 299.96 140.11 310.15 137.83 320.35C135.54 330.6 134.81 340.72 135.66 350.43C135.95 353.77 135.83 357.2 135.71 360.52C135.66 361.85 135.62 363.18 135.6 364.49C135.6 364.95 135.21 365.33 134.75 365.33H134.74Z" fill="white"/>
<path d="M253.43 284.701L154.42 284.501C153.95 284.501 153.57 283.571 153.57 283.101C153.57 282.631 153.95 281.711 154.42 281.711L253.43 282.811C253.9 282.811 254.28 283.301 254.28 283.761C254.28 284.231 253.9 284.711 253.43 284.711V284.701Z" fill="white"/>
<path d="M227.229 285.301C226.759 285.301 226.229 284.921 226.229 284.451V271.721C226.229 271.251 226.759 270.871 227.229 270.871C227.699 270.871 228.229 271.251 228.229 271.721V284.451C228.229 284.921 227.699 285.301 227.229 285.301Z" fill="white"/>
<path d="M216.229 366.781C215.759 366.781 215.229 366.401 215.229 365.931V285.301C215.229 284.831 215.759 284.451 216.229 284.451C216.699 284.451 217.229 284.831 217.229 285.301V365.931C217.229 366.401 216.699 366.781 216.229 366.781Z" fill="white"/>
<path d="M230.74 285.182L230.95 336.842L216.25 358.682L229.22 358.242" fill="#333333"/>
<path d="M216.25 358.701C215.94 358.701 215.66 358.941 215.51 358.671C215.36 358.391 215.37 358.251 215.55 357.991L230.1 336.481L229.88 284.811C229.88 284.341 230.26 283.701 230.73 283.701C231.2 283.701 231.58 284.391 231.58 284.861L231.8 336.681C231.8 336.851 231.75 337.091 231.66 337.241L217.89 357.731L229.2 357.371C229.65 357.321 230.06 357.731 230.08 358.201C230.1 358.671 229.73 358.661 229.26 358.671L216.29 358.701H216.26H216.25Z" fill="white"/>
<path d="M250.34 228.681C250.34 228.681 270.52 236.471 282.73 219.481L257.95 214.881L250.34 228.681Z" fill="#333333"/>
<path d="M289.969 203.25L296.379 197.56C291.069 188.25 272.079 151.05 269.579 147.62C262.849 138.41 251.049 126.97 240.909 125.55C230.759 124.14 201.969 111.75 197.719 111.16C197.719 111.16 168.329 111.68 158.429 112.22C147.529 112.82 99.5094 135.7 96.9194 137.31C78.7594 148.55 87.5195 169.09 77.8995 188.54C68.1695 208.21 66.4395 232.21 66.4395 232.21L125.509 241.77C125.509 241.77 132.589 252.4 134.359 260.54C136.119 268.68 143.199 272.93 143.199 272.93L251.519 271.16C252.499 270.46 253.269 269.61 253.849 268.66C257.729 262.44 254.099 251.84 254.699 248.15C255.409 243.9 259.809 224.58 259.809 224.58C259.809 224.58 276.469 228.54 279.829 222.31C287.439 208.22 289.959 203.25 289.959 203.25H289.969Z" fill="#A1C3FF"/>
<path d="M143.2 273.7C143.05 273.7 142.89 273.7 142.76 273.62C142.46 273.44 135.35 269.1 133.53 260.7C131.98 253.57 126.16 244.33 125 242.54L66.2999 233.05C65.8699 232.98 65.5599 232.59 65.5899 232.15C65.6099 231.91 67.4399 207.76 77.1299 188.17C80.8899 180.56 81.7899 172.84 82.6599 165.37C83.9599 154.16 85.1899 143.58 96.4699 136.6C99.4599 134.75 147.24 112 158.38 111.39C168.18 110.85 197.4 110.33 197.7 110.32C197.74 110.32 197.79 110.32 197.83 110.32C199.59 110.57 204.95 112.58 211.74 115.14C222.08 119.03 234.94 123.87 241.02 124.71C250.91 126.09 262.83 136.96 270.26 147.12C271.71 149.1 278.1 161.27 284.86 174.15C289.97 183.89 294.8 193.08 297.11 197.13C297.31 197.48 297.24 197.92 296.94 198.19L290.65 203.78C290.18 204.7 287.42 210.06 280.58 222.72C279.16 225.34 275.67 226.67 270.21 226.67C266.16 226.67 262.14 225.94 260.45 225.59C259.6 229.32 256.15 244.62 255.54 248.3C255.37 249.37 255.61 251.26 255.89 253.44C256.51 258.18 257.35 264.66 254.57 269.12C253.91 270.19 253.05 271.11 252.01 271.86C251.87 271.96 251.7 271.98 251.53 271.98L143.21 273.72H143.2V273.7ZM67.3499 231.5L125.64 240.93C125.87 240.97 126.08 241.1 126.21 241.3C126.5 241.74 133.4 252.15 135.18 260.36C136.69 267.31 142.31 271.34 143.43 272.08L251.22 270.31C251.98 269.73 252.62 269.02 253.12 268.21C255.59 264.26 254.79 258.13 254.2 253.65C253.9 251.33 253.64 249.33 253.85 248.01C254.56 243.78 258.79 225.17 258.97 224.38C259.02 224.16 259.16 223.97 259.35 223.85C259.54 223.73 259.77 223.69 259.99 223.74C260.04 223.75 265.18 224.96 270.2 224.96C273.49 224.96 277.71 224.43 279.07 221.9C286.58 207.99 289.16 202.91 289.19 202.86C289.24 202.76 289.3 202.68 289.38 202.61L295.28 197.37C292.84 193.04 288.22 184.23 283.34 174.94C276.9 162.68 270.25 150 268.87 148.12C261.65 138.25 250.17 127.71 240.77 126.39C234.51 125.52 221.55 120.65 211.13 116.73C204.79 114.34 199.29 112.28 197.64 112.01C196.03 112.04 167.99 112.55 158.46 113.07C147.99 113.65 100.59 136.03 97.3499 138.03C86.7699 144.58 85.6399 154.3 84.3299 165.56C83.4499 173.17 82.5299 181.05 78.6399 188.92C70.0699 206.26 67.7299 227.24 67.3399 231.5H67.3499Z" fill="#333333"/>
<path d="M204.34 57.6104C204.34 57.6104 212.94 48.8204 220.17 51.4204C227.4 54.0204 228.37 69.6104 220.6 72.6404C212.83 75.6704 203.5 69.5804 203.5 69.5804L204.34 57.6104Z" fill="white"/>
<path d="M215.85 73.9605C209.41 73.9605 203.49 70.1505 203.24 69.9805L203.01 69.8305L203.88 57.4105L204 57.2905C204.27 57.0105 210.75 50.4805 217.33 50.4805C218.38 50.4805 219.39 50.6505 220.33 50.9905C224.5 52.4905 226.43 57.7505 226.49 62.2905C226.55 66.4105 225.07 71.4105 220.77 73.0905C219.28 73.6705 217.62 73.9705 215.85 73.9705V73.9605ZM203.99 69.3405C205.14 70.0405 210.39 73.0205 215.85 73.0205C217.5 73.0205 219.04 72.7505 220.42 72.2105C224.27 70.7105 225.59 66.1105 225.54 62.3005C225.48 58.0805 223.75 53.2205 220 51.8805C219.16 51.5805 218.26 51.4305 217.32 51.4305C211.6 51.4305 205.7 56.9505 204.79 57.8405L203.98 69.3505L203.99 69.3405Z" fill="#333333"/>
<path d="M196.4 89.7605C196.4 89.7605 196.66 110.56 198.48 111.6C200.3 112.64 206.29 114.88 206.29 114.88C206.29 114.88 219.39 138.3 193.08 139.19C173.87 139.84 150.04 114.83 150.04 114.83C150.04 114.83 159.48 110.81 160.78 108.99C162.08 107.17 159.69 74.4805 159.69 74.4805L196.39 89.7505L196.4 89.7605Z" fill="white"/>
<path d="M192.33 140.05C173.11 140.05 150.38 116.42 149.42 115.41C149.23 115.21 149.15 114.93 149.2 114.65C149.26 114.38 149.44 114.15 149.7 114.04C153.27 112.52 159.24 109.68 160.08 108.49C160.84 106.74 159.73 86.73 158.84 74.54C158.82 74.25 158.95 73.96 159.19 73.79C159.43 73.62 159.74 73.58 160.01 73.7L196.71 88.97C197.02 89.1 197.23 89.4 197.23 89.74C197.35 99.18 198.02 109.61 198.94 110.89C200.75 111.9 206.51 114.06 206.57 114.08C206.76 114.15 206.92 114.29 207.01 114.46C207.26 114.91 213.09 125.51 208.84 133.04C206.37 137.41 201.07 139.76 193.09 140.03C192.84 140.03 192.58 140.04 192.32 140.04L192.33 140.05ZM151.51 115.11C155.87 119.43 175.87 138.35 192.33 138.35C192.57 138.35 192.81 138.35 193.04 138.34C200.39 138.09 205.21 136.03 207.37 132.22C210.81 126.13 206.53 117.21 205.68 115.56C204.42 115.08 199.69 113.27 198.05 112.33C196.23 111.29 195.68 99.92 195.55 90.33L160.63 75.8C161.39 86.34 162.74 107.7 161.46 109.49C160.3 111.11 154.29 113.89 151.5 115.12L151.51 115.11Z" fill="#333333"/>
<path d="M202.83 99.4698L202.66 87.9799L181.63 88.8098L173.43 82.3898L166.77 79.0898C175.82 104.81 196.93 101.79 202.83 99.4799V99.4698Z" fill="#333333"/>
<path d="M213.44 24.3915C213.44 24.3915 212.85 -2.03851 177.02 2.65149C176.59 2.71149 176.16 2.77149 175.74 2.84149C157.43 5.87149 145.27 19.7415 148.93 37.9315L151.86 52.9315C148.96 50.7015 145.04 48.6215 141.19 49.6115C133.75 51.5315 131.34 66.9615 138.8 70.7015C145.2 73.9115 153.33 70.5515 155.53 69.5315C157.79 76.2715 161.57 82.4315 166.9 87.1815C172.96 92.5815 181.43 97.0015 192.2 95.2115C216.12 91.2415 216.51 73.2715 216.35 50.9515C216.26 38.5515 215.28 30.4115 213.44 24.3915Z" fill="white"/>
<path d="M153.8 59.5203C155.55 53.0903 188.28 32.7203 187.5 21.6103C187.5 21.6103 197.44 30.9703 200.76 32.5303C204.07 34.0903 216.98 43.0203 216.83 51.9003C216.83 51.9003 225.72 38.3803 223.97 28.2403C222.22 18.1003 212.83 0.540264 189.12 0.270264C166.27 0.000264355 149.8 8.02027 145.32 24.9803C140.84 41.9403 153.8 59.5103 153.8 59.5103V59.5203Z" fill="#333333"/>
<path d="M154.55 16.9798C152.94 15.5898 150.4 16.3798 148.69 17.6498C146.37 19.3698 144.63 21.8698 143.83 24.6498C143.65 25.2698 143.53 25.9798 143.89 26.5198C144.11 26.8498 144.47 27.0398 144.84 27.1898C149.25 29.0198 154.91 25.7098 158.83 28.4298C161.26 30.1098 162.02 33.5598 164.5 35.1598C166.82 36.6598 170.12 35.9898 172.08 34.0398C174.04 32.0898 174.76 29.1498 174.53 26.3998C174.48 25.8298 174.39 25.2298 174.04 24.7698C173.72 24.3498 173.23 24.0998 172.74 23.8798C169.95 22.6198 166.9 21.9398 163.83 21.8898C161.28 21.8498 158.3 22.0598 156.65 20.1198C155.83 19.1598 155.51 17.8098 154.55 16.9798Z" fill="white"/>
<path d="M259.81 225.421C259.72 225.421 259.64 225.411 259.55 225.381C259.1 225.241 258.86 224.761 259 224.311C261.94 215.231 264.2 202.761 258.27 194.851C251.83 186.261 251.05 177.781 251.02 177.421C250.98 176.951 251.33 176.541 251.79 176.501C252.25 176.461 252.67 176.811 252.71 177.271C252.71 177.351 253.49 185.641 259.62 193.821C265.99 202.311 263.67 215.361 260.6 224.821C260.48 225.181 260.15 225.411 259.79 225.411L259.81 225.421Z" fill="#333333"/>
<path d="M153.83 237.671C153.39 237.671 153.02 237.341 152.99 236.891C152.95 236.421 153.29 236.011 153.76 235.971C177.67 233.891 192.82 222.801 192.97 222.681C193.34 222.401 193.88 222.481 194.16 222.851C194.44 223.231 194.36 223.761 193.99 224.041C193.84 224.161 178.29 235.541 153.91 237.661C153.89 237.661 153.86 237.661 153.84 237.661L153.83 237.671Z" fill="#333333"/>
<path d="M104.98 195.901C104.61 195.901 104.26 195.651 104.16 195.271L96.3996 166.551C96.2796 166.101 96.5496 165.631 96.9996 165.511C97.4496 165.391 97.9196 165.661 98.0396 166.111L105.8 194.831C105.92 195.281 105.65 195.751 105.2 195.871C105.13 195.891 105.05 195.901 104.98 195.901Z" fill="#333333"/>
<path d="M100.729 191.65C100.339 191.65 99.9895 191.38 99.8995 190.99L96.0095 174C95.9095 173.54 96.1895 173.09 96.6495 172.98C97.0995 172.87 97.5595 173.16 97.6695 173.62L101.559 190.61C101.659 191.07 101.379 191.52 100.919 191.63C100.859 191.64 100.789 191.65 100.729 191.65Z" fill="#333333"/>
<path d="M254.36 187.761C254.36 187.761 254.31 187.761 254.29 187.761C253.82 187.721 253.48 187.311 253.52 186.841L254.23 178.341C254.27 177.871 254.67 177.521 255.15 177.571C255.62 177.611 255.96 178.021 255.92 178.491L255.21 186.991C255.17 187.431 254.8 187.771 254.37 187.771L254.36 187.761Z" fill="#333333"/>
<path d="M282.91 241.21C282.44 241.21 282.06 240.83 282.06 240.36V216.76C282.06 216.29 282.44 215.91 282.91 215.91C283.38 215.91 283.76 216.29 283.76 216.76V240.36C283.76 240.83 283.38 241.21 282.91 241.21Z" fill="#333333"/>
<path d="M190.22 80.1311C183.99 80.1311 179.55 75.6111 179.5 75.5511C179.18 75.2111 179.19 74.6811 179.52 74.3511C179.86 74.0311 180.39 74.0411 180.72 74.3711C180.98 74.6311 187.06 80.8011 194.82 77.4511C195.25 77.2611 195.75 77.4611 195.94 77.8911C196.13 78.3211 195.93 78.8211 195.5 79.0111C193.65 79.8111 191.879 80.1211 190.229 80.1211L190.22 80.1311Z" fill="#333333"/>
<path d="M179.13 76.8998C178.66 76.8998 178.28 76.4898 178.28 76.0198C178.28 74.8598 179.75 73.8798 180.38 73.5198C180.78 73.2798 181.3 73.4198 181.54 73.8298C181.78 74.2298 181.64 74.7498 181.23 74.9898C180.65 75.3298 180.04 75.8598 179.97 76.0798C179.97 76.5498 179.59 76.8998 179.12 76.8998H179.13Z" fill="#333333"/>
<path d="M207.68 90.3899C207.42 90.3899 207.17 90.27 207 90.05C206.72 89.68 206.79 89.14 207.17 88.86C216.49 81.85 216.66 57.72 216.49 50.49C216.48 50.02 216.85 49.63 217.32 49.62C217.8 49.58 218.18 49.98 218.19 50.45C218.41 59.98 217.89 82.93 208.19 90.22C208.04 90.34 207.86 90.3899 207.68 90.3899Z" fill="#333333"/>
<path d="M149.43 64.9412C149 64.9412 148.63 64.9412 148.59 64.5012C148.18 60.6812 143.07 55.7012 140.55 55.7012H140.47C140.01 55.7012 139.64 55.1812 139.62 54.7212C139.61 54.2512 139.98 53.7012 140.44 53.7012H140.53C144.1 53.7012 149.8 59.7312 150.27 64.1712C150.32 64.6412 149.98 64.9712 149.52 65.0212C149.49 65.0212 149.46 64.9412 149.43 64.9412Z" fill="#333333"/>
<path d="M142.3 59.9998C141.89 59.9998 141.52 59.6998 141.46 59.2798C141.39 58.8198 141.71 58.3798 142.17 58.3198L146.6 57.6598C147.07 57.5998 147.5 57.9098 147.56 58.3698C147.63 58.8298 147.31 59.2698 146.85 59.3298L142.42 59.9898C142.42 59.9898 142.34 59.9898 142.29 59.9898L142.3 59.9998Z" fill="#333333"/>
<path d="M191.1 68.3311C190.7 68.3311 190.34 68.041 190.27 67.631C190.19 67.171 190.49 66.731 190.95 66.641C191.64 66.511 194.21 64.721 194.2 63.441C194.2 62.541 193.47 60.731 192.84 59.131C192.32 57.821 191.83 56.581 191.62 55.641C191.52 55.181 191.81 54.731 192.27 54.631C192.73 54.531 193.18 54.821 193.28 55.281C193.45 56.081 193.94 57.311 194.41 58.501C195.17 60.401 195.88 62.201 195.89 63.411C195.92 65.821 192.42 68.0911 191.25 68.3011C191.2 68.3011 191.15 68.311 191.1 68.311V68.3311Z" fill="#333333"/>
<path d="M143.93 94.9702C138.49 94.9702 134.07 90.5402 134.07 85.1002C134.07 79.6602 138.5 75.2402 143.93 75.2402C149.36 75.2402 153.8 79.6702 153.8 85.1002C153.8 90.5302 149.37 94.9702 143.93 94.9702ZM143.93 76.9402C139.43 76.9402 135.76 80.6002 135.76 85.1102C135.76 89.6202 139.42 93.2802 143.93 93.2802C148.44 93.2802 152.1 89.6202 152.1 85.1102C152.1 80.6002 148.44 76.9402 143.93 76.9402Z" fill="white"/>
<path d="M137.01 91.7409C136.74 91.7409 136.48 91.6209 136.32 91.3909C136.05 91.0109 136.14 90.4809 136.52 90.2109L143.44 85.2609C143.72 85.0609 144.08 85.0509 144.37 85.2209L150.98 89.1509C151.38 89.3909 151.52 89.9109 151.28 90.3109C151.04 90.7109 150.52 90.8509 150.12 90.6109L143.99 86.9609L137.52 91.5909C137.37 91.7009 137.2 91.7509 137.03 91.7509L137.01 91.7409Z" fill="white"/>
<path d="M144.23 95.1704C143.76 95.1704 143.23 94.7904 143.23 94.3204V76.5004C143.23 76.0304 143.76 75.6504 144.23 75.6504C144.7 75.6504 145.23 76.0304 145.23 76.5004V94.3204C145.23 94.7904 144.7 95.1704 144.23 95.1704Z" fill="white"/>
<path d="M175.81 67.4804C180.924 67.4804 185.07 62.0899 185.07 55.4404C185.07 48.7909 180.924 43.4004 175.81 43.4004C170.696 43.4004 166.55 48.7909 166.55 55.4404C166.55 62.0899 170.696 67.4804 175.81 67.4804Z" fill="white"/>
<path d="M175.81 68.3308C170.24 68.3308 165.7 62.5508 165.7 55.4408C165.7 48.3308 170.24 42.5508 175.81 42.5508C181.38 42.5508 185.92 48.3308 185.92 55.4408C185.92 62.5508 181.38 68.3308 175.81 68.3308ZM175.81 44.2508C171.17 44.2508 167.4 49.2708 167.4 55.4408C167.4 61.6108 171.17 66.6308 175.81 66.6308C180.45 66.6308 184.22 61.6108 184.22 55.4408C184.22 49.2708 180.45 44.2508 175.81 44.2508Z" fill="#333333"/>
<path d="M205.209 67.4804C210.323 67.4804 214.469 62.0899 214.469 55.4404C214.469 48.7909 210.323 43.4004 205.209 43.4004C200.095 43.4004 195.949 48.7909 195.949 55.4404C195.949 62.0899 200.095 67.4804 205.209 67.4804Z" fill="white"/>
<path d="M205.21 68.3308C199.64 68.3308 195.1 62.5508 195.1 55.4408C195.1 48.3308 199.64 42.5508 205.21 42.5508C210.78 42.5508 215.32 48.3308 215.32 55.4408C215.32 62.5508 210.78 68.3308 205.21 68.3308ZM205.21 44.2508C200.57 44.2508 196.8 49.2708 196.8 55.4408C196.8 61.6108 200.57 66.6308 205.21 66.6308C209.85 66.6308 213.62 61.6108 213.62 55.4408C213.62 49.2708 209.85 44.2508 205.21 44.2508Z" fill="#333333"/>
<path d="M185.56 54.9102L184.6 53.5102C192.55 48.0702 196.66 53.6602 196.7 53.7202L195.32 54.7002L196.01 54.2102L195.32 54.7102C195.19 54.5302 192.09 50.4402 185.57 54.9102H185.56Z" fill="#333333"/>
<path d="M154.198 53.3072L154.022 54.998L166.485 56.2947L166.661 54.6039L154.198 53.3072Z" fill="#333333"/>
<path d="M219.083 50.2472L214.296 53.5215L215.256 54.9247L220.043 51.6504L219.083 50.2472Z" fill="#333333"/>
<path d="M259.27 225.081L257.6 229.791L242.42 208.541C241.64 200.381 239.87 192.681 239.14 189.721C239.32 180.861 239.26 170.401 238.15 166.341C237.26 163.091 233.9 161.161 230.65 162.061C229.93 162.261 229.28 162.581 228.71 162.991L228.45 149.521C228.38 146.151 225.6 143.471 222.23 143.541C220.83 143.571 219.57 144.061 218.56 144.851V144.091C218.52 140.721 215.77 138.011 212.4 138.041C209.87 138.081 207.65 139.701 206.76 141.971C206.29 141.791 205.79 141.671 205.26 141.621C201.91 141.281 198.91 143.721 198.56 147.071L198.28 149.801L198.1 150.201C198.1 150.201 198.16 150.201 198.24 150.221L194.92 182.601C192.79 185.981 190.78 191.461 191.03 193.191L194.41 216.441C194.41 216.441 203.68 223.511 214.03 228.701L208.27 234.241C208.27 234.241 253.98 314.651 285.84 301.111C323.21 285.231 293.16 210.091 290.62 202.771C284.1 209.581 265.09 222.521 259.27 225.111V225.081Z" fill="white"/>
<path d="M278.2 303.461C247.03 303.461 209.14 237.441 207.54 234.631C207.35 234.291 207.41 233.871 207.69 233.601L212.59 228.891C202.72 223.791 194 217.161 193.91 217.091C193.73 216.961 193.62 216.761 193.59 216.541L190.21 193.291C189.91 191.221 192.08 185.591 194.12 182.301L197.37 150.581C197.25 150.351 197.24 150.071 197.35 149.831L197.47 149.561L197.74 146.971C198.13 143.171 201.49 140.371 205.37 140.761C205.68 140.791 206 140.851 206.32 140.931C207.51 138.701 209.86 137.221 212.4 137.191C216.02 137.191 218.98 139.901 219.37 143.371C220.25 142.951 221.22 142.721 222.22 142.701H222.36C226.12 142.701 229.24 145.761 229.31 149.521L229.55 161.581C229.84 161.451 230.14 161.351 230.45 161.271C231.05 161.101 231.67 161.021 232.29 161.021C235.41 161.021 238.16 163.131 238.99 166.141C239.92 169.531 240.26 177.441 240.01 189.651C240.75 192.661 242.47 200.221 243.26 208.261L257.36 228.001L258.48 224.821C258.56 224.601 258.72 224.421 258.93 224.331C264.77 221.731 283.63 208.841 290.01 202.181C290.21 201.971 290.51 201.881 290.8 201.941C291.09 202.001 291.32 202.211 291.42 202.491C291.56 202.881 291.77 203.461 292.04 204.211C311.54 257.301 309.46 291.991 286.17 301.881C283.67 302.941 280.98 303.481 278.19 303.481L278.2 303.461ZM209.35 234.361C213.19 240.941 249.51 301.771 278.2 301.771C280.76 301.771 283.22 301.281 285.51 300.301C315.64 287.491 301.54 234.951 290.45 204.771C290.39 204.601 290.33 204.441 290.27 204.291C283.17 211.141 265.96 222.871 259.95 225.701L258.4 230.071C258.29 230.371 258.03 230.581 257.72 230.631C257.4 230.671 257.09 230.541 256.91 230.281L241.73 209.031C241.64 208.911 241.59 208.771 241.58 208.621C240.8 200.511 239.04 192.841 238.32 189.921C238.3 189.851 238.29 189.771 238.3 189.701C238.55 177.761 238.22 169.761 237.34 166.561C236.72 164.281 234.63 162.681 232.28 162.681C231.81 162.681 231.34 162.741 230.89 162.871C230.29 163.031 229.73 163.301 229.21 163.671C228.95 163.851 228.62 163.881 228.33 163.741C228.05 163.601 227.87 163.311 227.86 163.001L227.6 149.531C227.54 146.691 225.19 144.381 222.35 144.381H222.25C221.09 144.401 220 144.791 219.09 145.511C218.84 145.711 218.49 145.751 218.2 145.611C217.91 145.471 217.72 145.181 217.72 144.851V144.091C217.69 141.221 215.33 138.881 212.46 138.881C210.29 138.911 208.34 140.271 207.56 142.271C207.39 142.701 206.91 142.921 206.48 142.761C206.05 142.601 205.61 142.501 205.19 142.461C202.24 142.161 199.72 144.281 199.42 147.151L199.14 149.881C199.14 149.951 199.12 150.021 199.09 150.081C199.09 150.151 199.1 150.221 199.09 150.291L195.77 182.671C195.76 182.801 195.71 182.931 195.64 183.041C193.49 186.441 191.67 191.651 191.87 193.061L195.2 215.961C196.81 217.161 205.23 223.331 214.41 227.931C214.66 228.051 214.83 228.291 214.87 228.561C214.91 228.831 214.82 229.111 214.62 229.301L209.34 234.381L209.35 234.361Z" fill="#2B2B2B"/>
<path d="M65.9397 232.291C68.2497 227.681 83.5197 226.811 88.4197 225.371C93.3197 223.931 130.93 229.121 135.4 231.711C139.87 234.301 140.16 237.471 137.42 238.341C134.68 239.211 74.8697 233.871 74.8697 233.871L65.9297 232.281L65.9397 232.291Z" fill="#333333"/>
<path d="M226.959 163.261C226.019 159.841 222.489 157.811 219.069 158.761C218.309 158.971 217.629 159.311 217.029 159.741L216.749 145.571C216.679 142.021 213.749 139.211 210.209 139.271C208.739 139.301 207.409 139.811 206.349 140.651V139.851C206.309 136.301 203.409 133.451 199.869 133.481C197.199 133.521 194.869 135.221 193.939 137.611C193.439 137.431 192.919 137.291 192.359 137.241C188.839 136.881 185.679 139.441 185.319 142.971L181.489 180.341C179.249 183.891 176.699 190.861 176.969 192.681L174.419 214.691C174.299 215.691 173.189 222.171 172.459 222.851L133.259 254.611L135.389 232.431C123.859 223.321 104.749 219.661 76.1895 228.551C72.7195 260.971 78.3394 303.081 96.4994 315.881C147.229 351.621 217.039 239.841 217.309 239.741C236.779 232.691 229.739 194.881 227.999 187.861C228.189 178.541 228.129 167.541 226.959 163.271V163.261Z" fill="white"/>
<path d="M118.32 323.771C110.29 323.771 102.79 321.351 95.9998 316.571C77.8298 303.771 71.7898 261.611 75.3298 228.451C75.3698 228.111 75.5998 227.831 75.9198 227.731C86.8698 224.321 96.9898 222.601 105.99 222.601C118.15 222.601 128.21 225.681 135.9 231.761C136.13 231.941 136.25 232.221 136.22 232.511L134.28 252.671L171.85 222.241C172.37 221.421 173.4 215.981 173.56 214.591L176.09 192.681C175.89 190.401 178.51 183.531 180.64 180.061L184.45 142.891C184.86 138.921 188.37 135.981 192.42 136.401C192.76 136.431 193.1 136.501 193.45 136.581C194.68 134.231 197.15 132.671 199.83 132.631C203.64 132.631 206.75 135.501 207.13 139.151C208.07 138.691 209.1 138.451 210.17 138.421H210.31C214.24 138.421 217.5 141.621 217.58 145.551L217.83 158.301C218.15 158.161 218.49 158.041 218.83 157.941C219.46 157.771 220.11 157.681 220.76 157.681C224.02 157.681 226.9 159.881 227.76 163.041C228.73 166.611 229.09 174.921 228.83 187.771C229.42 190.261 238.98 232.441 217.83 240.451C217.74 240.581 217.61 240.781 217.45 241.031C204.65 260.441 159.66 323.781 118.31 323.781L118.32 323.771ZM76.9598 229.191C73.5898 261.781 79.4298 302.821 96.9798 315.181C103.47 319.751 110.65 322.071 118.32 322.071C158.82 322.071 203.36 259.321 216.04 240.081C216.5 239.381 216.823 238.998 217.01 238.931C234.11 232.741 230.14 200.101 227.17 188.051C227.15 187.981 227.14 187.901 227.15 187.831C227.41 175.271 227.06 166.851 226.14 163.481C225.48 161.061 223.27 159.371 220.78 159.371C220.28 159.371 219.79 159.441 219.3 159.571C218.67 159.741 218.07 160.031 217.52 160.421C217.26 160.601 216.92 160.631 216.64 160.491C216.36 160.351 216.18 160.061 216.17 159.751L215.89 145.581C215.83 142.571 213.33 140.121 210.32 140.121H210.21C208.98 140.151 207.82 140.561 206.86 141.321C206.61 141.521 206.26 141.561 205.97 141.421C205.68 141.281 205.49 140.991 205.49 140.661V139.861C205.46 136.811 202.96 134.341 199.91 134.341C197.61 134.371 195.54 135.811 194.72 137.931C194.55 138.361 194.07 138.581 193.64 138.421C193.18 138.251 192.72 138.141 192.27 138.101C189.16 137.781 186.47 140.031 186.16 143.071L182.33 180.441C182.32 180.571 182.27 180.701 182.2 180.811C179.94 184.391 177.58 191.071 177.8 192.571C177.81 192.641 177.81 192.721 177.8 192.791L175.25 214.801C175.25 214.871 174.16 222.421 173.03 223.481L133.78 255.281C133.51 255.491 133.15 255.531 132.84 255.371C132.54 255.211 132.36 254.881 132.4 254.541L134.49 232.831C127.15 227.181 117.57 224.321 105.99 224.321C97.3098 224.321 87.5498 225.971 76.9598 229.211V229.191Z" fill="#2B2B2B"/>
<path d="M191.33 174.25C191.33 174.25 191.28 174.25 191.25 174.25C190.78 174.21 190.44 173.79 190.49 173.33C190.52 173.04 193.29 143.79 193.11 137.69C193.1 137.22 193.47 136.83 193.93 136.82H193.96C194.42 136.82 194.79 137.18 194.81 137.64C194.99 143.84 192.3 172.29 192.18 173.49C192.14 173.93 191.77 174.26 191.34 174.26L191.33 174.25Z" fill="#333333"/>
<path d="M205.66 179.1L203.96 179.03C203.96 179.03 205.27 145.84 205.48 140.6C205.5 140.13 205.86 139.75 206.36 139.79C206.83 139.81 207.19 140.2 207.17 140.67C206.96 145.91 205.65 179.1 205.65 179.1H205.66Z" fill="#333333"/>
<path d="M215.48 185.561H215.46C214.99 185.551 214.62 185.161 214.63 184.691C214.69 182.371 215.28 161.951 216.06 159.321C216.19 158.871 216.67 158.621 217.12 158.751C217.57 158.891 217.82 159.361 217.69 159.811C217.14 161.631 216.57 175.721 216.33 184.741C216.32 185.201 215.94 185.571 215.48 185.571V185.561Z" fill="#333333"/>
<path d="M189.06 147.411C187.27 147.411 185.05 147.141 184.72 147.101C184.25 147.041 183.92 146.621 183.98 146.151C184.04 145.691 184.46 145.351 184.93 145.411C186.28 145.581 188.53 145.771 189.78 145.691C189.87 143.401 189.8 140.901 189.53 140.421C189.12 140.001 188.29 139.691 188.03 139.631C187.58 139.511 187.31 139.041 187.43 138.591C187.55 138.141 188.02 137.871 188.47 137.991C188.62 138.031 189.95 138.401 190.81 139.311C191.61 140.161 191.6 143.681 191.44 146.481C191.42 146.851 191.16 147.171 190.8 147.261C190.37 147.371 189.74 147.411 189.06 147.411Z" fill="#333333"/>
<path d="M198.28 146.61C196.01 146.61 193.9 146.15 193.77 146.12C193.31 146.02 193.02 145.56 193.13 145.11C193.23 144.65 193.69 144.37 194.14 144.47C194.18 144.47 197.84 145.28 200.37 144.73C200.46 141.71 200.49 138.53 200.4 137.58C199.77 137.33 197.95 137.01 196.89 137.18C196.42 137.25 195.99 136.93 195.92 136.47C195.85 136.01 196.17 135.57 196.63 135.5C198.02 135.29 201.25 135.66 201.87 136.61C202.04 136.86 202.31 137.29 202.05 145.41C202.04 145.77 201.81 146.08 201.47 146.19C200.51 146.51 199.38 146.61 198.29 146.61H198.28Z" fill="#333333"/>
<path d="M209.02 148.81C207.27 148.81 205.97 148.39 205.88 148.36C205.43 148.21 205.19 147.73 205.34 147.29C205.49 146.84 205.96 146.6 206.41 146.75C206.41 146.75 208.84 147.52 211.26 146.81L210.81 142.25C210.36 141.83 209.83 141.45 209.62 141.42C209.16 141.45 208.76 141.09 208.74 140.63C208.71 140.16 209.08 139.76 209.55 139.73C210.54 139.68 211.76 140.78 212.23 141.27C212.36 141.41 212.45 141.59 212.47 141.78L213.01 147.31C213.05 147.68 212.83 148.04 212.48 148.18C211.28 148.66 210.07 148.82 209.01 148.82L209.02 148.81Z" fill="#333333"/>
<path d="M220.57 168.961C218.82 168.961 216.59 168.781 216.25 168.751C215.78 168.711 215.44 168.301 215.48 167.831C215.52 167.361 215.94 167.021 216.4 167.061C218.02 167.201 220.81 167.351 221.82 167.211C222.22 166.351 222.01 162.791 221.69 161.681C221.07 161.511 219.75 161.201 218.82 160.991C218.36 160.891 218.08 160.431 218.18 159.971C218.28 159.511 218.73 159.231 219.2 159.331C219.67 159.441 222.06 159.981 222.56 160.161C223.92 160.641 223.72 166.051 223.71 166.101C223.64 167.161 223.43 168.591 222.35 168.831C221.95 168.921 221.31 168.951 220.58 168.951L220.57 168.961Z" fill="#333333"/>
<path d="M183.63 195.16C183.52 195.16 183.41 195.14 183.3 195.09C182.87 194.91 182.67 194.41 182.85 193.98L185.78 187.1C185.96 186.67 186.46 186.47 186.89 186.65C187.32 186.83 187.52 187.33 187.34 187.76L184.41 194.64C184.27 194.96 183.96 195.16 183.63 195.16Z" fill="#333333"/>
<path d="M187.15 195.621C186.84 195.621 186.55 195.461 186.4 195.171L182.3 187.381C182.08 186.961 182.24 186.451 182.66 186.231C183.07 186.011 183.59 186.171 183.81 186.591L187.91 194.381C188.13 194.801 187.97 195.311 187.55 195.531C187.42 195.601 187.29 195.631 187.16 195.631L187.15 195.621Z" fill="#333333"/>
<path d="M196.86 198.771C196.75 198.771 196.64 198.751 196.53 198.701C196.1 198.521 195.9 198.021 196.08 197.591L199.01 190.711C199.19 190.281 199.69 190.081 200.12 190.261C200.55 190.441 200.75 190.941 200.57 191.371L197.64 198.251C197.5 198.571 197.19 198.771 196.86 198.771Z" fill="#333333"/>
<path d="M200.37 199.231C200.06 199.231 199.77 199.061 199.62 198.781L195.52 190.991C195.3 190.571 195.46 190.061 195.88 189.841C196.29 189.621 196.81 189.781 197.03 190.201L201.13 197.991C201.35 198.411 201.19 198.921 200.77 199.141C200.64 199.211 200.51 199.241 200.38 199.241L200.37 199.231Z" fill="#333333"/>
<path d="M209.48 201.342C209.37 201.342 209.26 201.322 209.15 201.272C208.72 201.092 208.52 200.592 208.7 200.162L211.63 193.282C211.81 192.852 212.31 192.652 212.74 192.832C213.17 193.012 213.37 193.512 213.19 193.942L210.26 200.822C210.12 201.142 209.81 201.342 209.48 201.342Z" fill="#333333"/>
<path d="M212.999 201.801C212.699 201.801 212.399 201.631 212.249 201.351L208.149 193.561C207.929 193.141 208.089 192.631 208.509 192.411C208.929 192.191 209.439 192.351 209.659 192.771L213.759 200.561C213.979 200.981 213.819 201.491 213.399 201.711C213.269 201.781 213.139 201.811 213.009 201.811L212.999 201.801Z" fill="#333333"/>
<path d="M123.91 261.511C123.63 261.511 123.36 261.371 123.2 261.121C122.95 260.731 123.06 260.201 123.45 259.951L134.36 252.921C134.75 252.671 135.28 252.781 135.53 253.171C135.78 253.561 135.67 254.091 135.28 254.341L124.37 261.371C124.23 261.461 124.07 261.511 123.91 261.511Z" fill="#333333"/>
<path d="M257.6 229.791C269.28 240.211 288.31 250.591 292.92 257.511Z" fill="#ADBBD9"/>
<path d="M292.92 258.361C292.65 258.361 292.38 258.231 292.21 257.981C289.71 254.231 282.52 249.221 274.91 243.911C268.66 239.551 262.2 235.041 257.03 230.431C256.68 230.121 256.65 229.581 256.96 229.231C257.27 228.881 257.81 228.851 258.16 229.161C263.25 233.701 269.67 238.181 275.88 242.511C283.96 248.151 290.94 253.021 293.62 257.031C293.88 257.421 293.77 257.951 293.38 258.211C293.23 258.311 293.07 258.351 292.91 258.351L292.92 258.361Z" fill="#2B2B2B"/>
<path d="M188.72 250.721C187.19 250.721 185.69 250.201 184.49 249.241C181.55 246.911 181.06 242.621 183.39 239.681C184.69 238.051 186.63 237.111 188.72 237.111C190.25 237.111 191.75 237.631 192.95 238.591C194.37 239.721 195.27 241.341 195.48 243.141C195.69 244.951 195.18 246.721 194.05 248.151C192.75 249.781 190.81 250.721 188.72 250.721ZM188.72 238.811C187.15 238.811 185.69 239.511 184.72 240.741C182.97 242.941 183.34 246.161 185.54 247.911C186.45 248.631 187.55 249.021 188.71 249.021C190.28 249.021 191.74 248.321 192.71 247.091C193.56 246.021 193.94 244.691 193.78 243.331C193.63 241.971 192.95 240.761 191.88 239.911C190.97 239.191 189.87 238.801 188.71 238.801L188.72 238.811Z" fill="#333333"/>
<path d="M190.19 249.941C189.85 249.941 189.53 249.731 189.4 249.391L187.79 245.161L182.73 244.901C182.26 244.881 181.9 244.481 181.93 244.011C181.95 243.541 182.36 243.181 182.82 243.211L188.43 243.491C188.77 243.511 189.06 243.721 189.18 244.041L190.98 248.781C191.15 249.221 190.93 249.711 190.49 249.871C190.39 249.911 190.29 249.931 190.19 249.931V249.941Z" fill="#333333"/>
<path d="M185.31 249.321C185.13 249.321 184.94 249.261 184.78 249.141C184.41 248.851 184.35 248.311 184.64 247.951L191.63 239.151C191.92 238.781 192.46 238.721 192.82 239.011C193.19 239.301 193.25 239.841 192.96 240.201L185.97 249.001C185.8 249.211 185.55 249.321 185.3 249.321H185.31Z" fill="#333333"/>
<path d="M183.34 240.11C184.19 239.03 184.01 237.47 182.94 236.62C181.86 235.77 180.3 235.95 179.45 237.02C178.6 238.1 178.78 239.66 179.85 240.51C180.93 241.36 182.49 241.18 183.34 240.11Z" fill="#A1C3FF"/>
<path d="M181.39 241.89C180.64 241.89 179.9 241.63 179.32 241.17C178.62 240.62 178.18 239.82 178.08 238.94C177.98 238.05 178.23 237.18 178.78 236.49C179.42 235.69 180.37 235.23 181.39 235.23C182.14 235.23 182.87 235.49 183.46 235.95C184.9 237.09 185.14 239.2 184 240.64C183.36 241.44 182.41 241.9 181.39 241.9V241.89ZM181.39 236.92C180.89 236.92 180.42 237.15 180.11 237.54C179.84 237.88 179.72 238.31 179.77 238.74C179.82 239.18 180.04 239.56 180.38 239.84C180.67 240.07 181.02 240.2 181.4 240.2C181.9 240.2 182.37 239.97 182.68 239.58C183.24 238.87 183.12 237.84 182.42 237.28C182.13 237.05 181.78 236.92 181.4 236.92H181.39Z" fill="#333333"/>
<path d="M179.27 236.88C180.12 235.8 179.94 234.24 178.87 233.39C177.79 232.54 176.23 232.72 175.38 233.79C174.53 234.87 174.71 236.43 175.78 237.28C176.86 238.13 178.42 237.95 179.27 236.88Z" fill="#A1C3FF"/>
<path d="M177.331 238.67C176.581 238.67 175.841 238.41 175.261 237.95C173.821 236.81 173.581 234.7 174.721 233.26C175.361 232.46 176.311 232 177.331 232C178.081 232 178.821 232.26 179.401 232.72C180.101 233.27 180.541 234.07 180.641 234.95C180.741 235.84 180.491 236.71 179.941 237.4C179.301 238.2 178.351 238.66 177.331 238.66V238.67ZM177.331 233.7C176.831 233.7 176.361 233.93 176.051 234.32C175.491 235.03 175.611 236.06 176.311 236.62C176.601 236.85 176.951 236.98 177.331 236.98C177.831 236.98 178.301 236.75 178.611 236.36C178.881 236.02 179.001 235.59 178.951 235.16C178.901 234.72 178.681 234.34 178.341 234.06C178.051 233.83 177.701 233.7 177.321 233.7H177.331Z" fill="#333333"/>
<path d="M174.53 233.11C175.38 232.03 175.2 230.47 174.13 229.62C173.05 228.77 171.49 228.95 170.64 230.02C169.79 231.1 169.97 232.66 171.04 233.51C172.11 234.36 173.68 234.18 174.53 233.11Z" fill="#A1C3FF"/>
<path d="M172.59 234.9C171.84 234.9 171.1 234.64 170.52 234.18C169.08 233.04 168.84 230.93 169.98 229.49C170.62 228.69 171.57 228.23 172.59 228.23C173.34 228.23 174.08 228.49 174.66 228.95C176.1 230.09 176.34 232.2 175.2 233.64C174.56 234.44 173.61 234.9 172.59 234.9ZM172.59 229.93C172.09 229.93 171.62 230.16 171.31 230.55C170.75 231.26 170.87 232.29 171.57 232.85C171.86 233.08 172.21 233.21 172.59 233.21C173.09 233.21 173.56 232.98 173.87 232.59C174.43 231.88 174.31 230.85 173.61 230.29C173.32 230.06 172.97 229.93 172.59 229.93Z" fill="#333333"/>
<path d="M169.79 229.351C170.64 228.271 170.46 226.711 169.39 225.861C168.31 225.011 166.75 225.191 165.9 226.261C165.05 227.331 165.23 228.901 166.3 229.751C167.38 230.601 168.94 230.421 169.79 229.351Z" fill="#A1C3FF"/>
<path d="M167.85 231.141C167.1 231.141 166.37 230.881 165.78 230.421C164.34 229.281 164.1 227.171 165.24 225.731C165.88 224.931 166.83 224.471 167.85 224.471C168.6 224.471 169.33 224.731 169.92 225.191C171.36 226.331 171.6 228.441 170.46 229.881C169.82 230.681 168.87 231.141 167.85 231.141ZM167.85 226.171C167.35 226.171 166.88 226.401 166.57 226.791C166.01 227.501 166.13 228.531 166.83 229.091C167.12 229.321 167.47 229.451 167.85 229.451C168.35 229.451 168.82 229.221 169.13 228.831C169.69 228.121 169.57 227.091 168.87 226.531C168.58 226.301 168.23 226.181 167.85 226.181V226.171Z" fill="#333333"/>
<path d="M197.56 251.401C198.41 250.321 198.23 248.761 197.16 247.911C196.08 247.061 194.52 247.241 193.67 248.311C192.82 249.391 193 250.951 194.07 251.801C195.15 252.651 196.71 252.471 197.56 251.401Z" fill="#A1C3FF"/>
<path d="M195.61 253.191C194.86 253.191 194.13 252.931 193.54 252.471C192.1 251.331 191.86 249.221 193 247.781C193.64 246.981 194.59 246.521 195.61 246.521C196.36 246.521 197.1 246.781 197.68 247.241C198.38 247.791 198.82 248.591 198.92 249.471C199.02 250.361 198.77 251.231 198.22 251.921C197.58 252.721 196.63 253.181 195.61 253.181V253.191ZM195.61 248.221C195.11 248.221 194.64 248.451 194.33 248.841C193.77 249.551 193.89 250.581 194.59 251.141C195.28 251.691 196.35 251.561 196.89 250.881C197.16 250.541 197.28 250.111 197.23 249.681C197.18 249.241 196.96 248.861 196.62 248.581C196.33 248.351 195.98 248.221 195.6 248.221H195.61Z" fill="#333333"/>
<path d="M202.3 255.161C203.15 254.081 202.97 252.521 201.9 251.671C200.82 250.821 199.26 251.001 198.41 252.071C197.56 253.151 197.74 254.711 198.81 255.561C199.89 256.411 201.45 256.231 202.3 255.161Z" fill="#A1C3FF"/>
<path d="M200.35 256.951C199.6 256.951 198.86 256.691 198.28 256.231C196.84 255.091 196.6 252.981 197.74 251.541C198.38 250.741 199.33 250.281 200.35 250.281C201.1 250.281 201.84 250.541 202.42 251.001C203.86 252.141 204.1 254.251 202.96 255.691C202.32 256.491 201.37 256.951 200.35 256.951ZM200.35 251.981C199.85 251.981 199.38 252.211 199.07 252.601C198.51 253.311 198.63 254.341 199.33 254.901C200.02 255.451 201.09 255.321 201.63 254.641C202.19 253.931 202.07 252.901 201.37 252.341C201.08 252.111 200.73 251.981 200.35 251.981Z" fill="#333333"/>
<path d="M207.03 258.931C207.88 257.851 207.7 256.291 206.63 255.441C205.55 254.591 203.99 254.771 203.14 255.841C202.29 256.921 202.47 258.481 203.54 259.331C204.62 260.181 206.18 260.001 207.03 258.931Z" fill="#A1C3FF"/>
<path d="M205.09 260.721C204.34 260.721 203.61 260.461 203.02 260.001C201.58 258.861 201.34 256.751 202.48 255.311C203.12 254.511 204.07 254.051 205.09 254.051C205.84 254.051 206.57 254.311 207.16 254.771C208.6 255.911 208.84 258.021 207.7 259.461C207.06 260.261 206.11 260.721 205.09 260.721ZM205.09 255.751C204.59 255.751 204.12 255.981 203.81 256.371C203.25 257.081 203.37 258.111 204.07 258.671C204.36 258.901 204.71 259.031 205.09 259.031C205.59 259.031 206.06 258.801 206.37 258.411C206.93 257.701 206.81 256.671 206.11 256.111C205.82 255.881 205.47 255.761 205.09 255.761V255.751Z" fill="#333333"/>
<path d="M175.9 59.3709C174.23 59.3709 172.59 58.3209 171.04 56.2509C170.76 55.8809 170.83 55.3409 171.21 55.0609C171.58 54.7809 172.12 54.8509 172.4 55.2309C173.68 56.9409 174.91 57.7409 176.08 57.6709C177.89 57.5309 179.17 55.2209 179.18 55.2009C179.4 54.7909 179.91 54.6309 180.33 54.8509C180.74 55.0709 180.9 55.5909 180.68 56.0009C180.61 56.1309 178.97 59.1509 176.21 59.3609C176.11 59.3609 176 59.3709 175.9 59.3709Z" fill="#333333"/>
<path d="M206.17 59.3709C204.5 59.3709 202.86 58.3209 201.31 56.2509C201.03 55.8809 201.1 55.3409 201.48 55.0609C201.85 54.7809 202.39 54.8509 202.67 55.2309C203.95 56.9309 205.19 57.7509 206.35 57.6709C208.18 57.5309 209.45 55.2209 209.46 55.2009C209.68 54.7909 210.2 54.6309 210.61 54.8509C211.02 55.0709 211.18 55.5809 210.96 56.0009C210.89 56.1309 209.25 59.1509 206.49 59.3609C206.39 59.3609 206.28 59.3709 206.18 59.3709H206.17Z" fill="#333333"/>
<path d="M176.94 50.0909C175.5 50.6809 173.97 51.1009 172.42 51.0709C172 51.0709 171.57 51.0209 171.22 50.8009C169.63 49.8309 171.53 48.5509 172.44 48.2309C173.78 47.7609 175.99 47.1909 177.34 47.8809C177.71 48.0709 178.02 48.4209 178.07 48.8409C178.16 49.4909 177.59 49.8209 177.08 50.0409C177.03 50.0609 176.99 50.0809 176.94 50.1009V50.0909Z" fill="#333333"/>
<path d="M202.87 50.0909C204.31 50.6809 205.84 51.1009 207.39 51.0709C207.81 51.0709 208.24 51.0209 208.59 50.8009C210.18 49.8309 208.28 48.5509 207.37 48.2309C206.03 47.7609 203.82 47.1909 202.47 47.8809C202.1 48.0709 201.79 48.4209 201.74 48.8409C201.65 49.4909 202.22 49.8209 202.73 50.0409C202.78 50.0609 202.82 50.0809 202.87 50.1009V50.0909Z" fill="#333333"/>
<path d="M53.8803 338.661C53.4103 338.661 53.0303 338.281 53.0303 337.811V170.661C53.0303 170.191 53.4103 169.811 53.8803 169.811C54.3503 169.811 54.7303 170.191 54.7303 170.661V337.811C54.7303 338.281 54.3503 338.661 53.8803 338.661Z" fill="#333333"/>
<path d="M55.39 152.73H52.36C52.2771 152.73 52.21 152.798 52.21 152.88V243.45C52.21 243.533 52.2771 243.6 52.36 243.6H55.39C55.4728 243.6 55.54 243.533 55.54 243.45V152.88C55.54 152.798 55.4728 152.73 55.39 152.73Z" fill="#333333"/>
<path d="M106.52 329.721C104.46 325.701 94.4301 326.271 84.1601 328.301C84.2201 317.521 82.8501 307.051 78.3901 305.781C74.8001 304.761 69.7801 309.881 65.0301 316.721C62.3601 305.651 58.2201 294.771 53.3201 294.671C48.6701 294.571 44.2901 304.221 41.1901 314.581C36.9201 308.861 32.5801 304.881 29.3701 305.791C24.9101 307.061 23.5401 317.521 23.6001 328.311C13.3301 326.281 3.29012 325.711 1.24012 329.731C-2.73988 337.491 24.5301 359.411 32.2901 363.381C39.6801 367.171 68.0801 367.171 75.4701 363.381C83.2301 359.401 110.5 337.481 106.52 329.731V329.721Z" fill="#CCD7F2"/>
<path d="M53.8703 367.06C46.0103 367.06 36.1203 366.29 31.8903 364.12C25.1803 360.68 -4.06967 338.18 0.470332 329.32C1.64033 327.03 4.92033 325.87 10.2103 325.87C13.6403 325.87 17.8503 326.34 22.7403 327.26C22.7703 317.66 23.9403 306.43 29.1303 304.96C32.1503 304.1 36.1103 306.71 40.8503 312.75C43.6803 303.76 47.9903 293.82 53.2403 293.82H53.3303C58.8403 293.94 62.8803 304.86 65.4003 314.72C70.8103 307.29 75.2803 304.02 78.6203 304.96C83.8103 306.43 84.9803 317.67 85.0103 327.26C89.9003 326.34 94.1103 325.87 97.5403 325.87C102.83 325.87 106.11 327.03 107.28 329.32C111.82 338.18 82.5703 360.68 75.8603 364.12C71.6403 366.28 61.7403 367.06 53.8803 367.06H53.8703ZM10.2103 327.58C5.67033 327.58 2.83033 328.45 1.98033 330.11C-1.52967 336.96 24.2703 358.32 32.6703 362.62C35.9303 364.29 44.2503 365.37 53.8703 365.37C63.4903 365.37 71.8103 364.29 75.0703 362.62C83.4703 358.32 109.27 336.96 105.76 330.11C104.91 328.46 102.07 327.58 97.5303 327.58C93.9803 327.58 89.5303 328.1 84.3103 329.14L83.2903 329.34V328.3C83.3603 315.65 81.4403 307.54 78.1403 306.6C75.4203 305.83 70.9403 309.67 65.7103 317.2L64.6303 318.75L64.1903 316.91C60.9803 303.58 56.9103 295.58 53.2903 295.51C49.8203 295.51 45.6103 302.73 41.9903 314.81L41.5103 316.43L40.5003 315.08C35.9403 308.97 32.0303 305.91 29.5903 306.6C26.3003 307.53 24.3703 315.65 24.4403 328.3V329.34L23.4303 329.14C18.2103 328.11 13.7603 327.58 10.2103 327.58Z" fill="#333333"/>
<path d="M58.0803 367.06C57.6803 367.06 57.3303 366.78 57.2503 366.38C57.1603 365.92 57.4603 365.47 57.9203 365.38C60.6303 364.84 62.7203 363.38 64.3303 360.9C70.6803 351.11 66.9803 329.13 64.2003 316.9C64.1003 316.44 64.3803 315.99 64.8403 315.88C65.3003 315.78 65.7503 316.06 65.8603 316.52C68.6903 329.01 72.4503 351.5 65.7503 361.82C63.9103 364.66 61.3903 366.41 58.2503 367.04C58.1903 367.05 58.1403 367.06 58.0803 367.06Z" fill="black"/>
<path d="M43.2399 366.58C43.1799 366.58 43.1099 366.58 43.0499 366.56C34.3199 364.54 33.4399 347.47 40.3599 314.4C40.4599 313.94 40.8999 313.64 41.3599 313.74C41.8199 313.84 42.1099 314.29 42.0199 314.74C33.7999 354.02 38.2499 363.69 43.4299 364.9C43.8899 365.01 44.1699 365.46 44.0599 365.92C43.9699 366.31 43.6199 366.58 43.2299 366.58H43.2399Z" fill="black"/>
<path d="M68.2707 337.41C67.8307 337.41 67.4607 337.08 67.4307 336.63C67.2307 334.3 82.2407 328.1 83.8707 327.5C84.3107 327.34 84.8007 327.57 84.9607 328.01C85.1207 328.45 84.8907 328.94 84.4507 329.1C78.2807 331.36 70.0607 335.7 69.0907 336.8C69.0007 337.13 68.7107 337.38 68.3407 337.41C68.3207 337.41 68.2907 337.41 68.2707 337.41Z" fill="black"/>
<path d="M37.4604 337.411C37.2204 337.411 36.9804 337.311 36.8104 337.111C36.7704 337.061 32.3304 331.851 23.3504 329.121C22.9004 328.981 22.6504 328.511 22.7804 328.061C22.9204 327.611 23.3904 327.361 23.8404 327.491C33.3404 330.371 37.9204 335.791 38.1104 336.021C38.4104 336.381 38.3604 336.911 38.0004 337.211C37.8404 337.341 37.6504 337.411 37.4604 337.411Z" fill="black"/>
<path d="M308.68 18.3496C308.12 18.3796 307.57 18.4696 307.02 18.5296C307.57 18.4396 308.12 18.3796 308.68 18.3496Z" fill="white"/>
<path d="M325.43 65.7001C325.43 74.3201 318.57 81.3401 310.02 81.6001C309.09 81.6001 308.17 81.5501 307.28 81.4601C307.16 81.4401 307.03 81.4201 306.91 81.4101C299.35 80.1601 293.6 73.6201 293.6 65.7001C293.6 57.7801 299.35 51.2201 306.9 49.9801C299.35 48.7301 293.6 42.1701 293.6 34.2701C293.6 33.7801 294.31 33.2801 294.36 32.7901C294.4 32.3201 295.24 31.8601 295.24 31.4001V31.3501C295.24 31.0301 294.67 30.7201 294.76 30.4201C294.76 30.3801 294.42 30.3701 294.43 30.3501C294.47 30.1601 294.35 29.9601 294.4 29.7901C294.52 29.3701 294.58 28.9601 294.74 28.5801C294.86 28.2301 294.96 27.8901 295.12 27.5801C295.77 26.1901 296.58 24.9101 297.58 23.7601C297.86 23.4401 298.11 23.1601 298.41 22.8801C298.64 22.6501 298.88 22.4201 299.14 22.2101C299.3 22.0501 299.47 21.9101 299.63 21.7901C300.28 21.2601 300.98 20.7901 301.72 20.3801C302.07 20.1701 302.42 19.9901 302.79 19.8201C302.84 19.8001 302.93 19.7701 303 19.7301C303.39 19.5501 303.77 19.4001 304.16 19.2501C304.23 19.2301 304.3 19.2001 304.37 19.1801C304.74 19.0601 305.11 18.9501 305.48 18.8501C305.55 18.8301 305.64 18.8101 305.71 18.8001C306.11 18.6901 306.54 18.6101 306.96 18.5501C306.98 18.5301 307 18.5301 307.01 18.5301C307.05 18.5301 307.08 18.5101 307.13 18.5101C307.66 18.4601 308.15 18.3901 308.68 18.3501C308.96 18.3301 309.23 18.3301 309.51 18.3301C318.3 18.3301 325.43 25.4701 325.43 34.2701C325.43 42.1701 319.68 48.7301 312.13 49.9801C319.68 51.2301 325.43 57.8101 325.43 65.7001Z" fill="black"/>
<path d="M310.51 18.2988C310.18 18.2988 309.84 18.2988 309.51 18.3388C318.3 18.3388 325.43 25.4788 325.43 34.2788C325.43 42.1788 319.68 48.7388 312.13 49.9888C311.29 49.8488 310.41 49.7788 309.51 49.7788C308.61 49.7788 307.73 49.8488 306.89 49.9888C299.34 51.2388 293.59 57.8188 293.59 65.7088C293.59 73.5988 299.34 80.1688 306.9 81.4188C307.02 81.4388 307.15 81.4588 307.27 81.4688C308.01 81.5788 308.75 81.6288 309.5 81.6288C309.68 81.6288 309.83 81.6288 310.01 81.6088C310.17 81.6288 310.34 81.6288 310.5 81.6288C327.98 81.6288 342.16 67.4488 342.16 49.9688C342.16 32.4888 327.98 18.3088 310.5 18.3088L310.51 18.2988Z" fill="#333333"/>
<path d="M310.51 82.0394C310.35 82.0394 310.18 82.0394 310.02 82.0194C309.08 82.0994 308.16 82.0094 307.22 81.8694L306.85 81.8194C298.92 80.5094 293.17 73.7294 293.17 65.6894C293.17 57.6494 298.91 50.8594 306.82 49.5494C308.51 49.2694 310.43 49.2594 312.13 49.5394C319.59 48.2694 325 41.8594 325 34.2594C325 25.7094 318.05 18.7494 309.51 18.7494L309.47 17.8994C309.82 17.8594 310.17 17.8594 310.52 17.8594C328.21 17.8594 342.6 32.2494 342.6 49.9394C342.6 67.6294 328.21 82.0194 310.52 82.0194L310.51 82.0394ZM310.02 81.1694H310.06C310.2 81.1894 310.36 81.1894 310.51 81.1894C327.73 81.1894 341.75 67.1794 341.75 49.9494C341.75 34.5294 330.52 21.6894 315.81 19.1594C321.7 21.6294 325.86 27.4694 325.86 34.2594C325.86 42.2894 320.12 49.0794 312.21 50.3794H312.14H312.07C310.44 50.1094 308.6 50.1094 306.97 50.3794C299.47 51.6194 294.03 58.0594 294.03 65.6894C294.03 73.3194 299.48 79.7394 306.99 80.9794L307.35 81.0294C308.09 81.1294 308.79 81.1494 309.56 81.1794C309.71 81.1794 309.84 81.1794 309.99 81.1594H310.03L310.02 81.1694Z" fill="#333333"/>
<path d="M309.51 18.3301C309.23 18.3301 308.96 18.3301 308.68 18.3501C308.15 18.3901 307.66 18.4601 307.13 18.5101C307.08 18.5101 307.04 18.5301 307.01 18.5301C307.01 18.5301 307.01 18.5301 307 18.5301C291.18 20.2801 278.85 33.6701 278.85 49.9601C278.85 66.2501 291.11 79.6301 306.9 81.4101C299.34 80.1601 293.59 73.6201 293.59 65.7001C293.59 57.7801 299.34 51.2201 306.89 49.9801C307.73 50.1201 308.61 50.1901 309.51 50.1901C310.41 50.1901 311.29 50.1201 312.13 49.9801C319.68 48.7301 325.43 42.1701 325.43 34.2701C325.43 25.4801 318.31 18.3301 309.51 18.3301ZM306.23 18.6801C306.48 18.6301 306.74 18.5701 306.99 18.5201C306.98 18.5201 306.97 18.5201 306.95 18.5301C306.7 18.5601 306.47 18.6201 306.22 18.6701L306.23 18.6801Z" fill="white"/>
<path d="M306.91 82.26C306.91 82.26 306.85 82.26 306.81 82.26C290.39 80.41 278 66.53 278 49.97C278 33.41 290.4 19.55 306.85 17.7C306.87 17.7 306.88 17.7 306.9 17.7C306.94 17.7 307 17.68 307.07 17.68L307.58 17.62C307.93 17.58 308.27 17.54 308.62 17.52C308.92 17.5 309.2 17.5 309.5 17.5C318.75 17.5 326.27 25.03 326.27 34.28C326.27 42.52 320.38 49.48 312.26 50.82C310.54 51.11 308.62 51.12 306.88 50.84C299.66 52.1 294.43 58.33 294.43 65.7C294.43 73.07 299.71 79.33 306.98 80.56C307.42 80.6 307.76 80.96 307.76 81.41C307.76 81.88 307.38 82.26 306.91 82.26C306.91 82.26 306.9 82.26 306.89 82.26H306.91ZM306.03 19.52C290.95 21.72 279.71 34.62 279.71 49.97C279.71 62.63 287.34 73.63 298.45 78.34C294.92 75.25 292.75 70.72 292.75 65.71C292.75 57.46 298.64 50.49 306.76 49.15C306.85 49.14 306.95 49.14 307.04 49.15C308.63 49.41 310.41 49.42 312 49.15C319.29 47.94 324.59 41.69 324.59 34.28C324.59 25.96 317.83 19.19 309.52 19.19C309.25 19.19 309.01 19.19 308.75 19.21C308.42 19.23 308.11 19.27 307.79 19.3L307.23 19.36C307.23 19.36 307.23 19.36 307.22 19.36C307.17 19.37 307.13 19.38 307.08 19.39C307.02 19.39 306.96 19.41 306.9 19.42L306.42 19.52C306.29 19.55 306.16 19.54 306.04 19.52H306.03Z" fill="#333333"/>
<path d="M313.7 32.2593C313.7 29.6493 311.58 27.5293 308.97 27.5293C306.36 27.5293 304.24 29.6493 304.24 32.2593C304.24 34.8693 306.36 36.9893 308.97 36.9893C311.58 36.9893 313.7 34.8693 313.7 32.2593Z" fill="#333333"/>
<path d="M313.7 63.9195C313.7 61.3095 311.58 59.1895 308.97 59.1895C306.36 59.1895 304.24 61.3095 304.24 63.9195C304.24 66.5295 306.36 68.6495 308.97 68.6495C311.58 68.6495 313.7 66.5295 313.7 63.9195Z" fill="white"/>
<path d="M31.9899 108.65C29.0899 107.28 26.5699 105.07 24.8799 102.34C22.5599 98.6003 21.8099 93.9203 22.8399 89.6403C23.7099 86.0203 26.0799 82.5303 29.6199 81.3803C32.1599 80.5603 35.0899 81.0903 37.1799 82.7403C40.0699 85.0303 40.1099 88.5103 40.9199 91.7903C41.9899 96.1403 45.6099 99.5503 46.1099 104.07C46.7299 109.7 39.4799 110.77 35.3399 109.82C34.1799 109.56 33.0599 109.16 31.9899 108.65Z" fill="#4257FF"/>
<path d="M80.7304 27.0092C80.7304 22.4192 77.0103 18.6992 72.4203 18.6992C67.8303 18.6992 64.1104 22.4192 64.1104 27.0092C64.1104 31.5992 67.8303 43.4792 72.4203 43.4792C77.0103 43.4792 80.7304 31.5992 80.7304 27.0092Z" fill="white"/>
<path d="M72.4205 44.3198C66.8605 44.3198 63.2705 31.4498 63.2705 26.9998C63.2705 21.9498 67.3805 17.8398 72.4205 17.8398C77.4605 17.8398 81.5705 21.9498 81.5705 26.9998C81.5705 31.4498 77.9705 44.3198 72.4205 44.3198ZM72.4205 19.5398C68.3105 19.5398 64.9605 22.8898 64.9605 26.9998C64.9605 31.7798 68.7805 42.6198 72.4205 42.6198C76.0605 42.6198 79.8805 31.7798 79.8805 26.9998C79.8805 22.8898 76.5305 19.5398 72.4205 19.5398Z" fill="#333333"/>
<path d="M80.7304 68.47C80.7304 73.06 77.0103 76.78 72.4203 76.78C67.8303 76.78 64.1104 73.06 64.1104 68.47C64.1104 63.88 67.8303 52 72.4203 52C77.0103 52 80.7304 63.88 80.7304 68.47Z" fill="white"/>
<path d="M72.4205 77.6206C67.3705 77.6206 63.2705 73.5106 63.2705 68.4606C63.2705 64.0106 66.8705 51.1406 72.4205 51.1406C77.9705 51.1406 81.5705 64.0106 81.5705 68.4606C81.5705 73.5106 77.4605 77.6206 72.4205 77.6206ZM72.4205 52.8406C68.7805 52.8406 64.9605 63.6806 64.9605 68.4606C64.9605 72.5706 68.3105 75.9206 72.4205 75.9206C76.5305 75.9206 79.8805 72.5706 79.8805 68.4606C79.8805 63.6806 76.0605 52.8406 72.4205 52.8406Z" fill="#333333"/>
<path d="M93.4397 56.0399C98.0297 56.0399 101.75 52.3199 101.75 47.7299C101.75 43.1399 98.0297 39.4199 93.4397 39.4199C88.8497 39.4199 76.9697 43.1399 76.9697 47.7299C76.9697 52.3199 88.8497 56.0399 93.4397 56.0399Z" fill="white"/>
<path d="M93.4401 56.8901C88.9901 56.8901 76.1201 53.2901 76.1201 47.7401C76.1201 42.1901 88.9901 38.5801 93.4401 38.5801C98.4901 38.5801 102.6 42.6901 102.6 47.7401C102.6 52.7901 98.4901 56.8901 93.4401 56.8901ZM93.4401 40.2801C88.6601 40.2801 77.8201 44.1001 77.8201 47.7401C77.8201 51.3801 88.6601 55.2001 93.4401 55.2001C97.5501 55.2001 100.9 51.8501 100.9 47.7401C100.9 43.6301 97.5501 40.2801 93.4401 40.2801Z" fill="#333333"/>
<path d="M51.9799 56.0399C47.3899 56.0399 43.6699 52.3199 43.6699 47.7299C43.6699 43.1399 47.3899 39.4199 51.9799 39.4199C56.5699 39.4199 68.4499 43.1399 68.4499 47.7299C68.4499 52.3199 56.5699 56.0399 51.9799 56.0399Z" fill="white"/>
<path d="M51.9803 56.8901C46.9303 56.8901 42.8203 52.7801 42.8203 47.7401C42.8203 42.7001 46.9303 38.5801 51.9803 38.5801C56.4303 38.5801 69.3003 42.1801 69.3003 47.7401C69.3003 53.3001 56.4303 56.8901 51.9803 56.8901ZM51.9803 40.2801C47.8703 40.2801 44.5203 43.6301 44.5203 47.7401C44.5203 51.8501 47.8703 55.2001 51.9803 55.2001C56.7603 55.2001 67.6003 51.3801 67.6003 47.7401C67.6003 44.1001 56.7603 40.2801 51.9803 40.2801Z" fill="#333333"/>
<path d="M93.2399 38.5197C96.4799 35.2797 96.4799 30.0197 93.2399 26.7697C89.9999 23.5197 84.7399 23.5297 81.4899 26.7697C78.2399 30.0097 72.4699 41.0497 75.7199 44.2897C78.9699 47.5297 89.9999 41.7597 93.2399 38.5197Z" fill="white"/>
<path d="M78.6101 46.1002C77.1001 46.1002 75.9301 45.6902 75.1301 44.8902C71.2001 40.9602 77.7501 29.3202 80.9001 26.1702C82.6301 24.4402 84.9301 23.4902 87.3701 23.4902C89.8101 23.4902 92.1101 24.4402 93.8401 26.1702C95.5701 27.9002 96.5201 30.2002 96.5201 32.6402C96.5201 35.0802 95.5701 37.3802 93.8401 39.1102C91.0301 41.9202 83.4001 46.0902 78.6101 46.0902V46.1002ZM87.3701 25.1902C85.3801 25.1902 83.5101 25.9602 82.1001 27.3702C78.7201 30.7502 73.7601 41.1202 76.3301 43.6902C76.8001 44.1602 77.5701 44.4002 78.6201 44.4002C82.7901 44.4002 90.0901 40.4802 92.6501 37.9202C94.0601 36.5102 94.8301 34.6402 94.8301 32.6502C94.8301 30.6602 94.0601 28.7902 92.6501 27.3802C91.2401 25.9702 89.3701 25.2002 87.3801 25.2002L87.3701 25.1902Z" fill="#333333"/>
<path d="M63.93 67.8395C60.69 71.0795 55.43 71.0795 52.18 67.8395C48.94 64.5995 48.94 59.3395 52.18 56.0895C55.42 52.8495 66.46 47.0695 69.7 50.3195C72.94 53.5595 67.17 64.5995 63.93 67.8395Z" fill="white"/>
<path d="M58.0504 71.1195C55.6004 71.1195 53.3104 70.1695 51.5804 68.4395C49.8504 66.7095 48.9004 64.4095 48.9004 61.9695C48.9004 59.5295 49.8504 57.2295 51.5804 55.4995C54.3904 52.6895 62.0204 48.5195 66.8104 48.5195C68.3204 48.5195 69.4904 48.9295 70.3004 49.7295C74.2304 53.6595 67.6804 65.2995 64.5304 68.4495C62.8004 70.1795 60.5004 71.1295 58.0604 71.1295L58.0504 71.1195ZM66.8104 50.2095C62.6404 50.2095 55.3404 54.1295 52.7804 56.6895C51.3704 58.0995 50.6004 59.9695 50.6004 61.9595C50.6004 63.9495 51.3804 65.8195 52.7804 67.2295C54.1904 68.6395 56.0604 69.4095 58.0504 69.4095C60.0404 69.4095 61.9104 68.6295 63.3204 67.2295C66.7004 63.8495 71.6604 53.4795 69.0904 50.9095C68.6204 50.4395 67.8504 50.1995 66.8004 50.1995L66.8104 50.2095Z" fill="#333333"/>
<path d="M52.18 38.5198C48.94 35.2798 48.94 30.0198 52.18 26.7698C55.42 23.5298 60.68 23.5298 63.93 26.7698C67.17 30.0098 72.95 41.0498 69.7 44.2898C66.46 47.5298 55.42 41.7598 52.18 38.5198Z" fill="white"/>
<path d="M66.8104 46.1C62.0204 46.1 54.3904 41.93 51.5804 39.12C49.8504 37.39 48.9004 35.09 48.9004 32.65C48.9004 30.21 49.8504 27.91 51.5804 26.18C53.3104 24.45 55.6104 23.5 58.0504 23.5C60.4904 23.5 62.7904 24.45 64.5204 26.18C67.6704 29.33 74.2204 40.97 70.2904 44.9C69.4904 45.7 68.3204 46.11 66.8104 46.11V46.1ZM58.0504 25.19C56.0604 25.19 54.1904 25.96 52.7804 27.37C51.3704 28.78 50.6004 30.65 50.6004 32.64C50.6004 34.63 51.3804 36.5 52.7804 37.91C55.3404 40.47 62.6504 44.39 66.8104 44.39C67.8604 44.39 68.6204 44.15 69.0904 43.68C70.2204 42.55 69.9804 39.62 68.4504 35.84C66.9604 32.15 64.7404 28.78 63.3204 27.36C61.9104 25.95 60.0404 25.18 58.0504 25.18V25.19Z" fill="#333333"/>
<path d="M81.4996 67.8405C84.7396 71.0805 89.9996 71.0805 93.2496 67.8405C96.4996 64.6005 96.4896 59.3405 93.2496 56.0905C90.0096 52.8405 78.9696 47.0705 75.7296 50.3205C72.4896 53.5705 78.2596 64.6005 81.4996 67.8405Z" fill="white"/>
<path d="M87.3701 71.1198C84.9201 71.1198 82.6301 70.1698 80.9001 68.4398C77.7501 65.2898 71.2001 53.6498 75.1301 49.7198C75.9301 48.9198 77.1001 48.5098 78.6201 48.5098C83.4101 48.5098 91.0401 52.6798 93.8501 55.4898C95.5801 57.2198 96.5301 59.5198 96.5301 61.9598C96.5301 64.3998 95.5801 66.6998 93.8501 68.4298C92.1201 70.1598 89.8201 71.1098 87.3801 71.1098L87.3701 71.1198ZM78.6101 50.2098C77.5601 50.2098 76.8001 50.4498 76.3201 50.9198C73.7501 53.4898 78.7101 63.8598 82.0901 67.2398C83.5001 68.6498 85.3701 69.4198 87.3601 69.4198C89.3501 69.4198 91.2201 68.6398 92.6301 67.2398C94.0401 65.8298 94.8101 63.9598 94.8101 61.9698C94.8101 59.9798 94.0401 58.1098 92.6301 56.6998C90.0701 54.1398 82.7701 50.2198 78.6001 50.2198L78.6101 50.2098Z" fill="#333333"/>
<path d="M72.4203 55.37C77.0098 55.37 80.7304 51.6495 80.7304 47.06C80.7304 42.4705 77.0098 38.75 72.4203 38.75C67.8309 38.75 64.1104 42.4705 64.1104 47.06C64.1104 51.6495 67.8309 55.37 72.4203 55.37Z" fill="#A1C3FF"/>
<path d="M72.4205 56.2102C67.3705 56.2102 63.2705 52.1002 63.2705 47.0602C63.2705 42.0202 67.3805 37.9102 72.4205 37.9102C77.4605 37.9102 81.5705 42.0202 81.5705 47.0602C81.5705 52.1002 77.4605 56.2102 72.4205 56.2102ZM72.4205 39.6002C68.3105 39.6002 64.9605 42.9502 64.9605 47.0602C64.9605 51.1702 68.3105 54.5202 72.4205 54.5202C76.5305 54.5202 79.8805 51.1702 79.8805 47.0602C79.8805 42.9502 76.5305 39.6002 72.4205 39.6002Z" fill="#333333"/>
<path d="M329.71 132.239C329.71 127.379 325.77 123.439 320.91 123.439C316.05 123.439 312.11 127.379 312.11 132.239C312.11 137.099 316.05 149.689 320.91 149.689C325.77 149.689 329.71 137.099 329.71 132.239Z" fill="white"/>
<path d="M320.911 150.53C315.161 150.53 311.261 136.8 311.261 132.23C311.261 126.91 315.591 122.58 320.911 122.58C326.231 122.58 330.561 126.91 330.561 132.23C330.561 136.79 326.661 150.53 320.911 150.53ZM320.911 124.28C316.531 124.28 312.961 127.85 312.961 132.23C312.961 137.31 317.031 148.83 320.911 148.83C324.791 148.83 328.861 137.31 328.861 132.23C328.861 127.85 325.291 124.28 320.911 124.28Z" fill="#2B2B2B"/>
<path d="M329.71 176.159C329.71 181.019 325.77 184.959 320.91 184.959C316.05 184.959 312.11 181.019 312.11 176.159C312.11 171.299 316.05 158.709 320.91 158.709C325.77 158.709 329.71 171.299 329.71 176.159Z" fill="white"/>
<path d="M320.911 185.809C315.591 185.809 311.261 181.479 311.261 176.159C311.261 171.599 315.161 157.859 320.911 157.859C326.661 157.859 330.561 171.589 330.561 176.159C330.561 181.479 326.231 185.809 320.911 185.809ZM320.911 159.559C317.031 159.559 312.961 171.079 312.961 176.159C312.961 180.539 316.531 184.109 320.911 184.109C325.291 184.109 328.861 180.539 328.861 176.159C328.861 171.079 324.791 159.559 320.911 159.559Z" fill="#2B2B2B"/>
<path d="M343.18 163C348.04 163 351.98 159.06 351.98 154.2C351.98 149.34 348.04 145.4 343.18 145.4C338.32 145.4 325.73 149.34 325.73 154.2C325.73 159.06 338.32 163 343.18 163Z" fill="white"/>
<path d="M343.181 163.851C338.621 163.851 324.881 159.951 324.881 154.201C324.881 148.451 338.611 144.551 343.181 144.551C348.501 144.551 352.831 148.881 352.831 154.201C352.831 159.521 348.501 163.851 343.181 163.851ZM343.181 146.251C338.101 146.251 326.581 150.321 326.581 154.201C326.581 158.081 338.101 162.151 343.181 162.151C347.561 162.151 351.131 158.581 351.131 154.201C351.131 149.821 347.561 146.251 343.181 146.251Z" fill="#2B2B2B"/>
<path d="M299.26 163C294.4 163 290.46 159.06 290.46 154.2C290.46 149.34 294.4 145.4 299.26 145.4C304.12 145.4 316.71 149.34 316.71 154.2C316.71 159.06 304.12 163 299.26 163Z" fill="white"/>
<path d="M299.26 163.851C293.94 163.851 289.61 159.521 289.61 154.201C289.61 148.881 293.94 144.551 299.26 144.551C303.82 144.551 317.56 148.451 317.56 154.201C317.56 159.951 303.83 163.851 299.26 163.851ZM299.26 146.251C294.88 146.251 291.31 149.821 291.31 154.201C291.31 158.581 294.88 162.151 299.26 162.151C304.34 162.151 315.86 158.081 315.86 154.201C315.86 150.321 304.34 146.251 299.26 146.251Z" fill="#2B2B2B"/>
<path d="M342.97 144.44C346.41 141 346.41 135.43 342.97 132C339.53 128.57 333.96 128.56 330.53 132C327.09 135.44 320.98 147.12 324.42 150.56C327.86 154 339.54 147.88 342.98 144.45L342.97 144.44Z" fill="white"/>
<path d="M327.471 152.411C325.881 152.411 324.651 151.981 323.811 151.151C321.561 148.901 322.731 144.361 324.101 140.951C325.591 137.251 327.991 133.321 329.921 131.391C331.741 129.571 334.171 128.561 336.741 128.561C339.311 128.561 341.741 129.561 343.561 131.391C345.381 133.211 346.391 135.631 346.391 138.211C346.391 140.791 345.391 143.211 343.561 145.031C340.591 148.001 332.521 152.411 327.461 152.411H327.471ZM336.751 130.261C334.631 130.261 332.631 131.091 331.131 132.591C329.621 134.101 327.261 137.671 325.681 141.591C324.051 145.621 323.801 148.741 325.011 149.951C325.521 150.461 326.341 150.721 327.471 150.721C331.901 150.721 339.651 146.561 342.371 143.841C343.871 142.341 344.701 140.341 344.701 138.221C344.701 136.101 343.871 134.101 342.371 132.601C340.871 131.101 338.871 130.271 336.751 130.271V130.261Z" fill="#2B2B2B"/>
<path d="M311.911 175.491C308.471 178.931 302.901 178.931 299.471 175.491C296.031 172.051 296.031 166.481 299.471 163.051C302.911 159.611 314.591 153.501 318.031 156.941C321.471 160.381 315.351 172.061 311.921 175.501L311.911 175.491Z" fill="white"/>
<path d="M305.691 178.92C303.111 178.92 300.691 177.92 298.871 176.09C295.111 172.33 295.111 166.21 298.871 162.45C301.841 159.48 309.911 155.07 314.971 155.07C316.561 155.07 317.791 155.5 318.631 156.33C322.701 160.4 315.741 172.86 312.511 176.09C310.691 177.91 308.261 178.92 305.691 178.92ZM314.971 156.77C310.541 156.77 302.781 160.93 300.071 163.65C296.971 166.75 296.971 171.79 300.071 174.89C301.571 176.39 303.571 177.22 305.691 177.22C307.811 177.22 309.811 176.39 311.311 174.89C314.901 171.3 320.171 160.27 317.431 157.53C316.921 157.02 316.091 156.76 314.971 156.76V156.77Z" fill="#2B2B2B"/>
<path d="M299.47 144.44C296.03 141 296.03 135.43 299.47 132C302.91 128.56 308.48 128.56 311.91 132C315.34 135.44 321.46 147.12 318.02 150.56C314.58 154 302.9 147.88 299.46 144.45L299.47 144.44Z" fill="white"/>
<path d="M314.97 152.411C309.91 152.411 301.84 148.001 298.87 145.031C297.05 143.211 296.04 140.781 296.04 138.211C296.04 135.641 297.04 133.211 298.87 131.391C300.69 129.571 303.12 128.561 305.69 128.561C308.26 128.561 310.69 129.561 312.51 131.391C314.44 133.321 316.84 137.251 318.33 140.951C319.71 144.361 320.88 148.891 318.62 151.151C317.78 151.991 316.55 152.411 314.96 152.411H314.97ZM305.69 130.261C303.57 130.261 301.57 131.091 300.07 132.591C298.57 134.091 297.74 136.091 297.74 138.211C297.74 140.331 298.57 142.331 300.07 143.831C302.79 146.551 310.54 150.711 314.97 150.711C316.09 150.711 316.92 150.451 317.43 149.941C318.64 148.731 318.39 145.601 316.76 141.581C315.18 137.671 312.82 134.091 311.31 132.581C309.81 131.081 307.81 130.251 305.69 130.251V130.261Z" fill="#2B2B2B"/>
<path d="M330.521 175.49C333.961 178.93 339.531 178.93 342.961 175.49C346.391 172.05 346.401 166.48 342.961 163.05C339.521 159.62 327.841 153.5 324.401 156.94C320.961 160.38 327.081 172.06 330.511 175.5L330.521 175.49Z" fill="white"/>
<path d="M336.751 178.92C334.171 178.92 331.751 177.92 329.931 176.09C326.701 172.86 319.751 160.4 323.811 156.33C324.651 155.49 325.881 155.07 327.471 155.07C332.531 155.07 340.601 159.48 343.571 162.45C347.331 166.21 347.331 172.33 343.571 176.09C341.751 177.91 339.321 178.92 336.751 178.92ZM327.471 156.77C326.351 156.77 325.521 157.03 325.011 157.54C322.271 160.28 327.531 171.31 331.131 174.9C332.631 176.4 334.631 177.23 336.751 177.23C338.871 177.23 340.871 176.4 342.371 174.9C345.471 171.8 345.471 166.76 342.371 163.66C339.651 160.94 331.901 156.78 327.471 156.78V156.77Z" fill="#2B2B2B"/>
<path d="M329.042 156.811C330.891 152.316 328.747 147.173 324.253 145.324C319.759 143.474 314.616 145.618 312.766 150.112C310.916 154.607 313.06 159.749 317.555 161.599C322.049 163.449 327.192 161.305 329.042 156.811Z" fill="#A1C3FF"/>
<path d="M320.91 163.13C315.59 163.13 311.26 158.8 311.26 153.48C311.26 148.16 315.59 143.83 320.91 143.83C326.23 143.83 330.56 148.16 330.56 153.48C330.56 158.8 326.23 163.13 320.91 163.13ZM320.91 145.53C316.53 145.53 312.96 149.1 312.96 153.48C312.96 157.86 316.53 161.43 320.91 161.43C325.29 161.43 328.86 157.86 328.86 153.48C328.86 149.1 325.29 145.53 320.91 145.53Z" fill="#333333"/>
<path d="M299.56 262.59C294.61 259.36 294.23 258.39 297.01 254.78C299.79 251.18 306.77 248.33 311.57 250.43C316.37 252.53 318.4 255.46 315.4 258.46C312.4 261.46 313.15 261.76 306.77 262.51C300.39 263.26 299.56 262.59 299.56 262.59Z" fill="#333333"/>
<path d="M328.311 311.599C334.391 309.799 346.101 306.419 343.851 296.289C341.601 286.159 335.071 282.329 322.011 281.649C308.951 280.969 276.211 282.899 278.551 305.519C279.901 318.579 328.311 311.599 328.311 311.599Z" fill="#CCD7F2"/>
<path d="M302.711 314.309C286.711 314.309 278.301 311.379 277.701 305.609C277.121 300.019 278.581 295.249 282.041 291.419C290.761 281.749 309.881 280.699 317.701 280.699C319.211 280.699 320.671 280.739 322.051 280.809C335.871 281.529 342.421 285.959 344.681 296.109C347.081 306.929 334.671 310.609 328.711 312.369L328.561 312.419C328.561 312.419 328.481 312.439 328.441 312.449C328.311 312.469 315.311 314.319 302.721 314.319L302.711 314.309ZM317.701 282.389C310.111 282.389 291.571 283.379 283.301 292.549C280.181 296.009 278.871 300.339 279.391 305.429C279.881 310.129 287.941 312.609 302.711 312.609C314.751 312.609 327.161 310.899 328.131 310.759L328.221 310.729C334.111 308.979 345.081 305.739 343.021 296.459C340.941 287.079 335.031 283.159 321.961 282.489C320.611 282.419 319.171 282.379 317.701 282.379V282.389Z" fill="#333333"/>
<path d="M263.531 343.499C264.401 329.599 290.551 311.679 322.371 310.469C354.191 309.269 363.201 325.479 363.201 336.889C363.201 348.299 346.991 363.909 321.171 365.709C295.351 367.509 262.931 353.099 263.531 343.489V343.499Z" fill="#333333"/>
<path d="M323.301 344.649C323.601 344.129 323.901 343.609 324.201 343.089C331.681 330.499 344.291 322.219 357.211 321.359C356.961 321.079 356.701 320.799 356.431 320.519C343.471 321.659 330.921 330.019 323.431 342.629C323.121 343.149 322.821 343.669 322.521 344.199C321.271 346.379 319.981 348.639 318.131 350.339C313.331 354.759 305.851 354.579 300.651 354.059C297.691 353.759 294.691 353.219 292.711 351.309C290.901 349.559 290.641 347.309 290.731 345.739C290.921 342.629 292.681 339.379 295.221 337.459C298.921 334.659 303.681 333.719 308.291 332.799C309.131 332.629 309.971 332.469 310.811 332.289C320.381 330.249 326.941 326.689 330.861 321.389C332.881 318.659 334.491 314.309 332.781 310.719C332.441 310.689 332.101 310.659 331.751 310.629C331.751 310.629 331.761 310.649 331.771 310.649C333.691 313.949 332.091 318.209 330.141 320.849C326.361 325.959 319.971 329.419 310.631 331.409C309.801 331.589 308.961 331.749 308.121 331.919C303.411 332.849 298.541 333.819 294.681 336.739C291.941 338.809 290.041 342.319 289.841 345.689C289.691 348.209 290.461 350.379 292.091 351.959C294.271 354.069 297.451 354.649 300.571 354.959C305.951 355.489 313.691 355.669 318.751 350.999C320.691 349.209 322.021 346.889 323.311 344.649H323.301Z" fill="white"/>
<path d="M269.461 351.848C270.301 351.188 271.131 350.488 271.911 349.698C276.071 345.478 278.801 340.178 281.431 335.058L290.421 317.578C289.981 317.768 289.541 317.968 289.111 318.158L280.631 334.648C278.031 339.708 275.341 344.948 271.271 349.068C270.461 349.888 269.601 350.618 268.721 351.288C268.961 351.478 269.221 351.668 269.471 351.848H269.461Z" fill="white"/>
<path d="M359.79 346.65C361.19 344.55 362.16 342.44 362.69 340.39C362.84 339.45 362.91 338.49 362.8 337.52C362.5 334.86 360.93 332.64 358.8 331.88C357.28 331.33 355.62 331.55 354.2 331.83C347.86 333.1 341.93 336.38 337.48 341.06C335.16 343.51 333.24 346.32 331.38 349.04L319.98 365.77C320.36 365.75 320.74 365.74 321.11 365.71L332.13 349.55C333.96 346.86 335.86 344.08 338.13 341.68C342.45 337.13 348.21 333.94 354.37 332.71C355.67 332.45 357.17 332.25 358.49 332.72C360.55 333.46 361.69 335.71 361.9 337.61C362.15 339.81 361.51 342 360.78 344.04C360.47 344.92 360.13 345.78 359.77 346.64L359.79 346.65Z" fill="white"/>
<path d="M338.23 362.06C338.12 362.14 338.01 362.22 337.9 362.3C338.76 362 339.59 361.67 340.42 361.33C343.56 358.25 345.65 354.15 346.23 349.77C346.25 349.65 346.21 349.52 346.13 349.42C346.05 349.32 345.93 349.27 345.81 349.26C342.17 349.08 338.36 350.9 335.26 354.22C333.01 356.62 331.34 359.5 329.71 362.28C329.39 362.84 329.06 363.4 328.73 363.95C328.55 364.25 328.37 364.53 328.19 364.82C328.59 364.75 328.99 364.69 329.38 364.61C329.42 364.54 329.46 364.48 329.51 364.41C329.84 363.85 330.17 363.29 330.49 362.74C332.09 360 333.74 357.17 335.92 354.84C338.7 351.87 342.08 350.19 345.27 350.16C344.52 354.83 341.98 359.15 338.24 362.07L338.23 362.06Z" fill="white"/>
<g opacity="0.23">
<path d="M344.671 340.421C342.201 340.311 339.661 340.031 337.491 338.701C336.541 338.121 335.701 337.351 334.811 336.671C331.951 334.461 328.621 333.061 325.191 332.611C321.951 332.191 318.371 332.521 315.751 330.301C312.541 327.591 312.461 321.301 315.611 318.501C316.651 317.571 317.921 317.031 319.181 316.581C329.431 312.921 341.101 314.801 350.061 321.551C352.451 323.351 354.751 325.641 355.631 328.741C356.721 332.611 355.081 337.231 351.931 339.151C349.751 340.481 347.151 340.541 344.681 340.431L344.671 340.421Z" fill="white"/>
</g>
<path d="M326.28 276.7C328.46 272.5 319.98 260.49 305.34 261.16C290.7 261.84 285.98 273.32 294.53 279.4C303.09 285.48 323.35 282.33 326.28 276.7Z" fill="#ADBBD9"/>
<path d="M307.881 283.55C302.091 283.55 297.181 282.32 294.041 280.09C290.241 277.39 288.651 273.46 289.791 269.58C291.341 264.31 297.431 260.67 305.301 260.31C315.711 259.83 322.941 265.51 325.871 270.33C327.471 272.96 327.891 275.42 327.031 277.08C324.851 281.28 315.531 283.54 307.881 283.54V283.55ZM306.521 261.98C306.141 261.98 305.761 261.98 305.381 262.01C298.241 262.34 292.761 265.5 291.421 270.06C290.491 273.21 291.841 276.44 295.031 278.71C297.881 280.74 302.451 281.86 307.891 281.86C316.031 281.86 323.951 279.37 325.541 276.31C326.111 275.22 325.681 273.27 324.441 271.22C321.851 266.96 315.611 261.98 306.541 261.98H306.521Z" fill="#333333"/>
<path d="M298.24 273.171L298.68 273.251C302.98 274.051 307.34 274.411 311.44 274.711C311.84 274.741 312.3 274.781 312.73 274.611C313.2 274.431 313.5 274.101 313.61 273.641C313.89 272.431 312.73 270.521 312.07 269.821C310.91 268.571 309.3 267.771 307.77 267.071C306.51 266.491 305.19 266.001 303.92 265.521C302.76 265.091 301.56 264.641 300.41 264.121C299.53 263.731 298.21 263.271 296.81 263.141C296.34 263.361 295.9 263.601 295.48 263.851C296.36 264.111 297.25 264.401 297.96 264.971C298.69 265.551 299.3 266.571 299.02 267.561C298.7 268.711 297.26 269.271 296.14 269.081C294.82 268.851 293.72 267.861 293 267.121C292.78 266.891 292.57 266.641 292.44 266.361C292.34 266.481 292.22 266.591 292.12 266.711C292.28 266.981 292.47 267.231 292.67 267.431C293.43 268.211 294.6 269.261 296.05 269.511C297.37 269.731 299.04 269.101 299.44 267.671C299.77 266.481 299.07 265.271 298.22 264.601C297.56 264.081 296.77 263.771 296 263.531H296.09C297.67 263.531 299.22 264.081 300.21 264.521C301.37 265.041 302.58 265.491 303.75 265.931C305.02 266.401 306.33 266.891 307.57 267.471C309.13 268.191 310.62 268.931 311.73 270.121C312.35 270.791 313.39 272.551 313.16 273.531C313.09 273.841 312.89 274.061 312.56 274.181C312.22 274.311 311.83 274.281 311.46 274.251C307.38 273.951 303.03 273.591 298.75 272.801L298.31 272.721C295.59 272.221 292.27 271.591 290.7 269.161C290.63 269.331 290.55 269.491 290.49 269.661C292.21 272.041 295.51 272.671 298.23 273.161L298.24 273.171Z" fill="#333333"/>
<path d="M315.931 278.66C316.231 278.68 316.561 278.69 316.911 278.69C317.791 278.69 318.771 278.58 319.561 278.05C320.461 277.45 321.071 276.3 321.221 274.91C321.451 272.77 320.661 270.41 319.061 268.45C317.471 266.5 315.351 265.16 313.671 264.2C311.521 262.97 309.281 261.98 307.001 261.17C306.531 261.16 306.061 261.15 305.581 261.17C308.281 262.02 310.921 263.16 313.451 264.6C315.091 265.53 317.171 266.85 318.711 268.74C320.241 270.62 320.991 272.85 320.771 274.87C320.631 276.13 320.101 277.16 319.311 277.69C318.411 278.3 317.261 278.29 315.961 278.22C311.151 277.97 306.191 277.71 301.341 276.86C297.131 276.12 293.501 275.01 290.311 273.5C290.351 273.69 290.361 273.87 290.411 274.06C293.571 275.51 297.151 276.59 301.271 277.31C306.141 278.16 311.121 278.42 315.941 278.68L315.931 278.66Z" fill="#333333"/>
<path d="M311.29 295.31C311.75 296.78 312.53 298.13 313.5 299.01C315.03 300.41 317.26 300.72 319.33 300.76C324.19 300.84 329.58 299.48 332.45 295.24C334.95 291.54 334.38 287.06 329.63 285.83C324.86 284.6 315.46 284.12 311.96 288.59C310.61 290.32 310.55 292.99 311.28 295.32L311.29 295.31Z" fill="white"/>
<g opacity="0.23">
<path d="M313.421 275.92C315.351 275.95 317.291 275.94 319.171 275.53C319.671 275.42 320.171 275.28 320.611 275.03C322.071 274.18 322.501 271.96 321.451 270.64C321.451 269.64 320.961 268.65 320.181 268.02C319.791 267.71 319.351 267.49 318.891 267.3C317.021 266.49 314.921 266.06 312.921 266.47C310.921 266.88 309.051 268.23 308.381 270.15C307.701 272.07 308.471 274.5 310.301 275.4C311.261 275.87 312.361 275.91 313.431 275.92H313.421Z" fill="white"/>
</g>
<g opacity="0.23">
<path d="M307.091 256.679C308.441 256.939 309.841 256.859 311.211 256.759C312.721 256.659 313.941 255.729 313.661 254.059C313.281 251.809 308.691 251.519 307.011 251.599C306.291 251.629 305.561 251.739 304.911 252.059C301.631 253.679 304.881 256.219 307.001 256.659C307.031 256.659 307.061 256.669 307.091 256.679Z" fill="white"/>
</g>
</svg>
