<svg width="413" height="349" viewBox="0 0 413 349" fill="none" xmlns="http://www.w3.org/2000/svg">
<path d="M379.19 146.71C370.19 165.63 355.28 183.4 356.22 204.33C356.71 215.2 361.54 225.31 364.71 235.72C367.88 246.13 369.19 258.15 363.26 267.26C357.25 276.49 345.65 280.07 334.92 282.58C254.92 301.27 171.29 297.31 89.8301 286.62C76.5701 284.88 62.9301 282.83 51.4901 275.92C39.1501 268.47 30.5801 256.08 24.1101 243.21C10.0701 215.28 4.27007 183.84 2.55007 152.63C1.50007 133.6 1.98007 114.09 8.39007 96.1403C16.8301 72.5103 35.4701 53.0403 58.0401 42.1003C80.6201 31.1603 106.83 28.5203 131.5 33.1203C156.51 37.7803 180.46 49.6203 205.89 48.8903C243.74 47.8003 277.22 19.0303 315.06 20.4703C342.98 21.5303 368.86 40.3303 380.77 65.6103C392.68 90.8903 391.2 121.48 379.2 146.72L379.19 146.71Z" fill="#4257FF"/>
<path d="M198.01 13.9995C198.01 13.9995 217.13 -0.500469 245.12 16.9995C273.11 34.4995 276.43 55.2895 276.39 80.3795C276.33 120.61 291.53 104.24 297.63 114.72C307.5 131.68 293.2 143.03 291.95 150.03C290.7 157.03 314.9 163.44 308.65 175.94C302.4 188.44 205.75 206.72 205.75 206.72L92.2696 180.98C92.2696 180.98 59.0296 163.73 65.2796 128.49C71.5296 93.2495 106.52 113.24 119.02 101.5C131.52 89.7495 124.01 39.5095 149.51 23.5195C175.01 7.51953 191.01 12.5195 191.01 12.5195C191.01 12.5195 190.01 0.0195312 192.51 0.0195312C195.01 0.0195312 193.76 10.7695 193.76 10.7695C193.76 10.7695 197.01 2.26953 199.26 2.76953C201.51 3.26953 198.01 14.0195 198.01 14.0195V13.9995Z" fill="#333333"/>
<path d="M258.31 94.1496C259.6 88.6296 266.6 87.1296 269.85 90.1296C273.1 93.1296 273 114.04 259.05 114.71L258.31 94.1496Z" fill="white"/>
<path d="M157.37 159.87C139.37 163.87 81.8896 137.37 62.8896 168.87C43.8896 200.36 63.8896 210.86 51.3896 224.36C38.8896 237.86 27.8896 252.85 28.8896 273.35C29.8896 293.85 30.3896 295.85 23.3896 304.84C16.3896 313.84 1.88965 336.33 0.889648 347.83H411.81C411.81 347.83 410.31 311.34 402.81 297.84C395.31 284.34 375.82 279.34 368.82 266.85C361.82 254.35 357.32 221.86 348.32 218.36C339.32 214.86 334.32 216.36 334.32 216.36C334.32 216.36 324.32 152.87 281.83 156.87C239.34 160.87 229.84 169.37 216.34 168.37C202.84 167.37 157.35 159.87 157.35 159.87H157.37Z" fill="#A1C3FF"/>
<path d="M411.83 348.73C411.83 348.73 411.82 348.73 411.81 348.73H0.899612C0.649612 348.73 0.409612 348.62 0.239612 348.44C0.0696119 348.25 -0.0203881 348 0.00961192 347.75C1.05961 335.7 16.0296 312.86 22.6896 304.28C29.1296 296 29.0296 294.15 28.1496 276.38L27.9996 273.39C26.9796 252.44 38.3196 237.15 50.7296 223.74C55.9296 218.13 55.2096 213.21 54.2196 206.4C52.9196 197.46 51.2996 186.33 62.1196 168.4C68.6396 157.58 80.1796 152.33 97.3996 152.33C108.69 152.33 120.74 154.54 131.36 156.48C139.9 158.04 147.27 159.39 152.8 159.39C154.5 159.39 155.98 159.25 157.17 158.99C157.28 158.97 157.4 158.96 157.51 158.99C157.96 159.06 203.11 166.49 216.42 167.48C217.13 167.53 217.83 167.56 218.54 167.56C223.5 167.56 228.23 166.28 234.78 164.5C244.54 161.85 257.9 158.23 281.75 155.98C299.92 154.28 315.11 164.75 325.52 186.14C331.73 198.9 334.4 211.81 335.05 215.31C335.61 215.23 336.41 215.15 337.42 215.15C339.75 215.15 343.59 215.56 348.65 217.53C354.54 219.82 358.26 232.37 362.19 245.67C364.51 253.51 366.91 261.62 369.6 266.42C372.92 272.35 379.14 276.53 385.72 280.96C392.58 285.57 399.67 290.34 403.6 297.42C410.92 310.6 412.57 344.52 412.7 347.63C412.72 347.7 412.73 347.77 412.73 347.85C412.73 348.35 412.33 348.75 411.83 348.75V348.73ZM1.90961 346.93H410.87C410.57 341.15 408.68 310.24 402.03 298.28C398.31 291.58 391.4 286.94 384.72 282.44C378.26 278.09 371.57 273.6 368.04 267.29C365.25 262.31 362.93 254.47 360.47 246.17C357 234.45 353.07 221.17 348 219.2C343.2 217.33 339.6 216.94 337.42 216.94C335.58 216.94 334.59 217.22 334.58 217.22C334.33 217.29 334.06 217.26 333.84 217.12C333.62 216.98 333.47 216.76 333.43 216.5C333.34 215.91 323.69 157.59 285.63 157.59C284.41 157.59 283.16 157.65 281.91 157.77C258.21 160 244.93 163.6 235.24 166.23C228.56 168.04 223.73 169.35 218.53 169.35C217.77 169.35 217.03 169.32 216.27 169.27C203.3 168.31 160.43 161.29 157.37 160.79C156.06 161.06 154.56 161.2 152.78 161.2C147.09 161.2 139.64 159.84 131.02 158.26C120.47 156.33 108.5 154.14 97.3796 154.14C80.8496 154.14 69.8096 159.11 63.6396 169.34C53.1496 186.73 54.7196 197.5 55.9796 206.15C56.9596 212.9 57.8096 218.73 52.0296 224.97C39.8896 238.09 28.7796 253.02 29.7696 273.3L29.9196 276.29C30.7996 293.88 30.9296 296.59 24.0796 305.39C16.9796 314.51 3.52961 335.63 1.88961 346.93H1.90961Z" fill="#333333"/>
<path d="M411.83 348.679C411.83 348.679 411.83 348.679 411.81 348.679H0.899895C0.659895 348.679 0.429895 348.579 0.269895 348.399C0.109895 348.219 0.0298953 347.989 0.0498953 347.749C1.0999 335.709 16.0599 312.879 22.7199 304.309C29.1699 296.019 29.0699 294.159 28.1899 276.379L28.0399 273.379C27.0199 252.449 38.3599 237.169 50.7599 223.769C55.9699 218.139 55.2499 213.209 54.2599 206.389C52.9599 197.459 51.3399 186.339 62.1499 168.419C68.6599 157.619 80.1899 152.369 97.3899 152.369C108.67 152.369 120.72 154.579 131.35 156.519C139.89 158.079 147.26 159.429 152.8 159.429C154.53 159.429 155.97 159.299 157.18 159.029C157.29 159.009 157.4 159.009 157.5 159.029C157.95 159.099 203.11 166.529 216.41 167.519C217.12 167.569 217.83 167.599 218.54 167.599C223.5 167.599 228.24 166.319 234.79 164.539C244.54 161.889 257.9 158.269 281.75 156.029C283.05 155.909 284.36 155.849 285.63 155.849C302.04 155.849 315.82 166.329 325.47 186.159C331.71 198.969 334.37 211.939 335 215.359C335.56 215.279 336.37 215.189 337.41 215.189C339.74 215.189 343.57 215.599 348.62 217.569C354.48 219.849 358.2 232.389 362.13 245.669C364.45 253.509 366.85 261.619 369.55 266.429C372.88 272.369 379.1 276.559 385.68 280.989C392.53 285.599 399.62 290.369 403.54 297.429C410.87 310.619 412.5 344.579 412.64 347.629C412.66 347.699 412.66 347.759 412.66 347.839C412.66 348.309 412.28 348.689 411.81 348.689L411.83 348.679ZM1.8499 346.979H410.92C410.63 341.329 408.74 310.259 402.07 298.259C398.34 291.549 391.43 286.899 384.75 282.409C378.29 278.059 371.61 273.569 368.08 267.269C365.29 262.289 362.97 254.459 360.51 246.159C357.04 234.429 353.1 221.139 348.01 219.159C343.2 217.289 339.6 216.899 337.42 216.899C335.57 216.899 334.58 217.179 334.57 217.179C334.34 217.249 334.08 217.209 333.87 217.079C333.66 216.949 333.52 216.739 333.48 216.489C333.39 215.899 323.74 157.539 285.63 157.539C284.41 157.539 283.16 157.599 281.91 157.719C258.2 159.949 244.93 163.549 235.23 166.179C228.55 167.989 223.72 169.299 218.53 169.299C217.78 169.299 217.02 169.269 216.28 169.219C203.3 168.259 160.36 161.229 157.38 160.739C156.08 161.009 154.57 161.149 152.79 161.149C147.1 161.149 139.66 159.789 131.04 158.209C120.48 156.279 108.52 154.089 97.3899 154.089C80.8399 154.089 69.7899 159.069 63.6099 169.319C53.1099 186.719 54.6799 197.499 55.9499 206.159C56.9299 212.899 57.7799 218.719 52.0099 224.939C39.8599 238.059 28.7499 253.009 29.7399 273.309L29.8899 276.299C30.7799 294.269 30.8999 296.569 24.0599 305.359C16.9499 314.499 3.4599 335.689 1.8499 346.979Z" fill="#333333"/>
<path d="M258.599 134.868C252.099 148.868 226.359 155.318 226.359 155.318L220.859 174.368C220.859 174.368 228.359 185.368 206.859 189.868C185.359 194.368 157.369 159.878 157.369 159.878C157.369 159.878 163.369 157.378 167.869 146.878C172.369 136.378 167.869 120.388 167.869 120.388C146.869 124.888 140.379 105.388 147.869 92.8984C153.109 84.1684 161.519 86.4084 166.109 88.5584L167.199 92.4784C167.199 92.4784 172.539 102.148 174.869 100.818C177.199 99.4784 180.199 85.8184 184.539 67.4884C188.869 49.1584 199.199 47.4884 199.199 47.4884C199.199 47.4884 199.539 63.8284 209.869 63.4884C220.199 63.1584 218.539 43.1584 218.539 43.1584C218.539 43.1584 220.539 42.1584 221.869 46.4884C223.199 50.8284 226.199 61.4884 232.539 61.4884C238.879 61.4884 237.609 53.0084 237.549 52.5084C237.839 52.9884 243.039 61.4284 248.869 59.4884C254.869 57.4884 251.539 45.1584 251.539 45.1584C251.539 45.1584 251.569 45.1884 251.639 45.2584C260.969 54.5384 265.309 67.7084 263.429 80.7284C262.789 85.1284 262.169 88.9984 261.869 91.8984C260.869 101.398 265.119 120.888 258.619 134.888L258.599 134.868Z" fill="white"/>
<path d="M202.849 191.119C181.879 191.119 157.729 161.659 156.709 160.409C156.539 160.199 156.479 159.929 156.549 159.669C156.619 159.409 156.799 159.199 157.049 159.089C157.099 159.069 162.809 156.539 167.089 146.539C170.869 137.719 168.049 124.649 167.249 121.369C157.869 123.139 150.289 120.199 146.459 113.449C142.949 107.239 143.209 98.9987 147.139 92.4487C149.809 87.9987 153.549 85.7487 158.249 85.7487C161.459 85.7487 164.499 86.8487 166.469 87.7787C166.699 87.8787 166.859 88.0787 166.929 88.3187L167.989 92.1387C170.129 95.9887 173.189 100.079 174.379 100.079C176.229 99.0388 179.269 86.1187 182.479 72.4487L183.699 67.2787C188.109 48.6087 198.609 46.7087 199.049 46.6387C199.289 46.5987 199.539 46.6688 199.729 46.8288C199.919 46.9888 200.029 47.2188 200.039 47.4688C200.039 47.6188 200.469 62.6387 209.539 62.6387C209.629 62.6387 209.729 62.6387 209.829 62.6387C211.569 62.5787 212.999 61.9087 214.179 60.5887C218.649 55.5787 217.689 43.3588 217.679 43.2388C217.649 42.8888 217.839 42.5587 218.149 42.4087C218.239 42.3687 218.569 42.2188 219.049 42.2188C220.139 42.2188 221.659 42.9187 222.679 46.2487L222.839 46.7587C224.099 50.9187 227.059 60.6488 232.539 60.6488C233.759 60.6488 234.699 60.2688 235.389 59.4888C237.189 57.4588 236.809 53.4187 236.709 52.6387C236.659 52.2387 236.899 51.8587 237.279 51.7287C237.659 51.5987 238.079 51.7387 238.289 52.0887C238.459 52.3687 242.489 58.9487 247.109 58.9487C247.619 58.9487 248.119 58.8687 248.609 58.6987C252.899 57.2687 251.589 48.6188 250.729 45.3988C250.629 45.0288 250.789 44.6387 251.119 44.4387C251.449 44.2487 251.869 44.2988 252.149 44.5588L252.249 44.6587C261.709 54.0687 266.199 67.5987 264.289 80.8587C264.119 82.0287 263.949 83.1587 263.789 84.2487C263.339 87.2787 262.949 89.8887 262.729 91.9987C262.429 94.8987 262.619 98.7387 262.839 103.199C263.339 113.109 263.959 125.439 259.399 135.259C253.219 148.569 230.749 155.059 227.069 156.049L221.809 174.269C222.389 175.289 223.799 178.329 222.429 181.739C220.749 185.919 215.579 188.939 207.069 190.719C205.729 190.999 204.319 191.139 202.879 191.139L202.849 191.119ZM158.699 160.119C162.749 164.879 184.549 189.409 202.849 189.409C204.169 189.409 205.459 189.279 206.689 189.019C214.499 187.389 219.379 184.639 220.819 181.069C222.139 177.799 220.179 174.869 220.159 174.839C220.019 174.629 219.979 174.369 220.049 174.119L225.549 155.069C225.629 154.779 225.869 154.549 226.159 154.479C226.409 154.419 251.589 147.969 257.839 134.499C262.219 125.059 261.609 112.959 261.119 103.239C260.889 98.7087 260.689 94.8087 261.009 91.7787C261.239 89.6287 261.629 86.9987 262.079 83.9587C262.239 82.8787 262.409 81.7488 262.579 80.5788C264.279 68.7888 260.709 56.7788 252.959 47.8988C253.579 51.9088 253.859 58.6887 249.129 60.2687C248.469 60.4887 247.779 60.5987 247.089 60.5987C243.439 60.5987 240.309 57.5387 238.479 55.2687C238.379 57.0187 237.949 59.1188 236.659 60.5788C235.639 61.7288 234.259 62.3088 232.539 62.3088C225.799 62.3088 222.699 52.1188 221.209 47.2188L221.059 46.7087C220.559 45.0787 219.949 44.2687 219.449 43.9987C219.599 47.0887 219.699 56.9487 215.469 61.6887C213.979 63.3587 212.109 64.2387 209.909 64.3087C209.789 64.3087 209.679 64.3087 209.569 64.3087C200.339 64.3087 198.709 52.3488 198.429 48.5788C195.879 49.5188 188.759 53.3787 185.389 67.6488L184.169 72.8187C179.829 91.2687 177.639 100.189 175.319 101.529C175.039 101.689 174.739 101.769 174.409 101.769C171.619 101.769 167.629 94.9588 166.479 92.8688C166.449 92.8088 166.419 92.7488 166.399 92.6888L165.419 89.1488C163.599 88.3388 160.989 87.4388 158.269 87.4388C154.209 87.4388 150.959 89.4187 148.619 93.3187C145.059 99.2587 144.789 107.009 147.959 112.609C150.729 117.499 155.719 120.189 162.009 120.189C163.799 120.189 165.719 119.969 167.709 119.549C168.149 119.449 168.589 119.719 168.709 120.149C168.899 120.819 173.239 136.559 168.669 147.209C165.129 155.469 160.679 158.929 158.709 160.129L158.699 160.119Z" fill="#333333"/>
<path d="M238.79 150C225.48 154.37 203.85 150.03 188.42 139.73C188.42 139.73 209.33 166.45 222.96 167.04L226.34 155.33L238.78 150.01L238.79 150Z" fill="#333333"/>
<path d="M163.869 109.23C163.489 109.23 163.149 108.98 163.049 108.59C162.219 105.4 159.459 96.7696 156.739 95.1996C156.309 94.9496 156.029 94.9796 155.849 95.0296C154.539 95.3896 153.389 96.5996 152.609 98.4396C151.319 101.5 151.419 105.33 152.869 107.96C153.099 108.37 152.949 108.89 152.529 109.12C152.119 109.35 151.599 109.2 151.369 108.78C149.679 105.71 149.549 101.29 151.029 97.7696C152.019 95.4396 153.559 93.8796 155.389 93.3796C156.109 93.1796 156.849 93.2896 157.579 93.7196C161.409 95.9296 164.359 106.91 164.689 108.15C164.809 108.6 164.539 109.07 164.079 109.19C164.009 109.21 163.939 109.22 163.859 109.22L163.869 109.23Z" fill="#333333"/>
<path d="M162.289 104.209C162.229 104.209 162.169 104.209 162.099 104.189L157.169 103.089C156.709 102.989 156.419 102.529 156.519 102.069C156.619 101.609 157.089 101.329 157.539 101.419L162.469 102.519C162.929 102.619 163.219 103.079 163.119 103.539C163.029 103.939 162.679 104.209 162.289 104.209Z" fill="#333333"/>
<path d="M146.49 44.0696C147.99 45.9996 150.64 46.6796 153.09 46.6396C158.31 46.5696 163.57 43.8796 168.55 45.4196C171.43 46.3096 173.73 48.5096 176.52 49.6496C179.52 50.8796 183.21 50.7096 185.76 48.6996C188.31 46.6996 189.31 42.7296 187.54 40.0096C185.79 37.3196 182.18 36.5896 178.97 36.5796C175.76 36.5796 172.42 37.0396 169.44 35.8296C165.64 34.2796 163.37 30.3996 160.05 27.9796C159.18 27.3496 158.2 26.7996 157.13 26.6996C156.15 26.5996 155.17 26.8896 154.25 27.2596C150.02 28.9896 146.71 32.7896 145.58 37.2196C144.99 39.5296 145.04 42.1796 146.5 44.0596L146.49 44.0696Z" fill="white"/>
<path d="M210.31 94.2206C210.31 91.2806 208.83 88.8906 207.01 88.8906C205.19 88.8906 203.71 91.2806 203.71 94.2206C203.71 97.1606 205.19 99.5506 207.01 99.5506C208.83 99.5506 210.31 97.1606 210.31 94.2206Z" fill="#333333"/>
<path d="M248.42 94.2206C248.42 91.2806 246.94 88.8906 245.12 88.8906C243.3 88.8906 241.82 91.2806 241.82 94.2206C241.82 97.1606 243.3 99.5506 245.12 99.5506C246.94 99.5506 248.42 97.1606 248.42 94.2206Z" fill="#333333"/>
<path d="M214.11 81.4098C214.23 80.0398 213.16 78.2698 212.23 77.6798C211.23 77.0398 210 76.8798 208.81 76.8598C204.6 76.7898 200.38 78.2997 197.17 81.0297C193.65 84.0197 201.59 83.9398 203.06 83.8598C206 83.7098 208.93 83.4698 211.85 83.1398C212.35 83.0798 212.87 83.0198 213.3 82.7498C213.81 82.4298 214.05 81.9498 214.1 81.4098H214.11Z" fill="#333333"/>
<path d="M236.62 86.8398C236.07 85.5798 236.53 83.5598 237.23 82.6998C237.98 81.7798 239.1 81.2398 240.22 80.8398C244.2 79.4498 248.68 79.5498 252.58 81.1198C256.87 82.8498 249.31 85.2798 247.88 85.6698C245.04 86.4498 242.19 87.1498 239.31 87.7598C238.82 87.8598 238.3 87.9698 237.81 87.8498C237.22 87.7098 236.84 87.3298 236.62 86.8298V86.8398Z" fill="#333333"/>
<path d="M237.18 120.379C239.6 121.499 239.27 125.129 236.37 126.629C233.47 128.129 223.85 129.749 223.85 129.749" fill="white"/>
<path d="M223.85 130.599C223.44 130.599 223.08 130.309 223.01 129.889C222.93 129.429 223.24 128.989 223.71 128.909C223.8 128.889 233.23 127.289 235.98 125.869C237.2 125.239 237.96 124.079 237.94 122.909C237.94 122.439 237.77 121.589 236.82 121.139C236.39 120.939 236.21 120.429 236.41 120.009C236.61 119.589 237.11 119.399 237.54 119.599C238.83 120.199 239.61 121.419 239.64 122.869C239.68 124.679 238.55 126.449 236.76 127.369C233.78 128.909 224.39 130.509 223.99 130.579C223.94 130.579 223.89 130.589 223.85 130.589V130.599Z" fill="#333333"/>
<path d="M229.349 136.229C229.219 136.229 229.089 136.199 228.969 136.139C228.549 135.929 228.379 135.409 228.599 134.989L230.569 131.119C230.779 130.699 231.299 130.529 231.719 130.749C232.139 130.959 232.309 131.479 232.089 131.889L230.119 135.759C229.969 136.059 229.669 136.229 229.359 136.229H229.349Z" fill="#333333"/>
<path d="M230.69 113.559C230.33 113.559 230 113.329 229.88 112.979C229.73 112.529 229.97 112.049 230.42 111.899C231.7 111.469 233.07 110.199 233.74 108.809C234.16 107.939 234.27 107.119 234.05 106.499C233.75 105.659 233.01 104.839 232.23 103.969C231.05 102.659 229.84 101.309 229.84 99.5492C229.84 99.0792 230.22 98.6992 230.69 98.6992C231.16 98.6992 231.54 99.0792 231.54 99.5492C231.54 100.649 232.49 101.709 233.5 102.829C234.36 103.779 235.24 104.769 235.66 105.929C236.04 106.999 235.91 108.259 235.28 109.559C234.4 111.359 232.67 112.949 230.96 113.519C230.87 113.549 230.78 113.559 230.69 113.559Z" fill="#333333"/>
<path d="M311.03 240.71C332.58 231.86 341.83 226.61 340.08 222.61C338.33 218.61 331.08 220.11 327.33 222.61C323.58 225.11 306.91 233 295.75 237.68C284.59 242.36 268.09 241.61 266.09 243.11C264.09 244.61 265.51 248.94 274.25 248.03C282.99 247.12 311.03 240.72 311.03 240.72V240.71Z" fill="#333333"/>
<path d="M322.59 196.481C319.9 189.731 310.15 159.861 305.32 153.371C300.49 146.881 293.33 140.241 271.43 133.431C249.52 126.621 249.96 129.671 249.96 129.671C241.43 139.731 260.22 150.021 260.22 150.021C252.17 152.081 252.06 159.531 252.06 159.531C242.76 160.801 240.48 170.031 240.48 170.031C231.28 175.761 231.42 200.151 236.56 206.241C241.7 212.331 248.13 208.161 248.13 208.161C246.44 222.881 271.09 236.791 271.09 236.791C271.09 236.791 271.86 240.581 273.44 246.781C296.12 244.201 312.97 244.671 330.01 229.161C330.01 229.161 324.08 200.181 322.6 196.481H322.59Z" fill="white"/>
<path d="M273.43 247.63C273.05 247.63 272.7 247.37 272.61 246.99C271.33 241.95 270.57 238.45 270.33 237.34C267.33 235.59 247.15 223.3 247.19 209.58C246.21 209.98 244.8 210.41 243.17 210.41C240.37 210.41 237.93 209.19 235.9 206.79C232.69 202.98 231.31 192.81 232.75 183.64C233.83 176.81 236.3 171.81 239.74 169.49C240.27 167.8 243.06 160.29 251.27 158.8C251.52 156.95 252.7 152.04 258.18 149.8C254.98 147.77 248.13 142.78 247.03 136.84C246.53 134.16 247.25 131.62 249.17 129.29C249.22 129.15 249.3 129.02 249.4 128.9C249.84 128.39 250.69 128.15 252.06 128.15C255.51 128.15 262.11 129.66 271.67 132.63C292.46 139.09 300.43 145.4 305.99 152.88C309.66 157.82 315.97 175.56 320.14 187.31C321.56 191.31 322.69 194.48 323.37 196.18C324.86 199.91 330.58 227.82 330.82 229C330.88 229.29 330.78 229.6 330.56 229.8C315.6 243.41 300.92 244.87 282.33 246.71C279.49 246.99 276.55 247.28 273.51 247.63C273.48 247.63 273.45 247.63 273.41 247.63H273.43ZM248.13 207.31C248.29 207.31 248.44 207.35 248.58 207.44C248.86 207.61 249.01 207.93 248.98 208.26C247.38 222.25 271.27 235.92 271.51 236.05C271.72 236.17 271.88 236.38 271.92 236.62C271.92 236.66 272.65 240.17 274.07 245.85C276.86 245.54 279.56 245.27 282.18 245.01C300.3 243.21 314.65 241.79 329.07 228.86C328.29 225.08 323.13 200.13 321.8 196.8C321.11 195.06 319.98 191.89 318.55 187.87C314.41 176.22 308.16 158.62 304.63 153.89C300.31 148.08 293.8 141.29 271.17 134.25C259.47 130.61 254.32 129.85 252.07 129.85C251.27 129.85 250.89 129.95 250.75 130.01C250.72 130.09 250.67 130.17 250.61 130.24C248.92 132.23 248.3 134.29 248.71 136.54C249.98 143.39 260.52 149.23 260.63 149.29C260.94 149.46 261.11 149.8 261.07 150.14C261.03 150.49 260.77 150.77 260.44 150.86C253.14 152.72 252.92 159.28 252.92 159.56C252.92 159.98 252.6 160.33 252.18 160.39C243.55 161.57 241.33 170.16 241.31 170.25C241.26 170.47 241.12 170.65 240.93 170.77C237.77 172.74 235.47 177.41 234.44 183.92C233.08 192.52 234.33 202.3 237.21 205.71C238.9 207.71 240.9 208.72 243.18 208.72C245.68 208.72 247.65 207.48 247.67 207.46C247.81 207.37 247.97 207.32 248.13 207.32V207.31Z" fill="#333333"/>
<path d="M286.34 159.231C286.2 159.231 286.06 159.201 285.93 159.131C277.18 154.351 268.99 151.731 260.14 150.871C259.67 150.831 259.33 150.411 259.37 149.941C259.41 149.471 259.84 149.131 260.3 149.171C269.38 150.051 277.79 152.731 286.75 157.621C287.16 157.851 287.31 158.361 287.09 158.781C286.94 159.061 286.64 159.221 286.34 159.221V159.231Z" fill="#333333"/>
<path d="M273.71 168.501C273.54 168.501 273.37 168.451 273.22 168.341C266.62 163.631 252.03 160.391 251.88 160.361C251.42 160.261 251.13 159.811 251.23 159.351C251.33 158.891 251.79 158.601 252.24 158.701C252.85 158.831 267.32 162.051 274.2 166.961C274.58 167.231 274.67 167.761 274.4 168.151C274.23 168.381 273.97 168.511 273.71 168.511V168.501Z" fill="#333333"/>
<path d="M257.12 175.98C257 175.98 256.87 175.95 256.75 175.89C256.64 175.84 245.88 170.66 240.51 170.88C240.07 170.93 239.64 170.54 239.62 170.06C239.6 169.59 239.97 169.19 240.44 169.17C240.57 169.17 240.7 169.17 240.84 169.17C246.73 169.17 257.05 174.14 257.49 174.36C257.91 174.57 258.09 175.07 257.88 175.5C257.73 175.8 257.43 175.98 257.11 175.98H257.12Z" fill="#333333"/>
<path d="M248.12 209.02C247.65 209.02 247.27 208.64 247.27 208.18C247.19 199.41 251.42 188.17 251.6 187.7C251.77 187.26 252.26 187.04 252.7 187.21C253.14 187.38 253.36 187.87 253.19 188.31C253.15 188.42 248.9 199.73 248.97 208.17C248.97 208.64 248.6 209.02 248.13 209.03L248.12 209.02Z" fill="#333333"/>
<path d="M250.86 193.151C250.52 193.151 250.19 192.941 250.06 192.601L248.55 188.611C248.38 188.171 248.6 187.681 249.04 187.511C249.48 187.351 249.97 187.571 250.14 188.001L251.65 191.991C251.82 192.431 251.6 192.921 251.16 193.091C251.06 193.131 250.96 193.141 250.86 193.141V193.151Z" fill="#333333"/>
<path d="M261.03 138.951C260.93 138.951 260.82 138.931 260.72 138.891L252.2 135.591C251.83 135.451 251.61 135.071 251.67 134.671L251.94 132.851C252.01 132.391 252.43 132.061 252.91 132.131C253.37 132.201 253.7 132.631 253.63 133.101L253.46 134.251L260.8 137.091C263.23 134.281 263.25 131.691 263.25 131.661C263.25 131.191 263.63 130.811 264.1 130.811C264.57 130.811 264.95 131.191 264.95 131.661C264.95 131.801 264.92 135.231 261.65 138.681C261.49 138.851 261.26 138.951 261.03 138.951Z" fill="#333333"/>
<path d="M308.66 176.78C308.44 176.78 308.22 176.7 308.05 176.53L300.46 168.84C300.13 168.51 300.13 167.97 300.46 167.64C300.79 167.31 301.33 167.31 301.66 167.64L309.25 175.33C309.58 175.66 309.58 176.2 309.25 176.53C309.08 176.69 308.87 176.78 308.65 176.78H308.66Z" fill="#333333"/>
<path d="M304.96 177.501C304.96 177.501 304.92 177.501 304.89 177.501C304.42 177.461 304.07 177.061 304.11 176.591L304.8 167.521C304.84 167.051 305.24 166.691 305.71 166.741C306.18 166.781 306.53 167.181 306.49 167.651L305.8 176.721C305.77 177.171 305.39 177.511 304.95 177.511L304.96 177.501Z" fill="#333333"/>
<path d="M295.75 186.471C295.53 186.471 295.31 186.391 295.14 186.221L287.55 178.531C287.22 178.201 287.22 177.661 287.55 177.331C287.88 177.001 288.42 177.001 288.75 177.331L296.34 185.021C296.67 185.351 296.67 185.891 296.34 186.221C296.17 186.381 295.96 186.471 295.74 186.471H295.75Z" fill="#333333"/>
<path d="M292.05 187.191C292.05 187.191 292.01 187.191 291.99 187.191C291.52 187.151 291.17 186.751 291.21 186.281L291.9 177.211C291.94 176.741 292.35 176.391 292.81 176.431C293.28 176.471 293.63 176.871 293.59 177.341L292.9 186.411C292.87 186.861 292.49 187.201 292.05 187.201V187.191Z" fill="#333333"/>
<path d="M284.28 195.001C284.06 195.001 283.84 194.921 283.67 194.751L276.08 187.061C275.75 186.731 275.75 186.191 276.08 185.861C276.41 185.531 276.95 185.531 277.28 185.861L284.87 193.551C285.2 193.881 285.2 194.421 284.87 194.751C284.7 194.911 284.49 195.001 284.27 195.001H284.28Z" fill="#333333"/>
<path d="M280.58 195.72C280.58 195.72 280.54 195.72 280.51 195.72C280.04 195.68 279.69 195.28 279.73 194.81L280.42 185.74C280.46 185.27 280.85 184.92 281.33 184.96C281.8 185 282.15 185.4 282.11 185.87L281.42 194.94C281.39 195.39 281.01 195.73 280.57 195.73L280.58 195.72Z" fill="#333333"/>
<path d="M278.19 239.681C278.19 239.681 278.12 239.681 278.09 239.681C277.85 239.651 272.12 238.951 269.82 237.221C269.44 236.941 269.37 236.401 269.65 236.031C269.93 235.661 270.47 235.581 270.84 235.861C272.45 237.071 276.76 237.811 278.29 237.991C278.76 238.051 279.09 238.471 279.03 238.941C278.98 239.371 278.61 239.691 278.19 239.691V239.681Z" fill="#333333"/>
<path d="M265.299 348.679C264.919 348.679 264.579 348.429 264.479 348.049C264.359 347.599 264.629 347.129 265.079 347.009C269.799 345.739 268.819 330.239 268.299 321.919C268.139 319.389 267.999 317.209 267.999 315.679C267.999 312.879 268.589 308.589 269.279 303.619C270.409 295.429 271.699 286.139 270.689 280.849C270.099 277.739 268.659 272.569 267.129 267.099C264.289 256.899 261.349 246.359 262.059 243.179C263.229 237.899 271.209 237.979 271.539 237.979C272.009 237.979 272.379 238.379 272.379 238.849C272.379 239.309 271.989 239.689 271.529 239.689C271.529 239.689 271.539 239.689 271.479 239.689C270.929 239.689 264.559 239.779 263.729 243.549C263.119 246.319 266.259 257.589 268.779 266.639C270.309 272.149 271.759 277.349 272.369 280.529C273.439 286.099 272.129 295.529 270.979 303.849C270.329 308.559 269.709 312.999 269.709 315.679C269.709 317.159 269.849 319.319 269.999 321.819C270.669 332.459 271.589 347.029 265.529 348.669C265.459 348.689 265.379 348.699 265.309 348.699L265.299 348.679Z" fill="#333333"/>
<path d="M327.929 220.079C327.639 220.079 327.359 219.939 327.199 219.679C326.949 219.279 327.079 218.759 327.469 218.509C327.529 218.469 328.999 217.569 334.009 215.569C334.439 215.389 334.939 215.609 335.119 216.039C335.289 216.479 335.079 216.969 334.649 217.149C329.829 219.079 328.389 219.949 328.369 219.959C328.229 220.039 328.079 220.089 327.929 220.089V220.079Z" fill="#333333"/>
<path d="M125.37 348.68C124.98 348.68 124.62 348.4 124.54 348C124.44 347.5 122.04 335.59 127.12 325.93C131.77 317.09 135.56 303.63 133.54 293.48C131.77 284.63 134.92 272.58 137.45 262.89C137.84 261.4 138.21 259.97 138.55 258.63C138.66 258.17 139.12 257.89 139.58 258.01C140.04 258.12 140.31 258.59 140.2 259.04C139.86 260.39 139.49 261.83 139.1 263.32C136.61 272.83 133.52 284.68 135.21 293.15C137.32 303.7 133.42 317.61 128.63 326.72C123.84 335.83 126.19 347.53 126.21 347.65C126.3 348.11 126.01 348.56 125.55 348.66C125.49 348.67 125.43 348.68 125.38 348.68H125.37Z" fill="#333333"/>
<path d="M201.83 200.609C175.12 200.609 148.93 162.349 147.7 160.539C147.44 160.149 147.54 159.619 147.93 159.359C148.32 159.099 148.85 159.199 149.11 159.589C149.44 160.079 182.34 208.139 210.71 197.289C220.15 193.679 226.3 188.449 229 181.749C232.63 172.709 228.63 164.049 228.59 163.969C228.39 163.539 228.57 163.039 229 162.839C229.43 162.639 229.93 162.819 230.13 163.249C230.31 163.629 234.49 172.669 230.58 182.399C227.7 189.569 221.22 195.119 211.32 198.899C208.18 200.099 205 200.639 201.83 200.639V200.609Z" fill="#333333"/>
<path d="M209.11 312.19C209.02 312.19 208.92 312.18 208.83 312.14C208.39 311.99 208.15 311.5 208.3 311.06L215.52 290.06C215.67 289.61 216.16 289.38 216.6 289.53C217.04 289.68 217.28 290.17 217.13 290.61L209.91 311.61C209.79 311.96 209.46 312.18 209.11 312.18V312.19Z" fill="#333333"/>
<path d="M211.009 334.69C210.939 334.69 210.879 334.69 210.809 334.67C210.349 334.56 210.069 334.1 210.179 333.64L218.029 300.65C218.139 300.19 218.599 299.91 219.059 300.02C219.519 300.13 219.799 300.59 219.689 301.05L211.839 334.04C211.749 334.43 211.399 334.69 211.009 334.69Z" fill="#333333"/>
<path d="M160.609 114.709C158.819 114.709 157.359 116.169 157.359 117.959V125.739C157.359 127.529 158.819 128.989 160.609 128.989C162.399 128.989 163.859 127.529 163.859 125.739V117.959C163.859 116.169 162.399 114.709 160.609 114.709Z" fill="#A1C3FF"/>
<path d="M137.09 176.92C136.55 177.72 136 178.55 135.81 179.5C135.62 180.45 135.879 181.55 136.679 182.09C137.589 182.71 138.84 182.39 139.83 181.91C143.5 180.14 146.04 176.24 146.17 172.16C146.22 170.76 145.94 169.23 144.91 168.28C144.13 167.56 143.04 167.28 141.99 167.07C138.02 166.27 133.939 166.01 129.899 166.3C128.979 167.2 129.49 168.89 130.57 169.61C131.64 170.32 133.02 170.34 134.31 170.32C132.69 171.19 131.07 172.06 129.46 172.94C129.2 173.08 128.939 173.22 128.759 173.46C128.519 173.79 128.5 174.23 128.48 174.63C128.45 175.66 128.46 176.79 129.13 177.56C130.05 178.63 131.74 178.5 133.06 178.02C134.38 177.54 135.69 176.79 137.09 176.91V176.92Z" fill="#2E5FB3"/>
<path d="M158.12 200.48C158.1 201.45 158.09 202.44 158.44 203.34C158.79 204.24 159.6 205.03 160.57 205.05C161.67 205.07 162.55 204.14 163.12 203.2C165.25 199.72 165.27 195.07 163.18 191.57C162.46 190.37 161.4 189.24 160.02 188.99C158.97 188.81 157.91 189.16 156.91 189.55C153.14 191.02 149.57 193.02 146.33 195.45C146.04 196.71 147.39 197.85 148.68 197.87C149.97 197.89 151.13 197.15 152.21 196.45C151.32 198.06 150.43 199.67 149.54 201.28C149.4 201.54 149.25 201.8 149.23 202.09C149.2 202.5 149.42 202.88 149.63 203.23C150.16 204.11 150.78 205.05 151.76 205.34C153.11 205.74 154.46 204.71 155.31 203.59C156.16 202.47 156.85 201.13 158.1 200.48H158.12Z" fill="#2E5FB3"/>
<path d="M188.38 216.349C188.56 217.299 188.76 218.269 189.29 219.079C189.82 219.889 190.78 220.489 191.73 220.309C192.81 220.099 193.48 219.009 193.84 217.969C195.2 214.129 194.25 209.569 191.48 206.589C190.53 205.559 189.26 204.679 187.85 204.729C186.78 204.769 185.82 205.339 184.93 205.929C181.55 208.159 178.47 210.849 175.81 213.899C175.79 215.189 177.35 216.029 178.61 215.779C179.87 215.529 180.86 214.569 181.77 213.649C181.24 215.409 180.7 217.169 180.17 218.919C180.08 219.199 180 219.489 180.04 219.779C180.1 220.179 180.39 220.509 180.67 220.809C181.37 221.559 182.17 222.359 183.19 222.429C184.59 222.539 185.7 221.259 186.3 219.979C186.9 218.709 187.3 217.259 188.38 216.359V216.349Z" fill="#2E5FB3"/>
<path d="M224.129 209.34C225.069 209.55 226.039 209.76 226.989 209.59C227.939 209.42 228.879 208.78 229.089 207.84C229.329 206.76 228.589 205.72 227.779 204.97C224.799 202.2 220.239 201.25 216.399 202.61C215.079 203.08 213.759 203.89 213.249 205.2C212.859 206.19 212.999 207.31 213.189 208.36C213.889 212.35 215.129 216.24 216.869 219.9C218.049 220.43 219.429 219.33 219.709 218.07C219.979 216.81 219.489 215.52 219.019 214.33C220.419 215.52 221.819 216.71 223.219 217.9C223.439 218.09 223.679 218.28 223.959 218.36C224.349 218.47 224.769 218.33 225.149 218.19C226.119 217.84 227.169 217.43 227.639 216.52C228.299 215.28 227.559 213.75 226.629 212.69C225.699 211.63 224.529 210.69 224.129 209.34Z" fill="#2E5FB3"/>
<path d="M342.25 149.46L349.78 147.07L342.24 144.5C339.99 143.91 338.26 142.09 337.78 139.81L335.39 128.49L332.82 139.56C332.28 141.89 330.43 143.7 328.09 144.2L321 146.64L327.85 149.06C330.25 149.62 332.09 151.55 332.52 153.97L334.5 164.92L337.38 153.96C337.99 151.64 339.89 149.89 342.25 149.46Z" fill="white"/>
<path d="M41.1692 148.17L47.0092 146.32L41.1692 144.33C39.4192 143.87 38.0792 142.46 37.7092 140.7L35.8592 131.93L33.8692 140.51C33.4492 142.32 32.0192 143.72 30.1992 144.11L24.6992 146L30.0092 147.87C31.8692 148.3 33.2892 149.8 33.6292 151.68L35.1592 160.17L37.3992 151.68C37.8692 149.88 39.3392 148.52 41.1692 148.19V148.17Z" fill="#333333"/>
<path d="M300.5 24.9495L308.65 22.3595L300.5 19.5795C298.06 18.9395 296.2 16.9795 295.68 14.5095L293.09 2.26953L290.31 14.2395C289.72 16.7595 287.73 18.7195 285.19 19.2595L277.52 21.8995L284.92 24.5095C287.51 25.1095 289.5 27.1995 289.97 29.8195L292.11 41.6595L295.23 29.8095C295.89 27.2995 297.94 25.4095 300.49 24.9495H300.5Z" fill="#333333"/>
<path d="M364.86 175.27H370.68C378.71 175.27 385.23 181.79 385.23 189.82V194.95H350.3V189.82C350.3 181.79 356.82 175.27 364.85 175.27H364.86Z" fill="#333333"/>
<path d="M328.36 330.32H407.18C409.96 330.32 412.21 332.57 412.21 335.35V347.19H323.33V335.35C323.33 332.57 325.58 330.32 328.36 330.32Z" fill="#333333"/>
<path d="M404.98 323.84H330.57C328.902 323.84 327.55 325.192 327.55 326.86V327.63C327.55 329.298 328.902 330.65 330.57 330.65H404.98C406.648 330.65 408 329.298 408 327.63V326.86C408 325.192 406.648 323.84 404.98 323.84Z" fill="#666666"/>
<path d="M405.27 331.55H330.26C328.26 331.55 326.64 329.93 326.64 327.93V326.55C326.64 324.55 328.26 322.93 330.26 322.93H405.27C407.27 322.93 408.89 324.55 408.89 326.55V327.93C408.89 329.93 407.27 331.55 405.27 331.55ZM330.26 324.74C329.26 324.74 328.44 325.56 328.44 326.56V327.94C328.44 328.94 329.26 329.76 330.26 329.76H405.27C406.27 329.76 407.09 328.94 407.09 327.94V326.56C407.09 325.56 406.27 324.74 405.27 324.74H330.26Z" fill="#333333"/>
<path d="M382.04 242.42V223.92H353.49V242.42C353.49 270.44 347.69 298.16 336.46 323.83H399.07C387.84 298.16 382.04 270.44 382.04 242.42Z" fill="#333333"/>
<path d="M385.45 194.41H350.09L353.82 221.01H381.72L385.45 194.41Z" fill="#333333"/>
<path d="M385.62 218.52H349.92C348.253 218.52 346.9 219.872 346.9 221.54V222.31C346.9 223.977 348.253 225.33 349.92 225.33H385.62C387.288 225.33 388.64 223.977 388.64 222.31V221.54C388.64 219.872 387.288 218.52 385.62 218.52Z" fill="#666666"/>
<path d="M385.92 226.229H349.62C347.62 226.229 346 224.609 346 222.609V221.229C346 219.239 347.62 217.609 349.62 217.609H385.92C387.92 217.609 389.54 219.229 389.54 221.229V222.609C389.54 224.609 387.92 226.229 385.92 226.229ZM349.62 219.419C348.62 219.419 347.8 220.239 347.8 221.239V222.619C347.8 223.619 348.62 224.439 349.62 224.439H385.92C386.92 224.439 387.74 223.619 387.74 222.619V221.239C387.74 220.239 386.92 219.419 385.92 219.419H349.62Z" fill="#333333"/>
<path d="M385.62 190.621H349.92C348.253 190.621 346.9 191.973 346.9 193.641V194.411C346.9 196.079 348.253 197.431 349.92 197.431H385.62C387.288 197.431 388.64 196.079 388.64 194.411V193.641C388.64 191.973 387.288 190.621 385.62 190.621Z" fill="#666666"/>
<path d="M385.92 198.341H349.62C347.62 198.341 346 196.721 346 194.721V193.341C346 191.341 347.62 189.721 349.62 189.721H385.92C387.92 189.721 389.54 191.341 389.54 193.341V194.721C389.54 196.711 387.92 198.341 385.92 198.341ZM349.62 191.531C348.62 191.531 347.8 192.351 347.8 193.351V194.731C347.8 195.731 348.62 196.551 349.62 196.551H385.92C386.92 196.551 387.74 195.731 387.74 194.731V193.351C387.74 192.351 386.92 191.531 385.92 191.531H349.62Z" fill="#333333"/>
<path d="M367.77 175.38C371.951 175.38 375.34 171.991 375.34 167.81C375.34 163.629 371.951 160.24 367.77 160.24C363.589 160.24 360.2 163.629 360.2 167.81C360.2 171.991 363.589 175.38 367.77 175.38Z" fill="#666666"/>
<path d="M367.77 176.28C363.1 176.28 359.3 172.48 359.3 167.81C359.3 163.14 363.1 159.34 367.77 159.34C372.44 159.34 376.24 163.14 376.24 167.81C376.24 172.48 372.44 176.28 367.77 176.28ZM367.77 161.14C364.09 161.14 361.1 164.13 361.1 167.81C361.1 171.49 364.09 174.48 367.77 174.48C371.45 174.48 374.44 171.49 374.44 167.81C374.44 164.13 371.45 161.14 367.77 161.14Z" fill="#333333"/>
<path d="M84.6892 193.67L85.8592 186.88C85.8592 186.88 74.1592 183.13 60.8092 185.01C47.4692 186.88 27.0992 203.27 22.6592 232.06C18.2092 260.85 35.9992 300.88 36.4692 302.75C36.9392 304.62 84.6892 193.67 84.6892 193.67Z" fill="#333333"/>
<path d="M76.7286 190.391C76.7286 190.391 99.8986 198.351 101.309 199.991C102.719 201.631 101.539 203.501 102.949 204.671C104.349 205.841 132.439 230.891 132.439 230.891C132.439 230.891 131.039 236.741 131.739 238.611C132.439 240.481 133.139 243.061 132.439 244.701C131.739 246.341 128.689 247.271 127.989 248.911C127.289 250.551 125.649 251.251 122.839 252.191C120.029 253.131 114.409 255.941 108.799 252.191C103.179 248.441 100.839 243.761 96.3886 243.531C91.9386 243.301 79.2986 249.621 70.4086 245.401C70.4086 245.401 70.4086 246.571 74.1586 250.321C77.9086 254.071 115.829 280.981 104.359 323.821H33.1886C33.1886 323.821 39.0386 311.411 34.1286 295.731C29.2086 280.051 17.0386 240.961 32.4886 214.741C47.9386 188.521 63.8586 189.461 63.8586 189.461C63.8586 189.461 67.6086 170.971 76.4986 168.861L76.7286 190.401V190.391Z" fill="white"/>
<path d="M104.349 324.71H33.1889C32.8789 324.71 32.5989 324.551 32.4289 324.291C32.2589 324.031 32.2389 323.701 32.3789 323.421C32.4389 323.301 38.0189 311.121 33.2689 295.981C28.5489 280.921 16.0089 240.91 31.7189 214.26C45.4789 190.92 59.8789 188.741 63.1289 188.551C63.9389 185.031 67.8589 169.961 76.2889 167.961C76.5589 167.891 76.8389 167.961 77.0489 168.131C77.2689 168.301 77.3889 168.561 77.3989 168.831L77.6289 189.73C83.7189 191.83 100.599 197.75 101.999 199.39C102.889 200.43 102.969 201.531 103.029 202.411C103.089 203.211 103.129 203.641 103.529 203.961C104.929 205.131 131.899 229.17 133.049 230.2C133.299 230.42 133.399 230.761 133.329 231.081C132.809 233.241 132.149 237.1 132.599 238.28C133.709 241.24 133.939 243.51 133.289 245.04C132.839 246.1 131.779 246.83 130.749 247.53C129.929 248.09 129.089 248.67 128.839 249.25C127.969 251.29 125.929 252.1 123.149 253.03C122.839 253.13 122.489 253.26 122.109 253.4C120.309 254.06 117.839 254.97 115.019 254.97C112.609 254.97 110.349 254.28 108.309 252.93C106.079 251.45 104.369 249.83 102.849 248.4C100.559 246.25 98.7589 244.54 96.3489 244.42C95.0689 244.36 92.8889 244.93 90.3289 245.59C86.6589 246.55 82.0889 247.741 77.6389 247.741C75.7389 247.741 74.0289 247.531 72.4589 247.101C72.9789 247.751 73.7189 248.59 74.7989 249.67C75.1189 249.99 75.7789 250.55 76.6089 251.26C102.599 273.41 112.229 297.891 105.229 324.041C105.119 324.431 104.769 324.71 104.359 324.71H104.349ZM34.5389 322.911H103.659C110.119 297.751 100.629 274.1 75.4389 252.64C74.5389 251.88 73.8989 251.32 73.5189 250.95C69.8989 247.33 69.5089 245.86 69.5089 245.4C69.5089 245.09 69.6689 244.8 69.9289 244.64C70.1889 244.47 70.5189 244.46 70.7989 244.59C72.7389 245.51 74.9789 245.95 77.6389 245.95C81.8589 245.95 86.3089 244.79 89.8789 243.86C92.5989 243.15 94.9089 242.551 96.4489 242.631C99.5189 242.791 101.629 244.791 104.089 247.101C105.549 248.481 107.209 250.04 109.309 251.44C111.069 252.61 112.929 253.18 115.019 253.18C117.519 253.18 119.809 252.34 121.489 251.72C121.889 251.57 122.249 251.44 122.579 251.33C125.339 250.41 126.659 249.79 127.189 248.55C127.639 247.49 128.709 246.76 129.729 246.06C130.549 245.5 131.389 244.92 131.639 244.34C132.089 243.29 131.839 241.36 130.919 238.92C130.249 237.13 131.089 232.88 131.469 231.2C128.039 228.14 103.679 206.431 102.399 205.361C101.399 204.531 101.319 203.431 101.259 202.551C101.209 201.801 101.159 201.161 100.659 200.571C99.6089 199.551 87.4089 195.001 76.4689 191.241C76.1089 191.121 75.8689 190.78 75.8589 190.4L75.6389 170.09C68.1789 173.26 64.7989 189.461 64.7689 189.631C64.6789 190.071 64.2789 190.391 63.8289 190.351H63.6789C62.0689 190.351 47.5189 191.041 33.2989 215.191C17.9989 241.151 30.3689 280.601 35.0189 295.451C39.1289 308.551 35.9289 319.301 34.5689 322.911H34.5389Z" fill="#333333"/>
<path d="M90.0693 206.311C90.0693 206.311 96.3893 202.801 98.2593 204.911C100.129 207.021 98.2593 210.291 97.0893 210.291C95.9193 210.291 90.0693 206.311 90.0693 206.311Z" fill="#333333"/>
<path d="M127.999 236.27C127.999 236.27 127.529 230.89 124.959 231.59C122.389 232.29 124.019 235.34 127.999 236.27Z" fill="#333333"/>
<path d="M69.9397 187.58C69.9397 187.58 71.8097 176.81 74.6197 172.83C74.6197 172.83 74.3897 189.22 73.6797 189.45C72.9697 189.68 69.9297 187.58 69.9297 187.58H69.9397Z" fill="#333333"/>
<path d="M80.0892 266.331C76.6792 261.891 72.7692 257.851 69.3192 253.441C62.6992 244.991 57.7692 235.221 54.9092 224.871C58.9092 232.241 65.3692 238.241 72.9992 241.711C77.9092 243.941 83.2892 245.101 88.6792 245.161C83.1292 246.581 76.1592 248.021 70.6392 245.401C70.6392 245.401 70.6392 246.571 74.3892 250.321C78.1392 254.071 116.059 280.981 104.589 323.821H94.5692C97.7892 303.771 92.4792 282.441 80.0992 266.331H80.0892Z" fill="#333333"/>
<path d="M118.56 347.742H22.0896V331.882C22.0896 330.532 23.1896 329.432 24.5396 329.432H116.11C117.46 329.432 118.56 330.532 118.56 331.882V347.742Z" fill="white"/>
<path d="M118.55 348.641H22.0797C21.5797 348.641 21.1797 348.241 21.1797 347.741V331.641C21.1797 329.931 22.5697 328.531 24.2897 328.531H116.34C118.05 328.531 119.45 329.921 119.45 331.641V347.741C119.45 348.241 119.05 348.641 118.55 348.641ZM22.9797 346.841H117.65V331.641C117.65 330.921 117.06 330.331 116.34 330.331H24.2897C23.5697 330.331 22.9797 330.921 22.9797 331.641V346.841Z" fill="#333333"/>
<path d="M27.1495 329.791H113.489C113.76 329.791 113.979 329.572 113.979 329.301V322.891C113.979 322.62 113.76 322.401 113.489 322.401H27.1495C26.8789 322.401 26.6595 322.62 26.6595 322.891V329.301C26.6595 329.572 26.8789 329.791 27.1495 329.791Z" fill="white"/>
<path d="M113.53 330.69H27.1098C26.3698 330.69 25.7598 330.09 25.7598 329.34V322.84C25.7598 322.1 26.3598 321.49 27.1098 321.49H113.53C114.27 321.49 114.88 322.09 114.88 322.84V329.34C114.88 330.08 114.28 330.69 113.53 330.69ZM27.5598 328.89H113.07V323.3H27.5598V328.89Z" fill="#333333"/>
<path d="M91.95 196.061C91.95 196.061 91.9 196.061 91.87 196.051L76.66 190.601C76.57 190.571 76.51 190.481 76.51 190.391C76.45 185.771 76.26 171.441 76.27 169.121C75.01 169.591 67.98 172.761 65.46 184.381C65.43 184.501 65.31 184.581 65.19 184.551C65.07 184.521 64.99 184.401 65.02 184.281C67.68 172.021 75.74 168.611 76.5 168.611C76.51 168.611 76.52 168.611 76.53 168.611C76.65 168.631 76.75 168.771 76.72 168.891C76.68 169.311 76.86 182.941 76.96 190.221L92.03 195.611C92.15 195.651 92.21 195.781 92.17 195.901C92.14 195.991 92.05 196.051 91.96 196.051L91.95 196.061Z" fill="#251D1B"/>
<path d="M99.4596 329.98H36.5796C36.4596 329.98 36.3496 329.88 36.3496 329.75C36.3496 329.62 36.4496 329.52 36.5796 329.52H99.4596C99.5796 329.52 99.6896 329.62 99.6896 329.75C99.6896 329.88 99.5896 329.98 99.4596 329.98Z" fill="#251D1B"/>
<path d="M35.4694 316.341C35.4694 316.341 35.4394 316.341 35.4194 316.341C35.2994 316.311 35.2194 316.191 35.2494 316.071C37.2794 307.101 33.2794 295.071 29.7494 284.451C28.0394 279.311 26.4294 274.461 25.7794 270.671C25.7594 270.551 25.8394 270.431 25.9594 270.411C26.0794 270.391 26.1994 270.471 26.2194 270.591C26.8594 274.351 28.4694 279.181 30.1694 284.301C33.7194 294.971 37.7394 307.071 35.6794 316.171C35.6594 316.271 35.5594 316.341 35.4594 316.341H35.4694Z" fill="#251D1B"/>
<path d="M127.999 249.81C127.919 249.81 127.829 249.8 127.749 249.77C126.669 249.46 117.109 246.7 115.019 245.37C114.599 245.1 114.479 244.55 114.739 244.13C115.009 243.71 115.559 243.59 115.979 243.85C117.559 244.86 125.359 247.21 128.239 248.04C128.719 248.18 128.989 248.68 128.859 249.15C128.749 249.54 128.389 249.8 127.989 249.8L127.999 249.81Z" fill="#333333"/>
<path d="M115.609 254.291C110.429 254.291 107.289 251.581 105.249 249.821L104.789 249.431C104.689 249.351 104.679 249.211 104.759 249.111C104.839 249.021 104.979 249.001 105.079 249.081L105.539 249.481C108.019 251.621 112.159 255.191 119.719 253.301C119.839 253.261 119.959 253.341 119.989 253.461C120.019 253.581 119.949 253.701 119.829 253.731C118.289 254.121 116.889 254.281 115.609 254.281V254.291Z" fill="#251D1B"/>
<path d="M292.56 296.53C299.751 296.53 305.58 290.701 305.58 283.51C305.58 276.32 299.751 270.49 292.56 270.49C285.369 270.49 279.54 276.32 279.54 283.51C279.54 290.701 285.369 296.53 292.56 296.53Z" fill="white"/>
<path d="M292.56 297.42C284.89 297.42 278.64 291.18 278.64 283.5C278.64 275.82 284.88 269.58 292.56 269.58C300.24 269.58 306.48 275.82 306.48 283.5C306.48 291.18 300.24 297.42 292.56 297.42ZM292.56 271.38C285.88 271.38 280.44 276.82 280.44 283.5C280.44 290.18 285.88 295.62 292.56 295.62C299.24 295.62 304.68 290.18 304.68 283.5C304.68 276.82 299.24 271.38 292.56 271.38Z" fill="#333333"/>
<path d="M316.71 346.91H268.98V343.2C268.98 341.4 270.44 339.93 272.25 339.93H313.45C315.25 339.93 316.72 341.39 316.72 343.2V346.91H316.71Z" fill="white"/>
<path d="M316.72 347.8H268.99C268.49 347.8 268.09 347.4 268.09 346.9V342.86C268.09 340.74 269.81 339.02 271.93 339.02H313.78C315.9 339.02 317.62 340.74 317.62 342.86V346.9C317.62 347.4 317.22 347.8 316.72 347.8ZM269.89 346H315.82V342.86C315.82 341.74 314.9 340.82 313.78 340.82H271.93C270.8 340.82 269.89 341.74 269.89 342.86V346Z" fill="#333333"/>
<path d="M272.529 340.061H313.169C313.876 340.061 314.449 339.487 314.449 338.781V338.521C314.449 337.814 313.876 337.241 313.169 337.241H272.529C271.822 337.241 271.249 337.814 271.249 338.521V338.781C271.249 339.487 271.822 340.061 272.529 340.061Z" fill="#4257FF"/>
<path d="M313.3 340.96H272.4C271.27 340.96 270.35 340.04 270.35 338.91V338.39C270.35 337.26 271.27 336.34 272.4 336.34H313.3C314.43 336.34 315.35 337.26 315.35 338.39V338.91C315.35 340.04 314.43 340.96 313.3 340.96ZM272.4 338.14C272.26 338.14 272.15 338.26 272.15 338.39V338.91C272.15 339.05 272.26 339.16 272.4 339.16H313.3C313.44 339.16 313.55 339.04 313.55 338.91V338.39C313.55 338.25 313.44 338.14 313.3 338.14H272.4Z" fill="#333333"/>
<path d="M285.19 303.56V295.91H300.52V303.56C300.52 315.15 303.63 326.62 309.67 337.24H276.05C282.08 326.62 285.2 315.15 285.2 303.56H285.19Z" fill="white"/>
<path d="M309.68 338.14C309.68 338.14 309.67 338.14 309.66 338.14H276.04C275.72 338.14 275.42 337.97 275.26 337.69C275.1 337.41 275.1 337.07 275.26 336.79C281.25 326.24 284.29 315.06 284.29 303.55V295.9C284.29 295.4 284.69 295 285.19 295H300.52C301.02 295 301.42 295.4 301.42 295.9V303.55C301.42 315.01 304.43 326.14 310.37 336.65C310.5 336.81 310.58 337.01 310.58 337.23C310.58 337.73 310.18 338.13 309.68 338.13V338.14ZM277.57 336.34H308.13C302.48 325.91 299.61 314.89 299.61 303.56V296.81H286.08V303.56C286.08 314.89 283.22 325.91 277.56 336.34H277.57Z" fill="#333333"/>
<path d="M282.93 296.49H302.78C303.486 296.49 304.06 295.917 304.06 295.21V294.95C304.06 294.243 303.486 293.67 302.78 293.67H282.93C282.223 293.67 281.65 294.243 281.65 294.95V295.21C281.65 295.917 282.223 296.49 282.93 296.49Z" fill="#4257FF"/>
<path d="M302.91 297.39H282.8C281.67 297.39 280.75 296.47 280.75 295.34V294.82C280.75 293.69 281.67 292.77 282.8 292.77H302.91C304.04 292.77 304.96 293.69 304.96 294.82V295.34C304.96 296.47 304.04 297.39 302.91 297.39ZM282.8 294.57C282.66 294.57 282.55 294.69 282.55 294.82V295.34C282.55 295.48 282.66 295.59 282.8 295.59H302.91C303.05 295.59 303.16 295.47 303.16 295.34V294.82C303.16 294.68 303.05 294.57 302.91 294.57H282.8Z" fill="#333333"/>
<path d="M291.14 276.739C291.14 274.919 289.66 273.439 287.84 273.439C286.02 273.439 284.54 274.919 284.54 276.739C284.54 278.559 286.02 280.039 287.84 280.039C289.66 280.039 291.14 278.559 291.14 276.739Z" fill="white"/>
<path d="M285.4 280.519C285.4 279.889 284.89 279.369 284.25 279.369C283.61 279.369 283.1 279.879 283.1 280.519C283.1 281.159 283.61 281.669 284.25 281.669C284.89 281.669 285.4 281.159 285.4 280.519Z" fill="white"/>
<path d="M179.536 277.343C188.532 273.617 192.804 263.304 189.078 254.308C185.351 245.313 175.038 241.041 166.043 244.767C157.047 248.493 152.775 258.806 156.502 267.802C160.228 276.797 170.541 281.069 179.536 277.343Z" fill="#333333"/>
<path d="M205.499 346.91H140.869V340.73C140.869 338.93 142.329 337.46 144.139 337.46H202.239C204.039 337.46 205.509 338.92 205.509 340.73V346.91H205.499Z" fill="#333333"/>
<path d="M201.279 333.82H145.079C144.444 333.82 143.929 334.335 143.929 334.97V336.49C143.929 337.125 144.444 337.64 145.079 337.64H201.279C201.914 337.64 202.429 337.125 202.429 336.49V334.97C202.429 334.335 201.914 333.82 201.279 333.82Z" fill="#4D4D4D"/>
<path d="M162.799 288.21V277.85H183.559V288.21C183.559 303.91 187.779 319.44 195.939 333.82H150.419C158.589 319.44 162.799 303.91 162.799 288.21Z" fill="#333333"/>
<path d="M187.199 274.82H159.149C158.514 274.82 157.999 275.335 157.999 275.97V277.49C157.999 278.125 158.514 278.64 159.149 278.64H187.199C187.834 278.64 188.349 278.125 188.349 277.49V275.97C188.349 275.335 187.834 274.82 187.199 274.82Z" fill="#4D4D4D"/>
<path d="M170.859 251.9C170.859 249.43 168.859 247.43 166.389 247.43C163.919 247.43 161.919 249.43 161.919 251.9C161.919 254.37 163.919 256.37 166.389 256.37C168.859 256.37 170.859 254.37 170.859 251.9Z" fill="white"/>
<path d="M163.089 257.011C163.089 256.151 162.389 255.461 161.539 255.461C160.689 255.461 159.989 256.161 159.989 257.011C159.989 257.861 160.689 258.561 161.539 258.561C162.389 258.561 163.089 257.861 163.089 257.011Z" fill="white"/>
<path d="M365.62 93.0798C363.8 93.0798 358.48 91.1198 357.28 89.9298L357.3 105.48C357.3 107.49 355.68 109.12 353.67 109.12L310.9 109.18C308.89 109.18 307.26 107.56 307.26 105.55L307.24 91.3098C308.08 91.6998 309.02 91.9198 310.01 91.9198C313.65 91.9198 316.6 88.9598 316.6 85.3198C316.6 81.6798 313.64 78.7298 310 78.7298C309.01 78.7298 308.08 78.9598 307.24 79.3498L307.22 62.7798C307.22 60.7698 308.84 59.1398 310.85 59.1398L328.31 59.1198C326.12 60.2498 324.61 62.5098 324.61 65.1398C324.61 68.8898 327.66 71.9298 331.41 71.9298C335.16 71.9298 338.2 68.8798 338.2 65.1298C338.2 62.4998 336.68 60.2398 334.48 59.1098L353.62 59.0898C355.63 59.0898 357.26 60.7098 357.26 62.7198L357.28 80.5998C358.47 79.4098 361.79 75.5998 363.61 75.5998C367.25 75.5998 373.05 81.3298 373.06 84.9698C373.06 88.6098 369.27 93.0798 365.63 93.0898L365.62 93.0798Z" fill="#A2BFF9"/>
<path d="M56.6395 17.5996C56.6395 20.0796 57.6395 22.3296 59.2595 23.9596L38.0295 23.9296C35.2895 23.9296 33.0595 26.1496 33.0595 28.8896L32.9795 87.2696C32.9795 90.0096 35.1995 92.2396 37.9395 92.2396L57.3795 92.2596C56.8495 91.1096 56.5495 89.8296 56.5495 88.4896C56.5495 83.5196 60.5895 79.4896 65.5595 79.4996C70.5295 79.4996 74.5595 83.5396 74.5495 88.5096C74.5495 89.8596 74.2395 91.1296 73.7095 92.2796L96.3295 92.3096C99.0695 92.3096 101.299 90.0896 101.299 87.3496L101.329 63.5096C99.7895 66.4996 96.6995 68.5596 93.1095 68.5596C87.9895 68.5596 83.8395 64.3996 83.8495 59.2696C83.8495 54.1496 88.0095 49.9996 93.1395 50.0096C96.7395 50.0096 99.8195 52.0896 101.349 55.0796L101.379 28.9596C101.379 26.2196 99.1595 23.9896 96.4195 23.9896L72.0095 23.9596C73.6395 22.3296 74.6395 20.0896 74.6495 17.6096C74.6495 12.6396 70.6295 8.59961 65.6595 8.59961C60.6895 8.59961 56.6495 12.6196 56.6495 17.5896L56.6395 17.5996Z" fill="#A2BFF9"/>
</svg>
