<svg width="394" height="350" viewBox="0 0 394 350" fill="none" xmlns="http://www.w3.org/2000/svg">
<path d="M140.17 260.751C149.95 270.141 155.85 282.731 162.23 294.701C174.33 317.391 191.54 340.681 216.82 345.401C225.62 347.041 234.71 346.231 243.48 344.461C286.92 335.731 324.45 302.161 337.96 259.961C345.05 237.811 345.83 214.191 345.74 190.941C345.64 163.821 344.44 136.731 343.25 109.641C342.83 100.191 342.42 90.7409 342 81.2909C341.82 77.1309 341.61 72.8509 339.89 69.0609C338.1 65.1009 334.81 62.0209 331.36 59.3909C318.5 49.5909 302.05 44.6109 285.92 45.6409C272.31 46.5009 256.27 50.6709 246.78 40.8809C238.29 32.1209 240.17 16.2109 230.61 8.62091C227.5 6.15091 223.57 4.96091 219.71 4.01091C189.26 -3.52909 156.77 0.21091 127.11 10.4309C100.54 19.5909 74.42 35.2709 61.95 60.4609C58.78 66.8709 56.55 73.9609 57.12 81.0909C57.54 86.2809 59.41 91.2209 61.1 96.1409C64.81 106.941 67.75 118.531 65.41 129.711C63.09 140.801 55.84 150.241 52.49 161.061C48.24 174.821 50.74 190.191 57.73 202.791C64.71 215.391 75.88 225.351 88.42 232.431C105.62 242.141 125.92 247.081 140.16 260.771L140.17 260.751Z" fill="#4257FF"/>
<path d="M271.66 21.1309L278.76 18.8809L271.66 16.4609C269.54 15.9009 267.91 14.1909 267.45 12.0409L265.2 1.38086L262.78 11.8109C262.27 14.0109 260.53 15.7109 258.32 16.1809L251.63 18.4809L258.08 20.7609C260.34 21.2809 262.07 23.1009 262.48 25.3909L264.34 35.7109L267.06 25.3809C267.63 23.2009 269.42 21.5409 271.65 21.1409L271.66 21.1309Z" fill="#333333"/>
<path d="M59.4704 45.7402L66.5704 43.4902L59.4704 41.0702C57.3504 40.5102 55.7204 38.8002 55.2604 36.6502L53.0104 25.9902L50.5904 36.4202C50.0804 38.6202 48.3404 40.3202 46.1304 40.7902L39.4404 43.0902L45.8904 45.3702C48.1504 45.8902 49.8804 47.7102 50.2904 50.0002L52.1504 60.3202L54.8704 49.9902C55.4404 47.8102 57.2304 46.1502 59.4604 45.7502L59.4704 45.7402Z" fill="#333333"/>
<path d="M40.5505 173.111L44.8005 171.761L40.5505 170.311C39.2805 169.981 38.3105 168.951 38.0305 167.671L36.6805 161.291L35.2305 167.531C34.9205 168.851 33.8805 169.871 32.5605 170.151L28.5605 171.531L32.4205 172.891C33.7705 173.201 34.8105 174.291 35.0605 175.661L36.1805 181.831L37.8105 175.651C38.1505 174.341 39.2205 173.351 40.5505 173.111Z" fill="#333333"/>
<path d="M381.66 113.302C380.73 104.962 386.29 97.7917 383.51 93.9617C380.73 90.1317 373.5 88.1417 362.28 88.4417C351.07 88.7417 319.71 94.3017 319.4 102.652C319.09 110.992 322.97 109.792 323.72 113.312C324.47 116.832 325.11 125.442 325.11 125.442L381.65 113.312L381.66 113.302Z" fill="#D0E1FF"/>
<path d="M325.121 126.282C324.941 126.282 324.761 126.222 324.611 126.112C324.411 125.962 324.291 125.742 324.271 125.492C324.271 125.402 323.621 116.892 322.901 113.472C322.681 112.452 322.161 111.952 321.441 111.262C320.061 109.942 318.351 108.302 318.561 102.602C318.921 93.0616 352.211 87.8516 362.271 87.5816C373.631 87.2816 381.211 89.3216 384.211 93.4516C385.901 95.7816 385.021 98.9316 383.991 102.572C383.101 105.752 382.081 109.362 382.511 113.202C382.561 113.632 382.271 114.032 381.841 114.122L325.301 126.252C325.241 126.262 325.181 126.272 325.121 126.272V126.282ZM364.461 89.2616C363.761 89.2616 363.051 89.2716 362.311 89.2916C349.901 89.6216 320.521 95.5916 320.261 102.682C320.071 107.622 321.371 108.852 322.621 110.052C323.421 110.812 324.241 111.602 324.571 113.132C325.181 116.002 325.711 122.042 325.901 124.402L380.761 112.632C380.501 108.772 381.481 105.252 382.361 102.122C383.301 98.7716 384.041 96.1216 382.841 94.4516C380.371 91.0516 374.021 89.2516 364.471 89.2516L364.461 89.2616Z" fill="#333333"/>
<path d="M362.29 102.303C374.71 99.1629 378.49 97.7729 378.34 95.2229C378.19 92.6729 369.59 94.0829 364.39 93.9529C359.19 93.8329 326.08 95.1329 323.5 102.293C320.93 109.463 348.76 104.193 348.76 104.193L362.29 102.293V102.303Z" fill="#333333"/>
<path d="M386.529 18.502C383.369 17.832 380.24 19.732 379.54 22.732C379.16 24.392 378.53 26.612 377.79 29.092C378.49 23.452 379.01 17.962 378.95 14.292C378.9 11.212 376.239 8.752 372.999 8.792C369.769 8.842 367.18 11.362 367.23 14.432C367.28 17.512 366.839 22.262 366.209 27.282C366.439 19.292 366.389 11.712 365.659 8.102C365.049 5.082 361.97 3.102 358.79 3.672C355.63 4.242 353.53 7.162 354.14 10.192C354.74 13.162 354.699 21.142 354.369 30.022C354.149 28.012 353.729 26.192 353.089 24.552C352.179 22.212 350.859 20.242 349.089 18.652C347.219 16.972 345.559 15.582 343.019 15.052C340.929 14.622 338.749 14.742 336.649 15.162C333.019 15.882 329.279 17.732 327.799 21.112C326.739 23.522 327.249 26.782 329.939 27.832C331.049 28.262 332.289 28.262 333.469 28.092C334.109 28.002 339.059 26.512 339.399 27.182C340.259 28.922 341.279 33.262 340.329 39.832C339.499 44.092 338.899 46.132 337.129 49.972C337.119 49.982 333.309 55.412 332.189 53.672C331.069 51.932 331 44.302 330.67 39.832C330.33 35.362 324.979 31.662 321.459 37.672C317.929 43.682 319.049 53.412 321.219 65.872C323.379 78.332 327.17 80.272 331.54 84.642C331.54 84.922 333.349 100.382 333.149 104.212C349.229 104.212 362.68 104.212 372.14 98.302V86.052C378.71 78.392 383.279 58.452 382.879 51.202C385.079 44.752 389.519 31.502 390.989 25.152C391.689 22.152 389.689 19.172 386.529 18.502Z" fill="white"/>
<path d="M333.16 105.052C332.93 105.052 332.7 104.952 332.54 104.792C332.38 104.622 332.3 104.392 332.31 104.162C332.47 101.172 331.32 90.5222 330.89 86.5222C330.8 85.7322 330.76 85.2922 330.73 85.0322C330.22 84.5322 329.73 84.0722 329.24 83.6122C325.52 80.1122 322.31 77.0922 320.39 66.0322C318.32 54.1322 316.92 43.7522 320.74 37.2622C322.46 34.3222 324.46 33.7122 325.83 33.7122C328.67 33.7122 331.28 36.4922 331.53 39.7922C331.61 40.8822 331.68 42.1522 331.75 43.4822C331.94 47.0622 332.19 51.9522 332.89 53.1822C333.51 53.0322 335.13 51.3822 336.41 49.5722C338.16 45.7522 338.72 43.7422 339.51 39.6922C340.33 34.0722 339.66 29.9022 338.79 27.8822C337.87 27.8922 335.83 28.4122 334.72 28.6922C334.1 28.8522 333.79 28.9322 333.61 28.9522C332.07 29.1822 330.76 29.0722 329.65 28.6422C328.38 28.1522 327.43 27.2122 326.9 25.9322C326.25 24.3722 326.31 22.4522 327.04 20.7922C328.44 17.6022 331.89 15.2622 336.51 14.3422C338.97 13.8622 341.22 13.8222 343.21 14.2322C345.92 14.7922 347.67 16.2222 349.68 18.0322C351.41 19.5922 352.77 21.5322 353.72 23.8022C353.86 16.9722 353.72 12.3722 353.32 10.3722C352.99 8.73219 353.32 7.06219 354.28 5.66219C355.29 4.18219 356.84 3.18219 358.65 2.85219C359.06 2.78219 359.49 2.74219 359.91 2.74219C363.12 2.74219 365.89 4.93219 366.51 7.95219C366.71 8.92219 366.86 10.1922 366.97 11.7622C368 9.55219 370.31 7.99219 373 7.95219H373.09C376.74 7.95219 379.76 10.7922 379.81 14.2822C379.84 15.9422 379.75 18.0622 379.55 20.6022C380.75 18.7422 382.9 17.5222 385.27 17.5222C385.76 17.5222 386.25 17.5722 386.72 17.6722C388.52 18.0522 390.05 19.0922 391.01 20.6022C391.92 22.0322 392.21 23.7122 391.83 25.3422C390.39 31.5422 386.17 44.2122 383.75 51.3222C384.06 58.5122 379.71 78.2522 373 86.3622V98.3022C373 98.5922 372.85 98.8622 372.6 99.0222C362.94 105.052 349.14 105.052 333.16 105.052ZM325.83 35.3922C324.5 35.3922 323.24 36.3322 322.2 38.1022C318.68 44.0922 320.13 54.5922 322.06 65.7222C323.88 76.2322 326.76 78.9322 330.4 82.3622C330.97 82.8922 331.55 83.4422 332.14 84.0322C332.31 84.2022 332.4 84.4222 332.39 84.6622C332.39 84.7322 332.47 85.3622 332.57 86.3322C333.01 90.4022 333.98 99.4822 334.01 103.352C349.13 103.352 362.22 103.252 371.28 97.8222V86.0422C371.28 85.8422 371.35 85.6422 371.48 85.4922C377.87 78.0522 382.4 58.2222 382.02 51.2422C382.02 51.1322 382.02 51.0222 382.06 50.9222C384.46 43.8722 388.71 31.1322 390.15 24.9622C390.42 23.7822 390.21 22.5622 389.55 21.5222C388.84 20.4022 387.69 19.6222 386.34 19.3422C385.98 19.2622 385.61 19.2222 385.24 19.2222C382.91 19.2222 380.86 20.7822 380.36 22.9322C380 24.4822 379.41 26.6422 378.59 29.3522C378.46 29.7722 378.04 30.0322 377.6 29.9422C377.17 29.8522 376.88 29.4422 376.93 29.0022C377.75 22.4522 378.14 17.5122 378.08 14.3222C378.04 11.7522 375.78 9.66219 373.05 9.66219C370.22 9.70219 368.01 11.8522 368.05 14.4422C368.09 17.2122 367.75 21.5722 367.03 27.4122C366.97 27.8622 366.57 28.1922 366.12 28.1522C365.67 28.1222 365.32 27.7322 365.34 27.2822C365.61 17.7622 365.43 11.3722 364.81 8.29219C364.36 6.06219 362.28 4.44219 359.88 4.44219C359.56 4.44219 359.24 4.47219 358.93 4.53219C357.57 4.78219 356.41 5.52219 355.66 6.62219C354.97 7.64219 354.72 8.85219 354.96 10.0422C355.65 13.4322 355.48 22.8022 355.21 30.0622C355.19 30.5122 354.84 30.8622 354.39 30.8822C353.92 30.9222 353.56 30.5722 353.52 30.1222C353.31 28.1822 352.9 26.4122 352.3 24.8722C351.44 22.6522 350.17 20.7822 348.53 19.3022C346.66 17.6122 345.15 16.3822 342.85 15.9022C341.08 15.5322 339.06 15.5722 336.82 16.0122C334.9 16.3922 330.24 17.6822 328.58 21.4722C328.04 22.7022 327.99 24.1622 328.46 25.2822C328.81 26.1322 329.42 26.7322 330.26 27.0622C331.09 27.3822 332.12 27.4522 333.36 27.2722C333.5 27.2522 333.84 27.1622 334.3 27.0422C335.65 26.7022 337.7 26.1822 338.82 26.1822C339.07 26.1822 339.85 26.1822 340.17 26.8222C341.26 29.0222 342.1 33.6322 341.18 39.9722C340.35 44.2322 339.76 46.3122 337.91 50.3422C337.89 50.3822 337.86 50.4322 337.84 50.4722C337.33 51.2122 334.69 54.8822 332.8 54.8822C332.26 54.8822 331.79 54.6222 331.49 54.1522C330.59 52.7522 330.33 49.0522 330.05 43.5722C329.98 42.2522 329.92 40.9922 329.84 39.9222C329.66 37.5222 327.79 35.4122 325.83 35.4122V35.3922Z" fill="#333333"/>
<path d="M358.219 78.3927C358.219 78.3927 358.169 78.3927 358.149 78.3827C357.889 78.3227 357.719 78.0727 357.789 77.8227C362.149 59.9527 345.669 54.5027 344.959 54.2727C344.699 54.1927 344.569 53.9327 344.649 53.6827C344.739 53.4427 345.019 53.3027 345.269 53.3927C345.449 53.4527 363.309 59.3327 358.739 78.0327C358.679 78.2627 358.459 78.4027 358.219 78.3927Z" fill="#333333"/>
<path d="M378.75 47.6024C378.75 47.6024 378.65 47.6024 378.61 47.6024C378.38 47.5524 355.82 42.7824 347.52 41.7924C347.25 41.7624 347.06 41.5324 347.09 41.2724C347.12 41.0224 347.36 40.8424 347.64 40.8724C355.98 41.8624 378.59 46.6524 378.82 46.6924C379.08 46.7524 379.25 46.9924 379.19 47.2424C379.14 47.4424 378.96 47.5924 378.75 47.6024Z" fill="#333333"/>
<path d="M372.66 46.3017C372.59 46.3217 372.51 46.3217 372.43 46.3017C372.22 46.2417 372.11 46.0317 372.17 45.8317L377.36 29.7117C377.42 29.5117 377.64 29.4017 377.85 29.4617C378.06 29.5217 378.17 29.7317 378.11 29.9317L372.92 46.0517C372.88 46.1717 372.78 46.2617 372.66 46.3017Z" fill="#333333"/>
<path d="M362.59 43.6718C362.53 43.6918 362.47 43.6918 362.4 43.6718C362.19 43.6318 362.05 43.4318 362.1 43.2318L365.51 27.4418C365.55 27.2418 365.76 27.1118 365.97 27.1518C366.18 27.1918 366.32 27.3918 366.27 27.5918L362.86 43.3818C362.83 43.5218 362.72 43.6218 362.59 43.6618V43.6718Z" fill="#333333"/>
<path d="M352.76 42.093C352.7 42.113 352.65 42.113 352.59 42.093C352.38 42.063 352.23 41.873 352.27 41.673L354.03 31.023C354.06 30.823 354.26 30.683 354.47 30.713C354.68 30.743 354.83 30.933 354.79 31.133L353.03 41.783C353.01 41.933 352.9 42.043 352.76 42.083V42.093Z" fill="#333333"/>
<path d="M167.63 133.802C156.88 133.232 151.79 138.262 150.4 141.532C149.01 144.802 144.38 147.132 144.38 147.132C144.38 147.132 111.94 149.992 96.6397 164.082C81.3497 178.182 50.2897 254.022 39.6297 296.662C28.9697 339.302 28.9697 347.942 28.9697 347.942H130.47L176.15 321.222L167.63 133.792V133.802Z" fill="white"/>
<path d="M130.46 347.952H28.9701C28.5001 347.952 28.1201 347.702 28.1201 347.232C28.1201 346.882 28.2401 338.362 38.8001 296.102C49.6601 252.662 80.5301 177.732 96.0501 163.432C110.97 149.672 141.28 146.552 144.12 146.292C144.87 145.892 148.48 143.852 149.61 141.202C151.23 137.372 156.49 132.912 165.97 132.912C166.52 132.912 167.09 132.932 167.68 132.962C168.12 132.982 168.46 133.332 168.48 133.772L177 320.912C177.01 321.232 176.85 321.532 176.58 321.682L130.9 347.972C130.77 348.052 130.62 347.952 130.47 347.952H130.46ZM29.8701 346.952H130.23L175.27 320.682L166.81 134.732C157.6 134.462 152.64 138.472 151.17 141.932C149.67 145.462 144.94 147.832 144.74 147.932C144.64 147.982 144.54 147.992 144.43 148.002C144.11 148.032 112.1 150.992 97.1901 164.732C82.2601 178.492 51.1101 254.112 40.4301 296.812C31.6801 331.802 30.1301 342.962 29.8501 346.962L29.8701 346.952Z" fill="#333333"/>
<path d="M200.01 136.012C200.01 136.012 207.08 138.792 212.18 138.792C217.28 138.792 219.67 143.892 219.67 143.892C219.67 143.892 229.42 139.262 249.35 139.952C269.28 140.652 328.45 194.142 328.45 194.142L321.45 115.162L329.32 115.842C345.26 117.222 361.31 115.022 376.29 109.402L385.18 106.072C385.18 106.072 408.63 249.122 372.17 269.802C331.84 292.682 283.52 241.682 283.52 241.682C283.52 241.682 281.2 270.892 277.03 286.652C272.86 302.412 294.8 347.352 294.8 347.352H247.99L200.02 136.012H200.01Z" fill="white"/>
<path d="M294.81 348.192H247.98C247.58 348.192 247.24 347.922 247.15 347.532L199.18 136.192C199.11 135.882 199.22 135.562 199.45 135.362C199.69 135.162 200.02 135.102 200.31 135.212C200.38 135.242 207.29 137.932 212.16 137.932C216.57 137.932 219.1 141.282 220.02 142.802C222.44 141.842 230.73 139.022 245.3 139.022C246.63 139.022 247.99 139.042 249.35 139.092C267.75 139.732 317.59 183.332 327.38 192.062L320.57 115.222C320.55 114.972 320.64 114.722 320.81 114.552C320.99 114.372 321.24 114.282 321.48 114.302L329.35 114.982C332.4 115.242 335.49 115.382 338.55 115.382C351.37 115.382 363.95 113.102 375.95 108.602L384.84 105.272C385.08 105.182 385.34 105.202 385.56 105.332C385.78 105.462 385.93 105.682 385.97 105.932C386.03 106.292 391.86 142.182 393.15 180.152C394.89 231.382 387.96 261.792 372.54 270.542C365.5 274.532 357.75 276.562 349.49 276.562C319.55 276.562 290.57 249.872 284.16 243.592C283.57 250.252 281.34 273.512 277.8 286.882C273.87 301.732 294.12 344.122 295.44 346.852C295.55 346.992 295.61 347.172 295.61 347.362C295.61 347.832 295.23 348.212 294.76 348.212L294.81 348.192ZM248.66 346.492H293.44C289.89 339.032 272.34 301.032 276.2 286.422C280.3 270.922 282.64 241.892 282.66 241.602C282.69 241.272 282.91 240.982 283.22 240.872C283.53 240.762 283.89 240.842 284.12 241.092C284.44 241.432 316.49 274.852 349.52 274.852C357.48 274.852 364.95 272.902 371.73 269.062C405.66 249.812 386.48 120.132 384.48 107.232L376.57 110.202C364.38 114.772 351.6 117.092 338.58 117.092C335.47 117.092 332.33 116.952 329.24 116.692L322.38 116.102L329.29 194.072C329.32 194.422 329.14 194.752 328.82 194.902C328.51 195.062 328.13 195.002 327.87 194.772C327.28 194.242 268.71 141.482 249.31 140.802C247.97 140.752 246.62 140.732 245.32 140.732C228.54 140.732 220.12 144.622 220.03 144.662C219.83 144.762 219.59 144.772 219.38 144.692C219.17 144.612 218.99 144.462 218.9 144.252C218.88 144.212 216.66 139.642 212.18 139.642C208.36 139.642 203.57 138.172 201.19 137.342L248.66 346.502V346.492Z" fill="#333333"/>
<path d="M263.68 226.941C276.46 253.721 268.58 288.761 268.58 294.351C268.58 299.941 287.24 347.951 287.24 347.951H248.19L241.04 275.581L263.69 226.941H263.68Z" fill="#333333"/>
<path d="M215.61 149.354C225.03 165.404 257.22 198.134 262.44 223.474C267.66 248.814 254.68 280.994 254.68 287.004C254.68 293.014 254.06 347.954 254.06 347.954H130.47C130.47 347.954 145.28 318.554 153.94 285.984C162.6 253.414 157.64 226.014 153.94 205.344C150.24 184.674 153.94 149.104 153.94 149.104L215.62 149.354H215.61Z" fill="#A1C3FF"/>
<path d="M254.05 347.953H130.46C130.16 347.953 129.89 347.933 129.74 347.683C129.59 347.433 129.57 347.183 129.71 346.923C129.86 346.633 144.58 317.553 153.12 285.443C161.68 253.263 156.76 225.803 153.18 205.733L153.11 205.343C149.44 184.793 153.06 149.183 153.11 148.833C153.16 148.403 153.52 147.963 153.95 147.963L215.63 148.403C215.93 148.403 216.21 148.623 216.36 148.883C219.3 153.893 224.47 160.553 230.44 168.223C243.46 184.943 259.67 205.763 263.28 223.303C267.14 242.043 261.23 264.023 257.71 277.153C256.5 281.663 255.54 285.233 255.54 286.733C255.54 292.673 254.92 346.723 254.92 347.263C254.92 347.733 254.54 347.973 254.07 347.973L254.05 347.953ZM131.83 346.953H253.21C253.29 339.953 253.83 292.463 253.83 286.933C253.83 285.213 254.76 281.623 256.06 276.813C259.55 263.833 265.39 242.043 261.61 223.703C258.07 206.553 242 185.893 229.09 169.313C223.24 161.803 218.16 155.273 215.13 150.213L154.7 149.883C154.2 155.163 151.43 186.393 154.77 205.043L154.84 205.443C158.46 225.663 163.41 253.573 154.75 286.123C147.16 314.653 134.72 340.943 131.83 346.943V346.953Z" fill="#333333"/>
<path d="M165.05 128.852C162.39 117.052 159.34 117.432 150.59 109.442C141.84 101.452 124.71 90.0319 131.94 61.1119C139.17 32.1919 149.45 29.5219 168.09 24.5819C186.74 19.6319 205.39 24.9619 214.9 24.2019C224.41 23.4419 239.64 31.0519 235.45 45.1319C231.26 59.2119 224.79 62.6419 224.79 62.6419L165.04 128.862L165.05 128.852Z" fill="#333333"/>
<path d="M219.1 36.2832C219.1 36.2832 224.52 40.8532 227.09 50.5532C229.66 60.2532 229.96 63.6632 231.13 71.0932C231.69 74.6632 239.37 78.7432 239.94 81.5932C240.51 84.4432 235.94 88.7932 235.94 88.7932C235.94 88.7932 239.94 113.913 226.24 119.333C212.54 124.753 205.4 126.183 205.4 126.183L204.96 140.283C204.88 142.813 206.32 145.133 208.62 146.193L215.39 149.303C215.39 149.303 221.95 163.863 210.25 170.993C198.55 178.133 153.74 149.013 153.74 149.013L157.34 146.583C161.75 143.603 164.63 138.823 165.2 133.533L166.58 120.763C166.58 120.763 179.14 103.353 179.71 100.213C179.71 100.213 168.29 101.353 165.72 92.2232C163.15 83.0932 172.28 76.2432 176.57 76.2432C180.86 76.2432 184.56 79.6732 184.56 79.6732C184.56 79.6732 215.67 59.6932 219.1 36.2932V36.2832Z" fill="white"/>
<path d="M205.33 172.973C189.23 172.973 154.73 150.683 153.27 149.733C153.03 149.573 152.89 149.313 152.88 149.033C152.88 148.753 153.02 148.483 153.25 148.323L156.85 145.893C161.07 143.043 163.8 138.513 164.34 133.453L165.72 120.683C165.74 120.533 165.79 120.393 165.88 120.273C170.32 114.113 176.8 104.663 178.47 101.113C175.1 101.113 167.09 100.253 164.89 92.4526C163.8 88.5626 164.62 84.5426 167.21 81.1226C169.69 77.8526 173.7 75.3926 176.55 75.3926C180.2 75.3926 183.39 77.6326 184.6 78.6026C188.66 75.8626 215.15 57.2526 218.24 36.1526C218.28 35.8526 218.49 35.5926 218.78 35.4826C219.07 35.3726 219.39 35.4326 219.63 35.6226C219.86 35.8126 225.29 40.4726 227.9 50.3226C230.06 58.4926 230.64 62.3126 231.44 67.6026C231.6 68.6426 231.76 69.7426 231.95 70.9426C232.2 72.5426 234.48 74.5526 236.49 76.3226C238.6 78.1826 240.43 79.8026 240.75 81.4126C241.32 84.2626 237.96 87.9426 236.82 89.0826C237.31 92.6026 239.85 114.833 226.53 120.113C215.09 124.643 208.27 126.383 206.21 126.863L205.79 140.303C205.72 142.493 206.96 144.503 208.95 145.413L215.72 148.523C215.91 148.613 216.06 148.763 216.14 148.943C216.21 149.093 222.87 164.273 210.67 171.713C209.31 172.543 207.51 172.963 205.31 172.963L205.33 172.973ZM155.28 149.003C161.35 152.833 191.28 171.273 205.33 171.283C207.21 171.283 208.71 170.943 209.8 170.283C219.86 164.143 215.53 151.963 214.72 149.943L208.25 146.973C205.64 145.773 204.01 143.143 204.1 140.273L204.54 126.173C204.55 125.783 204.84 125.443 205.22 125.363C205.29 125.353 212.46 123.883 225.91 118.553C238.83 113.443 235.13 89.1826 235.09 88.9326C235.05 88.6526 235.14 88.3726 235.34 88.1826C236.98 86.6226 239.44 83.5026 239.09 81.7626C238.88 80.7126 237.01 79.0626 235.37 77.6126C233.04 75.5526 230.63 73.4326 230.28 71.2226C230.09 70.0126 229.92 68.9126 229.77 67.8726C228.95 62.4426 228.4 58.8526 226.26 50.7726C224.49 44.0826 221.32 39.8926 219.65 38.0426C215.1 60.8226 186.27 79.5726 185.02 80.3826C184.7 80.5926 184.27 80.5526 183.99 80.2926C183.96 80.2626 180.46 77.0926 176.57 77.0926C174.53 77.0926 170.98 78.9826 168.58 82.1526C166.98 84.2626 165.33 87.6826 166.54 92.0026C168.42 98.7026 175.53 99.4226 178.5 99.4226C179.19 99.4226 179.62 99.3826 179.62 99.3826C179.89 99.3526 180.15 99.4526 180.33 99.6526C180.51 99.8526 180.59 100.113 180.54 100.383C179.97 103.533 169.19 118.603 167.39 121.093L166.03 133.643C165.43 139.203 162.43 144.173 157.8 147.303L155.27 149.013L155.28 149.003Z" fill="#333333"/>
<path d="M228.61 117.053C216.43 121.813 190.74 119.523 190.74 119.523C190.74 119.523 196.73 130.753 204.54 133.793L205.4 126.183L221.38 121.043L228.61 117.043V117.053Z" fill="#333333"/>
<path d="M224.82 71.3613C224.42 68.8613 223.1 66.9913 221.88 67.1813C220.66 67.3713 219.99 69.5613 220.39 72.0713C220.79 74.5813 222.11 76.4413 223.33 76.2513C224.55 76.0513 225.22 73.8713 224.82 71.3613Z" fill="#333333"/>
<path d="M164.791 35.6326C168.711 34.9926 171.851 38.6725 175.491 40.2625C184.711 44.2725 195.801 34.3726 204.921 38.5826C205.781 38.9826 206.661 39.5826 206.901 40.5026C207.071 41.1226 206.921 41.7726 206.741 42.3926C205.511 46.6926 202.821 50.5725 199.211 53.2325C198.041 54.0925 196.741 54.8426 195.291 55.0226C191.621 55.4726 188.681 52.2626 185.491 50.3826C182.331 48.5226 178.451 47.9126 174.861 48.7126C171.631 49.4426 168.711 51.2426 165.451 51.8326C162.191 52.4226 158.141 51.1826 157.291 47.9826C156.801 46.1426 157.511 44.2126 158.271 42.4626C159.581 39.4526 161.541 36.1726 164.781 35.6426L164.791 35.6326Z" fill="white"/>
<path d="M194.6 55.483C192.06 55.483 189.88 53.913 187.76 52.403C186.95 51.823 186.12 51.223 185.29 50.733C183.12 49.453 180.61 48.773 178.04 48.773C177 48.773 175.97 48.883 174.97 49.113C173.48 49.443 172.02 50.033 170.61 50.593C168.99 51.243 167.31 51.913 165.54 52.233C165 52.333 164.43 52.383 163.86 52.383C160.96 52.383 157.68 51.053 156.89 48.073C156.35 46.073 157.13 44.033 157.89 42.273C159.09 39.523 161.11 35.793 164.72 35.203C165.04 35.153 165.37 35.123 165.69 35.123C168.05 35.123 170.15 36.503 172.18 37.843C173.3 38.583 174.46 39.343 175.65 39.863C177.11 40.493 178.68 40.803 180.47 40.803C183.55 40.803 186.84 39.863 190.01 38.953C193.23 38.033 196.57 37.083 199.75 37.083C201.73 37.083 203.48 37.443 205.09 38.193C206.32 38.763 207.07 39.503 207.31 40.383C207.5 41.093 207.35 41.813 207.15 42.493C205.89 46.903 203.16 50.833 199.47 53.553C198.52 54.253 197.05 55.213 195.36 55.423C195.1 55.453 194.85 55.473 194.6 55.473V55.483ZM178.03 47.933C180.75 47.933 183.41 48.653 185.71 50.003C186.57 50.513 187.42 51.123 188.25 51.713C190.55 53.353 192.71 54.903 195.25 54.593C196.39 54.453 197.57 53.903 198.97 52.883C202.51 50.273 205.13 46.503 206.34 42.273C206.49 41.753 206.64 41.143 206.49 40.613C206.32 39.983 205.73 39.433 204.74 38.973C203.24 38.283 201.61 37.943 199.75 37.943C196.69 37.943 193.41 38.883 190.25 39.783C187.02 40.703 183.67 41.663 180.47 41.663C178.57 41.663 176.88 41.333 175.31 40.653C174.06 40.113 172.87 39.323 171.71 38.563C169.7 37.233 167.79 35.983 165.69 35.983C165.41 35.983 165.13 36.003 164.85 36.053C161.64 36.573 159.78 40.053 158.66 42.623C157.95 44.243 157.24 46.123 157.7 47.863C158.38 50.403 161.28 51.543 163.85 51.543C164.37 51.543 164.89 51.493 165.38 51.413C167.06 51.113 168.7 50.453 170.29 49.823C171.73 49.243 173.22 48.653 174.78 48.303C175.84 48.063 176.93 47.943 178.03 47.943V47.933Z" fill="#333333"/>
<path d="M267.02 245.952H266.98C266.51 245.952 266.15 245.182 266.17 244.712L267.67 207.842L245.58 179.262C245.46 179.112 245.41 178.842 245.41 178.652V156.862C242.41 155.862 228.14 151.152 219.02 144.582C218.64 144.312 218.55 143.782 218.82 143.402C219.09 143.022 219.62 142.932 220 143.212C229.85 150.302 246.48 155.382 246.64 155.442C247 155.552 247.4 155.882 247.4 156.252V178.372L269.35 206.872C269.47 207.032 269.46 207.222 269.45 207.432L267.89 244.792C267.87 245.252 267.46 245.962 267 245.962L267.02 245.952Z" fill="#333333"/>
<path d="M283.721 242.522C283.721 242.522 283.631 242.522 283.591 242.522C283.131 242.452 282.811 242.022 282.881 241.552C285.911 221.852 279.861 191.822 279.801 191.522C279.711 191.062 280.001 190.612 280.461 190.522C280.921 190.432 281.371 190.722 281.461 191.182C281.521 191.482 287.631 221.812 284.561 241.812C284.501 242.232 284.131 242.532 283.721 242.532V242.522Z" fill="#333333"/>
<path d="M283.29 209.461C283.13 209.461 282.96 209.411 282.82 209.321C282.43 209.061 282.33 208.531 282.59 208.141L289.2 198.251C289.46 197.861 289.99 197.761 290.38 198.021C290.77 198.281 290.87 198.811 290.61 199.201L284 209.091C283.84 209.331 283.57 209.471 283.29 209.471V209.461Z" fill="#333333"/>
<path d="M95.2404 348.193C95.1804 348.193 95.1104 348.193 95.0504 348.173C94.5904 348.063 94.3104 347.613 94.4204 347.153C97.1704 335.303 121.52 237.363 121.77 236.373C121.88 235.913 122.34 235.643 122.8 235.753C123.26 235.863 123.53 236.323 123.42 236.783C123.17 237.773 98.8304 335.703 96.0804 347.543C95.9904 347.933 95.6404 348.203 95.2504 348.203L95.2404 348.193Z" fill="#333333"/>
<path d="M119.52 249.752C119.29 249.752 119.05 249.652 118.88 249.462C118.57 249.112 118.6 248.572 118.95 248.262L127.11 241.032C127.46 240.722 128 240.752 128.31 241.102C128.62 241.452 128.59 241.992 128.24 242.302L120.08 249.532C119.92 249.672 119.72 249.742 119.52 249.742V249.752Z" fill="#333333"/>
<path d="M99.4102 168.721C99.4102 168.721 118.88 173.931 122.58 194.131Z" fill="white"/>
<path d="M122.58 194.982C122.18 194.982 121.82 194.692 121.75 194.282C118.19 174.862 99.38 169.592 99.19 169.542C98.74 169.422 98.47 168.952 98.59 168.502C98.71 168.052 99.18 167.782 99.63 167.902C99.83 167.952 119.66 173.482 123.42 193.982C123.51 194.442 123.2 194.882 122.74 194.972C122.69 194.982 122.64 194.982 122.59 194.982H122.58Z" fill="#333333"/>
<path d="M148.78 143.881C144.84 158.251 133.71 168.721 133.71 168.721L146.22 194.131L139 226.941C139 226.941 155.74 264.921 150.98 295.941" fill="white"/>
<path d="M150.98 296.792C150.98 296.792 150.89 296.792 150.85 296.782C150.39 296.712 150.07 296.282 150.14 295.812C154.8 265.402 138.39 227.662 138.22 227.282C138.15 227.122 138.13 226.932 138.17 226.762L145.33 194.242L132.95 169.102C132.79 168.772 132.86 168.362 133.13 168.112C133.24 168.012 144.13 157.622 147.96 143.662C148.08 143.212 148.55 142.942 149 143.072C149.45 143.192 149.72 143.662 149.59 144.112C146.04 157.062 136.91 166.742 134.74 168.902L146.98 193.762C147.07 193.932 147.09 194.132 147.05 194.322L139.88 226.862C141.33 230.272 156.35 266.502 151.81 296.072C151.75 296.492 151.38 296.792 150.97 296.792H150.98Z" fill="#333333"/>
<path d="M346.37 128.381C332.71 128.381 322.57 126.301 322.38 126.261C321.92 126.161 321.63 125.711 321.73 125.251C321.83 124.791 322.28 124.501 322.74 124.601C323.1 124.681 359.29 132.101 386.91 118.531C387.33 118.321 387.84 118.501 388.05 118.921C388.26 119.341 388.08 119.851 387.66 120.061C374.23 126.661 358.84 128.401 346.38 128.401L346.37 128.381Z" fill="#333333"/>
<path d="M213.05 63.3517C212.7 62.6817 213.09 61.8617 213.55 61.2617C215.46 58.7817 218.81 57.5017 221.88 58.0717C222.66 58.2217 223.45 58.4917 223.99 59.0717C224.53 59.6517 224.74 60.5917 224.3 61.2417C223.82 61.9617 222.84 62.0717 221.99 62.2117C220.34 62.4817 218.76 63.0717 217.19 63.6117C216.34 63.9117 215.45 64.1917 214.55 64.1417C213.96 64.1017 213.33 63.8717 213.05 63.3517Z" fill="#333333"/>
<path d="M229.14 99.3522C220.55 99.3522 216.28 92.6022 216.23 92.5222C215.98 92.1222 216.11 91.6022 216.51 91.3522C216.91 91.1022 217.43 91.2322 217.68 91.6322C217.89 91.9722 222.84 99.7122 233.17 97.1322C233.62 97.0222 234.09 97.2922 234.2 97.7522C234.31 98.2022 234.04 98.6722 233.58 98.7822C231.99 99.1822 230.51 99.3522 229.14 99.3522Z" fill="#333333"/>
<path d="M215.62 93.6332C215.35 93.6332 215.09 93.5032 214.92 93.2632C214.65 92.8732 214.75 92.3532 215.14 92.0832L218.24 89.9332C218.62 89.6632 219.15 89.7632 219.42 90.1532C219.69 90.5432 219.59 91.0632 219.2 91.3332L216.1 93.4832C215.95 93.5832 215.78 93.6332 215.62 93.6332Z" fill="#333333"/>
<path d="M182.93 91.8517C182.52 91.8517 182.16 91.5517 182.09 91.1417C180.95 84.2017 172.24 83.5717 172.15 83.5717C171.68 83.5417 171.33 83.1417 171.36 82.6717C171.39 82.2017 171.79 81.8617 172.26 81.8817C172.36 81.8817 182.42 82.6117 183.77 90.8717C183.85 91.3317 183.53 91.7717 183.07 91.8417C183.02 91.8417 182.98 91.8517 182.93 91.8517Z" fill="#333333"/>
<path d="M176.2 89.0418C175.9 89.0418 175.61 88.8818 175.45 88.6018C175.22 88.1918 175.38 87.6718 175.79 87.4518L179.83 85.2418C180.24 85.0218 180.76 85.1718 180.98 85.5818C181.21 85.9918 181.05 86.5118 180.64 86.7318L176.6 88.9418C176.47 89.0118 176.33 89.0418 176.19 89.0418H176.2Z" fill="#333333"/>
<path d="M159.49 31.4721C159.49 31.4721 159.25 11.7821 147.17 6.72205C135.09 1.66205 133.13 17.0121 133.13 17.0121C133.13 17.0121 122.4 -1.95795 102.56 8.50205C82.72 18.9621 106.63 37.5521 106.63 37.5521C106.63 37.5521 98.67 38.6121 94.69 46.3221C90.71 54.0321 111.01 59.2221 111.01 59.2221C111.01 59.2221 104.03 74.0621 115.12 76.2421C126.21 78.4321 139.68 64.1421 139.68 64.1421L159.5 31.4621L159.49 31.4721Z" fill="#333333"/>
<path d="M183.39 278.322C182.97 278.322 182.61 278.012 182.55 277.592C182.49 277.122 182.81 276.702 183.27 276.632C206.54 273.412 223.66 249.272 223.83 249.032C224.1 248.652 224.63 248.552 225.01 248.822C225.39 249.092 225.49 249.622 225.22 250.002C225.05 250.252 207.49 274.992 183.5 278.312C183.46 278.312 183.42 278.312 183.38 278.312L183.39 278.322Z" fill="#333333"/>
<path d="M187.38 111.983C187.21 111.983 187.03 111.933 186.88 111.823C184.63 110.173 184.46 106.933 185.45 104.723C186.43 102.513 188.33 100.933 190.23 99.5531L190.74 99.1831C191.91 98.3431 193.01 97.5531 193.89 96.5431C196.57 93.4731 196.59 88.4631 193.94 85.3731C193.35 84.6831 192.63 84.0631 191.88 83.4131C190.43 82.1631 188.93 80.8731 188.28 78.9431C187.42 76.3831 188.57 73.3231 190.9 71.9631C191.31 71.7231 191.83 71.8631 192.06 72.2731C192.3 72.6831 192.16 73.2031 191.75 73.4331C190.12 74.3831 189.28 76.6131 189.89 78.4031C190.39 79.8931 191.65 80.9731 192.99 82.1331C193.76 82.7931 194.55 83.4831 195.23 84.2731C198.41 87.9831 198.38 93.9831 195.17 97.6631C194.16 98.8231 192.93 99.7031 191.74 100.563L191.24 100.923C189.53 102.163 187.83 103.573 187.01 105.413C186.28 107.043 186.41 109.373 187.89 110.453C188.27 110.733 188.35 111.263 188.07 111.643C187.9 111.873 187.65 111.993 187.38 111.993V111.983Z" fill="#333333"/>
<path d="M372.101 51.662C371.431 49.042 369.791 46.842 367.471 45.472L363.731 43.252L339.881 29.082C339.661 29.332 339.461 29.582 339.301 29.822C333.801 35.322 338.121 44.432 335.171 49.782L357.161 62.842C357.951 63.312 358.791 63.672 359.671 63.912C364.031 65.102 368.701 63.212 371.011 59.322C372.391 57.002 372.781 54.282 372.121 51.672L372.101 51.662Z" fill="#A1C3FF"/>
<path d="M362.291 65.1024C361.321 65.1024 360.361 64.9724 359.431 64.7224C358.481 64.4624 357.571 64.0724 356.711 63.5724L334.021 50.0924L334.421 49.3724C335.561 47.3024 335.511 44.4824 335.451 41.5124C335.371 37.3724 335.281 32.6924 338.641 29.2824C338.801 29.0524 338.991 28.8024 339.231 28.5224L339.691 27.9824L367.901 44.7424C370.411 46.2324 372.201 48.6224 372.921 51.4524C373.641 54.2924 373.221 57.2324 371.721 59.7524C369.761 63.0624 366.141 65.1124 362.291 65.1124V65.1024ZM336.261 49.4424L357.581 62.1124C358.301 62.5424 359.071 62.8724 359.881 63.0924C360.671 63.3024 361.481 63.4124 362.291 63.4124C365.551 63.4124 368.601 61.6824 370.261 58.8824C371.521 56.7524 371.881 54.2624 371.271 51.8724C370.661 49.4724 369.151 47.4624 367.031 46.2024L340.071 30.1824C340.071 30.1824 340.021 30.2524 340.001 30.2924L339.891 30.4224C336.981 33.3324 337.061 37.4724 337.141 41.4824C337.201 44.3824 337.251 47.1324 336.261 49.4524V49.4424Z" fill="#333333"/>
<path d="M339.3 29.8119C339.46 29.5719 339.66 29.3219 339.88 29.0719L298.55 4.51188C298.37 4.40188 298.15 4.37187 297.95 4.42187C297.75 4.47187 297.57 4.60188 297.46 4.78188L292.08 13.8419L287.55 21.4719L335.17 49.7719C338.12 44.4219 333.81 35.3119 339.3 29.8119Z" fill="white"/>
<path d="M335.16 50.6221C335.01 50.6221 334.86 50.5821 334.73 50.5021L287.11 22.2021C286.92 22.0921 286.78 21.9021 286.72 21.6821C286.66 21.4621 286.7 21.2321 286.81 21.0421L296.73 4.35209C296.95 3.98209 297.32 3.70209 297.74 3.60209C298.16 3.49209 298.61 3.56209 298.99 3.78209L340.32 28.3421C340.54 28.4721 340.68 28.6821 340.72 28.9321C340.76 29.1821 340.69 29.4321 340.53 29.6221C340.31 29.8721 340.14 30.0921 340.02 30.2821C339.99 30.3321 339.95 30.3721 339.91 30.4121C337 33.3221 337.08 37.4621 337.16 41.4721C337.22 44.6821 337.28 47.7121 335.92 50.1821C335.81 50.3821 335.62 50.5321 335.4 50.5921C335.33 50.6121 335.25 50.6221 335.18 50.6221H335.16ZM288.7 21.1821L334.79 48.5621C335.55 46.5921 335.5 44.1121 335.45 41.5021C335.37 37.3821 335.28 32.7121 338.61 29.3021L298.11 5.24209L288.7 21.1821Z" fill="#333333"/>
<path d="M286.121 21.2743L296.9 3.13513C297.227 2.58494 297.939 2.40355 298.489 2.73049L299.719 3.46099C300.269 3.78793 300.45 4.5006 300.123 5.05079L289.345 23.1899C289.018 23.7401 288.305 23.9215 287.755 23.5946L286.526 22.8641C285.975 22.5371 285.794 21.8245 286.121 21.2743Z" fill="white"/>
<path d="M288.33 24.6016C287.97 24.6016 287.62 24.5016 287.31 24.3216L286.08 23.5916C285.62 23.3216 285.29 22.8816 285.16 22.3616C285.03 21.8416 285.1 21.3016 285.38 20.8416L296.16 2.70157C296.7 1.79157 298 1.45157 298.91 2.00157L300.14 2.73157C300.6 3.00157 300.93 3.44157 301.06 3.96157C301.19 4.48157 301.12 5.02157 300.84 5.48157L290.06 23.6216C289.7 24.2316 289.04 24.6016 288.33 24.6016ZM297.88 3.41157C297.79 3.41157 297.67 3.45157 297.61 3.56157L286.83 21.7016C286.77 21.8016 286.79 21.8916 286.8 21.9416C286.81 21.9916 286.85 22.0716 286.94 22.1316L288.17 22.8616C288.17 22.8616 288.27 22.9016 288.33 22.9016C288.42 22.9016 288.54 22.8616 288.6 22.7516L299.38 4.61157C299.44 4.51157 299.42 4.42157 299.41 4.37157C299.4 4.32157 299.36 4.24157 299.27 4.18157L298.04 3.45157C298.04 3.45157 297.94 3.41157 297.88 3.41157Z" fill="#333333"/>
<path d="M287.34 24.2711L286.11 23.5411C285.18 22.9911 284.88 21.7911 285.43 20.8611L296.21 2.72105C296.75 1.82105 297.98 1.50105 298.89 2.04105L300.12 2.77105C300.57 3.04105 300.89 3.46105 301.01 3.97105C301.14 4.48105 301.06 5.00105 300.8 5.45105L290.02 23.5911C289.57 24.3411 288.67 24.7111 287.82 24.4811C287.65 24.4311 287.49 24.3711 287.34 24.2811V24.2711ZM297.57 3.53105L286.79 21.6711C286.69 21.8411 286.75 22.0711 286.92 22.1711L288.15 22.9011C288.33 23.0011 288.55 22.9411 288.65 22.7711L299.43 4.63105C299.5 4.52105 299.48 4.41105 299.47 4.35105C299.46 4.29105 299.42 4.19105 299.3 4.13105L298.07 3.40105C298.07 3.40105 298.01 3.37105 297.98 3.36105C297.82 3.32105 297.65 3.39105 297.57 3.53105Z" fill="#4A253F"/>
<path d="M283.92 14.8807C282.94 14.3007 282.61 13.0207 283.2 12.0407C283.78 11.0607 285.06 10.7307 286.04 11.3207C287.02 11.9007 287.35 13.1807 286.76 14.1607C286.18 15.1407 284.9 15.4707 283.92 14.8807Z" fill="white"/>
<path d="M281.26 6.9624C280.9 6.7424 280.78 6.2824 280.99 5.9124C281.21 5.5524 281.67 5.4324 282.04 5.6424C282.4 5.8624 282.52 6.3224 282.31 6.6924C282.09 7.0524 281.63 7.1724 281.26 6.9624Z" fill="white"/>
<path d="M269.721 101.47L271.061 100.02L286.411 114.31L290.741 111.3L289.051 90.9998L291.021 90.8398L292.801 112.27L286.231 116.83L269.721 101.47Z" fill="#333333"/>
<path d="M265.381 105.911C268.821 107.521 272.921 106.041 274.531 102.601C276.141 99.1615 274.661 95.0615 271.221 93.4515C267.781 91.8415 263.681 93.3215 262.071 96.7615C260.461 100.201 261.941 104.301 265.381 105.911Z" fill="#D0E1FF"/>
<path d="M268.301 107.411C267.161 107.411 266.061 107.161 265.021 106.681C261.161 104.871 259.501 100.261 261.311 96.4012C262.581 93.7012 265.331 91.9512 268.311 91.9512C269.451 91.9512 270.551 92.2012 271.591 92.6812C273.461 93.5612 274.871 95.1112 275.581 97.0512C276.281 98.9912 276.181 101.091 275.311 102.961C274.041 105.661 271.291 107.411 268.311 107.411H268.301ZM268.301 93.6512C265.971 93.6512 263.821 95.0112 262.831 97.1212C261.421 100.131 262.721 103.731 265.731 105.141C266.541 105.521 267.401 105.711 268.291 105.711C270.621 105.711 272.771 104.351 273.761 102.241C274.441 100.781 274.521 99.1412 273.971 97.6312C273.421 96.1112 272.321 94.9012 270.861 94.2212C270.051 93.8412 269.191 93.6512 268.301 93.6512Z" fill="#333333"/>
<path d="M287.301 122.21C290.741 123.82 294.841 122.34 296.451 118.9C298.061 115.46 296.581 111.36 293.141 109.75C289.701 108.14 285.601 109.62 283.991 113.06C282.381 116.5 283.861 120.6 287.301 122.21Z" fill="#2E5FB3"/>
<path d="M290.22 123.71C289.08 123.71 287.98 123.46 286.94 122.98C283.08 121.17 281.42 116.56 283.23 112.7C284.5 110 287.25 108.25 290.23 108.25C291.37 108.25 292.47 108.5 293.51 108.98C295.38 109.86 296.79 111.41 297.5 113.35C298.2 115.29 298.1 117.39 297.23 119.26C295.96 121.96 293.21 123.71 290.23 123.71H290.22ZM290.22 109.95C287.89 109.95 285.74 111.31 284.75 113.42C283.34 116.43 284.64 120.03 287.65 121.44C288.46 121.82 289.32 122.01 290.21 122.01C292.54 122.01 294.69 120.65 295.68 118.54C296.36 117.08 296.44 115.44 295.89 113.93C295.34 112.41 294.24 111.2 292.78 110.52C291.97 110.14 291.11 109.95 290.22 109.95Z" fill="#333333"/>
<path d="M286.501 92.9408C289.941 94.5508 294.041 93.0708 295.651 89.6308C297.261 86.1908 295.781 82.0908 292.341 80.4808C288.901 78.8708 284.801 80.3508 283.191 83.7908C281.581 87.2308 283.061 91.3308 286.501 92.9408Z" fill="#A1C3FF"/>
<path d="M289.42 94.4405C288.28 94.4405 287.18 94.1905 286.14 93.7105C284.27 92.8305 282.86 91.2805 282.15 89.3405C281.45 87.4005 281.55 85.3005 282.42 83.4305C283.69 80.7305 286.44 78.9805 289.42 78.9805C290.56 78.9805 291.66 79.2305 292.7 79.7105C294.57 80.5905 295.98 82.1405 296.69 84.0805C297.39 86.0205 297.29 88.1205 296.42 89.9905C295.15 92.6905 292.4 94.4405 289.42 94.4405ZM289.42 80.6705C287.09 80.6705 284.94 82.0305 283.95 84.1405C283.27 85.6005 283.19 87.2405 283.74 88.7505C284.29 90.2705 285.39 91.4805 286.85 92.1605C287.66 92.5405 288.52 92.7305 289.41 92.7305C291.74 92.7305 293.89 91.3705 294.88 89.2605C295.56 87.8005 295.64 86.1605 295.09 84.6505C294.54 83.1305 293.44 81.9205 291.98 81.2405C291.17 80.8605 290.31 80.6705 289.42 80.6705Z" fill="#333333"/>
<path d="M88.7501 130.611L87.0001 128.801L106.25 110.181L102.7 104.451L76.6901 105.241L76.6201 102.731L104.07 101.891L109.46 110.581L88.7501 130.611Z" fill="#333333"/>
<path d="M94.1299 136.452C96.4199 132.172 94.8099 126.842 90.5299 124.552C86.2499 122.262 80.9199 123.872 78.6299 128.152C76.3399 132.432 77.9499 137.762 82.2299 140.052C86.5099 142.342 91.8399 140.732 94.1299 136.452Z" fill="#D0E1FF"/>
<path d="M86.3702 141.942C84.8002 141.942 83.2302 141.542 81.8302 140.802C77.1402 138.292 75.3702 132.442 77.8802 127.752C79.5602 124.612 82.8202 122.662 86.3902 122.662C87.9602 122.662 89.5302 123.052 90.9302 123.802C95.6202 126.312 97.3902 132.162 94.8802 136.852C93.2002 139.992 89.9402 141.942 86.3702 141.942ZM86.3902 124.362C83.4502 124.362 80.7602 125.972 79.3802 128.562C77.3102 132.422 78.7802 137.242 82.6402 139.312C83.7902 139.932 85.0802 140.252 86.3802 140.252C89.3202 140.252 92.0102 138.642 93.3902 136.052C95.4602 132.192 93.9902 127.372 90.1302 125.302C88.9802 124.692 87.6902 124.362 86.3902 124.362Z" fill="#333333"/>
<path d="M116.391 109.581C118.681 105.301 117.071 99.9707 112.791 97.6807C108.511 95.3907 103.181 97.0007 100.891 101.281C98.6006 105.561 100.211 110.891 104.491 113.181C108.771 115.471 114.101 113.861 116.391 109.581Z" fill="#2E5FB3"/>
<path d="M108.631 115.071C107.061 115.071 105.491 114.681 104.091 113.931C101.821 112.721 100.161 110.691 99.4105 108.231C98.6605 105.771 98.9205 103.161 100.141 100.891C101.821 97.7508 105.081 95.8008 108.651 95.8008C110.221 95.8008 111.791 96.1908 113.191 96.9408C117.881 99.4508 119.651 105.301 117.141 109.991C115.461 113.131 112.201 115.081 108.631 115.081V115.071ZM108.641 97.4908C105.701 97.4908 103.011 99.1008 101.631 101.691C100.631 103.561 100.421 105.711 101.031 107.741C101.651 109.771 103.011 111.441 104.881 112.441C106.031 113.061 107.321 113.381 108.621 113.381C111.561 113.381 114.251 111.771 115.631 109.181C117.701 105.321 116.231 100.501 112.371 98.4308C111.221 97.8108 109.931 97.4908 108.631 97.4908H108.641Z" fill="#333333"/>
<path d="M78.9902 108.631C81.2802 104.351 79.6702 99.0214 75.3902 96.7314C71.1102 94.4414 65.7802 96.0514 63.4902 100.331C61.2002 104.611 62.8102 109.941 67.0902 112.231C71.3702 114.521 76.7002 112.911 78.9902 108.631Z" fill="#A1C3FF"/>
<path d="M71.2305 114.132C69.6605 114.132 68.0905 113.742 66.6905 112.992C62.0005 110.482 60.2305 104.632 62.7405 99.9416C64.4205 96.8016 67.6805 94.8516 71.2505 94.8516C72.8205 94.8516 74.3905 95.2416 75.7905 95.9916C78.0605 97.2016 79.7205 99.2316 80.4705 101.692C81.2205 104.152 80.9605 106.762 79.7405 109.032C78.0605 112.172 74.8005 114.122 71.2305 114.122V114.132ZM71.2405 96.5516C68.3005 96.5516 65.6105 98.1616 64.2305 100.752C62.1605 104.612 63.6305 109.432 67.4905 111.502C68.6405 112.122 69.9305 112.442 71.2305 112.442C74.1705 112.442 76.8505 110.832 78.2405 108.242C79.2405 106.372 79.4505 104.222 78.8405 102.192C78.2305 100.162 76.8605 98.4916 74.9905 97.4916C73.8405 96.8716 72.5505 96.5516 71.2505 96.5516H71.2405Z" fill="#333333"/>
<path d="M67.5602 264.28C63.1902 262.43 60.4902 257.99 60.5202 253.25L60.8302 200.62H61.4902C62.7202 200.63 63.7402 199.63 63.7502 198.39C63.7502 197.16 62.7502 196.14 61.5202 196.13L37.2502 195.99C36.0202 195.99 35.0002 196.99 34.9902 198.22C34.9902 199.45 35.9902 200.47 37.2202 200.48H38.1402L37.8302 253.16C37.8002 257.93 34.9802 262.27 30.5802 264.13C12.9302 271.57 0.450166 289.4 0.850166 309.43C1.09017 321.45 5.76017 332.39 13.2902 340.69C17.8002 345.66 24.2702 348.42 30.9802 348.46L66.2502 348.66C73.0102 348.7 79.5402 345.96 84.1302 341C91.9702 332.52 96.7902 321.2 96.8602 308.74C96.9802 288.77 84.8602 271.61 67.5502 264.28H67.5602Z" fill="#D0E1FF"/>
<path d="M66.4103 349.51H66.2603L30.9903 349.3C23.9603 349.26 17.2803 346.33 12.6803 341.26C4.74033 332.53 0.240331 321.23 0.000331275 309.45C-0.389669 289.68 11.7603 271.15 30.2503 263.35C34.3103 261.64 36.9603 257.63 36.9803 253.16L37.2803 201.33H37.2103C36.3903 201.33 35.6103 201 35.0303 200.41C34.4503 199.82 34.1303 199.04 34.1403 198.22C34.1403 196.53 35.5403 195.15 37.2303 195.15L61.5203 195.29C62.3403 195.29 63.1203 195.62 63.7003 196.21C64.2803 196.8 64.6003 197.58 64.5903 198.4C64.5903 200.04 63.2903 201.38 61.6703 201.47L61.3703 253.26C61.3403 257.79 63.9003 261.81 67.8903 263.5C86.1303 271.22 97.8303 288.98 97.7203 308.74C97.6503 320.94 93.0503 332.6 84.7603 341.57C80.1003 346.61 73.4103 349.51 66.4003 349.51H66.4103ZM37.2503 196.85C36.4803 196.85 35.8503 197.47 35.8503 198.23C35.8503 198.6 35.9903 198.95 36.2503 199.22C36.5103 199.49 36.8603 199.63 37.2303 199.64H38.1503C38.6203 199.64 39.0003 200.03 38.9903 200.5L38.6803 253.17C38.6503 258.33 35.6003 262.94 30.9103 264.92C13.0603 272.45 1.32033 290.33 1.70033 309.42C1.93033 320.79 6.27033 331.69 13.9203 340.12C18.2103 344.84 24.4303 347.57 30.9903 347.61L66.4003 347.82C72.9403 347.82 79.1803 345.13 83.5203 340.43C91.5203 331.78 95.9603 320.52 96.0303 308.74C96.1403 289.66 84.8403 272.52 67.2403 265.07C62.6203 263.11 59.6503 258.48 59.6803 253.26L59.9903 200.63C59.9903 200.4 60.0803 200.19 60.2403 200.03C60.4003 199.87 60.6103 199.78 60.8403 199.78H61.5003C62.2703 199.78 62.9003 199.16 62.9003 198.4C62.9003 198.03 62.7603 197.68 62.5003 197.41C62.2403 197.14 61.8903 197 61.5203 196.99L37.2503 196.85Z" fill="#333333"/>
<path d="M55.1608 202.051C56.4208 202.051 57.4508 203.101 57.4508 204.361L57.1508 256.411C57.1508 257.671 56.1008 258.701 54.8408 258.701C53.5808 258.701 52.5508 257.651 52.5508 256.391L52.8508 204.341C52.8508 203.081 53.9008 202.051 55.1608 202.051Z" fill="white"/>
<path d="M88.7603 306.161C88.9903 307.901 89.1003 309.671 89.0903 311.471C89.0303 321.741 85.0303 331.071 78.5203 338.061C74.7103 342.161 69.2803 344.411 63.6603 344.381L34.3603 344.211C28.7803 344.181 23.4203 341.911 19.6703 337.811C13.4103 330.971 9.53027 321.951 9.33027 312.041C9.29027 309.891 9.45027 307.771 9.76027 305.701L88.7703 306.161H88.7603Z" fill="#4257FF"/>
<path d="M63.7702 345.221H63.6502L34.3502 345.051C28.4702 345.021 22.8902 342.581 19.0302 338.381C12.4102 331.151 8.66019 321.801 8.47019 312.061C8.43019 309.981 8.58019 307.801 8.91019 305.581C8.97019 305.161 9.33019 304.861 9.75019 304.861L88.7602 305.321C89.1802 305.321 89.5402 305.641 89.6002 306.061C89.8302 307.851 89.9502 309.671 89.9402 311.481C89.8802 321.581 86.0502 331.231 79.1402 338.651C75.2402 342.841 69.6402 345.241 63.7802 345.241L63.7702 345.221ZM10.4802 306.551C10.2402 308.421 10.1302 310.261 10.1602 312.021C10.3502 321.361 13.9402 330.311 20.2802 337.231C23.8102 341.091 28.9402 343.321 34.3502 343.351L63.7702 343.521C69.1602 343.521 74.3102 341.321 77.8902 337.471C84.5102 330.361 88.1802 321.121 88.2402 311.451C88.2402 309.961 88.1702 308.471 88.0102 306.991L10.4902 306.541L10.4802 306.551Z" fill="#333333"/>
<path d="M77.9222 298.32C83.8571 294.419 85.5055 286.445 81.6041 280.51C77.7026 274.575 69.7287 272.927 63.7939 276.828C57.859 280.73 56.2106 288.704 60.112 294.639C64.0135 300.573 71.9874 302.222 77.9222 298.32Z" fill="white"/>
<path d="M79.1603 301.81C79.1803 299.14 81.3603 296.98 84.0303 297C86.7003 297.02 88.8603 299.2 88.8403 301.87C88.8203 304.54 86.6403 306.7 83.9703 306.68C81.3003 306.66 79.1403 304.48 79.1603 301.81Z" fill="white"/>
<path d="M356.19 283.688V227.818H336.26V283.688L305.19 338.068C302.73 342.368 305.84 347.728 310.8 347.728H381.66C386.62 347.728 389.73 342.368 387.27 338.068L356.2 283.688H356.19Z" fill="#D0E1FF"/>
<path d="M381.661 348.579H310.801C308.171 348.579 305.801 347.219 304.481 344.939C303.161 342.659 303.151 339.939 304.461 337.649L335.421 283.469V227.819C335.421 227.349 335.801 226.969 336.271 226.969H356.201C356.671 226.969 357.051 227.349 357.051 227.819V283.469L388.011 337.649C389.321 339.939 389.311 342.659 387.991 344.939C386.671 347.219 384.311 348.579 381.671 348.579H381.661ZM337.111 228.669V283.689C337.111 283.839 337.071 283.979 337.001 284.109L305.931 338.489C304.931 340.249 304.931 342.339 305.951 344.089C306.961 345.839 308.781 346.879 310.801 346.879H381.661C383.681 346.879 385.501 345.839 386.511 344.089C387.531 342.339 387.531 340.249 386.531 338.489L355.461 284.109C355.391 283.979 355.351 283.839 355.351 283.689V228.669H337.121H337.111Z" fill="#333333"/>
<path d="M361.5 300.279H330.63L310.17 336.079C308.02 339.849 310.74 344.529 315.07 344.529H377.05C381.39 344.529 384.1 339.849 381.95 336.079L361.49 300.279H361.5Z" fill="#333333"/>
<path d="M335.611 225.699H357.131C358.061 225.699 358.811 226.449 358.811 227.379V228.439C358.811 229.369 358.061 230.119 357.131 230.119H335.611C334.681 230.119 333.931 229.369 333.931 228.439V227.379C333.931 226.449 334.681 225.699 335.611 225.699Z" fill="#D0E1FF"/>
<path d="M357.381 230.959H335.361C334.111 230.959 333.091 229.939 333.091 228.689V227.129C333.091 225.879 334.111 224.859 335.361 224.859H357.381C358.631 224.859 359.651 225.879 359.651 227.129V228.689C359.651 229.939 358.631 230.959 357.381 230.959ZM335.361 226.549C335.041 226.549 334.791 226.809 334.791 227.119V228.679C334.791 228.989 335.051 229.259 335.361 229.259H357.381C357.691 229.259 357.951 228.999 357.951 228.679V227.119C357.951 226.799 357.691 226.549 357.381 226.549H335.361Z" fill="#333333"/>
<path d="M349.731 326.96C349.731 326.15 349.071 325.49 348.261 325.49C347.451 325.49 346.791 326.15 346.791 326.96C346.791 327.77 347.451 328.43 348.261 328.43C349.071 328.43 349.731 327.77 349.731 326.96Z" fill="white"/>
<path d="M337.601 319.24C340.848 319.24 343.481 316.608 343.481 313.36C343.481 310.113 340.848 307.48 337.601 307.48C334.353 307.48 331.721 310.113 331.721 313.36C331.721 316.608 334.353 319.24 337.601 319.24Z" fill="white"/>
<path d="M358.371 314.46C359.486 314.46 360.391 313.556 360.391 312.44C360.391 311.324 359.486 310.42 358.371 310.42C357.255 310.42 356.351 311.324 356.351 312.44C356.351 313.556 357.255 314.46 358.371 314.46Z" fill="white"/>
<path d="M337.97 335.97C337.97 334.24 336.57 332.85 334.85 332.85C333.13 332.85 331.73 334.25 331.73 335.97C331.73 337.69 333.13 339.09 334.85 339.09C336.57 339.09 337.97 337.69 337.97 335.97Z" fill="white"/>
<path d="M362.331 212.489C362.331 210.619 360.811 209.109 358.941 209.109C357.071 209.109 355.551 210.629 355.551 212.489C355.551 214.349 357.071 215.879 358.941 215.879C360.811 215.879 362.331 214.359 362.331 212.489Z" fill="#333333"/>
<path d="M345.591 195.92C345.591 194.35 344.311 193.07 342.741 193.07C341.171 193.07 339.891 194.35 339.891 195.92C339.891 197.49 341.171 198.77 342.741 198.77C344.311 198.77 345.591 197.49 345.591 195.92Z" fill="#333333"/>
<path d="M342.021 220.511C345.368 220.511 348.081 217.797 348.081 214.451C348.081 211.104 345.368 208.391 342.021 208.391C338.674 208.391 335.961 211.104 335.961 214.451C335.961 217.797 338.674 220.511 342.021 220.511Z" fill="#333333"/>
</svg>
