<svg width="375" height="374" viewBox="0 0 375 374" fill="none" xmlns="http://www.w3.org/2000/svg">
<path d="M36.1899 273.25C35.1999 274.1 34.2599 275.01 33.3699 276C18.4099 292.59 17.1499 325.83 29.3999 344.07C35.2599 352.8 44.2899 358.96 53.7799 363.49C81.5199 376.73 114.82 376.07 142.83 363.98C174.12 350.47 191.51 317.84 225.68 309.35C236.15 306.75 247.07 306.72 257.77 305.39C292.37 301.08 324.25 281.63 345.63 254.33C369.26 224.15 377.68 180.73 372.92 142.87C369.3 114.08 355.16 81.58 330.38 64.73C302.92 46.06 263.95 51.78 232.62 52.38C217.07 52.68 208.93 49.77 198.06 39.5C171.32 14.22 123.77 15.31 92.0599 30.21C65.0399 42.9 47.8199 69.33 48.3899 99.23C49.1799 140.7 84.3099 170.75 83.0199 212.63C82.5599 227.65 77.0199 243.09 66.5099 254.02C58.0199 262.85 45.2499 265.48 36.1899 273.28V273.25Z" fill="#4257FF"/>
<path d="M160.25 108.039C159.84 108.039 159.45 107.829 159.24 107.439C158.93 106.879 159.13 106.179 159.69 105.869C161.79 104.709 167.02 100.929 166.04 97.439C165.74 96.379 165.41 95.369 165.08 94.389C163.78 90.469 162.55 86.769 164.75 82.849C165.82 80.949 166.92 79.829 167.88 78.839C169.26 77.419 170.46 76.199 171.56 72.819C171.76 72.219 172.41 71.879 173.02 72.079C173.63 72.279 173.96 72.929 173.76 73.539C172.49 77.439 170.98 78.969 169.53 80.459C168.58 81.429 167.68 82.349 166.76 83.989C165.05 87.019 166.03 89.959 167.27 93.669C167.61 94.679 167.96 95.729 168.26 96.819C169.93 102.779 161.17 107.679 160.8 107.889C160.62 107.989 160.43 108.029 160.24 108.029L160.25 108.039Z" fill="#333333"/>
<path d="M240.46 114.111C239.9 114.111 239.4 113.701 239.32 113.121C239.23 112.491 239.67 111.901 240.3 111.811C240.87 111.731 241.22 111.491 241.44 111.001C242.54 108.621 240.38 102.041 236.41 95.6906C233.39 90.8606 234.35 88.7406 236.17 85.6706C237.16 84.0006 238.38 81.9306 239.04 78.4906C239.16 77.8706 239.75 77.4606 240.39 77.5706C241.02 77.6906 241.43 78.2906 241.31 78.9206C240.58 82.7606 239.24 85.0206 238.16 86.8506C236.64 89.4206 235.94 90.5906 238.37 94.4706C241.21 99.0006 245.49 107.791 243.54 111.981C242.99 113.171 241.98 113.911 240.64 114.101C240.58 114.101 240.53 114.111 240.47 114.111H240.46Z" fill="#333333"/>
<path d="M115.95 210.37C106.31 209.65 92.7498 195.77 90.4498 191.1C88.1498 186.43 120.86 195.93 120.86 195.93L115.96 210.37H115.95Z" fill="#333333"/>
<path d="M258.279 67.3105C270.259 66.6305 282.269 60.7105 293.899 76.7405C305.529 92.7705 291.479 107.41 300.159 117.69C308.829 127.97 320.129 115.56 336.309 122.38C352.489 129.21 363.289 160.7 333.779 173.26C304.269 185.82 261.779 156.14 254.879 141.63C247.979 127.12 245.989 125.37 253.289 113.43C260.589 101.5 266.069 102.77 264.139 91.7905C262.209 80.8005 251.499 77.7505 251.499 77.7505L258.289 67.3105H258.279Z" fill="#333333"/>
<path d="M228.37 4.51988C228.37 4.51988 238.55 3.46988 245.7 8.38988C252.85 13.2999 267.83 40.5799 262.06 64.1399C256.29 87.6999 233.95 90.6599 229.02 101.15L171.26 62.8599C171.26 62.8599 165.51 37.6899 169.43 24.8899C173.35 12.0899 202.63 -9.40012 228.37 4.51988Z" fill="#333333"/>
<path d="M340.709 227.929C340.709 227.929 339.329 228.649 337.069 229.769C331.389 232.579 320.139 237.929 311.199 240.729C298.699 244.649 283.039 248.889 278.539 250.859C276.719 251.649 274.739 252.339 273.029 252.869C270.499 253.669 268.549 254.129 268.549 254.129L267.519 280.799L266.119 317.059L266.699 318.229C242.069 317.689 217.439 315.169 192.809 312.509C167.339 309.759 141.889 306.849 116.419 305.819C117.269 304.169 118.059 302.869 118.769 302.019L119.589 245.149C119.589 245.149 110.429 232.869 111.479 223.889C112.529 214.919 116.829 203.959 116.829 203.959C116.829 203.959 106.109 203.149 98.1493 197.619C90.1993 192.089 83.4893 188.059 83.4893 188.059C83.4893 188.059 110.179 144.809 120.689 137.389C128.089 132.159 161.659 126.099 180.929 122.969C188.969 140.309 222.049 140.579 236.649 124.949C261.269 133.399 294.189 143.749 310.159 159.909C327.519 177.459 340.719 227.929 340.719 227.929H340.709Z" fill="#A1C3FF"/>
<path d="M266.709 319.47H266.669C242.379 318.47 217.819 316.26 192.709 313.55L186.689 312.8C163.639 310.3 139.809 307.66 116.369 306.72C116.079 306.71 115.819 306.53 115.669 306.27C115.519 306.02 115.519 305.7 115.649 305.44C116.489 303.81 117.229 302.58 117.909 301.72L118.719 245.43C117.409 243.62 109.609 232.42 110.619 223.8C111.489 216.33 114.529 207.66 115.629 204.7C112.629 204.33 104.279 202.93 97.6494 198.33C89.8094 192.88 83.0994 188.84 83.0294 188.8C82.8394 188.68 82.6994 188.49 82.6394 188.27C82.5894 188.05 82.6194 187.82 82.7394 187.62C83.8294 185.85 109.639 144.14 120.169 136.7C127.719 131.36 161.369 125.28 180.759 122.13C181.139 122.07 181.509 122.27 181.669 122.61C185.349 130.55 195.229 135.49 207.439 135.49C218.819 135.49 229.489 131.33 235.989 124.37C236.219 124.13 236.569 124.04 236.889 124.15C238.729 124.78 240.619 125.42 242.539 126.08C266.269 134.16 295.809 144.22 310.729 159.32C328.059 176.83 340.959 225.65 341.509 227.72C341.609 228.1 341.429 228.5 341.079 228.69C341.079 228.69 339.689 229.41 337.419 230.54C331.519 233.46 320.299 238.77 311.429 241.55C306.749 243.02 301.699 244.51 296.819 245.95C289.009 248.26 281.619 250.44 278.849 251.65C276.799 252.54 274.669 253.25 273.249 253.69C271.549 254.23 270.119 254.61 269.339 254.81L266.939 316.88L267.359 317.72C267.469 317.86 267.529 318.24 267.529 318.43C267.529 318.9 267.149 319.47 266.679 319.47H266.709ZM117.799 305.03C140.849 306.02 164.239 308.56 186.879 311.02L192.899 311.67C217.499 314.33 241.549 316.76 265.319 317.35C265.279 317.25 265.269 317.14 265.269 317.03L267.699 254.1C267.709 253.72 267.979 253.39 268.349 253.31C268.369 253.31 270.299 252.85 272.769 252.07C274.159 251.64 276.219 250.95 278.199 250.09C281.069 248.84 288.149 246.74 296.359 244.32C301.229 242.88 306.269 241.39 310.939 239.93C319.699 237.18 330.829 231.91 336.689 229.02C338.059 228.34 339.099 227.81 339.709 227.5C338.089 221.53 325.489 176.63 309.549 160.52C294.909 145.71 265.589 135.72 242.019 127.7C240.269 127.11 238.559 126.52 236.879 125.95C230.029 133.01 219.089 137.21 207.469 137.21C194.879 137.21 184.609 132.14 180.439 123.93C161.109 127.08 128.369 133.02 121.179 138.11C111.669 144.83 88.2094 182.12 84.6594 187.81C86.6194 189.01 92.2594 192.52 98.6394 196.96C106.309 202.3 116.789 203.14 116.889 203.15C117.159 203.17 117.399 203.32 117.539 203.54C117.679 203.77 117.709 204.05 117.609 204.3C117.569 204.41 113.339 215.26 112.309 224.01C111.309 232.54 120.169 244.54 120.259 244.66C120.369 244.81 120.429 244.99 120.429 245.18L119.609 302.05C119.609 302.24 119.539 302.43 119.409 302.58C118.929 303.15 118.389 303.98 117.789 305.05L117.799 305.03Z" fill="#333333"/>
<path d="M180.029 122.21C188.349 120.74 194.439 119.15 194.439 119.15L231.169 121.29C233.209 122.07 235.579 123.48 237.759 124.29C222.789 141.65 188.279 141.44 180.039 122.21H180.029Z" fill="#333333"/>
<path d="M207.459 136.701C194.769 136.701 184.469 131.491 180.579 123.111C180.529 123.011 180.529 122.891 180.579 122.781C180.629 122.681 180.729 122.611 180.839 122.591C188.859 121.281 194.489 120.471 194.549 120.461L230.449 122.401C230.449 122.401 230.519 122.411 230.549 122.421C232.539 123.131 234.609 123.841 236.739 124.581C236.859 124.621 236.949 124.721 236.979 124.841C237.009 124.961 236.979 125.091 236.889 125.181C230.159 132.391 219.159 136.691 207.449 136.691L207.459 136.701ZM181.449 123.241C185.369 131.101 195.269 135.971 207.459 135.971C218.749 135.971 229.359 131.921 235.979 125.101C234.059 124.441 232.179 123.781 230.369 123.141L194.599 121.201C194.599 121.201 189.219 121.981 181.459 123.241H181.449Z" fill="#333333"/>
<path d="M180.919 59.4C180.919 59.4 171.769 49.74 163.909 52.41C156.039 55.09 154.699 71.93 163.049 75.36C171.399 78.79 181.609 72.37 181.609 72.37L180.919 59.4Z" fill="white"/>
<path d="M168.459 77.2098C166.389 77.2098 164.459 76.8498 162.719 76.1398C157.939 74.1798 156.379 68.5898 156.519 64.0198C156.669 58.9898 158.929 53.1998 163.619 51.5998C164.619 51.2598 165.689 51.0898 166.799 51.0898C174.129 51.0898 181.219 58.4998 181.519 58.8098C181.659 58.9598 181.739 59.1498 181.749 59.3498L182.439 72.3198C182.459 72.6298 182.299 72.9198 182.039 73.0798C181.769 73.2498 175.399 77.1998 168.449 77.1998L168.459 77.2098ZM166.809 52.7898C165.889 52.7898 164.999 52.9298 164.179 53.2098C160.839 54.3498 158.389 58.8098 158.229 64.0698C158.109 68.0698 159.389 72.9298 163.379 74.5598C164.909 75.1798 166.619 75.4998 168.469 75.4998C173.949 75.4998 179.229 72.7398 180.739 71.8898L180.099 59.7598C178.889 58.5598 172.759 52.7798 166.819 52.7798L166.809 52.7898Z" fill="#1A194E"/>
<path d="M190.989 111.859C191.689 104.989 192.209 97.4489 192.209 97.4489L225.819 87.3789C219.859 101.249 205.799 106.939 190.989 111.859Z" fill="#333333"/>
<path d="M216.86 53.8189C216.53 53.8089 216.21 53.6789 215.96 53.4289C215.83 53.3089 213.06 50.7289 207.88 51.4489C207.13 51.5489 206.43 51.0289 206.33 50.2789C206.23 49.5289 206.75 48.8289 207.5 48.7289C214.09 47.8189 217.73 51.3189 217.88 51.4689C218.42 51.9989 218.43 52.8689 217.89 53.4089C217.61 53.6989 217.23 53.8289 216.86 53.8189Z" fill="#333333"/>
<path d="M186.449 49.71C186.139 49.81 185.789 49.79 185.469 49.64C185.309 49.57 181.839 48.05 177.179 50.42C176.509 50.76 175.679 50.5 175.329 49.82C174.979 49.14 175.249 48.32 175.929 47.97C181.859 44.95 186.439 47.06 186.639 47.15C187.329 47.48 187.619 48.3 187.289 48.98C187.119 49.34 186.799 49.6 186.449 49.71Z" fill="#333333"/>
<path d="M249.319 58.6692L246.809 65.4792L241.269 65.0992L235.529 64.7092C235.529 64.7092 234.199 63.5892 231.919 61.2392C235.409 58.5492 241.289 55.0592 246.539 56.9092C247.579 57.2792 248.509 57.8792 249.319 58.6692Z" fill="#333333"/>
<path d="M247.16 80.7397C243.11 82.3497 238.68 81.7497 235.09 80.6397C234.07 82.8297 232.74 84.9497 231.25 86.9297C230.43 92.6297 226.95 118.57 230.45 122.79C234.39 127.53 186.49 134.26 190.46 122.09C190.94 120.6 191.55 116.29 192.02 111.64C202.48 108.17 212.56 104.3 219.68 97.4497C219.43 97.5897 219.18 97.7197 218.94 97.8297C209.08 102.4 199.21 105.19 186.41 101.53C167.68 96.1897 168.83 69.6097 171.19 56.4097C171.61 54.0897 176.41 43.0197 180.21 41.4197C185.16 39.3297 206.43 23.9297 206.43 23.9297C217.04 44.4497 227.58 56.7497 232.93 62.2597C236.42 59.5697 242.3 56.0797 247.55 57.9297C248.41 58.2297 249.19 58.6997 249.89 59.2897C254.82 64.9997 254.49 77.8597 247.17 80.7597L247.16 80.7397Z" fill="white"/>
<path d="M205.15 129.819C199.61 129.819 192.52 129.139 190.17 125.899C189.32 124.729 189.15 123.359 189.65 121.819C190.08 120.489 190.68 116.459 191.17 111.549C191.2 111.219 191.43 110.939 191.75 110.829C199.24 108.349 207.5 105.359 214.2 100.769C209.46 102.599 204.04 104.059 197.92 104.059C194.06 104.059 190.21 103.499 186.17 102.339C164.38 96.1194 169.16 62.8594 170.34 56.2494C170.73 54.0794 175.53 42.4494 179.87 40.6194C184.67 38.5894 205.71 23.3694 205.92 23.2194C206.12 23.0694 206.37 23.0194 206.61 23.0794C206.85 23.1394 207.05 23.2994 207.17 23.5194C217.42 43.3394 227.56 55.4094 233 61.1094C235.96 58.9294 240.17 56.5394 244.41 56.5394C245.6 56.5394 246.75 56.7294 247.82 57.1094C248.74 57.4294 249.62 57.9394 250.43 58.6194C250.46 58.6494 250.5 58.6794 250.53 58.7094C253.6 62.2694 254.84 68.4494 253.54 73.7494C252.6 77.5894 250.45 80.3394 247.48 81.5194C244.09 82.8694 240.01 82.9094 235.55 81.6494C234.63 83.4994 233.46 85.3894 232.07 87.2594C229.87 102.639 228.73 119.359 231.11 122.239C231.57 122.789 231.66 123.459 231.37 124.079C229.88 127.259 215.82 129.809 205.16 129.819H205.15ZM192.8 112.269C192.4 116.149 191.8 120.689 191.26 122.349C190.93 123.359 191.02 124.189 191.54 124.909C193.02 126.949 197.98 128.129 205.15 128.129C217.77 128.129 229.44 124.919 229.83 123.349C226.12 118.909 229.34 94.2594 230.41 86.8094C230.43 86.6694 230.49 86.5294 230.57 86.4194C232.12 84.3594 233.38 82.2994 234.32 80.2794C234.5 79.8894 234.93 79.6994 235.34 79.8294C239.69 81.1794 243.65 81.2194 246.85 79.9494C249.29 78.9794 251.08 76.6394 251.88 73.3494C253.03 68.6494 251.94 62.9994 249.28 59.8694C248.64 59.3394 247.96 58.9494 247.26 58.7094C246.37 58.3994 245.42 58.2394 244.42 58.2394C240.35 58.2394 236.2 60.7794 233.44 62.9094C233.1 63.1694 232.61 63.1394 232.31 62.8294C227.02 57.3894 216.65 45.3094 206.12 25.1694C202.15 28.0294 185.02 40.2894 180.53 42.1794C177.16 43.5994 172.4 54.3994 172.01 56.5394C170.87 62.8894 166.24 94.8794 186.63 100.689C190.52 101.799 194.21 102.339 197.92 102.339C206.03 102.339 212.91 99.6594 218.57 97.0294C218.79 96.9294 219.02 96.8094 219.25 96.6794C219.62 96.4694 220.09 96.5694 220.35 96.9194C220.6 97.2594 220.56 97.7394 220.26 98.0394C212.92 105.099 202.29 109.089 192.8 112.249V112.269Z" fill="#333333"/>
<path d="M268.54 254.711C268.26 254.711 268.01 254.511 267.97 254.221L262.19 216.931C262.14 216.611 262.36 216.321 262.67 216.271C262.98 216.221 263.28 216.441 263.33 216.751L269.11 254.041C269.16 254.361 268.94 254.651 268.63 254.701C268.6 254.701 268.57 254.701 268.54 254.701V254.711Z" fill="#333333"/>
<path d="M265.009 232.4C262.149 232.39 258.579 221.36 257.559 217.98C257.469 217.68 257.639 217.35 257.939 217.26C258.249 217.17 258.569 217.34 258.659 217.65C260.639 224.18 263.639 231.24 265.019 231.25C265.339 231.25 265.589 231.51 265.589 231.83C265.589 232.15 265.329 232.4 265.009 232.4Z" fill="#333333"/>
<path d="M267.26 187.18C267.15 187.18 267.03 187.15 266.94 187.08C266.68 186.9 266.61 186.54 266.79 186.28C277.82 170.09 297.91 161.39 298.11 161.3C298.41 161.17 298.74 161.3 298.87 161.6C299 161.9 298.86 162.23 298.57 162.36C298.37 162.45 278.59 171.03 267.75 186.93C267.64 187.09 267.46 187.18 267.27 187.18H267.26Z" fill="#333333"/>
<path d="M116.819 204.55C116.759 204.55 116.689 204.55 116.629 204.52C116.329 204.42 116.169 204.09 116.269 203.79C118.919 196.05 119.979 187.47 119.989 187.38C120.029 187.06 120.329 186.85 120.629 186.88C120.949 186.92 121.169 187.2 121.129 187.52C121.119 187.61 120.049 196.31 117.349 204.16C117.269 204.4 117.039 204.55 116.799 204.55H116.819Z" fill="#333333"/>
<path d="M124.079 156.11C123.759 156.11 123.499 155.85 123.509 155.53C123.519 153.45 119.769 144.65 118.319 141.44C118.189 141.15 118.319 140.81 118.609 140.68C118.899 140.54 119.239 140.68 119.369 140.97C119.909 142.18 124.679 152.83 124.659 155.54C124.659 155.86 124.399 156.11 124.079 156.11Z" fill="#333333"/>
<path d="M220.569 248.341C213.179 248.341 204.019 246.501 193.659 240.581C193.379 240.421 193.289 240.071 193.439 239.791C193.599 239.511 193.949 239.421 194.229 239.581C220.959 254.841 239.319 242.481 239.499 242.361C239.759 242.181 240.119 242.241 240.299 242.501C240.479 242.761 240.419 243.121 240.149 243.301C240.029 243.381 232.669 248.341 220.559 248.341H220.569Z" fill="#333333"/>
<path d="M345.149 164.94C344.859 164.94 344.559 164.83 344.339 164.6C343.889 164.15 343.889 163.42 344.339 162.97C356.159 151.1 353.889 138.52 351.489 132.08C347.979 122.65 340.009 115.15 332.959 114.63C328.689 114.31 324.659 114.5 321.099 114.67C315.099 114.95 310.359 115.17 307.769 112.77C306.529 111.62 305.899 110.01 305.829 107.83C305.579 99.4597 303.219 84.2697 297.749 76.7897C292.329 69.3697 284.149 63.3597 261.179 69.5097C260.569 69.6697 259.929 69.3097 259.769 68.6897C259.609 68.0697 259.969 67.4396 260.589 67.2696C284.899 60.7596 293.709 67.3397 299.619 75.4197C305.849 83.9497 307.919 100.3 308.149 107.76C308.199 109.28 308.589 110.37 309.349 111.07C311.239 112.82 315.549 112.62 321.009 112.36C324.629 112.19 328.739 112 333.149 112.33C341.039 112.91 349.859 121.06 353.669 131.28C358.089 143.12 355.289 155.27 345.999 164.61C345.769 164.84 345.479 164.95 345.179 164.95L345.149 164.94Z" fill="#333333"/>
<path d="M211.66 58.6491C211.66 56.4191 210.84 54.6191 209.82 54.6191C208.8 54.6191 207.979 56.4291 207.979 58.6491C207.979 60.8691 208.8 62.6791 209.82 62.6791C210.84 62.6791 211.66 60.8691 211.66 58.6491Z" fill="#333333"/>
<path d="M183.509 57.7995C183.509 55.5695 182.689 53.7695 181.669 53.7695C180.649 53.7695 179.829 55.5795 179.829 57.7995C179.829 60.0195 180.649 61.8295 181.669 61.8295C182.689 61.8295 183.509 60.0195 183.509 57.7995Z" fill="#333333"/>
<path d="M194.199 84.0099C190.969 84.0099 188.499 83.2899 188.289 83.2299C187.839 83.0999 187.589 82.6199 187.719 82.1699C187.859 81.7199 188.329 81.4699 188.779 81.5999C188.879 81.6299 198.479 84.4099 204.259 78.5299C204.589 78.1999 205.129 78.1899 205.459 78.5199C205.789 78.8499 205.799 79.3899 205.469 79.7199C202.089 83.1699 197.699 84.0099 194.199 84.0099Z" fill="#333333"/>
<path d="M205.59 80.5804C205.26 80.5804 204.94 80.3804 204.8 80.0504C204.54 79.4104 203.94 79.2004 203.92 79.1904C203.48 79.0404 203.24 78.5604 203.38 78.1204C203.52 77.6804 203.99 77.4404 204.43 77.5704C204.57 77.6104 205.8 78.0304 206.36 79.4004C206.54 79.8304 206.33 80.3304 205.9 80.5104C205.79 80.5504 205.68 80.5704 205.58 80.5704L205.59 80.5804Z" fill="#333333"/>
<path d="M234.499 24.6999C233.829 25.2699 233.499 26.1199 233.189 26.9399C232.349 29.1699 231.519 31.4099 230.679 33.6399C230.449 34.2399 230.219 34.86 229.779 35.33C229.339 35.8 228.739 36.07 228.159 36.33C226.759 36.95 225.219 37.5899 223.749 37.1799C222.209 36.7599 221.189 35.33 220.319 33.99C219.289 32.41 218.249 30.7799 217.779 28.9599C217.309 27.1299 217.489 25.0399 218.699 23.5799C220.149 21.8399 222.659 21.4299 224.929 21.5199C227.199 21.6099 229.489 22.0699 231.709 21.5799C232.449 21.4199 233.199 21.1199 233.669 20.5299C234.229 19.8299 234.289 18.8699 234.499 17.9999C235.129 15.4399 237.439 13.3899 240.059 13.0699C242.669 12.7499 245.419 14.1799 246.649 16.5099C247.189 17.5399 247.449 18.6899 247.709 19.8199C247.809 20.2799 247.919 20.7499 247.849 21.2099C247.669 22.4499 246.329 23.2099 245.079 23.3099C243.829 23.4099 242.589 23.0499 241.339 22.9999C239.699 22.9299 238.089 23.3799 236.509 23.8199C235.809 24.0199 235.079 24.2299 234.519 24.6999H234.499Z" fill="white"/>
<path d="M193.649 70.2096C193.499 70.2096 193.349 70.1696 193.209 70.0896C192.519 69.6796 190.229 68.2296 189.749 67.0696C189.409 66.2496 189.939 65.0496 191.069 62.6396C191.819 61.0496 192.669 59.2396 192.809 58.1396C192.869 57.6696 193.299 57.3496 193.759 57.4096C194.229 57.4696 194.549 57.8996 194.489 58.3596C194.309 59.7296 193.439 61.5796 192.609 63.3696C192.089 64.4896 191.379 65.9996 191.349 66.4896C191.619 66.9596 192.979 67.9896 194.099 68.6596C194.499 68.8996 194.629 69.4196 194.389 69.8196C194.229 70.0796 193.949 70.2296 193.659 70.2296L193.649 70.2096Z" fill="#333333"/>
<path d="M205.62 50.1493C205.44 50.5393 205.38 51.0393 205.65 51.3593C205.8 51.5393 206.02 51.6293 206.24 51.6993C206.84 51.8793 207.49 51.8593 208.12 51.8393C210.21 51.7693 212.3 51.7093 214.38 51.6393C214.52 51.6393 214.67 51.6293 214.79 51.5593C215 51.4293 215.05 51.1693 215.08 50.9293C215.14 50.5193 215.18 50.0393 214.89 49.7393C214.79 49.6293 214.65 49.5593 214.52 49.4893C212.95 48.6993 211.2 48.2893 209.44 48.3093C207.94 48.3193 206.24 48.7993 205.61 50.1593L205.62 50.1493Z" fill="#333333"/>
<path d="M185.96 50.1493C186.14 50.5393 186.2 51.0393 185.93 51.3593C185.78 51.5393 185.56 51.6293 185.34 51.6993C184.74 51.8793 184.09 51.8593 183.46 51.8393C181.37 51.7693 179.28 51.7093 177.2 51.6393C177.06 51.6393 176.91 51.6293 176.79 51.5593C176.58 51.4293 176.53 51.1693 176.5 50.9293C176.44 50.5193 176.4 50.0393 176.69 49.7393C176.79 49.6293 176.93 49.5593 177.06 49.4893C178.63 48.6993 180.38 48.2893 182.14 48.3093C183.64 48.3193 185.34 48.7993 185.97 50.1593L185.96 50.1493Z" fill="#333333"/>
<path d="M235.339 72.879C235.259 72.879 235.169 72.869 235.089 72.839C234.639 72.699 234.389 72.229 234.529 71.779C235.679 68.039 237.629 65.569 240.319 64.429C244.499 62.659 248.869 64.829 249.059 64.919C249.479 65.129 249.639 65.639 249.429 66.059C249.219 66.479 248.709 66.649 248.289 66.439C248.249 66.419 244.419 64.529 240.969 65.999C238.769 66.939 237.149 69.049 236.159 72.279C236.049 72.639 235.709 72.879 235.349 72.879H235.339Z" fill="#333333"/>
<path d="M242.969 71.0902C242.769 71.0902 242.569 71.0202 242.409 70.8802L238.679 67.6302C238.329 67.3202 238.289 66.7902 238.599 66.4302C238.909 66.0802 239.439 66.0402 239.799 66.3502L243.529 69.6002C243.879 69.9102 243.919 70.4402 243.609 70.8002C243.439 70.9902 243.209 71.0902 242.969 71.0902Z" fill="#333333"/>
<path d="M169.889 64.999C169.549 64.999 169.229 64.789 169.099 64.459C168.419 62.719 167.439 61.609 166.189 61.159C164.129 60.419 161.899 61.659 161.869 61.669C161.459 61.899 160.939 61.759 160.709 61.349C160.479 60.939 160.619 60.429 161.029 60.189C161.149 60.119 163.939 58.549 166.739 59.549C168.489 60.169 169.809 61.609 170.679 63.839C170.849 64.279 170.629 64.769 170.199 64.939C170.099 64.979 169.989 64.999 169.889 64.999Z" fill="#333333"/>
<path d="M107.529 116.621C86.2392 130.361 61.6292 138.091 36.2992 139.001L16.4492 139.711V257.771C16.4492 284.911 32.3092 310.671 59.8192 328.251L107.519 358.721L155.219 328.251C182.729 310.681 198.589 284.911 198.589 257.771V139.711L178.739 139.001C153.419 138.101 128.809 130.361 107.509 116.621H107.529Z" fill="white"/>
<path d="M107.529 359.57C107.369 359.57 107.209 359.53 107.069 359.44L59.3694 328.97C31.5594 311.21 15.6094 285.26 15.6094 257.78V139.72C15.6094 139.26 15.9694 138.89 16.4294 138.87L36.2794 138.16C61.4394 137.26 85.9194 129.57 107.069 115.92C107.349 115.74 107.709 115.74 107.989 115.92C129.139 129.57 153.619 137.27 178.789 138.16L198.639 138.87C199.099 138.89 199.459 139.26 199.459 139.72V257.78C199.459 285.26 183.509 311.21 155.699 328.97L107.999 359.44C107.859 359.53 107.699 359.57 107.539 359.57H107.529ZM17.3094 140.53V257.77C17.3094 284.66 32.9694 310.09 60.2894 327.53L107.529 357.71L154.769 327.53C182.079 310.08 197.749 284.66 197.749 257.77V140.53L178.719 139.85C153.439 138.95 128.829 131.27 107.529 117.63C86.2194 131.26 61.6194 138.95 36.3394 139.85L17.3094 140.53Z" fill="#333333"/>
<path d="M107.529 149.15C91.6185 159.42 73.2285 165.2 54.3085 165.87L39.4785 166.4V254.62C39.4785 274.9 51.3285 294.15 71.8885 307.29L107.529 330.06L143.169 307.29C163.729 294.16 175.579 274.9 175.579 254.62V166.4L160.749 165.87C141.829 165.19 123.439 159.42 107.529 149.15Z" fill="#CCD7F2"/>
<path d="M107.529 330.91C107.369 330.91 107.209 330.87 107.069 330.78L71.4289 308.01C50.5789 294.7 38.6289 275.24 38.6289 254.63V166.41C38.6289 165.95 38.9889 165.58 39.4489 165.56L54.2789 165.03C73.0389 164.36 91.2989 158.62 107.069 148.44C107.349 148.26 107.709 148.26 107.989 148.44C123.769 158.62 142.019 164.36 160.779 165.03L175.609 165.56C176.069 165.58 176.429 165.95 176.429 166.41V254.63C176.429 275.24 164.469 294.7 143.629 308.01L107.989 330.78C107.849 330.87 107.689 330.91 107.529 330.91ZM40.3289 167.22V254.62C40.3289 274.64 51.9989 293.57 72.3489 306.57L107.539 329.05L142.729 306.57C163.079 293.57 174.749 274.64 174.749 254.62V167.22L160.739 166.72C141.849 166.05 123.469 160.32 107.549 150.16C91.6189 160.32 73.2389 166.05 54.3589 166.72L40.3489 167.22H40.3289Z" fill="#333333"/>
<path d="M10.0103 189.26L37.7303 189.83C42.6803 189.94 46.6003 194.02 46.5003 198.97C46.4203 203.07 43.5703 206.44 39.7803 207.42C43.7003 208.44 46.5603 212.02 46.4803 216.25C46.4103 219.49 44.6203 222.26 42.0203 223.78C44.8303 225.34 46.7303 228.33 46.6603 231.77C46.5703 235.93 43.6503 239.33 39.7803 240.26C42.3503 241.64 44.0803 244.35 44.0203 247.47C43.9303 251.9 40.2603 255.42 35.8303 255.33L10.9803 254.82C9.83025 254.8 8.74025 254.53 7.76025 254.07C4.97025 252.77 3.06025 249.91 3.12025 246.62C3.18025 243.52 5.01025 240.9 7.61025 239.62C7.13025 239.49 6.65025 239.34 6.21025 239.13C3.09025 237.68 0.960251 234.48 1.04025 230.82C1.11025 227.57 2.91025 224.79 5.53025 223.28C2.71025 221.72 0.790251 218.75 0.860251 215.31C0.940251 211.21 3.79025 207.85 7.58025 206.87C7.06025 206.73 6.54025 206.57 6.06025 206.34C2.94025 204.89 0.810251 201.69 0.890251 198.04C0.990251 193.1 5.08025 189.17 10.0303 189.27L10.0103 189.26Z" fill="white"/>
<path d="M35.9898 256.16H35.8098L10.9598 255.64C9.71979 255.61 8.51979 255.34 7.39979 254.81C4.20979 253.32 2.19979 250.09 2.26979 246.58C2.32979 243.89 3.59979 241.42 5.68979 239.8C2.25979 238.13 0.109792 234.61 0.189792 230.78C0.249792 227.8 1.64979 225.07 3.98979 223.27C1.42979 221.4 -0.0602077 218.44 -0.000207694 215.28C0.0697923 211.71 2.12979 208.5 5.21979 206.86C1.96979 205.13 -0.0502077 201.71 0.0297923 198C0.139792 192.71 4.53979 188.4 9.82979 188.4H10.0298L37.7498 188.97C43.1498 189.09 47.4598 193.57 47.3498 198.97C47.2798 202.55 45.2098 205.76 42.1198 207.4C45.3398 209.1 47.4098 212.48 47.3298 216.25C47.2698 219.22 45.8798 221.94 43.5598 223.74C46.0898 225.62 47.5798 228.59 47.5098 231.76C47.4298 235.59 45.1098 238.97 41.6698 240.49C43.7298 242.2 44.9198 244.74 44.8698 247.46C44.7698 252.25 40.7898 256.15 35.9998 256.15L35.9898 256.16ZM9.82979 190.1C5.44979 190.1 1.81979 193.66 1.72979 198.04C1.65979 201.25 3.49979 204.2 6.40979 205.56C6.78979 205.74 7.22979 205.89 7.77979 206.03C8.14979 206.13 8.41979 206.47 8.40979 206.85C8.40979 207.24 8.14979 207.57 7.76979 207.67C4.25979 208.58 1.75979 211.72 1.68979 215.31C1.62979 218.29 3.24979 221.05 5.91979 222.52C6.18979 222.67 6.35979 222.95 6.35979 223.25C6.35979 223.56 6.19979 223.84 5.93979 223.99C3.44979 225.43 1.92979 227.98 1.86979 230.81C1.79979 234.02 3.63979 236.97 6.54979 238.33C6.94979 238.52 7.39979 238.65 7.81979 238.77C8.15979 238.86 8.40979 239.16 8.43979 239.51C8.46979 239.86 8.28979 240.19 7.96979 240.35C5.53979 241.55 3.99979 243.95 3.94979 246.61C3.88979 249.45 5.51979 252.07 8.09979 253.27C9.00979 253.69 9.96979 253.92 10.9798 253.94L35.9798 254.46C39.8598 254.46 43.0798 251.31 43.1598 247.43C43.2198 244.75 41.7598 242.28 39.3698 240.99C39.0598 240.82 38.8898 240.48 38.9298 240.13C38.9798 239.78 39.2298 239.5 39.5698 239.41C43.1598 238.55 45.7198 235.39 45.7998 231.73C45.8598 228.74 44.2498 225.97 41.5998 224.5C41.3298 224.35 41.1698 224.07 41.1598 223.77C41.1598 223.46 41.3198 223.18 41.5798 223.03C44.0498 221.59 45.5698 219.04 45.6198 216.22C45.6998 212.47 43.1998 209.18 39.5598 208.23C39.1898 208.13 38.9198 207.79 38.9298 207.41C38.9298 207.02 39.1898 206.69 39.5698 206.59C43.0798 205.68 45.5798 202.54 45.6598 198.95C45.7498 194.48 42.1898 190.77 37.7198 190.68L9.82979 190.11V190.1Z" fill="#1A194E"/>
<path d="M39.8805 207.74C40.0205 207.7 40.1305 207.57 40.1305 207.41C40.1305 207.22 39.9805 207.06 39.7905 207.06L7.58047 206.5C7.39047 206.5 7.23047 206.65 7.23047 206.84C7.23047 207.03 7.38047 207.19 7.57047 207.19L39.7805 207.75C39.7805 207.75 39.8505 207.75 39.8805 207.74Z" fill="#1A194E"/>
<path d="M39.78 208.18H39.76L7.55004 207.62C7.13004 207.62 6.79004 207.26 6.79004 206.84C6.80004 206.42 7.15004 206.08 7.56004 206.08L39.79 206.64C40.21 206.64 40.55 207 40.55 207.42C40.55 207.77 40.32 208.06 39.99 208.15C39.93 208.17 39.85 208.18 39.78 208.18Z" fill="#1A194E"/>
<path d="M42.11 224.102C42.25 224.062 42.35 223.941 42.36 223.791C42.37 223.601 42.23 223.441 42.03 223.421L22.3 222.291C22.11 222.281 21.95 222.431 21.94 222.611C21.93 222.801 22.07 222.961 22.27 222.981L42 224.111C42 224.111 42.08 224.112 42.12 224.102H42.11Z" fill="#1A194E"/>
<path d="M42.01 224.541H41.97L22.24 223.411C22.03 223.401 21.84 223.311 21.71 223.151C21.57 223.001 21.5 222.801 21.52 222.591C21.55 222.181 21.88 221.871 22.28 221.871L42.06 223.001C42.49 223.031 42.81 223.391 42.79 223.821C42.77 224.141 42.55 224.421 42.24 224.511C42.17 224.531 42.1 224.541 42.02 224.541H42.01Z" fill="#1A194E"/>
<path d="M31.9499 240.62C32.0799 240.58 32.1899 240.46 32.1999 240.31C32.2099 240.12 32.0699 239.95 31.8799 239.94L9.51992 238.42C9.32992 238.4 9.15992 238.55 9.14992 238.74C9.13992 238.93 9.27992 239.1 9.46992 239.11L31.8299 240.63C31.8299 240.63 31.9099 240.63 31.9499 240.62Z" fill="#1A194E"/>
<path d="M31.8596 241.05H31.7796L9.44958 239.52C9.24958 239.51 9.05958 239.41 8.91958 239.26C8.77958 239.1 8.71958 238.91 8.72958 238.7C8.74958 238.3 9.08958 237.98 9.48958 237.98L31.9096 239.51C32.1096 239.52 32.2996 239.62 32.4396 239.77C32.5796 239.93 32.6396 240.12 32.6296 240.33C32.6096 240.65 32.3896 240.93 32.0796 241.02C32.0096 241.04 31.9396 241.05 31.8696 241.05H31.8596Z" fill="#1A194E"/>
<path d="M39.8696 240.581C39.9996 240.541 40.0996 240.431 40.1196 240.291C40.1396 240.101 40.0096 239.931 39.8196 239.911L36.6896 239.551C36.4996 239.531 36.3296 239.661 36.3096 239.851C36.2896 240.041 36.4196 240.211 36.6096 240.231L39.7396 240.591C39.7396 240.591 39.8296 240.591 39.8796 240.581H39.8696Z" fill="#1A194E"/>
<path d="M39.7795 241.021H39.6895L36.5596 240.651C36.1396 240.601 35.8396 240.211 35.8796 239.801C35.9196 239.411 36.2496 239.121 36.6496 239.121H36.7396L39.8695 239.491C40.2895 239.541 40.5896 239.931 40.5496 240.341C40.5196 240.651 40.2996 240.901 39.9996 240.991C39.9296 241.011 39.8595 241.021 39.7795 241.021Z" fill="#1A194E"/>
<path d="M34.6492 202.762C34.6492 202.762 34.7092 202.762 34.7392 202.762L40.9192 202.582C41.0092 202.582 41.0992 202.532 41.1492 202.462C41.2392 202.352 43.2592 199.612 42.4392 195.962C42.3992 195.802 42.2292 195.702 42.0792 195.732C41.9092 195.772 41.8092 195.932 41.8492 196.092C42.5192 199.052 41.1092 201.422 40.7492 201.972L34.8592 202.152C31.8892 198.952 33.2592 194.632 33.5992 193.712L38.7292 193.482C38.8992 193.482 39.0292 193.332 39.0192 193.162C39.0192 192.992 38.8692 192.862 38.6992 192.872L33.3792 193.112C33.2592 193.112 33.1592 193.182 33.1092 193.292C33.0892 193.352 30.7892 198.782 34.5192 202.672C34.5592 202.712 34.6092 202.742 34.6592 202.752L34.6492 202.762Z" fill="#1A194E"/>
<path d="M34.7297 203.191L34.5497 203.171C34.4297 203.141 34.3097 203.071 34.2197 202.981C30.3497 198.961 32.6197 193.381 32.7197 193.141C32.8397 192.871 33.0897 192.701 33.3697 192.701L38.6897 192.461C39.1097 192.461 39.4297 192.771 39.4497 193.161C39.4497 193.351 39.3897 193.541 39.2597 193.681C39.1297 193.821 38.9497 193.911 38.7497 193.911L33.9197 194.131C33.5297 195.331 32.6397 198.961 35.0597 201.721L40.5297 201.561C40.9597 200.851 42.0297 198.741 41.4597 196.191C41.3697 195.801 41.6197 195.411 42.0097 195.321L42.1597 195.301C42.4997 195.301 42.7897 195.531 42.8697 195.861C43.7497 199.761 41.5297 202.691 41.4997 202.721C41.3697 202.891 41.1597 203.001 40.9397 203.011L34.7397 203.191H34.7297Z" fill="#1A194E"/>
<path d="M33.6795 220.07C33.6795 220.07 33.7395 220.07 33.7695 220.07L39.9495 219.89C40.0395 219.89 40.1295 219.84 40.1795 219.77C40.2695 219.66 42.2895 216.92 41.4695 213.27C41.4295 213.11 41.2595 213.01 41.1095 213.04C40.9395 213.08 40.8395 213.24 40.8795 213.4C41.5495 216.36 40.1395 218.73 39.7795 219.28L33.8895 219.46C30.9195 216.26 32.2895 211.94 32.6295 211.02L37.7595 210.79C37.9295 210.79 38.0595 210.64 38.0495 210.47C38.0495 210.3 37.8995 210.17 37.7295 210.18L32.4095 210.42C32.2895 210.42 32.1895 210.49 32.1395 210.6C32.1195 210.66 29.8195 216.09 33.5495 219.98C33.5895 220.02 33.6395 220.05 33.6895 220.06L33.6795 220.07Z" fill="#1A194E"/>
<path d="M33.7798 220.5C33.7798 220.5 33.6598 220.5 33.5698 220.47C33.4598 220.44 33.3398 220.37 33.2498 220.28C29.3898 216.27 31.6498 210.68 31.7498 210.45C31.8698 210.18 32.1198 210.01 32.3898 210L37.7098 209.76C38.1298 209.76 38.4498 210.07 38.4698 210.46C38.4698 210.65 38.4098 210.84 38.2798 210.98C38.1498 211.12 37.9698 211.21 37.7698 211.22L32.9298 211.44C32.5398 212.64 31.6498 216.27 34.0698 219.04L39.5398 218.88C39.9698 218.17 41.0398 216.06 40.4698 213.51C40.3798 213.12 40.6298 212.73 41.0198 212.64L41.1798 212.62C41.5198 212.62 41.8098 212.85 41.8898 213.18C42.7698 217.06 40.6198 219.92 40.5198 220.04C40.3898 220.21 40.1798 220.32 39.9598 220.33L33.7698 220.51L33.7798 220.5Z" fill="#1A194E"/>
<path d="M33.76 235.762C33.76 235.762 33.82 235.762 33.85 235.762L40.03 235.582C40.12 235.582 40.21 235.532 40.26 235.462C40.35 235.352 42.37 232.612 41.55 228.962C41.51 228.802 41.34 228.702 41.19 228.732C41.02 228.772 40.92 228.932 40.96 229.092C41.63 232.052 40.22 234.422 39.86 234.972L33.97 235.142C31 231.942 32.37 227.622 32.7 226.702L37.83 226.472C38 226.472 38.13 226.322 38.12 226.152C38.12 225.982 37.97 225.852 37.8 225.862L32.48 226.102C32.36 226.102 32.26 226.172 32.21 226.282C32.19 226.342 29.88 231.772 33.62 235.662C33.66 235.702 33.71 235.732 33.76 235.742V235.762Z" fill="#1A194E"/>
<path d="M33.85 236.191C33.85 236.191 33.73 236.191 33.65 236.161C33.53 236.131 33.42 236.061 33.33 235.971C29.4601 231.941 31.73 226.371 31.83 226.131C31.95 225.871 32.2 225.701 32.47 225.691L37.79 225.451C38.21 225.451 38.53 225.761 38.55 226.151C38.55 226.341 38.49 226.531 38.36 226.671C38.23 226.811 38.05 226.901 37.85 226.911L33.01 227.131C32.62 228.331 31.73 231.961 34.15 234.731L39.62 234.571C40.05 233.861 41.12 231.741 40.55 229.201C40.46 228.811 40.71 228.421 41.1 228.331L41.26 228.311C41.6 228.311 41.89 228.541 41.97 228.871C42.85 232.761 40.63 235.701 40.6 235.731C40.47 235.901 40.26 236.011 40.04 236.021L33.85 236.201V236.191Z" fill="#1A194E"/>
<path d="M31.5003 252.412C31.5003 252.412 31.5603 252.412 31.5903 252.412L37.7703 252.232C37.8603 252.232 37.9503 252.182 38.0003 252.112C38.0903 252.002 40.1103 249.262 39.2903 245.612C39.2503 245.452 39.0803 245.352 38.9303 245.382C38.7603 245.422 38.6603 245.582 38.7003 245.742C39.3703 248.702 37.9603 251.072 37.6003 251.622L31.7103 251.802C28.7403 248.602 30.1103 244.282 30.4403 243.362L35.5703 243.132C35.7403 243.132 35.8703 242.982 35.8603 242.812C35.8603 242.642 35.7103 242.512 35.5403 242.522L30.2203 242.762C30.1003 242.762 30.0003 242.832 29.9503 242.942C29.9303 243.002 27.6203 248.432 31.3603 252.322C31.4003 252.362 31.4503 252.392 31.5003 252.402V252.412Z" fill="#1A194E"/>
<path d="M31.5801 252.841L31.3901 252.811C31.2701 252.781 31.1601 252.711 31.0601 252.621C27.1901 248.601 29.4701 243.021 29.5601 242.791C29.6701 242.531 29.9301 242.361 30.2001 242.351L35.5201 242.111C35.9401 242.111 36.2601 242.421 36.2801 242.811C36.2801 243.001 36.2201 243.191 36.0901 243.331C35.9601 243.471 35.7801 243.561 35.5801 243.571L30.7401 243.791C30.3501 244.991 29.4601 248.621 31.8801 251.381L37.3501 251.221C37.7801 250.511 38.8501 248.401 38.2801 245.851C38.1901 245.461 38.4401 245.071 38.8301 244.981L38.9901 244.961C39.3301 244.961 39.6201 245.191 39.7001 245.521C40.5801 249.411 38.3601 252.351 38.3301 252.381C38.2001 252.551 37.9901 252.661 37.7701 252.671L31.5701 252.851L31.5801 252.841Z" fill="#1A194E"/>
<path d="M69.2402 199.55L106.69 177.93L144.17 199.55V242.8L106.69 264.45L69.2402 242.8V199.55Z" fill="#333333"/>
<path d="M103.66 243.161C101.51 243.161 99.4502 242.221 98.0402 240.571L82.3602 222.061C79.7402 218.971 80.1202 214.321 83.2102 211.671C86.3302 209.051 90.9502 209.431 93.6002 212.521L103.46 224.171L120.55 202.551C123.08 199.341 127.7 198.811 130.88 201.341C134.06 203.871 134.62 208.491 132.09 211.671L109.41 240.361C108.06 242.101 105.97 243.131 103.76 243.161H103.67H103.66Z" fill="white"/>
<path d="M103.75 244H103.66C101.25 244 98.97 242.95 97.4 241.12L81.72 222.61C78.81 219.17 79.23 213.98 82.67 211.03C84.16 209.78 86.05 209.09 87.98 209.09C90.39 209.09 92.68 210.14 94.25 211.98L103.44 222.84L119.89 202.03C121.46 200.04 123.8 198.9 126.32 198.9C128.18 198.9 129.94 199.52 131.41 200.68C134.96 203.51 135.56 208.67 132.75 212.2L110.07 240.88C108.57 242.8 106.22 243.97 103.77 244H103.75ZM87.97 210.78C86.43 210.78 84.94 211.33 83.76 212.32C81.04 214.65 80.7 218.78 83.01 221.51L98.69 240.02C99.94 241.47 101.75 242.31 103.66 242.31H103.74C105.68 242.28 107.54 241.36 108.73 239.84L131.42 211.15C133.65 208.35 133.17 204.26 130.35 202.01C129.19 201.09 127.8 200.6 126.32 200.6C124.32 200.6 122.46 201.5 121.22 203.08L103.48 225.52L92.95 213.08C91.7 211.63 89.89 210.79 87.97 210.79V210.78Z" fill="#290A43"/>
<path d="M336.12 229.769C330.44 232.579 319.19 237.929 310.25 240.729C297.75 244.649 282.09 248.889 277.59 250.859C275.77 251.649 273.79 252.339 272.08 252.869L281.85 287.409L266.57 280.799L233.1 266.329C230.64 264.079 222.53 257.079 212.34 252.429C198.32 244.349 184.12 235.329 181.68 232.259C179.14 229.069 174.5 228.549 171.31 231.089C168.13 233.629 167.6 238.269 170.14 241.459C172.67 244.629 179.05 249.239 186.22 253.879C186.09 253.929 185.97 253.969 185.83 254.019C182.85 254.979 179.65 255.349 175.5 255.609L135.26 255.919C131.01 255.949 127.57 259.429 127.62 263.679C127.65 267.029 129.81 269.859 132.81 270.889L127.57 271.009C123.32 271.109 119.96 274.679 120.05 278.879C120.15 283.129 123.67 286.499 127.92 286.399L130.36 286.349C127.95 287.669 126.32 290.229 126.35 293.169C126.38 297.419 129.86 300.839 134.11 300.809L147.28 300.709C144.98 302.069 143.45 304.589 143.51 307.499C143.6 311.749 147.12 315.129 151.37 315.039L174.69 314.549C174.69 314.549 174.74 314.559 174.77 314.559C180.14 314.959 186.99 314.569 193.87 313.849C224.89 328.689 304.85 382.119 339.77 349.909C359.47 331.749 351.94 275.759 336.13 229.779L336.12 229.769Z" fill="white"/>
<path d="M310.47 360.469C279.45 360.469 239.03 338.769 212.29 324.259C205.03 320.319 198.75 317.019 193.7 314.599C185.9 315.409 179.47 315.699 174.69 315.339C174.67 315.339 174.64 315.359 174.61 315.359L151.19 315.859C146.57 315.859 142.74 312.109 142.64 307.499C142.6 305.269 143.42 303.159 144.87 301.559L134.1 301.639C129.36 301.639 125.52 297.949 125.48 293.269C125.46 291.039 126.31 288.459 127.79 287.459H127.72C123.11 287.459 119.28 283.599 119.18 278.989C119.08 274.279 122.83 270.299 127.53 270.189L129.74 270.109C127.9 268.529 126.76 266.189 126.74 263.669C126.72 261.389 127.58 259.239 129.18 257.609C130.79 255.979 132.93 255.059 135.22 255.039L175.46 254.729C178.78 254.519 181.61 254.229 184.2 253.569C176.54 248.539 171.58 244.639 169.45 241.969C166.63 238.419 167.21 233.229 170.75 230.409C172.22 229.239 173.99 228.619 175.87 228.619C178.39 228.619 180.74 229.749 182.31 231.719C184.43 234.379 196.94 242.589 212.73 251.689C222.87 256.309 231.09 263.389 233.53 265.599L280.52 285.919L271.23 253.099C271.1 252.659 271.36 252.189 271.8 252.059C273.18 251.629 275.25 250.939 277.22 250.079C280.09 248.829 287.17 246.729 295.38 244.309C300.25 242.869 305.29 241.379 309.96 239.919C318.72 237.169 329.85 231.899 335.71 229.009C335.93 228.899 336.18 228.889 336.41 228.989C336.64 229.079 336.81 229.269 336.89 229.499C353.03 276.429 360.34 331.839 340.3 350.319C332.84 357.199 322.79 360.479 310.43 360.479L310.47 360.469ZM193.86 312.989C193.99 312.989 194.11 313.019 194.23 313.069C199.35 315.519 205.72 318.979 213.11 322.979C239.7 337.399 279.89 359.189 310.48 359.199C322.39 359.199 332.06 355.859 339.2 349.279C358.44 331.539 350.88 275.709 335.64 230.959C329.56 233.949 318.97 238.889 310.52 241.549C305.84 243.019 300.79 244.509 295.91 245.949C288.1 248.259 280.72 250.439 277.95 251.649C276.25 252.389 274.5 252.999 273.14 253.439L282.69 287.189C282.78 287.509 282.68 287.839 282.43 288.059C282.18 288.279 281.83 288.329 281.53 288.199L232.77 267.109C232.68 267.069 232.6 267.019 232.53 266.959C230.27 264.899 222.13 257.829 211.99 253.209C198.43 245.399 183.64 236.089 181.02 232.789C179.77 231.229 177.91 230.329 175.91 230.329C174.42 230.329 173.01 230.819 171.84 231.749C169.03 233.989 168.56 238.109 170.8 240.929C172.96 243.629 178.3 247.749 186.67 253.159C186.94 253.329 187.09 253.649 187.05 253.969C187.01 254.289 186.8 254.559 186.5 254.669C186.36 254.719 186.23 254.769 186.08 254.819C182.97 255.819 179.61 256.199 175.54 256.449L135.26 256.759C133.42 256.769 131.7 257.499 130.42 258.809C129.14 260.109 128.45 261.839 128.47 263.659C128.49 266.549 130.35 269.129 133.09 270.079C133.48 270.209 133.71 270.609 133.65 271.009C133.59 271.419 133.24 271.719 132.83 271.729L127.59 271.849C123.82 271.939 120.81 275.079 120.89 278.849C120.97 282.539 124.04 285.549 127.74 285.549L130.34 285.489C130.72 285.509 131.08 285.739 131.18 286.119C131.28 286.499 131.11 286.899 130.77 287.079C128.54 288.299 127.18 290.619 127.2 293.139C127.23 296.889 130.3 299.749 134.05 299.749L147.28 299.459C147.66 299.459 148 299.899 148.1 300.269C148.2 300.639 148.04 301.129 147.71 301.319C145.59 302.569 144.31 304.929 144.35 307.409C144.43 311.109 147.5 314.139 151.2 314.139H151.35L174.67 313.669C174.71 313.669 174.75 313.669 174.79 313.669C174.81 313.669 174.87 313.679 174.9 313.689C176.24 313.789 177.81 313.839 179.5 313.839C183.49 313.839 188.3 313.549 193.78 312.969C193.81 312.969 193.84 312.969 193.87 312.969L193.86 312.989Z" fill="#1A194E"/>
<path d="M165.809 271.338C165.809 271.548 165.639 271.728 165.419 271.748C159.429 272.338 140.839 271.978 133.029 271.428C132.799 271.408 132.619 271.218 132.629 270.978C132.649 270.728 132.849 270.548 133.089 270.568C140.869 271.118 159.379 271.478 165.329 270.888C165.569 270.868 165.769 271.038 165.799 271.268C165.799 271.288 165.799 271.308 165.799 271.328L165.809 271.338Z" fill="#1A194E"/>
<path d="M155 272.479C147.5 272.479 138.05 272.209 133 271.849C132.54 271.819 132.19 271.429 132.21 270.959C132.24 270.489 132.62 270.139 133.06 270.139C138.15 270.499 147.56 270.769 155.02 270.769C159.75 270.769 163.3 270.669 165.29 270.469C165.79 270.439 166.18 270.799 166.22 271.229V271.359C166.21 271.769 165.88 272.119 165.45 272.159C162.88 272.409 158.34 272.469 154.99 272.469L155 272.479ZM133.06 270.999C138.09 271.359 147.52 271.629 155 271.629C159.78 271.629 163.37 271.519 165.38 271.329C162.84 271.579 158.35 271.629 155.03 271.629C147.55 271.629 138.11 271.359 133.07 270.999H133.06Z" fill="#1A194E"/>
<path d="M168.399 285.588C168.399 285.808 168.219 285.978 167.999 285.998C160.179 286.548 140.879 287.188 130.239 286.938C129.999 286.938 129.819 286.738 129.819 286.498C129.819 286.258 130.019 286.078 130.259 286.078C140.879 286.328 160.139 285.688 167.939 285.138C168.169 285.118 168.379 285.298 168.399 285.538C168.399 285.538 168.399 285.568 168.399 285.588Z" fill="#1A194E"/>
<path d="M135.68 287.419C133.64 287.419 131.81 287.399 130.23 287.359C130 287.359 129.79 287.259 129.63 287.099C129.47 286.939 129.39 286.719 129.39 286.489C129.41 286.009 129.78 285.659 130.24 285.659C131.83 285.699 133.65 285.719 135.67 285.719C146.38 285.719 161.26 285.199 167.91 284.719C168.41 284.719 168.78 285.069 168.81 285.509V285.599C168.79 286.039 168.45 286.389 168.02 286.419C161.35 286.889 146.42 287.419 135.67 287.419H135.68ZM130.25 286.509C131.82 286.549 133.65 286.569 135.68 286.569C146.41 286.569 161.31 286.039 167.97 285.569C161.31 286.039 146.4 286.559 135.67 286.559C133.64 286.559 131.82 286.539 130.24 286.499L130.25 286.509Z" fill="#1A194E"/>
<path d="M175.299 299.37C175.299 299.59 175.119 299.77 174.899 299.78C168.739 300.15 147.439 300.93 147.219 300.94C146.979 300.94 146.789 300.76 146.779 300.53C146.749 300.3 146.959 300.1 147.189 300.09C147.399 300.09 168.699 299.3 174.849 298.93C175.079 298.92 175.289 299.1 175.299 299.33C175.299 299.35 175.299 299.36 175.299 299.37Z" fill="#1A194E"/>
<path d="M147.209 301.37C146.749 301.37 146.379 301.01 146.359 300.55C146.329 300.37 146.399 300.15 146.549 299.98C146.709 299.79 146.939 299.68 147.179 299.67C147.379 299.67 168.679 298.88 174.829 298.51C175.329 298.51 175.699 298.86 175.729 299.31V299.33V299.4C175.709 299.84 175.369 300.19 174.929 300.21C168.749 300.58 147.439 301.36 147.239 301.37H147.209ZM174.879 299.36C168.719 299.72 147.409 300.51 147.209 300.52V300.95V300.53C147.409 300.53 168.699 299.74 174.879 299.37V299.36Z" fill="#1A194E"/>
<path d="M186.62 273.529C186.62 273.529 186.61 273.619 186.59 273.669C186.51 273.889 186.26 273.999 186.04 273.909L179.02 271.179C178.8 271.089 178.69 270.839 178.78 270.629C178.86 270.409 179.11 270.299 179.33 270.389L186.35 273.119C186.53 273.189 186.63 273.359 186.62 273.539V273.529Z" fill="#1A194E"/>
<path d="M186.19 274.358C186.08 274.358 185.98 274.338 185.88 274.298L178.86 271.568C178.64 271.488 178.48 271.318 178.38 271.108C178.29 270.898 178.29 270.668 178.38 270.458C178.54 270.038 179.06 269.808 179.48 269.978L186.5 272.708C186.84 272.838 187.06 273.178 187.04 273.538C187.04 273.638 187.01 273.728 186.98 273.818C186.86 274.128 186.54 274.348 186.19 274.348V274.358ZM179.17 270.778L186.19 273.518V273.948V273.528L179.17 270.788V270.778Z" fill="#1A194E"/>
<path d="M186.19 270.369C186.19 270.509 186.11 270.639 185.98 270.719L179.83 274.309C179.63 274.429 179.36 274.359 179.25 274.159C179.13 273.959 179.2 273.689 179.4 273.579L185.55 269.989C185.75 269.869 186.02 269.939 186.13 270.139C186.17 270.209 186.19 270.289 186.19 270.369Z" fill="#1A194E"/>
<path d="M179.61 274.789C179.31 274.789 179.02 274.629 178.87 274.369C178.76 274.179 178.72 273.939 178.78 273.719C178.84 273.499 178.98 273.309 179.18 273.199L185.32 269.609C185.7 269.379 186.26 269.519 186.48 269.919C186.56 270.049 186.6 270.219 186.6 270.379C186.59 270.669 186.43 270.939 186.18 271.079L180.03 274.669C179.9 274.749 179.75 274.789 179.6 274.789H179.61ZM185.76 270.349L179.61 273.929V274.359V273.939L185.76 270.349Z" fill="#1A194E"/>
<path d="M190.4 288.531C190.4 288.531 190.39 288.621 190.37 288.671C190.29 288.891 190.04 289.001 189.82 288.911L182.8 286.181C182.58 286.101 182.47 285.851 182.56 285.631C182.64 285.411 182.89 285.301 183.11 285.391L190.13 288.121C190.31 288.191 190.41 288.361 190.4 288.541V288.531Z" fill="#1A194E"/>
<path d="M189.97 289.37C189.86 289.37 189.76 289.35 189.66 289.31L182.64 286.58C182.43 286.5 182.26 286.33 182.17 286.12C182.08 285.91 182.08 285.68 182.17 285.47C182.33 285.05 182.85 284.82 183.27 284.99L190.29 287.72C190.63 287.85 190.85 288.19 190.83 288.55C190.83 288.65 190.81 288.74 190.77 288.83C190.65 289.14 190.33 289.36 189.98 289.36L189.97 289.37ZM182.95 285.79L189.97 288.53V288.96V288.54L182.95 285.81V285.79Z" fill="#1A194E"/>
<path d="M189.96 285.369C189.96 285.509 189.88 285.639 189.75 285.719L183.6 289.309C183.4 289.429 183.13 289.359 183.02 289.159C182.9 288.959 182.97 288.699 183.17 288.579L189.32 284.989C189.52 284.869 189.79 284.939 189.9 285.139C189.94 285.209 189.96 285.289 189.96 285.369Z" fill="#1A194E"/>
<path d="M183.39 289.798C183.09 289.798 182.81 289.638 182.65 289.378C182.54 289.188 182.5 288.958 182.56 288.738C182.62 288.518 182.76 288.328 182.96 288.218L189.11 284.628C189.49 284.398 190.05 284.538 190.27 284.938C190.35 285.068 190.39 285.238 190.39 285.398C190.38 285.688 190.22 285.948 189.97 286.098L183.82 289.688C183.69 289.768 183.54 289.808 183.39 289.808V289.798Z" fill="#1A194E"/>
<path d="M194.37 305.689C194.37 305.689 194.36 305.779 194.34 305.829C194.26 306.049 194.01 306.159 193.79 306.069L186.77 303.339C186.55 303.259 186.43 302.999 186.53 302.789C186.61 302.569 186.86 302.459 187.08 302.549L194.1 305.279C194.28 305.349 194.38 305.519 194.37 305.699V305.689Z" fill="#1A194E"/>
<path d="M193.94 306.518C193.83 306.518 193.73 306.498 193.63 306.458L186.61 303.728C186.4 303.648 186.22 303.478 186.13 303.268C186.04 303.058 186.04 302.828 186.13 302.618C186.29 302.208 186.8 301.978 187.23 302.148L194.25 304.878C194.59 305.008 194.81 305.348 194.79 305.708C194.79 305.808 194.76 305.908 194.73 305.988C194.61 306.298 194.29 306.518 193.94 306.518ZM186.92 302.938L193.94 305.668V306.098V305.678L186.92 302.948V302.938Z" fill="#1A194E"/>
<path d="M193.93 302.529C193.93 302.669 193.85 302.799 193.72 302.879L187.57 306.469C187.37 306.589 187.1 306.519 186.99 306.319C186.87 306.119 186.94 305.859 187.14 305.739L193.29 302.149C193.49 302.029 193.76 302.099 193.87 302.299C193.91 302.369 193.93 302.449 193.93 302.529Z" fill="#1A194E"/>
<path d="M187.36 306.949C187.06 306.949 186.78 306.789 186.62 306.529C186.51 306.329 186.47 306.099 186.53 305.879C186.59 305.659 186.73 305.479 186.93 305.359L193.08 301.769C193.46 301.539 194.02 301.689 194.24 302.079C194.32 302.209 194.36 302.379 194.36 302.549C194.35 302.839 194.19 303.099 193.94 303.249L187.79 306.839C187.66 306.919 187.51 306.959 187.36 306.959V306.949Z" fill="#1A194E"/>
<path d="M133.29 279.689C133.25 280.709 132.99 281.699 132.37 282.459C132.31 282.529 132.22 282.579 132.12 282.589L126.91 282.949C126.85 282.949 126.79 282.949 126.74 282.919C126.71 282.909 123.58 281.449 123.91 277.619C123.93 277.419 124.09 277.279 124.29 277.289C124.49 277.309 124.62 277.479 124.62 277.669C124.62 277.739 124.61 277.809 124.61 277.869C124.48 280.789 126.53 282.009 126.96 282.239L131.92 281.889C133.38 279.919 132.08 276.009 131.71 275.029L127.35 275.179C127.15 275.179 126.99 275.029 126.98 274.839C126.94 274.629 127.13 274.479 127.32 274.469L131.93 274.309C132.08 274.309 132.21 274.389 132.27 274.529C132.33 274.679 133.39 277.279 133.29 279.689Z" fill="#1A194E"/>
<path d="M126.88 283.369C126.77 283.369 126.66 283.349 126.56 283.299C126.53 283.289 123.12 281.709 123.48 277.569C123.51 277.169 123.85 276.849 124.26 276.849C124.72 276.879 125.04 277.229 125.04 277.649V277.869C124.92 280.349 126.52 281.479 127.05 281.789L131.68 281.469C132.74 279.769 131.81 276.589 131.41 275.449L127.36 275.589C126.91 275.589 126.57 275.259 126.56 274.839C126.53 274.699 126.58 274.489 126.71 274.329C126.85 274.149 127.08 274.049 127.31 274.039L131.92 273.879C132.26 273.879 132.54 274.069 132.67 274.359C132.72 274.469 133.83 277.189 133.72 279.699C133.67 280.949 133.32 281.969 132.7 282.719C132.56 282.879 132.36 282.989 132.15 282.999L126.89 283.369H126.88Z" fill="#1A194E"/>
<path d="M141.289 264.528C141.249 265.548 140.989 266.538 140.369 267.298C140.309 267.368 140.219 267.418 140.119 267.428L134.909 267.788C134.849 267.788 134.789 267.788 134.739 267.758C134.709 267.748 131.579 266.288 131.909 262.458C131.929 262.258 132.089 262.118 132.289 262.128C132.489 262.148 132.619 262.318 132.619 262.508C132.619 262.578 132.619 262.648 132.609 262.708C132.479 265.628 134.529 266.848 134.959 267.078L139.919 266.728C141.379 264.758 140.079 260.848 139.709 259.868L135.349 260.018C135.149 260.018 134.989 259.868 134.979 259.678C134.939 259.468 135.129 259.318 135.319 259.308L139.929 259.148C140.079 259.148 140.209 259.228 140.269 259.368C140.329 259.518 141.389 262.118 141.289 264.528Z" fill="#1A194E"/>
<path d="M134.88 268.219C134.77 268.219 134.67 268.198 134.57 268.148C134.53 268.128 131.13 266.539 131.49 262.419C131.52 262.019 131.86 261.699 132.27 261.699C132.73 261.729 133.05 262.089 133.05 262.499V262.719C132.93 265.199 134.53 266.329 135.06 266.639L139.69 266.319C140.75 264.619 139.82 261.438 139.42 260.298L135.37 260.439C134.92 260.439 134.58 260.109 134.57 259.689C134.54 259.539 134.59 259.339 134.72 259.169C134.86 258.999 135.09 258.889 135.32 258.879L139.93 258.729C140.27 258.729 140.55 258.918 140.67 259.208C140.72 259.318 141.83 262.018 141.72 264.548C141.67 265.798 141.32 266.819 140.7 267.569C140.56 267.729 140.36 267.839 140.15 267.849L134.88 268.219Z" fill="#1A194E"/>
<path d="M138.87 294.319C138.83 295.339 138.57 296.329 137.95 297.089C137.89 297.159 137.8 297.209 137.7 297.219L132.49 297.579C132.43 297.579 132.37 297.579 132.32 297.549C132.29 297.539 129.16 296.079 129.49 292.249C129.51 292.049 129.68 291.909 129.87 291.919C130.07 291.939 130.2 292.109 130.2 292.299C130.2 292.369 130.2 292.439 130.19 292.499C130.06 295.419 132.11 296.639 132.54 296.869L137.5 296.519C138.96 294.549 137.66 290.639 137.29 289.659L132.93 289.809C132.73 289.809 132.57 289.659 132.56 289.469C132.52 289.249 132.71 289.109 132.9 289.099L137.51 288.939C137.66 288.939 137.79 289.019 137.85 289.159C137.91 289.309 138.97 291.909 138.87 294.319Z" fill="#1A194E"/>
<path d="M132.46 298.009C132.35 298.009 132.24 297.989 132.14 297.939C132.1 297.919 128.7 296.349 129.06 292.209C129.09 291.809 129.43 291.489 129.84 291.489C130.3 291.519 130.62 291.879 130.62 292.289V292.509C130.5 294.989 132.1 296.119 132.63 296.429L137.26 296.109C138.32 294.409 137.38 291.229 136.99 290.089L132.94 290.229C132.49 290.229 132.15 289.899 132.14 289.479C132.11 289.329 132.16 289.129 132.29 288.969C132.43 288.799 132.66 288.689 132.89 288.679L137.5 288.529C137.84 288.529 138.12 288.719 138.24 289.009C138.29 289.119 139.4 291.809 139.29 294.349C139.24 295.599 138.89 296.619 138.27 297.369C138.13 297.539 137.93 297.639 137.72 297.649L132.46 298.019V298.009Z" fill="#1A194E"/>
<path d="M156.17 309.349C156.13 310.369 155.87 311.359 155.25 312.119C155.19 312.189 155.1 312.239 155 312.249L149.79 312.609C149.73 312.609 149.67 312.609 149.62 312.579C149.59 312.569 146.46 311.109 146.79 307.279C146.81 307.079 146.97 306.939 147.17 306.949C147.37 306.969 147.5 307.139 147.5 307.329C147.5 307.399 147.5 307.469 147.49 307.529C147.36 310.449 149.41 311.669 149.84 311.899L154.8 311.549C156.26 309.579 154.96 305.669 154.59 304.689L150.23 304.839C150.03 304.839 149.87 304.689 149.86 304.499C149.82 304.289 150.01 304.139 150.2 304.129L154.81 303.969C154.96 303.969 155.09 304.049 155.15 304.189C155.21 304.339 156.27 306.939 156.17 309.349Z" fill="#1A194E"/>
<path d="M149.76 313.029C149.65 313.029 149.54 313.009 149.44 312.959C149.4 312.939 146 311.369 146.36 307.229C146.39 306.829 146.73 306.509 147.14 306.509C147.6 306.539 147.92 306.899 147.92 307.309V307.529C147.8 310.009 149.4 311.139 149.93 311.449L154.56 311.119C155.62 309.419 154.69 306.239 154.29 305.099L150.24 305.239C149.79 305.239 149.45 304.909 149.44 304.489C149.41 304.349 149.46 304.139 149.59 303.979C149.73 303.799 149.96 303.699 150.19 303.689L154.8 303.529C155.14 303.529 155.42 303.719 155.54 304.009C155.59 304.119 156.7 306.809 156.59 309.349C156.54 310.609 156.19 311.619 155.57 312.369C155.43 312.539 155.23 312.639 155.02 312.649L149.76 313.019V313.029Z" fill="#1A194E"/>
<path d="M184.41 235.528C184.39 236.008 184.14 238.318 181.33 240.378C181.19 240.478 181 240.488 180.85 240.398L174.73 236.568C174.64 236.508 174.57 236.418 174.54 236.308C174.5 236.148 173.52 232.308 175.31 230.378C175.47 230.208 175.74 230.188 175.91 230.358C176.09 230.518 176.1 230.788 175.93 230.958C174.64 232.358 175.17 235.228 175.33 235.938L181.05 239.518C183.52 237.588 183.58 235.568 183.55 235.458C183.59 235.208 183.74 235.028 183.97 235.028C184.21 235.028 184.4 235.208 184.4 235.448C184.4 235.458 184.4 235.488 184.4 235.538L184.41 235.528Z" fill="#1A194E"/>
<path d="M181.07 240.878C180.91 240.878 180.76 240.838 180.62 240.748L174.5 236.918C174.31 236.798 174.18 236.618 174.13 236.408C174.13 236.378 172.99 232.248 175 230.078C175.3 229.748 175.87 229.728 176.2 230.028C176.36 230.178 176.46 230.388 176.47 230.618C176.48 230.848 176.4 231.068 176.24 231.238C175.18 232.388 175.55 234.848 175.71 235.668L181.02 238.988C183.11 237.248 183.13 235.508 183.13 235.488L183.11 235.408L183.13 235.378C183.2 234.908 183.54 234.588 183.97 234.588C184.45 234.588 184.82 234.958 184.83 235.428V235.538C184.81 236.018 184.55 238.528 181.57 240.708C181.42 240.818 181.25 240.868 181.07 240.868V240.878ZM175.62 230.658C173.98 232.418 174.94 236.148 174.95 236.188L181.07 240.028C182.07 239.298 182.72 238.538 183.15 237.858C182.75 238.488 182.16 239.178 181.3 239.838L181.07 240.018L174.95 236.188L174.91 236.018C174.72 235.148 174.22 232.188 175.62 230.658Z" fill="#1A194E"/>
<path d="M317.44 346.55C315.25 346.55 313.08 346.24 310.97 345.64C308.19 344.85 306.43 343.53 305.72 341.74C304.91 339.69 305.59 337.15 307.58 334.77C311.4 330.19 317.75 327.72 324.57 328.16C325.04 328.19 325.39 328.59 325.36 329.06C325.33 329.53 324.93 329.88 324.46 329.85C318.17 329.45 312.35 331.69 308.88 335.86C308.13 336.75 306.49 339.06 307.3 341.12C307.8 342.4 309.2 343.37 311.44 344.02C313.81 344.7 316.27 344.97 318.73 344.83C321.52 344.67 323.63 343.92 325.02 342.6C326.45 341.24 327.16 338.67 325.93 337.03C325.28 336.17 324.15 335.59 322.82 335.45C321.48 335.31 320.07 335.59 318.87 335.89C317.98 336.11 316.97 336.4 316.28 337.01C315.51 337.69 315.41 338.69 316 339.68C316.24 340.08 316.11 340.6 315.71 340.84C315.31 341.08 314.79 340.95 314.55 340.55C313.54 338.86 313.78 336.98 315.16 335.74C316.14 334.86 317.38 334.5 318.48 334.23C319.82 333.9 321.42 333.58 323.02 333.75C324.82 333.94 326.39 334.76 327.31 336C329.14 338.44 328.16 341.96 326.21 343.82C324.53 345.42 322.05 346.33 318.85 346.51C318.39 346.54 317.93 346.55 317.47 346.55H317.44Z" fill="#333333"/>
<path d="M146.339 96.9596L153.839 94.5796L146.339 92.0196C144.099 91.4296 142.379 89.6196 141.899 87.3596L139.519 76.0996L136.959 87.1196C136.419 89.4396 134.589 91.2396 132.249 91.7396L125.189 94.1696L131.999 96.5696C134.389 97.1196 136.219 99.0396 136.649 101.46L138.619 112.35L141.489 101.45C142.099 99.1396 143.989 97.3996 146.329 96.9696L146.339 96.9596Z" fill="white"/>
<path d="M186.959 341.949L193.609 339.839L186.959 337.569C184.969 337.049 183.439 335.439 183.019 333.429L180.909 323.439L178.639 333.219C178.159 335.279 176.529 336.879 174.459 337.319L168.189 339.479L174.239 341.609C176.359 342.099 177.979 343.809 178.369 345.949L180.119 355.619L182.669 345.939C183.209 343.889 184.879 342.339 186.969 341.969L186.959 341.949Z" fill="#333333"/>
<path d="M327.11 67.469L333.76 65.359L327.11 63.089C325.12 62.569 323.59 60.959 323.17 58.949L321.06 48.959L318.79 58.739C318.31 60.799 316.68 62.399 314.61 62.839L308.34 64.999L314.39 67.129C316.51 67.619 318.13 69.329 318.52 71.469L320.27 81.139L322.82 71.459C323.36 69.409 325.03 67.859 327.12 67.489L327.11 67.469Z" fill="#333333"/>
<path d="M99.9098 29.6407C90.2898 29.6607 82.0098 34.9807 77.5498 42.7707C73.0598 35.0007 64.7498 29.7207 55.1298 29.7507C40.8098 29.7807 29.2298 41.4207 29.2598 55.7307C29.2898 70.0507 50.2498 88.9707 77.7198 119.261C103.58 91.5107 125.92 69.8307 125.89 55.5107C125.86 41.1907 114.22 29.6107 99.8998 29.6407H99.9098Z" fill="#5669FF"/>
<path d="M76.45 94.2605H76.44C76.04 94.2605 75.71 93.9705 75.62 93.5905L67 52.8105L61.84 85.1705C61.77 85.5905 61.41 85.9005 60.99 85.8905L24.59 85.2205C24.12 85.2205 23.75 84.8205 23.76 84.3605C23.76 83.9005 24.15 83.5305 24.61 83.5305H24.63L60.3 84.1905L66.07 48.0305C66.13 47.6305 66.48 47.3305 66.89 47.3105C67.28 47.3305 67.66 47.5805 67.74 47.9805L76.54 89.6105L83.15 62.7205C83.24 62.3505 83.57 62.0805 83.96 62.0705C84.34 62.0605 84.68 62.3105 84.79 62.6805L90.05 80.6805L128.14 81.3805C128.61 81.3805 128.98 81.7805 128.97 82.2405C128.97 82.7105 128.59 83.1205 128.11 83.0705L89.39 82.3605C89.02 82.3605 88.7 82.1105 88.59 81.7505L84.04 66.1805L77.29 93.6105C77.2 93.9905 76.86 94.2605 76.47 94.2605H76.45Z" fill="#2B2B2B"/>
</svg>
