<svg width="364" height="387" viewBox="0 0 364 387" fill="none" xmlns="http://www.w3.org/2000/svg">
<path d="M332.89 62.5607C339.41 73.1607 344.04 85.0607 347.35 97.1007C360.77 145.811 349.28 189.841 312.81 224.861C292.52 244.351 269.83 260.911 250.05 280.981C233.25 298.031 219.07 321.451 195.03 329.111C175.11 335.461 153.62 328.941 133.74 322.441C115.76 316.561 97.7803 310.681 79.7903 304.801C72.5103 302.421 65.1803 300.021 58.5403 296.211C47.2903 289.751 38.6303 279.601 31.1503 269.001C3.67027 230.021 -9.32974 181.011 7.53026 135.071C15.7803 112.591 29.1603 83.9607 49.3703 69.9107C68.5203 56.6007 93.3803 54.5607 116.01 54.5307C142.88 54.5007 171.09 56.4607 195.24 44.6907C216.8 34.1907 233.1 23.0607 258.22 22.7407C279.92 22.4607 302 29.3107 318.08 44.2607C323.87 49.6507 328.76 55.8507 332.89 62.5607Z" fill="#4257FF"/>
<path d="M260.73 78.9099L271.41 75.5199L260.72 71.8699C257.52 71.0299 255.08 68.4599 254.39 65.2199L251 49.1699L247.36 64.8699C246.59 68.1799 243.98 70.7499 240.65 71.4499L230.59 74.9099L240.3 78.3299C243.7 79.1199 246.31 81.8599 246.93 85.2899L249.74 100.81L253.83 85.2699C254.69 81.9799 257.39 79.4999 260.73 78.8899V78.9099Z" fill="white"/>
<path d="M35.2702 199.83L42.3702 197.58L35.2702 195.16C33.1502 194.6 31.5202 192.89 31.0602 190.74L28.8102 180.08L26.3902 190.51C25.8802 192.71 24.1402 194.41 21.9302 194.88L15.2402 197.18L21.6902 199.46C23.9502 199.98 25.6802 201.8 26.0902 204.09L27.9502 214.41L30.6702 204.08C31.2402 201.9 33.0302 200.24 35.2602 199.84L35.2702 199.83Z" fill="white"/>
<path d="M351.76 222.69L358.08 220.68L351.76 218.52C349.87 218.02 348.42 216.5 348.02 214.59L346.01 205.1L343.86 214.39C343.41 216.35 341.86 217.87 339.89 218.28L333.94 220.33L339.68 222.36C341.69 222.83 343.23 224.45 343.6 226.48L345.26 235.66L347.68 226.47C348.19 224.53 349.78 223.05 351.76 222.7V222.69Z" fill="#333333"/>
<path d="M74.2005 71.2297L83.3805 68.3097L74.2005 65.1797C71.4505 64.4597 69.3505 62.2497 68.7605 59.4697L65.8505 45.6797L62.7205 59.1697C62.0605 62.0097 59.8105 64.2197 56.9605 64.8197L48.3105 67.7897L56.6505 70.7297C59.5705 71.4097 61.8105 73.7597 62.3505 76.7097L64.7605 90.0497L68.2705 76.6997C69.0105 73.8797 71.3305 71.7397 74.2005 71.2197V71.2297Z" fill="#333333"/>
<path d="M294.63 228.14C294.63 228.14 278.25 244.64 272.25 249.14C266.24 253.64 251.08 251.54 251.08 251.54C251.08 251.54 246.46 272.02 245.7 276.52C245.06 280.41 248.9 291.59 244.87 298.18C230.34 273.67 225.84 239.01 225.84 239.01L257.09 204.5L291.48 222.87C293.48 226.14 294.61 228.14 294.61 228.14H294.63Z" fill="white"/>
<path d="M244.88 298.61C244.71 298.63 244.59 298.53 244.51 298.4C230.1 274.09 225.47 239.41 225.43 239.07C225.41 238.95 225.45 238.82 225.54 238.73L256.83 204.22C256.96 204.08 257.17 204.04 257.34 204.13L291.76 222.5C291.84 222.54 291.9 222.6 291.93 222.67C294.47 225.93 295.04 227.94 295.06 228.02C295.1 228.17 295.06 228.32 294.95 228.43C294.79 228.59 278.46 245 272.51 249.47C269.87 251.45 265.31 252.45 258.94 252.45C255.45 252.45 252.45 252.13 251.41 252.01C250.78 254.82 246.81 272.49 246.12 276.59C245.92 277.8 246.19 279.84 246.5 282.19C247.15 287.1 248.03 293.83 245.23 298.4C245.15 298.53 245.02 298.6 244.87 298.6L244.88 298.61ZM226.3 239.15C226.69 241.95 231.4 274.16 244.87 297.33C247.07 293.03 246.26 286.87 245.66 282.31C245.34 279.88 245.07 277.79 245.29 276.45C246.04 271.99 250.63 251.65 250.67 251.44C250.72 251.22 250.93 251.08 251.14 251.11C251.18 251.11 254.69 251.59 258.94 251.59C263.19 251.59 268.91 251.1 272 248.78C277.56 244.61 292.33 229.84 294.16 228.01C293.94 227.41 293.19 225.68 291.25 223.18L257.21 205.01L226.28 239.13L226.3 239.15Z" fill="#42210B"/>
<path d="M241.12 255.9C241.12 255.9 262.5 264.15 275.44 246.15L249.18 241.27L241.11 255.9H241.12Z" fill="#382621"/>
<path d="M78.3103 190.5L78.8303 189.81C76.1103 187.74 73.1503 186.38 70.2903 185.07C64.9103 182.6 59.8403 180.26 57.5003 173.58C55.0503 166.56 55.4703 156.6 62.1803 151.31C63.1703 150.53 64.2903 149.8 65.3803 149.1C68.6203 147 71.9703 144.82 73.0503 140.8C74.0903 136.94 72.2103 133.29 70.3903 129.75C69.6303 128.27 68.8403 126.74 68.2803 125.22C65.2503 116.96 69.2703 106.64 77.4303 101.73C81.9903 98.9902 87.0303 98.1202 91.9103 97.2802C95.6803 96.6302 99.5803 95.9602 103.29 94.4302C111.68 90.9702 112.89 83.8902 114.18 76.3902C114.35 75.4102 114.52 74.4302 114.7 73.4302C116.19 65.5002 117.33 57.3902 118.08 49.3202L117.22 49.2402C116.47 57.2802 115.34 65.3602 113.85 73.2702C113.66 74.2702 113.49 75.2602 113.33 76.2402C112.04 83.8102 110.92 90.3502 102.96 93.6302C99.3503 95.1202 95.4903 95.7802 91.7603 96.4302C86.8003 97.2802 81.6803 98.1602 76.9803 100.99C68.4803 106.11 64.3003 116.88 67.4703 125.52C68.0403 127.09 68.8403 128.64 69.6203 130.15C71.4503 133.7 73.1703 137.05 72.2203 140.58C71.2203 144.28 68.0103 146.37 64.9103 148.38C63.8103 149.1 62.6703 149.84 61.6503 150.64C54.5703 156.22 54.0503 166.32 56.6803 173.87C59.1303 180.9 64.3803 183.31 69.9203 185.86C72.7403 187.16 75.6503 188.5 78.3003 190.51L78.3103 190.5Z" fill="#382621"/>
<path d="M166.28 13.4102C166.28 13.4102 129.97 13.5802 117.98 44.0602C105.99 74.5402 122.98 99.0202 107.99 104.02C93.0005 109.02 88.5005 107.52 77.5105 118.01C66.5205 128.5 91.5005 142.99 76.0105 150.99C60.5205 158.98 61.5205 178.97 72.0105 184.97C82.5005 190.97 201.921 170.48 201.921 170.48C201.921 170.48 189.761 170.56 201.251 163.57C212.741 156.57 234.23 148.08 229.73 139.59C225.23 131.1 202.251 128.35 215.741 114.86C226.181 104.42 218.741 80.1302 214.241 70.1402C209.741 60.1502 235.811 23.2502 166.271 13.4302L166.28 13.4102Z" fill="#333333"/>
<path d="M294.631 228.14C294.631 228.14 278.251 244.64 272.251 249.14C266.241 253.64 251.081 251.54 251.081 251.54C251.081 251.54 246.461 272.02 245.701 276.52C245.061 280.41 248.901 291.59 244.871 298.18C244.241 299.21 241.641 313.59 240.571 314.35L127.571 302.78C127.571 302.78 120.071 298.27 118.191 289.64C116.321 281.01 114.071 255.88 114.071 255.88L108.821 269.76C108.821 269.76 93.8205 274.64 78.4305 266.39C63.0505 258.13 55.9205 246.5 47.3005 240.88C38.6705 235.25 40.9205 229.25 40.9205 229.25C40.9205 229.25 42.0405 230.38 54.8005 211.24C67.5505 192.1 78.8005 161.35 85.9305 156.09C93.0605 150.85 118.571 145.21 124.571 141.84C130.571 138.46 133.201 132.08 143.711 132.46C154.211 132.84 185.341 131.33 185.341 131.33C189.841 131.96 197.351 132.7 200.971 136.71C204.601 140.71 220.351 145.09 231.111 146.59C241.861 148.1 254.111 160.23 261.231 169.97C266.911 177.74 285.491 210.06 291.491 222.86C292.491 226.13 294.621 228.13 294.621 228.13L294.631 228.14Z" fill="#A1C3FF"/>
<path d="M240.8 315.24L240.48 315.21L127.3 303.62L127.14 303.52C126.82 303.33 119.3 298.72 117.37 289.83C115.92 283.14 114.27 266.93 113.57 259.62L109.47 270.45L109.08 270.58C108.89 270.64 104.47 272.05 97.9305 272.05C90.7905 272.05 84.1005 270.4 78.0305 267.15C68.5905 262.08 62.3105 255.84 56.7705 250.34C53.2205 246.81 50.1505 243.76 46.8305 241.6C37.7405 235.66 40.0205 229.23 40.1205 228.96L40.5805 227.72L41.0905 228.23C42.0005 227.48 45.0805 224.28 54.0905 210.78C59.9405 202 65.5305 190.64 70.4705 180.62C76.3505 168.68 81.4205 158.37 85.4305 155.42C89.7205 152.26 100.23 149.05 109.5 146.21C115.8 144.28 121.75 142.47 124.15 141.11C125.9 140.13 127.33 138.89 128.85 137.58C132.4 134.52 136.07 131.35 143.73 131.63C144.84 131.67 146.24 131.69 147.9 131.69C160.57 131.69 185.05 130.51 185.3 130.5H185.38L186.48 130.65C191.08 131.27 198.03 132.22 201.61 136.16C204.86 139.75 219.93 144.19 231.23 145.77C242.06 147.29 254.09 159.02 261.74 169.49C267.57 177.46 286.17 210.17 291.91 222.52L291.94 222.59C293.55 225.67 295.09 227.59 295.11 227.61L295.59 228.2L295.06 228.74C294.39 229.42 278.66 245.34 272.68 249.82C269.97 251.85 265.32 252.88 258.88 252.88C255.7 252.88 252.99 252.62 251.71 252.48C250.88 256.21 247.19 272.73 246.53 276.67C246.34 277.81 246.61 279.83 246.91 282.15C247.57 287.12 248.47 293.94 245.59 298.63C245.38 299.05 244.76 301.84 244.21 304.31C242.38 312.52 241.8 314.53 241.06 315.05L240.8 315.24ZM127.86 301.97L240.14 313.46C240.74 312.07 241.86 307.05 242.55 303.94C243.46 299.83 243.84 298.23 244.14 297.75C246.7 293.57 245.84 287.1 245.22 282.38C244.9 279.92 244.61 277.79 244.84 276.4C245.59 271.92 250.01 252.21 250.2 251.37L250.37 250.61L251.14 250.72C251.14 250.72 254.66 251.2 258.86 251.2C264.84 251.2 269.26 250.26 271.64 248.48C276.92 244.52 290.49 230.93 293.31 228.08C292.7 227.24 291.56 225.57 290.37 223.29L290.27 223.08C284.47 210.66 266.11 178.38 260.35 170.5C253.25 160.77 241.29 148.9 230.98 147.46C220.69 146.03 204.31 141.7 200.33 137.31C197.17 133.83 190.59 132.93 186.23 132.34L185.28 132.21C183.73 132.28 160.23 133.4 147.88 133.4C146.2 133.4 144.78 133.38 143.65 133.34C136.66 133.1 133.4 135.9 129.94 138.88C128.42 140.19 126.85 141.54 124.96 142.61C122.39 144.05 116.64 145.81 109.97 147.85C100.83 150.65 90.4605 153.82 86.4105 156.8C82.7405 159.51 77.7505 169.65 71.9705 181.38C67.0105 191.45 61.4005 202.86 55.4805 211.73C45.9305 226.04 42.7805 229.22 41.5905 229.93C41.3105 231.23 40.9305 235.74 47.7305 240.19C51.1905 242.45 54.3205 245.55 57.9405 249.15C63.4005 254.57 69.5805 260.71 78.8005 265.67C84.6205 268.79 91.0505 270.37 97.9005 270.37C103.09 270.37 106.96 269.42 108.14 269.09L114.55 252.14L114.88 255.82C114.9 256.07 117.15 281 118.99 289.48C120.62 296.99 126.78 301.29 127.82 301.97H127.86Z" fill="#333333"/>
<path d="M136.301 137.08C136.301 137.08 135.171 136.7 136.671 135.38C138.171 134.07 184.691 132.57 189.381 133.32C194.071 134.07 194.011 137.33 194.011 137.33L136.301 137.08Z" fill="#382621"/>
<path d="M194.82 74.4401C194.82 74.4401 202.58 66.5201 209.09 68.8601C215.61 71.2001 216.48 85.2501 209.48 87.9901C202.47 90.7201 194.07 85.2401 194.07 85.2401L194.83 74.4501L194.82 74.4401Z" fill="white"/>
<path d="M205.201 89.6001C199.271 89.6001 193.831 86.0901 193.601 85.9401C193.341 85.7701 193.201 85.4801 193.221 85.1701L193.981 74.3801C193.991 74.1801 194.081 73.9901 194.221 73.8501C194.471 73.5901 200.431 67.5801 206.541 67.5801C207.541 67.5801 208.491 67.7401 209.391 68.0601C213.341 69.4801 215.171 74.4001 215.221 78.6401C215.271 82.5001 213.871 87.1901 209.791 88.7801C208.391 89.3201 206.851 89.6001 205.201 89.6001ZM194.951 84.7801C196.301 85.5701 200.671 87.9101 205.201 87.9101C206.641 87.9101 207.971 87.6701 209.171 87.2101C212.441 85.9301 213.561 81.9601 213.521 78.6801C213.461 74.3501 211.521 70.6501 208.811 69.6801C208.101 69.4301 207.341 69.3001 206.541 69.3001C201.741 69.3001 196.741 73.8001 195.651 74.8501L194.951 84.8001V84.7801Z" fill="#333333"/>
<path d="M204.14 108.8C198.96 108.8 194.73 104.58 194.73 99.3902C194.73 94.2002 198.95 89.9902 204.14 89.9902C209.33 89.9902 213.54 94.2102 213.54 99.3902C213.54 104.57 209.32 108.8 204.14 108.8ZM204.14 92.0002C200.06 92.0002 196.74 95.3202 196.74 99.4002C196.74 103.48 200.06 106.8 204.14 106.8C208.22 106.8 211.54 103.48 211.54 99.4002C211.54 95.3202 208.22 92.0002 204.14 92.0002Z" fill="white"/>
<path d="M186.15 131.811C184.8 131.041 184.26 120.001 184.06 113.451C204.9 107.771 205.25 89.6712 205.1 67.5412C205.09 66.7012 205.09 65.8912 205.07 65.0912C202.55 56.9212 191.66 49.4712 188.57 48.0212C185.06 46.3612 177.62 36.8612 177.62 36.8612C177.41 44.5712 189.14 53.4712 189.59 53.8012C189.35 53.7212 185.35 52.2512 181.54 48.8512C177.62 45.3412 174.51 36.4512 174.51 36.4512C175.35 48.2312 140.66 69.8112 138.8 76.6312C138.8 76.6312 136.19 73.1012 133.64 67.6212C131.12 66.2512 128.26 65.4212 125.44 66.1412C117.56 68.1712 115 84.5212 122.9 88.4812C129.68 91.8812 138.3 88.3212 140.62 87.2412C141.8 90.7712 143.39 94.1612 145.37 97.2912C146.01 106.861 147.25 127.591 146.19 129.071C144.81 131.001 136.29 137.101 136.29 137.101C136.29 137.101 186.89 207.721 188.9 205.461C207.47 184.641 194 137.351 194 137.351C194 137.351 188.06 132.931 186.13 131.831L186.15 131.811Z" fill="white"/>
<path d="M188.78 206.341C187.87 206.341 186.19 206.341 160.56 171.791C148.01 154.881 135.73 137.741 135.61 137.571C135.48 137.391 135.43 137.161 135.46 136.941C135.5 136.721 135.62 136.521 135.8 136.391C138.14 134.721 144.44 130.051 145.5 128.561C145.95 127.571 145.95 118.861 144.53 97.5507C142.76 94.7207 141.27 91.6407 140.11 88.3807C137.93 89.3107 133.82 90.7607 129.46 90.7607C126.87 90.7607 124.53 90.2507 122.51 89.2307C117.97 86.9607 116.87 81.3807 117.34 76.9207C117.86 72.0107 120.5 66.5207 125.21 65.3107C127.9 64.6207 130.89 65.1507 134.03 66.8607C134.19 66.9507 134.32 67.0807 134.39 67.2507C136.03 70.7607 137.7 73.4707 138.65 74.9307C140.5 71.9807 145.45 67.7507 151.47 62.6007C161.56 53.9707 174.12 43.2307 173.64 36.5007C173.61 36.0807 173.9 35.7007 174.32 35.6107C174.74 35.5207 175.15 35.7607 175.29 36.1607C175.32 36.2507 178.37 44.8907 182.08 48.2107C182.4 48.5007 182.73 48.7707 183.05 49.0307C179.86 45.6307 176.62 41.1007 176.74 36.8307C176.74 36.4707 176.98 36.1607 177.32 36.0507C177.66 35.9407 178.03 36.0507 178.25 36.3307C180.28 38.9307 186.16 45.9607 188.89 47.2507C191.86 48.6407 203.2 56.2607 205.84 64.8407C205.86 64.9107 205.88 64.9907 205.88 65.0707C205.89 65.6207 205.9 66.1707 205.9 66.7307V67.5307C206.05 88.2907 206.18 107.901 184.89 114.091C185.26 125.481 186.03 130.361 186.59 131.111C188.59 132.271 194.24 136.471 194.48 136.651C194.63 136.761 194.74 136.921 194.79 137.101C195.34 139.051 208.17 185.081 189.5 206.011C189.31 206.231 189.03 206.351 188.74 206.351L188.78 206.341ZM137.48 137.271C156.09 163.221 184.18 201.321 188.61 204.481C205.45 184.871 194.31 141.701 193.27 137.831C192.15 137.001 187.37 133.481 185.72 132.541C185.08 132.181 183.75 131.421 183.2 113.471C183.19 113.081 183.45 112.731 183.83 112.621C204.51 106.991 204.39 88.7007 204.24 67.5407V66.7407C204.23 66.2307 204.22 65.7207 204.21 65.2207C201.71 57.3507 190.89 50.0407 188.2 48.7807C185.69 47.5907 181.46 42.8407 178.96 39.8507C181.17 46.3707 189.98 53.0207 190.08 53.1007C190.42 53.3507 190.53 53.8007 190.34 54.1707C190.15 54.5407 189.72 54.7207 189.32 54.5907C189.28 54.5807 185.05 53.1107 180.98 49.4707C178.38 47.1407 176.16 42.6607 174.89 39.6807C172.51 46.8607 162.02 55.8407 152.61 63.8907C146.28 69.3007 140.3 74.4207 139.64 76.8407C139.55 77.1507 139.3 77.3907 138.98 77.4507C138.66 77.5107 138.33 77.3807 138.14 77.1207C138.03 76.9707 135.53 73.5607 133.01 68.2207C130.35 66.8207 127.87 66.3907 125.67 66.9507C122.33 67.8107 119.61 71.9807 119.06 77.1007C118.64 81.0007 119.54 85.8307 123.3 87.7207C125.08 88.6107 127.16 89.0707 129.49 89.0707C134.18 89.0707 138.6 87.2507 140.28 86.4707C140.5 86.3707 140.75 86.3707 140.97 86.4707C141.19 86.5707 141.36 86.7507 141.44 86.9807C142.62 90.5007 144.19 93.8207 146.1 96.8407C146.18 96.9607 146.22 97.1007 146.23 97.2407C148.25 127.671 147.27 129.051 146.9 129.571C145.67 131.291 139.65 135.731 137.49 137.301L137.48 137.271Z" fill="#333333"/>
<path d="M164.7 73.3197C164.72 71.1797 163.79 69.4397 162.63 69.4297C161.47 69.4297 160.51 71.1497 160.5 73.2797C160.48 75.4197 161.41 77.1597 162.57 77.1697C163.73 77.1697 164.69 75.4497 164.7 73.3197Z" fill="#333333"/>
<path d="M193.901 73.3197C193.921 71.1797 192.991 69.4397 191.831 69.4297C190.671 69.4297 189.711 71.1497 189.701 73.2797C189.681 75.4197 190.611 77.1597 191.771 77.1697C192.931 77.1697 193.891 75.4497 193.901 73.3197Z" fill="#333333"/>
<path d="M132.09 106.98C126.91 106.98 122.69 102.76 122.69 97.5702C122.69 92.3802 126.91 88.1602 132.09 88.1602C137.27 88.1602 141.5 92.3802 141.5 97.5702C141.5 102.76 137.28 106.98 132.09 106.98ZM132.09 90.1702C128.01 90.1702 124.69 93.4902 124.69 97.5702C124.69 101.65 128.01 104.97 132.09 104.97C136.17 104.97 139.49 101.65 139.49 97.5702C139.49 93.4902 136.17 90.1702 132.09 90.1702Z" fill="white"/>
<path d="M44.8005 236.391C42.6705 234.011 41.3005 231.261 43.6705 229.761C46.0505 228.261 85.5605 242.391 106.32 265.901C106.32 265.901 107.7 270.651 95.3205 265.771C82.9405 260.891 44.8005 236.381 44.8005 236.381V236.391Z" fill="#333333"/>
<path d="M199.6 301.76C199.48 301.76 199.37 301.74 199.26 301.69C198.83 301.5 198.64 301 198.83 300.57C204.13 288.64 198.96 274.72 196.18 267.23C195.9 266.47 195.64 265.78 195.43 265.18C194.05 261.27 195.17 255.38 196.47 248.55C197.39 243.7 198.44 238.21 198.75 232.59C199.44 220.22 191.26 209.27 190.38 208.13L142.48 175.94C142.25 175.78 142.1 175.52 142.1 175.24V157.35L119.27 144.46C118.86 144.23 118.72 143.71 118.95 143.3C119.18 142.89 119.7 142.75 120.11 142.98L143.37 156.11C143.64 156.26 143.8 156.54 143.8 156.85V174.78L191.44 206.79C191.51 206.84 191.57 206.9 191.63 206.96C192.02 207.45 201.2 219 200.45 232.67C200.13 238.4 199.07 243.96 198.14 248.86C196.88 255.44 195.8 261.12 197.03 264.6C197.24 265.19 197.49 265.87 197.77 266.62C200.43 273.78 205.96 288.68 200.38 301.24C200.24 301.56 199.93 301.74 199.6 301.74V301.76Z" fill="#333333"/>
<path d="M190.971 208.35C190.711 208.35 190.461 208.23 190.291 208.01C190.011 207.64 190.081 207.1 190.461 206.82C205.101 195.75 208.641 169.48 208.981 166.64L201.601 152.36C201.451 152.07 201.481 151.71 201.681 151.45L209.681 141.2C209.971 140.83 210.501 140.77 210.871 141.05C211.241 141.34 211.311 141.87 211.021 142.24L203.351 152.07L210.601 166.09C210.681 166.24 210.711 166.4 210.691 166.57C210.571 167.77 207.471 196.09 191.481 208.17C191.331 208.29 191.151 208.34 190.971 208.34V208.35Z" fill="#333333"/>
<path d="M251.151 252.39C251.061 252.39 250.981 252.38 250.891 252.35C250.441 252.21 250.201 251.73 250.341 251.28C253.461 241.65 255.861 228.41 249.561 220.01C242.741 210.92 241.921 201.94 241.891 201.57C241.851 201.1 242.201 200.69 242.661 200.65C243.141 200.61 243.541 200.96 243.581 201.42C243.581 201.51 244.401 210.3 250.921 218.99C257.651 227.97 255.201 241.79 251.951 251.8C251.831 252.16 251.501 252.39 251.141 252.39H251.151Z" fill="#333333"/>
<path d="M114.07 256.741C113.95 256.741 113.82 256.711 113.7 256.661C113.28 256.461 113.1 255.951 113.3 255.531L122.68 236.021C122.88 235.601 123.39 235.421 123.81 235.621C124.23 235.821 124.41 236.331 124.21 236.751L114.83 256.261C114.68 256.561 114.38 256.741 114.06 256.741H114.07Z" fill="#333333"/>
<path d="M138.83 265.37C138.39 265.37 138.02 265.04 137.99 264.59C137.95 264.12 138.3 263.71 138.76 263.67C164.08 261.47 180.18 249.7 180.34 249.58C180.72 249.3 181.25 249.38 181.53 249.75C181.81 250.13 181.73 250.66 181.36 250.94C181.2 251.06 164.74 263.11 138.91 265.36C138.89 265.36 138.86 265.36 138.84 265.36L138.83 265.37Z" fill="#333333"/>
<path d="M87.0599 221.109C86.6899 221.109 86.34 220.859 86.24 220.479L78.01 190.039C77.89 189.589 78.16 189.119 78.61 188.999C79.06 188.879 79.53 189.149 79.65 189.599L87.8799 220.039C87.9999 220.489 87.73 220.959 87.28 221.079C87.21 221.099 87.1299 221.109 87.0599 221.109Z" fill="#333333"/>
<path d="M82.5603 216.61C82.1703 216.61 81.8203 216.34 81.7303 215.95L77.6003 197.94C77.5003 197.48 77.7803 197.03 78.2403 196.92C78.6903 196.81 79.1503 197.1 79.2603 197.56L83.3903 215.57C83.4903 216.03 83.2103 216.48 82.7503 216.59C82.6903 216.6 82.6203 216.61 82.5603 216.61Z" fill="#333333"/>
<path d="M190.66 223.98C188.71 223.98 187.12 222.23 187.12 220.07C187.12 217.91 188.71 216.16 190.66 216.16C192.61 216.16 194.2 217.91 194.2 220.07C194.2 222.23 192.61 223.98 190.66 223.98ZM190.66 217.85C189.65 217.85 188.82 218.84 188.82 220.06C188.82 221.28 189.65 222.27 190.66 222.27C191.67 222.27 192.5 221.28 192.5 220.06C192.5 218.84 191.67 217.85 190.66 217.85Z" fill="#333333"/>
<path d="M192.471 248.05C190.521 248.05 188.931 246.3 188.931 244.14C188.931 241.98 190.521 240.23 192.471 240.23C194.421 240.23 196.011 241.98 196.011 244.14C196.011 246.3 194.421 248.05 192.471 248.05ZM192.471 241.92C191.461 241.92 190.631 242.91 190.631 244.13C190.631 245.35 191.461 246.34 192.471 246.34C193.481 246.34 194.311 245.35 194.311 244.13C194.311 242.91 193.481 241.92 192.471 241.92Z" fill="#333333"/>
<path d="M194.971 298.57C193.021 298.57 191.431 296.82 191.431 294.66C191.431 292.5 193.021 290.75 194.971 290.75C196.921 290.75 198.511 292.5 198.511 294.66C198.511 296.82 196.921 298.57 194.971 298.57ZM194.971 292.44C193.961 292.44 193.131 293.43 193.131 294.65C193.131 295.87 193.961 296.86 194.971 296.86C195.981 296.86 196.811 295.87 196.811 294.65C196.811 293.43 195.981 292.44 194.971 292.44Z" fill="#333333"/>
<path d="M190.41 275.941C188.46 275.941 186.87 274.191 186.87 272.031C186.87 269.871 188.46 268.121 190.41 268.121C192.36 268.121 193.95 269.871 193.95 272.031C193.95 274.191 192.36 275.941 190.41 275.941ZM190.41 269.811C189.4 269.811 188.57 270.801 188.57 272.021C188.57 273.241 189.4 274.231 190.41 274.231C191.42 274.231 192.25 273.241 192.25 272.021C192.25 270.801 191.42 269.811 190.41 269.811Z" fill="#333333"/>
<path d="M245.37 212.48C245.37 212.48 245.32 212.48 245.3 212.48C244.83 212.44 244.49 212.03 244.52 211.56L245.27 202.56C245.31 202.09 245.72 201.74 246.19 201.79C246.66 201.83 247 202.24 246.97 202.71L246.22 211.71C246.18 212.15 245.81 212.49 245.37 212.49V212.48Z" fill="#333333"/>
<path d="M327.161 179.84C331.231 168.29 337.041 147.88 336.721 140.57C336.421 133.59 314.861 127.61 300.591 124.42C303.171 115.89 306.121 105.8 307.671 98.8904L310.781 85.1604C311.641 81.3504 309.261 77.5804 305.451 76.7204C301.631 75.8404 297.871 78.2504 297.021 82.0604L293.931 95.7904C292.231 103.33 288.701 115.28 285.951 124.25C284.071 126.08 281.331 128.87 278.571 132.11C276.611 124.2 274.411 117.01 272.341 113.75C270.241 110.46 265.881 109.49 262.591 111.59C259.301 113.69 258.331 118.05 260.431 121.34C262.241 124.17 265.431 136.98 268.201 150.52C264.351 167.54 275.031 182.3 275.031 182.3L275.411 246.63C274.241 247.64 273.201 248.5 272.371 249.13C266.361 253.63 251.141 251.53 251.141 251.53C251.141 251.53 246.491 272.01 245.731 276.51C245.091 280.4 248.921 291.58 244.881 298.17C252.581 311.16 263.091 321.1 277.241 321.71C324.081 323.75 327.291 290.99 327.471 253.31L327.151 179.82L327.161 179.84Z" fill="white"/>
<path d="M281.311 322.711C279.981 322.711 278.611 322.661 277.221 322.601C264.391 322.051 253.271 313.971 244.171 298.631C244.011 298.361 244.011 298.021 244.171 297.751C246.731 293.571 245.891 287.091 245.271 282.371C244.951 279.911 244.671 277.791 244.901 276.391C245.651 271.911 250.131 252.191 250.321 251.361C250.421 250.931 250.831 250.641 251.261 250.711C251.301 250.711 254.801 251.191 259.031 251.191C265.051 251.191 269.491 250.251 271.871 248.471C272.571 247.941 273.481 247.201 274.571 246.261L274.201 182.591C272.821 180.591 263.771 166.711 267.341 150.531C264.271 135.511 261.281 124.251 259.721 121.811C257.381 118.131 258.471 113.231 262.141 110.891C263.411 110.081 264.881 109.651 266.381 109.651C269.101 109.651 271.601 111.021 273.061 113.311C274.821 116.081 276.821 121.801 279.001 130.341C281.361 127.661 283.611 125.371 285.211 123.811C287.891 115.051 291.421 103.131 293.111 95.6209L296.201 81.8909C297.021 78.2509 300.171 75.7109 303.871 75.7109C304.461 75.7109 305.061 75.7809 305.651 75.9109C309.891 76.8709 312.571 81.1109 311.611 85.3609L308.501 99.1009C306.911 106.151 303.901 116.391 301.671 123.821C325.241 129.161 337.321 134.791 337.571 140.561C337.891 148.021 332.081 168.451 328.011 180.011L328.331 253.371C328.141 291.311 324.471 322.741 281.301 322.741L281.311 322.711ZM245.881 298.181C254.621 312.721 265.181 320.231 277.291 320.751C278.651 320.811 280.001 320.711 281.311 320.711C300.791 320.711 312.981 314.471 319.681 300.781C325.941 288.001 326.551 270.321 326.631 253.251L326.311 179.801C326.311 179.701 326.331 179.621 326.361 179.531C330.541 167.671 336.181 147.541 335.871 140.591C335.661 135.831 322.741 130.231 300.411 125.241C300.181 125.191 299.981 125.051 299.861 124.841C299.741 124.641 299.711 124.391 299.781 124.171C302.031 116.721 305.211 105.981 306.851 98.7009L309.961 84.9609C310.711 81.6209 308.611 78.2909 305.271 77.5409C304.811 77.4309 304.341 77.3809 303.871 77.3809C300.971 77.3809 298.491 79.3809 297.851 82.2409L294.761 95.9709C293.041 103.591 289.471 115.691 286.771 124.491C286.731 124.631 286.651 124.751 286.551 124.851C284.741 126.611 282.001 129.391 279.231 132.651C279.021 132.891 278.701 133.001 278.391 132.931C278.081 132.861 277.841 132.621 277.761 132.311C275.471 123.071 273.411 116.981 271.631 114.201C270.481 112.401 268.521 111.331 266.381 111.331C265.201 111.331 264.051 111.671 263.051 112.301C260.161 114.141 259.311 117.991 261.151 120.881C263.171 124.051 266.551 138.181 269.031 150.351C269.051 150.471 269.051 150.591 269.031 150.711C265.301 167.171 275.621 181.661 275.721 181.811C275.821 181.951 275.881 182.131 275.881 182.301L276.261 246.631C276.261 246.881 276.151 247.111 275.971 247.281C274.721 248.371 273.681 249.221 272.881 249.821C270.171 251.851 265.511 252.881 259.021 252.881C255.821 252.881 253.081 252.621 251.791 252.481C250.951 256.211 247.221 272.731 246.561 276.671C246.371 277.811 246.631 279.821 246.941 282.151C247.571 286.971 248.421 293.521 245.871 298.191L245.881 298.181Z" fill="#333333"/>
<path d="M297.27 177.96C297.27 177.96 297.21 177.94 297.19 177.93C296.89 177.81 296.75 177.46 296.87 177.16C305.71 155.65 287.23 145.67 286.43 145.25C286.14 145.1 286.03 144.74 286.18 144.45C286.33 144.16 286.7 144.05 286.97 144.2C287.17 144.31 307.2 155.08 297.95 177.6C297.84 177.87 297.54 178.02 297.27 177.95V177.96Z" fill="#333333"/>
<path d="M327.96 143.39C327.9 143.39 327.85 143.37 327.79 143.35C327.53 143.25 301.69 132.95 292.02 130.13C291.71 130.04 291.53 129.71 291.62 129.4C291.71 129.09 292.03 128.91 292.35 129C302.07 131.84 327.96 142.16 328.22 142.26C328.52 142.38 328.67 142.72 328.55 143.02C328.45 143.27 328.21 143.41 327.96 143.39Z" fill="#333333"/>
<path d="M311.691 115.631C314.591 116.621 316.581 118.951 317.161 121.521C319.101 120.041 321.881 119.541 324.611 120.481C327.691 121.541 329.811 124.091 330.231 126.841C330.291 127.231 330.291 127.631 330.281 128.031C332.021 126.491 334.681 125.931 337.281 126.821C340.041 127.771 341.941 130.061 342.321 132.521C342.451 133.391 342.401 134.281 342.121 135.141L336.201 153.741C335.141 157.061 331.271 158.711 327.541 157.431C324.921 156.531 323.101 154.421 322.601 152.101C320.841 154.691 317.251 155.821 313.751 154.621C310.861 153.631 308.841 151.311 308.261 148.751C306.321 150.221 303.551 150.711 300.831 149.781C297.681 148.701 295.651 146.041 295.311 143.211C296.731 134.001 299.231 127.461 303.141 115.801C304.801 115.191 309.771 114.971 311.691 115.631Z" fill="white"/>
<path d="M330.1 158.721C329.15 158.721 328.2 158.561 327.27 158.241C325 157.461 323.19 155.821 322.27 153.791C320.8 155.171 318.77 155.951 316.57 155.951C315.53 155.951 314.48 155.771 313.47 155.431C310.81 154.521 308.71 152.521 307.77 150.071C305.67 151.211 302.99 151.421 300.54 150.581C297.24 149.451 294.85 146.591 294.45 143.311C294.45 143.231 294.45 143.161 294.45 143.081C295.68 135.111 297.69 129.191 300.73 120.231C301.23 118.751 301.76 117.191 302.32 115.531C302.4 115.281 302.59 115.091 302.83 115.001C304.01 114.571 306.31 114.381 308.06 114.381C309.24 114.381 310.87 114.461 311.95 114.831C314.6 115.741 316.69 117.741 317.63 120.201C319.74 119.051 322.42 118.841 324.87 119.681C328.07 120.781 330.45 123.431 331.01 126.481C332.9 125.451 335.32 125.271 337.53 126.031C340.5 127.051 342.7 129.551 343.13 132.411C343.29 133.431 343.21 134.441 342.9 135.411L336.98 154.011C336.08 156.831 333.3 158.731 330.06 158.731L330.1 158.721ZM322.61 151.261C322.66 151.261 322.72 151.261 322.77 151.281C323.1 151.341 323.37 151.601 323.44 151.931C323.9 154.071 325.58 155.871 327.83 156.641C328.58 156.901 329.34 157.031 330.11 157.031C332.65 157.031 334.73 155.641 335.41 153.501L341.33 134.901C341.56 134.181 341.61 133.431 341.5 132.671C341.16 130.431 339.4 128.461 337.02 127.641C334.82 126.891 332.41 127.301 330.86 128.681C330.61 128.911 330.24 128.961 329.94 128.811C329.63 128.671 329.44 128.351 329.45 128.021C329.46 127.681 329.46 127.321 329.41 126.981C329.02 124.451 327.04 122.211 324.35 121.291C322.02 120.491 319.45 120.851 317.69 122.201C317.46 122.381 317.16 122.421 316.88 122.321C316.61 122.221 316.41 121.991 316.34 121.711C315.8 119.311 313.91 117.291 311.42 116.441C310.76 116.211 309.55 116.081 308.08 116.081C306.45 116.081 304.76 116.251 303.8 116.491C303.29 118.001 302.81 119.421 302.35 120.781C299.35 129.611 297.37 135.461 296.16 143.221C296.52 145.821 298.45 148.071 301.1 148.981C303.42 149.781 305.98 149.421 307.74 148.081C307.97 147.901 308.27 147.861 308.54 147.961C308.81 148.061 309.01 148.291 309.08 148.571C309.62 150.951 311.52 152.971 314.02 153.831C314.86 154.121 315.72 154.261 316.57 154.261C318.78 154.261 320.78 153.281 321.9 151.631C322.06 151.391 322.32 151.261 322.6 151.261H322.61Z" fill="#333333"/>
<path d="M308.52 148.93C308.45 149.02 308.321 149.06 308.201 149.02C308.041 148.97 307.94 148.81 307.98 148.67L312.08 133.68C312.12 133.53 312.28 133.46 312.44 133.51C312.6 133.56 312.7 133.72 312.66 133.86L308.56 148.85C308.56 148.85 308.54 148.91 308.52 148.93Z" fill="#251D1B"/>
<path d="M324.921 146.411C324.851 146.501 324.731 146.541 324.601 146.501C324.441 146.451 324.341 146.301 324.371 146.151L328.811 129.101C328.841 128.951 329.011 128.881 329.171 128.921C329.331 128.971 329.431 129.121 329.401 129.271L324.961 146.321C324.961 146.321 324.941 146.381 324.921 146.411Z" fill="#251D1B"/>
<path d="M322.861 152.281C322.801 152.361 322.681 152.411 322.551 152.371C322.391 152.331 322.281 152.181 322.311 152.031L322.801 149.601C322.831 149.451 322.991 149.371 323.151 149.411C323.311 149.451 323.421 149.601 323.391 149.751L322.901 152.181C322.901 152.181 322.881 152.251 322.861 152.281Z" fill="#251D1B"/>
<path d="M307.66 141.831C307.66 141.831 307.66 141.891 307.66 141.911L306.22 147.451C306.2 147.531 306.14 147.601 306.05 147.631C305.92 147.681 302.75 148.771 299.24 147.041C299.08 146.961 299.02 146.781 299.08 146.651C299.15 146.511 299.34 146.461 299.49 146.541C302.34 147.941 305.01 147.311 305.63 147.131L307 141.851C304.37 138.301 299.75 138.371 298.76 138.431L297.49 143.001C297.45 143.151 297.28 143.231 297.11 143.181C296.94 143.131 296.84 142.961 296.88 142.821L298.2 138.081C298.23 137.981 298.32 137.901 298.44 137.891C298.5 137.891 304.45 137.271 307.6 141.701C307.63 141.751 307.65 141.801 307.65 141.851L307.66 141.831Z" fill="#251D1B"/>
<path d="M321.66 146.11C321.66 146.11 321.66 146.17 321.66 146.19L320.22 151.73C320.2 151.81 320.14 151.88 320.05 151.91C319.92 151.96 316.75 153.05 313.24 151.32C313.08 151.24 313.02 151.06 313.08 150.93C313.15 150.79 313.34 150.74 313.49 150.82C316.34 152.22 319.01 151.59 319.63 151.41L321 146.13C318.37 142.58 313.75 142.65 312.76 142.71L311.49 147.28C311.45 147.43 311.28 147.51 311.11 147.46C310.94 147.41 310.84 147.24 310.88 147.1L312.2 142.36C312.23 142.26 312.32 142.18 312.44 142.17C312.5 142.17 318.45 141.55 321.6 145.98C321.63 146.03 321.65 146.08 321.65 146.13L321.66 146.11Z" fill="#251D1B"/>
<path d="M335.72 149.201C335.72 149.201 335.72 149.251 335.72 149.281L334.36 154.521C334.34 154.601 334.28 154.661 334.2 154.691C334.07 154.741 331.07 155.771 327.75 154.131C327.6 154.051 327.54 153.891 327.6 153.761C327.67 153.631 327.84 153.581 327.99 153.661C330.68 154.991 333.22 154.391 333.81 154.221L335.11 149.221C332.62 145.861 328.24 145.921 327.3 145.981L326.1 150.311C326.06 150.451 325.9 150.531 325.74 150.481C325.58 150.431 325.49 150.271 325.52 150.131L326.77 145.641C326.8 145.541 326.88 145.471 326.99 145.461C327.05 145.461 332.68 144.881 335.66 149.061C335.69 149.101 335.71 149.151 335.71 149.201H335.72Z" fill="#251D1B"/>
<path d="M275.63 269.12C275.16 269.12 274.78 268.74 274.78 268.27V243.26C274.78 242.79 275.16 242.41 275.63 242.41C276.1 242.41 276.48 242.79 276.48 243.26V268.27C276.48 268.74 276.1 269.12 275.63 269.12Z" fill="#333333"/>
<path d="M273.07 270.991C211.09 263.341 217.27 297.701 201.53 304.771C152.52 326.781 144.45 365.901 184.19 375.481C254.83 392.511 305.93 361.961 320.81 343.681C334.5 326.861 345.96 279.981 273.07 270.981V270.991ZM235.62 304.931C235.08 307.141 233.39 308.961 231.38 310.031C229.37 311.101 227.06 311.491 224.78 311.581C220.83 311.721 216.68 310.891 213.6 308.411C212.52 307.541 211.54 306.371 211.48 304.991C211.45 304.191 211.73 303.411 212.12 302.711C212.81 301.471 213.85 300.441 215.02 299.641C219.35 296.661 225.08 296.771 230.24 297.771C231.37 297.991 232.52 298.261 233.49 298.891C235.39 300.151 236.17 302.721 235.63 304.931H235.62Z" fill="white"/>
<path d="M225.13 381.321C211.64 381.321 197.8 379.631 184 376.311C168.4 372.551 159.22 364.171 158.15 352.711C156.56 335.581 173.45 316.461 201.18 304.001C205.54 302.041 208.18 297.801 211.23 292.881C217.82 282.261 226.03 269.041 256.55 269.041C261.61 269.041 267.2 269.411 273.17 270.151C311.02 274.821 324.53 289.651 329.2 301.271C335.39 316.661 329.53 334.321 321.47 344.231C311.02 357.061 277.44 381.331 225.12 381.331L225.13 381.321ZM256.55 270.731C226.98 270.731 219.05 283.501 212.67 293.771C209.47 298.921 206.71 303.371 201.88 305.541C174.82 317.701 158.32 336.151 159.84 352.551C160.83 363.231 169.55 371.081 184.39 374.661C198.06 377.951 211.76 379.621 225.12 379.621C273.06 379.621 308.22 357.811 320.15 343.141C327.91 333.611 333.56 316.631 327.62 301.891C321.17 285.841 302.26 275.441 272.96 271.831C267.06 271.101 261.53 270.731 256.54 270.731H256.55ZM223.93 312.441C220.89 312.441 216.53 311.851 213.07 309.071C211.54 307.841 210.7 306.441 210.63 305.021C210.59 304.161 210.84 303.241 211.37 302.291C212.08 301.021 213.14 299.891 214.53 298.931C218.34 296.301 223.66 295.621 230.39 296.931C231.58 297.161 232.84 297.451 233.94 298.181C236.07 299.591 237.09 302.451 236.43 305.141C235.86 307.451 234.16 309.511 231.76 310.791C229.87 311.791 227.59 312.331 224.8 312.431C224.51 312.441 224.21 312.451 223.92 312.451L223.93 312.441ZM224.19 297.981C220.69 297.981 217.77 298.771 215.5 300.331C214.33 301.141 213.44 302.071 212.86 303.121C212.49 303.791 212.31 304.411 212.33 304.951C212.38 306.101 213.34 307.111 214.13 307.751C217.21 310.231 221.16 310.751 223.93 310.751C224.2 310.751 224.48 310.751 224.75 310.741C227.28 310.651 229.32 310.171 230.98 309.291C232.92 308.251 234.35 306.551 234.8 304.741C235.29 302.771 234.54 300.611 233.02 299.611C232.17 299.051 231.1 298.811 230.08 298.611C227.96 298.201 225.98 297.991 224.19 297.991V297.981Z" fill="#333333"/>
<path d="M238.27 280.481C240.38 279.081 242.72 277.761 245.25 277.831C248.87 277.921 251.87 280.771 255.43 281.391C258.75 281.961 262.59 280.631 265.27 282.671C267.46 284.341 267.72 287.791 266.3 290.151C264.88 292.521 262.2 293.881 259.49 294.401C256.78 294.921 254 294.701 251.24 294.591C248.85 294.501 246.09 294.311 244.67 292.381C244.37 291.981 244.15 291.511 243.81 291.151C243.32 290.641 242.64 290.371 241.98 290.121C240.27 289.471 238.5 288.781 237.22 287.471C235.94 286.161 235.28 284.051 236.17 282.451C236.64 281.601 237.46 281.021 238.27 280.481Z" fill="#333333"/>
<path d="M179.51 336.981C181.62 335.581 183.96 334.261 186.49 334.331C190.11 334.421 193.11 337.271 196.67 337.891C199.99 338.461 203.83 337.131 206.51 339.171C208.7 340.841 208.96 344.291 207.54 346.651C206.12 349.021 203.44 350.381 200.73 350.901C198.02 351.421 195.24 351.201 192.48 351.091C190.09 351.001 187.33 350.811 185.91 348.881C185.61 348.481 185.39 348.011 185.05 347.651C184.56 347.141 183.88 346.871 183.22 346.621C181.51 345.971 179.74 345.281 178.46 343.971C177.18 342.661 176.52 340.551 177.41 338.951C177.88 338.101 178.7 337.521 179.51 336.981Z" fill="#333333"/>
<path d="M288.531 286.282C286.951 286.072 285.421 285.562 283.841 285.452C282.261 285.342 280.511 285.722 279.511 286.962C278.371 288.372 278.531 290.392 278.111 292.152C277.661 294.022 276.511 295.642 275.711 297.392C274.911 299.142 274.481 301.282 275.461 302.942C276.541 304.752 278.941 305.332 281.031 305.062C283.121 304.792 285.061 303.872 287.111 303.372C290.991 302.432 295.051 303.032 299.041 302.892C299.841 302.862 300.731 302.762 301.261 302.162C301.651 301.722 301.761 301.092 301.831 300.512C302.161 297.942 302.211 295.272 301.421 292.802C300.631 290.332 298.911 288.062 296.501 287.112C294.011 286.122 291.201 286.632 288.551 286.282H288.531Z" fill="#A1C3FF"/>
<path d="M280.05 305.972C277.68 305.972 275.69 305.002 274.72 303.372C273.74 301.722 273.81 299.472 274.92 297.042C275.2 296.432 275.52 295.832 275.83 295.262C276.43 294.152 277 293.092 277.27 291.952C277.39 291.452 277.46 290.912 277.54 290.352C277.72 288.992 277.91 287.592 278.84 286.432C279.8 285.242 281.39 284.592 283.32 284.592C283.51 284.592 283.7 284.592 283.89 284.612C284.85 284.682 285.78 284.882 286.68 285.072C287.35 285.222 287.99 285.362 288.64 285.442C289.56 285.562 290.49 285.572 291.48 285.592C293.24 285.612 295.07 285.642 296.8 286.322C299.26 287.292 301.29 289.622 302.22 292.552C302.94 294.802 303.08 297.372 302.66 300.622C302.57 301.322 302.43 302.112 301.88 302.732C301.15 303.562 300.04 303.712 299.06 303.742C298.59 303.762 298.12 303.762 297.65 303.762C296.81 303.762 295.96 303.742 295.11 303.722C294.28 303.702 293.45 303.682 292.62 303.682C291.14 303.682 289.2 303.742 287.3 304.202C286.53 304.392 285.78 304.642 284.98 304.902C283.75 305.312 282.48 305.732 281.13 305.902C280.77 305.952 280.41 305.972 280.05 305.972ZM283.32 286.292C282.51 286.292 281.02 286.452 280.16 287.502C279.53 288.282 279.38 289.402 279.22 290.572C279.14 291.162 279.06 291.762 278.92 292.352C278.59 293.702 277.95 294.902 277.32 296.062C277.01 296.642 276.72 297.182 276.46 297.742C275.95 298.852 275.24 300.942 276.17 302.502C276.83 303.612 278.28 304.272 280.04 304.272C280.33 304.272 280.62 304.252 280.9 304.222C282.08 304.072 283.22 303.692 284.43 303.292C285.22 303.032 286.04 302.762 286.88 302.552C288.95 302.052 291.02 301.982 292.6 301.982C293.44 301.982 294.29 302.002 295.13 302.022C295.96 302.042 296.79 302.062 297.62 302.062C298.07 302.062 298.52 302.062 298.97 302.042C299.59 302.022 300.27 301.952 300.58 301.602C300.81 301.342 300.89 300.862 300.95 300.402C301.33 297.402 301.21 295.062 300.57 293.062C299.79 290.622 298.14 288.692 296.14 287.902C294.7 287.332 293.11 287.312 291.43 287.292C290.44 287.282 289.41 287.262 288.39 287.132C287.67 287.042 286.97 286.882 286.29 286.742C285.41 286.552 284.58 286.372 283.74 286.312C283.59 286.302 283.44 286.292 283.28 286.292H283.32Z" fill="#333333"/>
<path d="M290.47 326.719C291.51 325.349 292.2 323.75 293.07 322.26C295.26 318.52 298.99 315.35 303.31 315.2C307.63 315.05 312.06 318.949 311.34 323.219C310.79 326.439 307.83 328.609 306.08 331.369C304.74 333.479 304.1 335.97 302.86 338.14C300.5 342.24 295.52 344.959 290.93 343.819C286.34 342.679 283.14 337.099 285.2 332.849C286.38 330.409 288.84 328.879 290.48 326.719H290.47Z" fill="#4257FF"/>
<path d="M293.07 344.93C292.27 344.93 291.48 344.83 290.71 344.64C288.09 343.99 285.79 342.03 284.56 339.4C283.47 337.07 283.42 334.54 284.42 332.47C285.2 330.87 286.44 329.66 287.65 328.48C288.43 327.72 289.17 327 289.78 326.19C290.43 325.34 290.93 324.38 291.47 323.38C291.75 322.86 292.03 322.33 292.33 321.82C294.98 317.28 299.08 314.49 303.28 314.34C305.92 314.25 308.69 315.52 310.46 317.62C311.9 319.33 312.51 321.36 312.18 323.35C311.78 325.7 310.26 327.49 308.8 329.22C308.09 330.05 307.36 330.92 306.8 331.81C306.12 332.88 305.63 334.05 305.12 335.29C304.67 336.37 304.2 337.49 303.6 338.55C301.41 342.36 297.18 344.92 293.09 344.92L293.07 344.93ZM303.55 316.04H303.34C299.08 316.19 295.62 319.57 293.8 322.68C293.51 323.17 293.25 323.68 292.98 324.18C292.44 325.2 291.88 326.26 291.15 327.22C290.46 328.13 289.64 328.93 288.85 329.7C287.7 330.82 286.61 331.88 285.96 333.21C285.18 334.82 285.23 336.81 286.11 338.68C287.11 340.82 289.04 342.47 291.13 342.99C291.76 343.15 292.41 343.23 293.08 343.23C296.59 343.23 300.22 341.01 302.12 337.71C302.67 336.75 303.1 335.73 303.55 334.65C304.07 333.4 304.61 332.1 305.37 330.91C306 329.92 306.77 329.01 307.51 328.13C308.89 326.5 310.19 324.96 310.51 323.07C310.76 321.59 310.29 320.05 309.17 318.72C307.77 317.06 305.62 316.04 303.56 316.04H303.55Z" fill="#333333"/>
<path d="M258.041 355.181C254.671 356.221 251.151 357.261 247.681 356.651C244.211 356.041 240.861 353.191 240.951 349.671C241.041 346.151 244.261 343.631 247.171 341.641L257.471 334.621C259.951 332.931 262.521 331.201 265.461 330.631C268.411 330.061 271.851 330.941 273.411 333.501C274.651 335.541 274.451 338.111 274.221 340.491C273.871 344.031 273.351 347.911 270.721 350.301C269.141 351.741 267.021 352.411 264.981 353.041C262.671 353.751 260.361 354.461 258.041 355.181Z" fill="white"/>
<path d="M249.831 357.681C249.041 357.681 248.271 357.611 247.531 357.481C243.801 356.821 240.001 353.711 240.101 349.641C240.191 345.871 243.321 343.231 246.691 340.931L256.991 333.911C259.401 332.271 262.141 330.401 265.301 329.791C265.931 329.671 266.571 329.611 267.221 329.611C270.241 329.611 272.831 330.901 274.141 333.061C275.581 335.431 275.281 338.401 275.071 340.571C274.681 344.421 274.081 348.391 271.301 350.931C269.551 352.531 267.261 353.231 265.241 353.851L258.301 355.991C255.721 356.781 252.801 357.681 249.841 357.681H249.831ZM267.221 331.311C266.681 331.311 266.151 331.361 265.631 331.461C262.811 332.011 260.231 333.771 257.951 335.321L247.651 342.341C244.661 344.381 241.881 346.681 241.801 349.691C241.721 352.801 244.871 355.291 247.831 355.811C248.461 355.921 249.141 355.981 249.831 355.981C252.541 355.981 255.331 355.121 257.791 354.361L264.731 352.221C266.581 351.651 268.681 351.001 270.151 349.661C272.491 347.531 273.011 344.061 273.381 340.391C273.631 337.881 273.751 335.671 272.691 333.931C271.691 332.281 269.641 331.301 267.221 331.301V331.311Z" fill="#333333"/>
<path d="M223.92 356.65C218.24 352.14 215.21 350.72 205.65 339.39C205.11 338.75 204.61 338.13 204.13 337.53C203.67 333.46 207.43 329.68 213.66 336.84C221.81 346.2 226.34 345.6 228.46 345.29C230.57 344.99 232.99 341.36 229.06 335.93C225.2 330.58 212.53 315.37 199.17 310.87C199.17 310.87 185.4 305.12 164.06 304.43L92.3203 287.03L101.32 263.52C101.32 263.52 89.8203 245.51 49.8003 234.51C49.8003 234.51 32.3603 266.14 27.6603 295.37C25.9903 305.73 25.9103 315.79 28.7903 324.04C30.9703 330.27 39.5103 335.09 51.3803 338.82C65.0403 343.11 83.1103 345.96 100.97 347.84L101.07 348.05C101.07 348.05 147.5 355.44 151.25 355.78C155 356.12 173.91 377.2 178.2 381.29C182.5 385.38 187.84 382.68 187.84 382.68C187.84 382.68 200.3 391.87 203.73 377.73C203.73 377.73 212.32 383.45 217.26 380.96C222.2 378.47 221.52 374.12 221.52 374.12C221.52 374.12 229.5 378.31 233.96 372.53C238.42 366.76 229.75 361.26 223.93 356.64L223.92 356.65Z" fill="white"/>
<path d="M195.9 386.47C192.32 386.47 188.9 384.42 187.74 383.65C187.03 383.93 185.58 384.41 183.82 384.41C181.44 384.41 179.35 383.57 177.61 381.91C176.5 380.85 174.48 378.73 171.92 376.05C165.99 369.82 153.64 356.86 151.16 356.64C147.43 356.3 102.82 349.2 100.92 348.9C100.74 348.87 100.57 348.78 100.45 348.66C79.7303 346.46 63.1403 343.42 51.1203 339.65C37.8603 335.49 30.0803 330.33 27.9803 324.34C25.3203 316.74 24.9303 306.95 26.8103 295.26C31.4803 266.21 48.8703 234.44 49.0403 234.12C49.2303 233.78 49.6303 233.61 50.0103 233.71C89.8803 244.67 101.54 262.33 102.02 263.08C102.17 263.31 102.19 263.59 102.1 263.84L93.4403 286.45L164.16 303.6C185.36 304.3 199.35 310.04 199.48 310.1C215.09 315.35 229.14 334.63 229.74 335.45C232.64 339.46 232.12 342.29 231.56 343.62C230.97 345 229.83 345.97 228.57 346.15C228.15 346.21 227.56 346.29 226.85 346.29C222.74 346.29 218.22 343.38 213.01 337.41C210.19 334.17 208.27 333.68 207.37 333.68C206.72 333.68 206.17 333.92 205.75 334.4C205.16 335.06 204.87 336.1 204.94 337.22C205.36 337.75 205.81 338.3 206.29 338.86C214.1 348.11 217.41 350.63 221.61 353.82C222.5 354.5 223.43 355.2 224.44 356C225.09 356.51 225.77 357.04 226.47 357.57C230.68 360.8 235.45 364.47 235.98 368.52C236.19 370.11 235.73 371.64 234.62 373.07C232.89 375.31 230.49 376.45 227.51 376.45C225.43 376.45 223.53 375.88 222.35 375.43C222.18 377.11 221.3 379.89 217.63 381.74C216.68 382.22 215.57 382.46 214.31 382.46C210.47 382.46 206.14 380.2 204.23 379.07C202.39 385.16 198.72 386.48 195.88 386.48L195.9 386.47ZM187.84 381.84C188.02 381.84 188.2 381.9 188.34 382C188.38 382.03 192.15 384.77 195.9 384.77C199.38 384.77 201.74 382.34 202.9 377.54C202.97 377.27 203.16 377.05 203.42 376.95C203.68 376.85 203.97 376.88 204.2 377.03C204.26 377.07 209.84 380.75 214.33 380.75C215.31 380.75 216.17 380.57 216.88 380.21C221.22 378.02 220.69 374.3 220.68 374.26C220.63 373.94 220.76 373.63 221.02 373.44C221.28 373.25 221.62 373.23 221.91 373.38C221.94 373.39 224.57 374.75 227.52 374.75C229.95 374.75 231.89 373.83 233.29 372.03C234.12 370.95 234.46 369.87 234.31 368.73C233.88 365.38 229.4 361.94 225.45 358.91C224.75 358.37 224.06 357.84 223.4 357.32C222.4 356.53 221.48 355.83 220.6 355.16C216.49 352.04 212.94 349.34 205.01 339.94C204.46 339.29 203.96 338.67 203.48 338.07C203.38 337.94 203.32 337.79 203.3 337.64C203.11 335.96 203.56 334.32 204.51 333.27C205.26 332.43 206.26 331.99 207.4 331.99C209.47 331.99 211.86 333.48 214.32 336.3C219.12 341.81 223.34 344.6 226.88 344.6C227.47 344.6 227.96 344.53 228.36 344.47C228.86 344.4 229.6 343.96 230.03 342.96C230.75 341.26 230.16 338.89 228.4 336.45C227.82 335.65 214.08 316.8 198.92 311.69C198.73 311.61 184.97 305.97 164.05 305.29C163.99 305.29 163.93 305.29 163.88 305.27L92.1403 287.87C91.9003 287.81 91.7003 287.66 91.5903 287.44C91.4803 287.22 91.4603 286.97 91.5503 286.74L100.39 263.65C98.5603 261.15 85.9103 245.47 50.2503 235.52C47.8703 239.98 32.8003 268.94 28.5203 295.52C26.6803 306.93 27.0503 316.44 29.6103 323.77C31.5203 329.23 38.9303 334.03 51.6503 338.02C63.6403 341.79 80.2703 344.81 101.07 347.01C101.28 347.03 101.47 347.13 101.61 347.29C106.17 348.01 147.84 354.63 151.33 354.95C154.2 355.21 162.92 364.13 173.16 374.88C175.7 377.55 177.71 379.65 178.79 380.68C180.21 382.03 181.9 382.71 183.84 382.71C185.88 382.71 187.46 381.94 187.47 381.93C187.59 381.87 187.72 381.84 187.85 381.84H187.84Z" fill="#333333"/>
<path d="M221.511 374.5C221.431 374.5 221.361 374.48 221.291 374.43C221.191 374.36 211.011 367 205.041 360.02C204.911 359.86 204.921 359.63 205.081 359.49C205.241 359.36 205.471 359.37 205.611 359.53C211.521 366.44 221.621 373.74 221.731 373.82C221.901 373.94 221.941 374.18 221.821 374.34C221.751 374.44 221.631 374.5 221.521 374.5H221.511Z" fill="#333333"/>
<path d="M203.731 378.111C203.661 378.111 203.601 378.091 203.541 378.061C194.871 372.911 190.371 366.351 190.331 366.291C190.211 366.121 190.261 365.891 190.431 365.771C190.601 365.651 190.831 365.701 190.951 365.871C190.991 365.931 195.411 372.361 203.931 377.421C204.111 377.531 204.171 377.761 204.061 377.931C203.991 378.051 203.871 378.111 203.741 378.111H203.731Z" fill="#333333"/>
<path d="M187.84 383.061C187.76 383.061 187.67 383.031 187.6 382.971C181.11 377.591 178.6 374.421 178.5 374.291C178.37 374.131 178.4 373.891 178.56 373.761C178.72 373.631 178.96 373.661 179.09 373.821C179.11 373.851 181.66 377.061 188.08 382.381C188.24 382.511 188.26 382.751 188.13 382.911C188.06 383.001 187.95 383.051 187.84 383.051V383.061Z" fill="#333333"/>
<path d="M202.25 346.961C202.16 346.961 202.07 346.931 202 346.861L197.88 343.131C197.73 342.991 197.71 342.751 197.85 342.601C197.99 342.451 198.23 342.441 198.38 342.571L202.5 346.301C202.65 346.441 202.67 346.681 202.53 346.831C202.46 346.911 202.35 346.951 202.25 346.951V346.961Z" fill="#333333"/>
<path d="M199.57 347.861C199.57 347.861 199.51 347.861 199.49 347.861C199.29 347.811 199.16 347.611 199.21 347.411L200.4 342.231C200.45 342.031 200.65 341.911 200.85 341.951C201.05 342.001 201.18 342.201 201.13 342.401L199.94 347.581C199.9 347.751 199.75 347.871 199.57 347.871V347.861Z" fill="#333333"/>
<path d="M188.361 354.641C188.271 354.641 188.181 354.611 188.111 354.541L183.991 350.811C183.841 350.671 183.821 350.431 183.961 350.281C184.101 350.131 184.341 350.121 184.491 350.251L188.611 353.981C188.761 354.121 188.781 354.361 188.641 354.511C188.571 354.591 188.461 354.631 188.361 354.631V354.641Z" fill="#333333"/>
<path d="M185.68 355.541C185.68 355.541 185.62 355.541 185.6 355.541C185.4 355.491 185.27 355.291 185.32 355.091L186.51 349.911C186.56 349.711 186.76 349.591 186.96 349.631C187.16 349.681 187.29 349.881 187.24 350.081L186.05 355.261C186.01 355.431 185.86 355.551 185.68 355.551V355.541Z" fill="#333333"/>
<path d="M176.38 361.471C176.29 361.471 176.2 361.441 176.13 361.371L172.01 357.641C171.86 357.501 171.84 357.261 171.98 357.111C172.12 356.961 172.36 356.951 172.51 357.081L176.63 360.811C176.78 360.951 176.8 361.191 176.66 361.341C176.59 361.421 176.48 361.461 176.38 361.461V361.471Z" fill="#333333"/>
<path d="M173.711 362.371C173.711 362.371 173.651 362.371 173.631 362.371C173.431 362.321 173.301 362.121 173.351 361.921L174.541 356.741C174.591 356.541 174.791 356.421 174.991 356.461C175.191 356.511 175.321 356.711 175.271 356.911L174.081 362.091C174.041 362.261 173.891 362.381 173.711 362.381V362.371Z" fill="#333333"/>
<path d="M151.3 301.29C151.3 301.29 138.26 324.55 136.11 353.34L129.08 352.31C129.08 352.31 132.46 315.17 145.4 299.6L151.31 301.29H151.3Z" fill="#333333"/>
<path d="M137.427 342.32C142.217 341.19 145.183 336.391 144.052 331.602C142.922 326.812 138.123 323.846 133.334 324.977C128.545 326.107 125.578 330.906 126.709 335.695C127.839 340.484 132.638 343.451 137.427 342.32Z" fill="white"/>
<path d="M135.39 342.931C130.27 342.931 126.11 338.771 126.11 333.651C126.11 328.531 130.27 324.371 135.39 324.371C140.51 324.371 144.67 328.531 144.67 333.651C144.67 338.771 140.51 342.931 135.39 342.931ZM135.39 325.111C130.68 325.111 126.86 328.941 126.86 333.641C126.86 338.341 130.69 342.171 135.39 342.171C140.09 342.171 143.92 338.341 143.92 333.641C143.92 328.941 140.09 325.111 135.39 325.111Z" fill="#333333"/>
<path d="M128.83 332.3L135.39 333.64L134.7 330.67" fill="white"/>
<path d="M135.39 334.019C135.39 334.019 135.34 334.019 135.32 334.019L128.76 332.679C128.56 332.639 128.43 332.439 128.47 332.239C128.51 332.039 128.71 331.909 128.91 331.949L134.9 333.179L134.34 330.779C134.29 330.579 134.42 330.379 134.62 330.329C134.83 330.279 135.02 330.409 135.07 330.609L135.76 333.579C135.79 333.699 135.76 333.839 135.66 333.929C135.59 333.999 135.49 334.039 135.39 334.039V334.019Z" fill="#333333"/>
<path d="M185.85 111.761C177.83 113.411 168.41 113.541 157.21 107.301C157.21 107.301 168.79 123.851 184.2 123.591L184.07 114.811L185.85 111.751V111.761Z" fill="#333333"/>
<path d="M180 85.8802C179.6 85.8802 179.24 85.5902 179.17 85.1802C179.09 84.7202 179.39 84.2802 179.85 84.1902C180.36 84.1002 180.89 83.6502 181.26 83.0002C181.67 82.2802 181.81 81.4602 181.62 80.9402C181.07 79.4702 179.29 74.5102 179.22 72.3202C179.2 71.8502 179.57 71.4602 180.04 71.4402C180.51 71.4202 180.9 71.7902 180.92 72.2602C180.97 73.8002 182.19 77.5802 183.22 80.3502C183.59 81.3402 183.4 82.6802 182.74 83.8402C182.11 84.9402 181.17 85.6702 180.16 85.8602C180.11 85.8602 180.06 85.8702 180.01 85.8702L180 85.8802Z" fill="#333333"/>
<path d="M135.571 82.4393C135.221 82.4393 134.891 82.2193 134.771 81.8693C133.131 77.2193 130.571 74.4993 127.871 74.5993C126.151 74.6593 124.701 75.9393 124.171 77.8593C124.051 78.3093 123.581 78.5793 123.131 78.4493C122.681 78.3293 122.411 77.8593 122.541 77.4093C123.271 74.7593 125.341 72.9893 127.821 72.8993C131.281 72.7893 134.481 75.9193 136.381 81.2993C136.541 81.7393 136.301 82.2293 135.861 82.3793C135.771 82.4093 135.671 82.4293 135.581 82.4293L135.571 82.4393Z" fill="#333333"/>
<path d="M128.821 80.53C128.631 80.53 128.441 80.47 128.281 80.33C127.921 80.03 127.871 79.49 128.171 79.13L131.351 75.31C131.651 74.95 132.191 74.9 132.551 75.2C132.911 75.5 132.961 76.04 132.661 76.4L129.481 80.22C129.311 80.42 129.071 80.53 128.831 80.53H128.821Z" fill="#333333"/>
<path d="M205.201 79.5109C205.071 79.5109 204.931 79.4809 204.801 79.4109C204.391 79.1909 204.231 78.5109 204.451 78.0909C204.981 77.1009 206.841 73.7109 208.711 73.7109C209.111 73.7109 209.87 74.0309 210.4 75.0409C210.62 75.4609 210.46 76.0509 210.04 76.2709C209.63 76.4909 209.111 76.3709 208.891 75.9509C208.781 75.7309 208.701 75.7109 208.701 75.7109C208.271 75.7109 206.951 77.1509 205.941 79.0409C205.791 79.3309 205.491 79.5009 205.191 79.5009L205.201 79.5109Z" fill="#333333"/>
<path d="M179.291 96.6105C172.431 96.6105 167.881 91.7105 167.661 91.4605C167.351 91.1105 167.371 90.5805 167.721 90.2605C168.061 89.9405 168.601 89.9705 168.921 90.3105C169.171 90.5805 175.041 96.8805 183.311 94.2705C183.761 94.1305 184.231 94.3805 184.371 94.8305C184.511 95.2805 184.261 95.7505 183.811 95.8905C182.221 96.3905 180.701 96.6005 179.291 96.6005V96.6105Z" fill="#333333"/>
<path d="M166.89 93.3902C166.73 93.3902 166.58 93.3503 166.44 93.2603C166.04 93.0103 165.93 92.4802 166.18 92.0902L168.6 88.2702C168.85 87.8702 169.38 87.7603 169.77 88.0103C170.17 88.2603 170.28 88.7903 170.03 89.1803L167.61 93.0003C167.45 93.2603 167.17 93.3902 166.89 93.3902Z" fill="#333333"/>
<path d="M164.66 65.8903C163.12 65.8903 161.58 65.4803 160.06 65.7103C159.64 65.7703 159.22 65.8903 158.79 65.8903C158.36 65.8903 157.91 65.7803 157.62 65.4603C157.16 64.9303 157.36 64.0503 157.87 63.5703C158.38 63.0903 159.1 62.9103 159.79 62.7703C161.41 62.4503 163.14 62.2703 164.69 62.8703C165.25 63.0803 165.79 63.4203 166.08 63.9303C166.37 64.4503 166.34 65.1803 165.88 65.5703C165.55 65.8503 165.09 65.8903 164.65 65.8903H164.66Z" fill="#333333"/>
<path d="M188.51 65.8903C190.05 65.8903 191.59 65.4803 193.11 65.7103C193.53 65.7703 193.95 65.8903 194.38 65.8903C194.81 65.8903 195.26 65.7803 195.55 65.4603C196.01 64.9303 195.81 64.0503 195.3 63.5703C194.79 63.0903 194.07 62.9103 193.38 62.7703C191.76 62.4503 190.03 62.2703 188.48 62.8703C187.92 63.0803 187.38 63.4203 187.09 63.9303C186.8 64.4503 186.83 65.1803 187.29 65.5703C187.62 65.8503 188.08 65.8903 188.52 65.8903H188.51Z" fill="#333333"/>
<path d="M296.671 118.89C325.451 104.39 347.631 90.3796 346.231 87.5796C344.821 84.7796 320.351 94.2696 291.581 108.77C262.801 123.27 240.621 137.28 242.021 140.08C243.421 142.88 267.901 133.39 296.671 118.89Z" fill="#333333"/>
<path d="M243.451 141.41C243.031 141.41 241.741 141.41 241.261 140.46C240.801 139.56 239.861 137.68 255.021 128.09C264.401 122.16 277.251 115.03 291.191 108.01C316.231 95.4002 338.771 86.2402 344.801 86.2402C345.221 86.2402 346.511 86.2402 346.991 87.1902C347.451 88.0902 348.391 89.9702 333.231 99.5602C323.851 105.49 311.001 112.62 297.061 119.64C271.621 132.45 249.581 141.41 243.451 141.41ZM242.831 139.65C242.941 139.68 243.131 139.71 243.451 139.71C249.241 139.71 271.461 130.63 296.291 118.13C327.151 102.58 344.661 90.6302 345.421 88.0002C345.311 87.9702 345.121 87.9402 344.801 87.9402C339.011 87.9402 316.781 97.0202 291.961 109.52C261.091 125.07 243.591 137.02 242.831 139.65Z" fill="#333333"/>
<path d="M318.781 107.131C335.961 97.4608 347.241 89.5908 346.221 87.5708C345.201 85.5508 332.171 89.9408 314.171 97.9808L318.781 107.121V107.131Z" fill="#CCD7F2"/>
<path d="M318.781 107.98C318.701 107.98 318.611 107.97 318.531 107.94C318.311 107.87 318.121 107.72 318.021 107.51L313.411 98.3705C313.311 98.1605 313.291 97.9205 313.371 97.7005C313.451 97.4805 313.611 97.3005 313.821 97.2105C329.421 90.2405 340.711 86.2305 344.791 86.2305C345.211 86.2305 346.501 86.2305 346.981 87.1805C347.541 88.2905 347.061 90.0305 339.811 95.1605C334.911 98.6305 327.781 103.02 319.191 107.86C319.061 107.93 318.921 107.97 318.771 107.97L318.781 107.98ZM315.331 98.4005L319.141 105.96C337.691 95.4605 344.911 89.5805 345.411 88.0005C345.301 87.9705 345.111 87.9405 344.791 87.9405C341.061 87.9405 330.081 91.8405 315.331 98.4105V98.4005Z" fill="#333333"/>
<path d="M336.251 89.0601L339.081 94.6701C339.081 94.6701 344.521 98.1901 350.801 95.0201C357.081 91.8501 362.751 77.3101 362.751 77.3101C362.751 77.3101 346.741 76.5401 341.361 79.2501C335.981 81.9601 336.261 89.0501 336.261 89.0501L336.251 89.0601Z" fill="#333333"/>
<path d="M362.741 77.3199C362.741 77.3199 348.511 76.6399 342.381 78.8399C342.581 80.0699 343.491 81.2199 344.671 81.7099C346.321 82.3899 348.261 82.0099 349.841 81.1699C350.161 80.9999 350.521 80.8099 350.861 80.9099C351.421 81.0799 351.461 81.9199 351.111 82.3799C350.761 82.8499 350.181 83.0799 349.711 83.4099C348.911 83.9799 348.341 84.9399 348.411 85.9199C348.481 86.8999 349.271 87.8299 350.251 87.9099C351.971 88.0499 353.331 85.8199 355.001 86.2499C356.091 86.5299 356.451 87.6599 356.771 88.8599C360.261 83.6399 362.731 77.3099 362.731 77.3099L362.741 77.3199Z" fill="#4257FF"/>
<path d="M356.78 89.7206C356.78 89.7206 356.69 89.7206 356.64 89.7106C356.31 89.6506 356.04 89.4106 355.96 89.0906C355.64 87.8706 355.37 87.2306 354.8 87.0906C354.28 86.9606 353.67 87.3506 353 87.7806C352.2 88.2906 351.29 88.8706 350.19 88.7806C348.82 88.6706 347.67 87.4506 347.57 86.0006C347.48 84.7706 348.12 83.5206 349.22 82.7406C349.38 82.6206 349.56 82.5206 349.73 82.4206C350.03 82.2406 350.29 82.0806 350.44 81.8906C350.46 81.8706 350.47 81.8406 350.48 81.8106C350.41 81.8506 350.32 81.9006 350.25 81.9306C348.23 83.0006 346.06 83.2206 344.35 82.5106C342.89 81.9106 341.79 80.5206 341.54 78.9906C341.47 78.5906 341.71 78.1906 342.09 78.0606C345.93 76.6806 352.73 76.3906 357.75 76.3906C360.65 76.3906 362.76 76.4906 362.79 76.4906C363.06 76.5006 363.31 76.6506 363.46 76.8806C363.61 77.1106 363.64 77.4006 363.54 77.6506C363.44 77.9106 360.99 84.1306 357.49 89.3606C357.33 89.6006 357.06 89.7406 356.78 89.7406V89.7206ZM350.66 80.0306C350.82 80.0306 350.97 80.0506 351.12 80.1006C351.59 80.2506 351.95 80.6106 352.11 81.1006C352.3 81.6906 352.18 82.4006 351.8 82.9006C351.46 83.3506 351.01 83.6206 350.61 83.8606C350.47 83.9406 350.33 84.0206 350.2 84.1206C349.59 84.5506 349.22 85.2406 349.26 85.8806C349.3 86.4806 349.8 87.0406 350.32 87.0806H350.4C350.91 87.0806 351.48 86.7206 352.07 86.3406C352.79 85.8806 353.61 85.3606 354.56 85.3606C354.78 85.3606 354.99 85.3906 355.2 85.4406C356.09 85.6706 356.63 86.2706 356.98 86.9506C359.08 83.5306 360.71 79.9106 361.47 78.1306C360.58 78.1006 359.27 78.0806 357.73 78.0806C351.4 78.0806 346.38 78.5506 343.41 79.4006C343.72 80.0706 344.3 80.6606 344.98 80.9406C346.23 81.4506 347.88 81.2606 349.43 80.4306C349.74 80.2706 350.16 80.0406 350.64 80.0406L350.66 80.0306Z" fill="#333333"/>
<path d="M210.78 19.7399C216.71 13.6099 208.11 2.7499 193.06 6.1599C178.01 9.5699 131.41 18.9299 121.7 17.9599C111.99 16.9899 105.77 33.2999 118.12 42.5399L117.22 46.7599C117.22 46.7599 135.58 48.4599 138.75 49.1399C141.92 49.8199 182.12 49.3499 210.78 19.7499V19.7399Z" fill="#4257FF"/>
<path d="M141.4 50.1297C140.09 50.1297 139.06 50.0697 138.58 49.9697C135.5 49.3097 117.33 47.6197 117.15 47.6097C116.91 47.5897 116.69 47.4597 116.54 47.2697C116.4 47.0697 116.34 46.8297 116.39 46.5897L117.18 42.8997C110.19 37.3997 109.54 29.8797 111.15 25.0397C112.87 19.8697 117.09 16.6697 121.78 17.1297C122.22 17.1697 122.75 17.1997 123.36 17.1997C135.6 17.1997 177.47 8.83969 192.87 5.34969C194.83 4.90969 196.76 4.67969 198.61 4.67969C205.32 4.67969 210.92 7.65969 212.87 12.2697C214.09 15.1597 213.55 18.0997 211.38 20.3497C183.35 49.3097 145.61 50.1397 141.39 50.1397L141.4 50.1297ZM118.25 45.9997C122.09 46.3597 136.13 47.7097 138.92 48.2997C139.19 48.3597 140 48.4297 141.39 48.4297C156.41 48.4297 187.79 42.2597 210.16 19.1497C211.86 17.3897 212.27 15.1797 211.31 12.9097C209.93 9.64969 205.46 6.35969 198.61 6.35969C196.88 6.35969 195.08 6.56969 193.24 6.98969C177.79 10.4897 135.73 18.8797 123.36 18.8797C122.69 18.8797 122.1 18.8597 121.61 18.8097C117.72 18.4197 114.22 21.1597 112.76 25.5597C111.23 30.1697 111.96 36.8697 118.63 41.8597C118.89 42.0597 119.02 42.3897 118.95 42.7197L118.25 45.9997Z" fill="#333333"/>
<path d="M151.81 18.8494C151.33 18.7494 150.91 18.4294 150.69 17.9494C150.19 16.8794 145.93 7.35943 148.32 1.81943C148.67 0.999429 149.63 0.629429 150.43 0.979429C151.25 1.32943 151.62 2.27943 151.27 3.08943C149.72 6.67943 152.43 14.0594 153.61 16.5994C153.98 17.4094 153.63 18.3594 152.83 18.7294C152.5 18.8794 152.15 18.9094 151.82 18.8394L151.81 18.8494Z" fill="#4257FF"/>
<path d="M152.141 19.74C151.971 19.74 151.801 19.72 151.631 19.69C150.881 19.53 150.231 19.02 149.911 18.32C149.401 17.22 144.991 7.39 147.531 1.49C147.921 0.59 148.811 0 149.791 0C150.131 0 150.461 0.07 150.761 0.21C152.001 0.74 152.571 2.19 152.041 3.43C150.771 6.37 152.801 12.85 154.371 16.25C154.941 17.48 154.401 18.94 153.171 19.51C152.841 19.66 152.501 19.74 152.141 19.74ZM149.791 1.7C149.491 1.7 149.211 1.88 149.091 2.16C147.261 6.4 149.721 13.86 151.451 17.6C151.551 17.82 151.751 17.97 151.981 18.02C152.141 18.05 152.311 18.04 152.461 17.97C152.841 17.79 153.001 17.34 152.831 16.96C152.791 16.87 148.471 7.43 150.481 2.76C150.641 2.38 150.471 1.93 150.081 1.76C149.981 1.72 149.881 1.7 149.781 1.7H149.791Z" fill="#333333"/>
</svg>
