<svg width="369" height="369" viewBox="0 0 369 369" fill="none" xmlns="http://www.w3.org/2000/svg">
<path d="M122.09 290.069C93.8603 288.539 64.7603 282.339 42.4603 264.949C12.9003 241.899 -0.0696609 201.079 6.44034 164.179C12.9603 127.269 37.1703 94.799 68.2903 73.919C79.8703 66.149 92.3903 59.839 103.78 51.799C113.92 44.649 123.1 36.169 133.5 29.409C143.05 23.199 153.53 18.509 164.32 14.889C209.26 -0.170987 260.28 3.99901 302.16 26.149C311.36 31.019 320.17 36.739 327.74 43.879C349.19 64.129 358.95 94.669 358.41 124.159C358.14 138.779 355.53 153.359 350.73 167.169C331.53 222.339 278.76 260.309 222.96 277.589C190.43 287.659 156.1 291.909 122.1 290.069H122.09Z" fill="#4257FF"/>
<path d="M232.98 129.63C233.22 126.07 223.49 132.47 204.98 131.97C186.48 131.48 173.43 130.28 172.95 131.46C172.47 132.65 174.36 141.19 174.36 141.19L223.23 145.27L232.97 129.62L232.98 129.63Z" fill="black"/>
<path d="M172.22 82.1176C172.22 82.1176 164.28 72.9176 157.17 75.1776C150.06 77.4376 148.41 93.0176 155.8 96.4076C163.19 99.8076 172.49 94.1376 172.49 94.1376L172.22 82.1076V82.1176Z" fill="white"/>
<path d="M161.081 98.3485C159.021 98.3485 157.121 97.9585 155.441 97.1885C151.151 95.2185 149.911 89.9485 150.171 85.6785C150.461 81.0285 152.651 75.7285 156.911 74.3785C157.741 74.1185 158.621 73.9785 159.521 73.9785C166.231 73.9785 172.591 81.2585 172.861 81.5685C172.991 81.7185 173.061 81.9085 173.071 82.1085L173.341 94.1385C173.341 94.4385 173.191 94.7285 172.931 94.8785C172.701 95.0185 167.151 98.3485 161.081 98.3485ZM159.521 75.6685C158.791 75.6685 158.091 75.7785 157.421 75.9885C154.441 76.9385 152.161 80.9585 151.861 85.7785C151.631 89.4885 152.641 94.0285 156.151 95.6485C157.601 96.3185 159.261 96.6585 161.081 96.6585C165.771 96.6585 170.261 94.4185 171.631 93.6685L171.371 82.4585C170.271 81.2685 164.851 75.6785 159.521 75.6785V75.6685Z" fill="black"/>
<path d="M162.58 33.3394C158.14 39.8994 159.25 54.3494 162.1 67.1494C164.95 79.9494 166.06 42.5294 166.06 42.5294L174.62 31.8594L162.57 33.3394H162.58Z" fill="black"/>
<path d="M161.151 71.2393C163.051 56.9593 160.201 46.6193 162.581 39.7293C162.581 39.7293 170.901 9.28934 210.871 16.6693C211.351 16.7593 211.831 16.8593 212.301 16.9593C232.691 21.4693 245.611 38.2193 240.551 59.1593L236.201 77.1693C239.141 75.5193 242.561 74.4593 245.841 75.5093C254.091 78.1393 255.991 96.1893 247.431 100.129C241.591 102.819 234.721 100.619 230.941 98.9493L230.271 101.719L229.191 141.819C195.251 153.309 176.541 142.149 176.541 142.149L177.991 120.899C153.881 113.849 159.311 85.1193 161.161 71.2493L161.151 71.2393Z" fill="white"/>
<path d="M200.001 147.85C184.631 147.85 176.441 143.07 176.101 142.87C175.831 142.71 175.671 142.4 175.691 142.08L177.091 121.51C154.301 114.33 157.991 87.8099 159.991 73.4999C160.111 72.6699 160.221 71.8799 160.321 71.1299C161.241 64.2199 161.041 58.3099 160.861 53.0999C160.671 47.5299 160.521 43.1299 161.791 39.4599C161.841 39.2599 168.921 14.6699 198.991 14.6699C202.781 14.6699 206.831 15.0599 211.031 15.8399C211.521 15.9299 212.011 16.0299 212.491 16.1399C223.481 18.5699 232.401 24.4999 237.601 32.8299C242.411 40.5299 243.721 49.7099 241.381 59.3699L237.461 75.5999C240.591 74.1899 243.511 73.8899 246.101 74.7099C250.971 76.2599 253.491 82.3499 253.821 87.6899C254.121 92.5999 252.691 98.6499 247.791 100.9C245.861 101.79 243.681 102.24 241.311 102.24C237.631 102.24 234.101 101.17 231.541 100.12L231.131 101.83L230.051 141.84C230.051 142.19 229.811 142.51 229.471 142.62C219.201 146.09 209.291 147.86 200.011 147.86L200.001 147.85ZM177.421 141.65C179.311 142.62 187.111 146.15 200.001 146.15C208.931 146.15 218.461 144.48 228.361 141.19L229.431 101.69C229.431 101.63 229.431 101.57 229.451 101.51L230.121 98.7399C230.181 98.4999 230.341 98.2899 230.571 98.1799C230.801 98.0699 231.061 98.0599 231.291 98.1599C233.741 99.2399 237.461 100.53 241.311 100.53C243.431 100.53 245.381 100.13 247.081 99.3499C251.211 97.4499 252.401 92.1299 252.131 87.7799C251.781 82.1399 249.101 77.4199 245.591 76.3099C243.001 75.4799 239.961 76.0299 236.621 77.9099C236.331 78.0699 235.961 78.0499 235.691 77.8499C235.421 77.6499 235.301 77.2999 235.381 76.9699L239.731 58.9599C241.951 49.7499 240.721 41.0199 236.161 33.7199C231.201 25.7799 222.661 20.1199 212.121 17.7899C211.661 17.6899 211.191 17.5899 210.721 17.5099C206.621 16.7499 202.681 16.3699 198.991 16.3699C170.241 16.3699 163.671 38.9999 163.411 39.9599C162.231 43.3899 162.381 47.6499 162.561 53.0399C162.741 58.3199 162.951 64.2999 162.011 71.3499C161.911 72.0999 161.801 72.8999 161.681 73.7299C159.601 88.6499 156.131 113.61 178.231 120.07C178.611 120.18 178.871 120.55 178.841 120.94L177.431 141.64L177.421 141.65Z" fill="black"/>
<path d="M195.64 55.6394C195.74 56.4694 196.57 56.9494 197.31 57.2794C201.1 58.9494 205.2 59.8494 209.31 59.9194C210.04 59.9294 210.79 59.9194 211.46 59.6094C212.61 59.0794 213.29 57.6594 213.01 56.3894C212.78 55.3494 211.99 54.5294 211.08 54.0194C210.17 53.5194 209.15 53.2894 208.15 53.0794C204.4 52.2894 200.25 51.6694 196.95 53.6694C196.25 54.0994 195.54 54.7994 195.64 55.6394Z" fill="black"/>
<path d="M166.42 59.5195C168.8 59.3795 171.73 57.8295 173.46 57.6395C174.98 57.4795 178.16 57.8595 178.1 55.4995C177.73 53.9895 176.31 52.9895 174.9 52.6695C173.78 52.4195 172.61 52.4995 171.47 52.5895C168.88 52.7995 164.77 53.0195 163.31 55.6595C162.96 56.2995 162.85 57.1195 163.17 57.7895C163.84 59.1995 165.04 59.5895 166.42 59.5095V59.5195Z" fill="black"/>
<path d="M246.551 52.3892C252.261 46.7292 262.011 38.6092 250.831 29.9892C239.651 21.3692 236.791 30.2392 229.661 17.9292C222.521 5.61919 206.351 -5.70081 194.691 3.15919C183.031 12.0192 160.191 -0.530814 153.531 9.06919C146.871 18.6692 150.911 30.4892 157.101 35.6592C163.291 40.8292 181.131 43.2892 199.681 41.3192C218.241 39.3492 233.221 57.3192 233.221 57.3192L246.541 52.3992L246.551 52.3892Z" fill="black"/>
<path d="M180.661 46.7998C186.231 46.7998 191.701 45.8498 197.041 44.9098C203.301 43.8198 209.201 42.7898 214.621 43.4498L214.731 42.4698C209.181 41.7898 203.201 42.8398 196.881 43.9398C189.251 45.2698 181.361 46.6498 173.361 45.1798C158.851 42.5198 151.161 29.9598 151.391 22.2898L150.441 22.2598C150.201 30.2698 158.161 43.3898 173.201 46.1498C175.711 46.6098 178.201 46.7998 180.661 46.7998Z" fill="black"/>
<path d="M177.98 119.939C184.79 122.419 199.48 121.429 206.09 119.279C206.09 119.279 186.771 129.519 177.521 129.019L177.98 119.939Z" fill="black"/>
<path d="M242.08 74.6585L248.69 43.9185L215.49 40.4785C215.49 40.4785 227.28 49.0885 227.28 63.5285C227.28 69.1285 226.92 73.4385 226.48 76.6285C226.09 79.5085 229.14 81.5985 231.69 80.2285L242.07 74.6585H242.08Z" fill="black"/>
<path d="M232.1 91.6399C232.1 91.6399 232.02 91.6399 231.99 91.6399C231.53 91.5799 231.2 91.1499 231.26 90.6899C231.31 90.3499 232.46 82.2599 238.43 81.5599C244.29 80.8699 247.52 86.1799 247.66 86.4099C247.9 86.8099 247.77 87.3299 247.36 87.5699C246.96 87.8099 246.44 87.6799 246.2 87.2699C246.08 87.0799 243.39 82.6899 238.63 83.2399C233.97 83.7899 232.95 90.8399 232.94 90.9099C232.88 91.3399 232.52 91.6499 232.1 91.6499V91.6399Z" fill="black"/>
<path d="M238.53 89.0889C238.27 89.0889 238.01 88.9689 237.84 88.7389L234.67 84.3789C234.39 83.9989 234.48 83.4689 234.86 83.1889C235.24 82.9089 235.77 82.9989 236.05 83.3789L239.22 87.7389C239.5 88.1189 239.41 88.6489 239.03 88.9289C238.88 89.0389 238.7 89.0889 238.53 89.0889Z" fill="black"/>
<path d="M184.56 73.3887C184.56 73.3887 181.48 81.2787 181.35 82.6287C181.23 83.9787 184.56 86.9087 184.56 86.9087" fill="white"/>
<path d="M184.56 87.7596C184.36 87.7596 184.16 87.6896 184 87.5496C182.9 86.5796 180.36 84.1596 180.51 82.5596C180.64 81.1596 183.25 74.4196 183.77 73.0896C183.94 72.6496 184.43 72.4396 184.87 72.6096C185.31 72.7796 185.52 73.2696 185.35 73.7096C184.17 76.7196 182.28 81.8196 182.2 82.7196C182.19 83.2296 183.58 84.9296 185.12 86.2896C185.47 86.5996 185.51 87.1396 185.2 87.4896C185.03 87.6796 184.8 87.7796 184.56 87.7796V87.7596Z" fill="black"/>
<path d="M82.2604 177.889L82.2104 178.189C52.8204 217.099 40.0904 357.489 44.0604 363.899H87.1204L130.83 364.899C134.48 288.829 136.16 205.509 169.11 140.629C121.73 144.789 82.2504 177.889 82.2504 177.889H82.2604Z" fill="black"/>
<path d="M241.08 140.951C239.87 140.651 238.64 140.341 237.47 140.071L203.78 143.671L192.87 139.551L183.85 144.291L174.36 141.201C172.47 141.271 170.6 141.411 168.74 141.571C135.79 206.441 134.48 288.831 130.83 364.911L210.8 364.031C217.67 288.391 215.27 212.891 241.08 140.951Z" fill="#A1C3FF"/>
<path d="M130.84 365.75C130.61 365.75 130.39 365.66 130.23 365.49C130.07 365.32 129.98 365.09 129.99 364.86C130.26 359.17 130.52 353.44 130.78 347.69C134.05 275.75 137.42 201.37 167.99 141.18C168.12 140.92 168.38 140.74 168.67 140.72C170.81 140.53 172.61 140.41 174.33 140.35C174.43 140.34 174.53 140.35 174.63 140.39L183.78 143.37L192.48 138.8C192.69 138.69 192.95 138.67 193.17 138.76L203.89 142.81L237.38 139.23C237.47 139.22 237.57 139.23 237.66 139.25C238.58 139.46 239.53 139.7 240.48 139.93L241.28 140.13C241.51 140.19 241.71 140.34 241.82 140.55C241.93 140.76 241.95 141.01 241.87 141.24C222.44 195.39 218.95 252.86 215.58 308.43C214.47 326.66 213.33 345.52 211.64 364.11C211.6 364.54 211.24 364.88 210.8 364.88L130.83 365.76L130.84 365.75ZM169.3 142.37C139.09 202.15 135.74 276.17 132.49 347.77C132.24 353.22 132 358.65 131.74 364.05L210.04 363.19C211.69 344.87 212.82 326.3 213.91 308.33C217.27 252.94 220.75 195.68 239.98 141.56C239.12 141.35 238.26 141.13 237.44 140.94L203.89 144.53C203.76 144.54 203.62 144.53 203.5 144.48L192.95 140.49L184.27 145.05C184.07 145.16 183.83 145.18 183.61 145.11L174.27 142.06C172.75 142.12 171.16 142.22 169.31 142.38L169.3 142.37Z" fill="black"/>
<path d="M173.13 364.948C173.13 364.948 174.61 365.208 175.74 364.948C175.93 364.908 176.5 289.308 176.48 289.108C174.73 272.978 182.46 195.028 185.77 161.738C186.63 153.068 187.25 146.798 187.38 144.938C187.39 144.738 187.25 144.568 187.05 144.558C186.85 144.538 186.68 144.688 186.67 144.888C186.54 146.728 185.92 152.998 185.06 161.668C181.48 197.798 174.02 272.988 175.77 289.188C175.79 289.368 175.22 363.908 173.13 364.948Z" fill="black"/>
<path d="M174.57 365.488C173.93 365.488 173.36 365.418 173.08 365.368H171.28L172.88 364.598C174.67 361.608 175.41 292.698 175.34 289.208C173.58 272.998 181.04 197.778 184.63 161.638C185.46 153.308 186.11 146.728 186.24 144.878C186.27 144.468 186.61 144.148 187.01 144.148C187.28 144.168 187.47 144.258 187.61 144.418C187.75 144.578 187.82 144.778 187.8 144.988C187.67 146.868 187.01 153.458 186.19 161.798C182.89 195.108 175.16 273.008 176.9 289.078C176.92 289.238 176.76 310.558 176.61 327.108C176.53 336.578 176.44 346.038 176.36 353.128C176.267 361.235 176.09 365.318 175.83 365.378C175.47 365.458 175.04 365.508 174.57 365.508V365.488ZM173.76 364.598C174.22 364.638 174.87 364.658 175.34 364.598C175.47 361.588 175.69 337.238 175.85 316.988C175.79 320.208 175.73 323.498 175.66 326.758C175.05 355.538 174.3 362.708 173.75 364.608L173.76 364.598Z" fill="black"/>
<path d="M187.44 170.54C187.44 169.06 188.65 167.85 190.13 167.85C191.61 167.85 192.82 169.06 192.82 170.54C192.82 172.03 191.61 173.23 190.13 173.23C188.65 173.23 187.44 172.02 187.44 170.54Z" fill="black"/>
<path d="M191.07 171.879C191.13 171.879 191.19 171.859 191.24 171.809C191.33 171.719 191.33 171.569 191.24 171.469L189.28 169.509C189.19 169.419 189.04 169.419 188.94 169.509C188.84 169.599 188.85 169.749 188.94 169.849L190.9 171.809C190.9 171.809 191.01 171.879 191.07 171.879Z" fill="black"/>
<path d="M189.12 171.879C189.06 171.879 189 171.859 188.95 171.809C188.86 171.719 188.86 171.569 188.95 171.469L190.91 169.509C191 169.419 191.15 169.419 191.25 169.509C191.34 169.599 191.34 169.749 191.25 169.849L189.29 171.809C189.29 171.809 189.18 171.879 189.12 171.879Z" fill="black"/>
<path d="M189.98 153.559C189.98 152.079 191.19 150.869 192.67 150.869C194.15 150.869 195.36 152.079 195.36 153.559C195.36 155.039 194.15 156.249 192.67 156.249C191.19 156.249 189.98 155.039 189.98 153.559Z" fill="black"/>
<path d="M193.62 154.908C193.68 154.908 193.74 154.888 193.79 154.838C193.88 154.748 193.88 154.598 193.79 154.498L191.83 152.538C191.74 152.448 191.59 152.448 191.49 152.538C191.4 152.628 191.4 152.778 191.49 152.878L193.45 154.838C193.45 154.838 193.56 154.908 193.62 154.908Z" fill="black"/>
<path d="M191.66 154.908C191.6 154.908 191.54 154.888 191.49 154.838C191.4 154.748 191.4 154.598 191.49 154.498L193.45 152.538C193.54 152.448 193.69 152.448 193.79 152.538C193.89 152.628 193.88 152.778 193.79 152.878L191.83 154.838C191.83 154.838 191.72 154.908 191.66 154.908Z" fill="black"/>
<path d="M185.83 196.159C185.83 194.679 187.04 193.469 188.52 193.469C190 193.469 191.21 194.679 191.21 196.159C191.21 197.639 190 198.849 188.52 198.849C187.04 198.849 185.83 197.639 185.83 196.159Z" fill="black"/>
<path d="M189.47 197.498C189.53 197.498 189.59 197.478 189.64 197.428C189.73 197.338 189.73 197.188 189.64 197.088L187.68 195.128C187.59 195.038 187.44 195.038 187.34 195.128C187.25 195.218 187.25 195.368 187.34 195.468L189.3 197.428C189.3 197.428 189.41 197.498 189.47 197.498Z" fill="black"/>
<path d="M187.51 197.498C187.45 197.498 187.39 197.478 187.34 197.428C187.25 197.338 187.25 197.188 187.34 197.088L189.3 195.128C189.39 195.038 189.54 195.038 189.64 195.128C189.73 195.218 189.73 195.368 189.64 195.468L187.68 197.428C187.68 197.428 187.57 197.498 187.51 197.498Z" fill="black"/>
<path d="M182.641 225.889C182.641 224.399 183.851 223.199 185.331 223.199C186.811 223.199 188.021 224.409 188.021 225.889C188.021 227.379 186.811 228.579 185.331 228.579C183.851 228.579 182.641 227.369 182.641 225.889Z" fill="black"/>
<path d="M186.271 227.238C186.331 227.238 186.391 227.218 186.441 227.168C186.531 227.078 186.531 226.928 186.441 226.828L184.481 224.868C184.391 224.778 184.241 224.778 184.141 224.868C184.051 224.958 184.051 225.108 184.141 225.208L186.101 227.168C186.101 227.168 186.211 227.238 186.271 227.238Z" fill="black"/>
<path d="M184.321 227.229C184.261 227.229 184.201 227.209 184.151 227.159C184.061 227.069 184.061 226.919 184.151 226.819L186.111 224.859C186.201 224.769 186.351 224.769 186.451 224.859C186.541 224.949 186.541 225.099 186.451 225.199L184.491 227.159C184.491 227.159 184.381 227.229 184.321 227.229Z" fill="black"/>
<path d="M181.28 251.2C181.28 249.72 182.49 248.51 183.97 248.51C185.45 248.51 186.66 249.72 186.66 251.2C186.66 252.68 185.45 253.89 183.97 253.89C182.49 253.89 181.28 252.68 181.28 251.2Z" fill="black"/>
<path d="M184.92 252.549C184.98 252.549 185.04 252.529 185.09 252.479C185.18 252.389 185.18 252.239 185.09 252.139L183.13 250.179C183.04 250.089 182.89 250.089 182.79 250.179C182.69 250.269 182.7 250.419 182.79 250.519L184.75 252.479C184.75 252.479 184.86 252.549 184.92 252.549Z" fill="black"/>
<path d="M182.96 252.539C182.9 252.539 182.84 252.519 182.79 252.469C182.7 252.379 182.7 252.229 182.79 252.129L184.75 250.169C184.84 250.079 184.99 250.079 185.09 250.169C185.18 250.259 185.18 250.409 185.09 250.509L183.13 252.469C183.13 252.469 183.02 252.539 182.96 252.539Z" fill="black"/>
<path d="M179.86 273.549C179.86 272.069 181.07 270.859 182.55 270.859C184.03 270.859 185.24 272.069 185.24 273.549C185.24 275.029 184.03 276.239 182.55 276.239C181.07 276.239 179.86 275.029 179.86 273.549Z" fill="black"/>
<path d="M183.5 274.898C183.56 274.898 183.62 274.878 183.67 274.828C183.76 274.738 183.76 274.588 183.67 274.488L181.71 272.528C181.62 272.438 181.47 272.438 181.37 272.528C181.28 272.618 181.28 272.768 181.37 272.868L183.33 274.828C183.33 274.828 183.44 274.898 183.5 274.898Z" fill="black"/>
<path d="M181.54 274.898C181.48 274.898 181.42 274.878 181.37 274.828C181.28 274.738 181.28 274.588 181.37 274.488L183.33 272.528C183.42 272.438 183.57 272.438 183.67 272.528C183.77 272.618 183.76 272.768 183.67 272.868L181.71 274.828C181.71 274.828 181.6 274.898 181.54 274.898Z" fill="black"/>
<path d="M180.15 299.008C180.15 297.518 181.36 296.318 182.84 296.318C184.32 296.318 185.53 297.528 185.53 299.008C185.53 300.498 184.32 301.698 182.84 301.698C181.36 301.698 180.15 300.488 180.15 299.008Z" fill="black"/>
<path d="M183.781 300.357C183.841 300.357 183.901 300.337 183.951 300.287C184.041 300.197 184.041 300.047 183.951 299.947L181.991 297.987C181.901 297.897 181.751 297.897 181.651 297.987C181.561 298.077 181.561 298.227 181.651 298.327L183.611 300.287C183.611 300.287 183.721 300.357 183.781 300.357Z" fill="black"/>
<path d="M181.83 300.357C181.77 300.357 181.71 300.337 181.66 300.287C181.57 300.197 181.57 300.047 181.66 299.947L183.62 297.987C183.71 297.897 183.86 297.897 183.96 297.987C184.05 298.077 184.05 298.227 183.96 298.327L182 300.287C182 300.287 181.89 300.357 181.83 300.357Z" fill="black"/>
<path d="M180.841 325.919C180.841 324.439 182.051 323.229 183.531 323.229C185.011 323.229 186.221 324.439 186.221 325.919C186.221 327.399 185.011 328.608 183.531 328.608C182.051 328.608 180.841 327.399 180.841 325.919Z" fill="black"/>
<path d="M184.481 327.268C184.541 327.268 184.601 327.248 184.651 327.198C184.741 327.108 184.741 326.958 184.651 326.858L182.691 324.898C182.601 324.808 182.451 324.808 182.351 324.898C182.261 324.988 182.261 325.138 182.351 325.238L184.311 327.198C184.311 327.198 184.421 327.268 184.481 327.268Z" fill="black"/>
<path d="M182.521 327.268C182.461 327.268 182.401 327.248 182.351 327.198C182.261 327.108 182.261 326.958 182.351 326.858L184.311 324.898C184.401 324.808 184.551 324.808 184.651 324.898C184.741 324.988 184.741 325.138 184.651 325.238L182.691 327.198C182.691 327.198 182.581 327.268 182.521 327.268Z" fill="black"/>
<path d="M329.641 178.279C313.241 165.189 270.501 147.469 240.691 140.109C214.881 212.039 217.661 288.389 210.801 364.029L297.941 363.069L331.161 363.349C347.671 363.489 361.271 350.289 361.481 333.789C362.211 276.609 347.321 189.769 329.631 178.289L329.641 178.279Z" fill="black"/>
<path d="M179.78 346.1C179.78 344.62 180.99 343.41 182.47 343.41C183.95 343.41 185.16 344.62 185.16 346.1C185.16 347.58 183.95 348.79 182.47 348.79C180.99 348.79 179.78 347.58 179.78 346.1Z" fill="black"/>
<path d="M183.41 347.449C183.47 347.449 183.53 347.429 183.58 347.379C183.67 347.289 183.67 347.139 183.58 347.039L181.62 345.079C181.53 344.989 181.38 344.989 181.28 345.079C181.19 345.169 181.19 345.319 181.28 345.419L183.24 347.379C183.24 347.379 183.35 347.449 183.41 347.449Z" fill="black"/>
<path d="M181.46 347.449C181.4 347.449 181.34 347.429 181.29 347.379C181.2 347.289 181.2 347.139 181.29 347.039L183.25 345.079C183.34 344.989 183.49 344.989 183.59 345.079C183.68 345.169 183.68 345.319 183.59 345.419L181.63 347.379C181.63 347.379 181.52 347.449 181.46 347.449Z" fill="black"/>
<path d="M192.87 139.551C206.78 141.091 228.46 134.601 232.97 129.631L237.47 140.071C237.47 140.071 220.12 172.321 216.56 171.841C213 171.361 199.51 142.411 193.1 140.981C186.7 139.551 172.2 163.971 170.54 164.441C168.88 164.911 171.52 132.181 172.94 131.471C174.36 130.761 171.27 137.161 192.86 139.561L192.87 139.551Z" fill="#A1C3FF"/>
<path d="M216.65 172.69C216.65 172.69 216.49 172.69 216.46 172.68C214.69 172.44 212.33 168.86 206.98 160.12C202.43 152.7 196.2 142.53 192.93 141.8C192.81 141.77 192.68 141.76 192.55 141.76C188.36 141.76 180.03 153.3 175.56 159.5C172.27 164.06 171.5 165.06 170.79 165.26C170.35 165.39 169.68 165.29 169.42 164.17C168.88 161.87 169.35 153.16 169.91 146.4C171.17 131.42 172.12 130.94 172.58 130.71C172.77 130.61 172.96 130.57 173.15 130.57C173.88 130.57 174.16 131.19 174.34 131.6C174.93 132.91 176.74 136.91 192.97 138.71C194.32 138.86 195.8 138.94 197.36 138.94C210.77 138.94 228.44 133.38 232.35 129.06C232.54 128.85 232.83 128.75 233.12 128.79C233.4 128.84 233.65 129.03 233.76 129.29L238.26 139.73C238.36 139.97 238.35 140.24 238.23 140.47C238.19 140.55 233.89 148.52 229.2 156.39C219.47 172.69 217.57 172.69 216.66 172.69H216.65ZM194.33 140.53C197.89 142.37 202.49 149.54 208.43 159.23C211.54 164.31 215.41 170.62 216.67 170.99C218.91 170.53 228.48 154.99 236.55 140.03L232.69 131.07C227.24 135.5 210.67 140.63 197.37 140.63C196.32 140.63 195.31 140.6 194.34 140.53H194.33ZM173.22 133.13C172.07 138.24 170.56 157.91 170.94 162.88C171.73 161.9 172.98 160.18 174.19 158.5C180.39 149.91 186.79 141.5 191.41 140.23C177.73 138.52 174.37 135.1 173.22 133.13Z" fill="black"/>
<path d="M171.05 156.149C171.29 154.679 172.32 153.629 173.35 153.799C174.38 153.969 175.03 155.289 174.8 156.759C174.56 158.229 173.53 159.279 172.5 159.109C171.47 158.939 170.82 157.619 171.05 156.149Z" fill="black"/>
<path d="M214.36 162.659C214.36 161.179 215.57 159.969 217.05 159.969C218.53 159.969 219.74 161.179 219.74 162.659C219.74 164.139 218.53 165.349 217.05 165.349C215.57 165.349 214.36 164.139 214.36 162.659Z" fill="black"/>
<path d="M218 164.008C218.06 164.008 218.12 163.988 218.17 163.938C218.26 163.848 218.26 163.698 218.17 163.598L216.21 161.638C216.12 161.548 215.97 161.548 215.87 161.638C215.78 161.728 215.78 161.878 215.87 161.978L217.83 163.938C217.83 163.938 217.94 164.008 218 164.008Z" fill="black"/>
<path d="M216.04 164.008C215.98 164.008 215.92 163.988 215.87 163.938C215.78 163.848 215.78 163.698 215.87 163.598L217.83 161.638C217.92 161.548 218.07 161.548 218.17 161.638C218.26 161.728 218.26 161.878 218.17 161.978L216.21 163.938C216.21 163.938 216.1 164.008 216.04 164.008Z" fill="black"/>
<path d="M176.73 98.1484C176.73 98.1484 188 105.518 197.68 97.5684Z" fill="white"/>
<path d="M187.521 102.079C181.301 102.079 176.341 98.9086 176.261 98.8586C175.871 98.5986 175.761 98.0786 176.011 97.6886C176.271 97.2986 176.791 97.1886 177.181 97.4386C177.621 97.7286 188.061 104.369 197.131 96.9186C197.491 96.6186 198.031 96.6786 198.321 97.0386C198.621 97.3986 198.561 97.9386 198.201 98.2286C194.651 101.139 190.891 102.089 187.501 102.089L187.521 102.079Z" fill="black"/>
<path d="M199.09 100.079C198.82 100.079 198.55 99.9493 198.39 99.7093L195.85 95.9493C195.59 95.5593 195.69 95.0293 196.08 94.7693C196.47 94.5093 197 94.6093 197.26 94.9993L199.8 98.7593C200.06 99.1493 199.96 99.6793 199.57 99.9393C199.42 100.039 199.26 100.089 199.1 100.089L199.09 100.079Z" fill="black"/>
<path d="M181.78 106.82C181.78 106.82 179.76 111.73 183.8 114.62Z" fill="white"/>
<path d="M183.811 115.469C183.641 115.469 183.471 115.419 183.321 115.309C179.691 112.709 180.221 108.409 181.011 106.489C181.191 106.059 181.681 105.849 182.121 106.029C182.551 106.209 182.761 106.699 182.581 107.139C182.511 107.319 180.881 111.479 184.311 113.929C184.691 114.199 184.781 114.729 184.511 115.109C184.341 115.339 184.081 115.469 183.821 115.469H183.811Z" fill="black"/>
<path d="M202.3 86.4195C195.7 86.4195 190.32 80.5895 190.32 73.4295C190.32 66.2695 195.69 60.4395 202.3 60.4395C208.91 60.4395 214.28 66.2695 214.28 73.4295C214.28 80.5895 208.91 86.4195 202.3 86.4195ZM202.3 62.1395C196.63 62.1395 192.02 67.1995 192.02 73.4295C192.02 79.6595 196.63 84.7195 202.3 84.7195C207.97 84.7195 212.58 79.6595 212.58 73.4295C212.58 67.1995 207.97 62.1395 202.3 62.1395Z" fill="black"/>
<path d="M169.361 86.4195C162.761 86.4195 157.381 80.5895 157.381 73.4295C157.381 66.2695 162.751 60.4395 169.361 60.4395C175.971 60.4395 181.341 66.2695 181.341 73.4295C181.341 80.5895 175.971 86.4195 169.361 86.4195ZM169.361 62.1395C163.691 62.1395 159.081 67.1995 159.081 73.4295C159.081 79.6595 163.691 84.7195 169.361 84.7195C175.031 84.7195 179.641 79.6595 179.641 73.4295C179.641 67.1995 175.031 62.1395 169.361 62.1395Z" fill="black"/>
<path d="M191.181 75.0091C190.941 75.0091 190.691 74.9091 190.531 74.6991C190.511 74.6691 188.231 71.9691 185.401 71.9291C183.861 71.8891 182.411 72.6791 181.061 74.2091C180.751 74.5591 180.211 74.5991 179.861 74.2891C179.511 73.9791 179.471 73.7191 179.781 73.3691C181.451 71.4691 183.321 70.7891 185.331 70.7891H185.431C189.051 70.7891 191.721 73.7591 191.831 73.8991C192.131 74.2591 192.081 74.6591 191.721 74.9491C191.561 75.0791 191.371 75.0091 191.181 75.0091Z" fill="black"/>
<path d="M229.44 77.7891H213.31C212.84 77.7891 212.46 77.2591 212.46 76.7891C212.46 76.3191 212.84 75.7891 213.31 75.7891H229.44C229.91 75.7891 230.29 76.3191 230.29 76.7891C230.29 77.2591 229.91 77.7891 229.44 77.7891Z" fill="black"/>
<path d="M219.12 20.9204C212.26 21.9704 205.74 18.2104 200.8 24.8804C198.49 28.0004 196.71 31.4404 192.55 32.2504C190.49 32.6504 188.34 32.3304 186.36 31.6504C182.52 30.3404 174.99 26.4804 178.02 21.1804C178.99 19.4904 181 18.6904 182.91 18.2904C187.04 17.4304 191.27 17.8504 195.45 17.8904C198.74 17.9204 202.99 18.4604 205.7 16.1304C208.63 13.6104 208.67 7.25044 213.64 7.53044C217.17 7.73044 220.65 11.2804 222.08 14.3004C223.03 16.3104 222.9 19.1304 221.01 20.2904C220.45 20.6304 219.79 20.8004 219.14 20.9004L219.12 20.9204Z" fill="white"/>
<path d="M190.67 32.8598C189.26 32.8598 187.76 32.5898 186.21 32.0598C184.97 31.6398 178.71 29.3198 177.2 25.3298C176.66 23.8998 176.81 22.4298 177.64 20.9698C178.51 19.4498 180.25 18.4098 182.81 17.8798C184.62 17.4998 186.55 17.3398 189.06 17.3398C190.22 17.3398 191.39 17.3698 192.55 17.4098C193.51 17.4398 194.48 17.4698 195.43 17.4798C195.92 17.4798 196.42 17.4998 196.94 17.5198C197.58 17.5398 198.25 17.5598 198.91 17.5598C201.12 17.5598 203.63 17.3498 205.39 15.8298C206.4 14.9598 207.08 13.5298 207.73 12.1498C208.94 9.58976 210.19 6.92976 213.63 7.12976C217.29 7.33976 220.9 10.8998 222.43 14.1398C223.47 16.3398 223.3 19.3898 221.19 20.6798C220.51 21.0998 219.75 21.2498 219.16 21.3398C218.26 21.4798 217.3 21.5398 216.23 21.5398C215.01 21.5398 213.81 21.4498 212.64 21.3698C211.51 21.2898 210.44 21.2098 209.38 21.2098C206.59 21.2098 203.65 21.6798 201.1 25.1298C200.75 25.5998 200.41 26.0798 200.08 26.5498C198.22 29.1998 196.29 31.9398 192.59 32.6598C191.97 32.7798 191.31 32.8398 190.64 32.8398L190.67 32.8598ZM189.06 18.1898C186.6 18.1898 184.73 18.3498 182.98 18.7198C180.67 19.1998 179.12 20.0998 178.38 21.3998C177.68 22.6298 177.55 23.8498 178 25.0298C179.06 27.8498 183.24 30.1398 186.49 31.2498C188.64 31.9898 190.68 32.1898 192.46 31.8398C195.82 31.1798 197.57 28.6998 199.42 26.0698C199.76 25.5898 200.1 25.1098 200.45 24.6298C203.23 20.8798 206.54 20.3698 209.41 20.3698C210.5 20.3698 211.58 20.4498 212.73 20.5298C213.88 20.6098 215.07 20.6998 216.25 20.6998C217.28 20.6998 218.19 20.6398 219.05 20.5098C219.81 20.3898 220.33 20.2298 220.76 19.9598C222.43 18.9298 222.54 16.3298 221.67 14.5098C220.22 11.4498 216.79 8.16976 213.58 7.97976C210.73 7.80976 209.65 10.0898 208.5 12.5098C207.81 13.9698 207.09 15.4798 205.94 16.4698C203.96 18.1698 201.27 18.3998 198.9 18.3998C198.22 18.3998 197.55 18.3798 196.9 18.3598C196.39 18.3398 195.89 18.3298 195.41 18.3198C194.44 18.3198 193.48 18.2798 192.51 18.2498C191.36 18.2198 190.2 18.1798 189.04 18.1798L189.06 18.1898Z" fill="black"/>
<path d="M216.86 275.269C216.74 275.269 216.611 275.239 216.491 275.189C216.071 274.989 215.89 274.479 216.09 274.059L243.33 217.259L238.101 197.189C238.051 196.989 238.07 196.789 238.16 196.609L262.351 146.749C262.551 146.329 263.061 146.149 263.481 146.359C263.901 146.559 264.08 147.069 263.87 147.489L239.821 197.069L245.05 217.139C245.1 217.329 245.081 217.539 244.991 217.719L217.62 274.799C217.47 275.099 217.171 275.279 216.851 275.279L216.86 275.269Z" fill="white"/>
<path d="M136.441 265.3C136.031 265.3 135.671 265 135.601 264.58L127.541 211.11C127.511 210.89 127.561 210.67 127.691 210.49L140.311 192.83L148.341 144.22C148.421 143.76 148.861 143.44 149.321 143.52C149.781 143.6 150.101 144.03 150.021 144.5L141.961 193.3C141.941 193.43 141.891 193.55 141.811 193.65L129.281 211.19L137.291 264.32C137.361 264.78 137.041 265.22 136.581 265.29C136.541 265.29 136.491 265.29 136.451 265.29L136.441 265.3Z" fill="white"/>
<path d="M233.03 309.789C233.03 309.789 239.62 314.729 241.82 321.599L240.72 362.509L176.47 361.139L152.31 349.609L167.69 315.009L233.04 309.789H233.03Z" fill="white"/>
<path d="M240.72 363.359H240.7L176.45 361.989C176.33 361.989 176.21 361.959 176.1 361.909L151.94 350.379C151.53 350.179 151.34 349.689 151.53 349.269L166.91 314.669C167.04 314.389 167.31 314.189 167.62 314.169L232.97 308.949C233.18 308.929 233.38 308.989 233.55 309.119C233.83 309.329 240.38 314.309 242.64 321.349C242.67 321.439 242.68 321.539 242.68 321.629L241.58 362.539C241.57 362.999 241.19 363.369 240.73 363.369L240.72 363.359ZM176.67 360.289L239.9 361.639L240.97 321.719C239.08 315.999 233.96 311.619 232.77 310.659L168.25 315.809L153.41 349.189L176.66 360.289H176.67Z" fill="black"/>
<path d="M164.5 302.958L153.48 328.358C151.51 332.898 154.31 337.298 159.72 338.218C164.21 338.978 169.06 337.068 171.71 333.808C171.17 337.598 173.86 340.938 178.48 341.718C182.02 342.318 185.78 341.248 188.53 339.178C189.04 342.058 191.49 344.408 195.25 345.038C199.8 345.808 204.73 343.838 207.36 340.498C207.79 343.118 209.99 345.258 213.4 345.828C218.25 346.648 223.61 344.018 225.37 339.958L235.25 317.188C235.71 316.128 235.88 315.088 235.79 314.098C235.55 311.288 233.24 308.958 229.65 308.348C226.26 307.778 222.65 308.908 220.16 311.018C220.22 310.548 220.26 310.088 220.22 309.638C219.95 306.498 217.38 303.908 213.38 303.228C209.83 302.628 206.05 303.708 203.3 305.788C202.79 302.898 200.37 300.538 196.6 299.908C192.11 299.148 187.27 301.058 184.61 304.308C184.68 303.798 184.72 303.298 184.68 302.818C184.41 299.678 181.84 297.088 177.84 296.408C172.43 295.498 166.45 298.428 164.48 302.958H164.5Z" fill="white"/>
<path d="M215.22 346.828C214.56 346.828 213.9 346.778 213.27 346.668C210.25 346.158 207.97 344.498 206.98 342.188C204.5 344.578 200.85 346.058 197.26 346.058C196.53 346.058 195.81 345.998 195.12 345.878C191.64 345.288 189.03 343.298 188.03 340.558C185.16 342.338 181.55 343.098 178.35 342.558C174.27 341.868 171.41 339.208 170.89 335.878C168.44 337.988 165.09 339.248 161.73 339.248C161.01 339.248 160.28 339.188 159.59 339.068C156.56 338.558 154.11 336.958 152.88 334.688C151.79 332.668 151.73 330.308 152.71 328.028L163.73 302.628C165.55 298.438 170.64 295.398 175.85 295.398C176.58 295.398 177.31 295.458 178.01 295.578C182.08 296.268 184.96 298.858 185.5 302.238C187.95 300.138 191.28 298.898 194.64 298.898C195.37 298.898 196.09 298.958 196.78 299.078C200.25 299.668 202.85 301.668 203.85 304.418C206.72 302.628 210.34 301.858 213.56 302.398C217.74 303.108 220.67 305.818 221.08 309.328C223.66 307.718 226.9 307.018 229.83 307.508C233.7 308.158 236.39 310.718 236.67 314.018C236.77 315.178 236.56 316.358 236.06 317.518L226.18 340.288C224.54 344.068 219.93 346.818 215.24 346.818L215.22 346.828ZM207.37 339.648C207.44 339.648 207.51 339.648 207.58 339.678C207.91 339.758 208.15 340.028 208.21 340.368C208.59 342.728 210.64 344.508 213.56 344.998C214.1 345.088 214.66 345.138 215.23 345.138C219.28 345.138 223.23 342.818 224.62 339.628L234.5 316.858C234.89 315.958 235.05 315.058 234.98 314.178C234.77 311.678 232.63 309.718 229.55 309.198C229.02 309.108 228.46 309.058 227.91 309.058C225.32 309.058 222.71 310.008 220.75 311.678C220.48 311.908 220.1 311.938 219.8 311.778C219.49 311.608 219.32 311.278 219.36 310.928C219.41 310.528 219.45 310.108 219.42 309.728C219.18 306.888 216.77 304.668 213.28 304.078C210.12 303.538 206.5 304.468 203.86 306.478C203.62 306.658 203.31 306.698 203.04 306.588C202.76 306.478 202.57 306.238 202.51 305.948C202.05 303.288 199.74 301.308 196.51 300.758C195.91 300.658 195.28 300.608 194.65 300.608C191.09 300.608 187.43 302.278 185.32 304.868C185.08 305.168 184.67 305.258 184.32 305.108C183.97 304.958 183.77 304.588 183.82 304.208C183.89 303.688 183.91 303.278 183.88 302.908C183.64 300.068 181.23 297.848 177.74 297.268C177.13 297.168 176.5 297.108 175.86 297.108C171.3 297.108 166.86 299.718 165.3 303.308L154.28 328.708C153.51 330.498 153.54 332.328 154.38 333.878C155.36 335.688 157.37 336.968 159.88 337.388C160.48 337.488 161.11 337.538 161.74 337.538C165.3 337.538 168.96 335.868 171.08 333.278C171.32 332.978 171.73 332.878 172.08 333.038C172.43 333.188 172.63 333.558 172.58 333.938C172.09 337.348 174.59 340.198 178.65 340.888C181.8 341.418 185.41 340.498 188.05 338.508C188.28 338.328 188.6 338.288 188.87 338.398C189.14 338.508 189.34 338.748 189.4 339.038C189.87 341.678 192.18 343.658 195.43 344.208C196.03 344.308 196.66 344.358 197.29 344.358C200.93 344.358 204.63 342.638 206.73 339.978C206.89 339.768 207.14 339.658 207.4 339.658L207.37 339.648Z" fill="black"/>
<path d="M172.03 333.958C171.93 334.078 171.74 334.148 171.57 334.118C171.36 334.078 171.26 333.908 171.33 333.738L184.25 304.238C184.33 304.068 184.56 303.948 184.77 303.988C184.98 304.028 185.08 304.198 185.01 304.368L172.09 333.868C172.09 333.868 172.06 333.928 172.03 333.958Z" fill="black"/>
<path d="M188.85 339.328C188.75 339.448 188.57 339.518 188.41 339.488C188.2 339.458 188.08 339.298 188.15 339.118L195.22 320.888C195.28 320.708 195.52 320.598 195.73 320.618C195.94 320.648 196.06 320.808 195.99 320.988L188.92 339.218C188.92 339.218 188.88 339.288 188.86 339.318L188.85 339.328Z" fill="black"/>
<path d="M211.05 333.429C210.95 333.539 210.78 333.609 210.61 333.589C210.4 333.559 210.28 333.399 210.35 333.219L218.09 312.519C218.15 312.339 218.38 312.219 218.59 312.249C218.8 312.279 218.92 312.439 218.85 312.619L211.11 333.319C211.11 333.319 211.07 333.389 211.05 333.429Z" fill="black"/>
<path d="M207.681 340.648C207.581 340.758 207.421 340.828 207.261 340.818C207.051 340.798 206.921 340.638 206.971 340.468L207.891 337.538C207.951 337.358 208.171 337.228 208.381 337.248C208.591 337.268 208.721 337.428 208.671 337.598L207.751 340.528C207.751 340.528 207.711 340.618 207.681 340.648Z" fill="black"/>
<path d="M170.63 325.908C170.63 325.908 170.63 325.978 170.62 326.008L168.73 332.788C168.7 332.888 168.62 332.978 168.51 333.038C168.33 333.128 164.12 335.218 159.44 334.128C159.23 334.078 159.14 333.888 159.23 333.718C159.32 333.538 159.57 333.438 159.78 333.478C163.58 334.358 167.14 332.928 167.96 332.568L169.76 326.108C166.24 322.688 160.08 323.978 158.77 324.298L157.1 329.908C157.05 330.088 156.82 330.228 156.6 330.208C156.38 330.188 156.24 330.028 156.29 329.848L158.02 324.018C158.06 323.888 158.18 323.778 158.33 323.738C158.41 323.718 166.32 321.458 170.55 325.748C170.59 325.788 170.62 325.848 170.62 325.908H170.63Z" fill="black"/>
<path d="M188.45 331.199C188.45 331.199 188.45 331.269 188.43 331.299L185.92 338.019C185.88 338.119 185.79 338.209 185.68 338.259C185.5 338.339 181.14 340.189 176.64 338.799C176.44 338.729 176.37 338.539 176.47 338.369C176.58 338.189 176.83 338.109 177.03 338.169C180.69 339.289 184.34 338.069 185.18 337.749L187.57 331.349C184.43 327.679 178.24 328.599 176.91 328.839L174.73 334.399C174.66 334.579 174.43 334.709 174.21 334.669C173.99 334.639 173.87 334.459 173.94 334.289L176.21 328.519C176.26 328.389 176.39 328.289 176.55 328.249C176.63 328.229 184.65 326.449 188.4 331.039C188.44 331.089 188.46 331.139 188.46 331.199H188.45Z" fill="black"/>
<path d="M206.73 333.669C206.73 333.669 206.73 333.739 206.71 333.769L204.2 340.489C204.16 340.589 204.07 340.679 203.96 340.729C203.78 340.809 199.42 342.659 194.92 341.269C194.72 341.199 194.65 341.009 194.75 340.839C194.86 340.659 195.11 340.579 195.31 340.639C198.97 341.759 202.62 340.539 203.46 340.219L205.85 333.819C202.71 330.149 196.52 331.069 195.19 331.309L193.01 336.869C192.94 337.049 192.71 337.179 192.49 337.139C192.27 337.109 192.15 336.929 192.22 336.759L194.49 330.989C194.54 330.859 194.67 330.759 194.83 330.719C194.91 330.699 202.93 328.919 206.68 333.509C206.72 333.559 206.74 333.609 206.74 333.669H206.73Z" fill="black"/>
<path d="M225.21 334.739C225.21 334.739 225.21 334.799 225.19 334.829L222.81 341.189C222.78 341.289 222.69 341.369 222.58 341.419C222.41 341.499 218.28 343.239 214.02 341.929C213.83 341.869 213.76 341.679 213.86 341.529C213.96 341.359 214.2 341.279 214.39 341.339C217.85 342.399 221.31 341.249 222.11 340.949L224.38 334.879C221.41 331.409 215.54 332.269 214.28 332.509L212.21 337.779C212.14 337.949 211.92 338.069 211.71 338.039C211.5 338.009 211.39 337.839 211.46 337.679L213.61 332.209C213.66 332.089 213.78 331.989 213.93 331.959C214.01 331.939 221.6 330.249 225.15 334.599C225.19 334.649 225.21 334.699 225.2 334.759L225.21 334.739Z" fill="black"/>
<path d="M99.6606 187.781C100.641 181.311 103.311 161.341 99.9006 153.381C100.301 138.271 101.231 123.831 102.631 120.481C104.211 116.471 102.381 111.921 98.3706 110.351C94.3606 108.771 89.8106 110.601 88.2406 114.611C86.6606 118.621 85.6306 126.671 85.0906 135.551C78.7106 130.171 72.6006 126.461 72.6006 126.461C72.6006 126.461 28.7706 150.071 30.5706 161.511C31.0306 165.171 31.9006 169.461 35.7306 176.471C38.5606 186.091 37.4306 204.761 37.9906 216.081C58.6406 217.191 78.2106 214.511 98.5406 218.911C99.6706 203.351 99.6706 187.791 99.6706 187.791L99.6606 187.781Z" fill="white"/>
<path d="M98.5303 219.75C98.4703 219.75 98.4103 219.75 98.3503 219.73C87.6803 217.42 77.3103 217.1 67.6903 217.1C64.9003 217.1 62.1103 217.13 59.3103 217.16C56.4903 217.19 53.6603 217.22 50.8103 217.22C45.8303 217.22 41.7403 217.12 37.9303 216.92C37.5003 216.9 37.1503 216.55 37.1303 216.11C36.9603 212.68 36.9403 208.59 36.9203 204.27C36.8803 194.48 36.8403 183.4 34.9203 176.78C30.9603 169.52 30.1503 165.14 29.7103 161.6C27.8703 149.93 67.6403 128.14 72.1803 125.7C72.4403 125.56 72.7703 125.57 73.0203 125.72C73.0803 125.75 78.4503 129.04 84.3303 133.82C84.9603 124.7 86.0503 117.8 87.4303 114.29C88.7103 111.03 91.8303 108.93 95.3903 108.93C96.5103 108.93 97.6103 109.14 98.6603 109.55C103.03 111.27 105.16 116.31 103.4 120.78C102.21 123.63 101.19 136.04 100.73 153.21C104.01 161.22 101.67 180.02 100.49 187.84C100.49 188.95 100.44 204.05 99.3603 218.96C99.3403 219.21 99.2203 219.43 99.0203 219.58C98.8703 219.69 98.6903 219.75 98.5103 219.75H98.5303ZM67.6903 215.4C77.1103 215.4 87.2603 215.71 97.7503 217.87C98.8003 202.84 98.8103 187.93 98.8103 187.78C98.8103 187.74 98.8103 187.7 98.8103 187.65C99.7203 181.64 102.42 161.45 99.1003 153.71C99.0503 153.6 99.0303 153.48 99.0303 153.35C99.2003 146.71 99.9203 124.69 101.82 120.14C103.23 116.55 101.53 112.5 98.0303 111.13C97.1803 110.8 96.2903 110.63 95.3803 110.63C92.5203 110.63 90.0203 112.31 89.0003 114.92C87.6003 118.48 86.5003 125.82 85.9003 135.6C85.8803 135.92 85.6803 136.2 85.3903 136.33C85.0903 136.46 84.7503 136.41 84.5103 136.2C79.1903 131.72 74.0003 128.37 72.5303 127.44C60.2003 134.14 29.9903 152.59 31.3703 161.38C31.8003 164.8 32.5803 169.02 36.4403 176.07C36.4703 176.12 36.4903 176.18 36.5103 176.24C38.5203 183.07 38.5603 194.34 38.6003 204.28C38.6203 208.26 38.6303 212.04 38.7703 215.28C42.3303 215.46 46.1703 215.54 50.7903 215.54C53.6303 215.54 56.4503 215.51 59.2703 215.48C62.0803 215.45 64.8703 215.42 67.6703 215.42L67.6903 215.4Z" fill="black"/>
<path d="M73.8601 188.16C74.2801 187.91 74.3601 187.58 74.1201 187.17C60.4201 165.74 78.4501 151.5 79.1201 150.97C79.3701 150.68 79.4601 150.35 79.1701 150.1C78.8801 149.85 78.5501 149.76 78.3001 150.05C78.0901 150.17 58.6701 165.64 72.9901 188.11C73.2801 188.36 73.6101 188.45 73.8601 188.16Z" fill="black"/>
<path d="M65.1402 45.8996C73.6102 26.0596 96.6402 16.8196 116.49 25.2896C136.33 33.7596 145.57 56.7896 137.1 76.6396C128.63 96.4796 105.6 105.72 85.7502 97.2496C65.9102 88.7796 56.6702 65.7496 65.1402 45.8996ZM68.5502 47.3996C60.9002 65.3396 69.2602 86.2096 87.2102 93.8496C105.15 101.5 126.02 93.1396 133.66 75.1896C141.31 57.2496 132.95 36.3796 115 28.7396C97.0702 21.0596 76.1902 29.4496 68.5502 47.3996Z" fill="black"/>
<path d="M91.1306 98.3089L84.5706 95.8789L80.1406 107.839L86.7006 110.269L91.1306 98.3089Z" fill="black"/>
<path d="M89.6406 110.03L78.0706 105.75L66.6006 136.72L78.1706 141L89.6406 110.03Z" fill="black"/>
<path d="M77.8606 104.27L90.7706 109.05C90.9106 109.1 90.9806 109.25 90.9306 109.39L90.2806 111.15C90.2306 111.29 90.0806 111.36 89.9406 111.31L77.0306 106.53C76.8906 106.48 76.8206 106.33 76.8706 106.19L77.5206 104.43C77.5706 104.29 77.7206 104.22 77.8606 104.27Z" fill="black"/>
<path d="M50.5006 118.218L76.7706 128.068C81.4406 129.818 83.8006 135.028 82.0506 139.708C80.6806 143.598 76.7206 145.928 72.7306 145.598C76.2006 147.918 77.7306 152.208 76.1606 156.218C75.0106 159.278 72.3306 161.408 69.3806 161.878C71.5606 164.388 72.4406 167.808 71.0806 170.988C69.5506 174.838 65.7506 177.208 61.6006 176.838C63.5306 178.928 64.2906 182.138 63.1406 185.198C61.5206 189.378 56.8906 191.528 52.7106 189.908L29.1706 181.128C28.0506 180.658 27.1506 180.068 26.2806 179.318C24.0206 177.138 23.1406 173.728 24.2906 170.658C25.4006 167.758 28.0306 165.798 30.9406 165.488C30.4906 165.188 30.0306 164.898 29.7906 164.478C27.2406 162.048 26.2806 158.258 27.6806 154.908C28.8306 151.848 31.5106 149.718 34.4606 149.248C32.2806 146.738 31.4006 143.318 32.6006 140.098C33.9706 136.208 37.9306 133.878 41.9206 134.208C41.4706 133.908 41.0106 133.618 40.6006 133.158C38.0506 130.728 37.0906 126.938 38.4906 123.588C40.5706 118.998 45.8306 116.478 50.5006 118.228V118.218Z" fill="white"/>
<path d="M55.5706 191.299C54.4906 191.299 53.4207 191.099 52.4007 190.699L28.8707 181.919C27.6907 181.429 26.6906 180.799 25.7206 179.949C23.1106 177.429 22.2407 173.679 23.4907 170.359C24.4707 167.799 26.5807 165.829 29.1107 165.019C26.3107 162.279 25.4206 158.109 26.8906 154.589C27.9506 151.769 30.2207 149.609 32.9907 148.729C31.1607 146.019 30.7006 142.769 31.8006 139.799C33.0006 136.389 36.0606 133.959 39.6706 133.429C37.0806 130.739 36.2607 126.679 37.7007 123.249C39.4507 119.389 43.3507 116.809 47.4107 116.809C48.5707 116.809 49.7107 117.019 50.7907 117.419L77.0606 127.269C79.5306 128.189 81.4906 130.029 82.5906 132.429C83.6806 134.829 83.7706 137.519 82.8506 139.989C81.6506 143.399 78.5806 145.829 74.9606 146.349C77.5106 149.059 78.3406 152.959 76.9506 156.509C75.8806 159.349 73.6106 161.509 70.8506 162.389C72.7206 165.149 73.1006 168.399 71.8606 171.309C70.4206 174.929 67.1106 177.359 63.2906 177.669C64.6706 179.969 64.9306 182.829 63.9306 185.479C62.5806 188.949 59.2307 191.279 55.5807 191.279L55.5706 191.299ZM41.1607 135.029C37.6407 135.029 34.5206 137.179 33.3906 140.379C32.3606 143.169 33.0007 146.269 35.0907 148.699C35.2907 148.929 35.3507 149.259 35.2507 149.549C35.1407 149.839 34.8907 150.049 34.5907 150.099C31.8807 150.529 29.4806 152.539 28.4706 155.219C27.2406 158.159 28.0107 161.629 30.3707 163.879C30.4307 163.929 30.4807 163.999 30.5207 164.059C30.6607 164.299 31.0407 164.549 31.4007 164.789C31.7007 164.989 31.8507 165.349 31.7607 165.699C31.6807 166.049 31.3807 166.309 31.0207 166.339C28.3807 166.619 26.0407 168.429 25.0707 170.969C24.0607 173.649 24.7607 176.689 26.8607 178.709C27.6607 179.409 28.5107 179.939 29.4907 180.349L53.0007 189.119C53.8407 189.439 54.7006 189.609 55.5706 189.609C58.5306 189.609 61.2506 187.719 62.3406 184.899C63.3306 182.279 62.8006 179.409 60.9706 177.419C60.7306 177.159 60.6807 176.779 60.8307 176.469C60.9807 176.159 61.3206 175.969 61.6706 175.999C65.4506 176.339 68.9006 174.179 70.2906 170.689C71.4506 167.979 70.8706 164.899 68.7406 162.449C68.5406 162.219 68.4807 161.889 68.5807 161.599C68.6907 161.309 68.9406 161.099 69.2406 161.049C71.9506 160.619 74.3506 158.609 75.3606 155.929C76.7406 152.409 75.4707 148.459 72.2607 146.309C71.9407 146.099 71.8006 145.689 71.9306 145.319C72.0606 144.959 72.4207 144.729 72.8007 144.749C76.5507 145.069 80.0506 142.829 81.2506 139.429C82.0206 137.359 81.9506 135.139 81.0406 133.149C80.1406 131.159 78.5106 129.639 76.4706 128.869L50.2007 119.019C49.3107 118.689 48.3707 118.519 47.4107 118.519C44.0007 118.519 40.7306 120.699 39.2606 123.939C38.0506 126.829 38.8207 130.289 41.1807 132.549C41.5607 132.979 41.9407 133.219 42.3807 133.499C42.7107 133.709 42.8507 134.119 42.7207 134.489C42.5907 134.859 42.2406 135.089 41.8506 135.059C41.6206 135.039 41.4006 135.029 41.1706 135.029H41.1607Z" fill="black"/>
<path d="M72.8101 145.969C72.9801 146.009 73.1801 145.889 73.2301 145.729C73.2701 145.559 73.1501 145.359 72.9901 145.309L42.3301 133.969C42.1601 133.929 41.9601 134.049 41.9101 134.209C41.8701 134.379 41.9901 134.579 42.1501 134.629L72.8101 145.969Z" fill="black"/>
<path d="M72.8803 146.4C72.8803 146.4 72.7403 146.39 72.7003 146.38L42.0003 135.02C41.8503 134.98 41.6903 134.85 41.5803 134.67C41.4803 134.49 41.4403 134.28 41.4903 134.09C41.5703 133.76 41.9003 133.52 42.2503 133.52C42.2903 133.52 42.3903 133.53 42.4303 133.54L73.1303 144.9C73.4903 144.99 73.7403 145.43 73.6403 145.82C73.5503 146.15 73.2303 146.39 72.8803 146.39V146.4Z" fill="black"/>
<path d="M69.4604 162.248C69.6304 162.288 69.6704 162.128 69.8804 161.998C69.9204 161.828 69.8004 161.628 69.6404 161.578L51.1104 153.928C50.9404 153.888 50.7404 154.008 50.6904 154.178C50.6504 154.348 50.7704 154.548 50.9304 154.598L69.4604 162.248C69.4337 162.361 69.4337 162.361 69.4604 162.248Z" fill="black"/>
<path d="M69.4303 162.798C69.4303 162.798 69.3603 162.798 69.3203 162.788C69.1803 162.748 69.0803 162.658 69.0303 162.528L50.7703 154.988C50.6403 154.958 50.4703 154.828 50.3703 154.648C50.2703 154.468 50.2303 154.258 50.2803 154.068C50.3603 153.738 50.6903 153.498 51.0403 153.498C51.0803 153.498 51.1803 153.508 51.2203 153.518L69.8003 161.188C70.1403 161.268 70.4003 161.708 70.2903 162.108C70.2603 162.218 70.1903 162.308 70.0903 162.368C70.0503 162.388 70.0203 162.418 69.9903 162.458C69.9403 162.508 69.8703 162.568 69.7803 162.618C69.7003 162.728 69.5703 162.798 69.4303 162.798Z" fill="black"/>
<path d="M54.3504 174.769C54.5204 174.809 54.5604 174.649 54.7704 174.519C54.8104 174.349 54.6904 174.149 54.5304 174.099L33.6904 165.139C33.5204 165.099 33.3204 165.219 33.2704 165.389C33.2304 165.559 33.3504 165.759 33.5104 165.809L54.3504 174.769C54.2371 174.742 54.2371 174.742 54.3504 174.769Z" fill="black"/>
<path d="M54.4004 175.199C54.4004 175.199 54.3404 175.199 54.3004 175.199C54.2804 175.199 54.2604 175.199 54.2404 175.189L54.1204 175.159C54.0504 175.139 53.9904 175.109 53.9404 175.059L33.3504 166.209C33.2204 166.179 33.0604 166.049 32.9504 165.869C32.8504 165.689 32.8104 165.479 32.8604 165.289C32.9504 164.959 33.2704 164.719 33.6204 164.719C33.6604 164.719 33.7604 164.729 33.8004 164.739L54.7004 173.719C54.8304 173.749 54.9904 173.879 55.1004 174.059C55.2004 174.239 55.2404 174.449 55.1904 174.639C55.1604 174.749 55.0904 174.839 54.9904 174.899C54.9504 174.919 54.9204 174.949 54.8904 174.989C54.8004 175.069 54.6504 175.209 54.4104 175.209L54.4004 175.199Z" fill="black"/>
<path d="M61.8006 177.42C61.9706 177.46 62.0106 177.3 62.2206 177.17C62.2606 177 62.3106 176.84 61.9806 176.75L59.1706 175.31C59.0006 175.27 58.8406 175.22 58.7506 175.56C58.7106 175.73 58.6606 175.89 58.9906 175.98L61.8006 177.42Z" fill="black"/>
<path d="M61.8502 177.849C61.8502 177.849 61.7302 177.839 61.6902 177.829C61.6602 177.829 61.6302 177.809 61.6002 177.799L58.8302 176.379C58.5702 176.299 58.4002 176.149 58.3202 175.939C58.2502 175.749 58.3002 175.569 58.3202 175.459C58.4602 174.929 58.8302 174.869 58.9802 174.869C59.0902 174.869 59.1802 174.889 59.2502 174.909C59.2802 174.909 59.3102 174.929 59.3402 174.939L62.1102 176.359C62.3902 176.449 62.7702 176.669 62.6102 177.279C62.5802 177.389 62.5102 177.479 62.4102 177.539C62.3702 177.559 62.3402 177.589 62.3102 177.629C62.2202 177.709 62.0802 177.849 61.8302 177.849H61.8502Z" fill="black"/>
<path d="M101.92 205.318H29.21V252.278H101.92V205.318Z" fill="black"/>
<path d="M269.58 353.66H258.74V357.77H269.58V353.66Z" fill="black"/>
<path d="M255.941 353.66H245.101V357.77H255.941V353.66Z" fill="black"/>
<path d="M242.391 353.66H231.551V357.77H242.391V353.66Z" fill="black"/>
<path d="M229.32 353.66H218.48V357.77H229.32V353.66Z" fill="black"/>
<path d="M215.401 353.66H204.561V357.77H215.401V353.66Z" fill="black"/>
<path d="M202.32 353.66H191.48V357.77H202.32V353.66Z" fill="black"/>
<path d="M11.7105 240.94L169.57 243.04C172.41 243.08 174.82 245.13 175.32 247.92L195.12 359.06C195.76 362.68 192.99 366 189.32 366.02L32.5005 366.68C29.6305 366.69 27.1705 364.65 26.6505 361.83L5.80048 247.92C5.13048 244.25 7.97048 240.89 11.7005 240.94H11.7105Z" fill="#C6BCC6"/>
<path d="M32.4705 367.11C29.4105 367.11 26.7804 364.92 26.2304 361.91L5.39045 248C5.05045 246.14 5.55045 244.25 6.76045 242.8C7.97045 241.35 9.74045 240.52 11.6305 240.52H11.7205L169.58 242.62C172.62 242.66 175.21 244.86 175.74 247.85L195.54 358.99C195.87 360.84 195.37 362.72 194.17 364.17C192.97 365.61 191.2 366.44 189.33 366.45L32.4804 367.11H32.4705ZM11.7005 241.36C9.99045 241.36 8.45045 242.08 7.41045 243.34C6.36045 244.6 5.93045 246.24 6.23045 247.85L27.0704 361.76C27.5504 364.37 29.8205 366.27 32.4705 366.27V366.69L32.4905 366.27L189.31 365.61C190.94 365.61 192.47 364.88 193.51 363.63C194.55 362.38 194.98 360.75 194.7 359.15L174.9 248.01C174.44 245.42 172.19 243.52 169.56 243.48L11.7005 241.38V241.36Z" fill="black"/>
<path d="M195.001 358.94L175.201 247.8C174.701 245.01 172.291 242.96 169.451 242.92L11.5905 240.82C11.3905 240.82 11.2105 240.86 11.0205 240.88L164.59 242.93C167.43 242.97 169.84 245.02 170.34 247.81L190.141 358.95C190.791 362.57 188.01 365.89 184.34 365.91L32.1405 366.56C32.2205 366.56 32.2905 366.58 32.2905 366.58L189.191 365.92C192.861 365.9 195.641 362.58 194.991 358.96L195.001 358.94Z" fill="black"/>
<path d="M274.741 356.77L189.661 355.64L170.471 247.93C169.971 245.14 167.561 243.09 164.721 243.05L6.86063 240.95C3.13063 240.9 0.290632 244.27 0.960632 247.93L21.8006 361.84C22.3206 364.66 24.7806 366.71 27.6506 366.69L167.571 366.1L274.711 367.53C274.941 367.53 275.121 367.35 275.131 367.13L275.261 357.3C275.261 357.02 275.041 356.78 274.751 356.78L274.741 356.77Z" fill="#CCD7F2"/>
<path d="M274.7 368.789H274.68L167.54 367.149L27.6303 367.639C24.3303 367.639 21.5303 365.249 20.9403 362.039L0.110313 248.099C-0.249687 246.119 0.280314 244.429 1.57031 242.889C2.86031 241.339 4.75031 240.789 6.77031 240.789H6.86031L164.72 242.539C167.96 242.579 170.73 244.759 171.29 247.949L190.36 354.879L274.74 355.959C275.1 355.959 275.44 356.089 275.7 356.349C275.95 356.609 276.09 356.939 276.09 357.309L275.96 367.339C275.96 368.019 275.39 368.789 274.7 368.789ZM167.55 365.249L274.27 366.669L274.39 357.619L189.64 356.489C189.23 356.489 188.89 356.189 188.82 355.789L169.63 248.079C169.2 245.689 167.13 244.429 164.71 244.399L6.85031 242.799C5.27031 242.799 3.85031 242.959 2.89031 244.119C1.92031 245.279 1.53031 246.539 1.80031 248.029L22.6403 361.809C23.0803 364.219 25.1803 365.909 27.6303 365.909L167.57 365.249H167.55Z" fill="black"/>
<path d="M216.701 358.98H203.811V362.53H216.701V358.98Z" fill="black"/>
<path d="M216.701 359.449H203.811V360.849H216.701V359.449Z" fill="white"/>
<path d="M217.131 361.27H203.391V359.02H217.131V361.27ZM204.241 360.42H216.281V359.87H204.241V360.42Z" fill="black"/>
<path d="M265.06 363.429C266.109 363.429 266.96 362.578 266.96 361.529C266.96 360.48 266.109 359.629 265.06 359.629C264.011 359.629 263.16 360.48 263.16 361.529C263.16 362.578 264.011 363.429 265.06 363.429Z" fill="black"/>
<path d="M260.92 361.529C260.92 360.479 260.07 359.629 259.02 359.629C257.97 359.629 257.12 360.479 257.12 361.529C257.12 362.579 257.97 363.429 259.02 363.429C260.07 363.429 260.92 362.579 260.92 361.529Z" fill="black"/>
<path d="M81.3407 311.66C85.0007 313.54 89.5607 313.31 93.2907 311.55C98.9107 308.9 104.351 302.43 103.381 295.88C102.451 289.53 96.3207 285.36 90.3907 284.18C86.2207 283.35 81.6607 284.14 78.2707 286.7C70.3407 292.69 72.7107 306.89 81.0307 311.49C81.1307 311.55 81.2407 311.6 81.3407 311.66Z" fill="white"/>
<path d="M200.73 73.1602C200.73 71.2302 199.8 69.6602 198.66 69.6602C197.52 69.6602 196.59 71.2302 196.59 73.1602C196.59 75.0902 197.52 76.6602 198.66 76.6602C199.8 76.6602 200.73 75.0902 200.73 73.1602Z" fill="black"/>
<path d="M170.18 73.1602C170.18 71.2302 169.25 69.6602 168.11 69.6602C166.97 69.6602 166.04 71.2302 166.04 73.1602C166.04 75.0902 166.97 76.6602 168.11 76.6602C169.25 76.6602 170.18 75.0902 170.18 73.1602Z" fill="black"/>
<path d="M219.62 302.789C219.15 302.789 218.771 302.339 218.771 301.879C218.771 301.409 219.141 301.339 219.611 301.329L322.731 300.789C323.201 300.789 323.58 300.819 323.58 301.289C323.58 301.759 323.21 302.039 322.74 302.039L219.62 302.789Z" fill="black"/>
<path d="M284.55 301.79C284.11 301.79 283.73 301.45 283.7 301L281.15 264.08C281.12 263.61 281.47 263.21 281.94 263.17C282.41 263.14 282.81 263.49 282.85 263.96L285.4 300.88C285.43 301.35 285.08 301.75 284.61 301.79C284.59 301.79 284.57 301.79 284.55 301.79Z" fill="black"/>
<path d="M286.67 221.44C286.6 221.44 286.52 221.43 286.44 221.41C285.99 221.29 285.72 220.82 285.85 220.37C294.95 187.39 329.21 182.46 329.56 182.41C330.02 182.35 330.45 182.67 330.51 183.14C330.57 183.61 330.25 184.03 329.78 184.09C329.45 184.13 296.28 188.94 287.48 220.82C287.38 221.2 287.03 221.44 286.66 221.44H286.67Z" fill="black"/>
<path d="M79.0703 68.7881C82.5203 81.4781 95.6103 88.9681 108.3 85.5181C120.99 82.0681 128.47 68.9781 125.02 56.2881C124.13 53.0081 122.59 50.0681 120.57 47.5781L102.4 61.9281L78.2403 62.4281C78.2203 64.5281 78.4903 66.6681 79.0703 68.7881Z" fill="#4257FF"/>
<path d="M102.05 87.2083C90.9604 87.2083 81.1704 79.7283 78.2604 69.0083C77.6704 66.8283 77.3804 64.6083 77.4004 62.4183C77.4004 61.9583 77.7704 61.5883 78.2304 61.5783L102.1 61.0883L120.05 46.9183C120.42 46.6283 120.94 46.6883 121.24 47.0483C123.39 49.7083 124.94 52.7483 125.85 56.0683C129.42 69.1883 121.65 82.7683 108.54 86.3383C106.42 86.9183 104.23 87.2083 102.05 87.2083ZM79.1104 63.2583C79.1604 65.0283 79.4204 66.8083 79.9004 68.5683C82.6104 78.5483 91.7204 85.5083 102.05 85.5183C104.08 85.5183 106.11 85.2483 108.09 84.7083C120.3 81.3883 127.54 68.7383 124.21 56.5183C123.44 53.6983 122.17 51.0983 120.44 48.7783L102.94 62.5983C102.79 62.7083 102.62 62.7783 102.43 62.7783L79.1104 63.2583Z" fill="black"/>
<path d="M73.1106 58.4292L97.2606 57.9292L91.1406 35.4492C91.1406 35.4492 90.8206 35.5192 90.6606 35.5692C80.0906 38.4392 73.1406 47.9892 73.1006 58.4292H73.1106Z" fill="#4257FF"/>
<path d="M72.2607 59.2888V58.4188C72.3007 47.3788 79.7807 37.7388 90.4507 34.8288C90.9207 34.6988 91.0107 34.7688 91.1507 34.7688H91.8007L98.3707 58.8288L72.2607 59.2788V59.2888ZM90.5507 36.4788C81.0607 39.2388 74.3907 47.7688 73.9807 57.5588L96.1607 57.0988L90.5507 36.4788Z" fill="black"/>
<path d="M96.291 39.4492L102.411 61.9292L120.581 47.5792C114.921 40.5792 105.541 37.1392 96.291 39.4492Z" fill="black"/>
<path d="M102.401 62.7784C102.311 62.7784 102.221 62.7684 102.131 62.7384C101.861 62.6484 101.651 62.4284 101.581 62.1584L95.4607 39.6784C95.4007 39.4584 95.4307 39.2184 95.5507 39.0284C95.6707 38.8284 95.8607 38.6884 96.0807 38.6384C98.0507 38.1484 100.071 37.8984 102.081 37.8984C109.551 37.8984 116.541 41.2384 121.241 47.0584C121.381 47.2384 121.451 47.4584 121.421 47.6884C121.391 47.9184 121.281 48.1184 121.101 48.2584L102.921 62.6084C102.771 62.7284 102.581 62.7884 102.391 62.7884L102.401 62.7784ZM97.3407 40.0784L102.891 60.4684L119.371 47.4584C115.011 42.4484 108.751 39.5884 102.081 39.5884C100.491 39.5884 98.9007 39.7584 97.3407 40.0884V40.0784Z" fill="black"/>
<path d="M48.3602 91.2398L54.4602 89.2998L48.3602 87.2198C46.5402 86.7398 45.1402 85.2698 44.7502 83.4198L42.8102 74.2598L40.7302 83.2198C40.2902 85.1098 38.8002 86.5698 36.9002 86.9798L31.1602 88.9598L36.7002 90.9198C38.6402 91.3698 40.1302 92.9298 40.4802 94.8998L42.0802 103.76L44.4202 94.8898C44.9102 93.0098 46.4502 91.5898 48.3602 91.2498V91.2398Z" fill="black"/>
<path d="M329.24 149.359L333.37 148.049L329.23 146.639C327.99 146.309 327.05 145.319 326.78 144.069L325.47 137.859L324.06 143.939C323.76 145.219 322.75 146.209 321.46 146.489L317.57 147.829L321.33 149.159C322.65 149.469 323.65 150.519 323.89 151.849L324.98 157.859L326.56 151.849C326.89 150.579 327.94 149.619 329.23 149.379L329.24 149.359Z" fill="black"/>
<path d="M289.93 49.1885L298.54 46.4585L289.93 43.5185C287.35 42.8385 285.38 40.7685 284.83 38.1585L282.1 25.2285L279.17 37.8785C278.55 40.5485 276.44 42.6085 273.76 43.1785L265.65 45.9685L273.47 48.7285C276.21 49.3685 278.31 51.5685 278.81 54.3385L281.07 66.8485L284.37 54.3285C285.07 51.6785 287.23 49.6785 289.93 49.1885Z" fill="white"/>
<path d="M264.341 118.128C264.341 118.128 263.421 110.818 265.691 112.208C271.311 115.658 277.491 112.068 278.131 110.788C282.021 103.008 280.231 80.6582 290.721 80.6582C301.211 80.6582 296.421 101.038 302.111 105.538C307.811 110.038 315.601 89.3482 323.991 89.3482C332.381 89.3482 334.481 104.938 341.681 104.938C348.881 104.938 351.271 97.7482 358.771 96.5482V118.188L264.341 118.128Z" fill="white"/>
<path d="M262.371 78.3489C262.211 78.3489 262.051 78.2889 261.921 78.1789C261.651 77.9289 261.631 77.5089 261.881 77.2389L264.311 74.5889C264.441 74.4489 264.611 74.3789 264.801 74.3789C264.991 74.3789 265.161 74.4589 265.291 74.5989L267.501 77.0289C267.751 77.2989 267.731 77.7189 267.461 77.9689C267.191 78.2089 266.771 78.1889 266.531 77.9289L264.811 76.0389L262.881 78.1489C262.751 78.2889 262.571 78.3589 262.391 78.3589L262.371 78.3489Z" fill="black"/>
<path d="M364.981 116.089C364.981 115.929 365.041 115.769 365.151 115.639C365.401 115.369 365.821 115.349 366.091 115.599L368.741 118.029C368.881 118.159 368.951 118.329 368.951 118.519C368.951 118.709 368.871 118.879 368.731 119.009L366.301 121.219C366.031 121.469 365.611 121.449 365.361 121.179C365.121 120.909 365.131 120.489 365.401 120.249L367.291 118.529L365.181 116.599C365.041 116.469 364.971 116.289 364.971 116.109L364.981 116.089Z" fill="black"/>
<path d="M290.831 118.178C290.651 118.178 290.501 118.028 290.501 117.848V75.1484C290.501 74.9684 290.651 74.8184 290.831 74.8184C291.011 74.8184 291.161 74.9684 291.161 75.1484V117.848C291.161 118.028 291.011 118.178 290.831 118.178Z" fill="black"/>
<path d="M323.711 118.178C323.531 118.178 323.381 118.028 323.381 117.848V75.1484C323.381 74.9684 323.531 74.8184 323.711 74.8184C323.891 74.8184 324.041 74.9684 324.041 75.1484V117.848C324.041 118.028 323.891 118.178 323.711 118.178Z" fill="black"/>
<path d="M358.801 118.178C358.621 118.178 358.471 118.028 358.471 117.848V75.1484C358.471 74.9684 358.621 74.8184 358.801 74.8184C358.981 74.8184 359.131 74.9684 359.131 75.1484V117.848C359.131 118.028 358.981 118.178 358.801 118.178Z" fill="black"/>
<path d="M264.681 123.699C264.311 123.699 264.021 123.399 264.021 123.039V76.6991C264.021 76.3391 264.311 76.0391 264.681 76.0391C265.051 76.0391 265.341 76.3391 265.341 76.6991V123.039C265.341 123.409 265.051 123.699 264.681 123.699Z" fill="black"/>
<path d="M367.291 119.068H260.051C259.681 119.068 259.391 118.768 259.391 118.408C259.391 118.048 259.681 117.748 260.051 117.748H367.291C367.661 117.748 367.951 118.048 367.951 118.408C367.951 118.768 367.661 119.068 367.291 119.068Z" fill="black"/>
<path d="M292.06 79.3778C292.06 78.7578 291.56 78.2578 290.94 78.2578C290.32 78.2578 289.82 78.7578 289.82 79.3778C289.82 79.9978 290.32 80.4978 290.94 80.4978C291.56 80.4978 292.06 79.9978 292.06 79.3778Z" fill="white"/>
<path d="M290.941 80.9281C290.091 80.9281 289.391 80.2381 289.391 79.3781C289.391 78.5181 290.081 77.8281 290.941 77.8281C291.801 77.8281 292.491 78.5181 292.491 79.3781C292.491 80.2381 291.801 80.9281 290.941 80.9281ZM290.941 78.6781C290.551 78.6781 290.241 78.9881 290.241 79.3781C290.241 79.7681 290.551 80.0781 290.941 80.0781C291.331 80.0781 291.641 79.7681 291.641 79.3781C291.641 78.9881 291.331 78.6781 290.941 78.6781Z" fill="#2B2B2B"/>
<path d="M290.941 80.8175C290.151 80.8175 289.501 80.1775 289.501 79.3775C289.501 78.5775 290.141 77.9375 290.941 77.9375C291.741 77.9375 292.381 78.5775 292.381 79.3775C292.381 80.1775 291.741 80.8175 290.941 80.8175ZM290.941 78.5675C290.491 78.5675 290.131 78.9275 290.131 79.3775C290.131 79.8275 290.491 80.1875 290.941 80.1875C291.391 80.1875 291.751 79.8275 291.751 79.3775C291.751 78.9275 291.391 78.5675 290.941 78.5675Z" fill="black"/>
<path d="M324.74 88.9794C324.74 88.3594 324.24 87.8594 323.62 87.8594C323 87.8594 322.5 88.3594 322.5 88.9794C322.5 89.5994 323 90.0994 323.62 90.0994C324.24 90.0994 324.74 89.5994 324.74 88.9794Z" fill="white"/>
<path d="M323.62 90.5297C322.77 90.5297 322.07 89.8397 322.07 88.9797C322.07 88.1197 322.76 87.4297 323.62 87.4297C324.48 87.4297 325.17 88.1197 325.17 88.9797C325.17 89.8397 324.48 90.5297 323.62 90.5297ZM323.62 88.2797C323.23 88.2797 322.92 88.5897 322.92 88.9797C322.92 89.3697 323.23 89.6797 323.62 89.6797C324.01 89.6797 324.32 89.3697 324.32 88.9797C324.32 88.5897 324.01 88.2797 323.62 88.2797Z" fill="#2B2B2B"/>
<path d="M323.611 90.4093C322.821 90.4093 322.181 89.7693 322.181 88.9693C322.181 88.1693 322.821 87.5293 323.611 87.5293C324.401 87.5293 325.051 88.1693 325.051 88.9693C325.051 89.7693 324.411 90.4093 323.611 90.4093ZM323.611 88.1593C323.161 88.1593 322.801 88.5193 322.801 88.9693C322.801 89.4193 323.161 89.7793 323.611 89.7793C324.061 89.7793 324.421 89.4193 324.421 88.9693C324.421 88.5193 324.061 88.1593 323.611 88.1593Z" fill="black"/>
<path d="M358.49 97.488C359.109 97.488 359.61 96.9866 359.61 96.368C359.61 95.7495 359.109 95.248 358.49 95.248C357.872 95.248 357.37 95.7495 357.37 96.368C357.37 96.9866 357.872 97.488 358.49 97.488Z" fill="white"/>
<path d="M358.49 97.9184C357.64 97.9184 356.94 97.2284 356.94 96.3684C356.94 95.5084 357.63 94.8184 358.49 94.8184C359.35 94.8184 360.04 95.5084 360.04 96.3684C360.04 97.2284 359.35 97.9184 358.49 97.9184ZM358.49 95.6684C358.1 95.6684 357.79 95.9784 357.79 96.3684C357.79 96.7584 358.1 97.0684 358.49 97.0684C358.88 97.0684 359.19 96.7584 359.19 96.3684C359.19 95.9784 358.88 95.6684 358.49 95.6684Z" fill="#2B2B2B"/>
<path d="M358.491 97.8075C357.701 97.8075 357.061 97.1675 357.061 96.3775C357.061 95.5875 357.701 94.9375 358.491 94.9375C359.281 94.9375 359.931 95.5775 359.931 96.3775C359.931 97.1775 359.291 97.8075 358.491 97.8075ZM358.491 95.5575C358.041 95.5575 357.681 95.9175 357.681 96.3675C357.681 96.8175 358.041 97.1775 358.491 97.1775C358.941 97.1775 359.301 96.8175 359.301 96.3675C359.301 95.9175 358.941 95.5575 358.491 95.5575Z" fill="black"/>
</svg>
