<svg width="371" height="366" viewBox="0 0 371 366" fill="none" xmlns="http://www.w3.org/2000/svg">
<path d="M284.71 318.55C318.41 305.53 346.82 279.2 360.81 245.71C373.96 214.23 377.28 163.28 348.8 138.6C337.99 129.23 323.49 125.7 309.9 121.21C280.52 111.52 269.93 90.8699 256.82 64.5699C244.01 38.8899 226.58 24.3499 197.87 20.3499C155.45 14.4399 109.55 14.9599 71.8096 37.7299C34.9396 59.9799 22.7696 106.56 41.2596 145.04C53.7196 170.98 77.7996 190.99 85.4696 218.72C92.9296 245.69 85.9696 274.85 105.22 298.19C120.74 317 146.63 323.14 170.8 326.37C203.92 330.8 238.06 331.8 270.35 323.2C275.25 321.9 280.05 320.33 284.72 318.53L284.71 318.55Z" fill="#4257FF"/>
<path d="M136.561 78.5001C128.331 77.5901 120.891 83.5401 119.971 91.7701C119.051 100 125.011 107.44 133.241 108.36C141.471 109.27 148.911 103.32 149.831 95.0901C150.751 86.8601 144.791 79.4201 136.561 78.5001ZM146.051 94.6701C145.371 100.83 139.821 105.26 133.671 104.58C127.521 103.9 123.081 98.3501 123.761 92.2001C124.441 86.0401 129.991 81.6101 136.141 82.2901C142.291 82.9701 146.731 88.5201 146.051 94.6701Z" fill="white"/>
<path d="M154.13 90.2402L159.6 86.2502L157.25 80.5502L150.9 81.8102C150.81 81.6802 150.74 81.5402 150.65 81.4102C149.38 79.5902 147.87 78.0602 146.2 76.8102L147.51 70.3801L142.02 67.9102L138.21 73.2802C136.02 72.8602 133.76 72.8402 131.54 73.2102L128.15 68.0402L122.59 70.4302L123.58 76.5201C123.45 76.6101 123.32 76.6802 123.2 76.7802C121.44 78.1002 119.96 79.6802 118.76 81.4302L112.49 80.6502L110.46 86.5102L115.42 89.6402C115.01 91.9802 115 94.3802 115.39 96.7402L110.11 100.81L112.54 106.48L118.71 105.08C118.75 105.14 118.78 105.2 118.83 105.26C120.08 107.05 121.56 108.56 123.2 109.8L122.35 116.94L128.01 118.98L131.3 113.39C133.53 113.81 135.81 113.82 138.07 113.43L141.99 118.82L147.46 116.22L146.14 109.99C146.14 109.99 146.24 109.93 146.28 109.89C148.11 108.52 149.62 106.87 150.84 105.06L157.01 106.25L159.34 100.5L154.12 96.7001C154.46 94.5701 154.46 92.3902 154.14 90.2302L154.13 90.2402ZM151.09 95.2302C150.1 104.16 142.03 110.61 133.1 109.62C124.17 108.63 117.72 100.56 118.71 91.6301C119.7 82.7001 127.77 76.2502 136.7 77.2402C145.63 78.2302 152.09 86.3002 151.09 95.2302Z" fill="white"/>
<path d="M98.14 179.848L78.55 205.228L74.62 153.408C76.26 147.808 77.14 141.078 75.74 133.928C79.22 119.068 83.15 105.038 85.23 101.978C87.64 98.4182 86.71 93.5682 83.15 91.1482C79.59 88.7382 74.74 89.6682 72.32 93.2282C69.92 96.7682 67.28 104.628 64.86 113.298C59.6 106.748 54.34 101.778 54.34 101.778C54.34 101.778 6.01998 116.078 5.18998 127.558C4.72998 133.958 10.05 150.338 14.85 163.588C14.25 198.558 16.39 287.578 53.15 296.498C99.01 307.628 126.16 248.418 126.16 248.418L139.96 223.928L98.11 179.848H98.14Z" fill="white"/>
<path d="M64.5799 298.739C60.7599 298.739 56.8499 298.259 52.9799 297.319C15.9699 288.339 13.3999 201.029 14.0199 163.719C7.22993 144.969 3.97993 132.769 4.35993 127.489C5.20993 115.759 49.1099 102.439 54.1099 100.949C54.3999 100.869 54.7099 100.939 54.9299 101.149C54.9799 101.199 59.6099 105.589 64.4899 111.489C67.1799 102.059 69.5799 95.759 71.6199 92.749C73.2299 90.369 75.9099 88.959 78.7799 88.959C80.5099 88.959 82.1799 89.469 83.6199 90.449C87.5599 93.119 88.5999 98.509 85.9299 102.449C84.1299 105.099 80.4699 117.459 76.5999 133.949C77.7999 140.199 77.4199 146.779 75.4699 153.499L79.2199 202.959L97.4599 179.329C97.6099 179.129 97.8399 179.009 98.0899 178.999C98.3399 178.979 98.5799 179.079 98.7499 179.259L140.6 223.339C140.86 223.609 140.91 224.019 140.72 224.339L126.92 248.829C126.9 248.889 121.11 261.389 110.62 273.699C96.6699 290.079 80.7399 298.739 64.5699 298.739H64.5799ZM54.1199 102.729C40.5099 106.799 6.68993 118.789 6.04993 127.619C5.68993 132.609 9.00993 144.949 15.6599 163.299C15.6999 163.399 15.7099 163.499 15.7099 163.599C15.4299 179.959 15.7299 211.599 20.8399 239.659C26.9299 273.069 37.8699 291.919 53.3699 295.679C57.1099 296.589 60.8799 297.049 64.5699 297.049C102.5 297.049 125.19 248.559 125.41 248.069L138.94 224.069L98.1999 181.169L79.2199 205.759C79.0099 206.039 78.6399 206.149 78.2999 206.049C77.9599 205.949 77.7199 205.649 77.6999 205.299L73.7699 153.479C73.7699 153.379 73.7699 153.279 73.7999 153.179C75.7199 146.599 76.0899 140.179 74.8999 134.099C74.8799 133.979 74.8799 133.859 74.8999 133.739C78.0299 120.399 82.1899 104.929 84.5199 101.499C86.6699 98.329 85.8399 93.999 82.6699 91.849C81.5099 91.069 80.1699 90.649 78.7799 90.649C76.4699 90.649 74.3199 91.789 73.0199 93.699C70.9699 96.719 68.4999 103.389 65.6799 113.519C65.5899 113.829 65.3399 114.059 65.0299 114.119C64.7199 114.179 64.3999 114.069 64.1999 113.819C59.7999 108.349 55.3699 103.939 54.1099 102.719L54.1199 102.729Z" fill="#333333"/>
<path d="M50.3299 159.18C50.3299 159.18 50.3899 159.16 50.4199 159.15C50.7499 159.03 50.9199 158.65 50.7999 158.31C41.7299 134.3 62.4299 123.87 63.3199 123.43C63.6399 123.27 63.7799 122.88 63.6199 122.56C63.4599 122.24 63.0599 122.1 62.7499 122.26C62.5199 122.37 40.0899 133.63 49.5799 158.77C49.6999 159.07 50.0099 159.24 50.3199 159.17L50.3299 159.18Z" fill="#333333"/>
<path d="M87.6102 52.7393L83.1202 50.7593C81.0202 49.8293 78.5702 50.7793 77.6502 52.8793L25.6602 170.589C24.5202 173.169 25.6902 176.189 28.2702 177.329L31.0002 178.539C33.5802 179.679 36.6002 178.509 37.7402 175.929L89.7302 58.2193C90.6602 56.1193 89.7102 53.6693 87.6102 52.7493V52.7393Z" fill="#333333"/>
<path d="M82.4452 74.7239L70.3613 69.3867L68.1958 74.2898L80.2796 79.6269L82.4452 74.7239Z" fill="#333333"/>
<path d="M77.2799 49.941L68.1934 70.5137L83.058 77.0791L92.1445 56.5064L77.2799 49.941Z" fill="#CCD7F2"/>
<path d="M83.0602 77.9286C82.9402 77.9286 82.8302 77.9086 82.7202 77.8586L67.8602 71.2987C67.6502 71.2087 67.4902 71.0386 67.4102 70.8286C67.3302 70.6186 67.3302 70.3886 67.4302 70.1786L76.5202 49.5986C76.6102 49.3886 76.7802 49.2286 76.9902 49.1486C77.2002 49.0686 77.4302 49.0686 77.6402 49.1586L92.5002 55.7186C92.9302 55.9086 93.1202 56.4086 92.9302 56.8386L83.8402 77.4186C83.7502 77.6286 83.5802 77.7887 83.3702 77.8687C83.2702 77.9087 83.1702 77.9286 83.0602 77.9286ZM69.3202 70.0786L82.6302 75.9586L91.0302 56.9386L77.7202 51.0586L69.3202 70.0786Z" fill="#333333"/>
<path d="M92.0188 56.5705L77.209 50.0293L74.8778 55.3074L89.6875 61.8485L92.0188 56.5705Z" fill="#333333"/>
<path d="M112.88 48.0682L111.37 51.4882C111.1 52.0982 110.39 52.3682 109.78 52.1082C107.04 50.8982 105.8 47.6882 107.01 44.9482L107.1 44.7482L75.9098 30.9682L75.8198 31.1682C74.6098 33.9082 71.3998 35.1482 68.6598 33.9382L67.3498 33.3582C66.7398 33.0882 66.4698 32.3782 66.7298 31.7682L68.2298 28.3782C68.5798 27.5982 68.2298 26.6782 67.4398 26.3382L63.8998 24.7782C63.1198 24.4282 62.1998 24.7782 61.8598 25.5682L54.9598 41.1882C54.6098 41.9682 54.9598 42.8882 55.7498 43.2282L59.2898 44.7882C60.0698 45.1382 60.9898 44.7882 61.3298 43.9982L62.8298 40.6082C63.0998 39.9982 63.8098 39.7282 64.4198 39.9882L65.7298 40.5682C68.4698 41.7782 69.7098 44.9882 68.4998 47.7282L68.4098 47.9282L99.5998 61.7082L99.6898 61.5082C100.9 58.7682 104.11 57.5282 106.85 58.7382C107.46 59.0082 107.73 59.7182 107.47 60.3282L105.96 63.7482C105.62 64.5182 105.96 65.4082 106.73 65.7482L110.32 67.3382C111.09 67.6782 111.98 67.3382 112.32 66.5582L119.25 50.8782C119.59 50.1082 119.25 49.2182 118.47 48.8782L114.88 47.2882C114.11 46.9482 113.22 47.2882 112.88 48.0682Z" fill="#CCD7F2"/>
<path d="M110.94 68.3088C110.61 68.3088 110.29 68.2388 109.98 68.1088L106.39 66.5188C105.2 65.9888 104.65 64.5888 105.18 63.3988L106.69 59.9788C106.74 59.8588 106.72 59.7588 106.69 59.7088C106.66 59.6588 106.62 59.5588 106.5 59.5088C105.91 59.2488 105.29 59.1188 104.65 59.1188C102.84 59.1188 101.19 60.1888 100.46 61.8488L100.37 62.0488C100.28 62.2588 100.11 62.4188 99.9001 62.4988C99.6901 62.5788 99.46 62.5788 99.25 62.4888L68.06 48.7088C67.85 48.6188 67.69 48.4488 67.61 48.2388C67.53 48.0288 67.53 47.7988 67.63 47.5888L67.72 47.3888C68.74 45.0788 67.69 42.3688 65.38 41.3488L64.07 40.7688C63.89 40.6888 63.68 40.7688 63.6 40.9488L62.1 44.3388C61.72 45.2088 60.86 45.7688 59.91 45.7688C59.58 45.7688 59.25 45.6988 58.94 45.5688L55.4001 44.0088C54.8101 43.7488 54.3601 43.2788 54.1301 42.6788C53.9001 42.0788 53.91 41.4288 54.17 40.8488L61.07 25.2288C61.45 24.3588 62.31 23.7988 63.26 23.7988C63.59 23.7988 63.9201 23.8688 64.2301 23.9988L67.77 25.5588C68.36 25.8188 68.8 26.2888 69.04 26.8888C69.27 27.4888 69.26 28.1388 69 28.7188L67.5 32.1088C67.45 32.2288 67.47 32.3288 67.5 32.3788C67.53 32.4288 67.5701 32.5288 67.6901 32.5788L69 33.1588C69.59 33.4188 70.21 33.5488 70.85 33.5488C72.66 33.5488 74.3101 32.4788 75.0401 30.8188L75.13 30.6188C75.22 30.4088 75.39 30.2488 75.6 30.1688C75.81 30.0888 76.04 30.0888 76.25 30.1888L107.44 43.9688C107.87 44.1588 108.06 44.6588 107.87 45.0888L107.78 45.2888C107.29 46.4088 107.26 47.6488 107.7 48.7988C108.14 49.9388 109 50.8388 110.12 51.3388C110.3 51.4188 110.51 51.3388 110.59 51.1588L112.1 47.7388C112.48 46.8788 113.33 46.3288 114.26 46.3288C114.59 46.3288 114.91 46.3988 115.22 46.5288L118.81 48.1188C119.39 48.3788 119.83 48.8388 120.06 49.4288C120.29 50.0188 120.27 50.6588 120.02 51.2388L113.09 66.9188C112.71 67.7788 111.86 68.3288 110.93 68.3288L110.94 68.3088ZM104.66 57.4288C105.54 57.4288 106.39 57.6088 107.19 57.9688C107.69 58.1888 108.08 58.5888 108.28 59.1088C108.48 59.6188 108.46 60.1788 108.24 60.6788L106.73 64.0988C106.58 64.4388 106.73 64.8288 107.07 64.9788L110.66 66.5688C110.99 66.7188 111.4 66.5588 111.54 66.2288L118.47 50.5488C118.54 50.3888 118.55 50.2088 118.48 50.0388C118.42 49.8688 118.29 49.7388 118.13 49.6688L114.54 48.0788C114.21 47.9288 113.8 48.0888 113.66 48.4188L112.15 51.8388C111.71 52.8488 110.45 53.3288 109.44 52.8888C107.91 52.2088 106.73 50.9788 106.12 49.4088C105.59 48.0388 105.55 46.5688 106.01 45.1888L76.31 32.0688C75.2 34.0188 73.12 35.2488 70.84 35.2488C69.96 35.2488 69.11 35.0688 68.31 34.7088L67 34.1288C66.5 33.9088 66.1101 33.5088 65.9101 32.9888C65.7101 32.4788 65.72 31.9188 65.95 31.4188L67.45 28.0288C67.53 27.8588 67.53 27.6688 67.46 27.4988C67.39 27.3288 67.26 27.1888 67.09 27.1088L63.55 25.5488C63.2 25.3888 62.78 25.5688 62.63 25.9088L55.73 41.5288C55.65 41.6988 55.6501 41.8888 55.7201 42.0588C55.7901 42.2288 55.92 42.3688 56.09 42.4488L59.6301 44.0088C59.9801 44.1688 60.4 43.9988 60.55 43.6488L62.05 40.2588C62.49 39.2488 63.7501 38.7588 64.7601 39.2088L66.07 39.7888C69.04 41.0988 70.49 44.4588 69.5 47.4888L99.2 60.6088C100.31 58.6588 102.39 57.4288 104.67 57.4288H104.66Z" fill="#333333"/>
<path d="M100.69 48.5686L76.2996 37.7986C75.4896 37.4386 75.1196 36.4886 75.4796 35.6786C75.8396 34.8686 76.7896 34.4986 77.5996 34.8586L101.99 45.6286C102.8 45.9886 103.17 46.9386 102.81 47.7486C102.45 48.5586 101.5 48.9286 100.69 48.5686Z" fill="white"/>
<path d="M47.9502 86.1084L65.0102 103.948C68.0502 107.138 67.6602 112.568 64.1302 116.088C61.2102 119.008 57.0602 119.668 53.9902 117.998C55.7502 121.208 55.0402 125.598 52.0302 128.618C49.7202 130.928 46.6602 131.808 43.9502 131.278C44.6302 134.178 43.7302 137.538 41.2802 139.998C38.3202 142.958 34.0902 143.598 31.0102 141.838C31.6602 144.458 30.8602 147.508 28.6302 149.728C25.4702 152.888 20.7002 153.138 17.9702 150.288L2.68016 134.298C1.97016 133.558 1.47016 132.678 1.17016 131.728C0.320157 129.028 1.12016 125.748 3.46016 123.408C5.67016 121.198 8.65016 120.448 11.1902 121.148C10.9802 120.748 10.7802 120.348 10.6502 119.908C9.70016 116.898 10.6002 113.238 13.2102 110.628C15.5202 108.318 18.6102 107.428 21.3202 107.978C20.6302 105.078 21.5102 101.708 23.9602 99.2584C26.8802 96.3384 31.0302 95.6884 34.1002 97.3484C33.8702 96.9184 33.6602 96.4784 33.5102 96.0084C32.5602 92.9984 33.4602 89.3384 36.0602 86.7284C39.5802 83.2084 44.9102 82.9284 47.9502 86.1084Z" fill="white"/>
<path d="M22.7599 153.119C20.6699 153.119 18.7499 152.319 17.3599 150.869L2.06993 134.879C1.28993 134.059 0.709933 133.089 0.369933 131.979C-0.600067 128.889 0.379933 125.289 2.86993 122.809C4.74993 120.929 7.32993 119.909 9.80993 120.059C8.79993 116.679 9.88993 112.749 12.6099 110.029C14.6899 107.949 17.5399 106.819 20.2899 106.989C19.9799 104.009 21.0999 100.909 23.3599 98.6586C25.2999 96.7186 27.8899 95.5986 30.4599 95.5986C31.1799 95.5986 31.8999 95.6886 32.5799 95.8586C31.7199 92.5486 32.8199 88.7786 35.4599 86.1386C37.4199 84.1786 40.0299 83.0586 42.6099 83.0586C44.9199 83.0586 47.0299 83.9386 48.5599 85.5386L65.6199 103.379C68.9699 106.889 68.5699 112.869 64.7299 116.709C62.7899 118.649 60.1999 119.769 57.6299 119.769C56.8999 119.769 56.1799 119.679 55.4899 119.509C56.3599 122.789 55.3099 126.549 52.6299 129.239C50.5499 131.319 47.7199 132.439 44.9699 132.279C45.2699 135.249 44.1399 138.349 41.8799 140.609C39.9299 142.559 37.3399 143.669 34.7699 143.669C33.8399 143.669 32.9199 143.519 32.0699 143.239C32.1999 145.789 31.1799 148.399 29.2399 150.339C27.4699 152.109 25.1099 153.129 22.7599 153.129V153.119ZM9.30993 121.739C7.41993 121.739 5.51993 122.559 4.07993 123.999C2.02993 126.039 1.21993 128.969 1.99993 131.459C2.26993 132.309 2.70993 133.069 3.30993 133.689L18.5999 149.679C19.6599 150.789 21.1499 151.399 22.7699 151.399C24.6699 151.399 26.5899 150.559 28.0499 149.109C29.9799 147.179 30.7999 144.459 30.1999 142.019C30.1199 141.689 30.2399 141.339 30.5099 141.139C30.7799 140.939 31.1499 140.909 31.4399 141.079C32.4299 141.639 33.5799 141.939 34.7799 141.939C36.9099 141.939 39.0599 141.009 40.6899 139.379C42.8399 137.229 43.7799 134.189 43.1299 131.459C43.0599 131.179 43.1499 130.879 43.3499 130.679C43.5499 130.469 43.8399 130.379 44.1299 130.439C46.6299 130.929 49.4599 129.999 51.4399 128.009C54.1299 125.319 54.8799 121.369 53.2599 118.399C53.0799 118.069 53.1399 117.659 53.3999 117.389C53.6699 117.119 54.0799 117.069 54.4099 117.239C55.3699 117.759 56.4899 118.039 57.6399 118.039C59.7599 118.039 61.9199 117.109 63.5399 115.479C66.7299 112.289 67.1199 107.369 64.3999 104.519L47.3499 86.6786C46.1399 85.4186 44.4699 84.7286 42.6299 84.7286C40.4899 84.7286 38.3199 85.6686 36.6799 87.3186C34.3699 89.6286 33.4499 92.9286 34.3299 95.7386C34.4399 96.0986 34.6099 96.4786 34.8499 96.9186C35.0299 97.2486 34.9699 97.6586 34.6999 97.9286C34.4299 98.1986 34.0199 98.2486 33.6899 98.0786C32.7299 97.5586 31.6099 97.2786 30.4599 97.2786C28.3399 97.2786 26.1799 98.2086 24.5599 99.8386C22.4199 101.979 21.4899 105.019 22.1399 107.769C22.2099 108.049 22.1299 108.349 21.9199 108.559C21.7199 108.769 21.4299 108.859 21.1399 108.799C18.6399 108.289 15.7899 109.229 13.7999 111.219C11.4899 113.529 10.5699 116.829 11.4499 119.639C11.5699 120.019 11.7499 120.389 11.9299 120.729C12.0899 121.029 12.0499 121.389 11.8399 121.659C11.6299 121.919 11.2799 122.039 10.9499 121.949C10.4199 121.799 9.84993 121.729 9.27993 121.729L9.30993 121.739Z" fill="#333333"/>
<path d="M53.8197 118.298C53.9397 118.358 54.0897 118.328 54.1997 118.218C54.3397 118.078 54.3497 117.868 54.2297 117.748L34.3397 97.0978C34.2197 96.9778 34.0197 96.9878 33.8797 97.1178C33.7397 97.2578 33.7297 97.4678 33.8497 97.5878L53.7397 118.238C53.7397 118.238 53.7897 118.278 53.8097 118.298H53.8197Z" fill="#333333"/>
<path d="M43.7703 131.578C43.8803 131.638 44.0303 131.608 44.1403 131.508C44.2803 131.378 44.3003 131.168 44.1903 131.038L32.5503 117.818C32.4403 117.688 32.2303 117.698 32.0903 117.818C31.9503 117.948 31.9303 118.158 32.0403 118.288L43.6803 131.508C43.6803 131.508 43.7303 131.558 43.7603 131.568L43.7703 131.578Z" fill="#333333"/>
<path d="M25.8201 137.178C25.9301 137.238 26.0801 137.208 26.1901 137.108C26.3301 136.978 26.3601 136.768 26.2501 136.638L13.2401 121.478C13.1301 121.338 12.9301 121.348 12.7801 121.478C12.6401 121.608 12.6101 121.818 12.7201 121.948L25.7301 137.108C25.7301 137.108 25.7801 137.158 25.8101 137.178H25.8201Z" fill="#333333"/>
<path d="M30.8397 142.129C30.9497 142.179 31.0897 142.169 31.1997 142.069C31.3497 141.949 31.3797 141.739 31.2797 141.599L29.5697 139.369C29.4597 139.229 29.2597 139.219 29.1197 139.349C28.9697 139.469 28.9397 139.679 29.0397 139.819L30.7497 142.049C30.7497 142.049 30.8097 142.109 30.8397 142.129Z" fill="#333333"/>
<path d="M51.9001 110.218C51.9001 110.218 51.9301 110.278 51.9401 110.298L55.7401 115.588C55.8001 115.668 55.8901 115.708 55.9901 115.708C56.1501 115.708 59.9101 115.528 62.8401 112.208C62.9701 112.058 62.9701 111.838 62.8401 111.728C62.7101 111.608 62.5001 111.638 62.3601 111.788C59.9701 114.478 56.9201 114.938 56.2001 115.008L52.5801 109.968C53.8501 105.088 58.7001 103.208 59.7601 102.848L62.9801 107.178C63.0801 107.318 63.2901 107.338 63.4501 107.208C63.6001 107.078 63.6401 106.858 63.5401 106.728L60.2001 102.238C60.1301 102.138 60.0001 102.098 59.8701 102.138C59.8001 102.158 53.3501 104.018 51.9001 110.048C51.8901 110.108 51.8901 110.168 51.9001 110.228V110.218Z" fill="#333333"/>
<path d="M41.1196 123.918C41.1196 123.918 41.1496 123.978 41.1696 123.998L45.3896 128.918C45.4496 128.988 45.5496 129.028 45.6496 129.018C45.8096 128.998 49.5796 128.538 52.2896 125.028C52.4096 124.868 52.3896 124.658 52.2596 124.548C52.1196 124.438 51.9096 124.488 51.7796 124.638C49.5796 127.488 46.5396 128.178 45.8196 128.308L41.7996 123.618C42.7096 118.698 47.4496 116.458 48.4896 116.028L52.0596 120.048C52.1796 120.178 52.3896 120.178 52.5296 120.048C52.6796 119.908 52.6896 119.688 52.5796 119.568L48.8696 115.398C48.7896 115.308 48.6596 115.278 48.5296 115.318C48.4696 115.338 42.1096 117.678 41.0996 123.758C41.0996 123.818 41.0996 123.878 41.1196 123.938V123.918Z" fill="#333333"/>
<path d="M28.98 135.258C28.98 135.258 29.01 135.318 29.03 135.338L33.25 140.258C33.31 140.328 33.41 140.368 33.51 140.358C33.67 140.338 37.44 139.878 40.15 136.368C40.27 136.208 40.25 135.998 40.12 135.888C39.98 135.778 39.77 135.828 39.64 135.978C37.44 138.828 34.4 139.518 33.68 139.648L29.66 134.958C30.57 130.038 35.31 127.798 36.35 127.368L39.92 131.388C40.04 131.518 40.25 131.518 40.39 131.388C40.54 131.248 40.55 131.028 40.44 130.908L36.73 126.738C36.65 126.648 36.52 126.618 36.39 126.658C36.33 126.678 29.97 129.018 28.96 135.098C28.96 135.158 28.96 135.218 28.98 135.278V135.258Z" fill="#333333"/>
<path d="M16.2102 145.399C16.2102 145.399 16.2402 145.449 16.2602 145.469L20.2602 150.129C20.3202 150.199 20.4102 150.229 20.5102 150.219C20.6602 150.199 24.2302 149.759 26.8002 146.439C26.9102 146.289 26.8902 146.089 26.7702 145.989C26.6302 145.889 26.4402 145.929 26.3202 146.079C24.2402 148.779 21.3602 149.429 20.6702 149.549L16.8602 145.109C17.7202 140.449 22.2102 138.329 23.1902 137.919L26.5702 141.729C26.6802 141.859 26.8802 141.849 27.0202 141.729C27.1602 141.599 27.1802 141.389 27.0702 141.269L23.5602 137.319C23.4802 137.229 23.3602 137.199 23.2402 137.249C23.1802 137.269 17.1602 139.489 16.2002 145.239C16.2002 145.299 16.2002 145.359 16.2202 145.409L16.2102 145.399Z" fill="#333333"/>
<path d="M334.37 233.88C334.37 233.88 333.96 221.71 329.99 212.43C326.02 203.16 320.3 180.08 312.35 163.29C304.4 146.51 249.13 127.59 249.13 127.59C249.13 127.59 247.81 120.09 246.04 117C244.28 113.91 237.65 114.8 237.65 114.8C237.65 114.8 208.06 118.34 198.34 114.8C188.62 111.27 183.77 120.1 183.77 120.1C183.77 120.1 133.43 124.63 121.5 135.67C120.72 136.39 119.98 137.14 119.25 137.91C115.38 142.04 112.19 146.93 109.45 151.87C109.15 152.4 108.86 152.93 108.58 153.46C104.38 161.31 101.27 169.08 98.3501 173.95C93.0501 182.78 80.8701 196.51 80.8701 196.51L99.2901 210.38L117.57 224.52C117.57 224.52 111.92 262.16 106.5 303.12C102.49 335.41 103.11 361.92 103.11 361.92L267.67 364.3L263.81 251.1C274.59 249.29 342.06 238.28 334.35 233.89L334.37 233.88Z" fill="#333333"/>
<path d="M169.65 365.17C169.65 365.17 169.56 365.17 169.51 365.16C169.05 365.08 168.74 364.65 168.81 364.19L206.2 136.46C206.28 136 206.71 135.69 207.17 135.76C207.63 135.84 207.94 136.27 207.87 136.73L170.48 364.46C170.41 364.87 170.05 365.17 169.65 365.17Z" fill="white"/>
<path d="M237.66 117.679C242.3 117.679 243.84 119.889 243.18 121.649C242.52 123.409 227.5 132.249 227.5 132.249L195.92 126.949C195.92 126.949 189.07 119.439 190.84 117.679C192.61 115.909 197.46 115.689 197.46 115.689L237.65 117.679H237.66Z" fill="#333333"/>
<path d="M220.88 161.799C220.82 161.799 220.77 161.799 220.71 161.779C220.47 161.729 220.26 161.579 220.14 161.369L206.69 137.689L180.17 150.449C179.91 150.579 179.59 150.559 179.35 150.399C179.1 150.239 178.96 149.969 178.96 149.669C178.96 149.509 179.23 133.949 182.96 119.879C183.08 119.429 183.55 119.159 184 119.279C184.45 119.399 184.72 119.859 184.6 120.309C181.56 131.759 180.85 144.229 180.69 148.319L206.67 135.819C207.07 135.629 207.55 135.779 207.77 136.159L221.12 159.669C225.32 156.349 245.43 139.899 248.31 127.409C248.41 126.959 248.87 126.669 249.32 126.779C249.78 126.889 250.06 127.339 249.95 127.789C246.61 142.269 222.4 160.829 221.37 161.619C221.22 161.729 221.04 161.789 220.86 161.789L220.88 161.799Z" fill="white"/>
<path d="M268.81 182.45C268.57 182.45 268.33 182.35 268.16 182.15C267.86 181.79 267.91 181.26 268.27 180.96C285.95 166.22 305.1 165.46 305.29 165.45C305.75 165.43 306.15 165.8 306.16 166.27C306.17 166.74 305.81 167.13 305.34 167.14C305.15 167.14 286.56 167.91 269.35 182.25C269.19 182.38 269 182.45 268.81 182.45Z" fill="white"/>
<path d="M257.53 245.489C257.12 245.489 256.76 245.189 256.69 244.769L252.72 219.159C252.65 218.699 252.96 218.269 253.43 218.189C253.89 218.119 254.32 218.439 254.4 218.899L258.37 244.509C258.44 244.969 258.13 245.399 257.66 245.479C257.62 245.479 257.57 245.479 257.53 245.479V245.489Z" fill="white"/>
<path d="M134.01 163.83C133.54 163.83 133.16 163.45 133.16 162.98C133.16 157.46 127.53 142.23 127.47 142.08C127.31 141.64 127.53 141.16 127.97 140.99C128.41 140.83 128.9 141.05 129.06 141.49C129.3 142.13 134.85 157.16 134.85 162.98C134.85 163.45 134.47 163.83 134 163.83H134.01Z" fill="white"/>
<path d="M210.62 171.719C208.57 171.719 206.9 170.049 206.9 167.999C206.9 165.949 208.57 164.279 210.62 164.279C212.67 164.279 214.34 165.949 214.34 167.999C214.34 170.049 212.67 171.719 210.62 171.719ZM210.62 165.979C209.5 165.979 208.6 166.889 208.6 167.999C208.6 169.109 209.51 170.019 210.62 170.019C211.73 170.019 212.64 169.109 212.64 167.999C212.64 166.889 211.73 165.979 210.62 165.979Z" fill="white"/>
<path d="M190.96 59.9793C190.96 59.9793 181.57 46.6193 174.06 55.8893C166.56 65.1593 173.96 77.1093 184.2 78.6893" fill="white"/>
<path d="M184.21 79.5294C184.21 79.5294 184.12 79.5294 184.08 79.5194C178.29 78.6294 173.2 74.5694 171.11 69.1694C169.28 64.4394 170.12 59.4094 173.4 55.3494C175.4 52.8794 177.72 51.6694 180.3 51.7694C186.3 51.9694 191.44 59.1894 191.65 59.4894C191.92 59.8694 191.83 60.3994 191.44 60.6694C191.06 60.9394 190.53 60.8494 190.26 60.4594C190.21 60.3894 185.39 53.6294 180.24 53.4594C178.22 53.3994 176.36 54.3894 174.72 56.4194C171.79 60.0494 171.07 64.3594 172.69 68.5594C174.56 73.3994 179.13 77.0394 184.33 77.8394C184.79 77.9094 185.11 78.3394 185.04 78.8094C184.98 79.2294 184.61 79.5294 184.2 79.5294H184.21Z" fill="#333333"/>
<path d="M188.64 27.8088C184 34.8788 185.55 56.2888 185.55 56.2888L192.17 32.8788L188.64 27.7988V27.8088Z" fill="#333333"/>
<path d="M257.42 84.8893C253.57 90.2493 248.88 96.0493 243.9 100.679L239.66 122.709C239.66 122.709 228.23 137.189 207.03 136.599C207.03 136.599 194.07 129.239 193.19 118.939C193.19 118.939 193.78 116.859 194.51 114.169C195.1 112.029 195.77 109.499 196.31 107.329C192.26 105.379 188.95 102.929 186.84 100.309C186.47 99.8493 186.14 99.3793 185.84 98.9193C178.48 87.2193 176.27 77.7293 183.78 59.1793C188.14 48.4093 186.95 41.0693 188.46 33.7793C193.2 35.1593 199.9 34.4493 204.94 33.5293C202.28 37.6193 199.87 43.5493 205.63 46.3993C214.65 50.8693 234.6 39.7193 235.63 39.1293C234.72 39.7493 224.15 46.6393 226.51 51.0993C228.94 55.6893 252.67 52.8793 252.67 52.8793L253.77 84.0593L257.42 84.8993V84.8893Z" fill="white"/>
<path d="M208.31 137.46C207.88 137.46 207.46 137.46 207.02 137.44C206.88 137.44 206.75 137.4 206.62 137.33C206.07 137.02 193.26 129.63 192.35 119C192.35 118.9 192.35 118.8 192.38 118.7C192.38 118.7 192.96 116.62 193.69 113.94C194.27 111.83 194.85 109.63 195.32 107.78C191.41 105.81 188.26 103.42 186.18 100.83C185.81 100.38 185.45 99.8797 185.12 99.3597C177.81 87.7297 175.31 77.8397 182.99 58.8497C185.82 51.8497 186.28 46.2297 186.68 41.2697C186.89 38.6197 187.1 36.1197 187.62 33.5997C187.67 33.3697 187.81 33.1697 188.01 33.0397C188.21 32.9197 188.46 32.8897 188.69 32.9497C192.36 34.0197 197.99 33.9197 204.78 32.6797C205.11 32.6197 205.45 32.7597 205.64 33.0397C205.83 33.3197 205.83 33.6897 205.64 33.9697C204.08 36.3697 202.38 39.7897 203.11 42.4597C203.48 43.7997 204.42 44.8397 205.99 45.6197C207.29 46.2597 208.93 46.5897 210.88 46.5897C220.56 46.5897 234.6 38.7097 235.19 38.3797C235.59 38.1597 236.09 38.2797 236.33 38.6697C236.57 39.0597 236.46 39.5597 236.09 39.8197L235.95 39.9097C230.81 43.3697 225.83 48.0197 227.24 50.6897C227.59 51.3497 229.39 52.8697 238.59 52.8697C245.33 52.8697 252.47 52.0297 252.55 52.0197C252.79 51.9897 253.02 52.0597 253.2 52.2197C253.38 52.3697 253.49 52.5997 253.5 52.8297L254.58 83.3497L257.6 84.0397C257.88 84.0997 258.1 84.2997 258.2 84.5697C258.3 84.8397 258.26 85.1297 258.1 85.3597C253.51 91.7497 248.99 97.0397 244.67 101.08L240.49 122.83C240.46 122.96 240.41 123.09 240.32 123.2C240.21 123.34 228.85 137.43 208.29 137.43L208.31 137.46ZM207.29 135.75C226.48 136.21 237.59 123.86 238.88 122.33L243.07 100.52C243.1 100.34 243.19 100.18 243.33 100.06C247.4 96.2797 251.65 91.3697 255.99 85.4297L253.59 84.8797C253.22 84.7897 252.95 84.4697 252.93 84.0797L251.86 53.8197C249.69 54.0497 244.03 54.5797 238.62 54.5797C228.56 54.5797 226.47 52.8197 225.77 51.4997C224.45 49.0097 226.25 46.0697 228.86 43.4597C223.68 45.7697 216.67 48.3097 210.9 48.3097C208.68 48.3097 206.78 47.9197 205.25 47.1697C203.25 46.1797 201.98 44.7497 201.48 42.9397C200.86 40.6797 201.46 37.9097 203.25 34.6897C197.5 35.5897 192.65 35.6497 189.11 34.8397C188.73 36.9797 188.55 39.1397 188.37 41.4197C187.96 46.4997 187.49 52.2597 184.56 59.4997C177.11 77.9097 179.39 87.0697 186.55 98.4697C186.84 98.9297 187.16 99.3697 187.49 99.7797C189.53 102.31 192.7 104.66 196.67 106.57C197.03 106.74 197.22 107.15 197.13 107.54C196.63 109.52 195.98 112.02 195.33 114.4C194.72 116.67 194.2 118.5 194.06 119.03C194.95 128.05 205.76 134.85 207.29 135.77V135.75Z" fill="#333333"/>
<path d="M223.93 71.6194C224.58 69.3794 226.14 67.8694 227.42 68.2394C228.7 68.6094 229.2 70.7194 228.55 72.9594C227.9 75.1994 226.34 76.7094 225.06 76.3394C223.78 75.9694 223.28 73.8594 223.93 71.6194Z" fill="#333333"/>
<path d="M192.44 62.5197C193.09 60.2797 194.65 58.7697 195.93 59.1397C197.21 59.5097 197.71 61.6197 197.06 63.8597C196.41 66.0997 194.85 67.6097 193.57 67.2397C192.29 66.8697 191.79 64.7597 192.44 62.5197Z" fill="#333333"/>
<path d="M233.819 67.8798C234.269 67.9398 234.739 67.8298 235.129 67.5398C235.919 66.9498 236.079 65.8398 235.499 65.0498C235.339 64.8298 231.459 59.6798 226.479 58.5298C225.519 58.3098 224.559 58.9098 224.339 59.8698C224.119 60.8298 224.719 61.7898 225.679 62.0098C229.379 62.8598 232.609 67.1398 232.639 67.1798C232.939 67.5798 233.369 67.8198 233.829 67.8798H233.819Z" fill="#333333"/>
<path d="M193.7 54.9693C194 55.0093 194.31 54.9693 194.61 54.8593C194.7 54.8293 198.63 53.3193 203.18 54.8093C204.11 55.1093 205.12 54.6093 205.43 53.6693C205.74 52.7293 205.23 51.7293 204.29 51.4193C198.42 49.4993 193.47 51.4793 193.27 51.5593C192.36 51.9293 191.92 52.9793 192.3 53.8893C192.55 54.4993 193.1 54.8993 193.71 54.9793L193.7 54.9693Z" fill="#333333"/>
<path d="M263.27 86.2393L257.42 84.8993L251.33 77.8393L250.91 52.3793C250.91 52.3793 227.87 56.9693 225.45 52.3793C223.09 47.9193 234.72 39.7593 235.63 39.1393C234.59 39.7293 214.65 50.8793 205.63 46.4093C199.88 43.5593 202.29 37.6293 204.94 33.5393C199.9 34.4593 193.19 35.1693 188.46 33.7893C183.38 32.3193 180.56 28.4393 184.43 19.8393C194.82 -3.31069 237.47 -1.61069 251.47 2.41931L251.16 2.64931C251.98 2.78931 252.78 3.00931 253.54 3.32931C269.22 9.85931 270.54 22.4293 270.54 22.4293C270.54 22.4293 272.31 13.2493 275.18 14.4493C277.68 15.4993 274.64 25.2293 273.82 27.6693C274.39 26.1193 276.25 21.9693 279.15 24.3593C282.68 27.2493 275.4 33.0593 275.4 33.0593C289.31 59.8893 272.09 77.7693 263.25 86.2293L263.27 86.2393Z" fill="#333333"/>
<path d="M228.19 5.63955C225.36 6.04955 222.55 6.61955 219.78 7.33955C217.29 7.98955 214.45 9.12955 213.84 11.6295C213.28 13.9195 215.05 16.2495 217.2 17.2095C219.36 18.1595 221.81 18.0996 224.17 18.1196C228.46 18.1596 233.11 18.6995 236.2 21.6695C238.79 24.1695 239.75 27.9095 241.88 30.8195C245.35 35.5795 252.14 37.5895 257.65 35.5095C260.52 34.4195 263.26 31.5196 262.31 28.5996C261.67 26.6296 259.57 25.4896 257.53 25.1096C255.49 24.7296 253.39 24.9095 251.35 24.5795C248.57 24.1195 245.96 22.6795 244.1 20.5595C242.35 18.5795 241.25 16.0396 239.22 14.3496C237.34 12.7696 234.69 11.9295 233.56 9.73955C232.94 8.52955 232.83 6.98955 231.77 6.13955C230.8 5.35955 229.41 5.46955 228.18 5.64955L228.19 5.63955Z" fill="white"/>
<path d="M253.06 36.7596C248.51 36.7596 244.09 34.5796 241.53 31.0796C240.63 29.8496 239.94 28.4796 239.26 27.1496C238.29 25.2296 237.37 23.4096 235.9 21.9896C232.81 19.0096 228.01 18.5896 224.16 18.5596H223.61C221.39 18.5396 219.1 18.5296 217.03 17.6096C214.8 16.6296 212.78 14.1696 213.43 11.5396C213.95 9.39961 216 7.88961 219.68 6.93961C222.45 6.21961 225.29 5.64961 228.13 5.22961C228.56 5.16961 229.12 5.09961 229.67 5.09961C230.67 5.09961 231.45 5.32961 232.04 5.81961C232.82 6.44961 233.14 7.37961 233.44 8.27961C233.59 8.73961 233.74 9.16961 233.94 9.55961C234.62 10.8796 235.93 11.6896 237.3 12.5296C238.04 12.9896 238.81 13.4596 239.49 14.0296C240.74 15.0796 241.65 16.4296 242.53 17.7396C243.12 18.6096 243.72 19.5096 244.41 20.2896C246.2 22.3196 248.75 23.7296 251.41 24.1696C252.37 24.3296 253.36 24.3696 254.33 24.4096C255.4 24.4596 256.51 24.4996 257.6 24.7096C260.18 25.1896 262.09 26.5996 262.7 28.4796C263.71 31.5896 261 34.6996 257.79 35.9196C256.31 36.4796 254.71 36.7696 253.06 36.7696V36.7596ZM229.67 5.93961C229.17 5.93961 228.65 6.00961 228.25 6.06961C225.44 6.47961 222.63 7.04961 219.89 7.75961C216.54 8.62961 214.7 9.92961 214.26 11.7396C213.75 13.8396 215.45 15.9696 217.38 16.8296C219.29 17.6696 221.49 17.6896 223.63 17.6996H224.18C228.18 17.7396 233.2 18.1896 236.5 21.3696C238.08 22.8896 239.07 24.8596 240.03 26.7596C240.69 28.0596 241.37 29.4096 242.22 30.5796C244.62 33.8696 248.78 35.9096 253.06 35.9096C254.61 35.9096 256.1 35.6396 257.49 35.1196C260.27 34.0696 262.74 31.3296 261.9 28.7396C261.29 26.8796 259.2 25.8696 257.45 25.5396C256.42 25.3496 255.34 25.2996 254.3 25.2596C253.31 25.2196 252.29 25.1696 251.28 25.0096C248.38 24.5296 245.72 23.0596 243.78 20.8596C243.05 20.0396 242.43 19.1096 241.83 18.2196C240.94 16.8996 240.1 15.6596 238.95 14.6896C238.32 14.1596 237.58 13.6996 236.86 13.2596C235.44 12.3896 233.98 11.4796 233.19 9.94961C232.96 9.49961 232.8 9.01961 232.64 8.54961C232.37 7.72961 232.11 6.95961 231.51 6.47961C231.07 6.11961 230.47 5.94961 229.67 5.94961V5.93961Z" fill="#333333"/>
<path d="M205.86 94.1797C201.22 94.1797 197.47 92.3097 197.21 92.1697C196.79 91.9597 196.63 91.4497 196.84 91.0297C197.05 90.6097 197.56 90.4497 197.98 90.6597C198.08 90.7097 207.51 95.3997 214.4 89.3497C214.75 89.0397 215.29 89.0697 215.59 89.4297C215.9 89.7797 215.86 90.3197 215.51 90.6197C212.41 93.3497 208.93 94.1797 205.85 94.1797H205.86Z" fill="#333333"/>
<path d="M216.51 92.4992C216.25 92.4992 216 92.3792 215.83 92.1592L213.36 88.8692C213.08 88.4992 213.16 87.9692 213.53 87.6892C213.91 87.4092 214.43 87.4892 214.71 87.8592L217.18 91.1492C217.46 91.5192 217.38 92.0492 217.01 92.3292C216.86 92.4392 216.68 92.4992 216.5 92.4992H216.51Z" fill="#333333"/>
<path d="M251.549 75.5008C251.549 75.5008 268.369 72.3708 267.539 84.2708C266.709 96.1708 254.509 99.8008 245.939 93.9708" fill="white"/>
<path d="M254.63 97.5603C251.48 97.5603 248.27 96.5803 245.46 94.6703C245.07 94.4103 244.97 93.8803 245.24 93.4903C245.51 93.1003 246.03 93.0003 246.42 93.2703C250.66 96.1603 255.92 96.6703 260.15 94.6203C264.03 92.7403 266.35 89.0403 266.69 84.2103C266.87 81.6503 266.21 79.7503 264.68 78.3803C260.61 74.7403 251.8 76.3203 251.71 76.3403C251.25 76.4203 250.81 76.1203 250.72 75.6603C250.63 75.2003 250.94 74.7603 251.4 74.6703C251.79 74.6003 261.11 72.9203 265.81 77.1103C267.74 78.8303 268.6 81.2603 268.39 84.3303C268.01 89.7103 265.28 94.0203 260.9 96.1503C258.95 97.1003 256.81 97.5603 254.64 97.5603H254.63Z" fill="#333333"/>
<path d="M227.93 103.93C227.93 103.93 215.85 118.1 194.51 114.16C195.1 112.02 195.77 109.49 196.31 107.32C192.26 105.37 188.95 102.92 186.84 100.3C186.88 100.27 186.9 100.26 186.9 100.26C195.81 108.46 208.26 110.45 227.93 103.94V103.93Z" fill="#333333"/>
<path d="M204.891 79.8888C204.691 79.8888 204.5 79.8188 204.34 79.6888C203.88 79.3088 201.771 76.0288 201.771 75.0688C201.771 74.5888 202.01 74.2688 203.9 71.9988C205.77 69.7588 208.591 66.3588 209.171 64.6188C209.321 64.1788 209.801 63.9288 210.241 64.0788C210.681 64.2288 210.931 64.7088 210.781 65.1488C210.101 67.1988 207.271 70.5988 205.201 73.0788C204.531 73.8888 203.78 74.7788 203.51 75.1788C203.78 75.8288 205.101 78.0288 205.451 78.3888C205.811 78.6888 205.851 79.2088 205.561 79.5688C205.391 79.7688 205.151 79.8788 204.911 79.8788L204.891 79.8888Z" fill="#333333"/>
<path d="M248.16 88.0899C248.07 88.0899 247.97 88.0699 247.88 88.0399C247.44 87.8799 247.21 87.3999 247.36 86.9599C248.89 82.6499 253.14 80.5999 256.67 80.4699C259.76 80.3399 262.28 81.6299 263.22 83.7899C263.41 84.2199 263.22 84.7199 262.78 84.9099C262.35 85.0999 261.85 84.9099 261.66 84.4699C261 82.9599 259.12 82.0899 256.72 82.1699C253.76 82.2799 250.21 83.9799 248.95 87.5299C248.83 87.8799 248.5 88.0999 248.15 88.0999L248.16 88.0899Z" fill="#333333"/>
<path d="M255.23 87.6596C254.89 87.6596 254.56 87.4496 254.44 87.1096L252.74 82.5796C252.58 82.1396 252.8 81.6496 253.24 81.4896C253.68 81.3296 254.17 81.5496 254.33 81.9896L256.03 86.5196C256.19 86.9596 255.97 87.4496 255.53 87.6096C255.43 87.6496 255.33 87.6596 255.23 87.6596Z" fill="#333333"/>
<path d="M181.95 64.3202C181.68 64.3202 181.42 64.1902 181.25 63.9602C180.46 62.8302 178.36 60.5802 177.29 61.2302C176.89 61.4702 176.37 61.3402 176.13 60.9402C175.89 60.5402 176.02 60.0202 176.42 59.7802C179.14 58.1502 182.29 62.4902 182.64 62.9902C182.91 63.3702 182.82 63.9002 182.43 64.1702C182.28 64.2702 182.11 64.3202 181.94 64.3202H181.95Z" fill="#333333"/>
<path d="M89.8103 204.51H182.77L152.52 256.94H59.5703L89.8103 204.51Z" fill="#333333"/>
<path d="M181.88 214.869L94.21 215.489L70.46 256.989V362.159H198.53V258.979L181.88 214.869Z" fill="#A1C3FF"/>
<path d="M198.53 363.01H70.4604C69.9904 363.01 69.6104 362.63 69.6104 362.16V256.98C69.6104 256.83 69.6504 256.69 69.7204 256.56L93.4704 215.06C93.6204 214.8 93.9003 214.64 94.2003 214.63L181.87 214.01C182.22 214.01 182.54 214.23 182.66 214.56L199.31 258.67C199.35 258.77 199.36 258.87 199.36 258.97V362.15C199.36 362.62 198.98 363 198.51 363L198.53 363.01ZM71.3103 361.31H197.69V259.13L181.3 215.72L94.7104 216.33L71.3103 257.21V361.31Z" fill="#333333"/>
<path d="M189.39 214.869L141.25 215.489L128.21 256.989V362.159H198.53V258.979L189.39 214.869Z" fill="#5A96FF"/>
<path d="M198.53 363.009H128.2C127.73 363.009 127.35 362.629 127.35 362.159V256.979C127.35 256.889 127.36 256.809 127.39 256.729L140.43 215.229C140.54 214.879 140.86 214.639 141.23 214.639L189.37 214.019C189.74 213.999 190.13 214.299 190.21 214.699L199.35 258.809C199.36 258.869 199.37 258.919 199.37 258.979V362.159C199.37 362.629 198.99 363.009 198.52 363.009H198.53ZM129.05 361.309H197.68V259.059L188.7 215.719L141.88 216.319L129.06 257.109V361.309H129.05Z" fill="#333333"/>
<path d="M185.11 204.51H92.1602L122.41 256.94H215.36L185.11 204.51Z" fill="#4257FF"/>
<path d="M216.83 257.79H121.92L90.6904 203.66H185.6L216.83 257.79ZM122.9 256.09H213.89L184.62 205.35H93.6304L122.9 256.09Z" fill="#333333"/>
<path d="M216.6 257.999H121.79L121.49 257.469L91.5504 205.569H90.4304L60.4804 257.469L58.6504 256.409L89.2004 203.439H92.7704L93.0804 203.979L123.02 255.879H216.6V257.999Z" fill="white"/>
<path d="M216.6 258.429H121.79C121.64 258.429 121.5 258.349 121.42 258.219L121.11 257.689L91.29 205.999H90.66L60.84 257.689C60.78 257.789 60.69 257.859 60.58 257.889C60.47 257.919 60.36 257.899 60.26 257.849L58.42 256.789C58.22 256.669 58.15 256.409 58.26 256.209L88.8099 203.239C88.8899 203.109 89.03 203.029 89.18 203.029H92.75C92.9 203.029 93.04 203.109 93.12 203.239L93.43 203.769L123.25 255.459H216.58C216.81 255.459 217 255.649 217 255.879V258.009C217 258.239 216.81 258.429 216.58 258.429H216.6ZM122.04 257.579H216.18V256.299H123.03C122.88 256.299 122.74 256.219 122.66 256.089L92.5299 203.869H89.4499L59.23 256.259L60.33 256.899L90.0599 205.369C90.1399 205.239 90.28 205.159 90.43 205.159H91.55C91.7 205.159 91.8399 205.239 91.9199 205.369L122.05 257.589L122.04 257.579Z" fill="#333333"/>
<path d="M93.1299 293.789C98.2165 293.789 102.34 288.792 102.34 282.629C102.34 276.465 98.2165 271.469 93.1299 271.469C88.0434 271.469 83.9199 276.465 83.9199 282.629C83.9199 288.792 88.0434 293.789 93.1299 293.789Z" fill="#333333"/>
<path d="M87.8198 282.629C87.8198 277.299 90.9098 272.849 95.0398 271.749C94.3998 271.579 93.7299 271.469 93.0499 271.469C87.9599 271.469 83.8398 276.469 83.8398 282.629C83.8398 288.789 87.9599 293.789 93.0499 293.789C93.7399 293.789 94.3998 293.679 95.0398 293.509C90.9098 292.399 87.8198 287.959 87.8198 282.629Z" fill="#5A96FF"/>
<path d="M93.0502 294.639C87.5002 294.639 82.9902 289.249 82.9902 282.629C82.9902 276.009 87.5002 270.619 93.0502 270.619C93.7702 270.619 94.4902 270.719 95.2602 270.929C95.6302 271.029 95.8902 271.369 95.8902 271.749C95.8902 272.129 95.6302 272.469 95.2602 272.569C91.4402 273.589 88.6702 277.819 88.6702 282.629C88.6702 287.439 91.4402 291.669 95.2602 292.689C95.6302 292.789 95.8902 293.129 95.8902 293.509C95.8902 293.889 95.6302 294.229 95.2602 294.329C94.4902 294.539 93.7602 294.639 93.0502 294.639ZM91.6902 272.459C87.7302 273.269 84.6902 277.519 84.6902 282.629C84.6902 287.739 87.7202 291.999 91.6902 292.799C88.8102 290.659 86.9802 286.879 86.9802 282.629C86.9802 278.379 88.8102 274.589 91.6902 272.459Z" fill="#333333"/>
<path d="M91.0097 302.02H57.5296C56.2097 302.02 55.1396 303.09 55.1396 304.41V306.27C55.1396 307.589 56.2097 308.66 57.5296 308.66H91.0097C92.3296 308.66 93.3997 307.589 93.3997 306.27V304.41C93.3997 303.09 92.3296 302.02 91.0097 302.02Z" fill="#5A96FF"/>
<path d="M91.01 309.52H57.52C55.74 309.52 54.29 308.07 54.29 306.29V304.42C54.29 302.64 55.74 301.18 57.52 301.18H91.01C92.79 301.18 94.24 302.63 94.24 304.42V306.29C94.24 308.07 92.79 309.52 91.01 309.52ZM57.52 302.88C56.67 302.88 55.98 303.57 55.98 304.42V306.29C55.98 307.14 56.67 307.83 57.52 307.83H91.01C91.86 307.83 92.55 307.14 92.55 306.29V304.42C92.55 303.57 91.86 302.88 91.01 302.88H57.52Z" fill="#333333"/>
<path d="M328.9 222.691C328.9 222.691 352.17 304.161 326.7 328.361C288.1 365.031 210.18 288.131 210.18 288.131C210.18 288.131 184.2 288.821 178.57 276.431C178.57 276.431 175.48 282.751 168.55 280.381C161.62 278.011 149.99 258.871 154.52 250.011C154.52 250.011 151.95 241.671 158.68 236.271C158.68 236.271 155.25 230.351 160.62 224.921C160.62 224.921 140.96 225.701 142.93 213.741C142.93 213.741 141.14 211.551 161.61 206.551C182.08 201.561 190.86 203.411 197.73 206.241C204.6 209.071 226.39 227.981 231.7 232.031C237.01 236.071 268.44 252.391 268.44 252.391L266.89 237.411C289.54 220.541 290.24 221.801 328.9 222.671V222.691Z" fill="white"/>
<path d="M300.86 339.12C262.54 339.12 213.81 292.83 209.83 288.98C206.78 289.01 185.01 288.82 178.49 278.11C177.38 279.58 175.13 281.76 171.54 281.76C170.49 281.76 169.39 281.57 168.27 281.18C163.93 279.7 158.02 272.33 154.81 264.4C152.43 258.51 152.01 253.38 153.62 249.91C153.23 248.27 151.92 241.08 157.63 236.03C156.95 234.42 155.62 230.06 158.78 225.75C155.18 225.64 147.42 224.88 143.84 220.67C142.26 218.8 141.66 216.5 142.05 213.8C142.02 213.63 142.02 213.41 142.1 213.16C142.35 212.42 143.1 210.18 161.4 205.72C170.07 203.61 177.17 202.58 183.11 202.58C190.13 202.58 194.59 204.03 198.04 205.45C203.28 207.61 216.64 218.61 225.48 225.89C228.49 228.37 230.87 230.33 232.21 231.35C236.77 234.82 261.28 247.69 267.43 250.91L266.04 237.5C266.01 237.2 266.14 236.91 266.38 236.73C283.87 223.71 288.46 221.39 306.89 221.39C311.02 221.39 315.97 221.51 321.69 221.65C323.94 221.71 326.35 221.77 328.92 221.82C329.29 221.82 329.61 222.08 329.72 222.44C330.68 225.79 352.84 304.68 327.28 328.96C320.2 335.69 311.31 339.1 300.86 339.11V339.12ZM210.17 287.28C210.39 287.28 210.61 287.37 210.77 287.52C211.28 288.02 261.78 337.42 300.86 337.42C310.85 337.42 319.35 334.16 326.11 327.74C349.79 305.25 330.29 230.99 328.25 223.52C325.91 223.47 323.72 223.41 321.65 223.36C315.94 223.22 311 223.1 306.89 223.1C289.12 223.1 284.58 225.33 267.78 237.82L269.28 252.32C269.31 252.63 269.17 252.93 268.91 253.11C268.65 253.28 268.32 253.3 268.04 253.16C266.75 252.49 236.49 236.76 231.18 232.72C229.81 231.68 227.43 229.71 224.4 227.22C216.17 220.44 202.39 209.1 197.39 207.04C194.1 205.68 189.83 204.3 183.11 204.3C177.3 204.3 170.33 205.31 161.8 207.39C146.52 211.12 144.13 213.17 143.76 213.65C143.76 213.73 143.76 213.81 143.76 213.89C143.38 216.19 143.83 218.05 145.14 219.59C148.69 223.77 157.34 224.09 159.9 224.09C160.33 224.09 160.57 224.09 160.58 224.09C160.92 224.05 161.25 224.28 161.39 224.6C161.53 224.92 161.46 225.29 161.22 225.54C156.36 230.45 159.38 235.81 159.41 235.86C159.62 236.22 159.53 236.69 159.21 236.95C153 241.93 155.31 249.7 155.33 249.78C155.4 249.99 155.38 250.22 155.27 250.42C153.72 253.45 154.12 258.19 156.38 263.79C159.37 271.19 164.95 278.28 168.81 279.6C169.75 279.92 170.67 280.09 171.53 280.09C175.75 280.09 177.71 276.24 177.79 276.08C177.94 275.79 178.24 275.63 178.57 275.61C178.9 275.61 179.19 275.81 179.33 276.11C184.18 286.78 205.26 287.32 209.43 287.32C209.88 287.32 210.13 287.32 210.14 287.32H210.16L210.17 287.28Z" fill="#333333"/>
<path d="M160.78 225.759C160.41 225.829 160.02 225.649 159.85 225.289C159.65 224.869 159.83 224.359 160.25 224.159C167.83 220.549 175.72 218.699 185.1 218.319C185.57 218.299 185.96 218.659 185.98 219.129C186 219.599 185.64 219.989 185.17 220.009C176.03 220.379 168.34 222.189 160.98 225.689C160.92 225.719 160.85 225.739 160.78 225.759Z" fill="#333333"/>
<path d="M179.739 233.27C179.659 233.29 179.589 233.29 179.509 233.28C172.109 232.69 159.089 237.03 158.959 237.07C158.519 237.22 158.039 236.98 157.889 236.54C157.739 236.1 157.979 235.62 158.419 235.47C158.969 235.29 171.899 230.98 179.639 231.59C180.109 231.63 180.449 232.03 180.419 232.5C180.389 232.89 180.099 233.19 179.739 233.26V233.27Z" fill="#333333"/>
<path d="M154.69 250.84C154.36 250.91 154.01 250.77 153.82 250.47C153.56 250.08 153.67 249.56 154.06 249.3C158.53 246.36 169.5 245.35 169.97 245.31C170.44 245.27 170.85 245.61 170.89 246.08C170.93 246.55 170.59 246.95 170.12 247C170.01 247.01 159.11 248.01 154.99 250.72C154.9 250.78 154.79 250.82 154.69 250.84Z" fill="#333333"/>
<path d="M178.73 277.261C178.39 277.331 178.03 277.181 177.84 276.871C173.63 269.991 171.64 259.131 171.56 258.671C171.48 258.221 171.78 257.781 172.23 257.691H172.24C172.71 257.611 173.15 257.911 173.23 258.371C173.25 258.481 175.24 269.381 179.29 275.981C179.53 276.381 179.41 276.901 179.01 277.141C178.92 277.191 178.83 277.231 178.73 277.251V277.261Z" fill="#333333"/>
<path d="M173.38 263.471C173.15 263.521 172.89 263.471 172.69 263.301L169.62 260.871C169.25 260.581 169.19 260.051 169.48 259.681C169.77 259.311 170.3 259.251 170.67 259.541L173.74 261.971C174.11 262.261 174.17 262.791 173.88 263.161C173.75 263.321 173.57 263.431 173.38 263.471Z" fill="#333333"/>
<path d="M155.79 215.979C155.79 215.979 155.78 215.979 155.77 215.979L147.5 217.409C147.11 217.479 146.73 217.269 146.58 216.899L145.93 215.339C145.75 214.909 145.95 214.409 146.39 214.229C146.83 214.049 147.32 214.249 147.5 214.689L147.89 215.629L154.92 214.419C155.48 211.159 154.34 209.159 154.28 209.069C154.04 208.669 154.18 208.149 154.58 207.909C154.98 207.669 155.49 207.799 155.74 208.199C155.81 208.309 157.42 211.049 156.47 215.339C156.4 215.669 156.14 215.919 155.81 215.989L155.79 215.979Z" fill="#333333"/>
<path d="M211.17 223.27C211.05 223.29 210.92 223.29 210.79 223.26L201.18 220.79C200.73 220.67 200.45 220.21 200.57 219.76C200.69 219.31 201.15 219.04 201.6 219.15L211.21 221.62C211.66 221.74 211.94 222.2 211.82 222.65C211.74 222.98 211.47 223.21 211.17 223.27Z" fill="#333333"/>
<path d="M208.6 225.589C208.24 225.659 207.85 225.489 207.68 225.139L203.94 217.669C203.73 217.249 203.9 216.739 204.32 216.529C204.74 216.319 205.25 216.489 205.46 216.909L209.2 224.379C209.41 224.799 209.24 225.309 208.82 225.519C208.75 225.549 208.68 225.579 208.61 225.589H208.6Z" fill="#333333"/>
<path d="M205.59 237C205.47 237.02 205.34 237.02 205.21 236.99L195.6 234.52C195.15 234.4 194.87 233.94 194.99 233.49C195.11 233.04 195.57 232.77 196.02 232.88L205.63 235.35C206.08 235.47 206.36 235.93 206.24 236.38C206.16 236.71 205.89 236.94 205.59 237Z" fill="#333333"/>
<path d="M203.01 239.31C202.65 239.38 202.26 239.21 202.09 238.86L198.35 231.39C198.14 230.97 198.31 230.46 198.73 230.25C199.15 230.04 199.66 230.21 199.87 230.63L203.61 238.1C203.82 238.52 203.65 239.03 203.23 239.24C203.16 239.27 203.09 239.3 203.02 239.31H203.01Z" fill="#333333"/>
<path d="M200.58 249.141C200.46 249.161 200.33 249.161 200.2 249.131L190.59 246.661C190.14 246.541 189.86 246.081 189.98 245.631C190.1 245.181 190.56 244.911 191.01 245.021L200.62 247.491C201.07 247.611 201.35 248.071 201.23 248.521C201.15 248.851 200.88 249.081 200.58 249.141Z" fill="#333333"/>
<path d="M198.01 251.461C197.65 251.531 197.26 251.361 197.09 251.011L193.35 243.541C193.14 243.121 193.31 242.611 193.73 242.401C194.15 242.191 194.66 242.361 194.87 242.781L198.61 250.251C198.82 250.671 198.65 251.181 198.23 251.391C198.16 251.421 198.09 251.451 198.02 251.461H198.01Z" fill="#333333"/>
<path d="M211.71 288.941C210.86 289.111 210.05 289.191 209.37 289.121C208.91 289.071 208.57 288.651 208.62 288.191C208.67 287.731 209.09 287.391 209.55 287.441C211.38 287.631 215.11 286.181 216.39 285.611C216.81 285.421 217.32 285.611 217.51 286.041C217.7 286.471 217.51 286.971 217.08 287.161C216.7 287.331 214.1 288.481 211.71 288.951V288.941Z" fill="#333333"/>
<path d="M311.18 276.09C311 276.13 310.8 276.101 310.62 276.011L267.78 253.191C267.37 252.971 267.21 252.461 267.43 252.051C267.65 251.641 268.16 251.481 268.57 251.701L311.41 274.52C311.82 274.74 311.98 275.251 311.76 275.661C311.64 275.891 311.42 276.04 311.18 276.09Z" fill="#333333"/>
<path d="M308.2 326.39C306.43 326.39 304.3 326.06 302.96 324.71C301.99 323.74 301.6 322.42 301.79 320.79C302.48 315.06 308.86 311.77 314.89 311.04C315.35 310.99 315.78 311.32 315.83 311.78C315.89 312.25 315.55 312.67 315.09 312.72C311.08 313.2 304.13 315.49 303.47 320.99C303.34 322.09 303.56 322.92 304.15 323.51C305.12 324.49 307.25 324.89 309.82 324.59C311.52 324.39 313.3 324.11 314.83 323.37C316.22 322.7 317.75 321.33 317.83 320.1C317.85 319.88 317.89 319.21 316.8 318.49C315.64 317.72 314 318.07 311.8 319.57C311.41 319.83 310.88 319.73 310.62 319.34C310.36 318.95 310.46 318.43 310.85 318.16C311.89 317.45 315.06 315.3 317.74 317.07C319.32 318.12 319.58 319.35 319.53 320.21C319.39 322.19 317.38 324.03 315.57 324.9C313.81 325.74 311.86 326.06 310.02 326.27C309.51 326.33 308.88 326.38 308.19 326.38L308.2 326.39Z" fill="#333333"/>
<path d="M342.989 168.009L350.339 165.669L342.979 163.159C340.779 162.579 339.089 160.809 338.619 158.579L336.289 147.529L333.779 158.339C333.249 160.619 331.449 162.379 329.159 162.869L322.229 165.249L328.909 167.609C331.249 168.149 333.039 170.039 333.469 172.399L335.399 183.089L338.219 172.389C338.819 170.129 340.669 168.419 342.969 167.999L342.989 168.009Z" fill="white"/>
<path d="M150.84 21.3291L158.01 19.0491L150.84 16.5991C148.7 16.0391 147.05 14.3091 146.59 12.1391L144.31 1.36914L141.87 11.8991C141.36 14.1191 139.6 15.8391 137.37 16.3091L130.62 18.6291L137.13 20.9291C139.41 21.4591 141.16 23.2991 141.58 25.5991L143.46 36.0091L146.2 25.5891C146.78 23.3891 148.59 21.7191 150.83 21.3091L150.84 21.3291Z" fill="#333333"/>
<path d="M48.5397 322.539L54.8597 320.529L48.5397 318.369C46.6497 317.869 45.1997 316.349 44.7997 314.439L42.7897 304.949L40.6397 314.239C40.1897 316.199 38.6397 317.719 36.6697 318.129L30.7197 320.179L36.4597 322.209C38.4697 322.679 40.0097 324.299 40.3797 326.329L42.0397 335.509L44.4597 326.319C44.9697 324.379 46.5597 322.899 48.5397 322.549V322.539Z" fill="#333333"/>
<mask id="path-88-inside-1_368_3576" fill="white">
<path d="M315.24 60.3699C304.46 59.1699 294.72 66.9699 293.53 77.7399C292.33 88.5199 300.13 98.2599 310.9 99.4499C321.68 100.65 331.42 92.8499 332.61 82.0799C333.81 71.2999 326.01 61.5599 315.24 60.3699ZM327.66 81.5299C326.77 89.5899 319.51 95.3899 311.45 94.4999C303.39 93.6099 297.59 86.3499 298.48 78.2899C299.37 70.2299 306.63 64.4299 314.69 65.3199C322.75 66.2099 328.55 73.4699 327.66 81.5299Z"/>
</mask>
<path d="M315.24 60.3699C304.46 59.1699 294.72 66.9699 293.53 77.7399C292.33 88.5199 300.13 98.2599 310.9 99.4499C321.68 100.65 331.42 92.8499 332.61 82.0799C333.81 71.2999 326.01 61.5599 315.24 60.3699ZM327.66 81.5299C326.77 89.5899 319.51 95.3899 311.45 94.4999C303.39 93.6099 297.59 86.3499 298.48 78.2899C299.37 70.2299 306.63 64.4299 314.69 65.3199C322.75 66.2099 328.55 73.4699 327.66 81.5299Z" fill="white"/>
<path d="M315.24 60.3699L314.134 70.3085L314.142 70.3094L315.24 60.3699ZM293.53 77.7399L303.469 78.8462L303.47 78.8381L293.53 77.7399ZM310.9 99.4499L312.006 89.5113L311.998 89.5104L310.9 99.4499ZM332.61 82.0799L322.671 80.9736L322.671 80.9817L332.61 82.0799ZM316.346 50.4313C300.074 48.6199 285.387 60.3789 283.591 76.6417L303.47 78.8381C304.053 73.5609 308.846 69.7199 314.134 70.3085L316.346 50.4313ZM283.591 76.6336C281.78 92.9055 293.539 107.592 309.802 109.389L311.998 89.5104C306.721 88.9273 302.88 84.1343 303.469 78.8462L283.591 76.6336ZM309.794 109.389C326.066 111.2 340.753 99.4409 342.55 83.1781L322.671 80.9817C322.087 86.2589 317.294 90.0999 312.006 89.5113L309.794 109.389ZM342.549 83.1862C344.36 66.9143 332.601 52.2273 316.338 50.4304L314.142 70.3094C319.419 70.8925 323.26 75.6855 322.671 80.9736L342.549 83.1862ZM317.72 80.4323C317.438 82.9872 315.134 84.8459 312.548 84.5603L310.353 104.439C323.886 105.934 336.102 96.1926 337.6 82.6274L317.72 80.4323ZM312.548 84.5603C309.993 84.2782 308.134 81.9737 308.42 79.3874L288.54 77.1924C287.046 90.7261 296.787 102.942 310.353 104.439L312.548 84.5603ZM308.42 79.3874C308.702 76.8326 311.006 74.9739 313.593 75.2595L315.788 55.3803C302.254 53.8859 290.038 63.6272 288.54 77.1924L308.42 79.3874ZM313.593 75.2595C316.147 75.5416 318.006 77.8461 317.72 80.4323L337.6 82.6274C339.094 69.0936 329.353 56.8782 315.788 55.3803L313.593 75.2595Z" fill="black" mask="url(#path-88-inside-1_368_3576)"/>
<path d="M337.498 70.0905C337.373 69.7825 337.243 69.4772 337.107 69.1748L339.269 68.7456L339.285 68.785L337.498 70.0905ZM322.285 104.577C322.601 104.459 322.913 104.335 323.223 104.205L323.72 106.549L322.285 104.577ZM302.457 104.008C302.797 104.159 303.142 104.302 303.49 104.438L302.133 106.74L302.457 104.008ZM288.635 89.6974C288.764 90.0194 288.9 90.3386 289.042 90.6546L286.76 91.172L286.75 91.1486L288.635 89.6974ZM289.178 68.8631C289.039 69.1631 288.906 69.4664 288.778 69.7728L287.112 68.7205L287.15 68.6111L289.178 68.8631ZM302.985 55.601L302.606 53.2735L303.895 55.2416C303.59 55.3559 303.286 55.4757 302.985 55.601ZM323.268 55.6392C322.951 55.506 322.63 55.3787 322.307 55.2576L323.768 53.1949L323.268 55.6392ZM337.111 90.6602C337.236 90.3827 337.355 90.1025 337.47 89.8197L338.975 90.917L338.936 91.0125L337.111 90.6602Z" fill="white" stroke="black" stroke-width="10"/>
</svg>
