<svg width="1920" height="521" viewBox="0 0 1920 521" fill="none" xmlns="http://www.w3.org/2000/svg">
<rect width="1921" height="66.4539" fill="#4257FF" fill-opacity="0.98"/>
<path d="M1927 463.635C1819.94 465.683 1712.89 467.732 1605.83 481.274C1498.78 494.816 1391.72 519.851 1284.67 520.961C1177.61 522.07 1070.56 499.254 963.5 494.503C856.444 489.752 749.389 503.061 642.333 503.322C535.278 503.583 428.222 490.8 321.167 476.864C214.111 462.929 107.056 447.85 0.00012207 432.767V132.909C107.056 132.909 214.111 132.909 321.167 132.909C428.222 132.909 535.278 132.909 642.333 132.909C749.389 132.909 856.444 132.909 963.5 132.909C1070.56 132.909 1177.61 132.909 1284.67 132.909C1391.72 132.909 1498.78 132.909 1605.83 132.909C1712.89 132.909 1819.94 132.909 1927 132.909V463.635Z" fill="#4257FF" fill-opacity="0.2"/>
<path d="M1927 494.506C1819.94 492.339 1712.89 490.173 1605.83 472.458C1498.78 454.743 1391.72 421.481 1284.67 406.313C1177.61 391.144 1070.56 394.065 963.5 401.903C856.444 409.741 749.389 422.501 642.333 446C535.278 469.499 428.222 503.738 321.167 498.916C214.111 494.094 107.056 450.201 0.00012207 406.313V132.913C107.056 132.913 214.111 132.913 321.167 132.913C428.222 132.913 535.278 132.913 642.333 132.913C749.389 132.913 856.444 132.913 963.5 132.913C1070.56 132.913 1177.61 132.913 1284.67 132.913C1391.72 132.913 1498.78 132.913 1605.83 132.913C1712.89 132.913 1819.94 132.913 1927 132.913V494.506Z" fill="#4257FF" fill-opacity="0.2"/>
<path d="M1927 388.668C1819.94 406.079 1712.89 423.49 1605.83 437.174C1498.78 450.858 1391.72 460.82 1284.67 454.813C1177.61 448.805 1070.56 426.837 963.5 406.306C856.444 385.775 749.389 366.69 642.333 371.029C535.278 375.367 428.222 403.139 321.167 415.126C214.111 427.112 107.056 423.324 0.00012207 419.535V132.906C107.056 132.906 214.111 132.906 321.167 132.906C428.222 132.906 535.278 132.906 642.333 132.906C749.389 132.906 856.444 132.906 963.5 132.906C1070.56 132.906 1177.61 132.906 1284.67 132.906C1391.72 132.906 1498.78 132.906 1605.83 132.906C1712.89 132.906 1819.94 132.906 1927 132.906V388.668Z" fill="#4257FF" fill-opacity="0.2"/>
<path d="M1927 357.797C1819.94 371.406 1712.89 385.019 1605.83 388.665C1498.78 392.311 1391.72 386 1284.67 397.485C1177.61 408.969 1070.56 438.248 963.5 428.352C856.444 418.457 749.389 369.381 642.333 362.207C535.278 355.033 428.222 389.765 321.167 406.304C214.111 422.843 107.056 421.188 0.00012207 419.533V132.904C107.056 132.904 214.111 132.904 321.167 132.904C428.222 132.904 535.278 132.904 642.333 132.904C749.389 132.904 856.444 132.904 963.5 132.904C1070.56 132.904 1177.61 132.904 1284.67 132.904C1391.72 132.904 1498.78 132.904 1605.83 132.904C1712.89 132.904 1819.94 132.904 1927 132.904V357.797Z" fill="#4257FF" fill-opacity="0.2"/>
<path d="M1927 371.029C1819.94 344.13 1712.89 317.226 1605.83 322.522C1498.78 327.819 1391.72 365.31 1284.67 371.029C1177.61 376.747 1070.56 350.697 963.5 353.39C856.444 356.083 749.389 387.529 642.333 384.258C535.278 380.986 428.222 343.006 321.167 340.161C214.111 337.316 107.056 369.606 0.00012207 401.896V132.906C107.056 132.906 214.111 132.906 321.167 132.906C428.222 132.906 535.278 132.906 642.333 132.906C749.389 132.906 856.444 132.906 963.5 132.906C1070.56 132.906 1177.61 132.906 1284.67 132.906C1391.72 132.906 1498.78 132.906 1605.83 132.906C1712.89 132.906 1819.94 132.906 1927 132.906V371.029Z" fill="#4257FF" fill-opacity="0.2"/>
<path d="M1927 340.166C1819.94 365.529 1712.89 390.892 1605.83 393.082C1498.78 395.273 1391.72 374.287 1284.67 353.395C1177.61 332.504 1070.56 311.698 963.5 318.118C856.444 324.538 749.389 358.175 642.333 357.805C535.278 357.435 428.222 323.049 321.167 318.118C214.111 313.187 107.056 337.701 0.00012207 362.215V132.911C107.056 132.911 214.111 132.911 321.167 132.911C428.222 132.911 535.278 132.911 642.333 132.911C749.389 132.911 856.444 132.911 963.5 132.911C1070.56 132.911 1177.61 132.911 1284.67 132.911C1391.72 132.911 1498.78 132.911 1605.83 132.911C1712.89 132.911 1819.94 132.911 1927 132.911V340.166Z" fill="#4257FF" fill-opacity="0.2"/>
<path d="M1927 331.344C1819.94 340.817 1712.89 350.291 1605.83 344.573C1498.78 338.854 1391.72 317.949 1284.67 322.524C1177.61 327.1 1070.56 357.166 963.5 353.392C856.444 349.618 749.389 312.012 642.333 291.656C535.278 271.301 428.222 268.205 321.167 274.018C214.111 279.831 107.056 294.563 0.00012207 309.295V132.908C107.056 132.908 214.111 132.908 321.167 132.908C428.222 132.908 535.278 132.908 642.333 132.908C749.389 132.908 856.444 132.908 963.5 132.908C1070.56 132.908 1177.61 132.908 1284.67 132.908C1391.72 132.908 1498.78 132.908 1605.83 132.908C1712.89 132.908 1819.94 132.908 1927 132.908V331.344Z" fill="#4257FF" fill-opacity="0.2"/>
<path d="M1927 340.164C1819.94 332.046 1712.89 323.929 1605.83 304.887C1498.78 285.844 1391.72 255.882 1284.67 265.2C1177.61 274.517 1070.56 323.113 963.5 326.935C856.444 330.757 749.389 289.804 642.333 269.609C535.278 249.415 428.222 249.979 321.167 251.971C214.111 253.962 107.056 257.376 0.00012207 260.79V132.909C107.056 132.909 214.111 132.909 321.167 132.909C428.222 132.909 535.278 132.909 642.333 132.909C749.389 132.909 856.444 132.909 963.5 132.909C1070.56 132.909 1177.61 132.909 1284.67 132.909C1391.72 132.909 1498.78 132.909 1605.83 132.909C1712.89 132.909 1819.94 132.909 1927 132.909V340.164Z" fill="#4257FF" fill-opacity="0.2"/>
<path d="M1927 212.286C1819.94 206.592 1712.89 200.902 1605.83 212.286C1498.78 223.671 1391.72 252.14 1284.67 256.383C1177.61 260.627 1070.56 240.655 963.5 238.745C856.444 236.834 749.389 252.984 642.333 265.203C535.278 277.422 428.222 285.7 321.167 278.432C214.111 271.163 107.056 248.337 0.00012207 225.515V132.912C107.056 132.912 214.111 132.912 321.167 132.912C428.222 132.912 535.278 132.912 642.333 132.912C749.389 132.912 856.444 132.912 963.5 132.912C1070.56 132.912 1177.61 132.912 1284.67 132.912C1391.72 132.912 1498.78 132.912 1605.83 132.912C1712.89 132.912 1819.94 132.912 1927 132.912V212.286Z" fill="#4257FF" fill-opacity="0.2"/>
<path d="M1927 269.613C1819.94 265.872 1712.89 262.136 1605.83 251.975C1498.78 241.813 1391.72 225.232 1284.67 216.697C1177.61 208.162 1070.56 207.683 963.5 203.468C856.444 199.253 749.389 191.311 642.333 185.829C535.278 180.348 428.222 177.332 321.167 190.239C214.111 203.146 107.056 231.97 0.00012207 260.794V132.913C107.056 132.913 214.111 132.913 321.167 132.913C428.222 132.913 535.278 132.913 642.333 132.913C749.389 132.913 856.444 132.913 963.5 132.913C1070.56 132.913 1177.61 132.913 1284.67 132.913C1391.72 132.913 1498.78 132.913 1605.83 132.913C1712.89 132.913 1819.94 132.913 1927 132.913V269.613Z" fill="#4257FF" fill-opacity="0.2"/>
<rect y="66.4531" width="1921" height="66.4539" fill="#4257FF" fill-opacity="0.93"/>
</svg>
