<svg width="1920" height="1367" viewBox="0 0 1920 1367" fill="none" xmlns="http://www.w3.org/2000/svg">
<rect width="1920" height="823.157" fill="#4257FF"/>
<rect y="823.158" width="1921" height="69.3672" fill="#4257FF" fill-opacity="0.98"/>
<path d="M1927 1307.12C1819.94 1309.26 1712.89 1311.4 1605.83 1325.53C1498.78 1339.67 1391.72 1365.8 1284.67 1366.96C1177.61 1368.12 1070.56 1344.3 963.5 1339.34C856.444 1334.38 749.389 1348.27 642.333 1348.55C535.278 1348.82 428.222 1335.48 321.167 1320.93C214.111 1306.38 107.056 1290.64 0.00012207 1274.9V961.895C107.056 961.895 214.111 961.895 321.167 961.895C428.222 961.895 535.278 961.895 642.333 961.895C749.389 961.895 856.444 961.895 963.5 961.895C1070.56 961.895 1177.61 961.895 1284.67 961.895C1391.72 961.895 1498.78 961.895 1605.83 961.895C1712.89 961.895 1819.94 961.895 1927 961.895V1307.12Z" fill="#4257FF" fill-opacity="0.2"/>
<path d="M1927 1339.34C1819.94 1337.08 1712.89 1334.82 1605.83 1316.33C1498.78 1297.84 1391.72 1263.12 1284.67 1247.28C1177.61 1231.45 1070.56 1234.5 963.5 1242.68C856.444 1250.86 749.389 1264.18 642.333 1288.71C535.278 1313.24 428.222 1348.98 321.167 1343.95C214.111 1338.91 107.056 1293.1 0.00012207 1247.28V961.898C107.056 961.898 214.111 961.898 321.167 961.898C428.222 961.898 535.278 961.898 642.333 961.898C749.389 961.898 856.444 961.898 963.5 961.898C1070.56 961.898 1177.61 961.898 1284.67 961.898C1391.72 961.898 1498.78 961.898 1605.83 961.898C1712.89 961.898 1819.94 961.898 1927 961.898V1339.34Z" fill="#4257FF" fill-opacity="0.2"/>
<path d="M1927 1228.87C1819.94 1247.04 1712.89 1265.22 1605.83 1279.5C1498.78 1293.78 1391.72 1304.18 1284.67 1297.91C1177.61 1291.64 1070.56 1268.71 963.5 1247.28C856.444 1225.85 749.389 1205.93 642.333 1210.46C535.278 1214.98 428.222 1243.97 321.167 1256.49C214.111 1269 107.056 1265.04 0.00012207 1261.09V961.893C107.056 961.893 214.111 961.893 321.167 961.893C428.222 961.893 535.278 961.893 642.333 961.893C749.389 961.893 856.444 961.893 963.5 961.893C1070.56 961.893 1177.61 961.893 1284.67 961.893C1391.72 961.893 1498.78 961.893 1605.83 961.893C1712.89 961.893 1819.94 961.893 1927 961.893V1228.87Z" fill="#4257FF" fill-opacity="0.2"/>
<path d="M1927 1196.64C1819.94 1210.85 1712.89 1225.06 1605.83 1228.86C1498.78 1232.67 1391.72 1226.08 1284.67 1238.07C1177.61 1250.06 1070.56 1280.62 963.5 1270.29C856.444 1259.96 749.389 1208.74 642.333 1201.25C535.278 1193.76 428.222 1230.01 321.167 1247.28C214.111 1264.54 107.056 1262.81 0.00012207 1261.09V961.891C107.056 961.891 214.111 961.891 321.167 961.891C428.222 961.891 535.278 961.891 642.333 961.891C749.389 961.891 856.444 961.891 963.5 961.891C1070.56 961.891 1177.61 961.891 1284.67 961.891C1391.72 961.891 1498.78 961.891 1605.83 961.891C1712.89 961.891 1819.94 961.891 1927 961.891V1196.64Z" fill="#4257FF" fill-opacity="0.2"/>
<path d="M1927 1210.45C1819.94 1182.37 1712.89 1154.29 1605.83 1159.82C1498.78 1165.35 1391.72 1204.48 1284.67 1210.45C1177.61 1216.42 1070.56 1189.23 963.5 1192.04C856.444 1194.85 749.389 1227.68 642.333 1224.26C535.278 1220.85 428.222 1181.2 321.167 1178.23C214.111 1175.26 107.056 1208.97 0.00012207 1242.67V961.891C107.056 961.891 214.111 961.891 321.167 961.891C428.222 961.891 535.278 961.891 642.333 961.891C749.389 961.891 856.444 961.891 963.5 961.891C1070.56 961.891 1177.61 961.891 1284.67 961.891C1391.72 961.891 1498.78 961.891 1605.83 961.891C1712.89 961.891 1819.94 961.891 1927 961.891V1210.45Z" fill="#4257FF" fill-opacity="0.2"/>
<path d="M1927 1178.24C1819.94 1204.71 1712.89 1231.19 1605.83 1233.47C1498.78 1235.76 1391.72 1213.85 1284.67 1192.04C1177.61 1170.24 1070.56 1148.52 963.5 1155.22C856.444 1161.92 749.389 1197.03 642.333 1196.65C535.278 1196.26 428.222 1160.37 321.167 1155.22C214.111 1150.07 107.056 1175.66 0.00012207 1201.25V961.895C107.056 961.895 214.111 961.895 321.167 961.895C428.222 961.895 535.278 961.895 642.333 961.895C749.389 961.895 856.444 961.895 963.5 961.895C1070.56 961.895 1177.61 961.895 1284.67 961.895C1391.72 961.895 1498.78 961.895 1605.83 961.895C1712.89 961.895 1819.94 961.895 1927 961.895V1178.24Z" fill="#4257FF" fill-opacity="0.2"/>
<path d="M1927 1169.03C1819.94 1178.92 1712.89 1188.81 1605.83 1182.84C1498.78 1176.87 1391.72 1155.05 1284.67 1159.82C1177.61 1164.6 1070.56 1195.99 963.5 1192.05C856.444 1188.11 749.389 1148.85 642.333 1127.6C535.278 1106.36 428.222 1103.12 321.167 1109.19C214.111 1115.26 107.056 1130.64 0.00012207 1146.02V961.896C107.056 961.896 214.111 961.896 321.167 961.896C428.222 961.896 535.278 961.896 642.333 961.896C749.389 961.896 856.444 961.896 963.5 961.896C1070.56 961.896 1177.61 961.896 1284.67 961.896C1391.72 961.896 1498.78 961.896 1605.83 961.896C1712.89 961.896 1819.94 961.896 1927 961.896V1169.03Z" fill="#4257FF" fill-opacity="0.2"/>
<path d="M1927 1178.23C1819.94 1169.76 1712.89 1161.29 1605.83 1141.41C1498.78 1121.53 1391.72 1090.26 1284.67 1099.98C1177.61 1109.71 1070.56 1160.44 963.5 1164.43C856.444 1168.41 749.389 1125.67 642.333 1104.59C535.278 1083.51 428.222 1084.1 321.167 1086.17C214.111 1088.25 107.056 1091.82 0.00012207 1095.38V961.894C107.056 961.894 214.111 961.894 321.167 961.894C428.222 961.894 535.278 961.894 642.333 961.894C749.389 961.894 856.444 961.894 963.5 961.894C1070.56 961.894 1177.61 961.894 1284.67 961.894C1391.72 961.894 1498.78 961.894 1605.83 961.894C1712.89 961.894 1819.94 961.894 1927 961.894V1178.23Z" fill="#4257FF" fill-opacity="0.2"/>
<path d="M1927 1044.75C1819.94 1038.81 1712.89 1032.87 1605.83 1044.75C1498.78 1056.64 1391.72 1086.35 1284.67 1090.78C1177.61 1095.21 1070.56 1074.36 963.5 1072.37C856.444 1070.38 749.389 1087.23 642.333 1099.99C535.278 1112.74 428.222 1121.38 321.167 1113.8C214.111 1106.21 107.056 1082.38 0.00012207 1058.56V961.898C107.056 961.898 214.111 961.898 321.167 961.898C428.222 961.898 535.278 961.898 642.333 961.898C749.389 961.898 856.444 961.898 963.5 961.898C1070.56 961.898 1177.61 961.898 1284.67 961.898C1391.72 961.898 1498.78 961.898 1605.83 961.898C1712.89 961.898 1819.94 961.898 1927 961.898V1044.75Z" fill="#4257FF" fill-opacity="0.2"/>
<path d="M1927 1104.59C1819.94 1100.69 1712.89 1096.79 1605.83 1086.18C1498.78 1075.57 1391.72 1058.26 1284.67 1049.36C1177.61 1040.45 1070.56 1039.95 963.5 1035.55C856.444 1031.15 749.389 1022.86 642.333 1017.13C535.278 1011.41 428.222 1008.27 321.167 1021.74C214.111 1035.21 107.056 1065.3 0.00012207 1095.39V961.899C107.056 961.899 214.111 961.899 321.167 961.899C428.222 961.899 535.278 961.899 642.333 961.899C749.389 961.899 856.444 961.899 963.5 961.899C1070.56 961.899 1177.61 961.899 1284.67 961.899C1391.72 961.899 1498.78 961.899 1605.83 961.899C1712.89 961.899 1819.94 961.899 1927 961.899V1104.59Z" fill="#4257FF" fill-opacity="0.2"/>
<rect y="892.525" width="1921" height="69.3672" fill="#4257FF" fill-opacity="0.93"/>
</svg>
