<svg width="21" height="19" viewBox="0 0 21 19" fill="none" xmlns="http://www.w3.org/2000/svg">
<mask id="mask0_679_36" style="mask-type:luminance" maskUnits="userSpaceOnUse" x="0" y="0" width="21" height="19">
<rect width="21" height="19" fill="white"/>
</mask>
<g mask="url(#mask0_679_36)">
<path fill-rule="evenodd" clip-rule="evenodd" d="M21 9.5C21 9.5 17.0625 2.96875 10.5 2.96875C3.9375 2.96875 0 9.5 0 9.5C0 9.5 3.9375 16.0313 10.5 16.0313C17.0625 16.0313 21 9.5 21 9.5V9.5ZM1.53941 9.4997C2.17403 10.3724 2.90394 11.1851 3.71816 11.9258C5.40734 13.4565 7.71734 14.8435 10.4998 14.8435C13.2823 14.8435 15.591 13.4565 17.2828 11.9258C18.0971 11.1851 18.827 10.3724 19.4616 9.4997C18.827 8.62703 18.0971 7.81426 17.2828 7.07363C15.591 5.54295 13.281 4.15595 10.4998 4.15595C7.71734 4.15595 5.40866 5.54295 3.71684 7.07364C2.90262 7.81427 2.1727 8.62704 1.53809 9.49971L1.53941 9.4997Z" fill="#BEBEBE"/>
<path fill-rule="evenodd" clip-rule="evenodd" d="M10.5 6.53129C8.68782 6.53129 7.21875 7.86044 7.21875 9.50003C7.21874 11.1396 8.6878 12.4688 10.5 12.4688C12.3122 12.4688 13.7812 11.1396 13.7812 9.50005C13.7813 7.86046 12.3122 6.5313 10.5 6.53129H10.5ZM5.90625 9.5C5.90625 8.01512 6.78181 6.64303 8.20312 5.90058C9.62443 5.15814 11.3756 5.15814 12.7969 5.90058C14.2182 6.64302 15.0937 8.01511 15.0938 9.5C15.0938 10.9849 14.2182 12.357 12.7969 13.0994C11.3756 13.8419 9.62444 13.8419 8.20313 13.0994C6.78181 12.357 5.90625 10.9849 5.90625 9.5V9.5Z" fill="#BEBEBE"/>
</g>
</svg>
