<?xml version="1.0" encoding="UTF-8"?>
<svg id="_레이어_2" data-name="레이어 2" xmlns="http://www.w3.org/2000/svg" viewBox="0 0 400.5 400.64">
  <defs>
    <style>
      .cls-1 {
        fill: #f2cf63;
      }

      .cls-1, .cls-2, .cls-3, .cls-4, .cls-5, .cls-6, .cls-7, .cls-8, .cls-9, .cls-10, .cls-11, .cls-12 {
        stroke-width: 0px;
      }

      .cls-2 {
        fill: #363636;
      }

      .cls-3 {
        fill: #a2bff9;
      }

      .cls-4 {
        fill: #333;
      }

      .cls-5 {
        fill: #290a43;
      }

      .cls-6 {
        fill: #fff;
      }

      .cls-7 {
        fill: #ffe6a1;
      }

      .cls-8 {
        fill: #f4d936;
      }

      .cls-9 {
        fill: #fc5e71;
      }

      .cls-10 {
        fill: #f2c9cc;
      }

      .cls-11 {
        fill: #ccd7f2;
      }

      .cls-12 {
        fill: #f29199;
      }
    </style>
  </defs>
  <g id="_迹_1" data-name="卵迹_1">
    <g>
      <path class="cls-10" d="m54.54,125.65c12.2-12.02,25.64-23.03,34.33-38.32,8.5-14.97,12.45-32.31,23.57-45.82,19.97-24.26,55.35-27.29,86.74-28.46,15.74-.58,31.73-1.14,47,2.69,15.04,3.77,23.59,11.63,34.32,21.88,11.97,11.43,25.94,11.64,39.7,20.12,19.18,11.82,6.62,40.37,17.56,57.72,5.53,8.78,12.88,16.26,19.1,24.57,17.98,24.02,17.13,59.65,5.11,86.19-38.76,85.55-162.16,120.07-247.55,108.13-19.8-2.77-40.14-8.2-54.96-21.61-36.06-32.61-43.58-106.19-29.88-150.16,4.78-15.35,14.41-26.51,24.97-36.92Z"/>
      <g>
        <path class="cls-12" d="m56.02,80.92c4.09,15.03,19.59,23.9,34.62,19.81,15.03-4.09,23.88-19.59,19.8-34.61-1.06-3.88-2.88-7.37-5.27-10.31l-21.52,16.99-28.6.59c-.03,2.48.29,5.02.98,7.53Z"/>
        <path class="cls-7" d="m48.95,68.65l28.6-.59-7.24-26.62s-.37.09-.57.14c-12.51,3.4-20.75,14.71-20.79,27.07Z"/>
        <path class="cls-9" d="m76.4,46.18l7.24,26.62,21.52-16.99c-6.7-8.29-17.81-12.37-28.76-9.63Z"/>
      </g>
      <g>
        <path class="cls-6" d="m296.2,27.98l5.51-1.75-5.51-1.88c-1.65-.43-2.91-1.76-3.26-3.42l-1.75-8.27-1.88,8.09c-.4,1.71-1.74,3.03-3.46,3.39l-5.18,1.78,5,1.76c1.75.41,3.1,1.82,3.41,3.59l1.45,8,2.11-8.01c.45-1.69,1.83-2.97,3.55-3.29Z"/>
        <path class="cls-4" d="m290.54,40.13s-.02,0-.03,0c-.4-.02-.73-.31-.8-.7l-1.45-8c-.26-1.44-1.35-2.58-2.77-2.91-.03,0-.06-.02-.09-.03l-5-1.76c-.34-.12-.57-.44-.57-.8,0-.36.23-.68.57-.8l5.18-1.78s.07-.02.1-.03c1.38-.29,2.49-1.37,2.81-2.75l1.88-8.09c.09-.39.43-.66.83-.66h0c.4,0,.74.28.82.67l1.75,8.27c.29,1.36,1.3,2.43,2.65,2.78l5.56,1.9c.35.12.58.45.57.81,0,.37-.24.69-.59.8l-5.51,1.75s-.07.02-.11.03c-1.39.25-2.53,1.3-2.88,2.67l-2.11,8.01c-.1.37-.44.63-.82.63Zm-4.62-13.25c2.06.5,3.63,2.16,4.01,4.25l.76,4.23,1.13-4.3c.52-1.99,2.16-3.51,4.17-3.89l3-.95-3.07-1.05c-1.91-.5-3.4-2.06-3.82-4.05l-.96-4.52-1.01,4.36c-.46,2-2.05,3.57-4.05,4.02l-2.83.97,2.66.94Z"/>
      </g>
      <g>
        <path class="cls-6" d="m51.5,153.9l9.51-3.02-9.51-3.25c-2.85-.75-5.03-3.04-5.63-5.92l-3.02-14.29-3.24,13.98c-.68,2.95-3.01,5.23-5.97,5.86l-8.96,3.08,8.64,3.05c3.03.7,5.35,3.14,5.9,6.2l2.5,13.82,3.64-13.83c.77-2.93,3.17-5.14,6.14-5.68Z"/>
        <path class="cls-4" d="m41.71,174.27s-.02,0-.03,0c-.4-.02-.73-.31-.8-.7l-2.5-13.82c-.49-2.73-2.56-4.9-5.26-5.52-.03,0-.06-.02-.09-.03l-8.64-3.05c-.34-.12-.57-.44-.57-.8,0-.36.23-.68.57-.8l8.96-3.08s.07-.02.1-.03c2.63-.56,4.72-2.6,5.32-5.22l3.24-13.98c.09-.39.43-.66.83-.66h0c.4,0,.74.28.82.67l3.02,14.29c.55,2.58,2.47,4.6,5.02,5.27l9.57,3.27c.35.12.58.45.57.81,0,.37-.24.69-.59.8l-9.51,3.02s-.07.02-.11.03c-2.64.48-4.79,2.46-5.47,5.06l-3.64,13.83c-.1.37-.44.63-.82.63Zm-8.16-21.69c3.34.79,5.89,3.48,6.5,6.86l1.82,10.05,2.67-10.13c.85-3.21,3.49-5.68,6.76-6.29l7.01-2.23-7.08-2.42c-3.12-.82-5.51-3.33-6.19-6.54l-2.23-10.54-2.38,10.25c-.75,3.24-3.33,5.78-6.57,6.48l-6.61,2.27,6.3,2.22Z"/>
      </g>
      <path class="cls-4" d="m364.5,146.65l7.4-2.35-7.4-2.53c-2.21-.58-3.91-2.36-4.38-4.6l-2.35-11.11-2.52,10.87c-.53,2.29-2.34,4.07-4.65,4.56l-6.97,2.4,6.72,2.37c2.36.55,4.16,2.44,4.59,4.82l1.94,10.75,2.83-10.76c.6-2.28,2.46-4,4.78-4.42Z"/>
      <path class="cls-4" d="m127.65,15.57l3.35-1.06-3.35-1.14c-1-.26-1.77-1.07-1.98-2.08l-1.06-5.03-1.14,4.92c-.24,1.04-1.06,1.84-2.1,2.06l-3.16,1.09,3.05,1.07c1.07.25,1.88,1.11,2.08,2.18l.88,4.87,1.28-4.87c.27-1.03,1.12-1.81,2.16-2Z"/>
      <g>
        <path class="cls-12" d="m381.51,102.95h-76.88c-3.22,0-5.79-2.6-5.79-5.79v-39.76c0-3.22,2.6-5.79,5.79-5.79h76.88c3.22,0,5.79,2.6,5.79,5.79v39.76c.04,3.18-2.56,5.79-5.79,5.79Z"/>
        <rect class="cls-9" x="308.58" y="89.01" width="13.93" height="9.16"/>
        <rect class="cls-9" x="328.44" y="81.5" width="13.93" height="16.52"/>
        <rect class="cls-9" x="347.58" y="71.7" width="13.93" height="26.33"/>
        <rect class="cls-9" x="366.76" y="61.71" width="13.94" height="36.31"/>
        <path class="cls-9" d="m307.03,85.74c-.72,0-1.41-.41-1.73-1.11-.44-.95-.02-2.08.93-2.52l47.2-21.73c.95-.44,2.08-.02,2.52.93.44.95.02,2.08-.93,2.52l-47.2,21.73c-.26.12-.53.17-.79.17Z"/>
        <path class="cls-9" d="m354.53,69.45c-.25,0-.49-.05-.73-.15-.97-.41-1.42-1.52-1.02-2.49l2.03-4.83-5.11-1c-1.03-.2-1.7-1.2-1.5-2.23.2-1.03,1.2-1.7,2.23-1.5l7.4,1.44c.56.11,1.04.47,1.31.97.27.5.3,1.1.08,1.63l-2.93,6.98c-.31.73-1.01,1.17-1.75,1.17Z"/>
      </g>
      <g>
        <path class="cls-4" d="m165.73,10.05C177.11,1.92,191.89.69,205.86.18c8.95-.33,18.05-.46,26.69,1.89s16.89,7.53,21.01,15.48c4.08,7.87,3.65,17.24,5.98,25.79,2.54,9.31,8.51,17.63,16.51,23.02,4.25,2.86,9.2,5.07,12.08,9.3,7.15,10.49-2.61,25.81,3.02,37.19,4.35,8.79,15.54,11.08,23.94,16.15,11.11,6.72,17.95,19.93,17.03,32.89-.2,2.83-.78,5.72-2.36,8.08-1.35,2.02-3.35,3.51-5.34,4.91-28.9,20.25-64.83,27.86-100.01,30.69-36.34,2.93-73.32,1.19-108.47-8.48-13.29-3.66-26.92-8.87-35.77-19.44-8.85-10.57-10.98-27.86-1.28-37.66,5.24-5.3,12.74-7.49,19.66-10.26,6.92-2.77,14.09-6.89,16.65-13.88,2.52-6.9-.16-14.49-.32-21.84-.22-9.9,4.52-19.79,12.38-25.81,6.72-5.15,15.83-7.96,19.8-15.44,2.76-5.19,2.31-11.41,3.15-17.23,1.46-10.12,7.21-19.55,15.53-25.49Z"/>
        <g>
          <path class="cls-9" d="m229.9,148.4c19.36-6.45,70.98-8.07,91.95,13.98,20.97,22.05,23.66,34.95,32.26,44.09,8.6,9.14,49.06,59.2,45.3,81.79-3.76,22.58-23.6,47.32-63.58,38.13-33.52-7.71-61.6-42.72-58.64-41.24.57.28,12.98,49.26,7.64,50.64-37.63,9.74-181.92,4.24-181.92,4.24,0,0,7.21-37.31,6.98-37.01-14.62,19.19-49.47,37.87-68.66,36.16-30.11-2.69-43.91-36.97-39.61-62.24s37.92-46.27,52.44-59.71c14.52-13.44,29.17-54.21,53.37-66.04,24.2-11.83,92.09.85,92.09.85l30.37-3.63Z"/>
          <path class="cls-4" d="m187.19,342.43c-43.24,0-83.91-1.53-84.32-1.55-.25,0-.48-.13-.63-.32-.15-.19-.22-.45-.17-.69,2.18-11.28,5.22-27.16,6.44-33.8-15.03,17.56-46,34.07-64.73,34.07-.91,0-1.79-.04-2.63-.11-11.5-1.03-21.52-6.69-28.99-16.38-9.63-12.5-14.1-30.89-11.38-46.85,3.41-20.04,25.1-37.54,40.93-50.32,4.42-3.57,8.6-6.94,11.77-9.88,5.41-5.01,10.99-14.12,16.9-23.77,10.04-16.38,21.41-34.95,36.67-42.41,6.97-3.41,18.12-5.13,33.14-5.13,26.62,0,57.11,5.48,59.35,5.89l30.16-3.61c8.02-2.66,20.36-4.24,33.03-4.24s43.87,1.8,59.73,18.47c12.89,13.56,18.84,23.55,23.61,31.58,3,5.05,5.37,9.04,8.65,12.52,6.6,7.01,49.45,58.91,45.52,82.51-3.14,18.82-17.61,40.81-48.08,40.81-5.22,0-10.78-.67-16.53-1.99-25.94-5.96-48.33-28.02-56.15-37.13,2.85,11.11,9.71,40.33,6.79,45.5-.39.68-.89.93-1.24,1.02-14.91,3.86-47.83,5.82-97.85,5.82Zm-83.26-3.21c6.49.23,43.81,1.51,83.26,1.51,49.88,0,82.65-1.94,97.42-5.76.03,0,.1-.06.19-.22,2.6-4.59-5.01-37.99-7.96-48-.64-.94-.88-1.49-.61-2.01.15-.28.5-.48.81-.48.17,0,.34.04.52.14.36.18.47.44.83,1.62,3.62,5.16,28.33,32.81,57.63,39.55,5.62,1.29,11.05,1.95,16.15,1.95,29.41,0,43.38-21.22,46.41-39.39,3.82-22.93-38.55-74.13-45.08-81.07-3.4-3.62-5.94-7.88-8.88-12.81-4.73-7.96-10.62-17.86-23.39-31.28-15.41-16.2-46.04-17.94-58.5-17.94s-24.71,1.56-32.57,4.18c-.05.02-.11.03-.17.04l-30.37,3.63c-.09,0-.17,0-.26,0-.32-.06-31.81-5.88-59.17-5.88-14.76,0-25.66,1.67-32.39,4.96-14.82,7.24-26.06,25.59-35.97,41.77-5.97,9.75-11.62,18.97-17.2,24.13-3.21,2.97-7.41,6.36-11.86,9.95-15.62,12.61-37.02,29.87-40.32,49.28-2.64,15.52,1.7,33.39,11.05,45.53,7.17,9.3,16.78,14.74,27.8,15.73.79.07,1.62.11,2.48.11,19.2,0,51.61-17.8,65.43-35.94.31-.41,1-.43,1.33-.03q.35.42-6.62,36.74Z"/>
        </g>
        <g>
          <path class="cls-6" d="m170.57,75.71s-11.33-11.48-20.76-8.1c-9.42,3.39-10.75,23.85-.59,27.82s22.38-3.97,22.38-3.97l-1.03-15.75Z"/>
          <path class="cls-4" d="m155.46,97.4h0c-2.35,0-4.55-.39-6.54-1.17-5.72-2.24-7.68-8.89-7.6-14.36.08-6.05,2.66-13.05,8.21-15.05,1.25-.45,2.59-.67,3.99-.67,8.7,0,17.3,8.61,17.66,8.97.14.15.23.34.24.54l1.03,15.75c.02.31-.13.6-.38.77-.33.21-8.13,5.23-16.61,5.23Zm-1.94-29.56c-1.2,0-2.35.19-3.41.57-4.08,1.47-7,7.01-7.09,13.47-.07,4.91,1.61,10.83,6.52,12.76,1.79.7,3.78,1.05,5.92,1.06h0c6.92,0,13.56-3.68,15.27-4.69l-.98-14.92c-1.38-1.32-8.97-8.25-16.23-8.25Z"/>
        </g>
        <path class="cls-4" d="m228.13,103.09c-1.18,3.09-2.36,6.04-3.68,8.54-13.1,24.44-36.65,21.05-43.57,18.25v-2.21h0l.15-12.81,21.35.88,6.33.29,2.36-1.77,8.54-6.62,8.54-4.56Z"/>
        <g>
          <path class="cls-6" d="m258.16,64.23c-4.71-1.18-8.83.59-11.92,2.8v-.15q0,.15-.15.29c-1.18.88-2.21,1.77-2.94,2.5-2.21-8.83-1.03-31.21-10.6-41.95-5.59-6.33-26.94-7.95-41.95-6.18-10.75,1.32-20.76,12.07-23.85,22.52-3.53,12.07-5.45,25.32-5.59,25.03,2.5,22.23,4.27,50.93,35.04,56.09,7.07,1.18,13.4.29,18.99-1.77-12.95,11.48-29,8.83-34.59,6.62v-2.21c-.29,8.1-1.03,19.73-2.5,20.61-2.36,1.32-11.99-.74-11.99-.74,0,0,5.52,27.39,39.96,25.33,34.45-2.06,33.17-26.4,33.17-26.4,0,0-10.06.79-11.68-1.57-1.32-1.77-.44-19.73,0-28.71.59-.44,1.18-1.03,1.77-1.62,6.92-6.18,10.75-14.13,13.25-22.82,4.56,1.62,12.22,3.39,18.55.15,10.01-5.15,6.92-25.32-2.94-27.82Z"/>
          <path class="cls-4" d="m202.42,173.97c-31.54,0-37.11-25.86-37.16-26.12-.06-.28.03-.57.24-.77.2-.2.49-.29.77-.23.05.01,5.49,1.17,9.06,1.17,1.42,0,2.03-.18,2.29-.31.73-.87,1.66-7.34,2.12-19.93.02-.46.4-.81.86-.82.46,0,.83.39.83.85v1.62c1.61.57,5.42,1.68,10.75,1.68,5.04,0,12.07-1.04,18.84-5.57-4.89,1.16-9.91,1.31-14.98.47-30.05-5.03-33.02-32.11-35.41-53.87l-.33-2.95c-.02-.17.01-.34.09-.49.08-.32.25-1.29.46-2.39.82-4.47,2.52-13.76,5.07-22.48,3.03-10.25,13.05-21.71,24.56-23.13,3.76-.44,7.96-.68,12.15-.68,11.72,0,25.9,1.88,30.55,7.14,7.03,7.9,8.41,21.95,9.42,32.2.33,3.37.62,6.36,1.06,8.68.54-.47,1.14-.96,1.77-1.44.11-.32.4-.55.75-.57,4.02-2.74,8.17-3.63,12.19-2.62,5.7,1.45,8.92,8.02,9.59,13.9.63,5.56-.73,12.55-6.47,15.5-2.48,1.27-5.35,1.91-8.54,1.91h0c-3.72,0-7.27-.88-9.83-1.72-2.94,9.8-7.17,16.92-13.25,22.36-.47.47-.98.98-1.5,1.41-.37,7.48-1.26,26-.14,27.78.46.66,2.61,1.35,7.33,1.35,1.98,0,3.58-.12,3.6-.12.23-.02.45.06.63.21.17.15.28.37.29.59.01.25.92,25.21-33.96,27.3-1.24.07-2.48.11-3.68.11Zm-35.17-25.19c1.48,5.1,8.67,23.5,35.17,23.5,1.17,0,2.37-.04,3.58-.11,29.56-1.77,32.15-20.4,32.36-24.65-.68.03-1.67.07-2.8.07-7.3,0-8.36-1.55-8.71-2.06-1.24-1.65-.98-12.41-.15-29.23.01-.25.14-.49.34-.64.54-.41,1.12-.98,1.68-1.54,6.04-5.4,10.17-12.53,13.03-22.45.06-.23.22-.41.43-.52.21-.11.45-.12.67-.04,2.46.87,6.21,1.91,10.11,1.91,2.92,0,5.53-.58,7.76-1.72,4.96-2.55,6.12-8.8,5.55-13.8-.6-5.3-3.41-11.2-8.32-12.44-3.65-.92-7.44-.02-11.18,2.63-.03.03-.06.06-.09.09-.03.03-.06.05-.09.08-1.11.83-2.12,1.69-2.85,2.42-.22.22-.53.3-.83.22-.29-.08-.52-.32-.6-.61-.64-2.57-1-6.18-1.41-10.35-.99-10.03-2.34-23.76-9-31.24-3.53-3.99-15.02-6.57-29.28-6.57-4.12,0-8.25.23-11.94.66-10.81,1.33-20.26,12.19-23.13,21.92-2.53,8.63-4.22,17.87-5.03,22.3-.23,1.28-.38,2.07-.51,2.56l.31,2.79c2.33,21.19,5.22,47.56,34,52.39,6.34,1.06,12.58.48,18.56-1.73.38-.14.81,0,1.02.36.21.35.14.8-.17,1.07-8.18,7.25-17.33,8.77-23.55,8.77-5.14,0-8.98-1-10.89-1.63-.77,16.77-2.21,17.63-2.78,17.97-.68.38-1.72.56-3.19.56-2.67,0-6.19-.59-8.08-.94Z"/>
        </g>
        <path class="cls-8" d="m248.59,100.88c-1.18,0-1.91-.44-2.36-1.03-1.77-1.91-.88-5.74-.88-6.18.15-.59.74-1.03,1.47-.88.59.15,1.03.74.88,1.47-.29,1.18-.44,3.24.29,3.97.15.15.29.29,1.03.15.44-.15.88-.29,1.03-.74,1.03-1.62.29-5,0-6.18-.15-.59.15-1.32.88-1.47.59-.15,1.32.15,1.47.88.15.59,1.47,5.3-.15,8.1-.59,1.03-1.47,1.62-2.65,1.77-.59.15-.88.15-1.03.15Z"/>
        <path class="cls-8" d="m157.91,103.82c1.18,0,1.91-.44,2.36-1.03,1.77-1.91.88-5.74.88-6.18-.15-.59-.74-1.03-1.47-.88-.59.15-1.03.74-.88,1.47.29,1.18.44,3.24-.29,3.97-.15.15-.29.29-1.03.15-.44-.15-.88-.29-1.03-.74-1.03-1.62-.29-5.01,0-6.18.15-.59-.15-1.32-.88-1.47-.59-.15-1.32.15-1.47.88-.15.59-1.47,5.3.15,8.1.59,1.03,1.47,1.62,2.65,1.77.44.15.74.15,1.03.15Z"/>
        <path class="cls-4" d="m227.54,61.87c-.74.44-1.62.44-2.5.15-.88-.29-1.62-.74-2.36-1.18-1.62-1.03-3.53-1.62-5.3-2.06-.88-.15-2.06-.44-2.5-1.18-.59-.88,0-2.21.88-2.8s2.06-.59,3.09-.44c2.5.44,4.71,1.47,6.77,2.94.74.59,1.32,1.18,1.77,1.91.59.88.59,1.91.15,2.65Z"/>
        <path class="cls-4" d="m177.35,62.02c.74.44,1.77.44,2.5.15.88-.29,1.47-.88,2.21-1.32,1.62-1.03,3.39-1.77,5.3-2.21.88-.29,2.06-.44,2.5-1.32.59-.88,0-2.21-1.03-2.8-.88-.59-2.06-.44-3.24-.29-2.5.44-4.71,1.62-6.62,3.24-.74.59-1.32,1.18-1.77,2.06-.29.74-.29,1.77.15,2.5Z"/>
        <path class="cls-4" d="m161.59,71.29s39.01-42.69,44.75-48.87c0,0-11.92,21.2-5.89,20.46,6.04-.74,9.57-18.55,9.57-18.55,0,0-1.91,12.51,3.24,11.33,5.15-1.18,1.32-13.25,1.32-13.25l28.21,47.74s.64-25.51.78-26.25c.15-.74-5-18.11-5-18.11l-20.76-6.92-30.47-1.77-20.02,3.83-5.74,50.34Z"/>
        <path class="cls-4" d="m245.06,82.59c-.11,0-.22-.02-.33-.07-.43-.18-.63-.68-.45-1.11,3.69-8.76,14.09-9.89,14.53-9.94.47-.03.88.29.93.76.05.47-.29.88-.76.93-.1,0-9.85,1.09-13.14,8.91-.14.32-.45.52-.78.52Z"/>
        <path class="cls-4" d="m253.01,79.35c-.18,0-.35-.05-.5-.17l-3.39-2.5c-.38-.28-.46-.81-.18-1.19.28-.38.81-.46,1.19-.18l3.39,2.5c.38.28.46.81.18,1.19-.17.22-.42.34-.68.34Z"/>
        <path class="cls-4" d="m162.48,82.59c-.33,0-.65-.19-.78-.52-3.29-7.81-13.04-8.9-13.14-8.91-.47-.05-.81-.46-.76-.93.05-.47.45-.79.93-.76.44.04,10.85,1.18,14.54,9.94.18.43-.02.93-.45,1.11-.11.04-.22.07-.33.07Z"/>
        <path class="cls-4" d="m156.59,79.35c-.12,0-.24-.03-.36-.08-.42-.2-.61-.71-.41-1.13l1.18-2.5c.2-.43.71-.61,1.13-.41.42.2.61.7.41,1.13l-1.18,2.5c-.14.31-.45.49-.77.49Z"/>
        <path class="cls-4" d="m65.99,231.8c.44-5.16,4.2-12.68,11.73-8.38s38.99,54.04,38.18,60.49-11.17,8.12-23.6-.91c-12.43-9.04-26.31-51.2-26.31-51.2Z"/>
        <g>
          <g>
            <path class="cls-6" d="m168.46,183.85c-.15-4.02-3.14-9.82-10.99-5.85-7.85,3.98-16.11,17.9-16.11,17.9,0,0-2.83-22.01-1.83-26,.86-3.93,13.95-17.19,10.51-24.12-3.38-6.79-12.56-3.26-15.14.06-.22.25-.95.06-.95.06,0,0-3.09-1.2-9.38,1-6.29,2.2-15.84,12.08-15.84,12.08,0,0-7.54,5.97-10.93,9.29,0,0-20.27,14.03-20.07,28.3.04,6.99,1.83,15.89,4.04,23.81l-15.24,11.42c1.7,19.12,8.61,42.06,26.31,51.2l5.37-3.54,25.15-16.48,21.14-13.89,4.37-2.9s8.52-7.18,9.96-15.75c1.64-8.48-.27-21.74.84-25.44,1.12-3.71,8.92-17.12,8.77-21.14Z"/>
            <path class="cls-4" d="m92.84,283.84c-.13,0-.27-.03-.39-.09-20.96-10.82-25.7-39.89-26.77-51.88-.03-.29.1-.58.34-.75l14.78-11.07c-2.49-9.06-3.88-17.37-3.92-23.47-.2-14.29,18.92-27.94,20.38-28.96,3.31-3.23,10.23-8.73,10.9-9.27.77-.79,9.87-10.06,16.13-12.25,2.61-.92,5-1.38,7.12-1.38,1.61,0,2.53.27,2.78.36.05.01.13.03.2.03,1.67-2,5.53-4.06,9.27-4.06,3.21,0,5.74,1.54,7.14,4.34,2.56,5.15-2.9,13.04-6.89,18.8-1.7,2.46-3.3,4.78-3.55,5.88-.71,2.82.68,16.15,1.55,23.35,2.64-4.07,8.95-13.03,15.18-16.18,1.87-.94,3.6-1.42,5.16-1.42,4.65,0,6.92,4.14,7.06,8,.1,2.76-2.96,9-5.66,14.51-1.42,2.89-2.75,5.61-3.14,6.9-.46,1.52-.35,5.04-.23,9.12.16,5.37.34,11.45-.59,16.24-1.47,8.75-9.89,15.93-10.25,16.24-.02.02-.05.04-.08.06l-4.37,2.9-21.15,13.89-30.53,20.02c-.14.09-.3.14-.47.14Zm-25.43-51.65c1.11,11.9,5.8,39.35,25.38,49.82l4.95-3.27,25.16-16.48,25.47-16.76c.58-.51,8.31-7.33,9.64-15.21.89-4.63.71-10.87.56-15.89-.13-4.4-.23-7.87.31-9.66.43-1.42,1.73-4.08,3.24-7.16,2.35-4.8,5.58-11.37,5.49-13.7-.08-2.2-1.31-6.36-5.37-6.36-1.29,0-2.77.42-4.4,1.24-7.55,3.82-15.68,17.43-15.76,17.57-.18.31-.55.47-.9.4-.35-.07-.62-.36-.67-.72-.12-.91-2.84-22.22-1.81-26.32.31-1.41,1.85-3.63,3.8-6.46,3.75-5.41,8.88-12.83,6.77-17.08-1.13-2.26-3.02-3.4-5.62-3.4-3.27,0-6.74,1.87-8.09,3.61-.28.32-.64.46-1.09.46-.36,0-.69-.08-.75-.1-.03,0-.06-.02-.09-.03,0,0-.75-.27-2.23-.27-1.33,0-3.54.22-6.56,1.28-6.02,2.11-15.42,11.77-15.51,11.87-.03.03-.05.05-.08.08-.07.06-7.54,5.98-10.86,9.23-.03.03-.07.06-.11.09-.2.14-19.9,13.94-19.71,27.59.04,6.08,1.46,14.46,4.01,23.59.09.34-.03.7-.31.91l-14.86,11.14Z"/>
          </g>
          <g>
            <path class="cls-4" d="m96.2,169.57l.14-.06c7.1-2.21,11.82-1.01,13.43,3.4,1.5,4.12-2.65,10.03-7.69,13.69-4.77,3.55-5.94,3.86-6.09,3.92-.14.06-.34-.03-.25-.22-.06-.14.03-.34.22-.25,0,0,1.18-.31,5.66-3.75,4.63-3.49,8.83-9.26,7.44-13.1-1.5-4.12-5.96-5.1-12.64-3.06-.14.06-.34-.03-.39-.17.03-.34.17-.39.17-.39Z"/>
            <path class="cls-2" d="m95.91,190.96c-.21,0-.4-.1-.51-.27-.08-.12-.11-.26-.09-.41-.02-.15.02-.31.1-.44.12-.18.32-.28.53-.25.33-.14,1.73-.81,5.43-3.64,4.52-3.41,8.61-8.99,7.3-12.62-.92-2.53-3.04-3.81-6.29-3.81-1.67,0-3.63.34-5.83,1.01-.05.02-.13.04-.22.04-.3,0-.58-.18-.69-.45-.02-.06-.03-.13-.03-.19.05-.56.34-.72.43-.75l.14-.06c7.39-2.3,12.31-.94,13.99,3.64,1.6,4.41-2.73,10.48-7.84,14.18-2.93,2.18-5.12,3.59-6.16,3.96-.1.04-.18.05-.27.05Z"/>
          </g>
          <g>
            <path class="cls-4" d="m98.83,188.24h0c.08-.2.28-.11.48-.03,1.35.92,3.93,10.97,4.24,12.15.06.14-.03.34-.17.39-.14.06-.34-.03-.39-.17-1.08-4.29-3.23-11.25-3.99-11.93-.2-.08-.25-.22-.17-.42Z"/>
            <path class="cls-2" d="m103.28,201.2c-.3,0-.58-.18-.69-.45-1.27-5.04-3.24-11.04-3.84-11.73-.2-.11-.29-.25-.33-.36-.05-.12-.09-.32.02-.58.1-.24.31-.38.56-.38.18,0,.33.07.47.13.42.28,1.49,1.01,4.42,12.21l.06.23c.05.12.05.32-.03.5-.08.18-.22.32-.39.39-.08.03-.16.05-.25.05Z"/>
          </g>
          <g>
            <path class="cls-4" d="m108.93,159.07h0c.36-.31,8.5-4.4,13.39-2.78,1.32.45,2.33,1.34,2.98,2.55,3.33,6.65-1.57,12.7-4.35,14.3-2.78,1.61-8.29,8.56-9.13,9.71.57,2.22,2.43,8.48,2.1,9.26-.08.2-.22.25-.42.17-.2-.08-.25-.22-.17-.42.11-.53-1.08-5.11-2.18-9.07q-.06-.14.03-.34c.22-.25,6.36-8.1,9.36-9.96,2.64-1.55,7.23-7.15,4.15-13.57-.59-1.07-1.41-1.88-2.53-2.24-4.69-1.53-12.63,2.64-12.77,2.7s-.34-.03-.39-.17q-.14.06-.06-.14Z"/>
            <path class="cls-2" d="m113.66,192.74c-.11,0-.22-.02-.33-.07-.26-.11-.37-.28-.42-.4-.04-.11-.08-.29,0-.51.01-.49-.65-3.39-2.18-8.85-.1-.23-.07-.36.05-.62.02-.04.04-.08.07-.11.02-.03.11-.13.24-.3,4.23-5.26,7.41-8.63,9.21-9.75,2.51-1.47,6.98-6.79,4-13.03-.58-1.05-1.33-1.71-2.28-2.02-.65-.21-1.4-.32-2.25-.32-3.89,0-8.73,2.26-10.12,2.95-.07.03-.11.05-.12.06-.24.1-.52.04-.72-.11-.12-.02-.23-.09-.3-.19-.14-.21-.05-.4.02-.57.03-.06.07-.11.12-.16.43-.36,6.24-3.26,11.04-3.26,1.03,0,1.95.13,2.75.4,1.39.47,2.51,1.42,3.22,2.75,3.36,6.72-1.28,13-4.51,14.87-2.5,1.44-7.55,7.64-8.89,9.43.12.45.28,1.04.46,1.7,1.28,4.67,1.84,7,1.57,7.64-.13.3-.36.47-.65.47Z"/>
          </g>
          <g>
            <path class="cls-4" d="m134.68,146.91s.14-.06,0,0c.08-.2.28-.11.48-.03,1.66,1.29,2.87,3.9,3.1,6.9.18,3.68-1.19,7.16-3.69,9.47-4.71,4.5-6.44,7.48-6.83,8.13l2.13,10.55c.06.14-.03.34-.17.39s-.34-.03-.39-.17l-2.19-10.69s-.06-.14.08-.2c.08-.2,1.62-3.26,6.92-8.33,2.49-2.31,3.78-5.6,3.52-9.08-.12-2.72-1.28-5.19-2.74-6.4-.25-.22-.17-.42-.23-.56Z"/>
            <path class="cls-2" d="m129.61,182.77c-.3,0-.58-.19-.69-.45l-2.21-10.77s-.06-.16.02-.37c.03-.08.08-.14.14-.2.32-.62,1.98-3.59,6.96-8.35,2.4-2.22,3.64-5.41,3.39-8.74-.11-2.47-1.15-4.92-2.58-6.1-.31-.28-.34-.56-.35-.71-.04-.09-.04-.19-.01-.29,0-.02.01-.04.02-.06.1-.24.31-.38.56-.38.18,0,.33.07.47.13.03.01.07.03.09.06,1.78,1.38,3.03,4.14,3.27,7.2.18,3.83-1.21,7.4-3.82,9.82-2.04,1.95-4.85,4.91-6.67,7.9l2.1,10.39c.12.28-.07.72-.42.87-.08.03-.17.05-.26.05Z"/>
          </g>
          <g>
            <path class="cls-4" d="m105.53,210.97h0c.08-.2.42-.17.48-.03,5.85,5.63,7.02,14.62,6.98,20.99.04,6.99-1.43,12.64-1.38,12.78-.08.2-.22.25-.42.17-.2-.08-.25-.22-.17-.42.08-.2,5.43-22.56-5.38-33.21-.14.06-.2-.08-.11-.28Z"/>
            <path class="cls-2" d="m111.36,245.35c-.11,0-.22-.02-.33-.07-.41-.17-.57-.57-.39-.98.05-.18,5.24-22.16-5.17-32.62-.13-.03-.24-.11-.31-.21-.12-.17-.12-.41-.02-.66.19-.45.94-.5,1.2-.13,5.92,5.73,7.11,14.72,7.07,21.26.03,5.67-.91,10.4-1.27,12.18-.06.3-.1.49-.11.58,0,.06,0,.12-.03.18-.13.3-.36.46-.65.46Z"/>
          </g>
        </g>
        <path class="cls-4" d="m337.98,232.29c.54-6.45.81-12.91-1.88-15.59s-9.95-2.15-10.75,4.3-29.31,37.91-32.8,40.33c-3.5,2.42-13.71,5.91-15.59,12.1-1.88,6.18,21.78-1.34,29.84-6.45,8.07-5.11,31.19-34.68,31.19-34.68Z"/>
        <path class="cls-4" d="m387.27,258.23c-.2,0-.41-.07-.57-.22-.23-.21-23.36-21.2-29.73-26.5-2.69-2.24-5.98-6-9.16-9.63-4.13-4.72-8.82-10.07-10.81-10.25-3.53-.32-5.04.82-11.57,6.26-.36.3-.9.25-1.2-.11-.3-.36-.25-.9.11-1.2,6.32-5.27,8.45-7.04,12.81-6.65,2.49.23,6.17,4.24,11.93,10.82,3.14,3.58,6.38,7.28,8.97,9.44,6.39,5.33,29.55,26.34,29.78,26.55.35.31.37.85.06,1.2-.17.18-.4.28-.63.28Z"/>
        <path class="cls-4" d="m277.93,286.55c-.22,0-.43-.08-.6-.25-5.58-5.58-7.45-10.94-5.57-15.95,1.46-3.89,4.25-5.74,7.47-7.88,1.83-1.22,3.73-2.48,5.65-4.27.34-.32.88-.3,1.2.04.32.34.3.88-.04,1.2-2.02,1.89-4.07,3.25-5.87,4.44-3.1,2.06-5.56,3.69-6.82,7.07-1.62,4.33.12,9.09,5.18,14.16.33.33.33.87,0,1.2-.17.17-.38.25-.6.25Z"/>
        <g>
          <g>
            <path class="cls-6" d="m334.22,244.65c2.61-4.47,3.92-9.46,3.41-14.25l-13.89-14.61c3.5-7.44,6.74-15.91,7.95-22.8,2.58-14.03-15.07-31.25-15.07-31.25-2.79-3.84-9.23-10.98-9.23-10.98,0,0-7.77-11.33-13.6-14.55-5.83-3.22-9.08-2.55-9.08-2.55,0,0-.75.07-.93-.22-1.99-3.7-10.44-8.71-14.91-2.58-4.55,6.26,6.14,21.51,6.34,25.53.32,4.1-6.14,25.33-6.14,25.33,0,0-5.82-15.1-12.9-20.33-7.08-5.23-11,0-11.81,3.93-.82,3.93,4.64,18.46,5.12,22.3.48,3.84-3.61,16.59-3.41,25.23,0,8.69,7.2,17.19,7.2,17.19l3.83,3.59,18.53,17.22,20.07,18.61c15.42-2.51,29.25-11.08,38.53-24.81Z"/>
            <path class="cls-4" d="m295.69,270.31c-.21,0-.42-.08-.58-.23l-20.07-18.61-22.36-20.82s-.05-.05-.07-.07c-.3-.36-7.41-8.84-7.4-17.74-.11-4.86,1.08-10.83,2.13-16.09.8-4,1.49-7.45,1.29-9.03-.17-1.34-1.03-4.25-1.95-7.33-1.75-5.88-3.73-12.55-3.17-15.26.7-3.39,3.17-6.81,7.11-6.81,1.88,0,3.91.8,6.04,2.37,5.61,4.14,10.34,14.03,12.27,18.48,2.05-6.95,5.64-19.86,5.42-22.74-.06-1.15-1.25-3.71-2.52-6.41-2.97-6.35-7.04-15.04-3.66-19.68,1.54-2.11,3.69-3.23,6.21-3.23,4.06,0,8.37,2.9,10.01,5.68.06,0,.16,0,.21,0,.13-.02.44-.06.93-.06,1.4,0,4.39.35,8.67,2.72,5.81,3.21,13.23,13.86,13.86,14.77.58.64,6.48,7.22,9.21,10.95,1.27,1.25,17.85,17.89,15.26,31.96-1.05,6-3.81,13.97-7.77,22.48l13.49,14.19c.13.14.21.31.23.49.52,4.83-.7,9.94-3.52,14.77-9.25,13.67-23.13,22.61-39.13,25.22-.05,0-.09.01-.14.01Zm-41.82-40.86l3.79,3.56,18.53,17.22,19.77,18.33c15.36-2.62,28.68-11.26,37.55-24.38,2.55-4.38,3.7-9.02,3.3-13.4l-13.69-14.4c-.24-.25-.3-.63-.15-.95,4.03-8.58,6.83-16.6,7.89-22.58,2.47-13.43-14.66-30.32-14.83-30.49-.03-.03-.07-.07-.09-.11-2.73-3.76-9.11-10.84-9.17-10.91-.03-.03-.05-.06-.07-.09-.08-.11-7.73-11.2-13.31-14.29-3.94-2.18-6.61-2.5-7.85-2.5-.43,0-.66.04-.66.04-.02,0-.06,0-.08.01,0,0-.11.01-.28.01-.71,0-1.2-.21-1.45-.62-1.15-2.14-4.98-5.06-8.67-5.06-1.99,0-3.61.85-4.84,2.53-2.79,3.84,1.03,12,3.83,17.97,1.45,3.11,2.6,5.56,2.67,7.03.33,4.19-5.91,24.75-6.17,25.62-.11.35-.42.59-.78.6-.36.03-.69-.2-.82-.54-.06-.15-5.81-14.93-12.61-19.95-1.83-1.35-3.52-2.04-5.03-2.04-3.41,0-5.03,3.43-5.45,5.45-.47,2.29,1.61,9.3,3.13,14.43.98,3.29,1.82,6.12,2,7.6.23,1.85-.45,5.26-1.31,9.57-.98,4.92-2.21,11.05-2.1,15.74,0,8.03,6.48,16.03,6.97,16.63Z"/>
          </g>
          <g>
            <path class="cls-4" d="m317.97,163.29l-.13-.08c-6.63-3.36-11.49-2.97-13.81,1.11-2.16,3.82.94,10.33,5.3,14.78,4.11,4.29,5.22,4.8,5.35,4.88s.34.03.29-.18c.08-.13.03-.34-.18-.29,0,0-1.11-.5-4.96-4.64-3.98-4.21-7.16-10.6-5.15-14.16,2.16-3.82,6.73-4.03,12.98-.91.13.08.34.03.42-.1.03-.34-.1-.42-.1-.42Z"/>
            <path class="cls-2" d="m314.81,184.44c-.12,0-.24-.03-.35-.1-.98-.55-2.91-2.31-5.43-4.95-4.42-4.5-7.68-11.2-5.36-15.29,1.34-2.35,3.54-3.59,6.38-3.59,2.28,0,4.97.78,7.99,2.31l.16.1c.08.05.35.26.3.81,0,.07-.03.13-.06.19-.13.21-.37.34-.63.34h0c-.13,0-.26-.03-.37-.1-5.99-2.99-10.38-2.79-12.39.76-1.89,3.36,1.21,9.55,5.09,13.66,3.17,3.4,4.44,4.3,4.75,4.5.2.01.37.12.46.29.08.15.1.33.05.49,0,.13-.04.25-.12.35-.11.14-.28.22-.47.22Z"/>
          </g>
          <g>
            <path class="cls-4" d="m312.27,181.26h0c-.05-.21-.26-.16-.47-.11-1.49.69-5.7,10.16-6.21,11.27-.08.13-.03.34.1.42s.34.03.42-.1c1.78-4.05,5.06-10.56,5.92-11.09.21-.05.29-.18.24-.39Z"/>
            <path class="cls-2" d="m305.84,193.3h0c-.13,0-.26-.03-.37-.1-.33-.2-.44-.67-.24-1l.07-.16c3.16-7,5.28-10.79,6.32-11.27.19-.05.31-.08.44-.08.31,0,.55.18.62.48.06.27,0,.46-.07.57-.06.1-.18.23-.39.3-.71.58-3.66,6.17-5.72,10.88-.16.26-.4.39-.66.39Z"/>
          </g>
          <g>
            <path class="cls-4" d="m307.18,150.81h0c-.31-.37-7.65-5.76-12.74-4.98-1.38.22-2.53.93-3.37,2.02-4.39,6-.57,12.78,1.9,14.83,2.47,2.05,6.75,9.82,7.39,11.1-.93,2.09-3.81,7.95-3.61,8.78.05.21.18.29.39.24.21-.05.29-.18.24-.39-.02-.54,1.92-4.86,3.66-8.57q.08-.13.03-.34c-.18-.29-4.92-9.05-7.57-11.38-2.34-1.97-5.94-8.25-1.83-14.08.76-.95,1.7-1.62,2.87-1.79,4.88-.73,12.01,4.71,12.14,4.79s.34.03.42-.1q.13.08.08-.13Z"/>
            <path class="cls-2" d="m297.02,183.23c-.34,0-.6-.22-.69-.58-.16-.68.78-2.88,2.82-7.27.29-.62.54-1.17.74-1.6-1.02-1.99-4.97-8.94-7.19-10.78-2.88-2.38-6.41-9.35-1.97-15.41.93-1.2,2.19-1.95,3.64-2.18.36-.05.73-.08,1.12-.08,5.18,0,11.74,4.89,12.01,5.2.04.05.07.11.09.17.04.18.09.36-.05.54-.08.1-.21.17-.34.17h0c-.22.11-.52.12-.73-.01-.01,0-.05-.03-.11-.08-1.52-1.11-6.79-4.72-10.87-4.72-.31,0-.6.02-.88.06-.97.14-1.85.69-2.6,1.63-3.97,5.63-.44,11.62,1.77,13.49,1.6,1.41,4.18,5.26,7.47,11.15.1.18.17.3.19.33.02.04.04.08.05.13.07.27.08.4-.08.66-2.39,5.1-3.53,7.84-3.6,8.33.04.23-.02.4-.09.5-.07.11-.21.26-.48.32-.07.02-.14.03-.21.03Z"/>
          </g>
          <g>
            <path class="cls-4" d="m283.81,134.53s-.13-.08,0,0c-.05-.21-.26-.16-.47-.11-1.85.99-3.48,3.36-4.21,6.29-.79,3.6-.02,7.26,2.05,9.95,3.89,5.23,5.1,8.45,5.38,9.16l-3.86,10.05c-.08.13-.03.34.1.42.13.08.34.03.42-.1l3.94-10.18s.08-.13-.05-.21c-.05-.21-1.06-3.49-5.43-9.36-2.07-2.69-2.79-6.15-1.96-9.54.57-2.67,2.12-4.91,3.77-5.85.29-.18.24-.39.32-.52Z"/>
            <path class="cls-2" d="m282.96,170.74h0c-.13,0-.26-.03-.37-.1-.16-.1-.27-.26-.32-.45-.05-.19-.02-.39.08-.55l3.77-9.83c-1.33-3.3-3.59-6.65-5.27-8.91-2.17-2.81-2.95-6.57-2.13-10.3.75-2.99,2.44-5.51,4.43-6.57.03-.02.07-.03.1-.04.11-.03.23-.06.36-.06.25,0,.45.12.56.32.06.07.09.16.09.26s-.03.19-.09.26c-.04.17-.13.42-.44.62-1.63.94-3.06,3.18-3.58,5.58-.8,3.26-.12,6.6,1.88,9.19,4.27,5.74,5.35,8.98,5.49,9.46.07.11.11.24.1.33,0,.07-.05.2-.08.26l-3.9,10.11c-.16.28-.4.41-.67.41Z"/>
          </g>
          <g>
            <path class="cls-4" d="m301.87,202.55h0c-.05-.21-.39-.24-.47-.11-6.71,4.58-9.36,13.24-10.39,19.53-1.21,6.89-.7,12.7-.77,12.83.05.21.18.29.39.24.21-.05.29-.18.24-.39-.05-.21-1.59-23.15,10.84-31.85.13.08.21-.05.16-.26Z"/>
            <path class="cls-2" d="m290.52,235.48c-.34,0-.6-.22-.69-.58-.01-.06-.02-.12,0-.18,0-.09,0-.29-.01-.59-.05-1.82-.2-6.64.78-12.23,1.05-6.45,3.72-15.11,10.52-19.78.11-.12.28-.18.47-.18.34,0,.62.21.7.51.06.24.02.46-.1.61-.07.09-.24.18-.37.19-12.01,8.58-10.55,31.12-10.53,31.34.1.4-.12.76-.56.86-.07.02-.14.03-.21.03Z"/>
          </g>
        </g>
        <path class="cls-4" d="m109.81,303.4c-.12,0-.25-.03-.36-.08-.42-.2-.6-.71-.4-1.13.15-.31,3.71-7.74,6.71-9.99.43-.32.84-.61,1.24-.88,2.24-1.54,3.71-2.56,3.44-6.99-.34-5.47-6.28-15.65-6.34-15.76-.24-.4-.1-.92.3-1.16.4-.24.93-.1,1.16.3.25.43,6.2,10.64,6.57,16.51.34,5.38-1.75,6.82-4.17,8.49-.38.26-.78.54-1.19.84-2.67,2-6.16,9.29-6.2,9.36-.15.31-.45.48-.77.48Z"/>
        <path class="cls-4" d="m22.69,257.87c-.23,0-.45-.09-.62-.27-.32-.34-.3-.88.04-1.2,1.68-1.56,5.62-4.6,10.19-8.12,8.4-6.48,21.1-16.26,22.22-19.17,1.9-4.93,11.16-11.19,15.67-12.18,4.55-.98,9.55,4.33,9.76,4.55.32.34.3.88-.04,1.2-.34.32-.88.3-1.2-.04-.05-.05-4.56-4.84-8.16-4.05-3.98.86-12.78,6.8-14.44,11.13-1.19,3.1-10.6,10.52-22.77,19.9-4.53,3.49-8.44,6.51-10.07,8.02-.16.15-.37.23-.58.23Z"/>
        <path class="cls-4" d="m199.43,88.77c-.16,0-.33-.05-.47-.14-.57-.38-3.44-2.39-3.61-4.46-.08-.93.38-2.39,1.18-4.9.78-2.42,1.75-5.43,2.06-8.07.06-.47.48-.8.94-.74.47.05.8.48.74.94-.33,2.81-1.33,5.91-2.13,8.4-.57,1.77-1.16,3.61-1.11,4.24.08.94,1.72,2.43,2.86,3.19.39.26.5.79.24,1.18-.16.25-.43.38-.71.38Z"/>
        <path class="cls-4" d="m222.23,72.14c0-2.52-1.33-4.56-2.97-4.56s-2.97,2.04-2.97,4.56,1.33,4.56,2.97,4.56,2.97-2.04,2.97-4.56Z"/>
        <path class="cls-4" d="m186.58,72.14c0-2.52-1.33-4.56-2.97-4.56s-2.97,2.04-2.97,4.56,1.33,4.56,2.97,4.56,2.97-2.04,2.97-4.56Z"/>
        <path class="cls-4" d="m203.68,100.42c-4.19,0-7.53-1.03-7.6-1.05-.45-.14-.69-.62-.55-1.07.14-.45.62-.69,1.07-.55.14.04,14.07,4.33,19.81-5.35.24-.4.76-.54,1.16-.3.4.24.54.76.3,1.16-3.43,5.8-9.37,7.16-14.19,7.16Z"/>
        <path class="cls-4" d="m218.69,94.39c-.16,0-.33-.05-.48-.15l-3.11-2.12c-.39-.26-.49-.79-.22-1.18.26-.39.79-.49,1.18-.22l3.11,2.12c.39.26.49.79.22,1.18-.16.24-.43.37-.7.37Z"/>
        <path class="cls-6" d="m164.26,25.18c-1.13-1.39-1.35-3.45-.53-5.05.39-.75.97-1.38,1.57-1.97,1.54-1.51,3.29-2.87,5.33-3.58,2.14-.75,5.06-.39,5.88,1.72.49,1.28.01,2.74.29,4.09.49,2.33,2.99,3.55,5.17,4.52,2.17.97,4.61,2.48,4.71,4.86.08,1.98-1.54,3.58-3.03,4.89-2.22,1.95-4.57,3.96-7.46,4.56s-6.42-.83-7.07-3.7c-.45-2,.54-4.22-.29-6.09-.86-1.91-3.24-2.61-4.56-4.24Z"/>
        <path class="cls-6" d="m229.44,34.64c-1.7-1.43-3.34-3.03-4.18-5.08-.84-2.05-.71-4.64.84-6.22,1.82-1.85,4.8-1.74,7.34-1.22s5.21,1.32,7.65.45c2.62-.94,4.3-3.59,6.86-4.66,1.5,1.84,3,3.79,3.51,6.1.51,2.31-.29,5.09-2.42,6.13-2.22,1.09-5.02-.01-7.29.96-2.77,1.19-3.87,5.07-6.82,5.71-2,.43-3.93-.85-5.49-2.17Z"/>
      </g>
      <g>
        <g>
          <path class="cls-6" d="m52.1,381.66l36.7,3.78c2.05.21,4.48-.67,5.43-1.97l25.5-35.08c.95-1.3.05-2.53-2-2.74l-36.7-3.78c-2.05-.21-4.48.67-5.43,1.97l-25.5,35.08c-.95,1.3-.05,2.53,2,2.74Z"/>
          <path class="cls-4" d="m89.42,386.32h0c-.24,0-.48-.01-.71-.04l-36.7-3.78c-1.46-.15-2.54-.77-2.96-1.71-.34-.75-.21-1.59.36-2.37l25.5-35.08c1.12-1.53,3.8-2.57,6.2-2.32l36.7,3.78c1.46.15,2.54.77,2.96,1.71.34.75.21,1.59-.36,2.37l-25.5,35.08c-1.01,1.39-3.27,2.35-5.49,2.35Zm-9.03-43.63c-1.64,0-3.44.73-4.12,1.65l-25.5,35.08c-.14.19-.28.46-.18.68.12.27.6.61,1.58.71l36.7,3.78c.18.02.36.03.54.03h0c1.64,0,3.44-.73,4.12-1.65l25.5-35.08c.14-.19.28-.46.18-.68-.12-.27-.6-.61-1.58-.71l-36.7-3.78c-.18-.02-.36-.03-.54-.03Z"/>
        </g>
        <path class="cls-4" d="m83.95,363.76c1.81-1.12,4.03-2.2,6.36-2.41,3-.27,5.19,1.12,5.21,2.81.02,1.69-1.73,3.55-4.02,5.01-2.29,1.46-5.09,2.61-7.85,3.73-1.8.73-3.59,1.46-5.39,2.2-.4.16-.81.33-1.25.39-.9.13-1.58-.19-2.08-.54-1.97-1.38-2.81-3.27-3.3-5.19-.38-1.48-.55-3.06.4-4.66.96-1.6,3.31-3.23,6.07-3.69,2.63-.44,5.11.41,5.39,1.84"/>
        <path class="cls-4" d="m89.39,358.64c-1.03.86-1.81,1.87-3.31,2.44.28-1.91.16-3.77-.36-5.53,2.8,0,5.47.3,7.87.86-1.63.54-3.1,1.32-4.19,2.23Z"/>
      </g>
      <g>
        <g>
          <path class="cls-6" d="m84.1,395.98l36.7,3.78c2.05.21,4.48-.67,5.43-1.97l25.5-35.08c.95-1.3.05-2.53-2-2.74l-36.7-3.78c-2.05-.21-4.48.67-5.43,1.97l-25.5,35.08c-.95,1.3-.05,2.53,2,2.74Z"/>
          <path class="cls-4" d="m121.43,400.64h0c-.24,0-.48-.01-.71-.04l-36.7-3.78c-1.46-.15-2.54-.77-2.96-1.71-.34-.75-.21-1.59.36-2.37l25.5-35.08c1.12-1.53,3.8-2.57,6.2-2.32l36.7,3.78c1.46.15,2.54.77,2.96,1.71.34.75.21,1.59-.36,2.37l-25.5,35.08c-1.01,1.39-3.27,2.35-5.49,2.35Zm-9.02-43.63c-1.64,0-3.44.73-4.12,1.65l-25.5,35.08c-.14.19-.28.46-.18.68.12.27.6.61,1.58.71l36.7,3.78c1.77.18,3.9-.6,4.65-1.63l25.5-35.08c.14-.19.28-.46.18-.68-.12-.27-.6-.61-1.58-.71l-36.7-3.78c-.18-.02-.35-.03-.54-.03Z"/>
        </g>
        <path class="cls-9" d="m95.39,391.65c-.95.66-2.15,1.31-3.47,1.48-1.7.22-3.05-.48-3.19-1.41-.14-.93.73-1.99,1.93-2.85s2.72-1.56,4.22-2.25c.97-.45,1.95-.89,2.92-1.34.22-.1.44-.2.68-.25.5-.1.92.07,1.23.24,1.23.71,1.85,1.72,2.28,2.77.32.8.54,1.67.11,2.57s-1.66,1.86-3.2,2.18c-1.48.31-2.96-.1-3.22-.88"/>
        <path class="cls-9" d="m112.86,367.62c-.95.66-2.15,1.31-3.47,1.48-1.7.22-3.05-.48-3.19-1.41-.14-.93.73-1.99,1.93-2.85s2.72-1.56,4.22-2.25c.97-.45,1.95-.89,2.92-1.34.22-.1.44-.2.68-.25.5-.1.92.07,1.23.24,1.23.71,1.85,1.72,2.28,2.77.32.8.54,1.67.11,2.57s-1.66,1.86-3.2,2.18c-1.48.31-2.96-.1-3.22-.88"/>
        <path class="cls-9" d="m135.91,370c-.95.66-2.15,1.31-3.47,1.48-1.7.22-3.05-.48-3.19-1.41s.73-1.99,1.93-2.85c1.2-.86,2.72-1.56,4.22-2.25.97-.45,1.95-.89,2.92-1.34.22-.1.44-.2.68-.25.5-.1.92.07,1.23.24,1.23.71,1.85,1.72,2.28,2.77.32.8.54,1.67.11,2.57-.43.9-1.66,1.86-3.2,2.18-1.48.31-2.96-.1-3.22-.88"/>
        <path class="cls-9" d="m118.59,393.83c-.95.66-2.15,1.31-3.47,1.48-1.7.22-3.05-.48-3.19-1.41-.14-.93.73-1.99,1.93-2.85s2.72-1.56,4.22-2.25c.97-.45,1.95-.89,2.92-1.34.22-.1.44-.2.68-.25.5-.1.92.07,1.23.24,1.23.71,1.85,1.72,2.28,2.77.32.8.54,1.67.11,2.57-.43.91-1.66,1.86-3.2,2.18-1.48.31-2.96-.1-3.22-.88"/>
      </g>
      <g>
        <g>
          <path class="cls-6" d="m146.77,387.75l36.7,3.78c2.05.21,4.48-.67,5.43-1.97l25.5-35.08c.95-1.3.05-2.53-2-2.74l-36.7-3.78c-2.05-.21-4.48.67-5.43,1.97l-25.5,35.08c-.95,1.3-.05,2.53,2,2.74Z"/>
          <path class="cls-4" d="m184.09,392.4h0c-.24,0-.48-.01-.71-.04l-36.7-3.78c-1.46-.15-2.54-.77-2.96-1.71-.34-.75-.21-1.59.36-2.37l25.5-35.08c1.12-1.54,3.8-2.57,6.2-2.32l36.7,3.78c1.46.15,2.54.77,2.96,1.71.34.75.21,1.59-.36,2.37l-25.5,35.08c-1.01,1.39-3.27,2.35-5.49,2.35Zm-9.02-43.63c-1.64,0-3.44.73-4.12,1.65l-25.5,35.08c-.14.19-.28.46-.18.68.12.27.6.61,1.58.71l36.7,3.78c1.77.19,3.9-.6,4.65-1.63l25.5-35.08c.14-.19.28-.46.18-.68-.12-.27-.6-.61-1.58-.71l-36.7-3.78c-.18-.02-.35-.03-.54-.03Z"/>
        </g>
        <path class="cls-9" d="m162.86,378.98c.15-2.55-.08-5.12-.69-7.6-2.36,1.82-4.51,3.9-6.41,6.19-.32.38-.64.8-.72,1.29-.12.72.28,1.41.63,2.04.75,1.37,1.31,2.84,1.67,4.36.48-.06.86-.44,1.19-.8,1.21-1.28,2.42-2.56,3.63-3.85.19-.21.39-.41.51-.67.14-.3.17-.64.19-.96Z"/>
        <path class="cls-9" d="m201.51,361.14c.15-2.55-.08-5.12-.69-7.6-2.36,1.82-4.51,3.9-6.41,6.19-.32.38-.64.8-.72,1.29-.12.72.28,1.41.63,2.04.75,1.37,1.31,2.84,1.67,4.36.48-.07.86-.44,1.19-.8,1.21-1.28,2.42-2.56,3.63-3.85.19-.2.39-.41.51-.67.14-.3.17-.64.19-.96Z"/>
      </g>
      <path class="cls-11" d="m252.76,191.49c1.77-2.69,5.1-4.26,8.3-3.92,3.2.35,6.12,2.6,7.27,5.6.43,1.12.63,2.34,1.18,3.41,2.06,4.02,7.82,4.33,11.05,7.48,1.33,1.29,2.16,3.02,2.68,4.8,1.63,5.57.19,11.88-3.49,16.36s-9.47,7.09-15.27,7.15c-2.35.02-4.77-.38-6.75-1.64-2.18-1.39-3.61-3.7-4.63-6.08-3.21-7.52-2.85-16.02-2.43-24.18.16-3.11.37-6.38,2.08-8.97Z"/>
      <path class="cls-11" d="m139.41,244.74c4.08-2.69,5.35-8.03,5.95-12.88.89-7.26.99-14.72-.78-21.82-1.77-7.1-5.54-13.86-11.35-18.31-.54-.41-1.12-.82-1.79-.91-.87-.13-1.72.28-2.51.68-1.54.78-3.11,1.58-4.36,2.77-2.97,2.83-3.62,7.35-3.21,11.43.42,4.08,1.71,8.04,1.95,12.13.43,7.4-2.62,14.63-2.47,22.03.01.76.08,1.56.49,2.19.4.6,1.06.97,1.71,1.3,5.11,2.64,11.57,4.55,16.37,1.38Z"/>
      <g>
        <g>
          <g>
            <ellipse class="cls-7" cx="197.21" cy="332.63" rx="64.12" ry="20.45"/>
            <path class="cls-4" d="m197.21,353.92c-36.43,0-64.97-9.35-64.97-21.3s28.54-21.3,64.97-21.3,64.97,9.35,64.97,21.3-28.54,21.3-64.97,21.3Zm0-40.89c-34.29,0-63.27,8.98-63.27,19.6s28.97,19.6,63.27,19.6,63.27-8.98,63.27-19.6-28.97-19.6-63.27-19.6Z"/>
          </g>
          <g>
            <path class="cls-1" d="m251.2,320.59c-4.52-7.5-15.16-27.58-13.48-48.13l-39.67.7-39.67-.7c1.68,20.55-8.95,40.63-13.48,48.13-1.59,1.65-2.45,3.4-2.45,5.22,0,9.79,24.89,17.73,55.6,17.73s55.6-7.94,55.6-17.73c0-1.82-.86-3.57-2.45-5.22Z"/>
            <path class="cls-4" d="m198.06,344.39c-31.65,0-56.45-8.16-56.45-18.58,0-1.98.88-3.91,2.62-5.74,4.59-7.64,14.96-27.38,13.31-47.54-.02-.24.06-.48.23-.65.16-.17.41-.27.63-.27l39.67.7,39.64-.7c.25,0,.47.09.63.27.16.17.25.41.23.65-1.65,20.17,8.71,39.91,13.31,47.54,1.74,1.83,2.62,3.76,2.62,5.74,0,10.42-24.79,18.58-56.45,18.58Zm-38.76-71.07c1.31,20.4-9.08,40.1-13.66,47.71-.03.05-.07.11-.12.15-1.47,1.52-2.21,3.08-2.21,4.63,0,9.15,25.07,16.88,54.75,16.88s54.75-7.73,54.75-16.88c0-1.55-.74-3.11-2.21-4.63-.04-.05-.08-.1-.12-.15-4.58-7.6-14.98-27.3-13.66-47.71l-38.74.68-38.77-.68Z"/>
          </g>
          <g>
            <ellipse class="cls-7" cx="197.26" cy="273.2" rx="47.28" ry="19.7"/>
            <path class="cls-4" d="m197.26,293.75c-26.99,0-48.13-9.03-48.13-20.55s21.14-20.55,48.13-20.55,48.13,9.03,48.13,20.55-21.14,20.55-48.13,20.55Zm0-39.4c-25.6,0-46.44,8.46-46.44,18.85s20.83,18.85,46.44,18.85,46.44-8.46,46.44-18.85-20.83-18.85-46.44-18.85Z"/>
          </g>
          <g>
            <circle class="cls-3" cx="197.21" cy="221.55" r="64.96" transform="translate(-98.9 204.34) rotate(-45)"/>
            <path class="cls-4" d="m197.21,287.36c-36.29,0-65.81-29.52-65.81-65.81s29.52-65.81,65.81-65.81,65.81,29.52,65.81,65.81-29.52,65.81-65.81,65.81Zm0-129.93c-35.35,0-64.11,28.76-64.11,64.11s28.76,64.11,64.11,64.11,64.11-28.76,64.11-64.11-28.76-64.11-64.11-64.11Z"/>
          </g>
        </g>
        <path class="cls-6" d="m171.45,176.37c-.94-3.09,1.84-6.56,5.06-6.7.91-.04,1.84.13,2.73-.03,1.05-.19,1.96-.8,2.9-1.29,1.83-.95,3.86-1.47,5.89-1.86,2.17-.41,4.4-.69,6.57-.28,2.17.41,4.28,1.58,5.37,3.5.33.57.56,1.24.45,1.89-.29,1.71-2.52,2.15-4.26,2.2-5.78.16-11.78.46-16.91,3.13-1.1.57-2.16,1.26-3.35,1.59-1.19.33-2.59.25-3.51-.57-.46-.41-.77-.98-.95-1.57Z"/>
        <path class="cls-6" d="m184.72,276.6c-3.25-.23-6.26-1.84-8.9-3.74-2.13-1.53-4.28-3.7-4.06-6.31.15-1.74,1.39-3.26,2.94-4.08,1.55-.81,3.35-1.01,5.1-.93,7.44.34,14.23,5.26,21.67,4.97,9.67-.38,17.46-9.4,27.14-9.49.63,0,1.28.04,1.81.37.41.26.71.67.93,1.1,1.28,2.4.66,5.49-.98,7.66-1.64,2.17-4.13,3.54-6.68,4.48-9.12,3.35-19.34,1.8-28.79,4.09-3.37.82-6.73,2.13-10.19,1.88Z"/>
        <path class="cls-6" d="m228.58,174.68c.36.56.66,1.22.56,1.89-.19,1.26-1.63,1.87-2.87,2.11-4.69.92-9.75-.13-13.68-2.85-1.32-.91-2.64-2.41-2.14-3.93.42-1.29,1.93-1.84,3.26-2.06,2.25-.37,4.57-.28,6.82.14,3.14.6,6.32,2.01,8.05,4.69Z"/>
      </g>
      <g>
        <g>
          <circle class="cls-9" cx="197.56" cy="220.21" r="35.47" transform="translate(-61.84 77.96) rotate(-19.36)"/>
          <path class="cls-4" d="m197.55,256.53h0c-16.04,0-29.98-10.31-34.7-25.65-2.85-9.27-1.92-19.1,2.62-27.67,4.54-8.57,12.15-14.86,21.42-17.71,3.48-1.07,7.08-1.61,10.68-1.61,16.04,0,29.98,10.31,34.7,25.65,5.88,19.14-4.9,39.5-24.04,45.39-3.48,1.07-7.08,1.61-10.68,1.61Zm.02-70.95c-3.44,0-6.87.52-10.19,1.54-8.84,2.72-16.09,8.71-20.42,16.89-4.33,8.17-5.22,17.54-2.5,26.38,4.5,14.63,17.79,24.45,33.08,24.45h0c3.44,0,6.86-.52,10.18-1.54,18.25-5.61,28.53-25.02,22.92-43.26-4.5-14.63-17.79-24.45-33.08-24.45Z"/>
        </g>
        <g>
          <circle class="cls-6" cx="197.56" cy="220.21" r="26.22" transform="translate(-89.51 291.71) rotate(-62.09)"/>
          <path class="cls-5" d="m197.55,247.28h0c-11.95,0-22.35-7.69-25.87-19.12-2.12-6.91-1.43-14.24,1.95-20.63,3.38-6.39,9.05-11.08,15.97-13.2,2.59-.8,5.27-1.2,7.96-1.2,11.95,0,22.35,7.68,25.87,19.12,2.12,6.91,1.43,14.24-1.95,20.63-3.38,6.39-9.06,11.08-15.97,13.2-2.59.8-5.27,1.2-7.96,1.2Zm.02-52.46c-2.52,0-5.03.38-7.47,1.13-6.48,1.99-11.79,6.39-14.96,12.38-3.17,5.99-3.82,12.85-1.83,19.33,3.3,10.72,13.04,17.92,24.24,17.92h0c2.52,0,5.03-.38,7.46-1.13,6.48-1.99,11.79-6.39,14.96-12.38,3.17-5.99,3.82-12.85,1.83-19.33-3.3-10.72-13.04-17.92-24.24-17.92Z"/>
        </g>
        <g>
          <circle class="cls-9" cx="197.56" cy="220.21" r="18.77" transform="translate(-89.51 291.71) rotate(-62.09)"/>
          <path class="cls-4" d="m197.55,239.83h0c-8.66,0-16.2-5.57-18.75-13.86-3.18-10.34,2.65-21.34,12.99-24.52,1.88-.58,3.82-.87,5.77-.87,8.66,0,16.2,5.57,18.75,13.86,1.54,5.01,1.04,10.32-1.42,14.95-2.45,4.63-6.56,8.03-11.57,9.57-1.88.58-3.82.87-5.77.87Zm.01-37.55c-1.78,0-3.55.27-5.27.8-9.44,2.9-14.77,12.95-11.86,22.4,2.33,7.57,9.21,12.66,17.12,12.66h0c1.78,0,3.55-.27,5.27-.8,4.58-1.41,8.33-4.51,10.57-8.74,2.24-4.23,2.7-9.08,1.29-13.65-2.33-7.57-9.21-12.66-17.12-12.66Z"/>
        </g>
        <g>
          <circle class="cls-6" cx="197.56" cy="220.21" r="11.7" transform="translate(-82.49 124.85) rotate(-29.3)"/>
          <path class="cls-5" d="m197.55,232.75h0c-5.54,0-10.36-3.56-11.99-8.86-.98-3.2-.66-6.6.91-9.56s4.2-5.13,7.4-6.12c1.2-.37,2.44-.56,3.69-.56,5.54,0,10.36,3.56,11.99,8.86,2.03,6.61-1.69,13.64-8.3,15.68-1.2.37-2.44.56-3.69.56Zm0-23.4c-1.08,0-2.15.16-3.19.48-2.77.85-5.04,2.73-6.4,5.29-1.36,2.56-1.63,5.5-.78,8.26,1.41,4.58,5.57,7.66,10.36,7.66h0c1.08,0,2.15-.16,3.19-.48,5.72-1.76,8.94-7.84,7.18-13.56-1.41-4.58-5.57-7.66-10.36-7.66Z"/>
        </g>
        <g>
          <path class="cls-9" d="m203.13,218.49c-.95-3.08-4.21-4.81-7.29-3.86-3.08.95-4.81,4.21-3.86,7.29.95,3.08,4.21,4.81,7.29,3.86,3.08-.95,4.81-4.21,3.86-7.29Z"/>
          <path class="cls-4" d="m197.55,226.89h0c-2.95,0-5.51-1.9-6.38-4.72-1.08-3.52.9-7.27,4.42-8.35.64-.2,1.3-.3,1.96-.3,2.95,0,5.52,1.9,6.38,4.72.52,1.71.35,3.51-.48,5.09-.84,1.58-2.23,2.73-3.94,3.26-.64.2-1.3.3-1.96.3Zm0-11.66c-.49,0-.99.07-1.47.22-2.63.81-4.11,3.6-3.3,6.23.65,2.1,2.56,3.52,4.76,3.52.49,0,.99-.07,1.47-.22,1.27-.39,2.32-1.25,2.94-2.43.62-1.18.75-2.52.36-3.8-.65-2.11-2.56-3.52-4.76-3.52Z"/>
        </g>
        <g>
          <g>
            <polygon class="cls-1" points="162.84 199.5 161.55 193.38 151.61 187.07 154.44 195.71 162.84 199.5"/>
            <path class="cls-4" d="m162.84,200.35c-.12,0-.24-.02-.35-.08l-8.4-3.79c-.22-.1-.38-.28-.46-.51l-2.83-8.64c-.11-.34,0-.71.29-.93.28-.22.67-.24.98-.05l9.94,6.3c.19.12.33.32.38.54l1.29,6.13c.07.31-.05.64-.3.84-.15.12-.34.19-.53.19Zm-7.71-5.26l6.54,2.95-.87-4.14-7.64-4.85,1.98,6.04Z"/>
          </g>
          <g>
            <polygon class="cls-1" points="162.86 199.41 157.3 202.28 146.13 198.55 154.62 195.29 162.86 199.41"/>
            <path class="cls-4" d="m157.3,203.13c-.09,0-.18-.01-.27-.04l-11.17-3.73c-.34-.11-.57-.43-.58-.79,0-.36.21-.68.54-.81l8.49-3.26c.22-.08.47-.07.68.03l8.25,4.12c.29.14.47.43.47.75,0,.32-.18.61-.46.76l-5.56,2.87c-.12.06-.25.09-.39.09Zm-8.66-4.63l8.59,2.87,3.76-1.94-6.42-3.21-5.93,2.28Z"/>
          </g>
          <path class="cls-4" d="m195.23,219.44c-.19.04-.4.02-.59-.09l-40.39-22.94c-.39-.22-.53-.72-.31-1.12.22-.39.72-.53,1.12-.31l40.39,22.94c.39.22.53.72.31,1.12-.12.21-.31.34-.53.39Z"/>
          <g>
            <polygon class="cls-1" points="198.5 220.87 193.11 211.15 192.67 217.07 187.69 220.2 198.5 220.87"/>
            <path class="cls-4" d="m198.5,221.72s-.03,0-.05,0l-10.81-.67c-.37-.02-.68-.28-.77-.64-.09-.36.06-.73.37-.93l4.61-2.9.41-5.49c.03-.37.3-.69.66-.77.37-.08.74.09.92.42l5.39,9.72c.15.27.14.6-.02.87-.16.25-.43.4-.72.4Zm-8.13-2.2l6.63.41-3.26-5.88-.23,3.09c-.02.27-.17.51-.39.66l-2.75,1.73Z"/>
          </g>
        </g>
      </g>
    </g>
  </g>
</svg>