<?xml version="1.0" encoding="UTF-8"?>
<svg id="_레이어_2" data-name="레이어 2" xmlns="http://www.w3.org/2000/svg" viewBox="0 0 419.32 364.84">
  <defs>
    <style>
      .cls-1 {
        fill: #f2cf63;
      }

      .cls-1, .cls-2, .cls-3, .cls-4, .cls-5, .cls-6, .cls-7, .cls-8 {
        stroke-width: 0px;
      }

      .cls-2 {
        fill: #363636;
      }

      .cls-3 {
        fill: #a2bff9;
      }

      .cls-4 {
        fill: #2b2b2b;
      }

      .cls-5 {
        fill: #333;
      }

      .cls-6 {
        fill: #fff;
      }

      .cls-7 {
        fill: #fc5e71;
      }

      .cls-8 {
        fill: #f2c9cc;
      }
    </style>
  </defs>
  <g id="_迹_1" data-name="卵迹_1">
    <g>
      <path class="cls-8" d="m170.74,14.49c-12.55,8.64-18.42,24.22-29.61,34.56-11.1,10.25-26.4,14.45-41.22,17.39-14.82,2.94-30.16,5.09-43.41,12.34-13.26,7.25-24.22,21.14-22.89,36.19.74,8.42,5.2,16.37,4.74,24.82-.55,10.19-7.96,18.46-14.01,26.69-15.62,21.25-23.59,51.48-9.6,73.84,11.65,18.62,35.98,27.97,43.65,48.55,6.37,17.09-.66,37.83,8.68,53.5,9.99,16.77,33.84,19.06,52.63,13.75,47.53-13.43,80.07-60.32,127.74-73.22,48.47-13.12,104.75,11.19,148.23-13.93,4.49-2.6,8.79-5.76,11.74-10.02,3.22-4.66,4.64-10.34,5.32-15.96,2.16-17.81-2.67-36.38-13.25-50.88-14.61-20.03-39.83-33.11-46.56-56.97-2.85-10.11-1.88-20.85-2.74-31.32-2.67-32.42-24.67-62.5-54.75-74.87-16.62-6.83-34.84-8.46-52.32-12.62-24.28-5.77-51.82-15.95-72.38-1.8Z"/>
      <g>
        <path class="cls-6" d="m399.67,191.71l8.56-2.72-8.56-2.92c-2.56-.67-4.52-2.73-5.07-5.32l-2.72-12.85-2.92,12.58c-.61,2.65-2.71,4.71-5.37,5.27l-8.06,2.77,7.78,2.74c2.72.63,4.81,2.82,5.31,5.58l2.25,12.44,3.28-12.45c.69-2.63,2.85-4.62,5.53-5.11Z"/>
        <path class="cls-5" d="m390.86,210.11s-.02,0-.03,0c-.4-.02-.73-.3-.8-.7l-2.25-12.44c-.44-2.42-2.27-4.34-4.67-4.9-.03,0-.06-.02-.09-.03l-7.78-2.74c-.34-.12-.57-.44-.57-.8,0-.36.23-.68.57-.8l8.06-2.77s.07-.02.1-.03c2.33-.49,4.18-2.31,4.72-4.63l2.92-12.58c.09-.39.43-.66.83-.66h0c.4,0,.74.28.82.67l2.72,12.85c.48,2.29,2.19,4.08,4.45,4.68l8.62,2.94c.35.12.58.45.57.81,0,.37-.24.69-.59.8l-8.56,2.72s-.07.02-.11.03c-2.34.42-4.25,2.19-4.86,4.49l-3.28,12.45c-.1.37-.44.63-.82.63Zm-7.32-19.68c3.03.72,5.35,3.17,5.91,6.24l1.57,8.67,2.3-8.74c.77-2.92,3.18-5.16,6.14-5.72l6.05-1.92-6.12-2.09c-2.83-.74-5.01-3.03-5.63-5.95l-1.92-9.11-2.05,8.85c-.68,2.94-3.02,5.25-5.97,5.9l-5.71,1.96,5.44,1.92Z"/>
      </g>
      <path class="cls-5" d="m348.47,40.02l7.51-2.38-7.51-2.56c-2.25-.59-3.97-2.4-4.45-4.67l-2.38-11.27-2.56,11.03c-.54,2.33-2.38,4.13-4.71,4.62l-7.07,2.43,6.82,2.41c2.39.55,4.22,2.48,4.66,4.89l1.97,10.91,2.87-10.92c.61-2.31,2.5-4.06,4.85-4.48Z"/>
      <path class="cls-5" d="m13.31,309.94l4.72-1.5-4.72-1.61c-1.41-.37-2.49-1.51-2.79-2.94l-1.5-7.09-1.61,6.93c-.34,1.46-1.49,2.59-2.96,2.91l-4.44,1.53,4.29,1.51c1.5.35,2.65,1.56,2.93,3.07l1.24,6.86,1.81-6.86c.38-1.45,1.57-2.55,3.05-2.82Z"/>
      <g>
        <path class="cls-5" d="m273.42,172.68c3.07-4.91.63-11.4,1.82-17.07,2.16-10.28,14.4-14.03,23.98-18.34,8.85-3.98,16.96-10.15,21.84-18.54,4.88-8.39,6.13-19.17,1.91-27.91-5.52-11.42-18.63-17.13-25.96-27.48-7.74-10.94-8.05-25.56-14.4-37.37-7.26-13.49-22.74-22.08-38.03-21.1-13.46-8.19-31.01-4.95-45.39,1.51-11.28,5.07-22.01,12.19-28.97,22.41-11.91,17.5-11.04,41.1-21.84,59.3-2.41,4.05-5.5,7.89-9.69,10.03-7.55,3.86-16.61,1.46-24.91-.3-6.7-1.42-13.74-2.35-20.34-.5s-12.65,7.08-13.58,13.86c-1.28,9.34,5.89,17.59,1.83,26.91-3.68,8.44-13.5,9.41-20.7,13.34-10.88,5.94-10.53,17.65-5.45,28.1,2.47,5.08,7.1,9.45,12.71,10.09,8.82,1.02,17.58-8.38,26.2-4.22,7.64,3.69,6.18,13.13,1.95,18.93-3.5,4.8-8.08,9.5-8.28,15.44-.09,2.63.74,5.24,2.08,7.52,3.83,6.54,11.55,10.06,19.11,10.61,7.56.55,15.06-1.44,22.29-3.72,7.28-2.29,14.55-4.94,20.85-9.25,15.3-10.46,24.25-30.18,41.98-35.6,10.48-3.21,21.74-.57,32.7-.36,14.55.28,29.15-3.89,41.35-11.83,1.89-1.23,3.76-2.59,4.96-4.5Z"/>
        <path class="cls-1" d="m276.28,141.97c-7.03-.64-12.24-6.88-11.6-13.91.64-7.03,6.88-12.24,13.91-11.6,7.03.64,12.24,6.88,11.6,13.91-.64,7.03-6.88,12.24-13.91,11.6Zm2.07-22.79c-5.53-.5-10.44,3.59-10.95,9.13-.5,5.53,3.59,10.44,9.13,10.95,5.53.5,10.44-3.59,10.95-9.13.5-5.53-3.59-10.44-9.13-10.95Z"/>
        <g>
          <path class="cls-6" d="m265.11,93.24s13.51-11.51,23.57-6.83c10.05,4.68,9.42,27.21-2.15,30.56-11.57,3.34-24.18-6.62-24.18-6.62l2.77-17.1Z"/>
          <path class="cls-5" d="m281.52,118.5c-10.1,0-19.31-7.18-19.7-7.49-.24-.19-.36-.5-.31-.8l2.77-17.1c.03-.2.13-.38.29-.51.39-.33,9.68-8.15,18.81-8.15,2.05,0,3.96.4,5.66,1.2,5.87,2.73,7.99,10.61,7.48,17.21-.46,5.99-3.27,13.06-9.75,14.93-1.65.48-3.42.72-5.25.72Zm-18.25-8.53c1.84,1.35,9.87,6.83,18.25,6.83,1.67,0,3.28-.22,4.77-.65,5.65-1.63,8.12-8.01,8.53-13.43.55-7.11-2.13-13.5-6.5-15.54-1.48-.69-3.15-1.04-4.95-1.04-7.74,0-15.98,6.35-17.47,7.55l-2.63,16.28Z"/>
        </g>
        <path class="cls-5" d="m281.76,101.12c-.21,0-.41-.07-.58-.23-.34-.32-.37-.85-.05-1.2.23-.25,5.79-6.19,9.78-3.07.37.29.43.82.15,1.19-.29.37-.82.43-1.19.15-2.72-2.13-7.44,2.83-7.49,2.88-.17.18-.4.27-.62.27Z"/>
        <g>
          <path class="cls-6" d="m353.34,227.47c-1.52,9.12-1.8,33.19-1.61,58.53.29,36.92,1.61,76.52,1.61,76.52l-73.52.17-48.86.11-153.96.35s3.8-41.65,10.82-82.56c5.99-34.93,14.34-69.32,24.65-76.78,11.2-8.09,28.63-14.78,44.5-20.23,12.9-4.42,24.77-8.03,31.44-10.89,1.54-.66,2.79-1.29,3.73-1.88,2.19-1.79,4.08-3.16,4.78-4.06,1.96-2.54.47-47.59.35-51.26-1.66-3.68-2.96-7.53-3.89-11.47-3.29,1.19-15.42,4.95-24.2-.49-10.23-6.35-4.75-28.22,6.19-30,4.77-.78,9.32,1.59,12.97,4.5.59.92,1.18,1.84,1.77,2.75.52.81,1.11,1.68,2.03,1.99,1.26.42,2.56-.37,3.69-1.08,18.43-11.73,48.58-21.89,56.16-43.03,2.1,7.89,14.81,19.3,19.4,24.13,2.42,2.56,10.45,10.37,12.31,16.48-.1,1.59-.41,5.65-.44,5.98-2.46,29.34-5.1,53.39-32.19,59.29-.06,4.81-.08,12.64.27,18.86.38,0,.58-.02.58-.02.15.84.68,1.43,1.51,1.8,9.05,4.1,55.1-16.57,75.04-8.03,21.78,9.34,28.63,47.93,24.89,70.33Z"/>
          <path class="cls-5" d="m77.01,364.15c-.24,0-.47-.18-.63-.35-.16-.18-.24-.45-.22-.69.04-.42,3.89-42.17,10.83-82.65,7.7-44.88,16.11-70.91,24.99-77.33,11.66-8.43,30.03-15.3,44.72-20.35,4.19-1.44,8.22-2.77,12.11-4.06,7.94-2.63,14.8-4.9,19.28-6.82,1.51-.65,2.71-1.25,3.57-1.79.58-.47,1.14-.92,1.66-1.33,1.34-1.06,2.5-1.98,2.94-2.56,1.17-1.96.98-26.89.18-50.55-1.5-3.35-2.73-6.9-3.65-10.56-2.45.81-7.18,2.12-12.35,2.12-4.56,0-8.49-1.01-11.69-2.99-5.74-3.56-6.53-11.12-5.35-17.01,1.29-6.49,5.46-13.51,11.85-14.55,4.28-.7,8.89.89,13.63,4.68.07.06.14.13.19.21.59.92,1.18,1.84,1.77,2.75.48.75.95,1.43,1.59,1.65.86.28,2.11-.45,2.96-.99,4.7-2.99,10.07-5.84,15.77-8.85,16.17-8.56,34.5-18.27,40.05-33.75.13-.35.46-.59.83-.56.37.02.69.27.78.63,1.67,6.27,10.68,15.24,16.07,20.6,1.23,1.23,2.3,2.29,3.12,3.16.26.27.58.6.95.98,3.19,3.3,9.84,10.18,11.56,15.83.03.1.04.2.04.3-.1,1.6-.41,5.68-.44,6-2.3,27.49-4.47,53.47-32.2,59.9-.05,4.21-.07,11.37.23,17.34.31.08.55.34.61.67.06.34.23.82,1.02,1.18.69.31,1.71.47,3.04.47,4.72,0,12.53-1.94,21.57-4.18,12.26-3.04,26.15-6.48,37.62-6.48,5.23,0,9.42.71,12.81,2.16,12.77,5.48,19.28,19.78,22.49,30.81,3.78,12.98,4.89,28.48,2.9,40.44-1.3,7.8-1.84,27.44-1.6,58.39.29,36.48,1.59,76.1,1.61,76.5,0,.23-.08.45-.24.62-.16.17-.38.33-.61.33l-276.34.7h0ZM193.38,103.16c.14,0,.28.03.4.1.21.12.37.32.42.55.94,3.94,2.23,7.75,3.84,11.32.05.1.07.21.07.32.5,14.73,1.45,49.25-.52,51.81-.57.74-1.74,1.67-3.23,2.85-.53.42-1.09.87-1.68,1.35-.03.02-.06.04-.08.06-.95.6-2.21,1.23-3.85,1.94-4.54,1.95-11.43,4.23-19.41,6.87-3.89,1.29-7.9,2.61-12.09,4.05-14.58,5-32.79,11.81-44.27,20.11-8.39,6.07-16.8,32.43-24.31,76.23-6.36,37.07-10.12,75.19-10.73,81.57l274.53-.62c-.19-6.04-1.31-42.17-1.58-75.66-.24-31.04.3-50.78,1.62-58.68,3.84-22.97-3.58-60.49-24.38-69.41-3.13-1.34-7.22-2.02-12.14-2.02-11.26,0-25.05,3.42-37.21,6.43-9.15,2.27-17.05,4.23-21.98,4.23-1.59,0-2.81-.2-3.73-.62-.85-.38-1.46-.97-1.78-1.71-.43-.02-.78-.36-.81-.8-.36-6.49-.32-14.64-.27-18.92,0-.4.28-.73.67-.82,27.12-5.91,29.26-31.47,31.53-58.53.02-.3.32-4.13.43-5.81-1.67-5.24-8.03-11.82-11.11-15-.37-.39-.7-.72-.96-1-.8-.85-1.86-1.9-3.09-3.12-5.25-5.23-12.91-12.85-15.73-19.2-6.58,14.87-24.3,24.25-40.01,32.58-5.66,3-11.01,5.83-15.65,8.78-1.1.7-2.2,1.33-3.41,1.33-.35,0-.68-.05-1-.16-1.25-.43-1.99-1.58-2.47-2.34-.56-.87-1.13-1.75-1.69-2.63-4.31-3.42-8.43-4.85-12.19-4.24-4.77.78-9.07,6.21-10.46,13.21-1.06,5.33-.42,12.14,4.58,15.24,2.93,1.82,6.56,2.74,10.8,2.74,5.63,0,10.73-1.62,12.66-2.32.09-.03.19-.05.29-.05Z"/>
        </g>
        <g>
          <path class="cls-3" d="m353.34,227.54c-1.52,9.12-1.8,33.6-1.61,58.6h-72.71v77h-150.41l2.08-39.32c-11.61-12.5-7.44-38.34-7.44-38.34l-35.43-4.86c5.99-34.93,14.34-69.34,24.65-76.8,11.2-8.09,28.63-14.79,44.5-20.24,12.9-4.42,24.77-8.03,31.44-10.9,3.28,3.91,9.3,7.39,19.67,9.58,29.23,6.17,41.29-9.48,45.32-17.1,9.05,4.1,55.1-16.54,75.04-7.99,21.78,9.34,28.63,47.96,24.89,70.36Z"/>
          <path class="cls-5" d="m280.03,364.15H127.72l2.11-39.94c-10.41-11.58-8.16-33.31-7.53-37.96l-35.46-4.88.15-.87c7.7-44.9,16.11-70.93,24.99-77.35,11.69-8.45,30.04-15.32,44.72-20.35,4.17-1.43,8.17-2.75,12.04-4.04,7.97-2.64,14.85-4.92,19.34-6.84l.58-.25.41.48c3.54,4.23,10,7.35,19.2,9.29,4.37.92,8.56,1.39,12.47,1.39,19.47,0,28.36-11.31,31.92-18.06l.37-.71.73.33c.69.31,1.71.47,3.03.47,4.72,0,12.53-1.94,21.57-4.18,12.26-3.04,26.15-6.5,37.63-6.5,5.22,0,9.41.71,12.8,2.16,12.77,5.48,19.28,19.77,22.49,30.8,3.78,12.98,4.89,28.47,2.9,40.43-1.63,9.76-1.77,37.3-1.6,58.53v1.03s-72.56,0-72.56,0v77Zm-150.51-2h149.51v-77h71.85c-.16-21,0-48.07,1.63-57.82,3.84-22.97-3.59-60.49-24.38-69.41-3.13-1.34-7.21-2.03-12.13-2.03-11.26,0-25.05,3.42-37.22,6.44-9.15,2.27-17.05,4.23-21.98,4.23-1.19,0-2.18-.11-2.98-.35-3.96,7.13-13.32,18.31-33.07,18.31-4.02,0-8.34-.48-12.82-1.43-9.24-1.95-15.87-5.11-19.73-9.39-4.55,1.9-11.22,4.11-18.9,6.65-3.87,1.28-7.87,2.6-12.03,4.03-14.57,5-32.76,11.8-44.27,20.12-8.34,6.03-16.69,32.09-24.17,75.39l35.42,4.86-.14.86c-.04.25-3.97,25.59,7.22,37.64l.24.17-2.05,38.71Z"/>
        </g>
        <path class="cls-1" d="m179.37,129.75c-7.03-.64-12.24-6.88-11.6-13.91.64-7.04,6.88-12.24,13.92-11.61,7.04.64,12.24,6.88,11.61,13.92-.64,7.03-6.88,12.24-13.92,11.6Zm2.07-22.8c-5.53-.5-10.44,3.59-10.95,9.13-.5,5.53,3.59,10.44,9.13,10.95,5.54.5,10.45-3.59,10.95-9.13.5-5.54-3.59-10.45-9.13-10.95Z"/>
        <path class="cls-5" d="m279.13,285.26c-.46,0-.84-.38-.84-.84v-39.68c0-.46.38-.84.84-.84s.84.38.84.84v39.68c0,.46-.38.84-.84.84Z"/>
        <path class="cls-5" d="m278.89,256.08c-.13,0-.25-.03-.37-.09-2.03-1.02-4.57-6.55-5.06-7.65-.19-.42,0-.92.43-1.11.42-.19.92,0,1.11.43,1.11,2.5,3.17,6.27,4.28,6.83.42.21.58.71.38,1.13-.15.29-.44.46-.75.46Z"/>
        <path class="cls-5" d="m252.29,143.43c-5.21,1.04-21.13,1.19-34.83-8.78,0,0,16.37,26.64,35.57,24.41s-.74-15.63-.74-15.63Z"/>
        <g>
          <path class="cls-6" d="m239.48,120.48c1.94,1.79,4.49,2.85,7.83,2.54,2.93-.28,5.62-1.64,7.64-3.46,1.94-1.74,3.5-3.99,4.41-6.26.15-.38,1.37-4.75,1.64-4.73-8.62-.51-17.24-1.17-25.72-2.54-.44-.07-.96-.12-1.26.15-.25.23-.23.58-.19.89.49,4.04,1.98,10.02,5.67,13.41Z"/>
          <path class="cls-5" d="m246.16,123.92h0c-2.79,0-5.23-.95-7.26-2.82-4.3-3.96-5.59-11.06-5.94-13.93-.04-.29-.13-1.08.46-1.62.31-.29.74-.43,1.26-.43.24,0,.48.03.71.07,8.75,1.41,17.48,2.05,25.61,2.53.47,0,.84.38.84.85,0,.25-.11.47-.28.63-.25.55-.84,2.49-1.1,3.35-.17.55-.29.96-.34,1.07-.96,2.42-2.61,4.75-4.63,6.58-2.32,2.09-5.21,3.39-8.13,3.67-.41.04-.83.06-1.23.06Zm-11.52-17.1s0,.08.01.15c.33,2.68,1.51,9.31,5.4,12.89,1.71,1.57,3.76,2.37,6.11,2.37h0c.35,0,.7-.02,1.07-.05,2.56-.24,5.1-1.39,7.15-3.24,1.83-1.65,3.32-3.76,4.19-5.94.04-.11.15-.47.29-.94.36-1.2.63-2.07.85-2.7-7.83-.48-16.18-1.12-24.57-2.48-.16-.03-.36-.05-.49-.04Z"/>
        </g>
        <g>
          <path class="cls-6" d="m252.14,78.69c-.3,2.98,1.93,12.05,3.13,15.18,1.19,3.13-4.61,5.21-4.61,5.21"/>
          <path class="cls-5" d="m250.65,99.93c-.35,0-.67-.22-.8-.56-.16-.44.07-.93.51-1.09.91-.33,3.41-1.49,4.06-2.92.19-.41.2-.78.05-1.19-1.12-2.94-3.51-12.26-3.18-15.57.05-.47.46-.79.93-.76.47.05.81.46.76.93-.28,2.81,1.92,11.76,3.07,14.79.31.83.28,1.69-.09,2.5-1.07,2.33-4.63,3.66-5.03,3.81-.09.03-.19.05-.29.05Z"/>
        </g>
        <path class="cls-5" d="m189.19,94.87c-.36,0-.69-.22-.81-.58-1.79-5.38-4.31-8.52-7.47-9.34-4.64-1.2-9.26,2.96-9.31,3-.35.31-.88.29-1.2-.05-.32-.35-.29-.88.05-1.2.22-.2,5.36-4.83,10.88-3.39,3.76.98,6.67,4.49,8.66,10.45.15.45-.09.93-.54,1.07-.09.03-.18.04-.27.04Z"/>
        <path class="cls-5" d="m180.56,92.19c-.15,0-.31-.04-.45-.13-.4-.25-.52-.77-.27-1.17l3.27-5.21c.25-.4.77-.51,1.17-.27.4.25.52.77.27,1.17l-3.27,5.21c-.16.26-.44.4-.72.4Z"/>
        <g>
          <g>
            <path class="cls-6" d="m261.52,85.68s6.25-6.99,12.05.74"/>
            <path class="cls-5" d="m273.57,87.28c-.26,0-.51-.12-.68-.34-1.58-2.11-3.32-3.22-5.16-3.3-3.07-.14-5.56,2.58-5.58,2.61-.31.35-.85.38-1.2.06-.35-.31-.38-.85-.07-1.2.12-.14,3.04-3.34,6.91-3.18,2.38.1,4.56,1.44,6.46,3.98.28.37.21.91-.17,1.19-.15.11-.33.17-.51.17Z"/>
          </g>
          <g>
            <line class="cls-6" x1="273.57" y1="85.91" x2="276.4" y2="84.49"/>
            <path class="cls-5" d="m273.57,86.76c-.31,0-.61-.17-.76-.47-.21-.42-.04-.93.38-1.14l2.83-1.41c.42-.21.93-.04,1.14.38s.04.93-.38,1.14l-2.83,1.41c-.12.06-.25.09-.38.09Z"/>
          </g>
          <g>
            <line class="cls-6" x1="271.19" y1="83.82" x2="273.57" y2="82.11"/>
            <path class="cls-5" d="m271.19,84.67c-.26,0-.52-.12-.69-.35-.27-.38-.19-.91.19-1.19l2.38-1.71c.38-.28.91-.19,1.18.19.27.38.19.91-.19,1.18l-2.38,1.71c-.15.11-.32.16-.49.16Z"/>
          </g>
        </g>
        <g>
          <g>
            <path class="cls-6" d="m235.32,83.9s-6.25-6.99-12.05.74"/>
            <path class="cls-5" d="m223.27,85.49c-.18,0-.36-.06-.51-.17-.38-.28-.45-.81-.17-1.19,1.9-2.54,4.08-3.87,6.46-3.98,3.85-.17,6.79,3.04,6.91,3.18.31.35.28.89-.07,1.2-.35.31-.88.28-1.2-.07h0s-2.51-2.76-5.58-2.61c-1.85.08-3.58,1.19-5.16,3.3-.17.22-.42.34-.68.34Z"/>
          </g>
          <g>
            <line class="cls-6" x1="223.27" y1="84.12" x2="220.44" y2="82.71"/>
            <path class="cls-5" d="m223.27,84.97c-.13,0-.26-.03-.38-.09l-2.83-1.41c-.42-.21-.59-.72-.38-1.14.21-.42.72-.59,1.14-.38l2.83,1.41c.42.21.59.72.38,1.14-.15.3-.45.47-.76.47Z"/>
          </g>
          <g>
            <line class="cls-6" x1="225.65" y1="82.04" x2="223.27" y2="80.33"/>
            <path class="cls-5" d="m225.65,82.89c-.17,0-.34-.05-.49-.16l-2.38-1.71c-.38-.27-.47-.8-.19-1.18.27-.38.81-.47,1.18-.19l2.38,1.71c.38.27.47.8.19,1.19-.17.23-.43.35-.69.35Z"/>
          </g>
        </g>
        <path class="cls-5" d="m223.42,75.35c-1.29-.45-2.04-2.06-1.54-3.34,3.86-2.04,8.39-2.79,12.7-2.11,1.12.18,2.29.48,3.11,1.26.83.78,1.18,2.16.5,3.07-.74.99-2.2.97-3.43.89-2.97-.18-5.96-.08-8.92.28-.81.1-1.66.22-2.43-.05Z"/>
        <path class="cls-5" d="m273.47,77.13c1.29-.45,2.04-2.06,1.54-3.34-3.86-2.04-8.39-2.79-12.7-2.11-1.12.18-2.29.48-3.11,1.26-.83.78-1.18,2.16-.5,3.07.74.99,2.2.97,3.43.89,2.97-.18,5.96-.08,8.92.28.81.1,1.66.22,2.43-.05Z"/>
        <path class="cls-6" d="m190.69,38.79c-2.15-2.18-2.53-5.5-2.63-8.56-.03-1.02-.05-2.07.29-3.04.33-.95.96-1.76,1.63-2.51,4.63-5.18,11.43-8.36,18.38-8.58,1.97-.06,4.11.16,5.57,1.49.93.85,1.46,2.04,1.96,3.19.6,1.37,1.2,2.83,1,4.31-.28,2-1.98,3.57-2.32,5.56-.59,3.46,2.98,6.11,6.21,7.48,3.23,1.36,7.07,2.81,8.04,6.19.75,2.61-.67,5.46-2.78,7.18-2.11,1.72-4.78,2.54-7.38,3.33-2.53.77-5.73,1.36-7.45-.65-1.68-1.96-.72-5.01-1.55-7.46-1.16-3.4-5.29-4.63-8.86-4.96-3.57-.33-7.57-.43-10.09-2.98Z"/>
        <path class="cls-5" d="m204.69,103.69c-.09,0-.19,0-.28,0-1.13-.08-2.22-.63-2.91-1.47-1.16-1.41-1.39-3.56-.59-5.48.33-.79.8-1.52,1.25-2.22.76-1.17,1.47-2.28,1.34-3.44-.18-1.51-1.76-2.6-3.12-3.38l-.13-.07c-1.67-.96-3.56-2.05-4.25-4.05-.72-2.09.32-4.56,2.33-5.49.42-.2.93-.01,1.13.41.2.43.02.93-.41,1.13-1.2.56-1.87,2.15-1.44,3.4.48,1.4,2.01,2.28,3.49,3.14l.13.08c1.7.98,3.69,2.39,3.95,4.65.21,1.76-.71,3.19-1.6,4.56-.43.67-.84,1.3-1.11,1.95-.55,1.33-.41,2.84.34,3.75.39.48,1.05.8,1.71.85.55.03,1.04-.11,1.38-.43.34-.32.88-.3,1.2.05.32.34.3.88-.05,1.2-.62.58-1.45.89-2.36.89Z"/>
        <path class="cls-5" d="m43.23,195.3c-1.61,0-3.02-.63-3.99-1.81-.3-.36-.24-.9.12-1.2.36-.3.9-.24,1.19.12,1.11,1.35,2.74,1.27,3.61,1.1,2.08-.4,3.95-1.97,4.54-3.81.95-2.99,0-6.61-2.81-10.78-.51-.76-1.05-1.51-1.59-2.25-1.89-2.62-3.85-5.34-4.7-8.56-1.94-7.41,2.75-14.91,7.79-19.45,2.57-2.32,5.46-4.31,8.25-6.23,2.92-2.01,5.94-4.09,8.55-6.53,4.6-4.29,8.76-11.25,6.64-17.91-.5-1.58-1.32-3.02-2.19-4.55-.75-1.32-1.53-2.69-2.08-4.16-3.05-8.06,1.38-16.91,7.33-21.5,5.43-4.18,12.98-6.41,22.44-6.62,9.14-.19,18.15,1.26,26.77,4.34.71.25,1.41.51,2.11.78,2.54.95,5.17,1.93,7.84,2.33,12.33,1.82,22.98-9.23,24.81-20.29.14-.85.25-1.73.35-2.58.26-2.17.53-4.41,1.39-6.51.18-.43.67-.64,1.11-.47.43.18.64.67.47,1.11-.77,1.89-1.02,3.92-1.28,6.07-.11.87-.22,1.77-.36,2.66-1.97,11.84-13.43,23.66-26.74,21.69-2.85-.42-5.56-1.44-8.19-2.42-.7-.26-1.39-.52-2.09-.77-8.42-3.01-17.22-4.43-26.16-4.24-9.09.2-16.3,2.3-21.44,6.26-5.45,4.2-9.54,12.27-6.78,19.55.51,1.35,1.22,2.6,1.97,3.92.87,1.54,1.77,3.12,2.33,4.87,2.36,7.42-2.12,15.02-7.1,19.67-2.7,2.52-5.77,4.64-8.74,6.68-2.75,1.89-5.58,3.85-8.08,6.1-4.67,4.21-9.03,11.08-7.29,17.76.76,2.92,2.55,5.39,4.43,8,.55.76,1.1,1.53,1.62,2.3,3.12,4.62,4.14,8.74,3.02,12.25-.78,2.45-3.13,4.44-5.84,4.96-.43.08-.84.12-1.25.12Z"/>
        <path class="cls-5" d="m240.37,314.99c-15.51,0-26.66-4.58-33.91-9.12-10.74-6.73-15.36-14.64-15.55-14.98-.23-.41-.09-.92.31-1.16.41-.23.93-.09,1.16.31.05.08,4.64,7.93,15.06,14.43,9.61,6,26.3,12.05,51.23,6.82.46-.09.91.2,1.01.66.1.46-.2.91-.66,1-6.8,1.43-13.01,2.03-18.64,2.03Z"/>
        <path class="cls-5" d="m123.26,286.25c-.08,0-.15-.01-.23-.03-.45-.13-.72-.59-.59-1.04,3.82-13.81,10.64-39.6,10.71-39.86.12-.45.58-.72,1.04-.6.45.12.72.58.6,1.04-.07.26-6.89,26.06-10.71,39.88-.1.38-.45.62-.82.62Z"/>
        <path class="cls-5" d="m219.94,191.12c-14.96,0-25.47-5.18-25.63-5.27-.42-.21-.59-.72-.37-1.14.21-.42.72-.59,1.14-.37.24.12,24.67,12.14,51.93-1.2.42-.21.93-.03,1.14.39.21.42.03.93-.39,1.14-9.96,4.87-19.56,6.45-27.81,6.45Z"/>
      </g>
      <g>
        <g>
          <path class="cls-6" d="m110.71,326.13l.79-33.25.63-27.97.1-5.8s-1.19-12.26-8.08-18.96c-6.69-6.82-19.96-13.4-22.63-16.74-2.68-3.34-9.99-18.87-13.73-21.25-3.75-2.39-10.91-3.31-12.22,6.34-1.31,9.65,6.18,25.9,6.18,25.9,0,0-21.81-11.24-24.81-14.66-3.04-3.25-6.89-23.49-15.36-24.7-8.3-1.18-10.85,9.39-9.45,13.82.09.36-.55.91-.55.91,0,0-3.03,2.06-4.97,9.17-1.94,7.11,1.05,22,1.05,22,0,0,.7,10.61,1.6,15.78,0,0,.04,27.26,13.15,36.04,6.39,4.35,15.62,8.31,24.21,11.27l-.45,59.98c21.15.06,43.31-.74,64.49-.5l.06-37.36Z"/>
          <path class="cls-5" d="m48.37,364.84h-2.2c-.23,0-.44-.09-.6-.26-.16-.16-.25-.38-.25-.6l.44-59.37c-9.81-3.42-18.26-7.38-23.83-11.17-13.12-8.78-13.52-34.77-13.53-36.66-.86-5.04-1.53-14.82-1.59-15.75-.23-1.16-2.96-15.27-1.03-22.34,1.88-6.9,4.82-9.28,5.26-9.61.07-.06.15-.15.2-.21-.82-2.87-.22-7.8,2.27-11.2,2-2.73,4.86-3.95,8.17-3.48,6.24.9,9.98,10.79,12.72,18.02,1.17,3.1,2.28,6.02,3.14,6.95,2.15,2.45,15.42,9.69,22.46,13.38-2.01-4.83-6.34-16.41-5.29-24.15,1.02-7.53,5.38-8.66,7.88-8.66,1.87,0,3.92.63,5.64,1.72,2.56,1.63,6.31,8.33,9.62,14.24,1.74,3.1,3.38,6.03,4.32,7.2,1.11,1.38,4.38,3.5,8.18,5.96,4.98,3.22,10.63,6.88,14.4,10.72,7.02,6.82,8.27,18.96,8.32,19.47,0,.03,0,.06,0,.1l-.1,5.8-.63,27.97-.79,33.25-.06,37.34c0,.23-.09.44-.25.6-.16.16-.38.27-.61.24-2.81-.03-5.64-.05-8.49-.05-8.92,0-18.11.14-27,.28-8.84.14-17.97.27-26.79.27Zm-1.35-1.7h1.35c8.81,0,17.94-.14,26.77-.27,8.89-.14,18.09-.28,27.02-.28,2.56,0,5.11.01,7.65.04l.06-36.5.79-33.26.73-33.71c-.09-.81-1.44-12.19-7.82-18.38-3.66-3.72-9.46-7.48-14.13-10.5-4.08-2.64-7.3-4.72-8.58-6.32-1.02-1.28-2.62-4.13-4.47-7.43-2.89-5.16-6.86-12.24-9.05-13.63-1.45-.92-3.17-1.45-4.73-1.45-3.42,0-5.56,2.49-6.2,7.19-1.26,9.29,6.03,25.27,6.11,25.43.15.33.08.72-.18.97-.26.25-.65.31-.98.14-.9-.46-21.99-11.36-25.06-14.85-1.08-1.15-2.13-3.95-3.47-7.49-2.58-6.83-6.12-16.18-11.37-16.94-2.69-.39-4.92.57-6.56,2.8-2.13,2.91-2.73,7.48-1.96,9.92.21.84-.49,1.54-.8,1.81-.02.02-.05.04-.07.06-.02.02-2.82,2.05-4.63,8.69-1.86,6.83,1.04,21.47,1.07,21.61,0,.04.01.07.01.11,0,.11.71,10.63,1.58,15.69,0,.05.01.1.01.14,0,.27.2,26.91,12.78,35.33,5.57,3.79,14.09,7.75,24.01,11.17.34.12.57.44.57.81l-.44,59.12Z"/>
        </g>
        <g>
          <path class="cls-5" d="m9.43,258.98l.04-.16c2.45-7.85,6.5-11.39,11.52-10.09,4.69,1.23,7.47,8.71,7.64,15.6.24,6.57-.22,7.84-.25,8-.04.16-.24.29-.36.09-.16-.04-.29-.24-.09-.36,0,0,.46-1.27.14-7.51-.27-6.4-2.89-13.85-7.26-15-4.69-1.23-8.39,2.23-10.72,9.59-.04.16-.24.29-.4.25-.29-.24-.25-.4-.25-.4Z"/>
          <path class="cls-2" d="m28.16,272.93c-.15,0-.3-.06-.41-.17-.18-.09-.32-.27-.35-.46-.03-.18.02-.35.14-.49.08-.37.36-2.05.1-7.26-.27-6.27-2.79-13.52-6.94-14.61-4.37-1.14-7.92,2.11-10.21,9.31-.07.3-.39.56-.75.56-.03,0-.12,0-.15-.02-.06-.02-.12-.04-.18-.09-.46-.37-.42-.72-.4-.82l.04-.16c2.18-7,5.62-10.69,9.96-10.69.68,0,1.38.09,2.09.28,5,1.31,7.79,9.04,7.95,16,.15,4.04.05,6.91-.26,8.08-.07.32-.33.54-.63.54Z"/>
        </g>
        <g>
          <path class="cls-5" d="m28.07,268.31h0c-.13-.2.07-.33.27-.45,1.69-.65,12.45,3.31,13.72,3.77.16.04.29.24.25.4-.04.16-.24.29-.4.25-4.58-1.72-12.27-4.13-13.36-3.86-.2.13-.36.09-.49-.11Z"/>
          <path class="cls-2" d="m41.98,272.71s-.12-.01-.15-.02c-4.72-1.76-11.55-3.87-13.04-3.87-.03,0-.06,0-.08,0-.12.06-.24.09-.36.09-.15,0-.42-.05-.63-.38-.23-.37-.1-.72.4-1.04.25-.11.47-.14.76-.14,2.2,0,8.34,2.06,13.1,3.78l.23.08c.14.03.31.15.42.32.11.17.15.38.11.57-.08.34-.4.59-.75.59Z"/>
        </g>
        <g>
          <path class="cls-5" d="m7.86,240.8h0c-.05-.53,1.33-10.5,5.87-13.93,1.24-.92,2.69-1.28,4.19-1.11,8.14,1.14,10.57,9.4,10.29,12.94-.28,3.54,2.58,12.92,3.1,14.41,2.37.88,9.24,3.11,9.75,3.9.13.2.09.36-.11.49-.2.13-.36.09-.49-.11-.42-.44-5.33-2.23-9.62-3.7q-.16-.04-.29-.24c-.09-.36-3.38-10.87-3.19-14.77.24-3.37-1.97-11.07-9.75-12.3-1.34-.13-2.59.1-3.63.9-4.34,3.31-5.53,13.16-5.56,13.32-.04.16-.24.29-.4.25q-.04.16-.16-.04Z"/>
          <path class="cls-2" d="m40.74,257.99c-.14,0-.39-.04-.59-.32-.42-.31-3.47-1.53-9.44-3.59-.26-.06-.35-.15-.51-.41-.02-.04-.04-.08-.05-.13,0-.04-.05-.18-.12-.41-2.13-7.14-3.2-12.15-3.08-14.48.23-3.22-1.81-10.66-9.39-11.86-.19-.02-.4-.03-.61-.03-1.06,0-1.96.28-2.69.84-3.68,2.8-5.05,10.61-5.39,12.93-.01.08-.02.13-.02.15-.06.26-.27.48-.53.56-.08.1-.19.15-.32.15-.25,0-.37-.18-.48-.35-.04-.06-.06-.12-.06-.18-.06-.55,1.32-10.75,6.04-14.31,1.29-.96,2.86-1.38,4.5-1.2,8.2,1.15,10.99,9.29,10.67,13.39-.25,3.2,2.23,11.73,3.02,14.05.49.18,1.13.4,1.85.65,5.04,1.76,7.52,2.71,7.92,3.35.25.4.16.82-.24,1.08-.15.09-.3.14-.44.14Zm-.05-.77l-.16.25.3-.3s-.05-.03-.1-.03l-.03.04s0,.05,0,.07c0,0-.02-.02-.03-.03Zm-12.96-20.26c.08.65.09,1.24.05,1.74,0,.04,0,.08,0,.12,0-.06,0-.11.01-.17.04-.45.02-1.03-.06-1.69Z"/>
        </g>
        <g>
          <path class="cls-5" d="m12.96,209.72s.04-.16,0,0c-.13-.2.07-.33.27-.45,2.21-.7,5.35-.17,8.23,1.51,3.46,2.15,5.77,5.58,6.31,9.3,1.14,7.11,2.77,10.56,3.11,11.33l10.94,4.69c.16.04.29.24.25.4-.04.16-.24.29-.4.25l-11.11-4.72s-.16-.04-.13-.2c-.13-.2-1.95-3.52-3.24-11.53-.54-3.72-2.72-6.95-6.06-8.9-2.55-1.6-5.53-2.1-7.54-1.52-.36.09-.49-.11-.65-.15Z"/>
          <path class="cls-2" d="m41.73,237.18s-.12-.01-.15-.02l-11.18-4.75s-.18-.04-.3-.24c-.05-.07-.08-.16-.08-.25-.35-.65-2.02-4.02-3.23-11.56-.52-3.6-2.65-6.73-5.85-8.6-1.72-1.08-3.74-1.7-5.53-1.7-.61,0-1.18.07-1.68.21-.43.11-.69-.04-.83-.12-.09-.02-.17-.07-.23-.13-.02-.02-.05-.05-.07-.07-.12-.19-.12-.37-.09-.48.06-.29.31-.45.5-.56.03-.02.06-.03.1-.05,2.34-.74,5.67-.14,8.57,1.54,3.59,2.23,5.96,5.73,6.51,9.61.5,3.09,1.42,7.52,3.01,11.06l10.79,4.62c.11.02.28.14.39.32.11.17.15.38.11.57-.07.33-.41.59-.76.59Z"/>
        </g>
        <g>
          <path class="cls-5" d="m52.97,276.48h0c-.13-.2.11-.49.27-.45,8.8-1.79,17.71,2.78,23.49,6.82,6.39,4.35,10.61,9.24,10.77,9.28.13.2.09.36-.11.49-.2.13-.36.09-.49-.11-.13-.2-17.13-19.1-33.61-15.95-.04.16-.2.13-.33-.07Z"/>
          <path class="cls-2" d="m87.18,293.11c-.15,0-.42-.05-.63-.38-.11-.13-14.41-16.11-29.44-16.11-1.21,0-2.4.11-3.55.31-.24.24-.69.16-.94-.23-.13-.21-.14-.48,0-.71.13-.24.37-.39.61-.39h0c1.32-.26,2.69-.4,4.08-.4,7.64,0,14.92,3.97,19.68,7.3,5.18,3.53,8.89,7.36,10.29,8.8.24.24.39.41.46.47.05.03.1.08.13.13.16.25.15.46.12.59-.03.13-.12.33-.36.48-.15.09-.29.14-.44.14Z"/>
        </g>
      </g>
      <g>
        <g>
          <path class="cls-6" d="m144.33,72.48l-21.18-5.76c-3.1,2.7-6.77,4.88-10.94,6.32-17.85,6.16-38.02-3.3-45.05-21.12-7.03-17.82,1.73-37.25,19.58-43.41,17.85-6.16,38.02,3.3,45.05,21.12,2.9,7.35,3.11,14.98,1.1,21.83l11.44,21.01Z"/>
          <path class="cls-4" d="m100.95,75.77c-15.13,0-29.03-9.46-34.59-23.54-3.52-8.92-3.32-18.5.58-26.97,3.82-8.3,10.75-14.53,19.51-17.55,3.71-1.28,7.59-1.93,11.53-1.93,15.13,0,29.03,9.46,34.59,23.53,2.84,7.19,3.26,14.81,1.23,22.04l11.2,20.58c.12.15.19.74.19.95,0,.47-.38,1.26-.85,1.26h-.02c-.07,0-.15-.42-.22-.44l-20.74-5.84c-3.2,2.72-6.85,4.69-10.88,6.08-3.71,1.28-7.59,1.82-11.53,1.82Zm-2.97-68.29c-3.75,0-7.45.62-10.98,1.83-8.32,2.87-14.9,8.79-18.52,16.66-3.7,8.04-3.89,17.18-.54,25.67,5.3,13.43,18.57,22.5,33.01,22.5h0c3.76,0,7.45-.65,10.98-1.87,3.96-1.37,7.55-3.46,10.66-6.17.21-.19.51-.26.78-.19l19.26,5.23-10.49-19.27c-.11-.2-.13-.43-.07-.65,2.04-6.97,1.67-14.33-1.08-21.28-5.3-13.43-18.57-22.46-33.01-22.46Z"/>
        </g>
        <ellipse class="cls-5" cx="114.77" cy="41.08" rx="5.52" ry="5.16"/>
        <ellipse class="cls-5" cx="98.21" cy="41.08" rx="5.52" ry="5.16"/>
        <path class="cls-5" d="m76.14,41.08c0-2.85,2.47-5.16,5.52-5.16s5.52,2.31,5.52,5.16-2.47,5.16-5.52,5.16-5.52-2.31-5.52-5.16Z"/>
      </g>
      <g>
        <path class="cls-6" d="m412.8,260.3c-1.08-14.94-63.96-33.55-63.96-33.55,0,0-6.83,6.47-13.68,15-3.15-11.28-6.59-21.51-9.71-26.11-3.14-4.63-9.45-5.85-14.09-2.71-4.64,3.14-5.85,9.45-2.71,14.09,2.71,3.99,7.82,22.25,12.35,41.59-1.83,9.31,1.75,35.33,7.38,41.83l.87,53.28c26.24-.32,43.02-.27,69.31-.87,0-3.93.49-39.18.43-42.45,6.25-17.25,14.4-51.77,13.8-60.09Z"/>
        <path class="cls-5" d="m329.26,364.55c-.46,0-.84-.37-.85-.83l-.86-52.98c-5.81-7.2-9.14-32.73-7.41-42.12-5.05-21.51-9.83-37.65-12.19-41.13-3.4-5.02-2.08-11.87,2.93-15.27,1.83-1.24,3.96-1.89,6.16-1.89,3.65,0,7.06,1.8,9.11,4.82,2.67,3.95,5.83,12.28,9.38,24.78,6.45-7.85,12.66-13.75,12.73-13.81.22-.21.53-.28.82-.2,2.59.77,63.46,18.96,64.56,34.31.63,8.75-7.67,43.31-13.8,60.29.02,2.35-.12,14.55-.25,25.34-.09,7.87-.18,15.31-.18,16.97,0,.46-.37.84-.83.85-17.34.39-30.79.51-45.04.63-7.49.06-15.34.13-24.28.24h-.01Zm-12.22-152.53c-1.86,0-3.66.55-5.2,1.6-4.24,2.87-5.35,8.67-2.48,12.91,3,4.43,8.41,24.53,12.48,41.87.03.12.03.24,0,.36-1.9,9.68,1.94,35.05,7.19,41.11.13.15.2.34.21.54l.85,52.43c8.59-.1,16.18-.17,23.44-.23,14.01-.12,27.26-.23,44.19-.61.02-2.56.09-8.93.18-16.16.13-11.05.28-23.57.25-25.45,0-.1.02-.21.05-.3,6.47-17.87,14.31-51.93,13.75-59.74-.84-11.67-45.21-27.38-62.88-32.66-1.48,1.43-7.39,7.28-13.25,14.57-.2.25-.52.36-.83.3-.31-.06-.56-.3-.65-.6-3.68-13.21-6.91-21.91-9.59-25.86-1.73-2.55-4.61-4.08-7.71-4.08Z"/>
      </g>
      <path class="cls-5" d="m354.08,301.45s-.08-.02-.12-.04c-.43-.16-.66-.65-.49-1.09,11.8-31.25-15.14-44.82-16.3-45.39-.42-.21-.59-.71-.39-1.13.21-.42.72-.6,1.13-.39.3.15,29.49,14.79,17.14,47.51-.15.4-.57.61-.97.53Z"/>
      <circle class="cls-5" cx="315.11" cy="196.07" r="29.02"/>
      <g>
        <path class="cls-7" d="m343.12,204.64l-22.07,19.05,19.11,19.88c6.91-5.59,13.81-11.2,20.72-16.39l-17.76-22.54Z"/>
        <path class="cls-5" d="m340.16,244.42c-.22,0-.45-.09-.61-.26l-19.11-19.88c-.16-.17-.25-.4-.24-.63.01-.23.12-.45.29-.6l22.07-19.05c.18-.15.4-.23.64-.2.23.02.44.14.59.32l17.76,22.54c.14.18.2.41.17.63-.03.23-.15.43-.33.57-6.43,4.82-12.97,10.12-19.29,15.23l-1.4,1.14c-.16.13-.35.19-.53.19Zm-17.88-20.67l17.95,18.67.8-.65c6.11-4.94,12.42-10.05,18.64-14.75l-16.67-21.16-20.72,17.88Z"/>
      </g>
      <path class="cls-5" d="m418.9,300.81l-58.02-73.63c-6.91,5.18-13.81,10.8-20.72,16.39l65.77,68.43,12.96-11.19Z"/>
      <g>
        <g>
          <path class="cls-6" d="m357.18,206.37l-22.19,23.22c-3.96,4.15-3.45,11.22,1.14,15.8,3.81,3.81,9.2,4.65,13.2,2.48-2.28,4.17-1.37,9.9,2.55,13.82,3,3,6.99,4.16,10.51,3.46-.89,3.77.28,8.15,3.47,11.34,3.86,3.86,9.35,4.68,13.37,2.4-.84,3.41.2,7.38,3.09,10.27,4.11,4.11,10.32,4.43,13.87.72l19.9-20.82c.92-.96,1.57-2.11,1.96-3.34,1.1-3.51.06-7.78-2.98-10.83-2.87-2.87-6.76-3.85-10.06-2.94.27-.52.53-1.05.71-1.61,1.23-3.92.07-8.68-3.32-12.08-3.01-3.01-7.02-4.16-10.55-3.45.89-3.77-.24-8.16-3.44-11.35-3.8-3.8-9.2-4.65-13.19-2.48.3-.56.57-1.13.76-1.74,1.23-3.92.07-8.68-3.32-12.08-4.58-4.59-11.51-4.95-15.47-.81Z"/>
          <path class="cls-5" d="m389.97,293.31c-2.98,0-5.99-1.3-8.25-3.56-2.57-2.57-3.87-6.06-3.58-9.43-1.19.44-2.48.67-3.8.67-3.28,0-6.59-1.42-9.07-3.91-2.97-2.96-4.41-7.06-3.91-10.94-3.59.3-7.34-1.13-10.07-3.86-3.55-3.55-4.86-8.57-3.53-12.85-1.01.3-2.07.46-3.16.46-3.28,0-6.58-1.42-9.06-3.9-4.9-4.9-5.42-12.52-1.15-16.99l22.2-23.22c1.94-2.03,4.62-3.15,7.56-3.15,3.3,0,6.63,1.44,9.13,3.94,3.49,3.49,4.88,8.52,3.56,12.84,1-.3,2.06-.45,3.13-.45,3.28,0,6.58,1.42,9.06,3.9,2.95,2.95,4.38,7.05,3.88,10.94,3.6-.32,7.37,1.12,10.1,3.86,3.51,3.51,4.9,8.59,3.53,12.93-.02.08-.05.15-.07.22,3.26-.33,6.72.97,9.22,3.47,3.17,3.17,4.42,7.76,3.19,11.68-.44,1.4-1.16,2.63-2.16,3.67l-19.9,20.82c-1.76,1.84-4.18,2.85-6.84,2.85Zm-10.74-15.28c.18,0,.36.06.51.17.27.2.39.55.31.88-.81,3.26.29,6.89,2.87,9.47,1.94,1.94,4.51,3.06,7.05,3.06,2.18,0,4.18-.82,5.61-2.32l19.9-20.82c.81-.85,1.4-1.86,1.76-3.01,1.05-3.33-.04-7.24-2.77-9.97-1.92-1.92-4.47-3.02-6.99-3.02-.77,0-1.52.1-2.24.3-.33.09-.68-.02-.89-.29-.21-.26-.25-.63-.09-.93.24-.46.49-.96.65-1.47,1.18-3.75-.05-8.15-3.12-11.22-2.16-2.16-5.04-3.41-7.88-3.41-.64,0-1.28.06-1.9.19-.28.05-.58-.03-.78-.24-.2-.21-.28-.5-.22-.79.87-3.66-.36-7.71-3.21-10.56-2.16-2.16-5.03-3.41-7.86-3.41-1.54,0-3.04.37-4.33,1.07-.33.18-.74.12-1.01-.15-.27-.27-.32-.68-.14-1.01.32-.59.55-1.1.7-1.59,1.18-3.75-.05-8.15-3.11-11.22-2.19-2.19-5.08-3.44-7.93-3.44-2.46,0-4.71.93-6.33,2.62l-22.2,23.22c-3.63,3.81-3.13,10.36,1.13,14.61,2.17,2.17,5.03,3.41,7.86,3.41,1.54,0,3.04-.37,4.33-1.07.33-.18.74-.12,1.01.15.27.27.32.68.14,1.01-2.17,3.96-1.18,9.22,2.41,12.81,2.16,2.16,5.04,3.41,7.89,3.41.63,0,1.26-.06,1.86-.18.28-.06.58.04.78.24.2.21.28.5.22.78-.86,3.65.39,7.69,3.25,10.55,2.17,2.17,5.04,3.41,7.87,3.41,1.6,0,3.15-.4,4.47-1.15.13-.08.28-.11.42-.11Z"/>
        </g>
        <path class="cls-5" d="m349.55,248.26c-.15.08-.36.04-.5-.1-.18-.18-.19-.45-.04-.61l25.89-26.88c.15-.16.42-.14.6.03.18.18.19.45.04.61l-25.89,26.88s-.06.05-.1.07Z"/>
        <path class="cls-5" d="m362.61,265.54c-.15.07-.34.04-.49-.09-.18-.17-.21-.44-.07-.61l15.14-17.21c.14-.17.41-.16.59,0,.18.17.21.44.07.61l-15.14,17.21s-.07.06-.11.08Z"/>
        <path class="cls-5" d="m385.98,272.83c-.15.07-.34.04-.48-.09-.18-.17-.22-.44-.07-.61l16.93-19.73c.14-.18.41-.17.59,0,.18.17.22.44.07.61l-16.93,19.73s-.07.07-.11.09Z"/>
        <path class="cls-5" d="m379.45,279.27c-.14.07-.32.05-.47-.07-.19-.16-.24-.43-.1-.61l2.23-2.9c.14-.18.4-.19.59-.03.19.16.24.43.1.61l-2.23,2.9s-.08.08-.12.1Z"/>
        <path class="cls-5" d="m352.04,237.74s-.03.08-.06.11l-4.94,6.88c-.07.1-.19.16-.33.15-.21,0-5.1-.23-8.92-4.55-.17-.2-.16-.48,0-.63.17-.15.45-.12.62.07,3.1,3.5,7.08,4.1,8.02,4.19l4.71-6.56c-1.65-6.36-7.97-8.8-9.34-9.26l-4.19,5.63c-.14.19-.41.2-.61.04-.2-.16-.25-.45-.11-.63l4.35-5.85c.09-.13.26-.18.42-.14.09.03,8.48,2.44,10.38,10.29.02.08.02.16,0,.24Z"/>
        <path class="cls-5" d="m366.07,255.57s-.04.07-.06.1l-5.49,6.4c-.08.1-.21.14-.34.13-.21-.02-5.11-.63-8.64-5.19-.15-.21-.13-.49.05-.62.19-.14.46-.08.62.12,2.86,3.7,6.82,4.6,7.76,4.77l5.24-6.1c-1.18-6.41-7.36-9.31-8.7-9.88l-4.64,5.23c-.15.17-.43.17-.62-.01-.19-.18-.21-.47-.07-.63l4.82-5.43c.1-.12.27-.16.44-.1.08.03,8.36,3.08,9.67,10.98.01.08,0,.16-.02.23Z"/>
        <path class="cls-5" d="m381.86,270.33s-.04.07-.06.1l-5.49,6.4c-.08.1-.21.14-.34.13-.21-.02-5.11-.63-8.64-5.19-.15-.21-.13-.49.05-.62.19-.14.46-.08.62.12,2.86,3.7,6.82,4.6,7.76,4.77l5.24-6.1c-1.18-6.41-7.36-9.31-8.7-9.88l-4.64,5.23c-.15.17-.43.17-.62-.01-.19-.18-.21-.47-.07-.63l4.82-5.43c.1-.12.27-.16.44-.1.08.03,8.36,3.08,9.67,10.98.01.08,0,.16-.02.23Z"/>
        <path class="cls-5" d="m398.49,283.53s-.04.07-.06.1l-5.2,6.07c-.08.09-.2.14-.32.12-.2-.02-4.84-.6-8.18-4.92-.15-.2-.12-.46.04-.59.18-.13.44-.08.59.11,2.71,3.51,6.46,4.36,7.35,4.52l4.96-5.78c-1.12-6.07-6.97-8.82-8.24-9.36l-4.4,4.95c-.14.16-.4.16-.58-.01-.18-.17-.2-.44-.06-.6l4.57-5.15c.1-.11.26-.15.41-.1.08.03,7.92,2.91,9.16,10.4.01.08,0,.15-.02.22Z"/>
      </g>
      <circle class="cls-6" cx="315.73" cy="179.93" r="8.34"/>
      <path class="cls-6" d="m331.21,182.86c0-2.99-2.42-5.41-5.41-5.41s-5.41,2.42-5.41,5.41,2.42,5.41,5.41,5.41,5.41-2.42,5.41-5.41Z"/>
      <path class="cls-5" d="m37.2,363.66c-2.99,0-5.86-.44-8.53-1.31-5.88-1.92-10.76-6.13-13.06-11.27-2.94-6.54-2.06-14.99,2.41-23.19,2.05-3.76,4.83-7.14,7.52-10.41,3.03-3.68,6.16-7.49,8.14-11.76,2.9-6.26,1.73-16.04.6-25.49-1.45-12.09-2.95-24.6,3.47-31.64,3.65-4,9.4-5.83,17.59-5.6,8.52.24,17.12,4.81,23,12.23,3.4,4.3,5.8,9.29,8.11,14.12,1.6,3.34,3.26,6.8,5.22,9.97,13.23,21.31,43.6,30.77,66.32,20.66,7.25-3.23,13.22-8.56,18.99-13.72,4.38-3.92,8.92-7.97,14.03-11.14,11.15-6.91,25.68-10.1,40.89-8.99,25.44,1.86,49.81,14.54,63.6,33.1,3.06,4.12,5.98,8.62,8.8,12.97,8.32,12.83,16.92,26.09,30.93,32.79,10.84,5.18,23.53,5.49,35.64,5.05,7.85-.29,16.88-.88,24.81-4.3,8.55-3.69,14.92-11.62,17.04-21.2,2.08-9.4-.21-18.71-6.28-25.54-.31-.35-.28-.89.07-1.2.35-.31.89-.28,1.2.07,6.44,7.24,8.87,17.1,6.67,27.04-2.24,10.11-8.98,18.48-18.02,22.39-8.2,3.54-17.42,4.15-25.42,4.44-12.32.45-25.27.12-36.43-5.22-14.44-6.9-23.18-20.37-31.62-33.4-2.81-4.33-5.71-8.8-8.74-12.88-13.3-17.9-37.78-30.62-62.37-32.42-14.86-1.09-29.02,2.02-39.88,8.74-4.98,3.09-9.46,7.09-13.79,10.96-5.87,5.25-11.94,10.67-19.43,14-23.45,10.43-54.79.67-68.45-21.32-2.02-3.25-3.69-6.75-5.31-10.13-2.27-4.75-4.62-9.65-7.91-13.8-5.57-7.03-13.69-11.37-21.72-11.59-7.67-.21-12.99,1.44-16.29,5.05-5.9,6.47-4.45,18.58-3.04,30.3,1.22,10.13,2.37,19.7-.74,26.41-2.07,4.47-5.27,8.36-8.37,12.12-2.64,3.21-5.36,6.52-7.34,10.15-4.21,7.73-5.07,15.63-2.35,21.68,2.11,4.7,6.61,8.57,12.04,10.35,4.9,1.6,10.55,1.64,16.34.1.45-.12.92.15,1.04.6.12.45-.15.92-.6,1.04-2.98.79-5.92,1.19-8.76,1.19Z"/>
      <g>
        <path class="cls-1" d="m377.26,83.75l5.52,19.78c.12.43.45.78.87.93l19.43,6.67c1.07.37,1.26,1.81.31,2.43l-17.11,11.37c-.38.25-.6.67-.61,1.12l-.34,20.54c-.02,1.13-1.33,1.75-2.22,1.05l-16.1-12.76c-.35-.28-.82-.37-1.25-.24l-19.64,6.03c-1.08.33-2.08-.72-1.68-1.79l7.16-19.25c.16-.42.1-.89-.16-1.26l-11.8-16.81c-.65-.93.04-2.2,1.18-2.15l20.52.86c.45.02.88-.18,1.15-.54l12.34-16.42c.68-.91,2.11-.64,2.41.45Z"/>
        <path class="cls-5" d="m383.97,148.78c-.5,0-.97-.17-1.37-.48l-16.1-12.76c-.13-.1-.31-.14-.48-.09l-19.64,6.03c-.92.28-1.93-.08-2.47-.86-.42-.6-.51-1.34-.25-2.03l7.16-19.25c.06-.16.04-.34-.06-.48l-11.8-16.81c-.48-.68-.54-1.56-.15-2.3.38-.74,1.14-1.2,1.96-1.2.01,0,.08,0,.1,0l20.52.86h0c.18,0,.34-.08.44-.21l12.34-16.42c.42-.56,1.07-.89,1.77-.89,1.01,0,1.87.65,2.14,1.62l5.52,19.78c.05.16.17.3.33.35l19.43,6.67c.8.28,1.37.97,1.48,1.81.11.84-.26,1.66-.97,2.13l-17.11,11.37c-.14.09-.23.25-.23.42l-.34,20.54c-.02,1.22-1,2.18-2.22,2.18Zm-17.79-15.05c.5,0,.99.17,1.38.48l16.1,12.76c.1.08.2.11.32.11.22,0,.52-.16.53-.51l.34-20.54c.01-.73.38-1.41.99-1.81l17.11-11.37c.24-.16.24-.4.23-.5-.01-.1-.07-.33-.35-.42l-19.43-6.67c-.69-.24-1.22-.8-1.42-1.5l-5.52-19.78c-.08-.28-.32-.38-.51-.38-.12,0-.28.04-.41.21l-12.34,16.42c-.42.55-1.08.88-1.77.88-.01,0-.08,0-.09,0l-20.52-.86h0c-.31,0-.44.2-.48.28-.04.08-.13.31.04.54l11.8,16.81c.42.6.52,1.36.26,2.05l-7.16,19.25c-.08.21-.01.37.06.47.13.19.36.27.58.2l19.64-6.03c.21-.06.43-.1.65-.1Z"/>
      </g>
      <g>
        <path class="cls-1" d="m33.23,92.88l8.17,8.84c.18.19.44.29.7.25l11.91-1.72c.66-.09,1.14.61.81,1.19l-5.89,10.5c-.13.23-.14.51-.02.75l5.31,10.8c.29.6-.22,1.27-.88,1.14l-11.81-2.35c-.26-.05-.53.03-.72.21l-8.63,8.39c-.48.46-1.28.18-1.36-.48l-1.41-11.95c-.03-.26-.19-.49-.42-.62l-10.65-5.62c-.59-.31-.57-1.16.04-1.44l10.93-5.04c.24-.11.41-.33.45-.59l2.05-11.86c.11-.65.93-.9,1.38-.41Z"/>
        <path class="cls-5" d="m31.66,131.96c-.84,0-1.55-.63-1.64-1.46l-1.41-11.95-10.62-5.58c-.56-.3-.9-.87-.88-1.5.02-.63.38-1.19.96-1.46l10.93-5.04,2.02-11.83c.14-.79.82-1.37,1.63-1.37.46,0,.89.19,1.21.53l8.17,8.84,11.87-1.73c.68-.1,1.33.23,1.66.8.3.51.3,1.12.01,1.64l-5.89,10.5,5.32,10.76c.25.51.22,1.11-.08,1.6-.36.58-1.02.89-1.72.75l-11.81-2.35-8.59,8.38c-.31.3-.72.47-1.15.47Zm.95-38.5l-1.97,11.84c-.09.53-.44.99-.93,1.22l-10.94,5.04,10.65,5.53c.48.25.81.73.87,1.27l1.4,11.86,8.56-8.33c.39-.38.93-.54,1.48-.44l11.8,2.35-5.37-10.74c-.24-.49-.22-1.06.04-1.53l5.84-10.42-11.82,1.7c-.54.08-1.08-.12-1.45-.51l-8.17-8.84Z"/>
      </g>
    </g>
  </g>
</svg>