<?xml version="1.0" encoding="UTF-8"?>
<svg id="_레이어_2" data-name="레이어 2" xmlns="http://www.w3.org/2000/svg" viewBox="0 0 367.47 377.56">
  <defs>
    <style>
      .cls-1 {
        fill: #f2cf63;
      }

      .cls-1, .cls-2, .cls-3, .cls-4, .cls-5, .cls-6, .cls-7, .cls-8, .cls-9 {
        stroke-width: 0px;
      }

      .cls-2 {
        fill: #2b2b2b;
      }

      .cls-3 {
        fill: #333;
      }

      .cls-4 {
        fill: #fff;
      }

      .cls-5 {
        fill: #f29c50;
      }

      .cls-6 {
        fill: #ffecbb;
      }

      .cls-7 {
        fill: #fc5e71;
      }

      .cls-8 {
        fill: #ccd7f2;
      }

      .cls-9 {
        fill: #f29199;
      }
    </style>
  </defs>
  <g id="_迹_1" data-name="卵迹_1">
    <g>
      <path class="cls-6" d="m337.89,62.14c20.59,32.58,19.15,74.57-1.33,107.35-14.36,22.99-34.48,41.54-51.6,62.39-18.55,22.59-28.6,47.86-37.99,75.16-7.67,22.32-17.58,44.44-40.62,54.42-14.61,6.33-30.86,7.75-46.79,8.33-52.86,1.93-134.29-7.77-153.64-66.3C.25,286.3-.2,267.88.05,249.79c.47-33.19,3.23-66.87,14.97-97.95,11.74-31.08,33.43-59.59,63.69-73.72,32-14.94,62.55-7.64,95.98-9.24,22.39-1.08,41.34-8.02,60.29-19.53,16.78-10.19,34.63-22.88,55.36-21.07,15.66,1.37,29.5,11.16,39.64,23.09,2.93,3.45,5.57,7.05,7.92,10.77Z"/>
      <path class="cls-4" d="m57.46,154.39l13.83-4.39-13.84-4.72c-4.14-1.09-7.31-4.42-8.19-8.61l-4.39-20.78-4.71,20.33c-.99,4.29-4.38,7.61-8.69,8.52l-13.03,4.48,12.57,4.43c4.4,1.02,7.78,4.56,8.58,9.01l3.63,20.1,5.3-20.12c1.12-4.26,4.6-7.48,8.93-8.26Z"/>
      <path class="cls-3" d="m338.16,359.61l5.51-1.75-5.51-1.88c-1.65-.43-2.91-1.76-3.26-3.42l-1.75-8.27-1.88,8.09c-.4,1.71-1.74,3.03-3.46,3.39l-5.18,1.78,5,1.76c1.75.41,3.1,1.82,3.42,3.59l1.45,8,2.11-8.01c.45-1.69,1.83-2.97,3.56-3.29Z"/>
      <path class="cls-3" d="m263.14,103.02l7.33-2.33-7.33-2.5c-2.19-.58-3.87-2.34-4.34-4.56l-2.33-11.01-2.5,10.77c-.53,2.27-2.32,4.03-4.6,4.51l-6.9,2.37,6.66,2.35c2.33.54,4.12,2.42,4.55,4.77l1.92,10.65,2.8-10.66c.59-2.25,2.44-3.96,4.73-4.37Z"/>
      <g>
        <g>
          <path class="cls-8" d="m266.45,138.07c26.03,24.7,41.35,76.09,41.35,76.09,0,0-2.7,26.15-24.34,34.26-21.64,8.11-45.98-53.19-45.98-53.19l28.97-57.15Z"/>
          <path class="cls-3" d="m279.41,250.01c-20.85,0-41.83-52.24-42.71-54.47-.09-.23-.08-.48.03-.7l28.97-57.15c.12-.24.35-.41.61-.45.27-.05.53.04.73.22,25.89,24.57,41.43,75.94,41.58,76.46.03.11.04.22.03.33-.03.27-3.01,26.76-24.89,34.97-1.4.53-2.87.79-4.35.79Zm-40.99-54.74c1.9,4.64,22.14,53.05,40.99,53.05,1.28,0,2.54-.23,3.76-.69,20-7.5,23.5-31.18,23.78-33.39-.98-3.21-15.91-50.91-40.25-74.75l-28.27,55.78Z"/>
        </g>
        <g>
          <g>
            <polygon class="cls-3" points="210.23 57.29 210.14 56.54 214.76 55.93 214.86 56.68 210.23 57.29"/>
            <polygon class="cls-3" points="209.87 57.76 209.66 56.17 215.13 55.45 215.33 57.04 209.87 57.76"/>
          </g>
          <g>
            <path class="cls-4" d="m202.31,65.19s6.49-7.55,12.47-5.84,7.58,14.27,1.46,17.13c-6.12,2.86-13.98-1.57-13.98-1.57l.05-9.72Z"/>
            <path class="cls-3" d="m211.59,78.29c-5,0-9.55-2.53-9.75-2.64-.27-.15-.43-.44-.43-.74l.05-9.72c0-.2.07-.4.2-.55.22-.26,5.55-6.39,11.27-6.39.71,0,1.41.1,2.08.29,3.67,1.05,5.61,5.39,5.91,9.22.27,3.49-.72,7.81-4.33,9.49-1.48.69-3.16,1.04-5.01,1.04Zm-8.48-3.89c1.21.6,4.77,2.2,8.48,2.2,1.6,0,3.04-.3,4.29-.88,2.82-1.32,3.58-4.9,3.35-7.82-.3-3.84-2.23-7.01-4.69-7.72-.51-.15-1.05-.22-1.61-.22-4.38,0-8.8,4.5-9.78,5.57l-.04,8.88Z"/>
          </g>
          <path class="cls-3" d="m156.34,98.87c-.24-2.8,7.53,2.11,22.12,1.46s24.87-1.77,25.26-.84c.39.93-.98,7.7-.98,7.7l-38.5,3.9-7.9-12.21Z"/>
          <path class="cls-3" d="m210.2,27.38c3.59,4.93,2.92,15.92.85,25.7-2.07,9.78-3.47-18.66-3.47-18.66l-6.89-7.99,9.5.95Z"/>
          <g>
            <path class="cls-4" d="m211.86,56.19c-1.7-10.83.4-18.73-1.57-23.94,0,0-6.98-23.03-38.32-16.83-.38.07-.75.16-1.12.24-15.98,3.73-25.91,16.66-21.64,32.5l3.5,12.98c-1.99-.81-4.16-1.18-6.24-.49-6.45,2.12-7.69,15.87-.9,18.74,4.12,1.74,8.81.53,11.88-.69l.45,1.66,1.42,30.48c20.14.86,41.14-6.35,41.14-6.35l-1.11-10.31c18.84-5.72,14.16-27.48,12.51-37.99Z"/>
            <path class="cls-3" d="m162.74,111.76h0c-1.17,0-2.33-.02-3.45-.07-.44-.02-.79-.37-.81-.81l-1.41-30.38-.18-.67c-4.38,1.57-8.42,1.7-11.63.34-3.96-1.67-5.21-6.32-5.05-10.1.17-4.16,2.1-8.94,6.02-10.23,1.6-.52,3.37-.53,5.27-.01l-3.09-11.44c-1.95-7.23-1.11-14.17,2.42-20.08,3.97-6.63,11.01-11.42,19.84-13.47.38-.09.76-.17,1.15-.25,3.61-.71,7.08-1.07,10.32-1.07,23.11,0,28.92,18.31,28.98,18.49,1.05,2.76.99,6.3.92,10.39-.07,3.96-.14,8.44.68,13.66.09.57.19,1.17.29,1.8,1.77,10.88,5.05,31-12.72,36.92l1.04,9.62c.04.39-.19.77-.57.89-.19.06-19.05,6.47-38,6.47Zm-2.6-1.74c.85.03,1.72.04,2.6.04,16.72,0,33.37-5.06,36.81-6.17l-1.04-9.63c-.04-.41.21-.78.6-.9,17.11-5.2,14.05-24,12.21-35.24-.1-.63-.2-1.24-.29-1.81-.84-5.37-.76-9.93-.7-13.96.07-4.08.12-7.3-.83-9.81-.23-.76-5.56-17.34-27.37-17.34-3.13,0-6.49.35-9.99,1.04-.37.07-.73.15-1.09.24-8.38,1.95-15.04,6.46-18.77,12.69-3.29,5.5-4.07,11.99-2.24,18.76l3.5,12.98c.08.31-.02.64-.26.86-.24.21-.58.27-.88.15-2.1-.85-4.01-1.01-5.65-.48-2.68.88-4.68,4.45-4.85,8.69-.13,3.22.85,7.13,4.02,8.47,1.26.53,2.69.8,4.23.8,2.12,0,4.54-.52,7-1.5.23-.09.48-.08.69.03.22.11.38.3.44.54l.45,1.66c.02.06.02.12.03.18l1.38,29.7Z"/>
          </g>
          <path class="cls-8" d="m203.79,106.47c-3.67-.79-5.19,2.26-5.19,2.26l-30.46-.87c-.96.28-4.17-2.15-5.11-1.86,7.86,18.63,15.86,37.25,27.47,55.81,9.95-17.3,10.84-37.43,13.3-55.34Z"/>
          <path class="cls-3" d="m195.28,112.36l-2.5,7.99,2.59,26.73s-3.43,10.58-5.88,13.73l-7.92-13.34,4.95-26.45-5.74-8.54,4.95-4,3.74-1.6,6.5,4.62-.68.85Z"/>
          <g>
            <g>
              <path class="cls-7" d="m264.9,215.51c-2.53-29.93-7.57-47.34,1.55-77.44-1.08-1.15-2.16-2.33-3.23-3.37-19.15-18.7-48.12-26.59-60.43-29.23-2.45,17.9-3.35,38.04-13.3,55.34-11.61-18.56-19.61-37.18-27.47-55.81-36.01,11.06-56.23,24.87-66.37,33.74,18.1,30.2,34.02,69.74,6.59,101.26.89,7.56,1.51,14.31,1.68,19.56,1.11,33.67-3.88,115.47-3.88,115.47l172.23,1.69c1.7-66.44-5.85-148.49-5.85-148.49.56-.08-2.07-12.64-1.52-12.72Z"/>
              <path class="cls-3" d="m272.27,377.56h0l-172.23-1.68c-.23,0-.45-.1-.61-.27-.16-.17-.24-.4-.23-.63.05-.82,4.98-82.14,3.88-115.39-.16-4.87-.72-11.43-1.68-19.49-.03-.24.05-.48.2-.66,21.29-24.45,19.1-57.25-6.68-100.26-.21-.35-.14-.8.17-1.08,10.81-9.45,31.16-23.01,66.68-33.91.42-.13.86.08,1.03.48,8.53,20.21,15.94,37.13,26.65,54.47,7.66-14.02,9.55-29.7,11.37-44.88.35-2.94.72-5.99,1.12-8.91.03-.23.16-.44.35-.58.19-.14.44-.18.67-.14,11.82,2.54,41.42,10.48,60.85,29.45.95.93,1.91,1.96,2.84,2.96l.41.44c.21.22.28.54.19.83-7.24,23.9-5.46,40.01-3.21,60.4.58,5.26,1.18,10.71,1.69,16.72.01.15-.01.3-.08.43,0,.76.47,3.67.82,5.82.8,4.88.96,6.15.79,6.72.46,5.13,7.46,84.44,5.83,148.33-.01.46-.39.83-.85.83Zm-171.33-3.37l170.5,1.67c1.59-65.48-5.79-146.74-5.87-147.55-.01-.16.01-.31.08-.44,0-.77-.47-3.72-.83-5.9-.79-4.81-.95-6.07-.79-6.63-.5-5.89-1.09-11.25-1.67-16.42-2.26-20.46-4.05-36.64,3.13-60.61l-.08-.09c-.92-.98-1.87-2-2.79-2.9-18.64-18.2-46.9-26.11-59.12-28.81-.35,2.6-.66,5.22-.99,7.97-1.9,15.79-3.87,32.13-12.29,46.76-.15.26-.42.42-.72.43-.3-.03-.58-.15-.74-.4-11.06-17.67-18.6-34.78-27.23-55.22-34.21,10.6-54.05,23.63-64.8,32.88,11.17,18.75,17.75,35.06,20.11,49.82,3.18,19.91-1.43,37.25-13.73,51.53.93,7.94,1.48,14.42,1.64,19.26,1.04,31.44-3.29,105.66-3.83,114.66Z"/>
            </g>
            <g>
              <path class="cls-3" d="m267.23,235.7c-1.51.18-3.04.38-4.47.42-6.15.25-12.55-1.2-18.4-2.38l-2.69-.54c-13.14-2.66-26.72-5.43-40.87-5.9-15.02-.52-29.57,1.6-43.64,3.63-12.47,1.79-24.25,3.44-35.96,3.43-2.39-.01-4.8-.1-7.21-.19-2.32-.08-4.74-.15-7.2-.18-1.33,1.92-2.77,3.81-4.4,5.68.89,7.56,1.51,14.31,1.68,19.56.02.49.03,1.03.04,1.54,2.89-.03,5.87.04,8.96.15,2.67.09,5.34.18,7.98.19,13.73.08,27.04-1.85,39.93-3.7,13.52-1.96,26.3-3.82,38.93-3.37,11.91.4,23.83,2.82,36.44,5.38l2.72.55c6.79,1.37,15.22,3.07,24,2.91.11,0,.23,0,.34,0,2-.05,3.89-.3,5.8-.5-.75-11.37-1.47-20.63-1.97-26.68Z"/>
              <path class="cls-3" d="m160.87,206.34c-8.14.78-16.55,1.58-24.74,1.73-1.75,0-3.22.03-4.83.04-4.73.02-9.65.02-14.52.67-.08.01-.16.03-.24.04-.24,1.76-.56,3.51-.96,5.25.62-.1,1.23-.23,1.85-.32,4.54-.61,9.29-.62,13.87-.63,1.63,0,3.25,0,4.87-.04.01,0,.03,0,.04,0,8.38-.16,16.89-.97,25.13-1.75,16.51-1.58,33.58-3.21,49.7.59,1.68.39,3.35.85,5.02,1.31,3.22.88,6.55,1.78,9.98,2.28,3.69.54,7.41.6,11.01.66l28.07.68c-.22-1.68-.69-3.6-.93-5.28l-27.07-.42c-3.43-.05-6.98-.11-10.36-.61-3.13-.46-6.17-1.28-9.39-2.15-1.73-.47-3.45-.94-5.19-1.35-16.91-3.99-34.42-2.32-51.33-.7Z"/>
            </g>
          </g>
          <path class="cls-3" d="m186.15,349.15c-.05,0-.1-.01-.15-.04-.14-.08-.19-.26-.11-.4,7.01-12.19,29.91-58.67,30.14-59.13.07-.15.25-.2.39-.13.15.07.21.25.13.39-.23.47-23.14,46.96-30.16,59.17-.06.09-.15.14-.25.15Z"/>
          <path class="cls-3" d="m214.52,325.67s-.07,0-.1-.02c-.15-.05-.23-.22-.18-.37l7.42-21.13c.06-.15.22-.22.37-.18.15.05.23.22.18.37l-7.42,21.13c-.04.12-.15.19-.27.2Z"/>
          <path class="cls-3" d="m180.1,59.34c-.03-1.78-.89-3.21-1.91-3.19-1.02.02-1.82,1.48-1.79,3.26.03,1.78.89,3.21,1.91,3.19,1.02-.02,1.82-1.48,1.79-3.26Z"/>
          <path class="cls-3" d="m206.02,58.66c-.03-1.78-.89-3.21-1.91-3.19-1.02.02-1.82,1.48-1.79,3.26.03,1.78.89,3.21,1.91,3.19,1.02-.02,1.82-1.48,1.79-3.26Z"/>
          <path class="cls-3" d="m182.92,52.35c-.05.49-.54.8-.99,1-2.28,1.07-4.76,1.68-7.27,1.81-.44.02-.9.03-1.32-.14-.71-.29-1.16-1.11-1.01-1.86.12-.62.58-1.12,1.13-1.44s1.16-.47,1.77-.62c2.27-.55,4.79-1,6.85.11.44.24.89.64.84,1.13Z"/>
          <path class="cls-3" d="m207.72,53.7c-1.58.22-3.71-.39-4.87-.28-1.02.09-3.06.75-3.33-.76.04-1.01.84-1.83,1.73-2.21.7-.31,1.48-.4,2.24-.49,1.73-.2,4.46-.59,5.77.9.32.36.49.87.37,1.34-.25.98-.99,1.38-1.91,1.51Z"/>
          <g>
            <path class="cls-8" d="m188.26,106.81c-10.96,1.41-28.15-3.41-31.78-7.27l-3.4,8.3s14.14,25.2,16.94,24.78,13.05-23.46,18.08-24.68c5.03-1.22,16.81,17.85,18.13,18.2,1.32.35-1.22-25.44-2.35-25.98-1.13-.54,1.39,4.47-15.61,6.66Z"/>
            <path class="cls-3" d="m169.94,133.47c-3.12,0-13.35-17.63-17.61-25.22-.13-.23-.14-.5-.04-.74l3.4-8.3c.11-.27.35-.46.63-.51.29-.05.58.04.77.25,3,3.2,16.28,7.26,26.92,7.26h0c1.49,0,2.88-.08,4.13-.24,12.68-1.63,14.02-4.74,14.46-5.76.14-.33.41-.94,1.11-.94.17,0,.34.04.51.12.46.22,1.22.58,2.43,12.52.54,5.36,1.03,12.25.62,14.06-.21.92-.79,1.02-1.04,1.02h0c-.07,0-.17-.01-.24-.03-.62-.17-1.21-.89-3.94-4.54-3.58-4.78-10.25-13.69-13.48-13.69-.1,0-.2.01-.29.03-2.5.6-7.25,8.67-10.72,14.57-4.22,7.17-5.96,9.9-7.43,10.13-.04,0-.16.01-.2.01Zm-15.92-25.69c6.41,11.39,14.01,23.3,15.91,23.98.99-.47,3.87-5.36,6.18-9.29,4.24-7.2,7.6-12.66,10.32-14.63-.77.05-1.58.07-2.42.07h0c-9.57,0-22.48-3.38-27.2-6.95l-2.8,6.82Zm36.19-.39c3.62,1.5,8.32,7.46,13.22,14.01.84,1.12,1.7,2.27,2.33,3.05.13-4.37-1.17-18.14-2.13-22.52-1.07,1.59-3.95,4.01-13.41,5.46Z"/>
          </g>
          <path class="cls-3" d="m144.35,40.46c-4.57-4.22-12.36-10.26-3.69-16.97s11.05-.02,16.49-9.48c5.44-9.46,18.01-18.31,27.31-11.74,9.3,6.57,27.09-3.31,32.47,3.89s2.36,16.25-2.43,20.27-18.8,6.15-33.43,4.93c-14.63-1.23-26.17,12.66-26.17,12.66l-10.55-3.55Z"/>
          <path class="cls-3" d="m196.11,35.25c-4.38.08-8.7-.56-12.91-1.2-4.94-.74-9.6-1.44-13.85-.86l-.1-.74c4.36-.6,9.07.11,14.06.86,6.02.9,12.25,1.83,18.52.6,11.38-2.24,17.25-11.9,16.96-17.72l.75-.04c.3,6.09-5.78,16.18-17.57,18.5-1.97.39-3.92.57-5.86.6Z"/>
          <path class="cls-4" d="m155.65,39.16s-.08,0-.12-.02c-.14-.06-.21-.23-.15-.37,4.79-11.12,12.22-15.3,24.84-14.01,9.82,1,30.9-2.14,35.12-9.28,1.1-1.86.91-3.88-.56-6-.09-.13-.06-.3.07-.39.13-.09.3-.06.39.07,1.6,2.32,1.8,4.55.58,6.61-4.33,7.32-25.72,10.57-35.66,9.55-12.34-1.26-19.59,2.83-24.27,13.68-.04.1-.15.17-.25.17Z"/>
          <path class="cls-4" d="m169.48,25.67c-.11,0-.21-.06-.26-.16-.06-.14,0-.31.14-.37,2.68-1.24,8.67-2.2,15-3.22,5.59-.9,11.38-1.83,14.62-2.96,3.72-1.29,6.31-4.03,6.45-6.82.1-1.94-1.04-3.57-3.2-4.58-.14-.07-.2-.23-.14-.37s.23-.2.37-.14c2.38,1.11,3.64,2.93,3.53,5.12-.15,3.01-2.9,5.96-6.83,7.32-3.28,1.14-9.09,2.08-14.71,2.98-6.02.97-12.24,1.97-14.86,3.18-.04.02-.07.02-.11.03Z"/>
          <g>
            <path class="cls-3" d="m177.92,68.43c-5.21.1-9.55-4.79-9.66-10.89s4.04-11.15,9.25-11.24,9.55,4.79,9.66,10.89c.11,6.1-4.04,11.14-9.25,11.24Zm-.4-21.37c-4.8.09-8.62,4.79-8.51,10.47.11,5.68,4.1,10.23,8.89,10.15,4.8-.09,8.61-4.78,8.51-10.47-.11-5.68-4.09-10.24-8.89-10.15Z"/>
            <path class="cls-3" d="m177.76,68.85c-5.36,0-9.82-5.07-9.94-11.31-.06-3.05.91-5.95,2.73-8.15,1.83-2.22,4.3-3.47,6.94-3.52h.16c5.36,0,9.82,5.07,9.93,11.31.06,3.05-.91,5.95-2.72,8.15-1.83,2.22-4.3,3.47-6.94,3.52h-.16Zm-.11-21.38h-.13c-2.19.04-4.24,1.1-5.77,2.98-1.55,1.9-2.37,4.41-2.32,7.06.1,5.37,3.84,9.73,8.33,9.73h.13c4.56-.09,8.19-4.59,8.09-10.04-.1-5.37-3.84-9.73-8.33-9.73Z"/>
          </g>
          <g>
            <path class="cls-3" d="m205.79,67.91c-5.21.1-9.55-4.79-9.66-10.89-.11-6.1,4.04-11.15,9.25-11.24,5.21-.1,9.55,4.79,9.66,10.89s-4.04,11.14-9.25,11.24Zm-.4-21.37c-4.8.09-8.62,4.79-8.51,10.47.11,5.68,4.1,10.23,8.89,10.15,4.8-.09,8.62-4.78,8.51-10.47-.11-5.68-4.1-10.24-8.89-10.15Z"/>
            <path class="cls-3" d="m205.64,68.34c-5.36,0-9.82-5.07-9.94-11.31-.06-3.05.91-5.95,2.73-8.15,1.83-2.22,4.3-3.48,6.94-3.52h.16c5.36,0,9.82,5.07,9.94,11.31.06,3.05-.91,5.95-2.73,8.15-1.83,2.22-4.3,3.47-6.94,3.52h-.16Zm-.11-21.38h-.13c-2.19.04-4.24,1.1-5.77,2.98-1.55,1.9-2.37,4.41-2.32,7.06.1,5.36,3.84,9.73,8.33,9.73h.13c2.19-.04,4.24-1.1,5.77-2.98,1.55-1.9,2.37-4.41,2.32-7.06-.1-5.37-3.84-9.73-8.33-9.73Z"/>
          </g>
          <g>
            <path class="cls-3" d="m186.94,58.48l-.43-.62c6.08-4.11,10.12-.71,10.17-.68l-.49.57c-.15-.12-3.66-3.04-9.25.73Z"/>
            <path class="cls-3" d="m186.83,59.07l-.9-1.33.35-.24c2.06-1.4,4.13-2.1,6.13-2.1,2.73,0,4.37,1.3,4.55,1.45l.33.28-1.05,1.21-.32-.27c-.13-.11-1.36-1.09-3.47-1.09-1.68,0-3.45.62-5.27,1.85l-.35.24Z"/>
          </g>
          <g>
            <path class="cls-3" d="m157.4,60.89l11.23-1.04-.07-.76-11.24,1.04c.03.25.06.5.08.75Z"/>
            <path class="cls-3" d="m157.01,61.35l-.03-.43c-.02-.24-.05-.49-.08-.73l-.06-.44,12.1-1.12.14,1.6-12.08,1.12Z"/>
          </g>
          <path class="cls-3" d="m266.43,228.52c-.14,0-.27-.11-.29-.25-2.41-16.85-4.77-38.6-4.79-38.82-.02-.16.1-.31.26-.32,0,0,.02,0,.03,0,.15,0,.28.11.29.26.03.22,2.39,21.95,4.79,38.8.02.16-.09.31-.25.33-.01,0-.02,0-.03,0Z"/>
          <path class="cls-3" d="m148.49,60.42l-5.9-23.73,21.79-3.04s-4.87,6.66-4.67,17.64c.08,4.25.41,7.32.79,9.48.34,1.94-1.58,3.51-3.43,2.82l-8.59-3.18Z"/>
          <path class="cls-3" d="m200.12,92.95c-2.65,1.05-13.13,1.76-22.13.21,0,0,11.24,6.07,21.79,5.66l.34-5.87Z"/>
          <path class="cls-3" d="m191.9,78.15c-5.63,0-10.23-3.35-10.48-3.53-.38-.28-.45-.81-.18-1.19.28-.38.81-.45,1.19-.18.07.05,7.46,5.41,14.39,2.11.42-.2.93-.02,1.13.4.2.42.02.93-.4,1.13-1.91.91-3.83,1.26-5.64,1.26Z"/>
          <path class="cls-3" d="m181.28,75.88c-.15,0-.3-.04-.44-.12-.4-.24-.53-.76-.29-1.16l1.37-2.28c.24-.4.76-.53,1.16-.29.4.24.53.76.29,1.16l-1.37,2.28c-.16.27-.44.41-.73.41Z"/>
          <path class="cls-3" d="m156.79,73.16c-.38,0-.72-.25-.82-.64-1.15-4.44-4.21-4.77-5.48-4.72-2.09.1-4.05,1.4-4.28,2.83-.07.46-.51.78-.97.7-.46-.07-.78-.51-.7-.97.36-2.25,2.94-4.12,5.88-4.26,3.48-.17,6.19,2.07,7.2,5.98.12.45-.15.92-.61,1.03-.07.02-.14.03-.21.03Z"/>
          <path class="cls-3" d="m151.23,72.71c-.07,0-.13,0-.2-.02-.46-.11-.74-.57-.63-1.02l1.05-4.36c.11-.46.58-.74,1.02-.63.46.11.74.57.63,1.02l-1.05,4.36c-.09.39-.44.65-.82.65Z"/>
        </g>
        <g>
          <path class="cls-4" d="m351.13,160.17c4.14-11.74,10.04-32.5,9.72-39.93-.31-7.09-22.23-13.17-36.73-16.42,2.62-8.67,5.62-18.93,7.2-25.96l3.16-13.96c.87-3.87-1.55-7.71-5.42-8.58-3.89-.9-7.7,1.56-8.57,5.43l-3.14,13.96c-1.72,7.66-5.31,19.81-8.11,28.94-1.91,1.86-4.7,4.7-7.5,7.99-2-8.04-4.23-15.35-6.34-18.67-2.13-3.34-6.57-4.33-9.91-2.2-3.34,2.13-4.33,6.57-2.2,9.91,1.84,2.88,5.08,15.9,7.9,29.67-3.92,17.31,6.95,32.31,6.95,32.31l.38,65.41c-1.19,1.03-2.24,1.91-3.09,2.54-6.11,4.58-21.59,2.44-21.59,2.44,0,0-4.73,20.82-5.5,25.4-.65,3.96,3.24,15.33-.86,22.02,7.83,13.2,18.51,23.31,32.9,23.94,47.63,2.07,50.89-31.24,51.07-69.55l-.33-74.72Z"/>
          <path class="cls-3" d="m304.51,305.81h0c-1.35,0-2.75-.25-4.16-.31-13.04-.56-24.34-8.86-33.59-24.46-.16-.27-.16-.66,0-.93,2.61-4.26,1.75-10.87,1.12-15.68-.33-2.5-.61-4.67-.37-6.08.76-4.55,5.31-24.61,5.51-25.46.1-.43.51-.72.94-.66.03,0,3.6.49,7.9.49,6.13,0,10.64-.96,13.06-2.77.72-.54,1.64-1.29,2.75-2.25l-.38-64.75c-1.4-2.02-10.6-16.14-6.97-32.59-3.12-15.27-6.16-26.72-7.75-29.21-2.38-3.73-1.27-8.71,2.46-11.08,1.29-.82,2.78-1.26,4.3-1.26,2.76,0,5.3,1.39,6.78,3.71,1.79,2.82,3.83,8.65,6.05,17.33,2.41-2.74,4.7-5.07,6.33-6.66,2.73-8.9,6.31-21.03,8.03-28.67l3.14-13.96c.83-3.69,4.03-6.27,7.79-6.27.6,0,1.21.07,1.8.21,4.31.97,7.02,5.27,6.05,9.59l-3.16,13.97c-1.61,7.17-4.68,17.6-6.95,25.14,23.97,5.43,36.25,11.15,36.5,17.01.33,7.59-5.59,28.35-9.72,40.11l.32,74.78c-.19,38.57-3.92,70.71-47.8,70.71Zm-36.04-25.31c8.89,14.79,19.63,22.63,31.95,23.16,1.38.06,2.76.16,4.08.16h0c19.81,0,32.21-6.55,39.03-20.47,6.37-13,6.99-31.07,7.07-48.43l-.33-74.72c0-.1.02-.2.05-.29,4.25-12.06,9.98-32.54,9.67-39.61-.21-4.85-13.36-10.55-36.07-15.63-.23-.05-.43-.2-.55-.4-.12-.2-.15-.45-.08-.67,2.29-7.57,5.52-18.5,7.18-25.9l3.16-13.97c.77-3.41-1.38-6.8-4.78-7.56-.47-.11-.95-.16-1.43-.16-2.95,0-5.48,2.03-6.13,4.95l-3.14,13.96c-1.75,7.75-5.38,20.05-8.13,29-.04.14-.12.26-.22.36-1.84,1.79-4.62,4.62-7.45,7.93-.21.24-.53.35-.84.28-.31-.07-.55-.31-.63-.62-2.33-9.39-4.43-15.59-6.23-18.42-1.17-1.83-3.17-2.93-5.35-2.93-1.2,0-2.37.34-3.39.99-2.94,1.87-3.81,5.8-1.94,8.74,2.05,3.23,5.49,17.59,8.01,29.96.02.12.02.24,0,.36-3.79,16.74,6.7,31.48,6.81,31.63.1.14.16.32.16.49l.38,65.41c0,.25-.11.48-.29.65-1.27,1.1-2.32,1.97-3.14,2.58-2.76,2.06-7.49,3.11-14.08,3.11-3.26,0-6.06-.26-7.36-.41-.85,3.76-4.65,20.59-5.32,24.61-.19,1.17.07,3.21.38,5.57.64,4.9,1.51,11.56-1.09,16.3Z"/>
        </g>
        <path class="cls-3" d="m320.74,158.26s-.06-.02-.08-.03c-.3-.12-.45-.48-.32-.78,8.98-21.87-9.81-32.02-10.61-32.44-.29-.15-.4-.51-.25-.81.15-.29.52-.41.81-.25.21.11,20.57,11.06,11.16,33.96-.11.28-.41.42-.7.35Z"/>
        <path class="cls-3" d="m351.94,123.11c-.06,0-.12-.02-.17-.04-.27-.11-26.54-10.58-36.36-13.45-.32-.09-.5-.42-.41-.74.09-.32.42-.49.74-.41,9.88,2.89,36.21,13.38,36.47,13.48.31.12.46.47.34.78-.1.25-.35.4-.6.38Z"/>
        <g>
          <g>
            <path class="cls-4" d="m335.41,94.89c2.94,1.01,4.97,3.38,5.57,5.99,1.97-1.51,4.8-2.01,7.58-1.06,3.13,1.07,5.29,3.67,5.72,6.47.06.4.06.8.05,1.21,1.77-1.56,4.47-2.14,7.12-1.23,2.81.96,4.74,3.29,5.12,5.8.13.88.08,1.78-.2,2.66l-6.02,18.91c-1.07,3.37-5.02,5.05-8.81,3.75-2.66-.91-4.51-3.06-5.02-5.42-1.79,2.63-5.44,3.78-9,2.56-2.94-1.01-4.99-3.37-5.58-5.97-1.97,1.5-4.79,1.99-7.56,1.04-3.2-1.1-5.27-3.8-5.62-6.68,1.44-9.36,3.99-16.02,7.96-27.87,1.69-.62,6.74-.84,8.7-.17Z"/>
            <path class="cls-3" d="m354.13,138.68c-.97,0-1.93-.16-2.87-.49-2.31-.79-4.15-2.46-5.08-4.54-1.49,1.4-3.56,2.21-5.8,2.21-1.06,0-2.12-.18-3.15-.53-2.7-.93-4.84-2.96-5.79-5.45-2.14,1.17-4.87,1.38-7.35.52-3.35-1.15-5.78-4.05-6.18-7.38,0-.08,0-.16,0-.23,1.25-8.1,3.29-14.12,6.38-23.23.51-1.5,1.05-3.09,1.61-4.78.08-.25.27-.44.51-.53,1.2-.44,3.53-.63,5.32-.63,1.2,0,2.85.08,3.95.45,2.69.93,4.82,2.96,5.77,5.46,2.14-1.18,4.88-1.39,7.37-.54,3.25,1.12,5.68,3.82,6.24,6.92,1.92-1.05,4.38-1.24,6.64-.47,3.01,1.03,5.25,3.58,5.69,6.48.16,1.04.08,2.06-.23,3.05l-6.02,18.91c-.91,2.86-3.73,4.78-7.02,4.78Zm-7.62-7.56c.05,0,.11,0,.16.02.33.06.6.32.67.65.47,2.18,2.18,4.02,4.47,4.8.76.26,1.54.39,2.32.39,2.58,0,4.7-1.41,5.4-3.6l6.02-18.91c.23-.73.29-1.5.17-2.28-.35-2.28-2.14-4.29-4.56-5.12-2.24-.77-4.7-.34-6.28,1.06-.25.22-.62.28-.92.13-.31-.14-.5-.46-.49-.79.01-.35.01-.71-.04-1.06-.39-2.58-2.41-4.85-5.15-5.79-2.37-.82-4.99-.45-6.78.93-.23.18-.53.22-.8.12-.27-.1-.48-.33-.54-.61-.55-2.44-2.47-4.5-5.01-5.37-.67-.23-1.91-.36-3.39-.36-1.66,0-3.39.17-4.36.42-.52,1.54-1.01,2.99-1.48,4.37-3.05,8.98-5.07,14.93-6.29,22.82.37,2.64,2.33,4.94,5.03,5.87,2.36.81,4.97.45,6.77-.92.23-.17.53-.22.8-.12.27.1.47.33.54.61.55,2.43,2.48,4.48,5.03,5.36.85.29,1.73.44,2.6.44,2.26,0,4.28-1,5.43-2.68.16-.24.42-.37.7-.37Z"/>
          </g>
          <g>
            <path class="cls-3" d="m332.18,128.74c-.07.09-.2.13-.33.09-.17-.05-.27-.21-.23-.36l4.17-15.24c.04-.15.21-.22.37-.17.17.05.27.21.23.36l-4.17,15.24s-.02.06-.04.08Z"/>
            <path class="cls-3" d="m331.95,129.27c-.08,0-.15-.01-.22-.03-.39-.12-.61-.5-.51-.87l4.17-15.24c.09-.36.51-.58.9-.47.39.12.61.5.52.88l-4.17,15.24c-.02.08-.06.16-.11.23-.13.17-.34.27-.57.27Z"/>
          </g>
          <g>
            <path class="cls-3" d="m348.85,126.18c-.07.09-.2.13-.33.09-.16-.05-.27-.21-.23-.36l4.51-17.34c.03-.15.2-.23.37-.18.16.05.27.21.23.36l-4.51,17.34s-.02.06-.04.09Z"/>
            <path class="cls-3" d="m348.62,126.71c-.07,0-.15-.01-.22-.03-.38-.11-.61-.5-.52-.87l4.51-17.33c.08-.36.51-.6.9-.48.38.11.61.5.51.87l-4.51,17.34c-.02.08-.06.16-.12.24-.13.17-.34.27-.56.27Z"/>
          </g>
          <g>
            <path class="cls-3" d="m346.76,132.15c-.07.09-.19.13-.31.1-.17-.04-.28-.2-.25-.35l.5-2.47c.03-.15.19-.24.36-.2.17.04.28.2.25.35l-.5,2.47s-.02.07-.05.1Z"/>
            <path class="cls-3" d="m346.53,132.68l-.19-.02c-.39-.1-.63-.47-.56-.84l.5-2.47c.07-.32.35-.55.69-.55l.19.02c.39.1.63.47.56.84l-.5,2.48c-.02.1-.06.19-.12.27-.13.17-.34.27-.57.27Z"/>
          </g>
          <g>
            <path class="cls-3" d="m331.3,121.52s0,.06,0,.08l-1.46,5.63c-.02.08-.08.15-.17.18-.13.05-3.36,1.16-6.92-.6-.16-.08-.23-.26-.16-.4.07-.14.26-.19.42-.11,2.89,1.43,5.62.79,6.25.6l1.39-5.37c-2.67-3.61-7.37-3.54-8.38-3.48l-1.29,4.64c-.04.15-.21.23-.38.18-.17-.05-.27-.22-.23-.37l1.34-4.82c.03-.11.12-.18.24-.19.06,0,6.11-.63,9.31,3.87.03.05.05.1.06.15Z"/>
            <path class="cls-3" d="m327,128.23c-1.56,0-3.05-.35-4.44-1.03-.37-.19-.52-.62-.35-.97.18-.34.63-.48.99-.3,1.16.57,2.42.86,3.75.86.88,0,1.57-.13,1.97-.22l1.28-4.93c-2.36-3.02-6.26-3.18-7.59-3.16l-1.21,4.35c-.1.37-.52.6-.92.47-.39-.12-.62-.52-.51-.89l1.34-4.82c.07-.27.31-.47.6-.5.02,0,.33-.03.86-.03,1.79,0,6.22.4,8.85,4.08.08.11.12.24.13.36v.07s-.02.15-.02.15l-1.46,5.63c-.06.22-.22.4-.44.47-.04.02-1.16.41-2.81.41Z"/>
          </g>
          <g>
            <path class="cls-3" d="m345.54,125.88s0,.06,0,.08l-1.46,5.63c-.02.08-.08.15-.17.18-.13.05-3.36,1.16-6.92-.6-.16-.08-.23-.26-.16-.4.07-.14.26-.19.42-.11,2.89,1.43,5.62.79,6.25.6l1.39-5.36c-2.67-3.61-7.37-3.54-8.38-3.48l-1.29,4.64c-.04.15-.21.23-.38.18-.17-.05-.27-.22-.23-.37l1.34-4.82c.03-.11.12-.18.24-.19.06,0,6.11-.63,9.31,3.87.03.05.05.1.06.15Z"/>
            <path class="cls-3" d="m341.24,132.59c-1.56,0-3.05-.35-4.44-1.03-.37-.19-.52-.62-.35-.97.17-.34.63-.48.99-.31,1.16.57,2.42.86,3.75.86.88,0,1.57-.13,1.96-.22l1.28-4.93c-2.36-3.02-6.26-3.19-7.59-3.16l-1.21,4.35c-.1.38-.52.6-.92.47-.39-.12-.62-.52-.51-.89l1.34-4.82c.07-.27.31-.47.6-.5.04,0,.35-.04.86-.04,1.79,0,6.22.4,8.85,4.08.08.11.12.24.13.36v.07s-.02.15-.02.15l-1.46,5.63c-.06.22-.22.4-.45.48-.04.01-1.14.41-2.8.41Z"/>
          </g>
          <g>
            <path class="cls-3" d="m359.84,129.02s0,.05,0,.08l-1.39,5.33c-.02.08-.08.14-.16.17-.13.05-3.18,1.1-6.55-.57-.15-.08-.21-.25-.15-.38.07-.13.25-.18.4-.11,2.74,1.35,5.32.74,5.92.57l1.32-5.08c-2.53-3.42-6.98-3.35-7.94-3.3l-1.22,4.4c-.04.14-.2.22-.36.17-.16-.05-.26-.21-.22-.35l1.27-4.57c.03-.1.12-.17.23-.18.06,0,5.78-.59,8.82,3.66.03.04.05.09.05.14Z"/>
            <path class="cls-3" d="m355.76,135.39c-1.48,0-2.9-.33-4.22-.98-.36-.19-.51-.61-.34-.95.17-.33.61-.47.96-.3,1.1.54,2.29.81,3.54.81.82,0,1.47-.12,1.84-.21l1.21-4.64c-2.22-2.83-5.89-3.02-7.15-2.98l-1.14,4.1c-.1.37-.51.58-.9.46-.38-.12-.6-.51-.5-.87l1.27-4.57c.07-.26.3-.46.59-.49.03,0,.33-.03.82-.03,1.69,0,5.9.38,8.4,3.87.08.11.12.24.13.36v.06s-.02.14-.02.14l-1.39,5.34c-.05.22-.22.39-.44.47-.04.01-1.1.39-2.66.39Z"/>
          </g>
        </g>
        <g>
          <path class="cls-8" d="m95.65,138.74c-25.86,12.31-54.11,80.52-54.11,80.52,0,0-1.8,8.11,13.82,16.53,15.63,8.41,53.49,11.42,57.7,10.22,4.21-1.2,6.61-42.67,6.61-42.67,0,0-.6-21.64-6.61-40.27-6.01-18.63-17.42-24.33-17.42-24.33Z"/>
          <path class="cls-3" d="m109.47,247.81h0c-10.26,0-40.52-3.39-54.51-10.92-16.01-8.62-14.33-17.28-14.25-17.63.01-.05.03-.18.04-.23,1.16-2.8,28.67-68.7,54.53-81.01.24-.11.51-.13.74-.01.48.24,11.79,6.06,17.85,24.81,5.98,18.53,6.65,40.28,6.65,40.5,0,.18-.62,10.58-1.73,21-2.32,21.61-4.46,22.56-5.49,22.86-.68.19-1.93.63-3.83.63Zm-67.11-28.3c-.09.7-.69,8.15,13.41,15.74,13.53,7.28,43.9,10.56,53.7,10.56h0c2.33,0,3.13-.35,3.36-.42,2.26-1,4.87-22.63,6-42,0-.14-.67-21.71-6.57-40.01-5.23-16.2-14.69-22.51-16.64-23.65-24.76,12.33-52.1,77.01-53.26,79.78Z"/>
        </g>
        <path class="cls-3" d="m52.02,218.06c-6.01-.9-7.17,2.11-7.47,3.01s.6,4.81,5.41,6.91c4.81,2.1,56.2,15.93,59.8,15.93s2.33-2.39.08-4.74-57.82-21.11-57.82-21.11Z"/>
        <g>
          <g>
            <g>
              <path class="cls-4" d="m276.95,245.91c8.34,1.65,16.3,4.43,24.64,6.1,2.17.43,4.46.79,6.66.3,1.96-.44,3.68-1.5,5.35-2.54,4.27-2.66,8.54-5.33,12.81-7.99.81-.51,1.64-1.03,2.2-1.75.59-.77.83-1.69,1.06-2.58,3.1-12.02,7.32-23.85,12.61-35.35-3.1.04-6.15-.89-8.49-2.59-4.22,5.15-8.44,10.3-12.65,15.46-4,4.89-8.16,10.14-8.61,16.04-.33-2.84-4.08-4.1-7.29-4.47-5.54-.64-11.2-.29-16.83-.14-10.06.27-20.12-.09-30.06-1.1-10.27-1.03-20.02-3.48-30.12-4.99-2.05,3.34-2.15,8.92-2.97,12.68-.06.28-.12.57,0,.82.2.41.78.52,1.28.6,6.59,1.05,12.23,4.46,18.46,6.49,9.43,3.07,19.93,2.92,29.86,4.63.69.12,1.38.25,2.07.39Z"/>
              <path class="cls-3" d="m305.96,253.4h0c-1.56,0-3.1-.27-4.54-.55-4.17-.83-8.29-1.96-12.28-3.05-4.02-1.1-8.18-2.23-12.36-3.06-.68-.14-1.37-.26-2.05-.38-3.6-.62-7.34-1-10.96-1.37-6.36-.65-12.94-1.31-19.02-3.29-2.35-.77-4.63-1.73-6.85-2.67-3.66-1.55-7.45-3.15-11.49-3.79-.52-.08-1.5-.24-1.91-1.06-.27-.54-.15-1.07-.08-1.39.24-1.1.42-2.37.61-3.71.44-3.16.94-6.74,2.47-9.23.18-.29.52-.44.85-.4,4.04.61,8.09,1.37,12,2.11,5.87,1.11,11.94,2.26,18.08,2.88,9.84.99,19.94,1.36,29.95,1.09.93-.02,1.86-.05,2.79-.09,2.2-.07,4.47-.15,6.7-.15,2.86,0,5.23.12,7.46.38,1.66.19,4.94.79,6.77,2.64,1.32-5.29,5.18-10.01,8.37-13.91l12.65-15.46c.28-.35.79-.41,1.15-.15,2.16,1.57,4.93,2.43,7.81,2.43h.17s0,0,.01,0c.29,0,.56.15.71.39.16.24.18.55.06.82-5.25,11.42-9.48,23.26-12.56,35.2-.24.94-.51,1.99-1.21,2.89-.66.85-1.6,1.44-2.43,1.96l-12.81,7.99c-1.63,1.02-3.48,2.17-5.61,2.65-.78.17-1.59.26-2.47.26Zm-79.92-19.99c.1.05.32.1.64.16,4.24.68,8.13,2.32,11.88,3.91,2.18.92,4.43,1.87,6.71,2.61,5.9,1.92,12.39,2.58,18.67,3.22,3.65.37,7.42.75,11.08,1.38.7.12,1.4.25,2.1.39,4.23.84,8.42,1.98,12.47,3.08,3.96,1.08,8.06,2.2,12.17,3.02,1.35.27,2.8.52,4.21.52h0c.76,0,1.45-.07,2.1-.22,1.85-.41,3.49-1.44,5.08-2.43l12.81-7.99c.74-.46,1.51-.94,1.98-1.55.48-.62.69-1.42.91-2.26,3-11.64,7.08-23.19,12.13-34.34-2.55-.18-4.98-.96-7.02-2.26l-12.16,14.86c-3.55,4.34-7.98,9.74-8.42,15.56-.03.44-.39.77-.83.78-.46-.02-.81-.32-.86-.75-.26-2.22-3.55-3.38-6.54-3.73-2.16-.25-4.47-.36-7.26-.36-2.21,0-4.47.07-6.65.14-.93.03-1.86.06-2.8.09-10.09.27-20.26-.1-30.17-1.1-6.21-.62-12.32-1.78-18.22-2.9-3.71-.7-7.54-1.43-11.36-2.01-1.13,2.18-1.57,5.31-1.96,8.09-.19,1.38-.38,2.68-.63,3.84-.01.05-.04.17-.05.25Z"/>
            </g>
            <path class="cls-3" d="m322.77,230.76s-3.11-.76-9.92,1.17c-6.81,1.93-10.46,4.01-10.46,4.01l8.76,8.23,14.12-8.43-2.51-4.98Z"/>
            <g>
              <path class="cls-1" d="m298.49,345.64s13.55.91,21.61-7.34l2.65-108.15s-7.32,11-20.41,5.12l-3.85,110.37Z"/>
              <path class="cls-3" d="m299.7,346.52h0c-.81,0-1.27-.03-1.27-.03-.46-.03-.81-.42-.79-.88l3.85-110.37c0-.28.16-.54.4-.69.24-.15.54-.17.8-.05,2.44,1.1,4.85,1.65,7.15,1.65,7.78,0,12.16-6.41,12.21-6.47.21-.31.6-.45.96-.34.36.11.6.45.59.83l-2.65,108.16c0,.21-.09.42-.24.57-6.72,6.88-16.93,7.62-21,7.62Zm-.34-1.7c.1,0,.21,0,.33,0h0c2.98,0,13.1-.5,19.56-6.88l2.58-105.39c-2.08,2.14-6.14,5.29-12.01,5.29-2.17,0-4.42-.44-6.69-1.32l-3.78,108.29Z"/>
            </g>
            <g>
              <path class="cls-5" d="m302.34,235.27l-78.63-8.02c-1.51-.15-2.82,1.03-2.83,2.54l-.51,95.66c0,1.2.82,2.24,1.99,2.51l76.13,17.68,3.85-110.37Z"/>
              <path class="cls-3" d="m298.49,346.49c-.06,0-.13,0-.19-.02l-76.13-17.68c-1.56-.36-2.65-1.74-2.64-3.35l.51-95.66c.01-1.99,1.73-3.58,3.76-3.38l78.63,8.02c.44.05.78.43.76.87l-3.85,110.37c0,.25-.13.49-.33.64-.15.11-.33.17-.52.17Zm-75.04-118.4c-.94,0-1.71.77-1.72,1.71l-.51,95.66c0,.81.54,1.5,1.33,1.68l75.13,17.45,3.79-108.54-77.84-7.94c-.06,0-.12,0-.18,0Z"/>
            </g>
            <g>
              <path class="cls-5" d="m322.75,230.15l20.68-30.76c.24-.36.8-.18.79.25l-1.64,110.27-22.48,28.4,2.65-108.15Z"/>
              <path class="cls-3" d="m320.1,339.15c-.1,0-.19-.02-.29-.05-.34-.12-.57-.45-.56-.82l2.65-108.16c0-.16.05-.32.14-.45l20.68-30.76c.43-.64,1.44-.73,1.98-.18.24.24.37.57.36.92l-1.64,110.27c0,.19-.07.37-.18.51l-22.48,28.4c-.16.21-.41.32-.67.32Zm3.49-108.74l-2.58,105.37,20.73-26.18,1.61-108.58-19.76,29.39Z"/>
            </g>
            <path class="cls-3" d="m302.21,242.42l-.14,3.98c3.1.63,7.76,1.2,12.54.37,2.69-.47,5.42-1.4,7.92-2.99l.12-5.05c-6.22,5.82-15.85,4.69-20.45,3.68Z"/>
            <path class="cls-3" d="m298.94,330.31l-.14,4.01c3,.72,8.32,1.6,13.8.65,2.56-.45,5.16-1.3,7.57-2.76l.12-4.96c-6.9,6.04-17.62,4.03-21.35,3.06Z"/>
            <path class="cls-3" d="m304.97,321.21c-.06.01-.13.02-.2.01-.54-.02-.96-.47-.95-1.01l2.05-63.88c.02-.54.47-.98,1.01-.95.54.02.96.47.95,1.01l-2.05,63.88c-.01.47-.36.85-.81.93Z"/>
            <path class="cls-3" d="m311.89,322.48c-.07.01-.14.02-.21.01-.54-.02-.96-.48-.93-1.02l1.4-30.52c.03-.54.48-.96,1.02-.93.54.02.96.48.93,1.02l-1.4,30.52c-.02.47-.37.84-.81.92Z"/>
          </g>
          <g>
            <path class="cls-4" d="m37.59,286.46c-.4-31.51,12.12-67.84,12.12-67.84,43.95,4.25,59.29,21.03,59.29,21.03l-5.16,26.29,78.38,5.17c27.98-3.93,38.87,1.6,38.87,1.6l-.91,11.93s-.64,4.91,12.02,15.54c12.08,10.14,15.52,11.08,22.3,14.77,6.94,3.78,17.04,7.97,13.41,14.83-3.63,6.86-12.75,3.93-12.75,3.93,0,0,1.51,4.43-3.22,7.95-4.73,3.52-14.77-.92-14.77-.92-1.02,15.44-15.75,8.08-15.75,8.08,0,0-5.11,3.8-10.36.3-5.25-3.5-28.91-22.15-32.9-21.83-3.99.32-54.02,1.03-54.02,1.03l-.14-.2c-19.07,1.28-38.53,1.59-53.63-.42-13.12-1.75-22.96-5.24-26.38-11.38-4.52-8.12-6.27-18.68-6.41-29.85Z"/>
            <path class="cls-3" d="m215.83,351.44c-1.86,0-3.62-.55-5.24-1.63-1.36-.91-3.86-2.76-7.03-5.11-7.83-5.8-22.39-16.59-25.3-16.59-4.01.32-52.07,1.01-54.11,1.04-.16,0-.37-.06-.52-.17-9.97.66-19.2.99-27.44.99-9.96,0-18.68-.49-25.93-1.45-14.64-1.95-23.73-5.92-27-11.81-4.16-7.48-6.36-17.66-6.52-30.25-.39-31.29,12.04-67.76,12.17-68.13.13-.37.5-.6.88-.57,43.77,4.23,59.2,20.61,59.84,21.3.18.2.26.47.21.74l-4.97,25.34,77.33,5.1c6.67-.93,12.94-1.41,18.62-1.41,14.39,0,20.41,2.98,20.66,3.11.31.16.49.48.46.82l-.91,11.93c0,.07-.21,4.82,11.72,14.82,9.87,8.28,13.81,10.32,18.79,12.9,1.06.55,2.16,1.12,3.37,1.77.77.42,1.58.85,2.41,1.28,4.99,2.62,10.65,5.58,11.93,9.71.5,1.61.3,3.29-.59,4.98-1.73,3.27-4.88,5.01-9.12,5.01-1.32,0-2.5-.17-3.34-.34.12,1.77-.26,4.9-3.75,7.5-1.36,1.01-3.2,1.52-5.47,1.52-3.54,0-7.27-1.23-9.07-1.91-.91,7.79-5.49,9.47-9.27,9.47-3.12,0-6.05-1.15-7.15-1.63-.88.54-3.01,1.66-5.66,1.66Zm-37.57-25.01c3.21,0,13.81,7.66,26.31,16.92,3.15,2.33,5.64,4.17,6.96,5.06,1.33.89,2.78,1.34,4.3,1.34,2.88,0,5.06-1.6,5.08-1.61.26-.19.6-.22.89-.08.03.02,3.39,1.67,6.85,1.67,4.7,0,7.29-3.04,7.68-9.04.02-.28.17-.53.41-.67.24-.14.53-.16.78-.05.05.02,5.05,2.2,9.47,2.2,1.9,0,3.39-.4,4.45-1.19,4.18-3.11,2.93-6.95,2.92-6.99-.1-.3-.03-.64.2-.87.22-.23.56-.31.86-.21.02,0,1.85.58,4.13.58,3.62,0,6.18-1.38,7.62-4.1.68-1.3.84-2.5.47-3.69-1.07-3.45-6.4-6.25-11.1-8.71-.84-.44-1.66-.87-2.44-1.29-1.19-.65-2.28-1.21-3.33-1.76-4.87-2.52-9.09-4.71-19.1-13.11-12.65-10.62-12.39-15.75-12.32-16.3l.86-11.28c-1.7-.68-7.75-2.7-19.38-2.7-5.63,0-11.85.47-18.47,1.4-.06,0-.12,0-.17,0l-78.38-5.17c-.24-.02-.47-.14-.62-.33-.15-.19-.21-.44-.16-.68l5.07-25.84c-2.31-2.23-18.43-16.45-57.78-20.4-1.64,4.98-12.22,38.18-11.86,66.92.15,12.31,2.27,22.22,6.3,29.45,3,5.39,11.66,9.08,25.75,10.95,7.17.95,15.82,1.44,25.7,1.44,8.33,0,17.67-.34,27.76-1.02.21-.01.43.06.59.19,4.81-.07,49.82-.72,53.55-1.02.06,0,.12,0,.18,0Z"/>
          </g>
          <path class="cls-3" d="m255.23,334.1c-.08.01-.16,0-.24-.03-.12-.06-12.13-5.92-19.66-12.15-.17-.14-.19-.39-.05-.56.14-.17.39-.19.56-.05,7.45,6.17,19.38,11.98,19.5,12.04.2.1.28.34.18.53-.06.12-.17.2-.29.22Z"/>
          <path class="cls-3" d="m237.24,341.13c-.07.01-.14,0-.21-.02-10.02-3.82-15.94-9.88-16-9.94-.15-.16-.15-.41,0-.56.16-.15.41-.15.56,0,.06.06,5.86,5.99,15.71,9.74.21.08.31.31.23.52-.05.14-.17.23-.3.25Z"/>
          <path class="cls-3" d="m221.49,349.2c-.09.02-.18,0-.27-.05-7.79-4.46-10.99-7.32-11.12-7.44-.16-.15-.18-.4-.03-.56.15-.17.4-.18.56-.03.03.03,3.29,2.93,10.98,7.34.19.11.26.35.15.54-.06.11-.17.18-.28.2Z"/>
          <g>
            <path class="cls-3" d="m230.02,308.73c-.09.02-.19,0-.28-.06l-5-3.16c-.19-.12-.24-.36-.12-.55.12-.19.36-.24.55-.12l5,3.16c.19.12.24.36.12.55-.06.1-.16.16-.27.18Z"/>
            <path class="cls-3" d="m227.38,310.17s-.06,0-.09,0c-.22-.01-.39-.2-.38-.42l.3-5.65c.01-.22.21-.38.42-.38.22.01.39.2.38.42l-.3,5.65c-.01.19-.15.34-.33.37Z"/>
          </g>
          <g>
            <path class="cls-3" d="m216.85,319.32c-.09.02-.19,0-.28-.06l-5-3.16c-.19-.12-.24-.36-.12-.55.12-.19.36-.24.55-.12l5,3.16c.19.12.24.36.12.55-.06.1-.16.16-.27.18Z"/>
            <path class="cls-3" d="m214.22,320.75s-.06,0-.09,0c-.22-.01-.39-.2-.38-.42l.3-5.65c.01-.22.21-.39.42-.38.22.01.39.2.38.42l-.3,5.65c-.01.19-.15.34-.33.37Z"/>
          </g>
          <g>
            <path class="cls-3" d="m205.54,328.65c-.09.02-.19,0-.28-.06l-5-3.16c-.19-.12-.24-.36-.12-.55.12-.19.37-.24.55-.12l5,3.16c.19.12.24.36.12.55-.06.1-.16.16-.27.18Z"/>
            <path class="cls-3" d="m202.91,330.09s-.06,0-.09,0c-.22-.01-.39-.2-.38-.42l.3-5.65c.01-.22.2-.38.42-.38.22.01.39.2.38.42l-.3,5.65c-.01.19-.15.34-.33.37Z"/>
          </g>
          <path class="cls-3" d="m168.29,270.13s-9.43,26.76-6.45,57.33l-7.56.2s-3.23-39.55,7.51-58.23l6.5.69Z"/>
          <g>
            <path class="cls-4" d="m166.84,305.33c-.9-5.16-5.8-8.61-10.96-7.72-5.16.9-8.61,5.8-7.72,10.96.9,5.16,5.8,8.61,10.96,7.72,5.16-.9,8.61-5.8,7.72-10.96Z"/>
            <path class="cls-3" d="m159.19,316.68c-5.37.93-10.49-2.67-11.42-8.04-.93-5.37,2.67-10.49,8.04-11.42,5.37-.93,10.49,2.67,11.42,8.04.93,5.37-2.67,10.49-8.04,11.42Zm-3.25-18.68c-4.93.86-8.25,5.57-7.39,10.5.86,4.93,5.57,8.25,10.5,7.39,4.93-.86,8.25-5.57,7.39-10.5s-5.57-8.25-10.5-7.39Z"/>
          </g>
          <g>
            <polyline class="cls-4" points="150.37 306.74 157.5 306.95 156.24 303.96"/>
            <path class="cls-3" d="m157.57,307.34s-.05,0-.08,0l-7.13-.21c-.22,0-.39-.19-.39-.41,0-.22.2-.39.41-.39l6.51.19-1.02-2.42c-.09-.2,0-.44.21-.52.22-.09.44,0,.52.21l1.26,2.99c.05.13.04.27-.04.38-.06.09-.16.15-.26.17Z"/>
          </g>
        </g>
        <g>
          <path class="cls-4" d="m193.91,58.49c-.15,2.1,2.4,4.81,2.7,6.46s-2.7,3.61-2.7,3.61"/>
          <path class="cls-3" d="m193.91,69.4c-.28,0-.55-.14-.71-.39-.26-.39-.14-.92.25-1.17,1.06-.69,2.46-2.03,2.33-2.74-.1-.53-.59-1.36-1.06-2.17-.83-1.4-1.76-3-1.65-4.5.03-.47.45-.83.91-.79.47.03.82.44.79.91-.07.98.72,2.33,1.42,3.52.58.98,1.12,1.9,1.27,2.73.38,2.1-2.5,4.09-3.08,4.47-.14.09-.3.14-.46.14Z"/>
        </g>
      </g>
      <g>
        <path class="cls-9" d="m121.04,98.96H36.04c-3.56,0-6.4-2.88-6.4-6.4v-43.96c0-3.56,2.88-6.4,6.4-6.4h85c3.56,0,6.4,2.88,6.4,6.4v43.96c.04,3.52-2.83,6.4-6.4,6.4Z"/>
        <rect class="cls-7" x="40.41" y="83.55" width="15.4" height="10.13"/>
        <rect class="cls-7" x="62.36" y="75.24" width="15.4" height="18.27"/>
        <rect class="cls-7" x="83.52" y="64.41" width="15.4" height="29.1"/>
        <rect class="cls-7" x="104.72" y="53.37" width="15.41" height="40.14"/>
        <path class="cls-7" d="m38.69,79.93c-.79,0-1.56-.45-1.91-1.22-.49-1.05-.02-2.3,1.03-2.79l52.18-24.02c1.05-.49,2.3-.02,2.79,1.03.49,1.05.02,2.3-1.03,2.79l-52.18,24.02c-.28.13-.58.19-.88.19Z"/>
        <path class="cls-7" d="m91.21,61.92c-.27,0-.55-.05-.81-.16-1.07-.45-1.57-1.68-1.12-2.75l2.24-5.34-5.65-1.1c-1.14-.22-1.88-1.33-1.66-2.46.22-1.14,1.33-1.88,2.46-1.66l8.18,1.6c.62.12,1.15.52,1.45,1.07.3.56.33,1.22.08,1.8l-3.24,7.72c-.34.8-1.12,1.29-1.94,1.29Z"/>
      </g>
      <g>
        <g>
          <path class="cls-4" d="m233.85,72.5l18.81-5.47c2.75,2.57,6.01,4.64,9.72,6.01,15.86,5.85,33.78-3.13,40.03-20.07,6.25-16.94-1.54-35.41-17.4-41.26-15.86-5.85-33.78,3.13-40.03,20.07-2.58,6.99-2.76,14.24-.98,20.75l-10.16,19.97Z"/>
          <path class="cls-2" d="m272.39,75.67c-3.52,0-6.98-.62-10.29-1.84-3.57-1.32-6.81-3.29-9.65-5.86l-18.35,5.34c-.32.1-.67-.01-.89-.27-.22-.26-.26-.62-.1-.93l10.01-19.68c-1.81-6.88-1.44-14.11,1.09-20.95,4.95-13.41,17.34-22.41,30.83-22.41,3.52,0,6.98.62,10.29,1.84,16.27,6,24.3,25,17.9,42.35-4.95,13.41-17.34,22.41-30.83,22.41Zm-19.72-9.49c.21,0,.42.08.58.23,2.76,2.57,5.93,4.54,9.44,5.83,3.12,1.15,6.38,1.74,9.7,1.74,12.78,0,24.53-8.56,29.23-21.3,6.08-16.47-1.5-34.49-16.89-40.17-3.12-1.15-6.38-1.73-9.7-1.73-12.78,0-24.53,8.56-29.23,21.3-2.44,6.61-2.77,13.61-.96,20.24.06.2.03.42-.06.61l-9.27,18.23,16.93-4.92c.08-.02.16-.03.24-.03Z"/>
        </g>
        <path class="cls-3" d="m265.02,42.65c0-2.71-2.19-4.9-4.9-4.9s-4.9,2.19-4.9,4.9,2.19,4.9,4.9,4.9,4.9-2.19,4.9-4.9Z"/>
        <circle class="cls-3" cx="274.82" cy="42.65" r="4.9"/>
        <circle class="cls-3" cx="289.53" cy="42.65" r="4.9"/>
      </g>
      <g>
        <g>
          <path class="cls-1" d="m15.13,213.49v161.23h102.1L15.13,213.49Zm16.17,143.14v-84.64l52.41,84.64H31.3Z"/>
          <path class="cls-3" d="m117.23,375.57H15.13c-.47,0-.85-.38-.85-.85v-161.23c0-.38.25-.71.61-.81.36-.11.75.04.95.36l102.1,161.23c.17.26.18.59.03.86-.15.27-.43.44-.74.44Zm-101.25-1.7h99.71L15.98,216.42v157.45Zm67.73-16.39H31.3c-.47,0-.85-.38-.85-.85v-84.64c0-.38.25-.71.62-.82.36-.1.75.05.95.37l52.41,84.64c.16.26.17.59.02.86-.15.27-.43.44-.74.44Zm-51.56-1.7h50.04l-50.04-80.81v80.81Z"/>
        </g>
        <g>
          <g>
            <rect class="cls-3" x="19.85" y="362.25" width=".68" height="10.12" transform="translate(387.51 347.12) rotate(90)"/>
            <rect class="cls-3" x="14.71" y="366.55" width="10.97" height="1.53"/>
          </g>
          <g>
            <rect class="cls-3" x="17.67" y="361.59" width=".68" height="5.76" transform="translate(382.48 346.46) rotate(90)"/>
            <rect class="cls-3" x="14.71" y="363.7" width="6.61" height="1.53"/>
          </g>
          <g>
            <rect class="cls-3" x="17.67" y="359.08" width=".68" height="5.76" transform="translate(379.97 343.95) rotate(90)"/>
            <rect class="cls-3" x="14.71" y="361.19" width="6.61" height="1.53"/>
          </g>
          <g>
            <rect class="cls-3" x="17.67" y="356.52" width=".68" height="5.76" transform="translate(377.41 341.39) rotate(90)"/>
            <rect class="cls-3" x="14.71" y="358.64" width="6.61" height="1.53"/>
          </g>
          <g>
            <rect class="cls-3" x="17.67" y="354.06" width=".68" height="5.76" transform="translate(374.95 338.93) rotate(90)"/>
            <rect class="cls-3" x="14.71" y="356.17" width="6.61" height="1.53"/>
          </g>
        </g>
        <g>
          <g>
            <rect class="cls-3" x="19.85" y="349.07" width=".68" height="10.12" transform="translate(374.32 333.94) rotate(90)"/>
            <rect class="cls-3" x="14.71" y="353.36" width="10.97" height="1.53"/>
          </g>
          <g>
            <rect class="cls-3" x="17.67" y="348.4" width=".68" height="5.76" transform="translate(369.29 333.27) rotate(90)"/>
            <rect class="cls-3" x="14.71" y="350.51" width="6.61" height="1.53"/>
          </g>
          <g>
            <rect class="cls-3" x="17.67" y="345.89" width=".68" height="5.76" transform="translate(366.78 330.76) rotate(90)"/>
            <rect class="cls-3" x="14.71" y="348" width="6.61" height="1.53"/>
          </g>
          <g>
            <rect class="cls-3" x="17.67" y="343.34" width=".68" height="5.76" transform="translate(364.23 328.21) rotate(90)"/>
            <rect class="cls-3" x="14.71" y="345.45" width="6.61" height="1.53"/>
          </g>
          <g>
            <rect class="cls-3" x="17.67" y="340.87" width=".68" height="5.76" transform="translate(361.76 325.74) rotate(90)"/>
            <rect class="cls-3" x="14.71" y="342.98" width="6.61" height="1.53"/>
          </g>
        </g>
        <g>
          <g>
            <rect class="cls-3" x="19.85" y="336.22" width=".68" height="10.12" transform="translate(361.47 321.09) rotate(90)"/>
            <rect class="cls-3" x="14.71" y="340.52" width="10.97" height="1.53"/>
          </g>
          <g>
            <rect class="cls-3" x="17.67" y="335.55" width=".68" height="5.76" transform="translate(356.44 320.42) rotate(90)"/>
            <rect class="cls-3" x="14.71" y="337.67" width="6.61" height="1.53"/>
          </g>
          <g>
            <rect class="cls-3" x="17.67" y="333.04" width=".68" height="5.76" transform="translate(353.93 317.91) rotate(90)"/>
            <rect class="cls-3" x="14.71" y="335.16" width="6.61" height="1.53"/>
          </g>
          <g>
            <rect class="cls-3" x="17.67" y="330.49" width=".68" height="5.76" transform="translate(351.38 315.36) rotate(90)"/>
            <rect class="cls-3" x="14.71" y="332.6" width="6.61" height="1.53"/>
          </g>
          <g>
            <rect class="cls-3" x="17.67" y="328.02" width=".68" height="5.76" transform="translate(348.91 312.89) rotate(90)"/>
            <rect class="cls-3" x="14.71" y="330.14" width="6.61" height="1.53"/>
          </g>
        </g>
        <g>
          <g>
            <rect class="cls-3" x="19.85" y="323.03" width=".68" height="10.12" transform="translate(348.29 307.9) rotate(90)"/>
            <rect class="cls-3" x="14.71" y="327.33" width="10.97" height="1.53"/>
          </g>
          <g>
            <rect class="cls-3" x="17.67" y="322.36" width=".68" height="5.76" transform="translate(343.25 307.23) rotate(90)"/>
            <rect class="cls-3" x="14.71" y="324.48" width="6.61" height="1.53"/>
          </g>
          <g>
            <rect class="cls-3" x="17.67" y="319.86" width=".68" height="5.76" transform="translate(340.74 304.72) rotate(90)"/>
            <rect class="cls-3" x="14.71" y="321.97" width="6.61" height="1.53"/>
          </g>
          <g>
            <rect class="cls-3" x="17.67" y="317.3" width=".68" height="5.76" transform="translate(338.19 302.17) rotate(90)"/>
            <rect class="cls-3" x="14.71" y="319.42" width="6.61" height="1.53"/>
          </g>
          <g>
            <rect class="cls-3" x="17.67" y="314.84" width=".68" height="5.76" transform="translate(335.72 299.71) rotate(90)"/>
            <rect class="cls-3" x="14.71" y="316.95" width="6.61" height="1.53"/>
          </g>
        </g>
        <g>
          <g>
            <rect class="cls-3" x="19.85" y="310.06" width=".68" height="10.12" transform="translate(335.31 294.93) rotate(90)"/>
            <rect class="cls-3" x="14.71" y="314.36" width="10.97" height="1.53"/>
          </g>
          <g>
            <rect class="cls-3" x="17.67" y="309.39" width=".68" height="5.76" transform="translate(330.28 294.26) rotate(90)"/>
            <rect class="cls-3" x="14.71" y="311.51" width="6.61" height="1.53"/>
          </g>
          <g>
            <rect class="cls-3" x="17.67" y="306.88" width=".68" height="5.76" transform="translate(327.77 291.75) rotate(90)"/>
            <rect class="cls-3" x="14.71" y="309" width="6.61" height="1.53"/>
          </g>
          <g>
            <rect class="cls-3" x="17.67" y="304.33" width=".68" height="5.76" transform="translate(325.22 289.2) rotate(90)"/>
            <rect class="cls-3" x="14.71" y="306.44" width="6.61" height="1.53"/>
          </g>
          <g>
            <rect class="cls-3" x="17.67" y="301.86" width=".68" height="5.76" transform="translate(322.75 286.73) rotate(90)"/>
            <rect class="cls-3" x="14.71" y="303.98" width="6.61" height="1.53"/>
          </g>
        </g>
        <g>
          <g>
            <rect class="cls-3" x="19.85" y="296.87" width=".68" height="10.12" transform="translate(322.13 281.74) rotate(90)"/>
            <rect class="cls-3" x="14.71" y="301.17" width="10.97" height="1.53"/>
          </g>
          <g>
            <rect class="cls-3" x="17.67" y="296.2" width=".68" height="5.76" transform="translate(317.09 281.07) rotate(90)"/>
            <rect class="cls-3" x="14.71" y="298.32" width="6.61" height="1.53"/>
          </g>
          <g>
            <rect class="cls-3" x="17.67" y="293.69" width=".68" height="5.76" transform="translate(314.58 278.56) rotate(90)"/>
            <rect class="cls-3" x="14.71" y="295.81" width="6.61" height="1.53"/>
          </g>
          <g>
            <rect class="cls-3" x="17.67" y="291.14" width=".68" height="5.76" transform="translate(312.03 276.01) rotate(90)"/>
            <rect class="cls-3" x="14.71" y="293.26" width="6.61" height="1.53"/>
          </g>
          <g>
            <rect class="cls-3" x="17.67" y="288.67" width=".68" height="5.76" transform="translate(309.56 273.54) rotate(90)"/>
            <rect class="cls-3" x="14.71" y="290.79" width="6.61" height="1.53"/>
          </g>
        </g>
        <g>
          <g>
            <rect class="cls-3" x="19.85" y="284.02" width=".68" height="10.12" transform="translate(309.28 268.89) rotate(90)"/>
            <rect class="cls-3" x="14.71" y="288.32" width="10.97" height="1.53"/>
          </g>
          <g>
            <rect class="cls-3" x="17.67" y="283.36" width=".68" height="5.76" transform="translate(304.25 268.23) rotate(90)"/>
            <rect class="cls-3" x="14.71" y="285.47" width="6.61" height="1.53"/>
          </g>
          <g>
            <rect class="cls-3" x="17.67" y="280.85" width=".68" height="5.76" transform="translate(301.74 265.72) rotate(90)"/>
            <rect class="cls-3" x="14.71" y="282.96" width="6.61" height="1.53"/>
          </g>
          <g>
            <rect class="cls-3" x="17.67" y="278.29" width=".68" height="5.76" transform="translate(299.18 263.16) rotate(90)"/>
            <rect class="cls-3" x="14.71" y="280.41" width="6.61" height="1.53"/>
          </g>
          <g>
            <rect class="cls-3" x="17.67" y="275.83" width=".68" height="5.76" transform="translate(296.72 260.7) rotate(90)"/>
            <rect class="cls-3" x="14.71" y="277.94" width="6.61" height="1.53"/>
          </g>
        </g>
        <g>
          <g>
            <rect class="cls-3" x="19.85" y="270.84" width=".68" height="10.12" transform="translate(296.09 255.71) rotate(90)"/>
            <rect class="cls-3" x="14.71" y="275.13" width="10.97" height="1.53"/>
          </g>
          <g>
            <rect class="cls-3" x="17.67" y="270.17" width=".68" height="5.76" transform="translate(291.06 255.04) rotate(90)"/>
            <rect class="cls-3" x="14.71" y="272.28" width="6.61" height="1.53"/>
          </g>
          <g>
            <rect class="cls-3" x="17.67" y="267.66" width=".68" height="5.76" transform="translate(288.55 252.53) rotate(90)"/>
            <rect class="cls-3" x="14.71" y="269.77" width="6.61" height="1.53"/>
          </g>
          <g>
            <rect class="cls-3" x="17.67" y="265.11" width=".68" height="5.76" transform="translate(286 249.98) rotate(90)"/>
            <rect class="cls-3" x="14.71" y="267.22" width="6.61" height="1.53"/>
          </g>
          <g>
            <rect class="cls-3" x="17.67" y="262.64" width=".68" height="5.76" transform="translate(283.53 247.51) rotate(90)"/>
            <rect class="cls-3" x="14.71" y="264.75" width="6.61" height="1.53"/>
          </g>
        </g>
        <g>
          <g>
            <rect class="cls-3" x="19.85" y="256.97" width=".68" height="10.12" transform="translate(282.22 241.84) rotate(90)"/>
            <rect class="cls-3" x="14.71" y="261.27" width="10.97" height="1.53"/>
          </g>
          <g>
            <rect class="cls-3" x="17.67" y="256.3" width=".68" height="5.76" transform="translate(277.19 241.17) rotate(90)"/>
            <rect class="cls-3" x="14.71" y="258.42" width="6.61" height="1.53"/>
          </g>
          <g>
            <rect class="cls-3" x="17.67" y="253.79" width=".68" height="5.76" transform="translate(274.68 238.66) rotate(90)"/>
            <rect class="cls-3" x="14.71" y="255.91" width="6.61" height="1.53"/>
          </g>
          <g>
            <rect class="cls-3" x="17.67" y="251.24" width=".68" height="5.76" transform="translate(272.13 236.11) rotate(90)"/>
            <rect class="cls-3" x="14.71" y="253.35" width="6.61" height="1.53"/>
          </g>
          <g>
            <rect class="cls-3" x="17.67" y="248.77" width=".68" height="5.76" transform="translate(269.66 233.64) rotate(90)"/>
            <rect class="cls-3" x="14.71" y="250.89" width="6.61" height="1.53"/>
          </g>
        </g>
        <g>
          <g>
            <rect class="cls-3" x="19.85" y="243.78" width=".68" height="10.12" transform="translate(269.04 228.65) rotate(90)"/>
            <rect class="cls-3" x="14.71" y="248.08" width="10.97" height="1.53"/>
          </g>
          <g>
            <rect class="cls-3" x="17.67" y="243.11" width=".68" height="5.76" transform="translate(264 227.98) rotate(90)"/>
            <rect class="cls-3" x="14.71" y="245.23" width="6.61" height="1.53"/>
          </g>
          <g>
            <rect class="cls-3" x="17.67" y="240.6" width=".68" height="5.76" transform="translate(261.49 225.47) rotate(90)"/>
            <rect class="cls-3" x="14.71" y="242.72" width="6.61" height="1.53"/>
          </g>
          <g>
            <rect class="cls-3" x="17.67" y="238.05" width=".68" height="5.76" transform="translate(258.94 222.92) rotate(90)"/>
            <rect class="cls-3" x="14.71" y="240.17" width="6.61" height="1.53"/>
          </g>
          <g>
            <rect class="cls-3" x="17.67" y="235.58" width=".68" height="5.76" transform="translate(256.47 220.45) rotate(90)"/>
            <rect class="cls-3" x="14.71" y="237.7" width="6.61" height="1.53"/>
          </g>
        </g>
      </g>
    </g>
  </g>
</svg>