<?xml version="1.0" encoding="UTF-8"?>
<svg id="_레이어_2" data-name="레이어 2" xmlns="http://www.w3.org/2000/svg" viewBox="0 0 437.06 360.18">
  <defs>
    <style>
      .cls-1 {
        fill: #f2cf63;
      }

      .cls-1, .cls-2, .cls-3, .cls-4, .cls-5, .cls-6, .cls-7, .cls-8, .cls-9 {
        stroke-width: 0px;
      }

      .cls-2 {
        fill: #363636;
      }

      .cls-3 {
        fill: #a2bff9;
      }

      .cls-4 {
        fill: #2b2b2b;
      }

      .cls-5 {
        fill: #333;
      }

      .cls-6 {
        fill: #fff;
      }

      .cls-7 {
        fill: #313131;
      }

      .cls-8 {
        fill: #fc5e71;
      }

      .cls-9 {
        fill: #ccd7f2;
      }
    </style>
  </defs>
  <g id="_迹_1" data-name="卵迹_1">
    <g>
      <path class="cls-9" d="m156.38,21.26c6.33-5.88,13.72-10.03,22.17-11.64,10.33-1.97,21.32-.66,31,4.42,10.04,5.27,17.17,15.82,27.35,20.85,10.23,5.06,21.75,3.79,32.7,2.43,14.34-1.78,28.85-3.08,43.11-5.18,13.17-1.94,26.58-5.02,39.16,2.45,21.61,12.85,27.35,46.41,24.44,71.79-2.57,22.37-10.73,43.13-18.41,63.73-7.68,20.6-15.09,41.92-16,64.5-.97,23.81,5.18,49.19-3.25,70.75-6.12,15.64-19.15,26.29-33.07,31.78-13.92,5.49-28.86,6.49-43.58,7.43-12.55.81-25.1,1.61-37.65,2.42-19.99,1.28-40.18,2.56-59.99-1.34-19.81-3.9-39.5-13.47-53.25-30.84-13.36-16.88-20.01-39.6-23.51-62.13-2.46-15.82-3.37-33.03,3.28-46.93,8.83-18.45,28.95-26.82,36.64-45.97,7.8-19.43.17-42.44.67-64.03.61-26.44,10.05-57.6,28.22-74.48Z"/>
      <path class="cls-6" d="m330.91,101.31l6.39-2.03-6.39-2.18c-1.91-.5-3.38-2.04-3.78-3.98l-2.03-9.6-2.18,9.39c-.46,1.98-2.02,3.51-4.01,3.93l-6.02,2.07,5.81,2.05c2.03.47,3.59,2.11,3.96,4.16l1.68,9.28,2.45-9.29c.52-1.97,2.13-3.45,4.13-3.81Z"/>
      <g>
        <path class="cls-5" d="m363.34,197.8c4.24-5.16,22.64,3.05,38.26,4.1,15.62,1.06,23.17,3.57,23.17,8.34s-16.55,10.06-16.55,10.06l-27.4-8.34-17.48-14.17Z"/>
        <g>
          <path class="cls-5" d="m386.53,174.42s-.06-.02-.09-.03c-.33-.13-.49-.51-.35-.85,9.73-23.68-10.62-34.67-11.49-35.13-.32-.17-.44-.56-.27-.88.17-.32.57-.44.87-.27.22.12,22.27,11.98,12.09,36.77-.12.3-.45.46-.75.38Z"/>
          <path class="cls-5" d="m420.31,136.36c-.06,0-.13-.02-.19-.04-.29-.11-28.74-11.45-39.38-14.56-.34-.1-.54-.46-.44-.81.1-.34.45-.53.8-.44,10.7,3.12,39.2,14.48,39.49,14.6.33.13.49.51.36.84-.11.27-.38.43-.65.41Z"/>
          <g>
            <path class="cls-6" d="m417.19,184.54c2.13-6.4,13.4-40.89,12.95-51.28-.33-7.68-24.16-14.27-39.86-17.78,2.84-9.39,6.04-20.5,7.75-28.11l3.4-15.12c.94-4.19-1.69-8.35-5.88-9.29-4.21-.97-8.35,1.69-9.29,5.88l-3.4,15.12c-1.87,8.3-5.75,21.46-8.78,31.33-2.07,2.02-5.09,5.09-8.12,8.65-2.16-8.71-4.58-16.62-6.86-20.21-2.31-3.62-7.11-4.69-10.73-2.38-3.62,2.31-4.69,7.11-2.38,10.73,1.99,3.12,5.51,17.22,8.55,32.13-3.31,14.62,3.11,27.72,6.11,32.77.71,16.94,1.13,34.29,1.23,50.79,8.24,7.92,21.62,11.32,32.37,12.46,8.04.54,15.98.88,23.9,1.08,0-1.63.01-3.28.01-4.96,0-18.91-.46-37.21-.97-51.82Z"/>
            <path class="cls-5" d="m418.15,242.62h-.02c-8.3,0-16.13-.79-23.94-1.31-8.29-.87-23.53-3.79-32.9-12.81-.16-.16-.26-.43-.26-.66-.1-16.35-.52-33.85-1.22-50.57-3.03-5.17-9.39-18.33-6.14-33.04-3.39-16.55-6.68-28.98-8.4-31.67-2.55-4.01-1.37-9.36,2.64-11.91,1.39-.88,2.99-1.35,4.62-1.35,2.97,0,5.69,1.49,7.28,3.99,1.95,3.06,4.16,9.41,6.57,18.88,2.64-3.01,5.17-5.58,6.95-7.32,2.96-9.65,6.84-22.8,8.7-31.07l3.4-15.12c.89-3.97,4.33-6.74,8.37-6.74.65,0,1.3.07,1.94.22,4.63,1.04,7.56,5.66,6.51,10.3l-3.4,15.12c-1.4,6.21-3.92,15.39-7.5,27.29,26.03,5.89,39.36,12.07,39.63,18.37.45,10.44-10.59,44.34-12.94,51.44.63,18.28.96,35.67.96,51.69,0,1.68,0,3.33-.01,4.96,0,.23-.09.67-.26.83-.16.15-.37.47-.59.47Zm-55.43-15.21c9.03,8.47,23.65,11.14,31.61,11.98,7.48.5,15.01.84,22.97,1.05,0-1.35,0-2.71,0-4.09,0-16.05-.33-33.47-.97-51.79,0-.1.01-.2.04-.3,2.23-6.72,13.35-40.76,12.91-50.98-.23-5.27-14.52-11.46-39.2-16.99-.23-.05-.43-.2-.55-.4-.12-.2-.15-.45-.08-.67,3.66-12.11,6.33-21.81,7.74-28.05l3.4-15.12c.84-3.73-1.51-7.44-5.23-8.28-.52-.12-1.04-.18-1.56-.18-3.24,0-6,2.23-6.71,5.41l-3.4,15.12c-1.88,8.37-5.83,21.7-8.8,31.4-.04.14-.12.26-.22.36-2,1.94-5.02,5.01-8.07,8.6-.21.24-.53.35-.84.28-.31-.07-.55-.31-.63-.62-2.53-10.18-4.8-16.89-6.75-19.96-1.28-2.01-3.47-3.2-5.85-3.2-1.31,0-2.6.37-3.71,1.08-3.22,2.05-4.17,6.34-2.12,9.56,2.22,3.48,5.93,19.03,8.67,32.42.02.12.02.24,0,.36-3.25,14.36,3.12,27.27,6.01,32.15.07.12.11.26.12.4.7,16.68,1.13,34.12,1.23,50.46Z"/>
          </g>
          <g>
            <g>
              <path class="cls-6" d="m402.41,105.8c3.19,1.09,5.39,3.66,6.03,6.48,2.13-1.63,5.2-2.18,8.2-1.15,3.39,1.16,5.73,3.97,6.19,7.01.07.43.07.87.05,1.31,1.91-1.69,4.84-2.31,7.71-1.33,3.04,1.04,5.13,3.56,5.55,6.28.14.95.08,1.93-.22,2.88l-6.51,20.48c-1.16,3.65-5.43,5.47-9.54,4.06-2.88-.99-4.89-3.31-5.44-5.87-1.94,2.85-5.9,4.1-9.75,2.78-3.19-1.09-5.4-3.64-6.05-6.47-2.13,1.62-5.19,2.16-8.18,1.13-3.47-1.19-5.7-4.12-6.08-7.23,1.56-10.14,4.32-17.34,8.62-30.17,1.83-.67,7.3-.91,9.42-.19Z"/>
              <path class="cls-5" d="m422.68,153.15c-1.04,0-2.08-.18-3.09-.52-2.51-.86-4.51-2.7-5.5-4.97-1.6,1.55-3.86,2.44-6.3,2.44-1.14,0-2.28-.19-3.39-.57-2.93-1.01-5.24-3.23-6.26-5.94-2.31,1.29-5.27,1.53-7.97.6-3.61-1.24-6.22-4.35-6.65-7.94,0-.08,0-.15,0-.23,1.35-8.76,3.56-15.28,6.91-25.14.55-1.63,1.13-3.34,1.75-5.17.08-.25.27-.44.51-.53,1.29-.47,3.81-.68,5.73-.68,1.06,0,3.01.06,4.25.49,2.92,1,5.23,3.23,6.24,5.95,2.31-1.3,5.29-1.54,7.99-.61,3.53,1.21,6.16,4.16,6.73,7.54,2.08-1.17,4.76-1.4,7.22-.55,3.24,1.11,5.64,3.84,6.11,6.96.17,1.11.09,2.21-.25,3.27l-6.51,20.48c-.98,3.07-4.01,5.13-7.53,5.13Zm-8.25-8.05c.05,0,.11,0,.16.02.33.06.6.32.67.65.51,2.38,2.39,4.39,4.89,5.25.83.29,1.68.43,2.54.43,2.83,0,5.15-1.55,5.92-3.95l6.51-20.48c.25-.8.32-1.64.19-2.5-.38-2.5-2.33-4.7-4.98-5.6-2.45-.84-5.14-.38-6.87,1.16-.25.22-.62.28-.92.13-.31-.14-.5-.46-.49-.79.01-.38.01-.78-.04-1.16-.43-2.82-2.64-5.3-5.63-6.33-2.59-.89-5.45-.49-7.41,1.02-.23.18-.53.22-.8.12-.27-.1-.48-.33-.54-.61-.61-2.67-2.7-4.92-5.47-5.87-.73-.25-2.08-.4-3.7-.4-1.82,0-3.72.19-4.78.46-.56,1.68-1.1,3.26-1.61,4.77-3.3,9.73-5.49,16.18-6.82,24.74.4,2.89,2.54,5.41,5.5,6.42,2.58.89,5.43.49,7.39-1,.23-.17.53-.22.8-.12.27.1.47.33.54.61.6,2.65,2.71,4.9,5.49,5.85.93.32,1.89.48,2.84.48,2.47,0,4.68-1.1,5.93-2.93.16-.24.42-.37.7-.37Z"/>
            </g>
            <path class="cls-5" d="m398.91,142.46c-.07.1-.22.14-.36.1-.18-.05-.29-.23-.25-.39l4.51-16.5c.04-.16.22-.24.4-.19.18.05.29.23.25.39l-4.51,16.5s-.03.06-.05.09Z"/>
            <path class="cls-5" d="m416.96,139.68c-.07.1-.21.14-.35.1-.18-.05-.29-.23-.25-.38l4.88-18.77c.04-.16.22-.25.4-.19.18.05.29.23.25.38l-4.88,18.77s-.02.07-.05.09Z"/>
            <path class="cls-5" d="m414.7,146.14c-.07.09-.2.14-.34.1-.18-.05-.3-.21-.27-.38l.54-2.68c.04-.16.21-.26.39-.21.18.05.3.21.27.38l-.54,2.68s-.03.08-.05.11Z"/>
            <path class="cls-5" d="m397.96,134.64s0,.06,0,.09l-1.58,6.1c-.02.09-.09.16-.19.2-.15.05-3.63,1.25-7.49-.65-.17-.09-.25-.28-.17-.43.08-.15.28-.21.45-.12,3.13,1.54,6.08.85,6.76.65l1.51-5.81c-2.89-3.91-7.98-3.83-9.07-3.77l-1.4,5.03c-.04.17-.23.25-.42.19-.18-.06-.3-.24-.25-.4l1.45-5.22c.03-.11.13-.2.26-.21.07,0,6.61-.68,10.08,4.19.03.05.06.11.06.16Z"/>
            <path class="cls-5" d="m413.38,139.35s0,.06,0,.09l-1.58,6.1c-.02.09-.09.16-.19.2-.15.05-3.63,1.25-7.49-.65-.17-.09-.25-.28-.17-.43.08-.15.28-.21.45-.12,3.13,1.54,6.08.85,6.76.65l1.51-5.81c-2.89-3.91-7.98-3.83-9.07-3.77l-1.4,5.03c-.04.17-.23.25-.42.19-.18-.06-.3-.24-.25-.4l1.45-5.22c.03-.11.13-.2.26-.21.07,0,6.61-.68,10.08,4.19.03.05.06.11.06.16Z"/>
            <path class="cls-5" d="m428.86,142.75s0,.06,0,.09l-1.5,5.77c-.02.09-.09.16-.18.19-.14.05-3.44,1.19-7.1-.61-.16-.08-.23-.27-.16-.41.07-.15.27-.2.43-.12,2.97,1.46,5.76.81,6.41.62l1.43-5.5c-2.74-3.7-7.56-3.63-8.59-3.57l-1.32,4.76c-.04.16-.22.24-.39.18-.18-.05-.28-.23-.24-.38l1.37-4.95c.03-.11.12-.19.25-.2.06,0,6.26-.64,9.55,3.97.03.05.05.1.06.16Z"/>
          </g>
          <g>
            <path class="cls-6" d="m374.32,137.54s17.5,9.22,19.63,29.16"/>
            <path class="cls-5" d="m393.95,167.55c-.43,0-.8-.32-.84-.76-2.06-19.27-19.01-28.41-19.18-28.5-.41-.22-.57-.73-.36-1.15.22-.41.73-.57,1.15-.36.18.09,17.92,9.67,20.08,29.82.05.47-.29.88-.75.93-.03,0-.06,0-.09,0Z"/>
          </g>
        </g>
        <path class="cls-5" d="m40.44,210.24c.79-7.81,18.93-3.84,31.38-6.62,12.44-2.78,27.8-3.84,27.8-3.84l-38.66,20.39-20.52-9.93Z"/>
        <g>
          <g>
            <path class="cls-6" d="m101.74,217.66l-1.85-9.14h0l-5.16-25.82-4.37-21.71h0l-.93-4.5s-3.05-9.27-9.53-13.24c-6.35-4.1-17.74-6.88-20.39-9s-10.99-12.84-14.3-14.03-9-.66-8.34,7.02c.66,7.68,9.27,18.93,9.27,18.93,0,0-18.8-4.9-21.71-7.02-2.91-1.99-9.4-16.95-16.15-16.42-6.62.53-6.75,9.13-4.9,12.31.13.26-.26.79-.26.79,0,0-1.99,2.12-2.25,7.94-.26,5.83,4.63,16.81,4.63,16.81,0,0,2.38,8.08,3.97,11.92,0,0,4.77,21.05,16.42,25.55,5.69,2.25,13.5,3.71,20.65,4.5l9.14,34.29,46.07-19.2Z"/>
            <path class="cls-5" d="m55.67,237.7c-.13,0-.26-.03-.38-.09-.22-.11-.38-.31-.45-.54l-8.99-33.73c-8.15-.94-15.34-2.53-20.29-4.49-11.7-4.52-16.55-24.5-16.92-26.08-1.54-3.74-3.73-11.12-3.96-11.88-.41-.93-4.95-11.33-4.68-17.15.26-5.65,2.11-8.05,2.43-8.43.02-.03.04-.06.06-.09-1.2-2.28-1.52-6.54.11-9.66,1.15-2.2,3.09-3.47,5.6-3.68,5.1-.4,9.55,6.38,13.11,11.79,1.43,2.17,2.79,4.23,3.59,4.77,2.02,1.47,12.98,4.62,19.15,6.29-2.51-3.6-7.52-11.46-8.03-17.43-.25-2.86.31-5.05,1.67-6.53,1.14-1.24,2.78-1.9,4.74-1.9,1.03,0,2.09.19,3.06.54,2.3.83,6.38,5.37,9.97,9.37,1.88,2.09,3.65,4.06,4.57,4.8,1.07.86,4.1,1.98,7.3,3.16,4.41,1.63,9.42,3.47,13.02,5.8,6.66,4.08,9.75,13.3,9.88,13.69.01.03.02.06.02.09l.93,4.5,11.39,56.66c.08.4-.13.8-.51.95l-46.07,19.2c-.1.04-.22.07-.33.07ZM8.62,123.57c-.1,0-.19,0-.29.01-1.92.15-3.35,1.09-4.23,2.77-1.34,2.57-1.08,6.42,0,8.27.36.71-.1,1.45-.32,1.73-.02.02-.04.05-.06.07-.01.01-1.78,2.04-2.02,7.4-.25,5.56,4.51,16.32,4.56,16.43.01.03.03.07.04.11.02.08,2.39,8.08,3.94,11.83.02.04.03.09.04.14.05.21,4.8,20.66,15.89,24.95,4.95,1.95,12.2,3.53,20.44,4.45.35.04.64.29.73.62l8.89,33.35,44.53-18.55-1.71-8.45-10.45-51.98c-.23-.68-3.24-9.11-9.15-12.74-3.46-2.23-8.58-4.12-12.7-5.64-3.62-1.34-6.49-2.39-7.77-3.42-1.02-.82-2.76-2.75-4.77-4.99-3.12-3.47-7.39-8.23-9.29-8.91-.78-.28-1.67-.44-2.49-.44-1.03,0-2.47.23-3.49,1.35-1.02,1.11-1.43,2.87-1.23,5.23.63,7.35,9.01,18.38,9.1,18.49.22.29.23.68.03.99-.2.3-.57.44-.92.35-1.94-.51-19.04-5-22-7.15-1.06-.72-2.37-2.71-4.03-5.23-3.07-4.66-7.28-11.04-11.27-11.04Z"/>
          </g>
          <g>
            <path class="cls-5" d="m9.99,174.23v-.13c.53-6.49,3.05-9.93,7.15-9.8,3.84.13,7.28,5.43,8.61,10.72,1.32,5.03,1.19,6.09,1.19,6.22s-.13.26-.26.13c-.13,0-.26-.13-.13-.26,0,0,.13-1.06-1.19-5.83-1.32-4.9-4.63-10.19-8.21-10.33-3.84-.13-6.09,3.18-6.62,9.27,0,.13-.13.26-.26.26-.27-.13-.27-.26-.27-.26Z"/>
            <path class="cls-2" d="m26.79,181.86c-.1,0-.19-.03-.28-.08-.18-.05-.33-.18-.4-.34-.06-.15-.05-.31.02-.46,0-.32-.1-1.68-1.18-5.58-1.29-4.76-4.46-9.89-7.81-10.02h-.2c-4.3,0-5.62,4.83-5.98,8.88,0,.39-.49.8-.88.61-.46-.23-.5-.55-.5-.64v-.13c.54-6.61,3.15-10.22,7.35-10.22h.24c4.13.15,7.66,5.67,9,11.05.82,3.1,1.24,5.34,1.21,6.31,0,.35-.26.62-.58.62Z"/>
          </g>
          <g>
            <path class="cls-5" d="m26.01,178.2h0c-.13-.13,0-.26.13-.4,1.19-.79,10.19.4,11.25.53.13,0,.26.13.26.26s-.13.26-.26.26c-3.84-.53-10.19-1.06-10.99-.66-.13.13-.26.13-.4,0Z"/>
            <path class="cls-2" d="m37.4,179.29s-.04,0-.06,0c-2.84-.39-7.16-.8-9.47-.8-.84,0-1.14.06-1.23.08-.16.13-.31.16-.42.16-.13,0-.31-.04-.5-.22-.2-.2-.33-.53.13-.99.02-.02.04-.04.07-.05.24-.16.72-.34,2.31-.34,1.33,0,3.98.14,9.04.78l.2.02h0c.31,0,.63.32.63.69s-.32.69-.69.69Z"/>
          </g>
          <g>
            <path class="cls-5" d="m5.62,160.46h0c-.13-.4-.79-8.34,2.12-11.78.79-.93,1.85-1.46,3.05-1.59,6.49-.53,9.8,5.43,10.19,8.21.4,2.78,4.24,9.53,4.9,10.59,1.99.26,7.68.79,8.21,1.32.13.13.13.26,0,.4-.13.13-.26.13-.4,0-.4-.26-4.5-.79-8.08-1.19q-.13,0-.26-.13c-.13-.26-4.5-7.81-5.03-10.86-.4-2.65-3.44-8.21-9.66-7.81-1.06.13-1.99.53-2.65,1.32-2.78,3.31-1.99,11.12-1.99,11.25s-.13.26-.26.26q0,.13-.13,0Z"/>
            <path class="cls-2" d="m33.89,168.14c-.11,0-.28-.03-.44-.17-.42-.17-2.99-.58-7.88-1.12-.24,0-.34-.07-.52-.25-.03-.03-.06-.07-.08-.11-.02-.03-.07-.13-.16-.3-2.89-5.16-4.59-8.85-4.9-10.68-.36-2.43-3.19-7.85-9.22-7.46-1.02.13-1.8.51-2.35,1.17-2.33,2.78-2.04,9.01-1.9,10.86,0,.07,0,.11,0,.12,0,.24-.14.47-.34.59-.12.19-.33.2-.36.2-.19,0-.3-.11-.42-.22-.05-.05-.08-.1-.1-.16-.14-.41-.85-8.59,2.2-12.19.85-.99,2-1.59,3.32-1.74.3-.02.58-.04.85-.04,6.07,0,9.38,5.6,9.81,8.61.35,2.48,3.7,8.56,4.73,10.26.4.05.92.11,1.5.18,4.31.5,6.31.8,6.76,1.24.3.3.3.7,0,1-.18.19-.37.22-.5.22Z"/>
          </g>
          <g>
            <path class="cls-5" d="m4.17,135.57s0-.13,0,0c-.13-.13,0-.26.13-.4,1.59-.93,4.1-1.06,6.62-.26,3.05,1.06,5.43,3.31,6.49,6.09,2.12,5.3,3.97,7.68,4.37,8.21l9.27,1.72c.13,0,.26.13.26.26s-.13.26-.26.26l-9.4-1.72s-.13,0-.13-.13c-.13-.13-2.12-2.38-4.5-8.34-1.06-2.78-3.31-4.9-6.22-5.83-2.25-.79-4.63-.66-6.09.13-.27.13-.4,0-.53,0Z"/>
            <path class="cls-2" d="m31.04,151.89s-.05,0-.08,0l-9.4-1.72c-.16-.01-.37-.12-.45-.35-.42-.49-2.28-2.83-4.5-8.38-1.02-2.67-3.19-4.7-5.96-5.58-2.02-.71-4.38-.65-5.76.1-.3.15-.59.1-.73.06-.14,0-.26-.07-.33-.17-.18-.2-.27-.52.16-.96.03-.03.06-.05.09-.07,1.69-.99,4.41-1.11,6.96-.3,3.18,1.11,5.64,3.42,6.76,6.34.92,2.29,2.39,5.52,4.21,7.97l9.1,1.69c.29,0,.61.31.61.68s-.32.69-.69.69Z"/>
          </g>
          <g>
            <path class="cls-5" d="m46.67,180.19h0c-.13-.13,0-.4.13-.4,6.49-2.91,14.17-.93,19.33,1.19,5.69,2.25,9.8,5.3,9.93,5.3.13.13.13.26,0,.4-.13.13-.26.13-.4,0-.13-.13-16.55-11.78-28.73-6.49,0,.13-.13.13-.26,0Z"/>
            <path class="cls-2" d="m75.86,187.2c-.13,0-.31-.04-.5-.22-.07-.05-10.85-7.74-21.36-7.74-2.46,0-4.73.43-6.74,1.28-.18.25-.6.27-.89-.02-.18-.18-.23-.46-.12-.71.08-.2.25-.35.43-.39,2.21-.98,4.71-1.48,7.43-1.48,4.66,0,9.19,1.46,12.18,2.69,4.62,1.83,8.15,4.14,9.49,5.01.22.14.36.24.43.28.06.02.11.05.15.1.18.18.22.37.22.5s-.04.31-.22.5c-.18.18-.37.22-.5.22Z"/>
          </g>
        </g>
        <path class="cls-5" d="m239.16,8.35S244.33-.26,247.5,0c3.18.26-2.78,8.34-2.78,8.34,0,0,7.81-7.02,28.07,3.18,20.26,10.19,14.96,69.77,19.86,78.11,5.03,8.34,11.25,6.09,15.62,16.28s-16.15,15.36-13.11,22.64c3.05,7.28,26.74-6.35,30.85,12.71,3.97,19.2-8.74,31.24-8.74,31.24l-146.82-9.53s-15.62-14.7-8.34-30.58c7.15-15.89,18.67-4.1,25.95-11.12,7.28-7.02-10.86-5.69-11.39-16.81s2.91-14.83,7.15-21.84c4.37-7.02-5.69-44.35,9.66-61.56,15.22-17.21,40.11-12.71,40.11-12.71,0,0-4.77-6.09-1.59-6.35,3.18-.4,7.15,6.35,7.15,6.35Z"/>
        <g>
          <path class="cls-8" d="m424.77,210.24c-22.24,2.38-47.04-7.02-67.03-14.57l-2.97,29.28c-.66,2.38-1.76,1.31-2.55-1.08-2.52-7.41-6.35-18.01-9.27-24.36-12.05-26.35-15.62-40.38-38.79-52.43-23.17-12.05-64.34,0-64.34,0h-14.17v.13h0s-41.31-12.05-64.47,0c-23.17,12.05-26.88,25.95-38.92,52.29-2.91,6.35-6.75,17.08-9.27,24.36-.79,2.38-3.84,2.25-4.37-.26l-5.96-25.82h0c-19.86,7.55-39.58,14.83-61.83,12.44-.66,51.37,22.11,116.11,54.94,116.11,37.73,0,60.24-22.77,66.86-36.8,0,8.21.13,18.53.66,21.31,0,.13.66.53.53.66,21.84,3.18,44.75,4.63,65.93,4.77h0c25.15.13,45.67-.4,69.24-3.71,0-.13,5.03-1.32,5.03-1.46.53-3.18,3.05-16.42,4.63-24.89,2.52,13.37,19.73,40.11,61.03,40.11,32.83,0,55.87-64.74,55.07-116.11Z"/>
          <path class="cls-5" d="m369.7,327.2c-36.48,0-55.83-21.37-60.9-37.06l-.59,3.13c-1.36,7.25-2.91,15.45-3.33,17.93,0,.65-.17.69-3.14,1.47-.84.22-1.97.52-2.29.63-.1.06-.21.1-.33.12-22.06,3.1-41.07,3.73-62.84,3.73-2.14,0-4.32,0-6.53-.02-22.71-.14-45.55-1.79-66.05-4.78-.31-.04-.57-.26-.68-.56-.01-.01-.03-.02-.04-.04-.22-.19-.48-.42-.53-.79-.49-2.66-.63-11.38-.66-18.04-7.82,13.34-29.36,34.26-66.02,34.26-8.03,0-15.78-3.72-23.01-11.05-9.67-9.79-18.29-26.21-24.27-46.24-5.73-19.18-8.75-40.38-8.5-59.68,0-.24.11-.47.29-.62.18-.16.41-.24.65-.21,2.82.3,5.71.45,8.57.45,19.05,0,37.01-6.83,52.86-12.85.23-.09.48-.07.7.04.22.12.37.32.43.56l5.96,25.82c.2.97.84,1.31,1.37,1.31.62,0,1.13-.42,1.37-1.13,2.66-7.69,6.43-18.17,9.3-24.45,1.47-3.2,2.81-6.22,4.08-9.08,9.11-20.51,14.62-32.9,35.23-43.62,6.96-3.62,16.18-5.45,27.4-5.45,17.31,0,34.21,4.43,37.23,5.26.07-.02.15-.03.24-.03h14.05c1.62-.46,19.31-5.35,37.48-5.35,11.21,0,20.41,1.83,27.37,5.45,20.45,10.63,25.88,22.91,34.88,43.25,1.35,3.04,2.74,6.19,4.29,9.58,2.86,6.23,6.68,16.71,9.3,24.44.29.88.57,1.38.75,1.64.05-.11.1-.25.16-.45l2.96-29.21c.03-.26.17-.5.4-.64.22-.14.5-.16.75-.07l.25.1c17.46,6.59,39.19,14.8,59.2,14.8,2.46,0,4.88-.13,7.18-.37.24-.02.47.05.65.21.18.16.28.38.29.62.63,40.71-13.45,86.2-32.76,105.8-7.3,7.41-15.09,11.17-23.17,11.17Zm-61.03-41.81c.41,0,.76.29.83.69,2.87,15.24,21.74,39.42,60.2,39.42,7.61,0,14.99-3.59,21.96-10.66,18.87-19.17,32.68-63.59,32.28-103.66-2.08.19-4.24.29-6.44.29-20.02,0-41.57-8.02-59.02-14.61l-2.86,28.18s-.01.1-.03.14c-.36,1.3-.95,1.96-1.75,1.96-.96,0-1.75-.98-2.42-2.99-2.61-7.68-6.4-18.1-9.23-24.27-1.55-3.4-2.95-6.55-4.3-9.59-8.85-20-14.19-32.07-34.11-42.43-6.71-3.49-15.66-5.26-26.59-5.26-18.73,0-36.94,5.27-37.13,5.32-.08.02-.16.03-.24.03h-13.71c-.21.13-.46.17-.69.1-.18-.05-18.47-5.32-37.22-5.32-10.95,0-19.91,1.77-26.62,5.26-20.08,10.44-25.19,21.94-34.46,42.8-1.27,2.86-2.62,5.89-4.08,9.1-2.85,6.21-6.59,16.63-9.24,24.28-.46,1.38-1.63,2.28-2.97,2.28-1.48,0-2.7-1.06-3.03-2.65l-5.74-24.85c-15.76,5.99-33.56,12.61-52.55,12.61-2.61,0-5.24-.12-7.83-.37-.3,40.27,13.51,84.75,32.3,103.77,6.91,7,14.24,10.55,21.81,10.55,38.73,0,60.16-23.76,66.09-36.32.17-.36.57-.55.95-.47.39.09.66.43.66.83,0,10.94.22,18.52.61,20.94,0,0,0,0,0,0,.09.08.18.16.27.25,20.32,2.93,42.92,4.56,65.39,4.7,2.21.01,4.38.02,6.52.02,21.65,0,40.57-.63,62.48-3.7.44-.17,1.21-.38,2.55-.73.66-.17,1.49-.39,1.97-.53.5-2.86,1.9-10.32,3.26-17.54l1.29-6.88c.08-.4.43-.69.83-.69Z"/>
        </g>
        <path class="cls-5" d="m162.64,310.59c-.53,6.88-24.62,48.19-24.62,48.19h190.51s-21.31-38.13-24.23-48.45c-47.66,6.75-95.19,7.41-141.66.26Z"/>
        <g>
          <path class="cls-6" d="m204.61,74.14s-10.19-10.33-18.67-7.28c-8.47,3.04-9.66,21.45-.53,25.02,9.14,3.57,20.12-3.57,20.12-3.57l-.93-14.17Z"/>
          <path class="cls-5" d="m191.01,93.73h0c-2.13,0-4.11-.36-5.91-1.06-5.19-2.03-6.96-8.05-6.89-13,.08-5.47,2.41-11.8,7.44-13.61,1.13-.41,2.35-.61,3.61-.61,7.86,0,15.62,7.76,15.94,8.1.14.15.23.34.24.54l.93,14.17c.02.31-.13.6-.38.77-.3.19-7.33,4.71-14.99,4.71Zm-1.74-26.58c-1.07,0-2.09.17-3.04.51-3.64,1.31-6.24,6.26-6.32,12.04-.06,4.38,1.43,9.68,5.81,11.39,1.6.63,3.38.94,5.29.94,6.14,0,12.05-3.24,13.64-4.18l-.87-13.33c-1.3-1.24-8.05-7.37-14.51-7.37Z"/>
        </g>
        <path class="cls-5" d="m256.37,98.77c-1.06,2.78-2.12,5.43-3.31,7.68-11.78,21.98-32.97,18.93-39.19,16.42v-1.99h0l.13-11.52,19.2.79,5.69.26,2.12-1.59,7.68-5.96,7.68-4.1Z"/>
        <g>
          <path class="cls-6" d="m283.38,63.82c-4.24-1.06-7.94.53-10.72,2.52v-.13q0,.13-.13.26c-1.06.79-1.99,1.59-2.65,2.25-1.99-7.94-.93-28.07-9.53-37.73-5.03-5.69-24.23-7.15-37.73-5.56-9.66,1.19-18.67,10.86-21.45,20.26-3.18,10.86-4.9,22.77-5.03,22.51,2.25,19.99,3.84,45.81,31.51,50.44,6.35,1.06,12.05.26,17.08-1.59-11.65,10.33-26.08,7.94-31.11,5.96v-1.99c-.26,7.28-.93,17.74-2.25,18.53-2.12,1.19-9.53,3.44-9.53,3.44,0,0,3.71,20.52,34.69,18.67,30.98-1.85,30.32-21.45,30.32-21.45,0,0-9.53-1.59-10.99-3.71-1.19-1.59-.4-17.74,0-25.82.53-.4,1.06-.93,1.59-1.46,6.22-5.56,9.66-12.71,11.92-20.52,4.1,1.46,10.99,3.05,16.68.13,9-4.63,6.22-22.77-2.65-25.02Z"/>
          <path class="cls-5" d="m232.65,162.62c-27.81,0-31.62-19.29-31.65-19.48-.08-.42.18-.84.59-.96.07-.02,7.2-2.19,9.3-3.33.65-.84,1.47-6.65,1.88-17.86.02-.46.39-.82.85-.82h.02c.46,0,.83.39.83.85v1.4c1.47.51,4.87,1.48,9.59,1.48,4.42,0,10.55-.9,16.5-4.74-4.26.95-8.63,1.05-13.04.31-27.09-4.54-29.77-28.93-31.92-48.53l-.29-2.66c-.02-.17.01-.33.09-.48.07-.29.23-1.16.41-2.14.74-4.02,2.27-12.38,4.57-20.23,2.74-9.25,11.77-19.58,22.16-20.86,3.38-.4,7.16-.61,10.93-.61,10.56,0,23.34,1.69,27.54,6.45,6.34,7.12,7.59,19.77,8.49,29.01.29,2.96.55,5.59.92,7.65.45-.39.95-.79,1.46-1.18.11-.3.39-.51.71-.55,3.63-2.46,7.38-3.27,11.01-2.36,5.16,1.31,8.09,7.26,8.69,12.57.57,5.03-.67,11.35-5.86,14.03-2.24,1.15-4.84,1.73-7.72,1.73h0c-3.31,0-6.48-.77-8.79-1.53-2.65,8.79-6.45,15.18-11.91,20.07-.41.41-.86.86-1.33,1.25-.3,6.19-1.12,23.23-.14,24.9.87,1.27,6.63,2.73,10.44,3.37.4.07.69.4.71.81,0,.2.33,20.44-31.12,22.32-1.33.08-2.65.12-3.92.12Zm-29.81-19.06c.94,3.43,6.21,17.36,29.81,17.36,1.24,0,2.52-.04,3.82-.12,26.54-1.59,29.23-16.51,29.49-19.89-2.61-.47-9.4-1.88-10.81-3.93-1-1.33-1.04-8.23-.15-26.34.01-.25.14-.49.34-.64.48-.36.97-.85,1.5-1.38,5.43-4.85,9.13-11.24,11.7-20.15.06-.23.22-.41.43-.52.21-.11.45-.12.67-.04,2.21.78,5.57,1.72,9.07,1.72,2.61,0,4.95-.52,6.94-1.54,4.42-2.28,5.46-7.86,4.95-12.32-.54-4.73-3.04-10.01-7.42-11.12-3.26-.82-6.64-.02-9.97,2.35-.02.02-.05.05-.07.08-.03.03-.06.05-.09.08-1,.75-1.9,1.52-2.56,2.17-.22.22-.53.3-.83.22-.3-.08-.52-.32-.6-.61-.58-2.32-.9-5.56-1.27-9.32-.89-9-2.1-21.34-8.08-28.05-3.16-3.57-13.47-5.88-26.27-5.88-3.7,0-7.42.21-10.73.6-9.69,1.19-18.15,10.93-20.73,19.65-2.27,7.76-3.79,16.06-4.53,20.05-.21,1.13-.34,1.84-.46,2.29l.28,2.49c2.09,19.03,4.69,42.71,30.51,47.04,5.68.95,11.28.43,16.64-1.55.38-.14.81,0,1.02.36.21.35.14.8-.17,1.07-7.38,6.54-15.62,7.91-21.24,7.91-4.54,0-7.96-.86-9.71-1.43-.7,15.02-1.97,15.78-2.53,16.12-1.8,1.01-6.99,2.68-8.96,3.29Z"/>
        </g>
        <path class="cls-1" d="m274.78,96.78c-1.06,0-1.72-.4-2.12-.93-1.59-1.72-.79-5.16-.79-5.56.13-.53.66-.93,1.32-.79.53.13.93.66.79,1.32-.26,1.06-.4,2.91.26,3.57.13.13.26.26.93.13.4-.13.79-.26.93-.66.93-1.46.26-4.5,0-5.56-.13-.53.13-1.19.79-1.32.53-.13,1.19.13,1.32.79.13.53,1.32,4.77-.13,7.28-.53.93-1.32,1.46-2.38,1.59-.53.13-.79.13-.93.13Z"/>
        <path class="cls-1" d="m193.22,99.43c1.06,0,1.72-.4,2.12-.93,1.59-1.72.79-5.16.79-5.56-.13-.53-.66-.93-1.32-.79-.53.13-.93.66-.79,1.32.26,1.06.4,2.91-.26,3.57-.13.13-.26.26-.93.13-.4-.13-.79-.26-.93-.66-.93-1.46-.26-4.5,0-5.56.13-.53-.13-1.19-.79-1.32-.53-.13-1.19.13-1.32.79-.13.53-1.32,4.77.13,7.28.53.93,1.32,1.46,2.38,1.59.4.13.66.13.93.13Z"/>
        <path class="cls-5" d="m230.56,85.98c-.16,0-.33-.05-.47-.14-.52-.35-3.13-2.18-3.29-4.08-.07-.85.34-2.17,1.07-4.44.7-2.17,1.57-4.88,1.85-7.25.06-.47.48-.8.94-.74.47.05.8.48.74.94-.3,2.53-1.2,5.32-1.92,7.57-.51,1.59-1.04,3.23-.99,3.78.07.8,1.55,2.15,2.54,2.81.39.26.5.79.24,1.18-.16.25-.43.38-.71.38Z"/>
        <path class="cls-5" d="m255.84,61.7c-.66.4-1.46.4-2.25.13-.79-.26-1.46-.66-2.12-1.06-1.46-.93-3.18-1.46-4.77-1.85-.79-.13-1.85-.4-2.25-1.06-.53-.79,0-1.99.79-2.52.79-.53,1.85-.53,2.78-.4,2.25.4,4.24,1.32,6.09,2.65.66.53,1.19,1.06,1.59,1.72.53.79.53,1.72.13,2.38Z"/>
        <path class="cls-5" d="m210.7,61.83c.66.4,1.59.4,2.25.13.79-.26,1.32-.79,1.99-1.19,1.46-.93,3.05-1.59,4.77-1.99.79-.26,1.85-.4,2.25-1.19.53-.79,0-1.99-.93-2.52-.79-.53-1.85-.4-2.91-.26-2.25.4-4.24,1.46-5.96,2.91-.66.53-1.19,1.06-1.59,1.85-.26.66-.26,1.59.13,2.25Z"/>
        <path class="cls-5" d="m248.03,67c1.1,0,1.99,1.54,1.99,3.44s-.89,3.44-1.99,3.44-1.99-1.54-1.99-3.44.89-3.44,1.99-3.44Z"/>
        <path class="cls-5" d="m214.8,67c1.1,0,1.99,1.54,1.99,3.44s-.89,3.44-1.99,3.44-1.99-1.54-1.99-3.44.89-3.44,1.99-3.44Z"/>
        <path class="cls-5" d="m196.53,70.17s35.08-38.39,40.25-43.95c0,0-10.72,19.06-5.3,18.4,5.43-.66,8.61-16.68,8.61-16.68,0,0-1.72,11.25,2.91,10.19,4.63-1.06,1.19-11.92,1.19-11.92l24.76,42.89s1.19-22.9,1.32-23.57-4.5-16.28-4.5-16.28l-18.67-6.22-27.4-1.59-18.01,3.44-5.16,45.28Z"/>
        <path class="cls-5" d="m271.6,80.42c-.11,0-.22-.02-.33-.07-.43-.18-.63-.68-.45-1.11,3.33-7.92,12.74-8.95,13.14-8.99.47-.04.88.29.93.76.05.47-.29.88-.76.93-.09,0-8.81.98-11.75,7.96-.14.32-.45.52-.78.52Z"/>
        <path class="cls-5" d="m278.75,77.51c-.18,0-.35-.05-.5-.17l-3.04-2.25c-.38-.28-.46-.81-.18-1.19.28-.38.81-.46,1.19-.18l3.04,2.25c.38.28.46.81.18,1.19-.17.22-.42.34-.68.34Z"/>
        <path class="cls-5" d="m197.33,80.42c-.33,0-.65-.19-.78-.52-2.94-6.98-11.66-7.95-11.75-7.96-.47-.05-.81-.46-.76-.93.05-.47.46-.8.93-.76.4.04,9.81,1.07,13.14,8.99.18.43-.02.93-.45,1.11-.11.04-.22.07-.33.07Z"/>
        <path class="cls-5" d="m192.03,77.51c-.12,0-.24-.03-.36-.08-.42-.2-.61-.7-.41-1.13l1.06-2.25c.2-.43.71-.61,1.13-.41.42.2.61.7.41,1.13l-1.06,2.25c-.14.31-.45.49-.77.49Z"/>
        <path class="cls-5" d="m162.51,290.39c-.42,0-.79-.32-.84-.75-.97-8.37-2.72-17.26-4.58-26.66-.93-4.73-1.9-9.62-2.82-14.72-2.79-15.43,7.68-40.59,8.13-41.65.18-.43.68-.63,1.11-.45.43.18.63.68.45,1.11-.11.26-10.73,25.76-8.02,40.69.92,5.09,1.89,9.97,2.82,14.69,1.86,9.44,3.63,18.36,4.6,26.8.05.47-.28.89-.75.94-.03,0-.07,0-.1,0Z"/>
        <path class="cls-5" d="m307.61,290.39s-.07,0-.1,0c-.47-.05-.8-.48-.75-.94.98-8.44,2.74-17.36,4.6-26.8.93-4.72,1.9-9.6,2.82-14.69,2.7-14.94-7.92-40.44-8.02-40.69-.18-.43.02-.93.45-1.11.43-.18.93.02,1.11.45.45,1.06,10.92,26.23,8.13,41.65-.92,5.1-1.89,9.99-2.82,14.71-1.86,9.41-3.61,18.3-4.58,26.67-.05.43-.42.75-.84.75Z"/>
        <path class="cls-5" d="m340.77,276.3h-.02c-.47-.01-.84-.4-.82-.87.21-7.23,5.97-26.09,10.18-39.85,1.23-4.04,2.3-7.53,3.01-10.01.13-.45.6-.71,1.05-.58.45.13.71.6.58,1.05-.71,2.49-1.78,5.99-3.02,10.04-3.95,12.9-9.91,32.4-10.11,39.41-.01.46-.39.82-.85.82Z"/>
        <path class="cls-5" d="m132.72,273.18c-.46,0-.83-.36-.85-.82-.14-4.94-5.99-14.78-11.64-24.3-4.66-7.84-9.06-15.25-10.44-20.11-.13-.45.13-.92.58-1.05.45-.13.92.13,1.05.58,1.32,4.65,5.67,11.96,10.27,19.71,5.76,9.7,11.72,19.74,11.88,25.11.01.47-.36.86-.82.87h-.02Z"/>
        <g>
          <path class="cls-6" d="m261.31,22.31c1.4-.97,1.97-2.72,2.76-4.23.79-1.51,2.24-3.01,3.91-2.72.49.08.93.31,1.36.56,2.71,1.56,4.95,3.9,6.41,6.66.95,1.8,1.54,4.04.57,5.83-1.31,2.41-4.63,2.73-7.35,2.38-1.65-.21-3.38-.53-4.92.08-2.25.9-3.82,3.69-6.22,3.38-1.15-.15-2.09-1.05-2.61-2.09s-.67-2.22-.83-3.37c-.16-1.21-.3-2.54.35-3.58,1.3-2.08,4.56-1.52,6.57-2.92Z"/>
          <path class="cls-5" d="m258.2,34.71c-.14,0-.28,0-.43-.03-1.19-.16-2.29-1.02-2.93-2.33-.55-1.11-.72-2.38-.87-3.5-.18-1.39-.29-2.74.41-3.86.84-1.35,2.38-1.7,3.87-2.04,1-.23,2.04-.46,2.82-1,1-.69,1.54-1.84,2.12-3.04.17-.35.33-.7.51-1.03.37-.7,1.73-2.98,3.87-2.98.16,0,.32.01.49.04.55.09,1.04.35,1.5.61,2.76,1.59,5.09,4.01,6.57,6.83.72,1.38,1.76,4.03.57,6.23-1.22,2.25-3.9,2.72-5.94,2.72-.59,0-1.21-.04-1.83-.12l-.52-.07c-.75-.1-1.52-.2-2.26-.2s-1.38.11-1.93.33c-.82.33-1.58.96-2.31,1.57-1.11.92-2.26,1.87-3.7,1.87Zm9.37-18.96c-1.32,0-2.48,1.31-3.12,2.53-.17.33-.33.66-.49,1-.6,1.26-1.22,2.55-2.4,3.38-.91.64-2.03.89-3.11,1.13-1.38.31-2.68.61-3.34,1.66-.55.89-.45,2.07-.29,3.3.15,1.1.3,2.25.79,3.23.4.81,1.21,1.72,2.28,1.86,1.28.16,2.34-.71,3.47-1.65.78-.65,1.59-1.32,2.54-1.7.65-.26,1.38-.39,2.24-.39.79,0,1.59.11,2.37.21l.52.07c.59.07,1.17.11,1.73.11,1.81,0,4.17-.39,5.19-2.28,1.01-1.86.08-4.2-.57-5.43-1.41-2.68-3.62-4.98-6.24-6.49-.45-.26-.82-.44-1.22-.51-.12-.02-.23-.03-.35-.03Z"/>
        </g>
        <g>
          <path class="cls-6" d="m197.49,30.39c3.04,2.77,8.8-.86,11.73,2.01.82.81,1.22,1.99,2.09,2.74,1.55,1.32,3.97.79,5.67-.32,1.14-.74,2.17-1.75,2.62-3.04.45-1.29.21-2.87-.84-3.75-1.37-1.16-3.54-.77-5.02-1.79-1.12-.77-1.59-2.14-2.12-3.39-.61-1.45-1.36-2.83-2.24-4.12-.47-.69-1.04-1.4-1.83-1.67-.94-.32-1.96.05-2.86.47-2.28,1.09-4.35,2.63-6.05,4.51-1.05,1.16-1.98,2.49-2.32,4.02-.34,1.53,0,3.28,1.15,4.33Z"/>
          <path class="cls-5" d="m213.59,36.33c-.99,0-1.87-.3-2.54-.88-.51-.44-.87-1-1.21-1.53-.29-.45-.56-.88-.91-1.22-.75-.73-1.77-1.06-3.29-1.06-.72,0-1.5.07-2.25.14-.77.07-1.57.15-2.34.15h0c-1.07,0-2.63-.13-3.84-1.22-1.18-1.08-1.68-2.94-1.28-4.74.31-1.39,1.08-2.73,2.42-4.21,1.72-1.91,3.86-3.5,6.18-4.61.62-.3,1.44-.63,2.28-.63.31,0,.62.05.9.14.91.31,1.52,1.06,2.05,1.83.9,1.32,1.67,2.73,2.28,4.2l.16.38c.45,1.09.91,2.21,1.81,2.83.63.43,1.42.58,2.25.75.98.19,1.99.39,2.8,1.07,1.11.94,1.51,2.67.96,4.22-.43,1.22-1.4,2.35-2.79,3.25-1.14.74-2.47,1.16-3.63,1.16Zm-7.95-5.55c1.1,0,2.69.14,3.88,1.3.42.41.73.9,1.03,1.38.32.51.63.99,1.04,1.34.53.45,1.2.68,1.99.68,1.01,0,2.16-.37,3.17-1.03.86-.56,1.99-1.5,2.46-2.82.43-1.22.14-2.57-.71-3.29-.64-.54-1.5-.7-2.41-.88-.88-.17-1.8-.35-2.57-.88-1.11-.76-1.62-2-2.11-3.2l-.15-.37c-.59-1.42-1.33-2.78-2.2-4.05-.44-.65-.95-1.28-1.62-1.51-.78-.26-1.82.11-2.54.45-2.22,1.06-4.27,2.59-5.92,4.41-1.23,1.37-1.94,2.59-2.22,3.83-.34,1.51.06,3.05,1.02,3.92.76.69,1.77,1,3.26,1h0c.73,0,1.51-.07,2.26-.14.77-.07,1.57-.15,2.33-.15Z"/>
        </g>
        <path class="cls-5" d="m232.12,104.11c-.32,0-.64-.01-.96-.04-4.02-.31-9.83-3.3-10.25-8.11-.11-1.2.41-2.34,1.31-2.91.66-.41,1.39-.46,1.89-.46.25,0,.5.01.75.03.55.03,1.02.04,1.49.04,3.2,0,6.32-.59,9.29-1.74l.4-.16c.76-.3,1.55-.62,2.42-.74.24-.04.49-.05.74-.05,1.03,0,1.92.31,2.57.91.99.9,1.37,2.38,1.09,4.28-.76,5.28-5.18,8.96-10.75,8.96Zm-8.01-9.82c-.46,0-.77.06-.99.2-.36.22-.57.77-.52,1.32.34,3.83,5.35,6.31,8.69,6.57,5.05.39,9.22-2.8,9.9-7.47.13-.92.14-2.14-.56-2.78-.42-.38-1.18-.54-1.92-.43-.67.1-1.34.36-2.04.64l-.42.16c-3.63,1.41-7.51,2.04-11.42,1.82-.29-.02-.51-.03-.73-.03Z"/>
      </g>
      <g>
        <path class="cls-6" d="m306.03,75.59l19.33-5.62c2.83,2.64,6.18,4.76,9.99,6.17,16.29,6.01,34.7-3.22,41.12-20.62,6.42-17.4-1.58-36.38-17.87-42.39-16.29-6.01-34.7,3.22-41.12,20.62-2.65,7.18-2.84,14.62-1.01,21.32l-10.44,20.52Z"/>
        <path class="cls-4" d="m345.62,78.82c-3.61,0-7.17-.63-10.56-1.89-3.67-1.35-7-3.38-9.92-6.02l-18.87,5.49c-.32.1-.67-.01-.89-.27-.22-.26-.26-.62-.1-.93l10.29-20.23c-1.86-7.06-1.48-14.5,1.12-21.52,5.08-13.76,17.8-23.01,31.65-23.01,3.61,0,7.17.63,10.56,1.89,16.7,6.16,24.94,25.67,18.37,43.48-5.08,13.76-17.8,23.01-31.65,23.01Zm-20.26-9.7c.21,0,.42.08.58.23,2.83,2.65,6.1,4.66,9.7,5.99,3.21,1.18,6.56,1.78,9.98,1.78,13.14,0,25.22-8.8,30.06-21.9,6.25-16.93-1.54-35.46-17.37-41.3-3.21-1.18-6.56-1.78-9.98-1.78-13.14,0-25.22,8.8-30.05,21.9-2.51,6.79-2.85,13.99-.99,20.8.06.2.03.42-.06.61l-9.55,18.77,17.45-5.07c.08-.02.16-.03.24-.03Z"/>
      </g>
      <g>
        <g>
          <path class="cls-1" d="m149.24,67c0-27.68-22.56-50.08-50.32-49.75-26.83.32-48.7,22.22-49.07,49.04-.21,14.95,6.17,28.42,16.46,37.67,8.02,7.21,12.78,17.36,12.78,28.15v1.3h40.89v-.98c0-10.95,4.81-21.25,12.92-28.6,10.05-9.1,16.33-22.23,16.33-36.83Z"/>
          <path class="cls-5" d="m119.99,134.25h-40.89c-.47,0-.85-.38-.85-.85v-1.3c0-10.35-4.56-20.38-12.5-27.52-10.84-9.75-16.95-23.71-16.74-38.31.38-27.18,22.77-49.56,49.91-49.88h.61c27.88,0,50.56,22.7,50.56,50.6,0,14.25-6.05,27.9-16.61,37.46-8.03,7.28-12.64,17.47-12.64,27.97v.98c0,.47-.38.85-.85.85Zm-40.04-1.7h39.19v-.13c0-10.97,4.81-21.63,13.2-29.22,10.2-9.24,16.05-22.44,16.05-36.2,0-26.97-21.92-48.91-48.86-48.91h-.59c-26.23.31-47.87,21.94-48.23,48.21-.2,14.11,5.7,27.6,16.18,37.03,8.3,7.46,13.06,17.95,13.06,28.78v.45Z"/>
        </g>
        <g>
          <g>
            <path class="cls-3" d="m79.39,141.69h40.19v1.45c0,8.01-6.5,14.51-14.51,14.51h-11.16c-8.01,0-14.51-6.5-14.51-14.51v-1.45h0Z"/>
            <path class="cls-5" d="m107.26,158.5h-15.55c-7.26,0-13.17-5.91-13.17-13.17v-4.49h41.89v4.49c0,7.26-5.91,13.17-13.17,13.17Zm-27.02-15.96v2.8c0,6.32,5.15,11.47,11.47,11.47h15.55c6.32,0,11.47-5.15,11.47-11.47v-2.8h-38.49Z"/>
          </g>
          <g>
            <rect class="cls-3" x="72.22" y="120.99" width="54.69" height="12.38" rx="5.76" ry="5.76"/>
            <path class="cls-5" d="m121.15,134.21h-43.17c-3.65,0-6.61-2.97-6.61-6.61v-.85c0-3.65,2.97-6.61,6.61-6.61h43.17c3.65,0,6.61,2.97,6.61,6.61v.85c0,3.65-2.97,6.61-6.61,6.61Zm-43.17-12.38c-2.71,0-4.92,2.2-4.92,4.92v.85c0,2.71,2.2,4.92,4.92,4.92h43.17c2.71,0,4.92-2.2,4.92-4.92v-.85c0-2.71-2.2-4.92-4.92-4.92h-43.17Z"/>
          </g>
          <g>
            <rect class="cls-3" x="72.22" y="133.36" width="54.69" height="12.38" rx="5.76" ry="5.76"/>
            <path class="cls-5" d="m121.15,146.59h-43.17c-3.65,0-6.61-2.97-6.61-6.61v-.85c0-3.65,2.97-6.61,6.61-6.61h43.17c3.65,0,6.61,2.97,6.61,6.61v.85c0,3.65-2.97,6.61-6.61,6.61Zm-43.17-12.38c-2.71,0-4.92,2.2-4.92,4.92v.85c0,2.71,2.2,4.92,4.92,4.92h43.17c2.71,0,4.92-2.2,4.92-4.92v-.85c0-2.71-2.2-4.92-4.92-4.92h-43.17Z"/>
          </g>
        </g>
        <path class="cls-7" d="m94.45,121.03l-1.7-.08c1.01-20.39.19-35.27-1.63-45.68-7.65-.22-13.95-.96-16.24-2.08-4.16-2.03-4.73-7.63-3.5-11.97,1.46-5.15,5.07-8.2,9.2-7.79,5.58.56,9.66,7.66,12,20.16,3.85.07,8.01.02,12.14-.17,2.14-.1,4.18-.24,6.12-.4,1.4-9.16,3.41-16.42,6.27-18.09,4.25-2.48,9.41-1.84,13.14,1.62,3.42,3.18,4.42,7.71,2.55,11.54-1.67,3.42-10.31,5.48-20.47,6.49-2.13,15.29-2.92,36.11-3.03,46.43l-1.7-.02c.05-4.02.43-28.21,2.98-46.25-5.84.5-12.06.68-17.7.58,1.92,11.39,2.49,26.89,1.56,45.72Zm-14.62-65.95c-3.63,0-5.93,3.48-6.81,6.6-1.08,3.8-.53,8.45,2.61,9.98,2.03.99,7.91,1.66,15.18,1.88-2.46-12.59-6.48-18.04-10.39-18.43-.2-.02-.39-.03-.58-.03Zm42.69.03c-1.46,0-3,.37-4.55,1.27-2.34,1.36-4.09,7.89-5.38,16.46,10.55-1.04,17.49-3.04,18.69-5.51,1.54-3.14.68-6.89-2.18-9.55-1.55-1.44-3.92-2.67-6.58-2.67Z"/>
        <path class="cls-6" d="m90.74,126.62h-11.88c-1.17,0-2.12-.33-2.12-1.5s.95-1.5,2.12-1.5h11.88c1.17,0,2.12.33,2.12,1.5s-.95,1.5-2.12,1.5Z"/>
        <path class="cls-6" d="m90.74,142.62h-11.88c-1.17,0-2.12-.83-2.12-2s.95-2,2.12-2h11.88c1.17,0,2.12.83,2.12,2s-.95,2-2.12,2Z"/>
      </g>
      <circle class="cls-6" cx="78.54" cy="44.61" r="14.12"/>
      <circle class="cls-6" cx="67.28" cy="57.5" r="6.92"/>
      <g>
        <g>
          <g>
            <path class="cls-6" d="m244.94,301.84s-2.56-6.3.71-31.48h128.83s-10.26,9.45-1.42,31.48h-128.12Z"/>
            <path class="cls-5" d="m373.08,302.69s-.01,0-.02,0h-128.12c-.35,0-.66-.21-.79-.53-.11-.27-2.6-6.79.65-31.91.05-.42.42-.74.84-.74h128.83c.35,0,.66.21.79.54.13.33.04.7-.22.93-.1.09-9.66,9.34-1.26,30.4.09.13.14.29.14.46,0,.47-.38.85-.85.85Zm-127.51-1.7h126.25c-6.44-16.97-1.68-26.38.82-29.79h-126.24c-2.58,20.28-1.3,27.87-.82,29.79Z"/>
          </g>
          <path class="cls-5" d="m246.36,303.01l.59-32.24s-12.27,5.69-11.92,15.6c.35,9.91,11.33,16.63,11.33,16.63Z"/>
          <g>
            <path class="cls-9" d="m374.48,300.11h-127.41c-.62,0-1.21.16-1.74.42-1.53-1.75-6.08-7.53-5.75-14,.2-3.8,2.15-7.36,5.78-10.62.52.25,1.1.4,1.7.4h127.41c2.35,0,4.25-2.12,4.25-4.46s-1.9-4.46-4.25-4.46h-4.2c-39.63,0-79.49,1.21-119.09-.11-.76-.03-1.53-.06-2.29-.06-2.88-.02-5.84.3-8.38,1.66-5.67,3.03-9.13,11.17-9.42,17.3-.35,7.26,2.29,14.98,8.12,19.57,6.89,5.43,17.71,4.13,26,3.88,34.16-1.02,68.34-.58,102.48-.58h6.79c2.35,0,4.25-2.12,4.25-4.46s-1.9-4.46-4.25-4.46Z"/>
            <path class="cls-5" d="m255.61,310.78c-5.29,0-12-.5-16.92-4.38-5.6-4.41-8.83-12.18-8.44-20.28.3-6.34,3.87-14.8,9.87-18.01,2.24-1.2,4.97-1.76,8.58-1.76h.21c.61,0,1.22.02,1.84.05l.48.02c12.64.42,26.01.62,42.08.62,12.84,0,25.9-.13,38.53-.25,12.61-.13,25.66-.25,38.46-.25h4.2c2.76,0,5.1,2.43,5.1,5.31s-2.33,5.31-5.1,5.31h-127.41c-.52,0-1.03-.09-1.53-.26-3.21,3.01-4.93,6.26-5.11,9.67-.29,5.68,3.47,10.9,5.15,12.93.49-.16.98-.25,1.49-.25h127.41c2.76,0,5.1,2.43,5.1,5.31s-2.33,5.31-5.1,5.31h-6.79c-7.84,0-15.69-.02-23.54-.05-7.85-.02-15.7-.05-23.55-.05-15.21,0-35.25.08-55.36.67-1.04.03-2.12.08-3.22.13-2.08.09-4.23.19-6.41.19Zm-6.91-42.73c-3.32,0-5.79.49-7.78,1.56-5.25,2.81-8.69,10.64-8.97,16.6-.36,7.56,2.62,14.79,7.8,18.87,4.51,3.56,10.85,4.01,15.87,4.01,2.15,0,4.28-.09,6.34-.18,1.11-.05,2.2-.1,3.25-.13,20.13-.6,40.19-.67,55.41-.67,7.85,0,15.71.02,23.56.05,7.85.02,15.69.05,23.53.05h6.79c1.81,0,3.4-1.69,3.4-3.61s-1.59-3.61-3.4-3.61h-127.41c-.46,0-.92.11-1.36.33-.34.17-.76.09-1.01-.2-1.49-1.7-6.31-7.79-5.95-14.6.21-4.01,2.25-7.78,6.06-11.21.26-.23.62-.28.93-.13.43.21.88.31,1.34.31h127.41c1.81,0,3.4-1.69,3.4-3.61s-1.59-3.61-3.4-3.61h-4.2c-12.79,0-25.83.13-38.44.25-12.63.12-25.7.25-38.54.25-16.09,0-29.48-.2-42.13-.62l-.48-.02c-.6-.02-1.19-.04-1.79-.04h-.2Z"/>
          </g>
          <path class="cls-5" d="m292.86,281.98h-47.03c-.47,0-.85-.38-.85-.85s.38-.85.85-.85h47.03c.47,0,.85.38.85.85s-.38.85-.85.85Z"/>
          <path class="cls-5" d="m329.66,282.71h-26.68c-.47,0-.85-.38-.85-.85s.38-.85.85-.85h26.68c.47,0,.85.38.85.85s-.38.85-.85.85Z"/>
          <path class="cls-5" d="m369.25,282.1h-17.79c-.47,0-.85-.38-.85-.85s.38-.85.85-.85h17.79c.47,0,.85.38.85.85s-.38.85-.85.85Z"/>
          <path class="cls-5" d="m369.41,288.8h-63.64c-.47,0-.85-.38-.85-.85s.38-.85.85-.85h63.64c.47,0,.85.38.85.85s-.38.85-.85.85Z"/>
          <path class="cls-5" d="m276.54,288.19h-31.68c-.47,0-.85-.38-.85-.85s.38-.85.85-.85h31.68c.47,0,.85.38.85.85s-.38.85-.85.85Z"/>
          <path class="cls-5" d="m252.78,296.36h-8.65c-.47,0-.85-.38-.85-.85s.38-.85.85-.85h8.65c.47,0,.85.38.85.85s-.38.85-.85.85Z"/>
          <path class="cls-5" d="m371.44,297.33h-22.17c-.47,0-.85-.38-.85-.85s.38-.85.85-.85h22.17c.47,0,.85.38.85.85s-.38.85-.85.85Z"/>
        </g>
        <g>
          <g>
            <path class="cls-6" d="m386.99,347.17s3.17-7.37-.88-36.85h-159.58s12.71,11.06,1.75,36.85h158.7Z"/>
            <path class="cls-5" d="m386.99,348.02h-158.7c-.28,0-.55-.14-.71-.38s-.18-.54-.07-.8c10.6-24.94-1.41-35.78-1.53-35.88-.27-.23-.36-.61-.24-.94.12-.33.44-.55.79-.55h159.58c.42,0,.78.31.84.73,4.03,29.38.95,37,.82,37.3-.13.31-.44.51-.78.51Zm-157.43-1.7h156.81c.56-2.11,2.25-11.07-1-35.16h-156.9c3.03,3.78,9.31,14.84,1.09,35.16Z"/>
          </g>
          <path class="cls-5" d="m385.24,350.76l-.74-39.93s15.2,7.05,14.77,19.33-14.03,20.61-14.03,20.61Z"/>
          <g>
            <path class="cls-1" d="m226.54,347.17h157.83c.77,0,1.49.19,2.15.52,1.89-2.17,7.53-9.33,7.12-17.34-.24-4.7-2.67-9.12-7.16-13.15-.65.31-1.36.49-2.11.49h-157.83c-2.91,0-5.26-2.62-5.26-5.53s2.35-5.53,5.26-5.53h5.2c49.09,0,98.46,1.5,147.52-.14.95-.03,1.89-.07,2.84-.08,3.56-.02,7.24.37,10.38,2.05,7.03,3.76,11.3,13.84,11.67,21.43.43,8.99-2.84,18.55-10.06,24.24-8.53,6.73-21.94,5.12-32.21,4.81-42.32-1.26-84.66-.72-126.94-.72h-8.41c-2.91,0-5.26-2.62-5.26-5.53s2.35-5.53,5.26-5.53Z"/>
            <path class="cls-5" d="m373.78,360.18c-2.7,0-5.36-.12-7.93-.23-1.37-.06-2.71-.12-4-.16-24.92-.74-49.76-.84-68.61-.84-9.72,0-19.44.03-29.16.06-9.72.03-19.43.06-29.14.06h-8.41c-3.31,0-6.11-2.92-6.11-6.38s2.8-6.38,6.11-6.38h157.83c.65,0,1.29.11,1.91.34,2.05-2.46,6.88-9.06,6.51-16.27-.22-4.31-2.4-8.41-6.48-12.2-.63.23-1.28.35-1.94.35h-157.83c-3.31,0-6.11-2.92-6.11-6.38s2.8-6.38,6.11-6.38h5.2c15.86,0,32.01.16,47.64.31,15.65.15,31.83.31,47.73.31,19.91,0,36.47-.24,52.12-.77l.52-.02c.78-.03,1.56-.05,2.34-.06h.26c4.44,0,7.78.68,10.53,2.15,7.37,3.94,11.74,14.35,12.12,22.14.48,9.97-3.5,19.53-10.38,24.95-6.05,4.77-14.31,5.38-20.83,5.38Zm-80.54-2.92c18.86,0,43.72.1,68.66.84,1.3.04,2.64.1,4.02.16,2.55.11,5.2.23,7.86.23,6.25,0,14.14-.57,19.78-5.02,6.46-5.09,10.19-14.11,9.73-23.54-.35-7.33-4.4-17.08-11.22-20.73-2.49-1.33-5.58-1.95-9.73-1.95h-.25c-.76,0-1.53.03-2.29.06l-.52.02c-15.68.53-32.26.77-52.18.77-15.91,0-32.1-.16-47.75-.31-15.62-.16-31.77-.31-47.62-.31h-5.2c-2.35,0-4.41,2.19-4.41,4.68s2.06,4.68,4.41,4.68h157.83c.59,0,1.18-.14,1.74-.41.31-.15.68-.1.93.13,4.68,4.2,7.19,8.83,7.44,13.74.43,8.36-5.5,15.85-7.33,17.94-.25.29-.67.37-1.01.2-.58-.28-1.18-.43-1.78-.43h-157.83c-2.35,0-4.41,2.19-4.41,4.68s2.06,4.68,4.41,4.68h8.41c9.71,0,19.42-.03,29.14-.06,9.72-.03,19.44-.06,29.17-.06Z"/>
          </g>
          <path class="cls-5" d="m385.89,324.51h-58.25c-.47,0-.85-.38-.85-.85s.38-.85.85-.85h58.25c.47,0,.85.38.85.85s-.38.85-.85.85Z"/>
          <path class="cls-5" d="m315.11,325.42h-33.05c-.47,0-.85-.38-.85-.85s.38-.85.85-.85h33.05c.47,0,.85.38.85.85s-.38.85-.85.85Z"/>
          <path class="cls-5" d="m255.05,324.66h-22.03c-.47,0-.85-.38-.85-.85s.38-.85.85-.85h22.03c.47,0,.85.38.85.85s-.38.85-.85.85Z"/>
          <path class="cls-5" d="m311.64,332.96h-78.83c-.47,0-.85-.38-.85-.85s.38-.85.85-.85h78.83c.47,0,.85.38.85.85s-.38.85-.85.85Z"/>
          <path class="cls-5" d="m387.09,332.21h-39.24c-.47,0-.85-.38-.85-.85s.38-.85.85-.85h39.24c.47,0,.85.38.85.85s-.38.85-.85.85Z"/>
          <path class="cls-5" d="m388,342.32h-10.71c-.47,0-.85-.38-.85-.85s.38-.85.85-.85h10.71c.47,0,.85.38.85.85s-.38.85-.85.85Z"/>
          <path class="cls-5" d="m257.76,343.53h-27.47c-.47,0-.85-.38-.85-.85s.38-.85.85-.85h27.47c.47,0,.85.38.85.85s-.38.85-.85.85Z"/>
        </g>
        <g>
          <g>
            <path class="cls-8" d="m263.14,285.93v43.29l10.82-5.98,10.54,6.83v-44.14s-21.79.43-21.36,0Z"/>
            <path class="cls-5" d="m284.5,330.92c-.16,0-.32-.05-.46-.14l-10.11-6.56-10.38,5.73c-.26.14-.58.14-.84-.01-.26-.15-.42-.43-.42-.73v-43.17s0-.06,0-.09c0-.23.09-.46.25-.63.24-.24.61-.32.93-.18.02,0,.04.02.06.03.33.04,1.41.1,4.96.1,6.25,0,15.9-.19,15.99-.19.23.02.45.08.61.24.16.16.25.38.25.61v44.14c0,.31-.17.6-.44.75-.13.07-.27.1-.41.1Zm-10.54-8.53c.16,0,.32.05.46.14l9.23,5.98v-41.71c-2.52.05-10,.17-15.16.17-2.31,0-3.67-.02-4.5-.06v40.87l9.56-5.28c.13-.07.27-.11.41-.11Z"/>
          </g>
          <g>
            <path class="cls-8" d="m284.5,330.31s-.09-.01-.13-.04l-10.41-6.76-10.69,5.91c-.08.04-.17.04-.24,0-.07-.04-.12-.12-.12-.21v-43.22s0-.03,0-.05c0-.07.03-.14.08-.19.07-.07.17-.09.27-.05.03.01.05.03.08.05.24.04,1.23.12,5.18.12,6.25,0,15.91-.19,16.01-.19.07,0,.13.02.18.07.05.05.07.11.07.17v44.14c0,.09-.05.17-.13.21-.04.02-.08.03-.12.03Zm-10.54-7.32s.09.01.13.04l10.16,6.59v-43.44c-1.56.03-10.07.18-15.77.18-3.28,0-4.57-.05-5.1-.11v42.55l10.46-5.78s.08-.03.12-.03Z"/>
            <path class="cls-5" d="m284.5,331.16c-.21,0-.42-.06-.59-.17l-9.99-6.48-10.25,5.66c-.35.19-.76.18-1.09-.02-.33-.2-.54-.56-.54-.94v-43.17s0-.07,0-.1c0-.27.11-.58.33-.79.31-.31.8-.41,1.21-.23,0,0,.01,0,.02,0,.34.03,1.43.09,4.89.09,5.73,0,14.28-.16,15.94-.19.02,0,.08,0,.1,0,.28,0,.54.12.74.31.21.21.33.49.33.78v44.14c0,.4-.22.77-.57.96-.16.09-.34.13-.52.13Zm-10.54-9.02c.21,0,.42.06.59.17l8.85,5.74v-41.02c-3.04.05-10,.17-14.92.17-2.25,0-3.51-.02-4.25-.05v40.2l9.2-5.09c.17-.09.35-.14.53-.14Z"/>
          </g>
        </g>
      </g>
      <path class="cls-5" d="m347.03,46.07l-9.09,1.84-5.17-25.48,9.09-1.84,5.17,25.48Zm2.43,8.07c.29,1.44.03,2.76-.8,3.96-.83,1.2-1.98,1.95-3.46,2.25-1.41.29-2.73.04-3.98-.74-1.25-.78-2.01-1.87-2.3-3.28-.29-1.41-.02-2.72.81-3.94.82-1.22,1.96-1.97,3.4-2.27,1.48-.3,2.83-.06,4.06.72,1.23.78,1.99,1.88,2.27,3.29Z"/>
      <path class="cls-5" d="m360.21,57.62c-.15,1.05-.66,1.88-1.51,2.5-.85.61-1.82.84-2.9.69-1.03-.15-1.87-.64-2.52-1.47-.66-.83-.91-1.76-.76-2.79.15-1.02.65-1.85,1.5-2.48.86-.63,1.81-.86,2.86-.71,1.08.16,1.94.65,2.58,1.48.64.83.89,1.76.74,2.78Zm.31-6.07l-6.62-.96,2.69-18.57,6.62.96-2.69,18.57Z"/>
      <path class="cls-5" d="m110.66,338.83l7.47-2.37-7.48-2.55c-2.24-.59-3.95-2.39-4.43-4.65l-2.37-11.23-2.55,10.98c-.54,2.32-2.37,4.11-4.69,4.6l-7.04,2.42,6.79,2.4c2.38.55,4.2,2.47,4.64,4.87l1.96,10.86,2.86-10.87c.61-2.3,2.49-4.04,4.83-4.46Z"/>
      <path class="cls-5" d="m168,29.73l5.58-1.77-5.58-1.9c-1.67-.44-2.95-1.78-3.3-3.47l-1.77-8.37-1.9,8.19c-.4,1.73-1.77,3.07-3.5,3.43l-5.25,1.81,5.07,1.79c1.77.41,3.13,1.84,3.46,3.63l1.46,8.1,2.13-8.11c.45-1.71,1.86-3.01,3.6-3.33Z"/>
    </g>
  </g>
</svg>