<?xml version="1.0" encoding="UTF-8"?>
<svg id="_레이어_2" data-name="레이어 2" xmlns="http://www.w3.org/2000/svg" viewBox="0 0 497.61 394.93">
  <defs>
    <style>
      .cls-1 {
        fill: #f2cf63;
      }

      .cls-1, .cls-2, .cls-3, .cls-4, .cls-5, .cls-6, .cls-7, .cls-8 {
        stroke-width: 0px;
      }

      .cls-2 {
        fill: #ff926c;
      }

      .cls-3 {
        fill: #333;
      }

      .cls-4 {
        fill: #290a43;
      }

      .cls-5 {
        fill: #fff;
      }

      .cls-6 {
        fill: #f29c50;
      }

      .cls-7 {
        fill: #fc5e71;
      }

      .cls-8 {
        fill: #ccd7f2;
      }
    </style>
  </defs>
  <g id="_迹_1" data-name="卵迹_1">
    <g>
      <path class="cls-8" d="m177.43,88.59c-8.5-7.39-16.77-15.52-25.63-21.97-29.47-21.49-71.15-23.92-100.44-2.13-21.05,15.65-34.02,41.62-39.94,68.44-13.49,61.03-8.41,156.63,41.99,198.31,10.26,8.49,22.25,14.19,34.32,19.2,39.1,16.21,80.44,32.36,122.19,38.11,26.86,3.7,55.72.63,78.05-15.88,30.03-22.21,37.85-60,48.23-95.1,11.41-38.55,34.17-72.24,52.37-107.36,12.02-23.19,22.72-48.64,21.27-75.16-1.46-26.52-18.88-53.7-43.4-56.25-11.62-1.21-23.1,3.06-33.88,7.89-20.75,9.3-40.6,20.96-59.09,34.72-17.47,13-35.84,28.6-57.04,27.29-14.87-.92-27.15-9.8-39-20.1Z"/>
      <g>
        <g>
          <circle class="cls-7" cx="267.1" cy="96.71" r="82.07" transform="translate(9.85 217.19) rotate(-45)"/>
          <path class="cls-3" d="m267.08,179.65h0c-17.36,0-34.69-5.65-48.8-15.92-14.59-10.61-25.12-25.36-30.43-42.66-6.51-21.17-4.38-43.61,5.98-63.18,10.37-19.57,27.74-33.94,48.91-40.45,7.95-2.44,16.16-3.68,24.4-3.68,17.36,0,34.69,5.65,48.8,15.92,14.59,10.61,25.12,25.37,30.43,42.66,13.44,43.71-11.19,90.2-54.89,103.63-7.95,2.44-16.16,3.68-24.39,3.68Zm.05-164.19c-8.07,0-16.11,1.21-23.9,3.61-20.74,6.38-37.75,20.45-47.91,39.62-10.16,19.17-12.24,41.15-5.86,61.89,10.55,34.32,41.74,57.37,77.61,57.38h0c8.06,0,16.1-1.21,23.89-3.61,42.81-13.16,66.93-58.7,53.77-101.51-10.55-34.32-41.74-57.38-77.61-57.38Z"/>
        </g>
        <g>
          <circle class="cls-5" cx="267.1" cy="96.71" r="60.68" transform="translate(-9.67 160.68) rotate(-32.92)"/>
          <path class="cls-4" d="m267.09,158.25h0c-27.17,0-50.8-17.47-58.79-43.46-4.83-15.71-3.25-32.36,4.44-46.88,7.69-14.52,20.58-25.18,36.29-30.01,5.9-1.81,11.99-2.73,18.1-2.73,27.17,0,50.8,17.47,58.79,43.46,4.83,15.71,3.25,32.36-4.44,46.88-7.69,14.52-20.58,25.18-36.29,30.01-5.9,1.81-11.99,2.73-18.1,2.73Zm.04-121.39c-5.94,0-11.87.89-17.6,2.66-15.28,4.7-27.81,15.06-35.29,29.18-7.48,14.12-9.01,30.31-4.32,45.59,7.77,25.28,30.74,42.26,57.17,42.26h0c5.94,0,11.86-.89,17.6-2.66,15.28-4.7,27.81-15.06,35.29-29.18,7.48-14.12,9.01-30.31,4.32-45.59-7.77-25.28-30.75-42.26-57.17-42.26Z"/>
        </g>
        <g>
          <circle class="cls-7" cx="267.1" cy="96.71" r="43.43" transform="translate(57.88 288.86) rotate(-62.47)"/>
          <path class="cls-3" d="m267.09,141h0c-19.56,0-36.56-12.57-42.31-31.28-3.48-11.31-2.34-23.29,3.2-33.74,5.54-10.45,14.81-18.12,26.12-21.6,4.25-1.3,8.63-1.97,13.03-1.97,19.56,0,36.56,12.57,42.31,31.28,7.18,23.34-5.97,48.16-29.31,55.34-4.24,1.3-8.63,1.97-13.03,1.97Zm.03-86.89c-4.23,0-8.45.64-12.53,1.89-10.87,3.34-19.79,10.72-25.12,20.77-5.32,10.05-6.42,21.57-3.07,32.45,5.53,17.99,21.88,30.08,40.69,30.08h0c4.23,0,8.44-.64,12.53-1.89,22.44-6.9,35.09-30.77,28.19-53.22-5.53-17.99-21.88-30.08-40.69-30.08Z"/>
        </g>
        <g>
          <circle class="cls-5" cx="267.1" cy="96.71" r="27.07" transform="translate(70.7 301.95) rotate(-66.16)"/>
          <path class="cls-4" d="m267.1,124.63h0c-12.33,0-23.05-7.92-26.67-19.72-2.19-7.13-1.48-14.68,2.01-21.27,3.49-6.59,9.34-11.42,16.46-13.62,2.68-.82,5.44-1.24,8.21-1.24,12.33,0,23.05,7.92,26.67,19.72,4.52,14.71-3.77,30.36-18.48,34.89-2.68.82-5.44,1.24-8.21,1.24Zm.02-54.15c-2.6,0-5.2.39-7.71,1.17-6.69,2.06-12.19,6.6-15.46,12.79-3.28,6.19-3.95,13.28-1.89,19.98,3.4,11.08,13.47,18.52,25.05,18.52h0c2.6,0,5.2-.39,7.71-1.16,13.82-4.25,21.6-18.95,17.35-32.76-3.41-11.08-13.47-18.52-25.05-18.52Z"/>
        </g>
        <g>
          <circle class="cls-7" cx="267.1" cy="96.71" r="13.49"/>
          <path class="cls-3" d="m267.1,111.05h0c-6.33,0-11.84-4.07-13.7-10.13-2.32-7.56,1.94-15.6,9.49-17.92,1.37-.42,2.79-.64,4.22-.64,6.33,0,11.84,4.07,13.7,10.13,1.13,3.66.76,7.54-1.04,10.93-1.79,3.39-4.8,5.87-8.46,7-1.37.42-2.79.64-4.22.64Zm0-26.99c-1.26,0-2.51.19-3.72.56-6.66,2.05-10.42,9.14-8.37,15.8,1.64,5.34,6.5,8.93,12.08,8.93h0c1.25,0,2.51-.19,3.72-.56,3.23-.99,5.88-3.18,7.46-6.17,1.58-2.98,1.91-6.41.91-9.63-1.64-5.34-6.5-8.93-12.08-8.93Z"/>
        </g>
        <g>
          <g>
            <polygon class="cls-1" points="186.76 48.8 183.78 34.62 160.77 20.03 167.32 40.03 186.76 48.8"/>
            <path class="cls-3" d="m186.76,49.65c-.12,0-.24-.02-.35-.08l-19.44-8.77c-.22-.1-.38-.28-.46-.51l-6.55-20c-.11-.34,0-.71.29-.93.28-.22.67-.24.98-.05l23.01,14.59c.19.12.33.32.38.54l2.98,14.18c.07.31-.05.64-.3.84-.15.12-.34.19-.53.19Zm-18.75-10.24l17.58,7.93-2.56-12.2-20.71-13.13,5.69,17.4Z"/>
          </g>
          <g>
            <polygon class="cls-1" points="186.82 48.58 173.94 55.23 148.1 46.6 167.74 39.05 186.82 48.58"/>
            <path class="cls-3" d="m173.94,56.08c-.09,0-.18-.01-.27-.04l-25.84-8.63c-.34-.11-.57-.43-.58-.79,0-.36.21-.68.54-.81l19.64-7.55c.22-.08.47-.07.68.03l19.08,9.54c.29.14.47.43.47.75,0,.32-.18.61-.46.76l-12.88,6.65c-.12.06-.26.09-.39.09Zm-23.33-9.53l23.26,7.77,11.07-5.72-17.25-8.62-17.08,6.57Z"/>
          </g>
          <path class="cls-3" d="m261.72,94.94c-.45.1-.93.05-1.36-.2l-93.46-53.09c-.91-.52-1.23-1.67-.71-2.58.52-.91,1.67-1.22,2.58-.71l93.46,53.09c.91.52,1.23,1.67.71,2.58-.27.48-.72.79-1.22.91Z"/>
          <g>
            <polygon class="cls-1" points="269.29 98.24 256.81 75.74 255.79 89.44 244.28 96.69 269.29 98.24"/>
            <path class="cls-3" d="m269.29,99.09s-.03,0-.05,0l-25.01-1.56c-.37-.02-.68-.28-.77-.64-.09-.36.06-.73.37-.93l11.15-7.01.99-13.27c.03-.37.3-.69.66-.77.37-.08.74.09.92.42l12.48,22.5c.15.27.14.6-.02.87-.16.25-.43.4-.72.4Zm-22.33-3.09l20.84,1.3-10.35-18.66-.81,10.86c-.02.27-.17.51-.39.66l-9.28,5.84Z"/>
          </g>
        </g>
      </g>
      <path class="cls-5" d="m50.57,111.25l9.23-2.93-9.23-3.15c-2.76-.73-4.88-2.95-5.47-5.74l-2.93-13.86-3.15,13.56c-.66,2.86-2.92,5.08-5.8,5.68l-8.69,2.99,8.39,2.96c2.94.68,5.19,3.05,5.73,6.01l2.42,13.41,3.53-13.42c.75-2.84,3.07-4.99,5.96-5.51Z"/>
      <path class="cls-3" d="m359.56,41.11l4.76-1.51-4.76-1.62c-1.42-.37-2.51-1.52-2.82-2.96l-1.51-7.15-1.62,6.99c-.34,1.47-1.51,2.62-2.99,2.93l-4.48,1.54,4.32,1.53c1.51.35,2.67,1.57,2.95,3.1l1.25,6.91,1.82-6.92c.39-1.46,1.58-2.57,3.07-2.84Z"/>
      <path class="cls-3" d="m366.46,220.04l6.5-2.06-6.5-2.22c-1.94-.51-3.43-2.08-3.85-4.04l-2.06-9.76-2.22,9.55c-.47,2.01-2.06,3.58-4.08,4l-6.12,2.11,5.91,2.08c2.07.48,3.66,2.15,4.03,4.24l1.71,9.45,2.49-9.45c.53-2,2.16-3.51,4.2-3.88Z"/>
      <g>
        <path class="cls-3" d="m257.97,150.75c6.8-10.51,13.58,4.85,17.15,13.92,3.56,9.06,27.34,43.83,34.46,44.48,7.11.65,27.05,11.67,18.31,16.68-8.73,5.02-52.29-9.24-52.29-9.24l-19.9-32.19s-4.53-23.13,2.27-33.65Z"/>
        <g>
          <path class="cls-5" d="m60.12,393.28l-39.56-.97,7.38-79.1,29.08,21.11,10.47,28.51-7.37,30.44Z"/>
          <path class="cls-3" d="m60.12,394.12h-.02l-39.56-.97c-.23,0-.46-.11-.61-.29-.16-.18-.23-.41-.21-.64l7.38-79.1c.03-.3.22-.57.5-.69.28-.13.6-.09.85.09l29.08,21.11c.14.1.24.24.3.39l10.47,28.51c.06.16.07.33.03.49l-7.37,30.45c-.09.38-.43.65-.82.65Zm-38.63-2.64l37.97.93,7.15-29.53-10.29-28.03-27.67-20.09-7.16,76.71Z"/>
        </g>
        <g>
          <g>
            <path class="cls-5" d="m250.71,174.24c43.83-26.77,130.72-110.75,130.72-110.75,6.45-15.67,25.4-44.12,36.7-34.57,0,0,5.33-6.29,11.4-5.38,5.62.84,6.88,7.49,6.88,7.49,0,0,7.17-6.63,13.18-2.94,3.51,2.15,4.78,7.6,4.78,7.6l31.21-33.32c7.61-5.53,15.76,4.89,8.05,17.42-6.51,10.6-30.92,39.71-29.27,42.94,2.33,4.57,3.45,22.77-4.09,35.27-7.54,12.51-41.8,24.29-41.8,24.29,0,0-92.5,91.83-125.14,112.23-11.2-4.47-86.45-33.5-42.62-60.29Z"/>
            <path class="cls-3" d="m293.33,235.37c-.11,0-.21-.02-.32-.06l-.73-.29c-35.49-14.11-54.84-28.52-55.96-41.69-.61-7.13,4.08-13.79,13.94-19.82,42.48-25.95,126.64-106.85,130.44-110.51,5.37-12.94,20.26-36.84,32.34-36.84,1.81,0,3.48.54,4.98,1.62,1.44-1.48,5.48-5.17,10.27-5.17.45,0,.91.03,1.35.1,4.57.68,6.5,4.7,7.22,6.84,1.65-1.25,5.03-3.42,8.71-3.42,1.61,0,3.1.42,4.45,1.24,2.62,1.61,4.07,4.79,4.73,6.67L484.97,1.79s.08-.07.12-.11c1.51-1.1,3.16-1.68,4.76-1.68,2.59,0,4.9,1.47,6.33,4.03,2.43,4.35,1.75,10.41-1.82,16.21-2.46,4.01-7.4,10.55-12.62,17.48-6.78,9-17.04,22.6-16.6,24.68,2.45,4.81,3.46,23.47-4.14,36.05-7.4,12.28-39.05,23.54-42.07,24.59-4.08,4.04-93.38,92.36-125.15,112.21-.14.09-.29.13-.45.13ZM413.05,27.85c-10.32,0-24.78,21.26-30.83,35.96-.04.11-.11.21-.19.29-.87.84-87.46,84.35-130.87,110.86-9.27,5.66-13.68,11.79-13.14,18.23.74,8.71,10.87,22.76,54.9,40.26l.33.13c32.51-20.57,123.71-110.97,124.63-111.88.09-.09.2-.16.32-.2.34-.12,34.06-11.82,41.35-23.92,7.29-12.08,6.4-29.86,4.07-34.45-1.15-2.26,4.23-9.79,16.77-26.43,5.2-6.89,10.11-13.4,12.53-17.35,3.82-6.2,3.42-11.55,1.78-14.49-1.12-2.01-2.89-3.16-4.85-3.16-1.23,0-2.48.44-3.69,1.31l-31.16,33.26c-.21.23-.54.32-.84.24-.3-.08-.54-.32-.61-.63-.01-.05-1.24-5.13-4.4-7.07-1.07-.66-2.27-.99-3.56-.99-4.4,0-8.56,3.79-8.6,3.83-.23.21-.55.28-.84.18-.29-.1-.51-.34-.57-.65-.01-.06-1.22-6.07-6.17-6.81-.36-.05-.73-.08-1.1-.08-5.1,0-9.49,5.12-9.53,5.17-.3.36-.84.4-1.2.1-1.37-1.15-2.85-1.72-4.53-1.72Z"/>
          </g>
          <path class="cls-3" d="m451.81,82.08c-.15,0-.3-.04-.44-.13-.4-.25-.52-.77-.28-1.17.06-.09,5.83-9.49,12.45-20.01.25-.4.77-.52,1.17-.27.4.25.52.77.27,1.17-6.61,10.52-12.38,19.91-12.44,20-.16.26-.44.4-.72.4Z"/>
          <path class="cls-3" d="m448.63,43.76c-.18,0-.36-.06-.52-.18-.37-.29-.44-.82-.16-1.19l.37-.48c1.37-1.78,3.07-4,5.47-6.95.3-.36.83-.42,1.19-.12.36.3.42.83.12,1.19-2.38,2.93-4.08,5.14-5.44,6.92l-.37.48c-.17.22-.42.33-.67.33Z"/>
          <path class="cls-3" d="m423.15,37.09c-.05,0-.1,0-.15-.01-.46-.09-.77-.53-.68-.99.24-1.3,2.21-2.03,7.36-3.65,2.69-.85,5.74-1.81,6.92-2.67.38-.28.91-.2,1.19.18.28.38.19.91-.18,1.19-1.4,1.03-4.46,1.99-7.41,2.92-2.28.72-5.72,1.8-6.21,2.42-.1.37-.44.62-.82.62Z"/>
          <path class="cls-3" d="m408.81,41.62c-.09,0-.17-.01-.26-.04-.45-.14-.69-.62-.55-1.07.7-2.16,7.82-10.55,10.41-12.97.34-.32.88-.3,1.2.04.32.34.3.88-.04,1.2-2.73,2.56-9.45,10.68-9.95,12.25-.12.36-.45.59-.81.59Z"/>
          <g>
            <path class="cls-3" d="m436.3,64.85c-.31,0-.61-.17-.76-.46-.21-.42-.05-.93.37-1.14l7.81-4.02c.42-.22.93-.05,1.14.37.21.42.05.93-.37,1.14l-7.81,4.02c-.12.06-.26.09-.39.09Z"/>
            <path class="cls-3" d="m441.2,66.8c-.39,0-.74-.27-.83-.66l-1.81-8.09c-.1-.46.19-.91.64-1.01.46-.1.91.19,1.01.64l1.81,8.09c.1.46-.19.91-.64,1.01-.06.01-.12.02-.19.02Z"/>
          </g>
          <g>
            <path class="cls-3" d="m418.46,59.7c-.31,0-.61-.17-.76-.46-.21-.42-.05-.93.37-1.14l7.81-4.02c.42-.22.93-.05,1.14.37.21.42.05.93-.37,1.14l-7.81,4.01c-.12.06-.26.09-.39.09Z"/>
            <path class="cls-3" d="m423.36,61.65c-.39,0-.74-.27-.83-.66l-1.8-8.08c-.1-.46.19-.91.64-1.01.46-.1.91.19,1.01.64l1.8,8.08c.1.46-.19.91-.64,1.01-.06.01-.12.02-.18.02Z"/>
          </g>
          <g>
            <path class="cls-3" d="m401.34,55.56c-.31,0-.61-.17-.76-.46-.21-.42-.05-.93.37-1.14l7.81-4.02c.42-.22.93-.05,1.14.37.21.42.05.93-.37,1.14l-7.81,4.02c-.12.06-.26.09-.39.09Z"/>
            <path class="cls-3" d="m406.24,57.51c-.39,0-.74-.27-.83-.66l-1.8-8.08c-.1-.46.19-.91.64-1.01.46-.1.91.19,1.01.64l1.8,8.08c.1.46-.19.91-.64,1.01-.06.01-.12.02-.18.02Z"/>
          </g>
          <path class="cls-3" d="m486.72,16.72s-.05,0-.08,0c-.21-.02-5.13-.55-8.96-5.61-.28-.37-.21-.91.16-1.19.37-.28.91-.21,1.19.17,2.72,3.59,6.1,4.61,7.31,4.86l4.89-6.75c.27-.38.8-.47,1.18-.19.38.27.46.8.19,1.18l-5.2,7.18c-.16.22-.42.35-.69.35Z"/>
        </g>
        <path class="cls-3" d="m149.14,214.1c20.06-12.53,28.29-19.34,62.32-31.51,34.02-12.18,48.34-32.6,48.34-32.6,0,0,4.53,27.39,17.41,46.37,12.89,18.98,50.63,28.48,50.63,28.48,0,0-20.15,15.66-27.57,23.28-9.63,9.88-49.79,21.03-47.65,45.38,2.15,24.35,6.22,95.73,6.22,95.73-192.44,3.88-198.86,4.25-198.86,4.25l1.71-46.27-43.21.94-8.61-26.18s8.25-.44,18.89-37.47c12.63-43.94,30.79-67.82,88.93-72.76,0,0,11.4,14.89,31.46,2.35Z"/>
        <g>
          <g>
            <path class="cls-5" d="m107.35,159.46s-9.12-7.05-15.51-3.73c-6.37,3.31-5.45,17.78,2.2,19.61,7.64,1.83,15.55-4.91,15.55-4.91l-2.24-10.97Z"/>
            <path class="cls-3" d="m96.78,176.51h0c-1.01,0-2-.11-2.94-.34-3.68-.88-6.34-4.52-6.95-9.5-.53-4.36.67-9.66,4.56-11.69,1.26-.65,2.69-.99,4.26-.99,5.89,0,11.9,4.6,12.16,4.8.16.12.27.3.31.5l2.24,10.97c.06.3-.05.61-.28.82-.26.22-6.45,5.43-13.36,5.43Zm-1.07-20.82c-1.3,0-2.47.27-3.48.79-2.7,1.41-4.2,5.51-3.66,9.98.41,3.34,2.11,7.21,5.66,8.06.81.19,1.66.29,2.54.29,5.36,0,10.46-3.63,11.87-4.72l-2.07-10.14c-1.16-.84-6.19-4.26-10.87-4.26Z"/>
          </g>
          <path class="cls-3" d="m89.69,118.53c-3.02,6.45.27,18.65,4.91,29.27,4.62,10.53-.25-21.9-.25-21.9l6.06-10.58-10.72,3.21Z"/>
          <path class="cls-2" d="m90.59,127.82c2.06-3.33,8.06-12.07,15.19-10.74,8.74,1.64,8.23,6.1,23.28,1.79,13.87-3.99,14.48-15.07,21.31,2.36.78,3.62,1.7,8.02,2.57,12.74,2.24,12.09,1.1,17.58,1.08,17.99l8.94-5.01,1.35-18.85c1.32-18.94-12.98-31.22-32.11-31.75-.41-.03-.93-.03-1.35-.06-37.31.21-40,27.84-40,27.84-.33,1.08-.37,2.4-.25,3.7Z"/>
          <path class="cls-3" d="m83.09,122.9c7.62,2.75,7.03,5.71,6.82,6.25.08-.12.31-.56.7-1.24,2.06-3.33,8.06-12.07,15.19-10.74,8.74,1.64,8.23,6.1,23.28,1.79,13.86-3.99,14.48-15.07,21.31,2.36.78,3.61,1.7,8.02,2.57,12.74,2.24,12.09,1.1,17.58,1.07,17.99l4.1-2.29c1.73-2.35,5.53-6.82,10.14-8.07l.75-21.49c6.29-9.9,8.69-14.72,1.78-19.84-7.14-5.28-6.51-8.54-17.95-9.69-11.42-1.13-13.11-17.48-26.79-15.25-13.68,2.23-12.16,20.44-22.4,19.59-10.22-.75-18.7-7.1-24.27,1.75-5.58,8.76-4.57,23.1,3.71,26.14Z"/>
          <path class="cls-3" d="m158.12,149.66l4.83-2.72,5.13-2.88.06-2.45c-4.5,1.23-8.31,5.7-10.02,8.05Z"/>
          <g>
            <path class="cls-5" d="m113.27,213.66l5.9-4.85-1.85-17.23c-22.94-2.16-22.54-27.84-22.96-40.06-.46-10.28-3.3-17.78-3.75-23.59,2.06-3.33,8.06-12.07,15.19-10.74,8.74,1.64,8.23,6.1,23.28,1.79,13.86-3.99,14.48-15.07,21.31,2.36.78,3.61,1.7,8.02,2.57,12.74,2.24,12.09,1.1,17.58,1.07,17.99l4.1-2.29h0c1.73-2.35,5.53-6.82,10.14-8.07,1.08-.31,2.29-.42,3.42-.34,7.89.88,12.47,16.19,5.33,20.96-4.85,3.24-11.36,2.52-15.12,1.69l-.16,2.47,3.65,28.72,11.25,2.46s-11.65,33.37-53.65,31.28c-17.63-.88-9.72-15.27-9.72-15.27Z"/>
            <path class="cls-3" d="m126.72,229.87c-1.24,0-2.5-.03-3.77-.09-5.73-.29-9.52-2.01-11.25-5.12-2.71-4.85.69-11.15.83-11.41.05-.09.12-.18.2-.25l5.55-4.56-1.73-16.1c-21.91-2.55-22.61-26.21-22.98-38.98-.02-.64-.04-1.25-.06-1.83-.27-6.05-1.37-11.08-2.33-15.51-.66-3.03-1.23-5.64-1.42-8.04-.01-.18.03-.36.12-.51,2.61-4.21,7.95-11.28,14.45-11.28.54,0,1.09.05,1.62.15,2.76.52,4.63,1.31,6.29,2.01,2.02.85,3.77,1.59,6.61,1.59,2.54,0,5.72-.57,9.99-1.79,4.41-1.27,7.4-3.25,9.8-4.84,1.98-1.31,3.55-2.35,5.12-2.35,2.57,0,4.51,2.63,7.42,10.05.02.04.03.09.04.13,1,4.64,1.84,8.82,2.57,12.76,1.2,6.48,1.64,12.3,1.27,16.6l2.5-1.39c1.93-2.59,5.76-6.95,10.49-8.24,1.15-.33,2.47-.46,3.71-.36,4.77.53,8.04,5.46,9.18,10.12,1.02,4.2.66,9.66-3.44,12.4-2.52,1.68-5.71,2.53-9.46,2.53-1.71,0-3.51-.18-5.35-.53l-.09,1.41,3.56,28.04,10.66,2.33c.24.05.44.2.56.41.12.21.14.47.06.69-.11.32-11.61,31.95-50.72,31.95Zm-12.77-15.67c-.45.89-2.82,5.96-.76,9.64,1.43,2.56,4.75,3.99,9.85,4.24,1.24.06,2.48.09,3.69.09,34.22,0,46.59-24.84,48.76-29.91l-10.27-2.24c-.35-.08-.61-.37-.66-.72l-3.65-28.72c0-.05,0-.11,0-.16l.16-2.47c.02-.25.14-.47.34-.62.2-.15.45-.2.69-.15,2.06.45,4.06.68,5.95.68,3.42,0,6.28-.76,8.52-2.25,3.37-2.25,3.62-6.95,2.74-10.59-1.18-4.83-4.34-8.46-7.69-8.83-.2-.01-.42-.02-.65-.02-.84,0-1.68.12-2.45.33-4.5,1.22-8.27,5.83-9.69,7.76-.07.1-.16.18-.27.24l-4.1,2.29c-.27.15-.61.14-.87-.02-.26-.17-.41-.46-.39-.77,0-.04.01-.13.03-.26.61-4.22.22-10.44-1.09-17.52-.72-3.91-1.55-8.05-2.55-12.65-2.48-6.33-4.17-8.91-5.81-8.91-1.06,0-2.43.91-4.18,2.07-2.37,1.57-5.61,3.71-10.27,5.05-4.43,1.27-7.75,1.86-10.46,1.86-3.19,0-5.17-.84-7.27-1.72-1.66-.7-3.37-1.42-5.94-1.9-.43-.08-.87-.12-1.31-.12-5.56,0-10.39,6.31-12.85,10.24.2,2.22.74,4.69,1.36,7.54.98,4.5,2.09,9.6,2.37,15.8.02.59.04,1.21.06,1.85.36,12.38,1.03,35.42,22.13,37.41.4.04.72.35.76.75l1.85,17.24c.03.28-.08.57-.3.75l-5.77,4.74Z"/>
          </g>
          <path class="cls-3" d="m106.35,147.97c-.37-2.01-1.56-3.47-2.65-3.28-1.1.2-1.7,1.99-1.33,4,.37,2.01,1.55,3.48,2.65,3.28,1.11-.2,1.7-1.98,1.33-4Z"/>
          <path class="cls-3" d="m133.99,143.87c-.37-2-1.55-3.47-2.65-3.28-1.1.21-1.69,1.99-1.32,4.01.36,2,1.55,3.47,2.64,3.28,1.1-.2,1.71-1.99,1.33-4.01Z"/>
          <path class="cls-3" d="m123.23,132.95c.22.67,1.01,1.04,1.77,1.2,3.65.85,7.5,1.05,11.3.44.69-.13,1.29-.24,1.95-.56,1.02-.59,1.38-1.98.98-3.03-.37-.85-1.2-1.5-2.07-1.75-.89-.35-1.82-.37-2.75-.4-3.52-.17-7.42-.05-10.09,2.17-.74.44-1.32,1.15-1.08,1.92Z"/>
          <path class="cls-3" d="m98.3,138.89c2.24-.11,4.85-1.51,6.46-1.71,1.42-.16,4.37.21,4.28-1.9-.35-1.36-1.65-2.24-2.93-2.51-1.07-.22-2.08-.13-3.2-.02-2.32.23-6.2.43-7.52,2.71-.31.56-.48,1.3-.17,1.85.75,1.29,1.85,1.7,3.07,1.57Z"/>
          <path class="cls-3" d="m117.34,162.02c-.12,0-.24-.03-.36-.08-.17-.08-4.09-1.95-4.91-5.11-.48-1.83.49-4.37,1.51-7.06.67-1.76,1.36-3.57,1.54-5.01.06-.47.48-.78.95-.74.46.06.79.48.74.95-.21,1.63-.94,3.55-1.64,5.4-.88,2.32-1.8,4.72-1.46,6.03.52,1.99,3.05,3.57,3.99,4,.42.2.61.7.41,1.13-.14.31-.45.49-.77.49Z"/>
          <path class="cls-3" d="m116.28,190.43c5.34,1.05,24.08-6.09,24.08-6.09,0,0-8.84,16.17-22.01,17.28l-2.07-11.2Z"/>
          <path class="cls-3" d="m164.35,157.58c-.33,0-.64-.19-.78-.51-.9-2.05-1.46-6.64,2.81-9.33,1.59-1,3.18-1.33,4.75-.98,2.68.61,4.22,3.04,4.29,3.14.25.4.13.92-.27,1.17-.4.25-.92.13-1.17-.27-.27-.43-2.77-4.11-6.69-1.63-4.1,2.58-2.24,7.03-2.16,7.22.18.43-.01.93-.44,1.11-.11.05-.23.07-.34.07Z"/>
          <path class="cls-3" d="m168.35,154.1c-.15,0-.31-.04-.45-.13l-3.85-2.44c-.4-.25-.51-.77-.26-1.17.25-.4.77-.52,1.17-.26l3.85,2.44c.4.25.51.77.26,1.17-.16.26-.44.39-.72.39Z"/>
          <path class="cls-5" d="m137.78,100.99c.53-.4.95-1,1.47-1.5,1.07-.91,2.83-.83,3.89-1.84.98-.79,1.2-2.36.48-3.44-.73-1.18-2.34-1.5-3.7-1.65-1.47-.14-2.89-.08-4.17-.86-1.5-.94-2.13-2.65-3.12-4.09-1.83-2.71-5.23-4.32-8.57-4.1-1.93.16-3.83,1.02-4.99,2.55-1.15,1.54-1.13,3.87.15,5.26,1.41,1.47,3.75,1.34,5.87,1.15,2.13-.2,4.35-.4,5.95.93.98.84,1.4,2.08,1.74,3.33.35,1.26.68,2.52,1.58,3.47.9.95,2.43,1.48,3.43.79Z"/>
          <path class="cls-3" d="m88.67,128.41s-.09,0-.13-.01c-5.76-.92-13.84-4.42-17.65-11.27-2.8-5.03-2.82-10.91-.08-17.46,7.66-18.25,18.07-14.82,26.43-12.07,6.84,2.26,10.3.21,16.59-3.52,1.1-.65,2.27-1.34,3.54-2.07.4-.23.92-.09,1.15.32.23.41.09.92-.32,1.15-1.27.72-2.43,1.4-3.51,2.05-6.27,3.72-10.41,6.17-17.94,3.68-8.53-2.81-17.32-5.7-24.38,11.11-2.54,6.06-2.54,11.44,0,15.99,3.52,6.32,11.05,9.56,16.44,10.42.46.07.77.51.7.97-.07.42-.43.71-.83.71Z"/>
          <g>
            <path class="cls-5" d="m130.5,170.36c-1.38,2.41-3.84,4.41-6.12,5.01-3.67.97-9.38.57-11.82-2.77-.94-1.28-2.52-4.35-.74-5.57.31-.21.72-.2,1.09-.19,4.14.18,8.12-.13,11.63-2.64.89-.61,1.74-1.31,2.77-1.66,1.02-.35,2.29-.25,2.99.58,1.85,2.2,1.54,4.91.21,7.23Z"/>
            <path class="cls-3" d="m120.65,176.68c-3.91,0-7.11-1.3-8.77-3.57-.21-.29-2.03-2.85-1.67-4.99.13-.75.52-1.37,1.13-1.79.45-.31.95-.34,1.29-.34.11,0,.21,0,.31,0,.6.03,1.19.04,1.77.04,4.01,0,6.88-.78,9.33-2.52.2-.14.39-.27.57-.4.74-.52,1.5-1.06,2.41-1.38.45-.15.94-.24,1.41-.24,1.04,0,1.93.38,2.51,1.07,1.89,2.24,2,5.23.29,8.2-1.47,2.57-4.14,4.75-6.64,5.41-1.21.32-2.58.49-3.95.49Zm-8.02-8.99c-.25,0-.32.04-.34.05-.23.16-.36.37-.41.67-.19,1.09.71,2.81,1.36,3.7,1.9,2.6,5.81,2.88,7.4,2.88,1.23,0,2.45-.15,3.52-.43,2.09-.55,4.34-2.4,5.6-4.61.78-1.36,1.8-3.99-.12-6.27-.34-.4-.91-.47-1.21-.47-.29,0-.58.05-.86.14-.69.24-1.32.68-1.98,1.15-.19.14-.39.27-.58.41-2.73,1.95-5.91,2.83-10.3,2.83-.61,0-1.23-.02-1.85-.04-.08,0-.16,0-.24,0Z"/>
          </g>
        </g>
        <path class="cls-3" d="m61.56,348.11s-.07,0-.11,0c-.48-.06-.82-.49-.76-.97,4.36-35.75,2.91-56.96,2.9-57.17-.03-.48.33-.9.81-.94.49-.04.9.33.94.81.01.21,1.47,21.59-2.9,57.51-.05.44-.43.77-.87.77Z"/>
        <path class="cls-3" d="m63.76,307.8c-.19,0-.37-.06-.53-.18-2.64-2.04-7.17-11.23-7.68-12.27-.21-.43-.03-.96.4-1.17.43-.21.96-.03,1.17.4,1.33,2.73,5.21,10.13,7.18,11.65.38.3.45.85.16,1.23-.17.22-.43.34-.69.34Z"/>
        <path class="cls-3" d="m228.4,300.64c-.43,0-.8-.31-.87-.75-1.3-9.09,2.52-30.24,8.67-41.06.24-.42.77-.57,1.19-.33.42.24.57.77.33,1.19-5.84,10.26-9.72,31.21-8.46,39.95.07.48-.26.92-.74.99-.04,0-.08,0-.13,0Z"/>
        <path class="cls-3" d="m125.75,239.08c-5.58,0-10.86-.88-15.05-3.05-6.05-3.12-9.05-8.46-8.92-15.85,0-.48.4-.9.89-.86.48,0,.87.41.86.89-.11,6.67,2.57,11.48,7.97,14.27,13,6.71,38.14.12,46.28-5.86.39-.29.94-.2,1.22.19.29.39.2.94-.19,1.22-6.03,4.43-20.3,9.06-33.07,9.06Z"/>
        <g>
          <g>
            <path class="cls-5" d="m1.99,168.74c-.04-3.3,2.61-6,5.87-6.03,3.26-.03,5.94,2.66,5.97,5.96l.12,28.34,1.98-.05-.15-40.43c-.02-3.86,3.06-7.01,6.88-7.02,3.82,0,6.95,3.12,6.96,6.98l.14,40.35,1.75-.03-.23-48.56c-.02-3.86,3.07-7.01,6.88-7.02,3.82,0,6.95,3.12,6.97,6.98l.22,48.47h1.51l-.2-40.17c-.02-3.87,3.06-7.01,6.88-7.02,3.82,0,6.94,3.12,6.95,6.97l.21,41.71c0,5.32-1.44,17.05,1.42,17.79,4.89,1.16,6.8-5.7,11.84-15.03,5.04-9.33,10.92-7.14,13.17-4.01.93,1.27-6.64,30.6-11.83,43.73-4.75,11.95-3.76,13.67-10.24,23.16l.85,129.44-55.19.81-1.4-126.83C.32,254.8.76,237.77.9,222.04c-.12-.38,1.27-8.05,1.31-8.45l-.23-44.85Z"/>
            <path class="cls-3" d="m10.7,394.93c-.22,0-.43-.09-.59-.24-.16-.16-.25-.37-.26-.6l-1.4-126.56C-.26,255.26-.11,239.1.04,223.47v-1.38c-.02-.43.13-1.58,1.04-6.84.15-.86.26-1.51.29-1.71l-.23-44.79c-.02-1.82.67-3.54,1.95-4.84,1.27-1.3,2.96-2.02,4.76-2.04,3.76,0,6.79,3.05,6.83,6.8l.11,27.48h.29s-.14-39.6-.14-39.6c-.01-2.11.8-4.1,2.28-5.59,1.46-1.47,3.39-2.28,5.44-2.28,4.24,0,7.69,3.41,7.8,7.64l-.04-8.04c-.01-2.11.8-4.1,2.28-5.59,1.46-1.47,3.39-2.28,5.44-2.29,4.3,0,7.79,3.51,7.82,7.83l.03,6.49c.32-1.42,1.03-2.72,2.08-3.78,1.46-1.47,3.39-2.28,5.44-2.28,4.29,0,7.78,3.51,7.81,7.82l.21,41.71c0,1.26-.08,2.88-.16,4.59-.19,3.89-.58,11.98.94,12.38.28.07.56.1.83.1,2.66,0,4.44-3.6,7.15-9.05.85-1.7,1.8-3.64,2.9-5.66,3.19-5.91,6.61-7.15,8.91-7.15s4.33,1.14,5.7,3.05c.24.33.97,1.33-3.49,18.13-2.17,8.19-5.48,19.42-8.24,26.41-1.53,3.84-2.48,6.67-3.24,8.94-1.63,4.85-2.61,7.8-6.94,14.17l.85,129.18c0,.47-.37.85-.84.85l-55.19.81h-.01ZM1.74,221.93s0,.08,0,.12v1.44c-.16,15.45-.31,31.43,8.24,43.27.1.14.16.31.16.49l1.39,125.98,53.49-.78-.84-128.6c0-.17.05-.34.15-.48,4.32-6.33,5.23-9.04,6.88-13.97.77-2.29,1.72-5.15,3.27-9.03,5.24-13.27,12.07-40.42,11.85-43.03-.84-1.1-2.36-2.24-4.24-2.24-2.64,0-5.2,2.16-7.42,6.26-1.08,2-2.03,3.92-2.87,5.61-2.99,6.02-4.96,9.99-8.67,9.99-.4,0-.82-.05-1.24-.15-2.68-.69-2.62-6.04-2.23-14.11.08-1.69.16-3.28.16-4.5l-.21-41.71c-.02-3.38-2.75-6.13-6.09-6.13-1.62,0-3.12.64-4.26,1.78-1.16,1.17-1.8,2.73-1.79,4.39l.2,40.17c0,.23-.09.44-.25.6-.16.16-.38.25-.6.25h-1.51c-.47,0-.85-.38-.85-.84l-.22-48.47c-.02-3.39-2.75-6.14-6.1-6.14-1.61,0-3.12.64-4.26,1.78-1.16,1.17-1.8,2.73-1.79,4.39l.23,48.56c0,.47-.37.84-.83.85l-1.75.03c-.24-.02-.45-.08-.61-.24-.16-.16-.25-.38-.25-.6l-.14-40.35c0-3.38-2.74-6.14-6.09-6.14-1.61,0-3.12.64-4.26,1.78-1.16,1.17-1.8,2.73-1.79,4.39l.15,40.43c0,.46-.37.84-.83.85l-1.98.05c-.23,0-.45-.08-.61-.24-.16-.16-.26-.38-.26-.61l-.12-28.34c-.03-2.82-2.3-5.11-5.07-5.11-1.39.01-2.66.56-3.61,1.53-.96.98-1.48,2.27-1.46,3.64l.23,44.85s0,.06,0,.09c-.01.14-.09.57-.31,1.87-.3,1.73-.99,5.76-1.01,6.4Zm28.72-64.01l.13,38.06h.05s-.18-38.06-.18-38.06Z"/>
          </g>
          <g>
            <path class="cls-5" d="m53.68,222.53s-19.21,4.81-21.66,23.36"/>
            <path class="cls-3" d="m32.02,246.74s-.07,0-.11,0c-.46-.06-.79-.49-.73-.95,2.5-18.9,22.1-24.02,22.3-24.07.46-.11.91.16,1.03.62.11.46-.16.92-.62,1.03-.19.05-18.68,4.91-21.03,22.65-.06.43-.42.74-.84.74Z"/>
          </g>
          <g>
            <path class="cls-5" d="m53.28,204.05l-41.5.13"/>
            <path class="cls-3" d="m11.77,205.02c-.47,0-.85-.38-.85-.85,0-.47.38-.85.85-.85l41.5-.13h0c.47,0,.85.38.85.85,0,.47-.38.85-.85.85l-41.5.13h0Z"/>
          </g>
        </g>
      </g>
      <g>
        <g>
          <path class="cls-1" d="m344.6,264.14c-4.91-4.04-10.06-5.61-15.3-4.69-4.85.86-8.88,3.75-11.85,6.64l.88-12.61-99.65-.78.67,12.31c-2.89-2.83-6.77-5.61-11.43-6.5-5.23-1-10.4.49-15.37,4.45-5.86,4.67-8.35,11.43-7.02,19.04,1.86,10.63,10.74,20.35,22.1,24.19,9.65,3.26,14.68,7.07,17.21,9.68,5.05,11.83,14.97,21.04,27.22,25.11,6.67,2.22,11.08,8.59,11.02,15.63l-.06,8.06c-.06,7.39-6.1,13.34-13.49,13.28-4.53-.04-8.23,3.61-8.26,8.13l-.02,2.11,52.4.41.02-2.11c.04-4.53-3.61-8.23-8.13-8.26h0c-7.39-.06-13.34-6.1-13.28-13.49l.06-8.06c.05-7.03,4.56-13.34,11.26-15.45,12.12-3.82,22.06-12.64,27.36-24.12,2.37-2.57,7.49-6.63,17.91-9.97,11.42-3.66,20.45-13.24,22.48-23.84,1.45-7.59-.94-14.39-6.72-19.15Zm-135.33,37.16c-9.48-3.2-17.16-11.51-18.68-20.2-.7-4.01-.38-9.71,5.16-14.12,3.78-3.02,7.43-4.14,11.17-3.42,6.28,1.2,11.06,7.34,12.89,10.02l1.46,27.04c.12,2.23.42,4.42.85,6.55-3.19-1.98-7.37-4.02-12.84-5.87Zm136.99-18.98c-1.66,8.66-9.47,16.85-18.99,19.9-5.7,1.83-10.01,3.88-13.27,5.87.49-2.19.83-4.44.99-6.74l1.85-26.53c1.55-2.3,6.66-9.12,13.38-10.3,3.75-.66,7.37.52,11.11,3.6,5.46,4.49,5.7,10.2,4.94,14.2Z"/>
          <path class="cls-3" d="m293.65,389.45h0l-52.4-.41c-.23,0-.44-.09-.6-.25-.16-.16-.25-.38-.24-.6l.02-2.11c.04-4.95,4.1-8.98,9.04-8.98h.17c6.86,0,12.48-5.58,12.54-12.44l.06-8.06c.05-6.77-4.14-12.72-10.44-14.81-12.4-4.13-22.48-13.39-27.67-25.44-2.51-2.55-7.44-6.2-16.77-9.36-11.64-3.94-20.75-13.92-22.67-24.85-1.39-7.93,1.22-14.98,7.33-19.85,5.15-4.1,10.59-5.67,16.06-4.62,3.56.69,7.02,2.47,10.31,5.3l-.55-10.22c-.01-.23.07-.46.23-.63.16-.17.42-.29.62-.26l99.65.78c.23,0,.46.1.62.27.16.17.24.4.22.64l-.73,10.49c3.43-2.94,7.03-4.76,10.71-5.42,5.48-.96,10.91.69,15.99,4.87,6.04,4.97,8.53,12.05,7.02,19.96-2.08,10.89-11.35,20.74-23.05,24.49-9.92,3.18-14.96,6.98-17.46,9.64-5.44,11.68-15.57,20.59-27.82,24.45-6.33,2-10.62,7.88-10.67,14.65l-.06,8.06c-.05,6.91,5.53,12.58,12.44,12.64,2.42.02,4.68.98,6.38,2.7,1.69,1.72,2.62,4,2.6,6.42l-.02,2.11c0,.47-.38.84-.85.84Zm-51.55-2.1l50.71.4v-1.26c.02-1.96-.73-3.81-2.1-5.21-1.38-1.4-3.22-2.18-5.18-2.19-7.85-.06-14.19-6.5-14.12-14.35l.06-8.06c.06-7.5,4.82-14.04,11.86-16.25,11.84-3.73,21.62-12.36,26.85-23.67.04-.08.09-.16.15-.22,2.6-2.82,7.88-6.87,18.27-10.21,11.13-3.57,19.94-12.89,21.9-23.19,1.39-7.27-.89-13.78-6.43-18.33-4.7-3.86-9.63-5.38-14.62-4.51-3.91.69-7.75,2.85-11.41,6.41-.25.25-.63.31-.95.16-.32-.15-.51-.48-.49-.83l.82-11.71-97.85-.76.62,11.4c.02.35-.18.67-.5.82-.32.14-.69.08-.94-.17-3.51-3.44-7.21-5.55-11-6.28-4.97-.95-9.93.49-14.68,4.28-5.6,4.47-7.99,10.94-6.71,18.23,1.81,10.33,10.47,19.79,21.54,23.53,9.79,3.31,14.95,7.21,17.55,9.89.07.07.13.16.17.26,4.98,11.67,14.71,20.65,26.71,24.64,7,2.33,11.66,8.93,11.6,16.44l-.06,8.06c-.06,7.79-6.45,14.13-14.23,14.13h-.11c-4.08,0-7.37,3.27-7.41,7.29v1.26Zm71.9-78.41c-.17,0-.35-.05-.49-.16-.28-.2-.41-.54-.33-.88.49-2.19.82-4.42.97-6.61l1.85-26.53c.01-.15.06-.29.14-.42,1.89-2.8,7.03-9.45,13.93-10.66,4.01-.7,7.85.53,11.8,3.78,5.78,4.76,6.04,10.79,5.23,15.01-1.71,8.96-9.76,17.41-19.57,20.55-5.06,1.62-9.46,3.57-13.09,5.79-.14.08-.29.13-.44.13Zm3.67-33.83l-1.83,26.3c-.12,1.66-.33,3.33-.63,4.99,3.4-1.89,7.36-3.57,11.8-4.99,9.24-2.96,16.82-10.88,18.42-19.25.72-3.77.5-9.15-4.64-13.38-3.55-2.92-6.92-4.03-10.43-3.42-6.25,1.09-11.15,7.51-12.69,9.75Zm-95.56,32.91c-.15,0-.31-.04-.45-.13-3.53-2.19-7.79-4.14-12.67-5.79-9.76-3.3-17.67-11.87-19.24-20.85-.74-4.23-.39-10.26,5.46-14.93,4-3.19,7.87-4.36,11.85-3.59,6.61,1.27,11.59,7.68,13.43,10.38.09.13.14.28.14.43l1.46,27.04c.11,2.1.39,4.26.83,6.42.07.33-.07.67-.35.87-.14.1-.31.15-.48.15Zm-17.36-43.82c-2.79,0-5.56,1.13-8.48,3.45-5.21,4.15-5.51,9.53-4.85,13.31,1.47,8.4,8.92,16.43,18.11,19.54,4.28,1.45,8.11,3.12,11.4,4.99-.26-1.63-.44-3.24-.53-4.82l-1.45-26.8c-1.82-2.62-6.37-8.35-12.21-9.47-.67-.13-1.34-.19-2-.19Z"/>
        </g>
        <g>
          <path class="cls-6" d="m266.88,200.26h3.85c.45,0,.81.36.81.81v103.72c0,.45-.36.81-.81.81h-3.85c-.45,0-.81-.36-.81-.81v-103.72c0-.45.36-.81.81-.81Z" transform="translate(13.78 519.76) rotate(-89.55)"/>
          <path class="cls-3" d="m320.65,256.93h-.01l-103.72-.81c-.44,0-.86-.18-1.17-.5-.31-.32-.48-.74-.48-1.18l.03-3.85c0-.91.75-1.65,1.66-1.65l103.73.81c.92,0,1.66.76,1.65,1.67l-.03,3.85c0,.91-.75,1.65-1.66,1.65Zm-103.69-6.29v3.82s103.65.77,103.65.77l.03-3.82-103.68-.77Z"/>
        </g>
        <g>
          <path class="cls-6" d="m265.09,284.78l-11.17,9.67-6.58-7.7,18.16-15.09,10.93.09-.43,55.29-11.25-.09.33-42.17Z"/>
          <path class="cls-3" d="m276,327.88h0l-11.25-.09c-.47,0-.85-.39-.84-.86l.31-40.29-9.75,8.44c-.17.15-.4.22-.62.2-.23-.02-.44-.12-.58-.3l-6.58-7.7c-.15-.17-.22-.4-.2-.62.02-.23.13-.44.3-.58l18.16-15.09c.15-.13.37-.17.55-.2l10.93.09c.47,0,.85.39.84.86l-.43,55.29c0,.23-.09.44-.25.6-.16.16-.37.24-.6.24Zm-10.39-1.78l9.55.07.42-53.59-9.77-.08-17.26,14.34,5.46,6.4,10.52-9.11c.25-.22.61-.27.91-.13.3.14.5.44.49.78l-.32,41.32Z"/>
        </g>
      </g>
      <path class="cls-3" d="m105.16,62c-.42,0-.78-.31-.84-.74l-2.47-18.81c-.06-.47.27-.89.73-.95.46-.06.89.27.95.73l2.47,18.81c.06.46-.27.89-.73.95-.04,0-.08,0-.11,0Z"/>
      <path class="cls-3" d="m89.33,63.48c-.35,0-.68-.22-.8-.57l-4.95-14.35c-.15-.44.08-.93.53-1.08.44-.16.93.08,1.08.53l4.95,14.35c.15.44-.08.93-.53,1.08-.09.03-.19.05-.28.05Z"/>
      <path class="cls-3" d="m74.98,71.4c-.24,0-.48-.1-.65-.3l-7.92-9.4c-.3-.36-.26-.89.1-1.2.36-.3.89-.26,1.2.1l7.92,9.4c.3.36.26.89-.1,1.2-.16.13-.35.2-.55.2Z"/>
    </g>
  </g>
</svg>