<?xml version="1.0" encoding="UTF-8"?>
<svg id="_레이어_2" data-name="레이어 2" xmlns="http://www.w3.org/2000/svg" viewBox="0 0 359.3 391.13">
  <defs>
    <style>
      .cls-1 {
        fill: #e58f6e;
      }

      .cls-1, .cls-2, .cls-3, .cls-4, .cls-5, .cls-6, .cls-7, .cls-8, .cls-9, .cls-10 {
        stroke-width: 0px;
      }

      .cls-2 {
        fill: #f2cf63;
      }

      .cls-3 {
        fill: #363636;
      }

      .cls-4 {
        fill: #2b2b2b;
      }

      .cls-5 {
        fill: #333;
      }

      .cls-6 {
        fill: #fff;
      }

      .cls-7 {
        fill: #f29c50;
      }

      .cls-8 {
        fill: #ffecbb;
      }

      .cls-9 {
        fill: #fc5e71;
      }

      .cls-10 {
        fill: #ccd7f2;
      }
    </style>
  </defs>
  <g id="_迹_1" data-name="卵迹_1">
    <g>
      <path class="cls-8" d="m10.64,288.58c3.33,7.34,7.39,14.11,12.11,20.02,15.9,19.88,39.24,32.74,63.57,40.26,49.41,15.26,109.35,19.76,160.24,10.45,47.39-8.66,81.65-40.25,94.38-86.66,10.53-38.37,5.12-72.78-4.9-110.07-8.45-31.48,1.47-60.12-20.18-88.29-13.01-16.92-31.12-29.21-49.95-39.26C224.73,13.06,177.68,3.03,133.41,21.95c-37.23,15.92-68.5,49.77-73.11,91.07-.81,7.28-.85,14.72-3,21.73-6.34,20.7-27.35,30.5-39.88,46.7-21.91,28.32-21.99,73.62-6.79,107.14Z"/>
      <path class="cls-5" d="m293.13,232.82c13.56,4.82,6.63-25.01,6.63-27.72s-18.08,9.34-18.08,9.34l11.45,18.38Z"/>
      <path class="cls-5" d="m297.12,291.88l8.57-2.72-8.57-2.93c-2.56-.67-4.53-2.74-5.07-5.33l-2.72-12.87-2.92,12.59c-.62,2.65-2.71,4.71-5.38,5.27l-8.07,2.78,7.78,2.75c2.73.63,4.82,2.83,5.31,5.58l2.25,12.45,3.28-12.46c.69-2.63,2.85-4.63,5.53-5.11Z"/>
      <path class="cls-6" d="m244.5,69.33l13.02-4.14-13.03-4.45c-3.9-1.03-6.88-4.16-7.71-8.1l-4.13-19.56-4.44,19.14c-.94,4.04-4.12,7.16-8.18,8.02l-12.26,4.22,11.83,4.18c4.15.96,7.32,4.3,8.08,8.49l3.42,18.92,4.99-18.94c1.05-4.01,4.33-7.04,8.41-7.77Z"/>
      <path class="cls-5" d="m28.98,178.72l5.18-1.65-5.18-1.77c-1.55-.41-2.74-1.66-3.07-3.22l-1.65-7.78-1.77,7.62c-.37,1.61-1.64,2.85-3.25,3.19l-4.88,1.68,4.71,1.66c1.65.38,2.91,1.71,3.22,3.38l1.36,7.53,1.98-7.54c.42-1.59,1.72-2.8,3.35-3.09Z"/>
      <path class="cls-4" d="m193.4,127.42c-1.82-7.32-7.12-7.44-16.81-6.69-9.69.74-34.8,4.26-38.52,7.6-3.72,3.34-4.95,14.59-4.95,14.59l32.67,4.36s28.98-14.35,27.61-19.85Z"/>
      <path class="cls-5" d="m195.31,127.18c-6.45,1.97-2.77,3.26-13.03,6.14-10.26,2.88-46.26,4.65-49.33,6.15-3.07,1.5-.69,57.92-.69,57.92l-37.61,173.94s48.49,11.37,77.19,12.14c32.09.87,53.64-10.3,62.45-12.14,8.8-1.84-38.97-244.14-38.97-244.14Z"/>
      <g>
        <path class="cls-9" d="m141.83,130.28s-7.06,1.09-7.44,7.71c-.39,6.62,4.17,22.31,9.23,47.84,5.06,25.53,9.5,196.93.89,201.98-16.77,9.83-66.35-11.71-81.09-26.31l14.81-120.81s-7.53-10.36-51.79-14.6c0,0,28.25-71.57,51.32-79.1,23.86-7.79,50.55-11.18,50.55-11.18,0,0,1.75-7.92,13.48-10.67l.04,5.14Z"/>
        <path class="cls-5" d="m133.02,391.13c-21.05,0-57.39-16.36-70.2-29.04-.19-.18-.28-.45-.25-.71l14.77-120.43c-1.47-1.51-11.53-10.25-50.99-14.03-.27-.02-.5-.17-.64-.4-.14-.23-.16-.51-.07-.76,1.16-2.94,28.66-72.03,51.85-79.6,21.78-7.11,46.2-10.61,50.15-11.14.66-1.97,3.56-8.3,13.95-10.73.25-.06.52,0,.72.16.2.16.32.4.32.66l.04,5.14c0,.42-.3.78-.72.85-.26.04-6.39,1.08-6.73,6.92-.24,4.09,1.48,11.83,4.09,23.56,1.46,6.57,3.28,14.74,5.13,24.07,2.44,12.29,4.89,60.1,5.59,108.82.36,25.24.19,47.11-.48,63.26-1.2,28.79-3.6,30.19-4.62,30.79-2.94,1.73-6.95,2.6-11.92,2.6Zm-68.71-29.95c12.84,12.42,48.17,28.26,68.71,28.26,4.66,0,8.38-.8,11.06-2.37,2.55-1.5,5.2-26.64,4.26-92.56-.69-48.64-3.13-96.31-5.56-108.52-1.85-9.3-3.66-17.47-5.12-24.03-2.64-11.86-4.38-19.7-4.13-24.02.34-5.89,5.5-7.81,7.44-8.33l-.03-3.38c-10.1,2.77-11.75,9.47-11.81,9.77-.08.35-.37.61-.72.66-.27.03-26.88,3.47-50.39,11.15-20.93,6.83-46.77,68.71-50.38,77.56,43.14,4.29,50.95,14.4,51.27,14.83.13.17.18.39.16.6l-14.76,120.39Z"/>
      </g>
      <g>
        <g>
          <path class="cls-6" d="m316.47,7.97c-.43-3.31-5.39-9.54-10.57-6.14-5.18,3.41-1.47,18.01-2.41,21.15-.94,3.13-11.82,17.42-11.82,17.42,0,0-.11-13.09-4.03-19.1-3.92-6.01-8.29-3.11-10.06-.37s-1.78,15.34-2.46,18.44c-.68,3.09-7.43,11.69-9.78,18.29-2.34,6.6.59,15.13.59,15.13l1.74,3.87v.03s7.1,13.71,7.1,13.71l27.08,65.89-58.45-18.08,6.68,67.85s75,35.2,100.59,1.75c22.21-29.03-8.25-98.8-26.79-126.32,4.61-4.57,9.31-10,12.16-14.8,5.86-9.87-2.69-28.01-2.69-28.01-1.1-3.72-3.92-10.94-3.92-10.94,0,0-2.72-10.74-6.22-14.86-3.5-4.13-6.15-4.49-6.15-4.49,0,0-.55-.16-.59-.43Z"/>
          <path class="cls-4" d="m314.74,223.38h0c-30.01-1-64.66-16.24-65-16.4-.27-.13-.45-.46-.48-.76l-6.68-67.89c-.03-.28.09-.58.31-.76.22-.18.52-.25.79-.16l56.73,17.54-26.4-64.23-7.06-13.64-1.78-3.94c-.15-.43-3.03-8.96-.61-15.76,1.3-3.67,3.86-7.81,6.11-11.48,1.72-2.8,3.35-5.44,3.63-6.71.23-1.03.39-3.37.56-5.85.42-6.18.84-11.05,2.02-12.87,1.11-1.72,3.19-3.55,5.68-3.55,2.15,0,4.11,1.32,5.8,3.92,3.01,4.61,3.85,13.01,4.08,17.14,3.56-4.76,9.61-13.13,10.24-15.25.25-.84.07-3.07-.11-5.44-.46-5.73-1.08-13.58,2.87-16.18,1.14-.75,2.34-1.13,3.57-1.13,4.1,0,7.67,4.42,8.26,7.57.54.11,3.24.82,6.59,4.76,3.5,4.12,6.15,14.24,6.38,15.15.27.69,2.83,7.29,3.9,10.9.63,1.36,8.53,18.79,2.63,28.74-3.32,5.61-8.62,11.3-11.79,14.47,8.5,12.77,20.87,36.47,28.4,62.25,5.96,20.42,10.45,48.32-2.02,64.62-7.49,9.79-19.81,14.9-36.61,14.9Zm-63.85-17.89c4.09,1.85,36.03,14.89,63.84,15.89h0c16.25,0,28.11-4.73,35.26-14.08,21.38-27.95-7.41-96.52-26.82-125.33-.23-.34-.18-.79.11-1.08,5.23-5.17,9.5-10.37,12.02-14.62,5.56-9.38-2.65-27.03-2.73-27.21-.02-.04-.03-.08-.05-.12-1.08-3.65-3.87-10.8-3.89-10.87-.01-.03-.02-.07-.03-.1-.03-.11-2.71-10.6-6.04-14.52-3.2-3.77-5.61-4.2-5.63-4.2-.03,0-.08-.01-.11-.02-.33-.09-1.1-.39-1.19-1.13-.29-2.24-3.22-6.38-6.62-6.38-.89,0-1.78.29-2.63.85-3.11,2.05-2.51,9.61-2.11,14.62.22,2.74.39,4.91.05,6.06-.95,3.19-10.83,16.22-11.95,17.69-.22.29-.6.4-.94.29-.34-.12-.58-.44-.58-.8,0-.13-.15-12.91-3.89-18.64-1.36-2.09-2.84-3.15-4.38-3.15-1.82,0-3.43,1.49-4.26,2.77-1.03,1.59-1.45,7.64-1.75,12.06-.18,2.65-.34,4.94-.6,6.1-.34,1.55-1.89,4.06-3.85,7.24-2.21,3.59-4.72,7.66-5.96,11.15-2.22,6.24.56,14.48.59,14.56l1.72,3.8,7.08,13.69,27.11,65.96c.13.3.06.65-.16.9-.22.24-.56.34-.88.24l-57.23-17.7,6.51,66.09Z"/>
        </g>
        <g>
          <g>
            <path class="cls-4" d="m323.47,36.95c-2.73,2.24-2.16,8.11-.2,12.76.42.99.78,1.78,1.08,2.43-1.76.78-6.98,6.09-7.61,6.73-.09.1-.09.25,0,.34.1.09.25.09.34,0,2.37-2.43,6.36-6.23,7.47-6.64.94,1.9,1.34,2.25,1.39,2.29.11.08.26.06.34-.05.08-.11.06-.26-.05-.34-.02-.02-.7-.63-2.53-4.94-1.85-4.37-2.46-10.14.06-12.2,2.71-2.22,6.33-1.16,10.18,3.01.09.1.25.1.34.01.05-.05.08-.12.08-.19,0-.06-.02-.11-.06-.16-4.05-4.38-7.91-5.46-10.84-3.05Z"/>
            <path class="cls-3" d="m316.93,59.71c-.17,0-.34-.07-.47-.19-.26-.26-.27-.68-.01-.94.92-.94,5.32-5.4,7.36-6.62-.29-.63-.6-1.32-.92-2.08-2.03-4.8-2.57-10.89.32-13.26,1.09-.9,2.32-1.35,3.64-1.35,2.4,0,5.09,1.54,7.78,4.44.11.12.17.27.18.43,0,.19-.07.38-.21.51-.26.24-.7.22-.94-.04-3.64-3.93-7.08-5.03-9.6-2.97-2.27,1.86-1.75,7.41.07,11.7,1.73,4.08,2.4,4.77,2.42,4.8.26.19.32.6.11.9-.21.29-.65.36-.93.15-.17-.13-.56-.56-1.33-2.05-1.25.78-4.38,3.69-6.98,6.36-.13.13-.3.2-.48.2Z"/>
          </g>
          <g>
            <path class="cls-4" d="m318.39,20.95c-5.03,3.38-4.02,9.53-2.78,11.82,1.21,2.24,2.33,9.44,2.49,10.48-1.3,1.27-5.09,4.98-5.25,5.61-.03.13.05.26.18.3.13.03.26-.05.3-.18.14-.41,2.78-3.12,5.2-5.47.06-.05.08-.13.07-.21-.05-.34-1.22-8.28-2.56-10.76-1.17-2.16-2.14-7.98,2.62-11.18.8-.54,1.71-.71,2.7-.5,3.86.81,7.81,6.97,7.85,7.03.07.11.22.15.34.08.08-.05.12-.13.11-.21,0-.04-.01-.09-.04-.12-.17-.26-4.1-6.4-8.17-7.25-1.12-.24-2.16-.04-3.07.57Z"/>
            <path class="cls-3" d="m313.09,49.58s-.13-.01-.16-.02c-.35-.09-.57-.45-.48-.81.14-.53,1.89-2.44,5.21-5.66-.23-1.47-1.29-8.06-2.41-10.12-1.29-2.39-2.36-8.83,2.92-12.37,1.01-.68,2.16-.9,3.4-.64,4.15.87,8.01,6.77,8.44,7.44.06.1.1.22.1.34,0,.23-.11.46-.31.58-.11.07-.23.1-.36.1h0c-.23,0-.44-.12-.56-.31-.04-.06-3.9-6.07-7.58-6.84-.87-.18-1.67-.04-2.38.44-4.52,3.04-3.6,8.57-2.49,10.63,1.35,2.49,2.48,10.05,2.61,10.9.03.21-.04.43-.2.58-2.93,2.84-4.93,4.97-5.1,5.32-.06.25-.33.45-.63.45Z"/>
          </g>
          <g>
            <path class="cls-4" d="m316.21,8.46c-1.74.23-3.62,1.61-4.92,3.6-1.61,2.47-2.08,5.47-1.28,8.21,1.48,5.07,1.52,7.92,1.51,8.43l-5.83,6.57c-.09.1-.08.25.02.34.1.09.25.08.34-.02l5.89-6.63s.06-.09.06-.15c0-.12.14-2.99-1.53-8.67-.76-2.6-.32-5.45,1.22-7.8,1.22-1.87,2.97-3.17,4.57-3.38.13-.02.22-.12.21-.25,0,0,0-.02,0-.03-.02-.13-.14-.23-.27-.21Z"/>
            <path class="cls-3" d="m305.88,36.08h0c-.16,0-.32-.06-.44-.17-.13-.12-.21-.28-.22-.46-.01-.18.05-.35.17-.48l5.72-6.44c0-.79-.14-3.54-1.49-8.15-.84-2.86-.35-5.98,1.33-8.56,1.36-2.09,3.36-3.54,5.22-3.79.36-.05.7.23.75.58.01.41-.23.7-.57.75-1.48.19-3.12,1.42-4.27,3.19-1.47,2.25-1.89,4.97-1.16,7.45,1.68,5.74,1.55,8.69,1.54,8.81,0,.15-.07.29-.17.41l-5.89,6.63c-.13.14-.31.22-.5.22Z"/>
          </g>
          <g>
            <path class="cls-4" d="m297.25,77.17c-2.82,4.89-4.18,9.46-4.19,9.51-.04.13.04.26.17.3.13.04.26-.04.3-.17.05-.18,5.4-18.04,17.27-21.08.11-.03.19-.13.18-.24,0-.02,0-.04,0-.05-.03-.13-.17-.21-.3-.18-6.36,1.63-10.81,7.37-13.43,11.9Z"/>
            <path class="cls-3" d="m293.3,87.41h0s-.15-.02-.19-.03c-.35-.1-.56-.47-.45-.83.06-.2,1.44-4.76,4.23-9.6,2.66-4.6,7.19-10.44,13.69-12.1.03,0,.13-.02.17-.02.3,0,.57.21.65.5,0,.03.02.12.02.15,0,.31-.2.59-.5.66-11.67,2.99-16.92,20.61-16.97,20.79-.08.28-.35.48-.64.48Z"/>
          </g>
        </g>
      </g>
      <g>
        <path class="cls-9" d="m293.13,232.82s-13.26-20.19.9-81.05c0,0-16.17-5.75-49.11-24.71-22-12.65-49.89-3.52-49.89-3.52,0,0-7.46-5.99-13.84-4.33l2.06,4.71s5.57-.17,6.76,1.29c1.19,1.46,2.76,14.77,4.36,29.46,1.23,11.36,11.19,160.83,15.63,228,20.34-3.93,40.12-11.62,56.68-23.79-6.63-57.8-13.26-128.51-11.52-134.5,2.57-8.84,37.96,8.44,37.96,8.44Z"/>
        <path class="cls-5" d="m210,383.53c-.19,0-.37-.06-.52-.18-.19-.15-.31-.37-.33-.62-4.29-64.74-14.39-216.55-15.63-227.97-.89-8.21-2.98-27.45-4.17-29.02-.39-.47-2.3-.98-5.59-.98-.3,0-.48,0-.49,0-.34,0-.66-.19-.8-.51l-2.06-4.71c-.1-.23-.09-.49.01-.71.11-.22.31-.39.55-.45.81-.21,1.67-.32,2.57-.32,5.18,0,10.26,3.5,11.65,4.53,2.04-.61,11.05-3.1,22.08-3.1s20.2,2.3,28.07,6.82c32.48,18.69,48.81,24.59,48.97,24.64.41.15.64.57.54.99-13.38,57.49-2.04,78.66-1.08,80.29.13.15.22.35.22.57,0,.47-.38.85-.85.85-.13,0-.27-.03-.39-.09-.22-.11-22.39-10.87-32.51-10.87-2.46,0-3.9.64-4.27,1.91-1.65,5.67,4.64,73.95,11.55,134.16.03.3-.1.6-.34.78-15.6,11.47-35.32,19.75-57.02,23.94-.05.01-.11.02-.16.02Zm-26.2-260.46c2.55,0,5.79.29,6.87,1.61,1.12,1.37,2.26,8.92,4.54,29.9,1.24,11.39,11.25,161.79,15.57,227.07,20.9-4.17,39.89-12.16,55-23.17-5.78-50.43-13.37-127.67-11.43-134.34.6-2.08,2.59-3.13,5.9-3.13,8.66,0,24.99,7.18,30.99,9.97-2.97-6.76-9.61-29.16,1.8-78.68-3.48-1.34-19.68-7.9-48.54-24.5-7.61-4.38-16.76-6.59-27.22-6.59-12.21,0-21.89,3.12-21.98,3.15-.27.09-.57.03-.79-.14-.06-.04-5.6-4.44-10.95-4.44-.39,0-.78.02-1.15.07l1.41,3.22Z"/>
      </g>
      <path class="cls-4" d="m148.17,254.98c-.32,0-.62-.18-.77-.48l-18.55-38.65c-.09-.19-.11-.4-.05-.6l7.29-25.45-22.76-22.38c-.25-.25-.32-.63-.18-.95.09-.2,8.98-20.25,14.71-31.36.21-.42.73-.58,1.14-.37.42.21.58.73.37,1.14-5.18,10.05-12.97,27.46-14.43,30.74l22.7,22.32c.22.22.31.54.22.84l-7.34,25.62,18.41,38.36c.2.42.02.93-.4,1.13-.12.06-.24.08-.37.08Z"/>
      <path class="cls-4" d="m200.98,243.51c-.09,0-.19-.01-.28-.05-.44-.15-.68-.64-.52-1.08l13.24-37.72-13.36-30.89c-.1-.22-.09-.48.01-.7l11.08-23.53c-1.34-2.57-9.46-17.85-16.75-25.41-.33-.34-.32-.88.02-1.2.34-.33.87-.31,1.2.02,8.11,8.41,16.86,25.46,17.23,26.19.12.23.12.51.01.75l-11.1,23.56,13.34,30.84c.08.2.09.42.02.62l-13.35,38.03c-.12.35-.45.57-.8.57Z"/>
      <path class="cls-4" d="m142.6,267.7c-.02-2.55-2.1-4.59-4.65-4.57-2.55.02-4.59,2.1-4.57,4.65.02,2.55,2.1,4.59,4.65,4.57,2.55-.02,4.59-2.1,4.57-4.65Z"/>
      <path class="cls-4" d="m141.7,300.63c-.02-2.55-2.1-4.59-4.65-4.57-2.55.02-4.59,2.1-4.57,4.65.02,2.55,2.1,4.59,4.65,4.57,2.55-.02,4.59-2.1,4.57-4.65Z"/>
      <path class="cls-4" d="m140.17,335.46c-.02-2.76-2.28-4.99-5.05-4.96-2.76.02-4.99,2.28-4.96,5.05.02,2.76,2.28,4.99,5.05,4.96,2.76-.02,4.99-2.28,4.96-5.05Z"/>
      <path class="cls-4" d="m141.15,368.71c-.02-2.76-2.28-4.99-5.05-4.96-2.76.02-4.99,2.28-4.96,5.05.02,2.76,2.28,4.99,5.05,4.96,2.76-.02,4.99-2.28,4.96-5.05Z"/>
      <g>
        <g>
          <path class="cls-6" d="m180.14,80.48s6.22-9.82,13.41-8.85c7.2.97,11.18,15.19,4.59,19.53-6.59,4.34-16.41.56-16.41.56l-1.59-11.24Z"/>
          <path class="cls-4" d="m190.28,94.09c-4.69,0-8.69-1.52-8.86-1.58-.29-.11-.49-.37-.54-.67l-1.59-11.24c-.03-.2.02-.4.12-.57.24-.38,5.98-9.31,13.12-9.31.38,0,.75.03,1.12.08,4.34.59,7.28,5.21,8.27,9.54.9,3.93.49,9.03-3.33,11.55-2.24,1.48-5.04,2.22-8.33,2.22Zm-7.79-3.01c1.15.38,4.31,1.31,7.79,1.31,2.95,0,5.43-.65,7.39-1.94,3.09-2.04,3.37-6.37,2.6-9.75-1.01-4.44-3.83-7.82-6.84-8.23-.3-.04-.6-.06-.9-.06-5.59,0-10.55,6.86-11.52,8.27l1.47,10.4Z"/>
        </g>
        <g>
          <path class="cls-6" d="m182.36,53.8c-.74.27-1.46.42-2.12.37-4.89-.27-14.27-11.24-31.18-8.07-16.01,3.01-12.96,15.92-33.47,17.29,0,3.66.77,7.47,2.45,11.33l5.81,13.6c-2.95-1.63-7.05-3.06-10.65-1.27-6.5,3.24-5.68,17.99,1.96,19.97,6.55,1.7,13.4-3.01,15.23-4.39,1.11,1.88,2.36,3.66,3.74,5.34l4.28,21.97c.41,2.13-1.08,9.05-2.26,10.79,14.8,12.41,41.75,10.56,53.92-9.68-1.95-.59-7.67-5.88-8.24-8.24l-2.42-10.13c9.95-10.21,7.45-26.24,6.17-39.19-.81-8.24-1.72-14.76-3.2-19.7Z"/>
          <path class="cls-4" d="m158.66,149.38h0c-8.73,0-16.92-2.83-23.07-7.99-.33-.28-.4-.76-.16-1.12,1.07-1.59,2.49-8.32,2.13-10.15l-4.24-21.76c-1.15-1.4-2.22-2.91-3.2-4.48-2.15,1.5-6.95,4.38-12.04,4.38-1.09,0-2.15-.13-3.15-.39-4.43-1.15-6.45-5.84-6.87-9.86-.46-4.41.83-9.74,4.75-11.69,2.63-1.31,5.84-1.21,9.35.27l-4.91-11.51c-1.68-3.87-2.52-7.79-2.52-11.67,0-.45.35-.82.79-.85,10.92-.73,14.82-4.68,18.96-8.87,3.4-3.44,6.91-7,14.41-8.41,2.09-.39,4.17-.59,6.2-.59,8.77,0,15.09,3.58,19.7,6.2,2.34,1.32,4.18,2.37,5.48,2.44.07,0,.13,0,.19,0,.47,0,1-.11,1.6-.33.22-.08.46-.07.67.04.21.1.37.29.43.52,1.34,4.46,2.31,10.4,3.24,19.86.09.9.19,1.83.28,2.76,1.32,12.66,2.81,27-6.36,36.77l2.31,9.68c.5,2.11,6.01,7.13,7.66,7.63.25.08.45.26.55.51.09.24.07.51-.06.74-6.73,11.2-18.74,17.88-32.13,17.88Zm-21.44-8.84c5.77,4.62,13.36,7.15,21.44,7.15,12.47,0,23.68-6.06,30.18-16.27-2.6-1.52-7.28-6.02-7.85-8.4l-2.42-10.13c-.07-.28.01-.58.22-.79,8.97-9.21,7.51-23.31,6.22-35.75-.1-.94-.19-1.86-.28-2.77-.86-8.77-1.75-14.46-2.94-18.72-.57.14-1.1.19-1.6.16-1.69-.09-3.69-1.23-6.22-2.66-4.45-2.52-10.55-5.98-18.87-5.98-1.92,0-3.91.19-5.89.56-6.97,1.31-10.15,4.53-13.51,7.93-4.08,4.13-8.29,8.39-19.25,9.31.1,3.38.89,6.81,2.37,10.21l5.81,13.6c.14.33.06.72-.21.96-.27.24-.66.29-.98.11-3.82-2.12-7.23-2.56-9.86-1.25-2.72,1.36-4.29,5.47-3.82,10,.36,3.44,2.02,7.46,5.61,8.39.86.22,1.78.34,2.73.34,5.3,0,10.36-3.51,11.78-4.59.19-.15.44-.2.68-.16.24.05.44.19.57.4,1.1,1.85,2.33,3.61,3.66,5.23.09.11.15.24.18.38l4.28,21.97c.4,2.08-.79,8.15-2.01,10.74Z"/>
        </g>
        <path class="cls-1" d="m182.36,53.8c-.74.27-1.46.42-2.12.37-4.89-.27-14.27-11.24-31.18-8.07-16.01,3.01-12.96,15.92-33.47,17.29,0-11.57,7.88-21.53,20.29-26.41.38-.15.76-.29,1.16-.43,32.2-11.43,43.15,11.86,43.15,11.86.84,1.53,1.56,3.32,2.17,5.38Z"/>
        <path class="cls-4" d="m146.55,63.8c.16.66-.35,1.28-.84,1.75-2.49,2.41-5.45,4.32-8.67,5.61-.57.23-1.17.44-1.78.41-1.05-.06-2.01-.93-2.15-1.98-.12-.86.26-1.72.83-2.38.57-.65,1.3-1.13,2.03-1.6,2.72-1.73,5.8-3.44,8.97-2.91.68.11,1.44.43,1.6,1.1Z"/>
        <path class="cls-4" d="m161.4,61.76c.19.65.95.93,1.6,1.09,3.36.82,6.89.99,10.31.48.61-.09,1.23-.21,1.74-.55.88-.58,1.26-1.82.86-2.79-.33-.8-1.09-1.36-1.91-1.64-.82-.28-1.7-.32-2.56-.35-3.22-.12-6.74-.06-9.22,2-.53.44-1.03,1.1-.83,1.76Z"/>
        <path class="cls-4" d="m122.36,88.68l.92.57c1.17.72,2.64-.26,2.41-1.62-1.35-7.97-4.03-27.06.57-30.2,5.84-3.99-9.51,3.86-9.51,3.86l-5.84-.27s6.43,20.82,10.62,26.92l.83.74Z"/>
        <path class="cls-4" d="m185.41,74.13s-4.01-16.93-9.42-24.44c-5.41-7.51.58-.12.58-.12l7.21-1.85s2.96,20.57,2.1,26.53l-.47-.12Z"/>
        <path class="cls-4" d="m193.21,36.67c-.44,7.7-6.16,15.38-10.85,17.14-.74.27-1.46.42-2.12.37-4.89-.27-14.27-11.24-31.18-8.07-16.01,3.01-12.96,15.92-33.47,17.29-1.16.08-2.39.12-3.71.12-6.46,0-8.83-19.67-1.45-23.22,7.37-3.56,12.27-.2,18.76-6.87,6.49-6.67,3.08-15.39,11.15-17.78,8.07-2.38,24.39-5.22,24.14,3.85-.26,9.08,6.42,13.58,12.4,9.66,5.99-3.92,16.85-1.4,16.34,7.5Z"/>
        <path class="cls-4" d="m180.63,109.88c-4.69,4.87-21.52,11.22-33.13,4.53,0,0,14.86,14.96,32.9,5.26l-.72-6.26.95-3.53Z"/>
        <g>
          <path class="cls-6" d="m158.29,74.05c.46,2.14,3.73,8.3,4.39,9.42.66,1.12-2.57,4.33-2.57,4.33"/>
          <path class="cls-4" d="m160.11,88.64c-.22,0-.44-.08-.6-.25-.33-.33-.33-.87,0-1.2,1.3-1.29,2.45-2.9,2.41-3.37-.54-.88-3.97-7.27-4.46-9.6-.1-.46.19-.91.65-1.01.46-.1.91.19,1.01.65.42,1.96,3.6,7.98,4.29,9.16.87,1.47-1.32,3.99-2.71,5.36-.17.16-.38.25-.6.25Z"/>
        </g>
        <path class="cls-4" d="m126.64,98.8c-.29,0-.57-.15-.73-.41-1.31-2.18-2.97-3.52-4.93-3.96-3.39-.76-6.63,1.35-6.67,1.37-.39.26-.92.15-1.18-.24-.26-.39-.15-.92.24-1.18.16-.1,3.86-2.54,7.97-1.62,2.43.55,4.46,2.14,6.03,4.74.24.4.11.92-.29,1.16-.14.08-.29.12-.44.12Z"/>
        <path class="cls-4" d="m118.92,99.59c-.06,0-.13,0-.19-.02-.46-.11-.74-.56-.64-1.02l1.12-4.83c.11-.46.56-.74,1.02-.64.46.11.74.56.64,1.02l-1.12,4.83c-.09.39-.44.66-.83.66Z"/>
        <path class="cls-4" d="m186.97,85.32c-.1,0-.2-.02-.3-.05-.44-.16-.66-.65-.5-1.09,1.12-2.98,2.73-4.95,4.81-5.85,2.46-1.07,4.64-.2,4.73-.16.43.18.64.67.46,1.11-.18.43-.67.64-1.1.46-.08-.03-1.65-.63-3.44.16-1.63.72-2.93,2.36-3.87,4.88-.13.34-.45.55-.79.55Z"/>
        <path class="cls-4" d="m192.85,85.35c-.22,0-.45-.09-.61-.26l-3.32-3.45c-.33-.34-.31-.88.02-1.2.34-.32.88-.31,1.2.02l3.32,3.45c.32.34.31.88-.02,1.2-.16.16-.38.24-.59.24Z"/>
        <g>
          <path class="cls-6" d="m158.06,28.22c4.6.15,6.47,5.79,10.64,6.69,2.36.5,4.71-.69,7.07-1.21,2.47-.55,5.78.14,6.13,2.78.17,1.24-.47,2.46-1.49,3.2-1.74,1.26-3.94,1.13-5.93.64-1.65-.4-3.26-1.03-4.94-1.26-3.04-.41-6.17.49-9.24,1.15-5.13,1.1-9.57-4.21-7.23-8.91.25-.5.56-.97.97-1.4,1.03-1.1,2.52-1.72,4.02-1.67Z"/>
          <path class="cls-4" d="m177.08,41.08c-.82,0-1.7-.12-2.7-.36-.61-.15-1.2-.32-1.8-.5-1.01-.3-2.05-.61-3.1-.75-.49-.07-1.01-.1-1.55-.1-2.02,0-4.12.47-6.15.93-.47.11-.93.21-1.39.31-2.85.61-5.84-.7-7.38-3.18-1.22-1.97-1.34-4.28-.32-6.33.28-.55.63-1.06,1.04-1.5,1.08-1.15,2.6-1.81,4.17-1.81h.17c2.64.09,4.41,1.84,6.12,3.54,1.43,1.42,2.79,2.77,4.59,3.15.36.08.72.11,1.11.11,1.24,0,2.46-.37,3.76-.77.66-.2,1.34-.41,2.02-.56.55-.12,1.13-.19,1.72-.19,2.07,0,4.6.87,4.93,3.32.18,1.34-.45,2.72-1.66,3.6-.98.71-2.19,1.07-3.59,1.07Zm-9.15-2.56c.57,0,1.13.04,1.66.11,1.11.15,2.18.47,3.23.78.59.17,1.17.35,1.76.49,2.46.6,4.23.41,5.58-.57.94-.68,1.45-1.78,1.31-2.8-.26-1.91-2.28-2.59-4.09-2.59-.52,0-1.04.06-1.53.17-.65.15-1.31.35-1.96.54-1.3.39-2.65.8-4.01.8-.44,0-.88-.04-1.28-.13-2.05-.44-3.56-1.93-5.01-3.38-1.67-1.66-3.24-3.22-5.55-3.29h-.15c-1.34,0-2.63.56-3.55,1.54-.36.38-.66.81-.9,1.29-.88,1.78-.78,3.78.28,5.5,1.35,2.18,3.98,3.34,6.48,2.8.46-.1.92-.2,1.39-.31,2.07-.47,4.22-.95,6.34-.95Z"/>
        </g>
        <path class="cls-4" d="m107.91,48.47c-.24,0-.49-.1-.65-.31-2.36-2.85-2.39-7.34-.07-10.22,2.49-3.09,6.55-3.81,10.84-4.31,3.57-.42,7.55-1.11,9.59-3.86,1.19-1.61,1.54-3.87.87-5.75-.66-1.89-2.35-3.44-4.28-3.94-.45-.12-.73-.58-.61-1.04.12-.45.58-.72,1.04-.61,2.51.65,4.6,2.58,5.46,5.02.86,2.44.43,5.25-1.11,7.33-2.45,3.29-6.83,4.06-10.75,4.53-3.93.46-7.62,1.1-9.72,3.69-1.8,2.24-1.78,5.86.05,8.07.3.36.25.9-.11,1.19-.16.13-.35.2-.54.2Z"/>
        <path class="cls-4" d="m166.21,112.99c-.22,0-.43-.08-.6-.25-.33-.33-.33-.87,0-1.2.49-.49.77-1.19.74-1.88-.02-.69-.35-1.38-.87-1.83-.35-.31-.39-.84-.08-1.2.31-.35.84-.39,1.2-.08.87.76,1.41,1.9,1.45,3.05.04,1.15-.42,2.33-1.24,3.14-.17.17-.38.25-.6.25Z"/>
        <g>
          <path class="cls-6" d="m155.66,101.61c-.81-.56-1.55-1.25-2.08-2.08-.99-1.54-1.1-3.84.3-5.03,1.33-1.13,3.31-.8,5.05-.6,1.75.2,3.59.19,5.2-.52,1.53-.67,2.95-1.98,4.61-1.76,1.46.19,2.54,1.63,2.68,3.09.14,1.47-.47,2.91-1.33,4.12-1.57,2.22-3.99,3.83-6.65,4.36-2.66.53-5.54-.03-7.77-1.57Z"/>
          <path class="cls-4" d="m161.44,104.23c-2.25,0-4.47-.68-6.26-1.92-.98-.68-1.76-1.46-2.31-2.32-1.17-1.83-1.32-4.62.46-6.13.8-.68,1.84-1,3.2-1,.72,0,1.44.09,2.13.17l.36.04c2.05.24,3.52.09,4.76-.46.41-.18.82-.42,1.25-.67,1.15-.66,2.37-1.35,3.8-1.16,1.76.23,3.22,1.89,3.42,3.85.15,1.5-.36,3.12-1.48,4.69-1.71,2.42-4.33,4.13-7.18,4.7-.7.14-1.43.21-2.16.21Zm-4.92-9.68c-.95,0-1.62.19-2.1.6-1.06.9-.89,2.74-.13,3.92.43.67,1.06,1.29,1.85,1.84,2,1.38,4.69,1.93,7.13,1.44,2.43-.49,4.67-1.95,6.13-4.02.61-.86,1.31-2.18,1.17-3.54-.1-1.03-.86-2.19-1.95-2.33-.9-.12-1.78.4-2.74.95-.45.26-.92.53-1.42.75-1.52.67-3.27.86-5.64.59l-.37-.04c-.64-.08-1.31-.16-1.93-.16Z"/>
        </g>
        <path class="cls-4" d="m172.62,73.15c-.25-2-1.4-3.5-2.56-3.35-1.16.15-1.9,1.89-1.64,3.89.25,2,1.4,3.5,2.56,3.35,1.16-.15,1.9-1.89,1.64-3.89Z"/>
        <path class="cls-4" d="m146.26,79.74c-.25-2-1.4-3.5-2.56-3.35-1.16.15-1.9,1.89-1.64,3.89.25,2,1.4,3.5,2.56,3.35,1.16-.15,1.9-1.89,1.64-3.89Z"/>
      </g>
      <path class="cls-4" d="m266.66,127.89c-.2,0-.4-.07-.56-.21-7.84-6.84-24.74-13.33-24.91-13.4-.44-.17-.66-.66-.49-1.1.17-.44.66-.66,1.1-.49.7.27,17.35,6.66,25.42,13.7.35.31.39.84.08,1.2-.17.19-.4.29-.64.29Z"/>
      <g>
        <g>
          <path class="cls-10" d="m219.67,188.39h-63.24c-.98,0-1.56,1.09-1.02,1.91l31.34,46.79c.13.2.21.44.21.68v51.35h2.19v-51.35c0-.24.07-.48.21-.68l31.34-46.79c.54-.81-.04-1.91-1.02-1.91Z"/>
          <path class="cls-5" d="m189.15,289.97h-2.19c-.47,0-.85-.38-.85-.85v-51.35c0-.07-.02-.15-.06-.21l-31.34-46.79c-.43-.64-.47-1.45-.11-2.13.36-.68,1.06-1.1,1.83-1.1h63.24c.77,0,1.47.42,1.83,1.1.36.68.32,1.49-.1,2.13l-31.34,46.8c-.04.06-.06.13-.06.21v51.35c0,.47-.38.85-.85.85Zm-1.34-1.7h.49v-50.5c0-.41.12-.81.35-1.15l31.34-46.79c.11-.16.06-.31.02-.39-.04-.07-.14-.2-.33-.2h-63.24c-.2,0-.29.12-.33.2-.04.07-.09.22.02.39l31.34,46.79c.23.34.35.74.35,1.15v50.5Z"/>
        </g>
        <g>
          <path class="cls-10" d="m209.17,289.12c0-2.43-9.45-4.4-21.12-4.4s-21.12,1.97-21.12,4.4h42.23Z"/>
          <path class="cls-5" d="m209.17,289.96h-42.23c-.47,0-.85-.38-.85-.85,0-4.15,14.37-5.25,21.97-5.25s21.97,1.1,21.97,5.25c0,.47-.38.85-.85.85Zm-40.51-1.7h38.78c-2.28-1.22-8.94-2.7-19.39-2.7s-17.11,1.49-19.39,2.7Z"/>
        </g>
        <polygon class="cls-6" points="208.68 201.77 188.08 231.2 167.94 202.39 208.68 201.77"/>
        <path class="cls-5" d="m187.62,218.66s1.38-3.19,3.62-7.87c2.24-4.68,5.5-10.77,8.8-16.85,3.43-6,6.9-11.98,9.7-16.34,2.8-4.37,4.79-7.22,4.79-7.22,0,0-1.38,3.19-3.62,7.87-2.24,4.68-5.5,10.77-8.8,16.85-3.44,5.99-6.9,11.97-9.7,16.34-2.8,4.37-4.79,7.22-4.79,7.22Z"/>
        <g>
          <g>
            <path class="cls-7" d="m212.51,184.53c1.43-3.44,1.07-7.35-1.62-8.47-2.69-1.12-6.68.98-8.11,4.42-1.43,3.44-.42,7.14,2.27,8.26,2.69,1.12,6.02-.77,7.46-4.21Z"/>
            <path class="cls-5" d="m206.68,189.92s0,0,0,0c-.68,0-1.34-.13-1.96-.39-3.11-1.3-4.34-5.5-2.73-9.37,1.24-2.99,4.38-5.25,7.3-5.25.68,0,1.33.12,1.91.37,1.54.64,2.55,2.06,2.87,4.01.27,1.71,0,3.69-.79,5.57-1.26,3.02-3.92,5.05-6.61,5.05Zm2.62-13.3c-2.24,0-4.76,1.85-5.74,4.2-1.25,3.01-.44,6.21,1.81,7.15.41.17.85.26,1.3.26,1.99,0,4.06-1.65,5.04-4.01.65-1.57.9-3.26.68-4.65-.15-.95-.6-2.2-1.84-2.71-.38-.16-.8-.24-1.26-.24Z"/>
          </g>
          <path class="cls-5" d="m207.35,176.84c-.22.53.74,1.43,2.14,2.01,1.4.58,2.71.62,2.93.1.22-.53-.74-1.43-2.14-2.01-1.4-.58-2.71-.62-2.93-.1Z"/>
        </g>
      </g>
      <g>
        <g>
          <path class="cls-6" d="m33.5,226.56S-1.9,292.75,17.28,320.51c29.07,42.07,117.45-14.88,117.45-14.88,0,0,24.29,5.76,32.02-4.77,0,0,1.66,6.55,8.64,5.69,6.98-.86,21.68-16.57,19.16-25.79,0,0,4.06-7.34-1.21-13.74,0,0,4.39-4.89.41-11.05,0,0,18.33,4.6,18.83-7.02,0,0,2.11-1.71-16.15-10.43-18.26-8.72-26.87-8.71-33.89-7.4-7.02,1.31-31.22,14.8-37.01,17.55-5.79,2.75-38.55,11.91-38.55,11.91l4.4-13.77c-11.76-8.48-21.39-13.46-57.9-20.25Z"/>
          <path class="cls-5" d="m50.85,336.85c-15.47,0-27-5.34-34.27-15.86-19.26-27.87,14.72-92.12,16.17-94.84.18-.33.54-.49.9-.43,36.39,6.77,46.1,11.64,58.24,20.4.3.22.42.6.31.95l-3.92,12.27c6.51-1.84,31.94-9.08,36.89-11.43,1.46-.69,4.08-2.07,7.4-3.8,9.75-5.1,24.47-12.82,29.82-13.82,2.36-.44,4.46-.64,6.6-.64,7.38,0,16.22,2.58,27.81,8.11,16.34,7.8,16.61,10.07,16.69,10.82.03.26-.01.46-.08.62-.34,5.5-4.61,8.53-12.06,8.53-2.36,0-4.54-.29-6-.55,2.07,4.64,0,8.44-.96,9.84,4.36,5.86,1.74,12.35,1.04,13.84.83,3.59-.58,8.33-3.98,13.4-4.58,6.83-11.6,12.6-15.98,13.14-.45.06-.9.09-1.34.09-4.55,0-6.75-3.09-7.67-4.97-3.46,3.69-9.4,5.55-17.69,5.55-6.56,0-12.42-1.19-13.9-1.52-4.12,2.6-49,30.32-84.04,30.32Zm-16.88-109.35c-3.32,6.41-33.74,66.82-15.99,92.52,6.93,10.04,17.99,15.13,32.87,15.13,36.08,0,82.95-29.94,83.42-30.24.19-.13.43-.17.66-.11.07.01,6.63,1.55,13.87,1.55,5.87,0,13.63-1.04,17.27-6,.19-.26.52-.39.85-.33.32.06.58.31.66.62.05.21,1.39,5.13,6.58,5.13.36,0,.74-.02,1.13-.07,3.88-.48,10.51-6.04,14.78-12.4,3.22-4.81,4.53-9.19,3.67-12.33-.06-.21-.03-.44.08-.63.15-.28,3.7-6.93-1.12-12.79-.27-.32-.26-.79.02-1.11.16-.18,3.9-4.5.33-10.02-.19-.29-.18-.67.02-.95s.56-.41.9-.33c.03,0,3.53.87,7.41.87,6.68,0,10.17-2.39,10.37-7.11,0-.08.02-.15.04-.22-.27-.53-2.17-2.94-15.7-9.4-11.36-5.42-19.96-7.95-27.08-7.95-2.03,0-4.03.2-6.29.62-5.1.95-20.28,8.9-29.35,13.65-3.33,1.75-5.97,3.12-7.46,3.83-5.79,2.75-37.34,11.59-38.68,11.96-.3.09-.62,0-.84-.23-.22-.23-.29-.55-.2-.85l4.22-13.18c-11.64-8.33-21.39-13.07-56.44-19.63Z"/>
        </g>
        <path class="cls-5" d="m193.44,256.72c.33.14.73.05.96-.26.27-.36.2-.87-.15-1.14-6.41-4.88-13.47-8.18-22.21-10.38-.43-.11-.88.15-.99.59-.11.43.15.88.59.99,8.52,2.15,15.39,5.36,21.62,10.1.05.04.11.07.17.1Z"/>
        <path class="cls-5" d="m174.15,260.05c.07.03.14.05.22.06,7.08.91,18.46,7.55,18.57,7.61.39.23.89.1,1.11-.29.23-.39.1-.88-.29-1.11-.48-.28-11.79-6.88-19.19-7.82-.44-.06-.85.26-.91.7-.05.37.16.71.49.85Z"/>
        <path class="cls-5" d="m194.23,281.5c.3.13.65.07.89-.17.32-.32.32-.83,0-1.15-3.63-3.65-13.74-6.75-14.17-6.88-.43-.13-.88.11-1.01.54-.13.43.11.88.54,1.01.1.03,10.15,3.12,13.49,6.47.08.08.16.13.26.17Z"/>
        <path class="cls-5" d="m166.43,301.6c.3.13.67.06.91-.19,5.31-5.64,9.32-15.46,9.48-15.87.17-.41-.03-.88-.43-1.05,0,0,0,0,0,0-.42-.17-.89.03-1.06.45-.04.1-4.06,9.95-9.16,15.37-.31.33-.29.84.03,1.15.07.07.15.12.24.16Z"/>
        <path class="cls-5" d="m174.17,289.69c.21.09.46.09.68-.02l3.37-1.68c.4-.2.57-.69.37-1.09-.2-.4-.69-.57-1.09-.37l-3.37,1.68c-.4.2-.57.69-.37,1.09.09.18.24.31.41.39Z"/>
        <path class="cls-5" d="m200.06,248.51s.01,0,.02,0l7.49,2.97c.35.14.75.02.97-.3l.92-1.34c.25-.37.16-.88-.21-1.13-.37-.26-.88-.16-1.13.21l-.55.8-6.37-2.52c.12-3.18,1.59-4.83,1.65-4.9.3-.33.28-.84-.05-1.15-.33-.3-.84-.28-1.14.04-.09.09-2.14,2.35-2.09,6.57,0,.32.2.61.49.74Z"/>
        <path class="cls-5" d="m146.56,244.46c.11.05.23.07.35.06l9.52-.43c.45-.02.8-.4.78-.85-.02-.45-.4-.8-.85-.77l-9.52.43c-.45.02-.8.4-.78.85.02.32.22.59.49.71Z"/>
        <path class="cls-5" d="m148.53,247.14c.33.14.72.05.96-.24l4.99-6.29c.28-.35.22-.86-.13-1.14-.35-.28-.86-.22-1.14.13l-4.99,6.29c-.28.35-.22.86.13,1.14.06.05.12.08.19.11Z"/>
        <path class="cls-5" d="m149.11,258.46c.11.05.23.07.35.06l9.52-.43c.45-.02.8-.4.78-.85-.02-.45-.4-.8-.85-.78l-9.52.43c-.45.02-.8.4-.78.85.01.32.22.59.49.71Z"/>
        <path class="cls-5" d="m151.08,261.15c.33.14.72.05.96-.24l4.99-6.29c.28-.35.22-.86-.13-1.14-.35-.28-.86-.22-1.14.13l-4.99,6.29c-.28.35-.22.86.13,1.14.06.05.12.08.19.11Z"/>
        <path class="cls-5" d="m151.42,270.87c.11.05.23.07.35.06l9.52-.43c.45-.02.8-.4.78-.85-.02-.45-.4-.79-.85-.78l-9.52.43c-.45.02-.8.4-.78.85.01.32.22.59.49.71Z"/>
        <path class="cls-5" d="m153.39,273.55c.33.14.72.05.96-.24l4.99-6.29c.28-.35.22-.86-.13-1.14-.35-.28-.86-.22-1.14.13l-4.99,6.29c-.28.35-.22.86.13,1.14.06.05.12.08.19.11Z"/>
        <path class="cls-5" d="m133.13,306.08c.76.33,1.51.57,2.17.63.45.04.85-.28.89-.73.05-.45-.28-.84-.73-.89-1.76-.18-4.98-2.28-6.07-3.07-.36-.27-.87-.18-1.13.18-.26.36-.18.87.18,1.13.32.24,2.54,1.82,4.69,2.74Z"/>
        <path class="cls-5" d="m42.15,274.43c.17.07.36.09.55.03l44.76-13.01c.43-.13.68-.58.55-1.01-.12-.43-.58-.68-1.01-.55l-44.76,13.01c-.43.13-.68.58-.55,1.01.07.24.25.43.46.52Z"/>
        <path class="cls-5" d="m37.26,322.58c-1.47,0-2.94-.39-3.92-.71-1.69-.57-3.46-1.25-4.95-2.39-1.54-1.18-3.08-3.32-2.81-5.22.11-.82.61-1.95,2.32-2.63,2.88-1.14,5.45,1.52,6.3,2.39.33.34.32.87-.02,1.2-.34.33-.87.32-1.2-.02-1.77-1.83-3.22-2.48-4.45-1.99-1.15.46-1.23,1.08-1.26,1.28-.16,1.12.98,2.73,2.16,3.64,1.29.99,2.91,1.61,4.46,2.13,2.35.79,4.42.83,5.52.1.66-.44,1.03-1.16,1.12-2.21.46-5.28-5.61-8.78-9.27-10.02-.44-.15-.68-.63-.53-1.08.15-.44.63-.68,1.08-.53,5.54,1.87,10.9,6.24,10.42,11.78-.14,1.58-.77,2.76-1.88,3.48-.9.59-1.99.8-3.07.8Z"/>
      </g>
      <g>
        <path class="cls-6" d="m106.62,119.53l-13.47-18.23c1.69-4.01,2.63-8.38,2.63-12.96,0-19.55-16.93-35.4-37.81-35.4s-37.81,15.85-37.81,35.4,16.93,35.4,37.81,35.4c8.62,0,16.56-2.7,22.92-7.25l25.75,3.03Z"/>
        <path class="cls-4" d="m57.95,124.6c-21.32,0-38.66-16.26-38.66-36.25s17.34-36.25,38.66-36.25,38.66,16.26,38.66,36.25c0,4.41-.84,8.72-2.51,12.84l13.19,17.84c.2.27.22.64.05.93-.17.29-.5.46-.83.42l-25.42-2.99c-6.73,4.72-14.72,7.22-23.14,7.22Zm0-70.81c-20.38,0-36.97,15.5-36.97,34.55s16.58,34.56,36.97,34.56c8.18,0,15.93-2.45,22.42-7.09.17-.12.38-.18.59-.15l23.8,2.8-12.31-16.65c-.18-.24-.22-.56-.1-.83,1.7-4.04,2.56-8.29,2.56-12.63,0-19.05-16.58-34.55-36.97-34.55Z"/>
      </g>
      <g>
        <circle class="cls-2" cx="57.86" cy="87" r="25.13" transform="translate(-13.19 10.39) rotate(-9.22)"/>
        <path class="cls-4" d="m68.01,81.47c0-3.95-.97-7.16-2.17-7.16s-2.17,3.21-2.17,7.16.97,7.16,2.17,7.16,2.17-3.21,2.17-7.16Z"/>
        <path class="cls-4" d="m51.34,81.47c0-3.95-.97-7.16-2.17-7.16s-2.17,3.21-2.17,7.16.97,7.16,2.17,7.16,2.17-3.21,2.17-7.16Z"/>
        <g>
          <path class="cls-6" d="m41.67,91.59s15.1,7.49,32.62,0c0,0-4.11,13.65-16.92,13.65s-15.71-13.65-15.71-13.65Z"/>
          <path class="cls-4" d="m57.38,106.09c-13.34,0-16.51-14.18-16.54-14.33-.07-.32.05-.65.31-.85.26-.2.6-.24.9-.09.07.03,6.67,3.24,16,3.24,5.5,0,10.85-1.1,15.91-3.26.3-.13.65-.07.9.15.25.22.34.56.25.88-.04.14-4.44,14.26-17.73,14.26Zm-14.4-13.02c1.2,3.51,4.93,11.33,14.4,11.33s13.83-7.73,15.42-11.29c-4.73,1.77-9.68,2.66-14.74,2.66-7.01,0-12.46-1.7-15.07-2.7Z"/>
        </g>
      </g>
    </g>
  </g>
</svg>