<?xml version="1.0" encoding="UTF-8"?>
<svg id="_레이어_2" data-name="레이어 2" xmlns="http://www.w3.org/2000/svg" viewBox="0 0 505.54 379.97">
  <defs>
    <style>
      .cls-1 {
        fill: #f2cf63;
      }

      .cls-1, .cls-2, .cls-3, .cls-4, .cls-5, .cls-6, .cls-7, .cls-8, .cls-9, .cls-10 {
        stroke-width: 0px;
      }

      .cls-2 {
        fill: #d6876b;
      }

      .cls-3 {
        fill: #f9eddd;
      }

      .cls-4 {
        fill: #333;
      }

      .cls-5 {
        fill: #290a43;
      }

      .cls-6 {
        fill: #fff;
      }

      .cls-7 {
        fill: #fc5e71;
      }

      .cls-8 {
        fill: #f2c9cc;
      }

      .cls-9 {
        fill: #ccd7f2;
      }

      .cls-10 {
        fill: #f29199;
      }
    </style>
  </defs>
  <g id="_迹_1" data-name="卵迹_1">
    <g>
      <path class="cls-8" d="m216.94,18.56c-21.62-14.61-51.62-9.01-76.81-.63-20.23,6.72-41.63,16.11-51.65,34.93-9.25,17.38-6.44,38.53-2.13,57.75,4.32,19.21,9.92,39.07,5.52,58.27-3.77,16.45-14.47,30.33-21.52,45.66-12.95,28.16-11.7,65.07,10.77,86.43,14.35,13.63,34.75,18.91,54.47,20.61,39.28,3.4,78.59-7.03,117.62-3.3,36.31,3.47,73.46,19.06,109.94,8.47,58.54-17.01,82.78-90.58,68.8-145.03-5.55-21.6-14.03-42.24-20.97-63.4-9-27.42-5.07-76.42-31.82-93.3-11.81-7.46-26.19-9.51-40.14-10.35-32.44-1.95-65.21,1.8-96.37,11.03-4.23,1.25-8.71,2.61-12.96,1.44-3.85-1.07-6.81-4.03-9.95-6.5-.92-.72-1.85-1.4-2.8-2.05Z"/>
      <g>
        <path class="cls-6" d="m3.23,145.8c-2.44-2.43-4.44-10.39,1.59-12.5,6.03-2.11,15.67,10.08,18.83,11.28,3.15,1.19,21.68,1.24,21.68,1.24,0,0-10.66-8.29-13.12-15.27-2.46-6.98,2.64-8.74,6-8.47,3.36.26,13.68,8.16,16.64,9.53,2.96,1.38,14.23,1.24,21.11,3.45,6.87,2.21,12.02,9.96,12.02,9.96l2.08,3.86v.03s6.8,14.4,6.8,14.4l35.41,62.03,43.43-62.94,31.37,53.17s-31.37,73.01-74.8,73.01c-37.69,0-62.54-58.19-73.47-90.63-6.63.92-14.02,1.36-19.73.68-11.75-1.39-21.25-19.75-21.25-19.75-2.36-3.23-6.51-10.06-6.51-10.06,0,0-7.09-8.95-8.28-14.41-1.19-5.45.18-7.85.18-7.85,0,0,.22-.55.02-.75Z"/>
        <path class="cls-4" d="m132.27,289.41c-37.65,0-62.47-56.41-74.04-90.54-7.28.96-14.23,1.19-19.25.59-11.84-1.4-21.17-18.79-21.88-20.15-2.28-3.14-6.09-9.38-6.48-10.03-.6-.76-7.22-9.27-8.41-14.71-1.14-5.22-.02-7.87.23-8.37,0,0,0-.01,0-.02-1.67-1.84-2.96-5.65-2.23-8.89.53-2.34,2.03-4,4.34-4.81.55-.19,1.15-.29,1.78-.29,4.27,0,9.24,4.48,13.24,8.07,1.82,1.64,3.53,3.18,4.39,3.5,2.15.81,12.87,1.1,18.99,1.17-3.22-2.76-9.63-8.74-11.53-14.12-1.03-2.92-.92-5.28.31-7.03,1.15-1.63,3.34-2.6,5.85-2.6.24,0,.48,0,.71.03,2.22.17,6.47,2.88,11.79,6.4,2.14,1.41,4.16,2.75,5.14,3.21,1.22.57,4.41.89,7.79,1.23,4.41.45,9.41.95,13.22,2.18,7.07,2.28,12.25,9.97,12.47,10.3l2.12,3.92,6.82,14.46,34.71,60.8,42.66-61.83c.16-.24.45-.39.73-.37.29,0,.55.17.7.42l31.37,53.17c.14.23.16.52.05.77-.08.18-8.03,18.55-21.21,36.67-17.53,24.11-36.33,36.86-54.37,36.86Zm-73.46-92.33c.36,0,.69.23.8.58,11.33,33.63,35.83,90.05,72.66,90.05,40.74,0,71.28-66.36,73.85-72.11l-30.48-51.65-42.67,61.85c-.17.24-.42.38-.74.37-.29-.01-.56-.17-.7-.43l-35.41-62.03-6.81-14.46-2.07-3.84s-5.03-7.46-11.53-9.55c-3.64-1.18-8.55-1.67-12.87-2.11-3.83-.39-6.85-.69-8.33-1.38-1.1-.51-3.08-1.82-5.36-3.33-3.81-2.52-9.03-5.97-10.99-6.13-.19-.01-.38-.02-.58-.02-.73,0-3.22.14-4.46,1.88-.9,1.27-.93,3.12-.1,5.48,2.35,6.67,12.73,14.8,12.84,14.88.29.22.4.49.28.83-.12.34-.44.46-.8.46h0c-1.91,0-18.77.03-21.97-1.18-1.15-.44-2.82-1.88-4.92-3.77-3.58-3.22-8.49-7.61-12.1-7.61-.43,0-.84.08-1.22.21-1.75.61-2.84,1.82-3.24,3.59-.61,2.67.55,6.11,1.96,7.52.53.53.3,1.34.18,1.66-.01.04-.03.08-.05.11,0,.01-1.17,2.26-.09,7.25,1.13,5.2,8.04,13.97,8.11,14.06.02.03.04.06.06.09.04.07,4.16,6.84,6.47,10,.03.03.05.07.07.11.09.18,9.43,17.98,20.6,19.3,5.03.6,12.13.34,19.52-.68.04,0,.08,0,.12,0Z"/>
      </g>
      <g>
        <g>
          <path class="cls-4" d="m22.58,169.69c3.54-.83,8,3.31,10.58,7.84.55.96.97,1.75,1.31,2.41,1.74-.95,9.36-1.9,10.28-2.02.14-.02.26.08.28.22.02.14-.08.26-.22.28-3.47.42-9.08,1.31-10.12,1.96.97,1.96,1,2.5,1,2.57,0,.14-.12.25-.26.25-.14,0-.25-.12-.25-.26,0-.03-.08-.97-2.47-5.17-2.42-4.26-6.76-8.36-10.02-7.6-3.52.83-4.91,4.46-3.92,10.22.02.14-.07.27-.2.29-.07.01-.15,0-.2-.05-.05-.04-.08-.09-.09-.15-1.05-6.06.48-9.9,4.3-10.79Z"/>
          <path class="cls-5" d="m35.44,183.44h-.02c-.37,0-.67-.23-.66-.6h0s-.16-.94-2.41-4.9c-2.12-3.72-5.83-7.45-8.83-7.45-.25,0-.49.04-.72.09-3.27.77-4.55,4.23-3.59,9.74.03.18,0,.36-.11.51-.1.15-.26.25-.44.28-.02,0-.09.01-.11.01-.15,0-.3-.05-.42-.15-.13-.1-.21-.25-.24-.41-1.09-6.32.55-10.32,4.62-11.28.33-.08.68-.12,1.04-.12,3.7,0,7.69,4.1,10,8.16.42.74.8,1.43,1.13,2.06,2.35-.93,9.21-1.78,10.04-1.88.41-.01.71.25.75.59.04.37-.22.71-.59.75-3.83.47-8.19,1.21-9.6,1.74.78,1.64.86,2.12.86,2.29,0,.36-.31.57-.68.57Z"/>
        </g>
        <g>
          <path class="cls-4" d="m12.65,155.5c5.93-2,10.32,2.68,11.42,5.13,1.08,2.4,6.27,7.83,7.02,8.6,1.85-.28,7.26-1.05,7.88-.78.13.06.19.2.13.33-.05.13-.2.19-.33.13-.42-.14-4.3.32-7.74.84-.08.01-.16-.01-.22-.07-.24-.25-6.02-6.19-7.21-8.84-1.04-2.31-5.2-6.75-10.8-4.86-.94.32-1.65.96-2.1,1.9-1.76,3.67.81,10.77.84,10.84.05.13-.02.27-.15.32-.09.03-.18.01-.24-.04-.03-.03-.06-.06-.08-.11-.11-.3-2.67-7.37-.82-11.23.51-1.07,1.32-1.79,2.39-2.16Z"/>
          <path class="cls-5" d="m31,170.18c-.18,0-.36-.07-.48-.21-.62-.64-6.1-6.32-7.29-8.96-.74-1.65-3.6-5.06-7.71-5.06-.85,0-1.71.15-2.57.44-.83.28-1.46.85-1.86,1.68-1.68,3.5.83,10.44.85,10.51.13.35-.05.74-.4.87-.23.08-.48.04-.66-.11-.09-.07-.17-.18-.21-.29-.11-.31-2.73-7.54-.8-11.56.56-1.18,1.45-1.98,2.64-2.38,1-.34,2.01-.51,3-.51,4.6,0,7.93,3.6,8.95,5.86,1,2.22,5.74,7.23,6.79,8.33,1.82-.27,5.7-.81,7.2-.81.34,0,.55.03.7.09.34.15.5.55.36.89-.14.33-.55.5-.88.36,0,0-.06,0-.15,0-1.06,0-4.51.43-7.36.86-.02,0-.08,0-.1,0Z"/>
        </g>
        <g>
          <path class="cls-4" d="m3.8,145.89c1.27-1.28,3.58-1.96,6.03-1.77,3.04.23,5.78,1.72,7.52,4.1,3.22,4.39,5.54,6.2,5.96,6.52l9.03-.66c.14-.01.26.09.27.23,0,.14-.09.26-.23.27l-9.12.67c-.06,0-.11-.01-.16-.04-.1-.07-2.53-1.76-6.15-6.68-1.65-2.26-4.26-3.68-7.15-3.89-2.3-.17-4.46.45-5.63,1.63-.09.09-.24.1-.34.02,0,0-.01-.01-.02-.02-.1-.1-.1-.26,0-.36Z"/>
          <path class="cls-5" d="m23.23,155.66c-.14,0-.27-.04-.38-.12-.27-.18-2.69-1.93-6.25-6.78-1.58-2.16-4.08-3.51-6.84-3.72-2.19-.17-4.23.42-5.3,1.5-.24.24-.64.26-.9.05-.18-.17-.25-.34-.25-.52s.07-.35.2-.48c1.35-1.35,3.79-2.09,6.36-1.9,3.16.24,6.02,1.8,7.83,4.27,2.93,4,5.1,5.73,5.74,6.23l8.87-.75h0c.4,0,.69.38.72.73.03.37-.25.74-.63.77l-9.12.69s-.04.03-.05.03Z"/>
        </g>
        <g>
          <path class="cls-4" d="m71.95,173.41c5.78.75,10.37,2.51,10.41,2.53.13.05.19.2.14.32-.05.13-.2.19-.32.14-.18-.07-18.16-6.88-28.09.94-.09.07-.22.07-.31,0-.01-.01-.03-.02-.04-.04-.09-.11-.07-.27.04-.35,5.32-4.19,12.81-4.24,18.16-3.54Z"/>
          <path class="cls-5" d="m53.94,177.83c-.16,0-.31-.05-.43-.15-.03-.02-.09-.09-.11-.12-.1-.13-.15-.31-.13-.49.02-.18.11-.34.25-.45,3.34-2.63,7.87-3.97,13.45-3.97,1.61,0,3.3.11,5.03.34,5.75.75,10.32,2.48,10.51,2.55.17.07.3.19.38.36.07.16.08.35.01.52-.13.33-.53.52-.87.39-.07-.03-7.31-2.79-15.14-2.79-5.23,0-9.45,1.23-12.53,3.66-.12.09-.27.15-.42.15Z"/>
        </g>
      </g>
      <path class="cls-4" d="m333.76,35.04l4.6-1.63-4.7-1.44c-1.4-.32-2.5-1.4-2.85-2.8l-1.7-6.93-1.36,6.88c-.29,1.45-1.39,2.6-2.82,2.95l-4.33,1.65,4.27,1.35c1.49.3,2.66,1.45,2.98,2.93l1.44,6.71,1.56-6.81c.33-1.44,1.47-2.56,2.91-2.87Z"/>
      <path class="cls-4" d="m133.99,162.12l6.97-2.47-7.13-2.18c-2.13-.49-3.8-2.13-4.32-4.25l-2.58-10.51-2.07,10.43c-.44,2.2-2.11,3.95-4.28,4.48l-6.56,2.5,6.48,2.05c2.26.45,4.04,2.2,4.52,4.45l2.18,10.18,2.37-10.34c.5-2.19,2.22-3.88,4.41-4.35Z"/>
      <path class="cls-6" d="m381.59,159.14l8.79-3.11-8.98-2.75c-2.68-.61-4.78-2.69-5.44-5.36l-3.25-13.25-2.61,13.15c-.55,2.77-2.66,4.98-5.4,5.65l-8.27,3.15,8.16,2.59c2.85.56,5.09,2.77,5.7,5.61l2.75,12.83,2.98-13.03c.63-2.76,2.8-4.9,5.56-5.49Z"/>
      <path class="cls-6" d="m188.54,35.94l5.12-1.81-5.23-1.6c-1.56-.36-2.79-1.57-3.17-3.12l-1.89-7.72-1.52,7.66c-.32,1.62-1.55,2.9-3.15,3.29l-4.82,1.83,4.76,1.51c1.66.33,2.97,1.61,3.32,3.27l1.6,7.48,1.74-7.59c.37-1.61,1.63-2.85,3.24-3.2Z"/>
      <g>
        <path class="cls-6" d="m502.31,145.8c2.44-2.43,4.44-10.39-1.59-12.5-6.03-2.11-15.67,10.08-18.83,11.28-3.15,1.19-21.68,1.24-21.68,1.24,0,0,10.66-8.29,13.12-15.27,2.46-6.98-2.64-8.74-6-8.47-3.36.26-13.68,8.16-16.64,9.53-2.96,1.38-14.23,1.24-21.11,3.45-6.87,2.21-12.02,9.96-12.02,9.96l-2.08,3.86v.03s-6.8,14.4-6.8,14.4l-35.41,62.03-43.43-62.94-31.37,53.17s31.37,73.01,74.8,73.01c37.69,0,62.54-58.19,73.47-90.63,6.63.92,14.02,1.36,19.73.68,11.75-1.39,21.25-19.75,21.25-19.75,2.36-3.23,6.51-10.06,6.51-10.06,0,0,7.09-8.95,8.28-14.41,1.19-5.45-.18-7.85-.18-7.85,0,0-.22-.55-.02-.75Z"/>
        <path class="cls-4" d="m373.27,289.41c-18.04,0-36.84-12.74-54.37-36.86-13.17-18.12-21.13-36.49-21.21-36.67-.11-.25-.09-.53.05-.77l31.37-53.17c.15-.25.41-.41.7-.42.29-.03.56.13.73.37l42.66,61.83,34.74-60.85,6.75-14.34,2.11-3.93c.26-.39,5.44-8.08,12.51-10.36,3.82-1.23,8.81-1.73,13.22-2.18,3.37-.34,6.56-.66,7.79-1.23.99-.46,3.01-1.79,5.14-3.21,5.32-3.52,9.57-6.23,11.79-6.4.23-.02.47-.03.71-.03,2.51,0,4.69.97,5.85,2.6,1.24,1.75,1.34,4.11.31,7.03-1.9,5.38-8.31,11.36-11.53,14.12,6.12-.07,16.84-.35,18.99-1.17.86-.32,2.57-1.87,4.39-3.5,4-3.6,8.97-8.07,13.24-8.07.62,0,1.22.1,1.78.29,2.31.81,3.81,2.47,4.34,4.81.74,3.24-.56,7.05-2.23,8.89,0,0,0,.01,0,.02.25.5,1.36,3.15.23,8.37-1.18,5.44-7.81,13.96-8.41,14.71-.39.64-4.2,6.88-6.48,10.03-.71,1.35-10.03,18.75-21.88,20.15-1.87.22-3.99.33-6.3.33h0c-3.91,0-8.38-.32-12.95-.93-11.57,34.14-36.4,90.54-74.05,90.54Zm-73.85-73.81c2.57,5.75,33.11,72.11,73.85,72.11,36.83,0,61.33-56.42,72.66-90.05.13-.39.52-.63.92-.57,4.74.66,9.38,1,13.42,1h0c2.25,0,4.3-.11,6.1-.32,11.18-1.32,20.5-19.12,20.6-19.3.02-.04.04-.08.07-.11,2.31-3.17,6.42-9.94,6.47-10,.02-.03.04-.06.06-.09.07-.09,6.98-8.86,8.11-14.06,1.09-4.99-.08-7.24-.09-7.26-.02-.03-.04-.07-.05-.1-.13-.32-.36-1.13.17-1.66,1.42-1.41,2.57-4.84,1.97-7.51-.4-1.76-1.49-2.97-3.24-3.58-.37-.13-.78-.2-1.22-.2-3.62,0-8.52,4.41-12.1,7.64-2.11,1.9-3.77,3.28-4.92,3.72-3.21,1.21-20.06,1.18-21.97,1.18h0c-.36,0-.69-.12-.8-.46-.12-.34,0-.67.28-.89.1-.08,10.49-8.19,12.84-14.85.83-2.37.8-4.2-.1-5.47-1.24-1.75-3.73-1.88-4.46-1.88-.2,0-.39.01-.58.03-1.96.15-7.18,3.61-10.99,6.13-2.29,1.51-4.26,2.82-5.36,3.33-1.48.69-4.51,1-8.33,1.38-4.33.44-9.23.93-12.87,2.11-6.51,2.1-11.53,9.54-11.58,9.62l-2.04,3.79-6.78,14.38-35.44,62.09c-.14.25-.41.41-.7.43-.31.02-.57-.13-.74-.37l-42.67-61.85-30.48,51.65Z"/>
      </g>
      <path class="cls-4" d="m256.98,3.04s10.62-5.31,23.26.31c5.51,2.45,20.5,13.77,23.26,32.44,2.75,18.67,24.79,58.45,24.79,58.45,0,0-10.1,10.4-19.58,14.38-9.49,3.98-18.67,7.34-18.67,7.34l-7.34-15.3,2.14,15.61s-55.08,4.28-67.63,1.84c-12.55-2.45-16.52-4.9-16.52-4.9l6.43-14.69-8.57,13.16-17.75-12.55s19.58-20.81,24.48-35.8c4.9-14.99,4.28-77.73,51.72-60.28Z"/>
      <path class="cls-2" d="m202.71,203.05c-6.34,9.41-12.53,19.4-17.99,28.89-.18.01-.38.01-.56.02-26.98,1.15-46.19-18.19-53.29-26.7,10.94-19.25,21.57-35.05,22.07-35.79l24.88,16.79,24.89,16.78Z"/>
      <g>
        <path class="cls-6" d="m227.78,62.41s-8.67-8.86-15.96-6.24c-7.29,2.62-8.27,18.33-.43,21.39,7.84,3.06,17.24-3.08,17.24-3.08l-.85-12.07Z"/>
        <path class="cls-4" d="m216.17,79.26h0c-1.83,0-3.54-.31-5.09-.91-4.52-1.76-6.06-6.96-6.01-11.24.06-4.71,2.08-10.17,6.46-11.74.99-.35,2.04-.53,3.15-.53,6.79,0,13.43,6.69,13.71,6.98.14.14.23.33.24.53l.85,12.07c.02.31-.12.6-.38.77-.26.17-6.32,4.07-12.92,4.07Zm-1.49-22.73c-.91,0-1.77.15-2.58.43-3.08,1.1-5.27,5.28-5.33,10.16-.05,3.71,1.22,8.19,4.93,9.64,1.35.53,2.86.79,4.48.79,5.15,0,10.12-2.69,11.57-3.54l-.79-11.23c-1.17-1.12-6.83-6.26-12.27-6.26Z"/>
      </g>
      <g>
        <path class="cls-7" d="m319.66,240.5s37.91-8.21,56.24-33.17c0,0-41.19-75.24-59.56-80.38-4.73-1.32-37.94-8.08-37.94-8.08l-51.9,2.21c-2.82.35-48.91,12.93-55.82,18.11-10.77,8.08-16.16,30.35-26.93,43.33-10.77,12.97-15.92,18.85-15.92,18.85,0,0,1.03,1.53,3.02,3.91,7.1,8.5,26.31,27.85,53.29,26.7.18-.01.38-.01.56-.02,1.07-.04,2.19-.09,3.36-.13.15.26.24.4.24.4,0,0-5.63,30.11-8.57,43.82-2.94,13.71-8.32,48.65-8.32,48.65,0,0,3.95,3.26,19.13-.66,15.18-3.92,6.09-11.27,29.59-11.27s54.07,18.68,108.9,2.03c0,0-11.41-77.47-10.01-86.65l.64,12.37Z"/>
        <path class="cls-4" d="m177.82,326.79c-5.01,0-6.75-1.31-6.93-1.46-.23-.19-.34-.49-.3-.78.05-.35,5.42-35.12,8.33-48.7,2.67-12.45,7.62-38.76,8.45-43.17-.9.03-1.77.07-2.61.1-.08,0-.19,0-.3.01h-.25c-.8.04-1.58.06-2.35.06-26.22,0-44.85-18.92-51.64-27.05-1.99-2.38-3.03-3.91-3.07-3.98-.22-.32-.19-.75.06-1.04.05-.06,5.27-6.02,15.9-18.83,4.74-5.71,8.46-13.31,12.05-20.67,4.57-9.36,8.9-18.2,15.02-22.8,7.07-5.31,52.76-17.84,56.22-18.27l51.97-2.21c.06,0,.14,0,.2.02,1.36.28,33.29,6.77,38,8.09,18.5,5.17,58.39,77.7,60.07,80.79.16.29.14.64-.06.91-17.05,23.23-51.26,32.18-56.16,33.37,2.25,24.43,9.36,72.85,9.45,73.46.06.42-.19.81-.59.94-15.39,4.67-29.96,6.94-44.54,6.94-16.47,0-29.78-2.88-41.53-5.43-8.69-1.88-16.19-3.51-23.08-3.51-13.51,0-15.89,2.41-18.64,5.21-2.01,2.05-4.29,4.36-10.74,6.03-5.03,1.3-9.39,1.96-12.95,1.96Zm-5.46-2.56c.68.31,2.33.87,5.46.87,3.41,0,7.63-.64,12.52-1.9,5.99-1.55,8.01-3.59,9.95-5.57,3.02-3.07,5.62-5.72,19.85-5.72,7.07,0,14.66,1.64,23.44,3.55,11.66,2.53,24.88,5.39,41.17,5.39,14.19,0,28.38-2.18,43.35-6.66-1.22-8.36-11.25-77.35-9.91-86.18.07-.43.45-.74.88-.72.44.02.78.37.81.8l.58,11.35c5.99-1.49,38.04-10.31,54.44-32.18-3.54-6.4-41.72-74.72-58.78-79.5-4.52-1.27-35.74-7.63-37.77-8.04l-51.8,2.2c-3.65.46-48.78,13.02-55.34,17.94-5.8,4.35-10.03,13.01-14.52,22.18-3.64,7.44-7.4,15.14-12.27,21-8.91,10.74-14.03,16.67-15.49,18.36.46.63,1.34,1.8,2.6,3.31,6.83,8.18,25.93,27.52,52.6,26.39.08,0,.18,0,.28-.01.09,0,.18,0,.26-.01,1.09-.04,2.21-.09,3.38-.13.32-.02.61.15.77.42.14.24.22.38.23.38.11.18.15.39.11.6-.06.3-5.67,30.28-8.57,43.84-2.69,12.57-7.51,43.43-8.22,48.02Z"/>
      </g>
      <g>
        <path class="cls-6" d="m299.04,54.35c-3.88-1-7.84,1.1-10.76,3.35l.02-.1c-.03.06-.05.11-.07.14-.02.02-.04.03-.07.05-.58-.56-32.11-37.48-33.32-38.99l-34.2,38.34c1.51,13.75,2.69,30.7,15.39,38.9l-.25.05s-.26,20.97-2.1,22.01c-1.83,1.05-8.12,2.88-8.12,2.88,0,0,3.14,17.56,29.61,15.99,26.47-1.57,25.95-18.35,25.95-18.35,0,0-8.12-1.31-9.43-3.15-.98-1.37-.35-15.17.03-22.06.48-.39.96-.79,1.41-1.19,5.36-4.79,9.18-11.01,11.46-17.8,2.21,1.03,10.41,4.42,16.86,1.18,7.52-3.77,5.09-19.33-2.41-21.26Z"/>
        <path class="cls-4" d="m251.9,137.91c-23.89,0-27.14-16.62-27.17-16.78-.08-.43.18-.84.6-.96,1.7-.5,6.38-1.95,7.88-2.77.92-1.27,1.6-11.61,1.73-21.07-11.8-8.11-13.44-23.41-14.9-36.93l-.23-2.16c-.03-.24.05-.48.21-.66l34.2-38.34c.17-.19.41-.3.66-.28.25,0,.48.12.64.32,1.24,1.56,28.68,33.68,32.77,38.37,3.94-2.9,7.69-3.96,10.98-3.11,4.5,1.16,7.02,6.4,7.52,11.09.45,4.26-.6,9.58-4.94,11.75-1.93.97-4.16,1.46-6.63,1.46h0c-4.15,0-8.03-1.36-10.11-2.25-2.44,6.83-6.37,12.79-11.4,17.28-.37.33-.76.66-1.15.98-.78,14.34-.58,20.37-.15,21.17.75,1.04,5.64,2.26,8.86,2.78.4.06.7.41.71.81,0,.18.24,17.62-26.74,19.22-1.13.07-2.25.1-3.33.1Zm-25.32-16.35c.88,3.09,5.49,14.65,25.32,14.65,1.04,0,2.13-.03,3.23-.1,22.54-1.34,24.89-13.68,25.12-16.79-2.31-.41-7.98-1.59-9.25-3.36-.35-.49-1.28-1.79-.12-22.6.01-.24.13-.46.31-.61.47-.38.94-.77,1.38-1.17,5.02-4.48,8.9-10.51,11.22-17.43.08-.23.25-.41.47-.51.22-.09.47-.09.69.01,1.59.74,5.78,2.47,10.25,2.47h0c2.21,0,4.18-.43,5.87-1.27,3.56-1.78,4.4-6.36,4.01-10.05-.52-4.85-3.09-8.81-6.25-9.62-2.92-.75-6.33.35-10.03,3.2,0,0-.02.01-.02.02,0,0-.02.01-.02.02-.33.26-.88.29-1.18,0-.52-.5-28.03-32.69-32.75-38.3l-33.3,37.32.19,1.79c1.44,13.39,3.07,28.56,14.77,36.11.29.19.44.54.37.88-.03.17-.12.33-.24.44-.14,9.68-.69,21.14-2.52,22.19-1.52.87-5.77,2.2-7.53,2.73Z"/>
      </g>
      <path class="cls-4" d="m285.57,306.09c3.84,0,7.65-.24,11.29-.81.24-.04.41-.27.37-.52-.04-.24-.26-.41-.52-.37-23.4,3.65-53.84-6.36-54.14-6.47-.25-.07-.49.05-.57.28-.08.24.05.49.28.57.26.08,22.23,7.31,43.28,7.31Z"/>
      <path class="cls-4" d="m236.81,95.33c6.28,4.22,22.37,3.93,27.94,0,0,0-9.03,11.74-29.26,10.21l1.33-10.21Z"/>
      <path class="cls-4" d="m287.33,68.88c-.15,0-.31-.04-.45-.13-.4-.25-.52-.77-.28-1.17,2.38-3.86,5.09-6.07,8.04-6.57,3.37-.57,5.77,1.35,5.87,1.43.36.3.42.83.12,1.19-.3.36-.83.42-1.19.12-.02-.02-1.94-1.52-4.55-1.07-2.44.42-4.75,2.37-6.85,5.78-.16.26-.44.4-.72.4Z"/>
      <path class="cls-4" d="m293.9,67.93c-.27,0-.54-.13-.7-.37l-2.52-3.7c-.26-.39-.16-.92.22-1.18.39-.26.91-.16,1.18.22l2.52,3.71c.26.39.16.91-.22,1.18-.15.1-.31.15-.48.15Z"/>
      <path class="cls-4" d="m222.02,69.47c-.32,0-.63-.18-.77-.5-1.23-2.69-2.83-4.33-4.74-4.88-2.69-.77-5.21.88-5.23.9-.39.26-.92.15-1.18-.23-.26-.39-.16-.91.23-1.18.13-.09,3.17-2.1,6.63-1.13,2.43.68,4.39,2.64,5.84,5.81.19.43,0,.93-.42,1.12-.11.05-.23.08-.35.08Z"/>
      <path class="cls-4" d="m252.45,70.79c-.13,0-.26-.03-.38-.09-.81-.42-1.6-1.02-2.32-1.8-1.02-1.1-1.27-2.71-.63-4.11,1.27-2.77,2.51-6.68,2.53-6.71.14-.45.62-.7,1.07-.55.45.14.69.62.55,1.07-.05.16-1.29,4.04-2.6,6.91-.35.76-.22,1.66.33,2.24.59.63,1.21,1.12,1.85,1.44.42.21.58.72.37,1.14-.15.29-.45.46-.76.46Z"/>
      <path class="cls-4" d="m272.18,47.67c-.35-.3-.76-.52-1.16-.6-2.05-.43-4.16-.79-6.24-.49-.92.13-3.1.8-2.54,2.1.3.69,1.69.93,2.3,1.08,1.92.46,3.91.56,5.87.68.54.03,1.1.05,1.6-.16,1.49-.62,1.06-1.86.17-2.61Z"/>
      <path class="cls-4" d="m233.49,46.27c.36-.28.79-.47,1.2-.53,2.07-.31,4.2-.55,6.25-.15.92.18,3.05.97,2.42,2.24-.33.67-1.74.84-2.36.95-1.94.35-3.94.34-5.9.35-.54,0-1.1,0-1.59-.24-1.45-.7-.95-1.91-.02-2.62Z"/>
      <g>
        <g>
          <path class="cls-4" d="m482.96,169.69c-3.54-.83-8,3.31-10.58,7.84-.55.96-.97,1.75-1.31,2.41-1.74-.95-9.36-1.9-10.28-2.02-.14-.02-.26.08-.28.22-.02.14.08.26.22.28,3.47.42,9.08,1.31,10.12,1.96-.97,1.96-1,2.5-1,2.57,0,.14.12.25.26.25.14,0,.25-.12.25-.26,0-.03.08-.97,2.47-5.17,2.42-4.26,6.76-8.36,10.02-7.6,3.52.83,4.91,4.46,3.92,10.22-.02.14.07.27.2.29.07.01.15,0,.2-.05.05-.04.08-.09.09-.15,1.05-6.06-.48-9.9-4.3-10.79Z"/>
          <path class="cls-5" d="m470.1,183.44c-.36,0-.67-.2-.68-.57,0-.23.11-.78.86-2.34-1.41-.53-5.77-1.25-9.6-1.72-.37-.04-.63-.37-.59-.74.04-.34.33-.59.67-.59.9.1,7.77.96,10.12,1.89.33-.64.71-1.32,1.13-2.06,2.31-4.06,6.3-8.16,10-8.16.36,0,.71.04,1.04.12,4.07.96,5.71,4.96,4.62,11.28-.03.16-.11.31-.24.41-.12.1-.27.15-.43.15-.02,0-.09,0-.12-.01-.17-.03-.33-.13-.44-.28-.1-.15-.14-.33-.11-.51.95-5.51-.33-8.97-3.59-9.73-.23-.05-.47-.08-.72-.08-3.01,0-6.72,3.76-8.83,7.48-2.26,3.98-2.41,4.96-2.41,5,0,.13-.06.21-.18.34-.12.13-.29.12-.47.12h-.02Z"/>
        </g>
        <g>
          <path class="cls-4" d="m492.89,155.5c-5.93-2-10.32,2.68-11.42,5.13-1.08,2.4-6.27,7.83-7.02,8.6-1.85-.28-7.26-1.05-7.88-.78-.13.06-.19.2-.13.33.05.13.2.19.33.13.42-.14,4.3.32,7.74.84.08.01.16-.01.22-.07.24-.25,6.02-6.19,7.21-8.84,1.04-2.31,5.2-6.75,10.8-4.86.94.32,1.65.96,2.1,1.9,1.76,3.67-.81,10.77-.84,10.84-.05.13.02.27.15.32.09.03.18.01.24-.04.03-.03.06-.06.08-.11.11-.3,2.67-7.37.82-11.23-.51-1.07-1.32-1.79-2.39-2.16Z"/>
          <path class="cls-5" d="m474.54,170.18s-.09,0-.11,0c-2.85-.42-6.3-.86-7.36-.86-.09,0-.15,0-.19,0-.04.02-.13.04-.22.04-.27,0-.52-.16-.62-.41-.14-.34.01-.74.35-.89.15-.06.36-.09.7-.09,1.5,0,5.38.54,7.2.81,1.05-1.09,5.79-6.11,6.79-8.33,1.02-2.27,4.34-5.86,8.95-5.86.99,0,2,.17,3,.51,1.19.4,2.08,1.2,2.64,2.38,1.92,4.02-.69,11.25-.8,11.56-.04.12-.12.22-.21.29-.18.15-.43.19-.66.11-.17-.06-.3-.19-.38-.35-.08-.16-.08-.35-.02-.52.71-1.93,2.25-7.59.85-10.51-.4-.83-1.02-1.4-1.86-1.68-.86-.29-1.72-.44-2.57-.44-4.11,0-6.97,3.41-7.71,5.06-1.15,2.57-6.27,7.91-7.28,8.96-.13.14-.3.21-.49.21Z"/>
        </g>
        <g>
          <path class="cls-4" d="m501.74,145.89c-1.27-1.28-3.58-1.96-6.03-1.77-3.04.23-5.78,1.72-7.52,4.1-3.22,4.39-5.54,6.2-5.96,6.52l-9.03-.66c-.14-.01-.26.09-.27.23,0,.14.09.26.23.27l9.12.67c.06,0,.11-.01.16-.04.1-.07,2.53-1.76,6.15-6.68,1.65-2.26,4.26-3.68,7.15-3.89,2.3-.17,4.46.45,5.63,1.63.09.09.24.1.34.02,0,0,.01-.01.02-.02.1-.1.1-.26,0-.36Z"/>
          <path class="cls-5" d="m482.31,155.66s-.04,0-.05,0l-9.12-.67c-.37-.03-.65-.35-.62-.72.03-.35.32-.63.67-.63l8.92.65c.64-.5,2.81-2.34,5.74-6.33,1.82-2.47,4.67-4.03,7.83-4.27,2.58-.19,5.01.55,6.36,1.9.13.13.2.3.2.48,0,.18-.07.35-.2.48-.01.01-.05.04-.06.06-.11.09-.26.14-.41.14h0c-.18,0-.35-.07-.48-.2-1.08-1.08-3.12-1.68-5.3-1.5-2.77.21-5.26,1.56-6.84,3.72-3.57,4.87-5.98,6.6-6.25,6.78-.11.08-.24.12-.38.12Z"/>
        </g>
        <g>
          <path class="cls-4" d="m433.59,173.41c-5.78.75-10.37,2.51-10.41,2.53-.13.05-.19.2-.14.32.05.13.2.19.32.14.18-.07,18.16-6.88,28.09.94.09.07.22.07.31,0,.01-.01.03-.02.04-.04.09-.11.07-.27-.04-.35-5.32-4.19-12.81-4.24-18.16-3.54Z"/>
          <path class="cls-5" d="m451.6,177.83c-.15,0-.3-.05-.42-.15-3.09-2.43-7.3-3.66-12.53-3.66-7.82,0-15.07,2.76-15.14,2.79-.34.13-.74-.05-.87-.39-.07-.17-.06-.35.01-.52.07-.16.21-.29.38-.36.19-.07,4.77-1.8,10.51-2.55,1.73-.22,3.42-.34,5.03-.34,5.59,0,10.11,1.33,13.45,3.97.14.11.23.27.25.45.02.18-.03.36-.14.5-.02.03-.09.09-.12.12-.11.09-.26.14-.42.14Z"/>
        </g>
      </g>
      <path class="cls-4" d="m188.31,233.05s-.05,0-.08,0c-.47-.05-.81-.46-.76-.93.51-5.28-.21-9.44-.98-13.85-.9-5.18-1.84-10.53-1.06-18.38,1.43-14.52,5.74-28.14,5.78-28.27.14-.45.62-.69,1.07-.55.45.14.69.62.55,1.07-.04.13-4.3,13.59-5.71,27.92-.75,7.63.16,12.86,1.04,17.92.79,4.52,1.53,8.8,1,14.31-.04.44-.41.77-.84.77Z"/>
      <path class="cls-4" d="m319.03,229.44c-.47,0-.85-.61-.85-1.08,0-3.2.23-5.92.45-8.43.44-4.89.89-10-.44-19.78-1.99-14.59-10.5-34.31-10.59-34.51-.19-.43,0-.94.44-1.13.43-.19.93,0,1.12.43.09.2,8.69,20.1,10.71,34.92,1.36,9.97.9,15.12.45,20.1-.22,2.48-.45,5.27-.45,8.4,0,.47-.38,1.08-.85,1.08h0Z"/>
      <g>
        <line class="cls-3" x1="316.13" y1="169.48" x2="313.7" y2="179.24"/>
        <path class="cls-5" d="m313.7,180.09c-.07,0-.14,0-.21-.02-.45-.11-.73-.57-.62-1.03l2.43-9.76c.11-.45.57-.73,1.03-.62.45.11.73.57.62,1.03l-2.43,9.76c-.1.39-.44.64-.82.64Z"/>
      </g>
      <g>
        <line class="cls-3" x1="185.99" y1="174.36" x2="189" y2="179.24"/>
        <path class="cls-5" d="m189.01,180.09c-.28,0-.56-.14-.72-.4l-3.01-4.88c-.25-.4-.12-.92.28-1.17.4-.25.92-.12,1.17.28l3.01,4.88c.25.4.12.92-.28,1.17-.14.09-.29.13-.45.13Z"/>
      </g>
      <path class="cls-4" d="m256.39,143.97c-15.06,0-27.33-7.77-27.49-7.87-.39-.25-.51-.78-.25-1.17.25-.39.78-.51,1.17-.25.2.13,19.99,12.64,39.75,5.3.44-.16.93.06,1.09.5.16.44-.06.93-.5,1.09-4.67,1.74-9.35,2.41-13.77,2.41Z"/>
      <path class="cls-4" d="m179.32,223.27c-20.41,0-36.23-17.22-36.39-17.4-.31-.35-.29-.88.06-1.2.35-.31.88-.29,1.2.06.16.17,16.11,17.5,36.33,16.82.5-.04.86.35.88.82.02.47-.35.86-.82.88-.42.01-.84.02-1.25.02Z"/>
      <path class="cls-4" d="m269.87,210.82c-.06,0-.13,0-.2-.02-3.41-.81-11.95-3.38-19.44-5.86-15.02-4.97-14.92-5.72-14.79-6.58.14-.99,1.34-.92,1.91-.89,7.04.38,44.21-1.59,44.58-1.61.47-.03.87.33.89.8.02.47-.33.87-.8.89-1.39.07-31.38,1.66-42.16,1.66-.21,0-.42,0-.62,0,6.49,2.7,24.64,8.47,30.82,9.94.46.11.74.56.63,1.02-.09.39-.44.65-.82.65Z"/>
      <path class="cls-4" d="m335.42,227.03c-.4,0-.76-.29-.83-.7-.08-.46.22-.9.69-.98,10.36-1.85,26.22-16.87,26.38-17.02.34-.32.88-.31,1.2.03.32.34.31.88-.03,1.2-.66.63-16.4,15.52-27.25,17.46-.05,0-.1.01-.15.01Z"/>
      <path class="cls-6" d="m277.56,23.78c-1.06,1.52-.04,3.71-.72,5.43-.81,2.07-3.74,2.49-5.74,1.52-2-.97-3.38-2.84-4.96-4.41-1.09-1.08-2.31-2.06-3.15-3.34-.84-1.28-1.25-2.99-.54-4.35.99-1.91,3.57-2.24,5.72-2.13,1.7.09,3.64.24,4.86-.95,1.22-1.19,1.13-3.16.75-4.82-.39-1.66-.99-3.38-.51-5.02,5.86,2.57,11.09,6.56,15.12,11.54,1.15,1.42,2.1,3.79.6,4.84-.76.53-1.79.38-2.72.28-2.95-.32-5.99.17-8.7,1.39Z"/>
      <path class="cls-6" d="m232.41,23.78c1.06,1.52.04,3.71.72,5.43.81,2.07,3.74,2.49,5.74,1.52,2-.97,3.38-2.84,4.96-4.41,1.09-1.08,2.31-2.06,3.15-3.34.84-1.28,1.25-2.99.54-4.35-.99-1.91-3.57-2.24-5.72-2.13-1.7.09-3.64.24-4.86-.95-1.22-1.19-1.13-3.16-.75-4.82.39-1.66.99-3.38.51-5.02-5.86,2.57-11.09,6.56-15.12,11.54-1.15,1.42-2.1,3.79-.6,4.84.76.53,1.79.38,2.72.28,2.95-.32,5.99.17,8.7,1.39Z"/>
      <rect class="cls-4" x="155.55" y="239.68" width="184.23" height="108.95" rx="8.83" ry="8.83"/>
      <path class="cls-6" d="m261.77,297.24c.89-3.96.55-8.45-2.01-11.6-6.61-8.13-26.92-7.45-24.28,6.47.53,2.8,1.99,5.36,3.77,7.59,1.95,2.44,4.35,4.6,7.22,5.82,3.77,1.6,8.55,1.37,11.69-1.46,1.94-1.75,3.04-4.27,3.61-6.83Z"/>
      <rect class="cls-1" x="290.06" y="71.99" width="5.59" height="10.54" rx="2.17" ry="2.17"/>
      <rect class="cls-1" x="213.07" y="71.99" width="5.59" height="10.54" rx="2.17" ry="2.17"/>
      <path class="cls-4" d="m253.22,83.61c-3.6,0-6.32-1.18-6.38-1.2-.43-.19-.62-.69-.43-1.12.19-.43.69-.62,1.12-.43.39.17,9.65,4.14,15.96-4.12.29-.37.82-.45,1.19-.16.37.28.44.82.16,1.19-3.56,4.67-8.03,5.84-11.62,5.84Z"/>
      <path class="cls-4" d="m266.07,79.16c-.17,0-.34-.05-.49-.16l-3.65-2.59c-.38-.27-.47-.8-.2-1.18.27-.38.8-.47,1.18-.2l3.65,2.59c.38.27.47.8.2,1.18-.17.23-.43.36-.69.36Z"/>
      <g>
        <g>
          <path class="cls-4" d="m396.15,44.91v4.73h48.01v67.67h-96.08V44.91c0-1.73,1.4-3.13,3.13-3.13h41.82c1.73,0,3.13,1.4,3.13,3.13Z"/>
          <g>
            <path class="cls-1" d="m393.23,47.83v4.73h48.01v64.36h-96.08V47.83c0-1.73,1.4-3.13,3.13-3.13h41.82c1.73,0,3.13,1.4,3.13,3.13Z"/>
            <path class="cls-4" d="m441.24,117.76h-96.08c-.47,0-.85-.38-.85-.85V47.83c0-2.19,1.78-3.98,3.98-3.98h41.82c2.19,0,3.98,1.78,3.98,3.98v3.88h47.16c.47,0,.85.38.85.85v64.36c0,.47-.38.85-.85.85Zm-95.24-1.7h94.39v-62.66h-47.16c-.47,0-.85-.38-.85-.85v-4.73c0-1.26-1.02-2.28-2.28-2.28h-41.82c-1.26,0-2.28,1.02-2.28,2.28v68.24Z"/>
          </g>
        </g>
        <g>
          <g>
            <path class="cls-7" d="m419.6,42.14l22.11-12.77,22.13,12.77v25.53l-22.13,12.78-22.11-12.78v-25.53Z"/>
            <path class="cls-4" d="m441.71,81.43l-22.96-13.27v-26.51l22.96-13.26,22.98,13.26v26.51l-22.98,13.27Zm-21.26-14.25l21.26,12.29,21.28-12.29v-24.55l-21.28-12.28-21.26,12.28v24.55Z"/>
          </g>
          <g>
            <path class="cls-6" d="m439.92,67.88c-1.27,0-2.48-.56-3.32-1.53l-9.26-10.92c-1.55-1.82-1.32-4.57.5-6.13,1.84-1.55,4.57-1.32,6.13.5l5.82,6.88,10.09-12.77c1.49-1.89,4.22-2.21,6.1-.71,1.88,1.49,2.21,4.22.71,6.1l-13.39,16.93c-.8,1.02-2.03,1.63-3.33,1.65h-.05Z"/>
            <path class="cls-5" d="m439.98,68.73h-.06c-1.52,0-2.97-.66-3.96-1.82l-9.26-10.93c-1.84-2.18-1.57-5.46.6-7.32.95-.8,2.14-1.23,3.36-1.23,1.53,0,2.97.67,3.96,1.83l5.15,6.09,9.45-11.95c.99-1.26,2.48-1.98,4.07-1.98,1.16,0,2.31.4,3.22,1.13,1.08.86,1.77,2.1,1.93,3.47.16,1.38-.22,2.74-1.09,3.82l-13.39,16.93c-.94,1.21-2.44,1.95-3.99,1.97h0Zm-9.32-19.61c-.82,0-1.63.29-2.27.83-1.46,1.25-1.64,3.47-.4,4.93l9.26,10.92c.67.78,1.64,1.23,2.67,1.23l.05.85v-.85c1.03-.01,2.03-.51,2.67-1.32l13.4-16.94c.58-.73.84-1.64.73-2.57-.11-.93-.57-1.76-1.31-2.34-.62-.5-1.37-.76-2.16-.76-1.07,0-2.07.49-2.74,1.33l-10.73,13.58-6.49-7.67c-.67-.78-1.64-1.23-2.67-1.23Z"/>
          </g>
        </g>
      </g>
      <g>
        <g>
          <rect class="cls-10" x="144.61" y="271.47" width="37.09" height="155.83" transform="translate(-185.92 513.18) rotate(-90.11)"/>
          <path class="cls-4" d="m84.42,368.91l-.07-38.78,157.52-.29.07,38.78-157.52.29Zm1.63-37.09l.07,35.39,154.13-.28-.06-35.39-154.13.28Z"/>
        </g>
        <path class="cls-4" d="m222.94,339.36c5.53-.01,10.03,4.42,10.04,9.89.01,5.47-4.47,9.92-10,9.93-5.53.01-10.03-4.42-10.04-9.89s4.47-9.92,10-9.93Z"/>
        <g>
          <rect class="cls-6" x="152.42" y="318.83" width="18.54" height="61.1" transform="translate(-187.39 511.72) rotate(-90.11)"/>
          <path class="cls-4" d="m131.16,359.56c-.47,0-.85-.38-.85-.85l-.03-18.54c0-.23.09-.44.25-.6.16-.16.37-.25.6-.25l61.1-.11h0c.47,0,.85.38.85.85l.03,18.54c0,.23-.09.44-.25.6-.16.16-.37.25-.6.25l-61.1.11h0Zm.82-18.54l.03,16.85,59.4-.11-.03-16.85-59.4.11Z"/>
        </g>
        <rect class="cls-4" x="175.97" y="342.23" width="18.54" height="14.22" transform="translate(-163.75 535.23) rotate(-90.11)"/>
        <rect class="cls-9" x="148.75" y="344.85" width="25.71" height="2.29" rx=".8" ry=".8" transform="translate(-.64 .3) rotate(-.11)"/>
        <rect class="cls-9" x="156.88" y="351.06" width="17.59" height="2.29" rx=".8" ry=".8" transform="translate(-.65 .31) rotate(-.11)"/>
        <rect class="cls-9" x="135.95" y="344.89" width="9.39" height="2.29" rx=".8" ry=".8" transform="translate(-.64 .26) rotate(-.11)"/>
      </g>
      <g>
        <g>
          <rect class="cls-1" x="99.02" y="302.34" width="117.49" height="27.96" transform="translate(-.59 .29) rotate(-.11)"/>
          <path class="cls-4" d="m99.05,331.26c-.47,0-.85-.38-.85-.85l-.05-27.96c0-.23.09-.44.25-.6.16-.16.37-.25.6-.25l117.49-.21h0c.47,0,.85.38.85.85l.05,27.96c0,.23-.09.44-.25.6-.16.16-.37.25-.6.25l-117.49.21h0Zm.8-27.96l.05,26.27,115.79-.21-.05-26.27-115.79.21Z"/>
        </g>
        <path class="cls-4" d="m202.85,308.77c4.17,0,7.56,3.33,7.57,7.46,0,4.13-3.37,7.48-7.54,7.49-4.17,0-7.56-3.33-7.57-7.46,0-4.13,3.37-7.48,7.54-7.49Z"/>
        <g>
          <rect class="cls-6" x="149.68" y="293.29" width="13.98" height="46.07" transform="translate(-159.36 473.58) rotate(-90.11)"/>
          <path class="cls-4" d="m133.65,324.2c-.47,0-.85-.38-.85-.85l-.03-13.98c0-.23.09-.44.25-.6.16-.16.37-.25.6-.25l46.07-.08h0c.47,0,.85.38.85.85l.03,13.98c0,.23-.09.44-.25.6-.16.16-.37.25-.6.25l-46.07.08h0Zm.82-13.98l.02,12.28,44.37-.08-.02-12.28-44.37.08Z"/>
        </g>
        <rect class="cls-4" x="167.43" y="310.93" width="13.98" height="10.73" transform="translate(-141.55 491.3) rotate(-90.11)"/>
        <path class="cls-9" d="m147.71,312.91h17.79c.44,0,.8.36.8.8v.14c0,.44-.36.8-.8.8h-17.79c-.44,0-.8-.36-.8-.8v-.14c0-.44.36-.8.8-.8Z" transform="translate(-.69 .35) rotate(-.13)"/>
        <path class="cls-9" d="m153.84,317.59h11.67c.44,0,.8.36.8.8v.14c0,.44-.36.8-.8.8h-11.67c-.44,0-.8-.36-.8-.8v-.14c0-.44.36-.8.8-.8Z" transform="translate(-.47 .23) rotate(-.08)"/>
        <path class="cls-9" d="m138.05,312.94h5.49c.44,0,.8.36.8.8v.14c0,.44-.36.8-.8.8h-5.49c-.44,0-.8-.36-.8-.8v-.14c0-.44.36-.8.8-.8Z" transform="translate(-.69 .31) rotate(-.13)"/>
      </g>
      <g>
        <rect class="cls-4" x="63.92" y="35.72" width="104.01" height="85.52"/>
        <g>
          <rect class="cls-6" x="60.93" y="32.66" width="104.01" height="85.52"/>
          <path class="cls-4" d="m164.94,119.03H60.93c-.47,0-.85-.38-.85-.85V32.66c0-.47.38-.85.85-.85h104.01c.47,0,.85.38.85.85v85.52c0,.47-.38.85-.85.85Zm-103.16-1.7h102.31V33.51H61.78v83.83Z"/>
        </g>
        <g>
          <path class="cls-10" d="m89.09,48.61c.2-5.47-4.06-10.06-9.53-10.26-5.47-.2-10.06,4.06-10.26,9.53-.2,5.47,4.06,10.06,9.53,10.26,5.47.2,10.06-4.06,10.26-9.53Z"/>
          <path class="cls-6" d="m77.97,53.59s-.02,0-.02,0c-.39.02-.76-.17-1.03-.44l-4.07-4.16c-.53-.54-.53-1.43.02-1.96.54-.53,1.42-.53,1.95.01l3.02,3.08,4.84-5.6c.5-.58,1.37-.64,1.95-.14.58.5.64,1.37.14,1.95l-5.82,6.77c-.25.29-.6.49-.98.51Z"/>
        </g>
        <g>
          <path class="cls-10" d="m89.09,74.75c.2-5.47-4.06-10.06-9.53-10.26-5.47-.2-10.06,4.06-10.26,9.53-.2,5.47,4.06,10.06,9.53,10.26,5.47.2,10.06-4.06,10.26-9.53Z"/>
          <path class="cls-6" d="m77.97,79.73s-.02,0-.02,0c-.39.02-.76-.17-1.03-.44l-4.07-4.16c-.53-.54-.53-1.43.02-1.96.54-.53,1.42-.53,1.95.01l3.02,3.08,4.84-5.6c.5-.58,1.37-.64,1.95-.14.58.5.64,1.37.14,1.95l-5.82,6.77c-.25.29-.6.49-.98.51Z"/>
        </g>
        <g>
          <path class="cls-10" d="m89.09,102.03c.2-5.47-4.06-10.06-9.53-10.26-5.47-.2-10.06,4.06-10.26,9.53-.2,5.47,4.06,10.06,9.53,10.26,5.47.2,10.06-4.06,10.26-9.53Z"/>
          <path class="cls-6" d="m77.97,107.01s-.02,0-.02,0c-.39.02-.76-.17-1.03-.44l-4.07-4.16c-.53-.54-.53-1.43.02-1.96.54-.53,1.42-.53,1.95.01l3.02,3.08,4.84-5.6c.5-.58,1.37-.64,1.95-.14.58.5.64,1.37.14,1.95l-5.82,6.77c-.25.29-.6.49-.98.51Z"/>
        </g>
        <g>
          <path class="cls-4" d="m118.32,46.44h-23.77c-.47,0-.85-.53-.85-1s.38-1,.85-1h23.77c.47,0,.85.53.85,1s-.38,1-.85,1Z"/>
          <path class="cls-4" d="m126.81,53.44h-32.25c-.47,0-.85-.53-.85-1s.38-1,.85-1h32.25c.47,0,.85.53.85,1s-.38,1-.85,1Z"/>
          <path class="cls-4" d="m151.42,46.44h-29.71c-.47,0-.85-.53-.85-1s.38-1,.85-1h29.71c.47,0,.85.53.85,1s-.38,1-.85,1Z"/>
        </g>
        <g>
          <path class="cls-4" d="m118.32,71.44h-23.77c-.47,0-.85-.03-.85-.5s.38-.5.85-.5h23.77c.47,0,.85.03.85.5s-.38.5-.85.5Z"/>
          <path class="cls-4" d="m126.81,81.44h-32.25c-.47,0-.85-.53-.85-1s.38-1,.85-1h32.25c.47,0,.85.53.85,1s-.38,1-.85,1Z"/>
          <path class="cls-4" d="m151.42,71.44h-29.71c-.47,0-.85-.03-.85-.5s.38-.5.85-.5h29.71c.47,0,.85.03.85.5s-.38.5-.85.5Z"/>
        </g>
        <g>
          <path class="cls-4" d="m118.32,99.44h-23.77c-.47,0-.85-.53-.85-1s.38-1,.85-1h23.77c.47,0,.85.53.85,1s-.38,1-.85,1Z"/>
          <path class="cls-4" d="m126.81,107.44h-32.25c-.47,0-.85-.53-.85-1s.38-1,.85-1h32.25c.47,0,.85.53.85,1s-.38,1-.85,1Z"/>
          <path class="cls-4" d="m151.42,99.44h-29.71c-.47,0-.85-.53-.85-1s.38-1,.85-1h29.71c.47,0,.85.53.85,1s-.38,1-.85,1Z"/>
        </g>
      </g>
      <g>
        <g>
          <circle class="cls-6" cx="350.06" cy="338.94" r="39.33" transform="translate(-49.22 59.66) rotate(-9.1)"/>
          <path class="cls-4" d="m350.06,379.97c-22.62,0-41.03-18.41-41.03-41.03s18.41-41.03,41.03-41.03,41.03,18.41,41.03,41.03-18.41,41.03-41.03,41.03Zm0-78.67c-20.75,0-37.64,16.88-37.64,37.63s16.88,37.64,37.64,37.64,37.63-16.88,37.63-37.64-16.88-37.63-37.63-37.63Z"/>
        </g>
        <path class="cls-10" d="m351.28,341.12l30.35-11.07s-8.44-24.63-31.11-24.03l.75,35.1Z"/>
        <rect class="cls-4" x="348.4" y="308.54" width="3.32" height="40.51" rx="1.41" ry="1.41"/>
        <path class="cls-4" d="m365.39,336.56h0c-.31-.86-1.27-1.3-2.13-.99l-20.22,7.41c-.86.31-1.3,1.27-.99,2.13l.2.56c.2.55.82.84,1.37.64l20.78-7.62c.86-.31,1.3-1.27.99-2.13Z"/>
        <g>
          <path class="cls-4" d="m383.21,341.65h0c0-.23-.17-.42-.39-.43l-8.1-.35c-.23,0-.42.17-.43.39h0c0,.23.17.42.39.43l8.1.35c.23,0,.42-.17.43-.39Z"/>
          <path class="cls-4" d="m381.23,332.97h0c-.04-.15-.19-.24-.34-.19l-5.29,1.44c-.15.04-.24.19-.19.34h0c.04.15.19.24.34.19l5.29-1.44c.15-.04.24-.19.19-.34Z"/>
          <path class="cls-4" d="m381.89,337.57h0c0-.15-.13-.28-.28-.27l-5.48.11c-.15,0-.28.13-.27.28h0c0,.15.13.28.28.27l5.48-.11c.15,0,.28-.13.27-.28Z"/>
          <path class="cls-4" d="m376.74,358.49h0c.13-.18.09-.44-.1-.57l-6.62-4.68c-.18-.13-.44-.09-.57.1h0c-.13.18-.09.44.1.57l6.62,4.68c.18.13.44.09.57-.1Z"/>
          <path class="cls-4" d="m380.97,345.8h0c.02-.15-.08-.29-.23-.32l-5.41-.86c-.15-.02-.29.08-.32.23h0c-.02.15.08.29.23.32l5.41.86c.15.02.29-.08.32-.23Z"/>
          <path class="cls-4" d="m379.78,350.13h0c.05-.15-.04-.3-.18-.35l-5.22-1.65c-.15-.05-.3.04-.35.18h0c-.05.15.04.3.18.35l5.22,1.65c.15.05.3-.04.35-.18Z"/>
          <path class="cls-4" d="m377.84,354.35h0c.08-.13.04-.3-.09-.38l-4.66-2.88c-.13-.08-.3-.04-.38.09h0c-.08.13-.04.3.09.38l4.66,2.88c.13.08.3.04.38-.09Z"/>
          <path class="cls-4" d="m362.47,370.15h0c.21-.09.3-.33.21-.54l-3.25-7.43c-.09-.21-.33-.3-.54-.21h0c-.21.09-.3.33-.21.54l3.25,7.43c.09.21.33.3.54.21Z"/>
          <path class="cls-4" d="m372.65,361.46h0c.1-.12.08-.29-.03-.39l-4.19-3.53c-.12-.1-.29-.08-.39.03h0c-.1.12-.08.29.03.39l4.19,3.53c.12.1.29.08.39-.03Z"/>
          <path class="cls-4" d="m369.39,364.55h0c.11-.1.13-.28.03-.39l-3.62-4.11c-.1-.11-.28-.13-.39-.03h0c-.11.1-.13.28-.03.39l3.62,4.11c.1.11.28.13.39.03Z"/>
          <path class="cls-4" d="m365.55,367.16h0c.14-.07.19-.24.12-.37l-2.5-4.87c-.07-.14-.24-.19-.37-.12h0c-.14.07-.19.24-.12.37l2.5,4.87c.07.14.24.19.37.12Z"/>
          <path class="cls-4" d="m343.47,371.84h0c.22.05.44-.1.49-.32l1.68-7.93c.05-.22-.1-.44-.32-.49h0c-.22-.05-.44.1-.49.32l-1.68,7.93c-.05.22.1.44.32.49Z"/>
          <path class="cls-4" d="m356.8,370.69h0c.15-.04.24-.19.2-.34l-1.35-5.31c-.04-.15-.19-.24-.34-.2h0c-.15.04-.24.19-.2.34l1.35,5.31c.04.15.19.24.34.2Z"/>
          <path class="cls-4" d="m352.36,371.32h0c.15-.02.26-.15.25-.3l-.55-5.45c-.02-.15-.15-.26-.3-.25h0c-.15.02-.26.15-.25.3l.55,5.45c.02.15.15.26.3.25Z"/>
          <path class="cls-4" d="m332.49,311.29h0c.19-.12.45-.06.56.14l4.21,6.93c.12.19.06.45-.14.57h0c-.19.12-.45.06-.56-.14l-4.21-6.93c-.12-.19-.06-.45.14-.56Z"/>
          <path class="cls-4" d="m345.45,307.96h0c.15-.01.29.1.3.25l.49,5.46c.01.15-.1.29-.25.3h0c-.15.01-.29-.1-.3-.25l-.49-5.46c-.01-.15.1-.29.25-.3Z"/>
          <path class="cls-4" d="m341.05,308.84h0c.15-.04.3.06.34.2l1.29,5.33c.04.15-.06.3-.2.34h0c-.15.04-.3-.06-.34-.2l-1.29-5.33c-.04-.15.06-.3.2-.34Z"/>
          <path class="cls-4" d="m336.7,310.48h0c.14-.07.3-.02.38.12l2.55,4.85c.07.14.02.3-.12.38h0c-.14.07-.3.02-.38-.12l-2.55-4.85c-.07-.14-.02-.3.12-.38Z"/>
          <path class="cls-4" d="m320.59,324.32h0c.1-.2.35-.28.55-.17l7.19,3.75c.2.1.28.35.17.55h0c-.1.2-.35.28-.55.17l-7.19-3.75c-.2-.1-.28-.35-.17-.55Z"/>
          <path class="cls-4" d="m329.96,314.76h0c.12-.09.3-.06.39.06l3.24,4.42c.09.12.06.3-.06.39h0c-.12.09-.3.06-.39-.06l-3.24-4.42c-.09-.12-.06-.3.06-.39Z"/>
          <path class="cls-4" d="m326.65,317.8h0c.11-.11.29-.11.39,0l3.86,3.89c.11.11.11.29,0,.39h0c-.11.11-.29.11-.39,0l-3.86-3.89c-.11-.11-.11-.29,0-.39Z"/>
          <path class="cls-4" d="m323.78,321.45h0c.08-.13.25-.17.38-.09l4.69,2.83c.13.08.17.25.09.38h0c-.08.13-.25.17-.38.09l-4.69-2.83c-.13-.08-.17-.25-.09-.38Z"/>
          <path class="cls-4" d="m317.09,341.94h0c-.01-.23.16-.42.39-.43l8.1-.42c.23-.01.42.16.43.39h0c.01.23-.16.42-.39.43l-8.1.42c-.23.01-.42-.16-.43-.39Z"/>
          <path class="cls-4" d="m320.31,328.95h0c.06-.14.22-.21.37-.15l5.03,2.16c.14.06.21.22.15.37h0c-.06.14-.22.21-.37.15l-5.03-2.16c-.14-.06-.21-.22-.15-.37Z"/>
          <path class="cls-4" d="m319,333.25h0c.04-.15.19-.24.34-.2l5.3,1.4c.15.04.24.19.2.34h0c-.04.15-.19.24-.34.2l-5.3-1.4c-.15-.04-.24-.19-.2-.34Z"/>
          <path class="cls-4" d="m318.39,337.86h0c0-.15.13-.28.28-.27l5.48.06c.15,0,.28.13.28.28h0c0,.15-.13.28-.28.27l-5.48-.06c-.15,0-.28-.13-.27-.28Z"/>
          <path class="cls-4" d="m323.72,358.73h0c-.13-.18-.09-.44.09-.57l6.57-4.74c.18-.13.44-.09.57.09h0c.13.18.09.44-.09.57l-6.57,4.74c-.18.13-.44.09-.57-.09Z"/>
          <path class="cls-4" d="m319.38,346.07h0c-.03-.15.08-.29.23-.32l5.4-.91c.15-.03.29.08.32.23h0c.03.15-.08.29-.23.32l-5.4.91c-.15.03-.29-.08-.32-.23Z"/>
          <path class="cls-4" d="m320.61,350.39h0c-.05-.15.03-.3.18-.35l5.21-1.7c.15-.05.3.03.35.18h0c.05.15-.03.3-.18.35l-5.21,1.7c-.15.05-.3-.03-.35-.18Z"/>
          <path class="cls-4" d="m322.59,354.6h0c-.08-.13-.04-.3.09-.38l4.64-2.92c.13-.08.3-.04.38.09h0c.08.13.04.3-.09.38l-4.64,2.92c-.13.08-.3.04-.38-.09Z"/>
          <path class="cls-4" d="m327.84,361.66h0c-.1-.12-.09-.29.03-.39l4.16-3.57c.12-.1.29-.09.39.03h0c.1.12.09.29-.03.39l-4.16,3.57c-.12.1-.29.09-.39-.03Z"/>
          <path class="cls-4" d="m331.12,364.73h0c-.12-.1-.13-.28-.03-.39l3.58-4.15c.1-.12.28-.13.39-.03h0c.12.1.13.28.03.39l-3.58,4.15c-.1.12-.28.13-.39.03Z"/>
          <path class="cls-4" d="m334.99,367.3h0c-.14-.07-.19-.24-.12-.37l2.46-4.9c.07-.14.24-.19.37-.12h0c.14.07.19.24.12.37l-2.46,4.9c-.07.14-.24.19-.37.12Z"/>
          <path class="cls-4" d="m338.78,369.41h0c-.14-.06-.2-.23-.14-.37l2.2-5.02c.06-.14.23-.2.37-.14h0c.14.06.2.23.14.37l-2.2,5.02c-.06.14-.23.2-.37.14Z"/>
          <path class="cls-4" d="m348.22,371.33h0c-.15-.01-.27-.15-.25-.3l.5-5.46c.01-.15.15-.27.3-.25h0c.15.01.27.15.25.3l-.5,5.46c-.01.15-.15.27-.3.25Z"/>
        </g>
      </g>
      <path class="cls-4" d="m267.39,57.9c0-1.72-.76-3.11-1.69-3.11s-1.69,1.39-1.69,3.11.76,3.11,1.69,3.11,1.69-1.39,1.69-3.11Z"/>
      <path class="cls-4" d="m239.48,57.9c0-1.72-.76-3.11-1.69-3.11s-1.69,1.39-1.69,3.11.76,3.11,1.69,3.11,1.69-1.39,1.69-3.11Z"/>
    </g>
  </g>
</svg>