<?xml version="1.0" encoding="UTF-8"?>
<svg id="_레이어_2" data-name="레이어 2" xmlns="http://www.w3.org/2000/svg" viewBox="0 0 418.83 374.17">
  <defs>
    <style>
      .cls-1 {
        fill: #f2cf63;
      }

      .cls-1, .cls-2, .cls-3, .cls-4, .cls-5, .cls-6, .cls-7, .cls-8 {
        stroke-width: 0px;
      }

      .cls-2 {
        fill: #333;
      }

      .cls-3 {
        fill: #fff;
      }

      .cls-4 {
        fill: #f29c50;
      }

      .cls-5 {
        fill: #fc5e71;
      }

      .cls-6 {
        fill: #f2c9cc;
      }

      .cls-7 {
        fill: #ccd7f2;
      }

      .cls-8 {
        fill: #f29199;
      }
    </style>
  </defs>
  <g id="_迹_1" data-name="卵迹_1">
    <g>
      <path class="cls-6" d="m207.26,36.61c-31.35,12.53-59.77,34.38-93.34,37.18-15.17,1.26-30.66-1.51-45.55,1.65-30.51,6.48-45.26,34.98-48.72,63.56-2.66,21.98-.17,45.01,10.05,64.65,7.86,15.1,20.56,27.96,36.14,35.03,18.37,8.33,38.9,2.93,57.24,10.3,15.86,6.37,25.45,22.15,37.18,34.59,42.37,44.94,116.51,45,158.4-.55,13.51-14.7,22.7-32.88,29.83-51.53,25.5-66.66,32.44-165.67-48.06-197.24-27.82-10.91-59.61-9.78-87.75.3-1.82.65-3.63,1.34-5.43,2.06Z"/>
      <g>
        <path class="cls-3" d="m369.24,179.41c-14.25-9.73-28.57-19.34-45.12-23.39l-23.68,56.71-37.21-29.52-42.5,51.35s73.94,67.82,109.06,51.67c22.25-10.23,40.96-62.2,51.69-98.93-4.68-2.49-9.05-5.7-12.24-7.88Z"/>
        <path class="cls-2" d="m317.41,289.56h0c-37.53,0-94.82-52.16-97.24-54.38-.33-.31-.37-.82-.08-1.17l42.5-51.35c.3-.36.82-.41,1.18-.12l36.33,28.82,23.25-55.68c.16-.39.58-.6.99-.5,17.12,4.19,32.14,14.46,45.4,23.52.59.4,1.22.84,1.88,1.3,2.9,2.02,6.5,4.52,10.28,6.53.36.19.53.6.42.99-11.62,39.78-30.1,89.33-52.15,99.47-3.7,1.7-7.99,2.56-12.74,2.56Zm-95.5-55.09c6.3,5.65,60.64,53.39,95.5,53.39h0c4.51,0,8.56-.81,12.03-2.41,22.45-10.32,41.54-65.36,51.03-97.74-3.64-1.99-7.06-4.38-9.84-6.31-.66-.46-1.28-.89-1.87-1.29-12.95-8.85-27.61-18.86-44.14-23.09l-23.4,56.04c-.1.25-.31.43-.57.49-.26.06-.53,0-.74-.16l-36.56-29-41.45,50.08Z"/>
      </g>
      <path class="cls-2" d="m282.67,192.63s-12.54-8.64-45.39-40.2c-9.8-9.41-28.96-26.37-74.78-22.04l-58.77.16s-44.07,13.02-59.97,27.21c-5.32,4.75-9.45,10.99-12.75,17.77-6.32,13.01-9.56,28-12.21,38.4-.95,3.74-1.82,6.9-2.73,9.13-4.76,11.69-16.08,30.91-16.08,30.91l75.6,17.03s-1.79,13.3-1.47,24.66c.32,11.36-16.29,73.51-16.29,73.51l163.3.45,3.17-85.27s-7.07-38.71.87-38.99,31.55,21.61,31.55,21.61c-15.85-27.98,25.93-74.35,25.93-74.35Z"/>
      <path class="cls-2" d="m167.36,29.14c5.39-.5,10.28,3.1,11.43,8.38,1.45,6.66,1.54,15.26.89,23.04-1.02,12.28-7.12-22.3-7.12-22.3l-9.66-8.71,4.46-.41Z"/>
      <g>
        <g>
          <path class="cls-3" d="m170.98,77.37s7.4-11.18,15.67-9.89c8.27,1.29,12.53,17.78,4.84,22.63-7.7,4.85-18.94.26-18.94.26l-1.57-12.99Z"/>
          <path class="cls-2" d="m182.85,93.18c-5.59,0-10.42-1.95-10.62-2.03-.29-.12-.48-.38-.52-.68l-1.57-12.99c-.02-.2.02-.4.13-.57.28-.42,6.96-10.38,15.04-10.38.49,0,.99.04,1.47.11,4.93.77,8.18,6.12,9.2,11.09.93,4.51.36,10.32-4.05,13.1-2.48,1.56-5.54,2.35-9.09,2.35Zm-9.52-3.43c1.31.47,5.23,1.73,9.52,1.73,3.23,0,5.98-.7,8.18-2.09,3.67-2.31,4.11-7.36,3.29-11.32-1.07-5.19-4.28-9.21-7.8-9.75-.4-.06-.81-.09-1.21-.09-6.51,0-12.38,7.85-13.45,9.37l1.47,12.16Z"/>
        </g>
        <g>
          <path class="cls-3" d="m186.43,92.45c-6.8,1.22-13.75-1.58-14.04-1.69-.14-.06-.24-.19-.26-.34l-1.57-12.99c-.01-.1.01-.2.07-.28.24-.36,5.87-8.76,12.94-10.03,1.07-.19,2.13-.21,3.14-.05,4.73.74,7.85,5.93,8.85,10.75.9,4.37.36,9.99-3.86,12.65-1.53.96-3.31,1.63-5.28,1.98Z"/>
          <path class="cls-2" d="m182.82,93.6c-5.66,0-10.55-1.98-10.75-2.07-.42-.17-.72-.56-.78-1.02l-1.57-12.99c-.04-.3.03-.6.2-.85.25-.37,6.07-9.07,13.5-10.4,1.16-.21,2.32-.22,3.43-.05,5.13.8,8.5,6.31,9.55,11.42.96,4.65.35,10.65-4.23,13.54-1.62,1.02-3.5,1.73-5.59,2.1-1.19.21-2.45.32-3.76.32Zm-9.87-3.55c1.02.39,5.15,1.85,9.87,1.85,1.21,0,2.38-.1,3.46-.29,1.87-.33,3.54-.96,4.98-1.87,3.85-2.43,4.32-7.67,3.48-11.76-.94-4.53-3.82-9.41-8.15-10.08-.92-.15-1.89-.13-2.87.05-6.35,1.14-11.54,8.43-12.3,9.53l1.52,12.58Z"/>
        </g>
      </g>
      <g>
        <path class="cls-3" d="m181.6,66.74c-3.65-12.47-2.24-22.1-5.4-27.92,0,0-11.89-26-49.32-13.79-.45.15-.9.3-1.34.46-19,6.89-29.27,23.66-21.73,41.63l6.48,15.46c-3.03-1.06-6.46-1.52-9.47-.13-7.58,3.5-7.1,19.88,1.63,22.19,5.95,1.58,12.26-1.35,15.68-3.37l1,2.38-3.27,18.64c-.55,3.16-2.55,5.87-5.4,7.35l-2.6,1.35s30.72,29.06,48.03,20.46c17.31-8.6,7.7-20.62,7.7-20.62l-2.59-.79,1.39-14.27c34.05-10.13,22.76-36.9,19.21-49.01Z"/>
        <path class="cls-2" d="m148.63,153.88h0c-17.59,0-40.39-21.37-41.35-22.28-.2-.19-.3-.46-.26-.74.04-.27.21-.51.45-.64l2.6-1.35c2.6-1.34,4.45-3.86,4.95-6.74l3.23-18.39-.53-1.26c-3.02,1.68-7.26,3.46-11.7,3.46-1.31,0-2.59-.16-3.78-.48-4.15-1.1-7.03-5.25-7.52-10.84-.43-4.92,1.18-10.83,5.75-12.94,2.36-1.09,5.18-1.24,8.35-.43l-5.79-13.8c-3.34-7.96-3.41-16.05-.19-23.38,3.78-8.62,11.74-15.5,22.42-19.38.45-.16.9-.32,1.36-.47,6.72-2.19,13.1-3.31,18.94-3.31,23.12,0,31.33,17.37,31.41,17.54,1.67,3.07,2.11,7.23,2.62,12.04.49,4.67,1.06,9.97,2.82,15.99.26.88.56,1.84.88,2.87,2.64,8.46,6.63,21.24.87,32.04-3.62,6.79-10.67,11.83-20.99,15l-1.27,13.02,1.93.59c.16.05.31.15.41.28.16.2,3.87,4.92,2.58,10.74-.98,4.41-4.53,8.17-10.56,11.16-2.24,1.11-4.81,1.68-7.64,1.68Zm-39.3-22.7c4.41,3.96,24.27,21,39.3,21.01h0c2.56,0,4.88-.51,6.89-1.5,5.55-2.76,8.8-6.12,9.66-10.01.98-4.42-1.46-8.22-2.1-9.12l-2.32-.71c-.39-.12-.64-.49-.6-.89l1.39-14.27c.03-.34.27-.63.6-.73,10.16-3.02,17.06-7.84,20.52-14.33,5.42-10.17,1.56-22.55-.99-30.74-.32-1.04-.63-2.01-.89-2.9-1.81-6.17-2.38-11.55-2.88-16.29-.51-4.82-.92-8.64-2.45-11.46-.1-.22-7.9-16.61-29.89-16.61-5.67,0-11.86,1.08-18.42,3.22-.44.14-.88.3-1.31.45-10.24,3.71-17.85,10.27-21.44,18.46-3.02,6.9-2.95,14.52.2,22.04l6.48,15.46c.13.31.07.67-.16.91s-.58.33-.9.22c-3.44-1.2-6.45-1.26-8.83-.16-3.8,1.76-5.14,7.06-4.77,11.25.33,3.81,2.15,8.26,6.26,9.35,1.05.28,2.18.42,3.35.42,4.49,0,8.83-2.01,11.68-3.7.21-.13.47-.15.7-.08.23.08.42.25.52.48l1,2.38c.06.15.08.32.05.48l-3.27,18.64c-.6,3.4-2.78,6.37-5.84,7.95l-1.52.79Z"/>
      </g>
      <path class="cls-2" d="m105,81.48l-9.87-27.48,24.5-9.5s-4.8,8.26-2.86,21.66c.73,5.05,1.36,9.02,2.46,11.81,4.98,12.67-2.16,7.37-5.26,6.77l-8.98-3.27Z"/>
      <path class="cls-2" d="m171.56,111.73c-10.38,3.43-28.22,2.5-35.61-1.48,0,0,12.13,9.61,25.73,9.92l.71-4.41,9.17-4.03Z"/>
      <path class="cls-2" d="m116.31,61.09c1.14-11.17,15.41-17.73,17.99-22.34,0,0,19.29,3.96,26.13-3.2,0,0,13.06,8.63,17.27,4.32s17.63-15.6,12.38-24.44c-5.25-8.84-21.21,1.43-21.21,1.43,0,0,9.56-12.38,2.35-16.13s-17.14,8.11-24.24,10.86c-7.1,2.75,1.81-5.96-5.05-9.17-6.86-3.22-13.04,1.74-20.12,11.9s-26.84,19.18-29.63,26.05c-5.45,13.42,9.7,26.42,9.7,26.42l14.43-5.69Z"/>
      <path class="cls-3" d="m83.72,273.75s-.1,0-.14,0l-7.72-1.69c-.23-.05-.37-.27-.32-.5.05-.23.27-.37.5-.32l7.28,1.59,7.68-56.77c.03-.23.24-.39.47-.36.23.03.39.24.36.47l-7.74,57.22c-.02.12-.08.22-.18.29-.06.04-.12.06-.19.07Z"/>
      <path class="cls-3" d="m88.87,235.29c-.08,0-.17,0-.25-.05-.2-.11-.28-.37-.16-.57l6.06-10.81c.11-.2.37-.28.57-.16.2.11.28.37.16.57l-6.06,10.81c-.07.12-.19.2-.32.21Z"/>
      <path class="cls-3" d="m77.85,180.77c-.17.03-.35-.05-.44-.2-9.08-15.57-31.47-22.7-31.69-22.77-.22-.07-.35-.31-.28-.53.07-.22.3-.35.53-.28.23.07,22.93,7.3,32.17,23.15.12.2.05.46-.15.58-.04.03-.09.04-.14.05Z"/>
      <path class="cls-2" d="m177.3,39.04c-.95.17-1.89.18-2.82-.04-.23-.05-.37-.28-.32-.51.05-.23.28-.37.51-.32,3.56.82,7.62-2.14,10.58-4.31.4-.29.79-.58,1.16-.84,4.05-2.87,7.42-5.7,7.79-11.14.18-2.76-.23-4.81-1.27-6.28-2.73-3.85-7.16-.96-10.39,1.16l-.73.47c-.2.13-.46.07-.58-.13-.13-.2-.07-.46.13-.58l.72-.47c3.32-2.17,8.34-5.45,11.54-.94,1.16,1.63,1.62,3.87,1.43,6.83-.39,5.82-3.92,8.77-8.14,11.77-.36.26-.75.54-1.15.83-2.36,1.73-5.39,3.94-8.44,4.49Z"/>
      <g>
        <g>
          <path class="cls-5" d="m377.51,205.8l-69.88-17.53s6.74-50.32,7.98-61.2c1.24-10.88,13.56-23.78,13.56-23.78,0,0,17.28-85.11,33.4-87.44,16.11-2.32,17.77,17.57,16.73,25.21-1.04,7.64-6.17,36.95-6.17,36.95,0,0,7.68-1.59,15.86,4.86,8.18,6.46,7.45,9.23,7.45,9.23,0,0,8.55,2.59,11.82,6.43,3.27,3.83,3.47,11.8,3.47,11.8,0,0,9.71,13.13,4.93,28.68-4.78,15.55-28.62,39.57-28.62,39.57l-7.82,28.27-2.69-1.04Z"/>
          <path class="cls-2" d="m380.2,207.7c-.1,0-.21-.02-.31-.06l-2.64-1.02-69.83-17.52c-.42-.11-.69-.51-.63-.94.07-.5,6.75-50.43,7.97-61.18,1.19-10.47,12.06-22.42,13.62-24.09,1.22-5.96,17.82-85.53,34.06-87.87,5.24-.76,9.52.68,12.62,4.23,5.11,5.85,5.84,16.32,5.07,21.93-.91,6.71-5.02,30.4-5.97,35.85.34-.03.75-.04,1.22-.04,2.81,0,8.37.68,14.13,5.22,6.25,4.93,7.55,7.89,7.76,9.27,2.04.67,8.71,3.08,11.63,6.5,3.12,3.66,3.59,10.6,3.66,12.07,1.3,1.85,9.47,14.34,4.9,29.21-4.64,15.08-26.42,37.47-28.68,39.76l-7.76,28.05c-.06.23-.22.42-.44.53-.12.06-.25.09-.38.09Zm-71.63-20.06l69.14,17.35s.07.02.1.03l1.82.7,7.57-27.36c.04-.14.11-.27.22-.37.24-.24,23.75-24.05,28.42-39.22,4.59-14.94-4.71-27.79-4.8-27.92-.1-.14-.16-.31-.17-.48,0-.08-.23-7.71-3.26-11.27-3.07-3.6-11.33-6.14-11.42-6.17-.44-.13-.69-.59-.57-1.03h0s.15-2.59-7.15-8.35c-5.35-4.22-10.49-4.85-13.08-4.85-1.3,0-2.08.16-2.08.16-.27.06-.56-.03-.76-.22s-.29-.48-.24-.75c.05-.29,5.14-29.38,6.16-36.92.72-5.3.07-15.16-4.67-20.59-2.71-3.1-6.45-4.34-11.1-3.67-12.73,1.84-27.91,63.26-32.69,86.77-.03.16-.11.3-.22.42-.12.13-12.14,12.82-13.33,23.29-1.14,10.04-7.03,54.14-7.88,60.46Z"/>
        </g>
        <g>
          <path class="cls-3" d="m376.31,196.63l-60.08-15.92c-.71-.19-1.24-.59-1.13-1.32,1.5-9.85,9.12-59.06,12.25-63.26,3.34-4.5,44.6-26.39,53.2-22.05,2.5,1.26,3.81,3.75,3.7,6.94-.28,7.8-9.19,19.79-28.05,28.15,3.89,5.32,14.55,23.61-4.49,43.94-.54.58-1.45.61-2.03.07-.58-.54-.61-1.45-.07-2.03,20.7-22.09,3.97-40.79,3.24-41.58-.32-.34-.45-.82-.35-1.28.1-.46.42-.84.85-1.02,20.17-8.44,27.81-20.37,28.02-26.34.05-1.42-.28-3.3-2.13-4.24-2.21-1.12-10.25.37-26.21,7.85-12.6,5.91-22.28,11.87-23.41,13.4-2.05,2.75-7.94,37.68-11.55,60.83l57.34,15.2,3.49-19.21c.06-.33.23-.61.48-.82.29-.24,28.58-24.28,30.15-38.2,1.7-15.04.41-19.41-6.31-21.19h-.04c-3.63-.97-14.37,11.42-21.01,24.4-4.34,8.5-3.87,11.3-3.53,11.56,1.4,1.08,2.92,1.37,4.62,1,6.96-1.54,15.1-14.63,17.64-19.53.36-.7,1.24-.99,1.94-.63.7.36.98,1.22.61,1.93-.4.77-9.87,18.84-19.56,20.98-2.55.56-4.89.03-6.98-1.58-2.4-1.85-1.47-6.98,2.76-15.25,5.16-10.09,17.62-28.07,24.47-26.06,9.16,2.71,9.96,9.74,8.29,24.49-1.61,14.27-27.17,36.8-30.81,39.94l-3.68,20.26c-.07.39-.23.46-.57.67-.34.21-.67,0-1.06-.11Z"/>
          <path class="cls-3" d="m335.38,112.69c-.77-.2-.96-.92-.76-1.68l8.82-33.28c.24-.92.14-2.3.53-3.84,5.44-21.65,12.56-47.21,21.09-52.24,1.55-.91,3-1.2,4.54-.79,3.64.97,7.76,6.21,1.92,40.57-3.12,18.36-7.69,36.39-7.74,36.57-.19.77-.95,1.04-1.72.84h-.02c-.76-.21-1.27-.79-1.07-1.55.05-.18,4.59-18.21,7.69-36.46,5.63-33.16,1.5-36.89.1-37.26-.77-.21-1.58-.03-2.46.49-8.59,5.07-16.7,38.07-19.82,50.47-.39,1.56-.55,2.9-.8,3.82l-8.82,33.28c-.2.77-.73,1.29-1.49,1.09Z"/>
          <path class="cls-3" d="m368.08,144.98c-1.13-.3-2.22-.91-3.2-1.94-5.91-6.22,2.36-17.19,11.12-28.8,8.44-11.2,17.31-20.8,24.99-15.22,5.77,4.19,5.21,11.14,4.1,14.22-.27.75-1.08,1.13-1.83.87-.74-.27-1.13-1.09-.87-1.83.1-.29,2.37-6.97-3.08-10.94-4.52-3.28-10.8,1.09-21.01,14.63-7.65,10.15-15.56,20.64-11.33,25.1,3.94,4.14,12.15-3.37,12.23-3.45.58-.54,1.49-.52,2.03.06.54.58.52,1.48-.06,2.03-.35.33-7.33,6.8-13.08,5.28Z"/>
          <path class="cls-3" d="m364.39,98.28l-2.17-1.88c6.35-7.3,15.82-16.22,24.8-9.42,6.78,5.14,4.03,13.59,1.63,17.35l-2.42-1.55,1.21.77-1.21-.77c.22-.35,5.41-8.69-.95-13.51-3.38-2.56-9.22-4.42-20.9,9.01Z"/>
          <path class="cls-3" d="m361.16,131.67c-3.19-.84-5.46-3.04-5.61-3.19l2.01-2.05c.18.18,4.48,4.29,8.8,1.98l1.35,2.53c-2.34,1.25-4.62,1.24-6.55.73Z"/>
        </g>
        <path class="cls-3" d="m365.1,67.65l-12.74-3.38.93-3.51,4.17,1.11,3.32-12.54-4.53-.21.95-3.6,9.17.55-4.5,16.97,4.14,1.1-.93,3.51Z"/>
      </g>
      <g>
        <g>
          <path class="cls-1" d="m318.54,220.93c-6.01-4.94-12.32-6.87-18.74-5.74-5.94,1.05-10.88,4.59-14.51,8.13l1.08-15.44-122.02-.95.81,15.07c-3.54-3.46-8.29-6.86-13.99-7.96-6.4-1.23-12.73.6-18.82,5.45-7.17,5.72-10.23,14-8.6,23.31,2.28,13.01,13.16,24.92,27.06,29.62,11.82,3.99,17.97,8.65,21.08,11.85,6.18,14.49,18.33,25.76,33.33,30.75,8.17,2.72,13.56,10.52,13.5,19.13l-.08,9.87c-.07,9.05-7.47,16.33-16.52,16.26-5.54-.04-10.07,4.42-10.11,9.96l-.02,2.59,64.16.5.02-2.59c.04-5.54-4.42-10.07-9.96-10.11h0c-9.05-.07-16.33-7.47-16.26-16.52l.08-9.87c.07-8.61,5.58-16.33,13.79-18.92,14.84-4.68,27.01-15.48,33.5-29.53,2.9-3.15,9.17-8.12,21.93-12.21,13.98-4.49,25.04-16.22,27.52-29.19,1.78-9.29-1.15-17.62-8.23-23.44Zm-165.7,45.5c-11.6-3.92-21.01-14.09-22.87-24.73-.86-4.91-.46-11.89,6.31-17.29,4.63-3.69,9.1-5.07,13.67-4.19,7.69,1.47,13.55,8.99,15.78,12.27l1.79,33.11c.15,2.73.51,5.41,1.04,8.02-3.91-2.43-9.02-4.92-15.72-7.19Zm167.73-23.24c-2.03,10.61-11.59,20.63-23.25,24.37-6.98,2.24-12.25,4.75-16.25,7.19.6-2.68,1.01-5.43,1.21-8.25l2.27-32.48c1.9-2.82,8.15-11.17,16.38-12.61,4.59-.8,9.03.64,13.61,4.41,6.69,5.5,6.98,12.49,6.04,17.38Z"/>
          <path class="cls-2" d="m256.15,374.17h0l-64.16-.5c-.23,0-.44-.09-.6-.25-.16-.16-.25-.38-.24-.6l.02-2.59c.05-5.96,4.93-10.8,10.88-10.8h.21c8.5,0,15.47-6.92,15.54-15.42l.08-9.87c.07-8.37-5.12-15.73-12.91-18.32-15.15-5.04-27.45-16.36-33.78-31.07-3.08-3.14-9.14-7.64-20.63-11.53-14.19-4.8-25.3-16.97-27.63-30.28-1.69-9.64,1.48-18.2,8.9-24.12,6.26-4.98,12.88-6.89,19.51-5.62,4.44.86,8.77,3.12,12.87,6.75l-.7-12.97c-.01-.23.07-.46.23-.63.16-.17.38-.26.61-.26h0l122.02.95c.23,0,.46.1.62.27.16.17.24.4.22.63l-.93,13.3c4.28-3.76,8.77-6.08,13.37-6.89,6.66-1.17,13.24.84,19.42,5.92,7.33,6.03,10.36,14.65,8.53,24.26-2.54,13.27-13.83,25.26-28.1,29.84-12.22,3.92-18.42,8.61-21.48,11.88-6.63,14.26-19,25.15-33.96,29.86-7.83,2.47-13.13,9.75-13.2,18.12l-.08,9.87c-.03,4.15,1.55,8.07,4.47,11.03,2.91,2.96,6.8,4.61,10.96,4.64,2.91.02,5.63,1.18,7.67,3.25,2.04,2.07,3.15,4.81,3.13,7.72l-.02,2.59c0,.22-.09.44-.25.6-.16.16-.37.24-.6.24Zm-63.31-2.19l62.47.49v-1.74c.03-2.45-.91-4.77-2.63-6.52-1.72-1.75-4.02-2.72-6.48-2.74-4.61-.04-8.92-1.86-12.15-5.14-3.23-3.28-4.99-7.62-4.95-12.23l.08-9.87c.07-9.11,5.85-17.03,14.39-19.72,14.55-4.59,26.57-15.19,32.99-29.08.04-.08.09-.16.15-.22,3.16-3.43,9.6-8.37,22.29-12.44,13.69-4.39,24.52-15.87,26.95-28.54,1.71-8.97-1.1-17.01-7.94-22.63-5.79-4.76-11.89-6.64-18.05-5.56-4.83.85-9.56,3.51-14.07,7.9-.25.25-.63.31-.95.16-.32-.15-.51-.48-.49-.83l1.01-14.54-120.21-.94.77,14.17c.02.35-.18.67-.5.82-.32.14-.69.08-.94-.17-4.32-4.23-8.89-6.84-13.56-7.74-6.14-1.18-12.27.61-18.13,5.28-6.92,5.51-9.86,13.51-8.29,22.5,2.23,12.71,12.88,24.35,26.5,28.96,11.95,4.04,18.24,8.79,21.41,12.07.07.07.13.16.17.26,6.12,14.34,18.08,25.37,32.82,30.27,8.49,2.82,14.15,10.84,14.08,19.94l-.08,9.87c-.07,9.43-7.81,17.11-17.24,17.11h-.14c-5.1,0-9.22,4.09-9.26,9.11v1.74Zm88.23-96.38c-.17,0-.35-.05-.49-.16-.28-.2-.41-.54-.33-.88.6-2.69,1-5.43,1.19-8.13l2.26-32.48c.01-.15.06-.29.14-.42,2.3-3.41,8.56-11.5,16.93-12.97,4.85-.85,9.5.65,14.29,4.59,7.01,5.77,7.32,13.08,6.34,18.2-2.08,10.9-11.88,21.19-23.83,25.02-6.21,1.99-11.61,4.38-16.06,7.11-.14.08-.29.13-.44.13Zm4.31-41.3l-2.25,32.26c-.15,2.16-.43,4.33-.84,6.49,4.22-2.39,9.18-4.51,14.77-6.3,11.38-3.65,20.71-13.41,22.68-23.72.89-4.67.62-11.33-5.75-16.57-4.4-3.62-8.58-4.99-12.92-4.22-7.77,1.36-13.83,9.34-15.69,12.06Zm-116.82,40.17c-.16,0-.31-.04-.45-.13-4.33-2.69-9.56-5.08-15.55-7.1-11.88-4.02-21.52-14.46-23.43-25.39-.9-5.13-.48-12.44,6.62-18.1,4.85-3.87,9.53-5.29,14.36-4.36,8.02,1.54,14.09,9.34,16.32,12.62.09.13.14.28.15.43l1.79,33.11c.14,2.58.48,5.23,1.02,7.89.07.33-.07.67-.35.87-.14.1-.31.15-.48.15Zm-21.26-53.65c-3.46,0-6.9,1.39-10.49,4.26-6.45,5.14-6.83,11.8-6.01,16.48,1.81,10.35,10.99,20.25,22.31,24.07,5.38,1.82,10.17,3.93,14.27,6.3-.36-2.12-.6-4.22-.71-6.28l-1.78-32.87c-2.21-3.21-7.85-10.33-15.1-11.72-.83-.16-1.67-.24-2.49-.24Z"/>
        </g>
        <g>
          <path class="cls-4" d="m223.19,142.71h5.08c.45,0,.81.36.81.81v127.37c0,.45-.36.81-.81.81h-5.08c-.45,0-.81-.36-.81-.81v-127.37c0-.45.36-.81.81-.81Z" transform="translate(16.77 431.32) rotate(-89.55)"/>
          <path class="cls-2" d="m289.39,211.91h-.01l-127.36-.99c-.44,0-.86-.18-1.17-.5-.31-.32-.48-.74-.48-1.18l.04-5.08c0-.91.75-1.65,1.66-1.65l127.38.99c.92,0,1.66.76,1.65,1.68l-.04,5.08c0,.91-.75,1.65-1.66,1.65Zm-127.32-7.7v5.04s127.29.96,127.29.96l.04-5.05-127.33-.96Z"/>
        </g>
        <g>
          <path class="cls-4" d="m221.18,246.2l-13.67,11.84-8.05-9.43,22.23-18.47,13.39.1-.53,67.7-13.77-.11.4-51.63Z"/>
          <path class="cls-2" d="m234.54,298.78h0l-13.77-.11c-.47,0-.85-.39-.84-.86l.39-49.75-12.25,10.62c-.17.15-.39.22-.62.2-.23-.02-.43-.12-.58-.3l-8.05-9.43c-.15-.17-.22-.4-.2-.62.02-.23.13-.44.3-.58l22.23-18.47c.15-.13.37-.2.55-.2l13.39.1c.47,0,.85.39.84.86l-.53,67.7c0,.23-.09.44-.25.6-.16.16-.37.24-.6.24Zm-12.91-1.8l12.07.09.51-66-12.23-.1-21.33,17.73,6.94,8.13,13.02-11.29c.25-.22.61-.27.91-.13.3.14.5.44.49.78l-.4,50.78Z"/>
        </g>
      </g>
      <g>
        <g>
          <g>
            <path class="cls-3" d="m14.68,257.47c46.11,5.76,61.18,13.23,61.18,13.23l-1.92,26.42,77.45-4.32c20.89-9.25,38.91-1.92,38.91-1.92,0,0,26.9,2.76,31.82,3.96,8.53,1.92,4.44,17.29-9.49,14.65-6.48-1.2-12.97-1.56-18.13-1.2,2.04,2.04,4.92,4.32,9.25,7.08,13.09,8.53,16.57,9.01,23.66,11.89,7.33,2.88,17.65,5.76,14.89,12.97-2.76,7.08-12.01,5.4-12.01,5.4,0,0,2.04,4.2-2.28,8.17-4.2,3.96-14.53.84-14.53.84.84,15.25-14.53,9.73-14.53,9.73,0,0-4.56,4.32-10.09,1.56-5.64-2.76-30.98-18.25-34.82-17.41s-52.84,7.45-52.84,7.45l-.12-.12c-18.61,3.48-37.47,6.12-52.6,6-13.09-.12-23.18-2.4-27.14-8.05-5.4-7.45-8.41-17.53-9.85-28.46-4.2-31.1,3.18-67.87,3.18-67.87Z"/>
            <path class="cls-2" d="m192.65,367.7c-1.42,0-2.83-.34-4.17-1.01-1.57-.77-4.54-2.45-8.3-4.58-8.44-4.78-22.56-12.78-25.8-12.78-.09,0-.14,0-.17.01-3.83.84-50.9,7.19-52.9,7.46l-.42.06-.1-.1c-21.45,4-38.24,5.94-51.31,5.94h-1.01c-14.64-.14-24-2.97-27.83-8.41-5.02-6.91-8.38-16.62-9.99-28.84-4.17-30.88,3.12-67.78,3.19-68.15l.16-.77.78.1c45.72,5.72,60.83,13.01,61.45,13.31l.51.25-1.89,26.02,76.34-4.26c7.08-3.11,14.57-4.68,22.28-4.68,9.51,0,16.05,2.39,17.03,2.77,2.18.22,27.01,2.8,31.82,3.97,3.46.78,5.44,3.68,5.03,7.4-.51,4.59-4.66,9.23-11.61,9.23-1.05,0-2.15-.11-3.26-.32-5.36-.99-10.99-1.45-15.94-1.29,1.98,1.75,4.51,3.61,7.67,5.62,10.53,6.86,14.8,8.48,19.75,10.35,1.19.45,2.41.91,3.77,1.46.78.31,1.61.62,2.46.94,5.22,1.97,11.14,4.2,12.9,8.1.69,1.54.69,3.23,0,5.02-2.08,5.33-7.44,6.12-10.45,6.12-.44,0-.84-.02-1.18-.04.34,1.74.32,4.87-2.88,7.81-1.57,1.48-4.02,2.23-7.27,2.23-2.78,0-5.48-.55-6.95-.9,0,3.41-.84,6.03-2.52,7.81-1.65,1.75-4.04,2.63-7.1,2.63-2.46,0-4.67-.58-5.61-.87-.91.73-3.33,2.38-6.48,2.38Zm-38.27-20.06c3.41,0,14.08,5.89,26.64,13,3.59,2.03,6.69,3.79,8.21,4.53,1.11.56,2.26.84,3.42.84,3.3,0,5.69-2.23,5.71-2.25l.38-.36.49.18s2.62.93,5.51.93c2.57,0,4.55-.71,5.87-2.1,1.53-1.62,2.21-4.21,2.02-7.71l-.07-1.21,1.16.35s3.8,1.13,7.58,1.13c2.81,0,4.87-.6,6.12-1.78,3.79-3.47,2.17-7.03,2.1-7.18l-.7-1.49,1.62.29s.91.16,2.2.16c3.15,0,7.25-.87,8.87-5.04.52-1.37.53-2.58.03-3.71-1.46-3.26-7.03-5.36-11.95-7.21-.85-.32-1.69-.64-2.49-.95-1.35-.55-2.56-1.01-3.74-1.45-5.04-1.91-9.4-3.56-20.07-10.51-4.07-2.6-7.14-4.96-9.38-7.2l-1.32-1.32,1.86-.13c1.29-.09,2.66-.14,4.07-.14,4.58,0,9.51.47,14.27,1.35,1.02.19,2.01.29,2.95.29,5.95,0,9.5-3.89,9.93-7.72.25-2.22-.6-4.85-3.73-5.56-4.83-1.18-31.45-3.92-31.72-3.95l-.23-.06c-.07-.03-6.75-2.69-16.5-2.69-7.53,0-14.84,1.55-21.74,4.6l-.14.06h-.15s-78.42,4.39-78.42,4.39l1.95-26.79c-2.98-1.29-19.35-7.73-59.61-12.82-1.02,5.46-6.83,38.69-3.03,66.82,1.57,11.94,4.83,21.38,9.69,28.08,3.5,4.98,12.4,7.57,26.46,7.7h.99c13.06,0,29.88-1.96,51.44-5.99l.44-.08.14.14c4.78-.65,48.77-6.59,52.35-7.38.16-.04.34-.05.53-.05Z"/>
          </g>
          <path class="cls-2" d="m230.29,345.76h-.24c-.12-.12-12.61-4.32-20.77-9.49-.12-.12-.24-.36-.12-.6.12-.12.36-.24.6-.12,8.05,5.16,20.41,9.49,20.53,9.49.24.12.36.36.24.48,0,.12,0,.24-.24.24Z"/>
          <path class="cls-2" d="m213.48,354.76h-.24c-10.21-2.52-16.81-7.81-16.93-7.81-.12-.12-.12-.36-.12-.6.12-.12.36-.12.6-.12.12.12,6.48,5.16,16.57,7.69.24.12.36.24.36.48s0,.36-.24.36Z"/>
          <path class="cls-2" d="m199.07,364.61h-.24c-8.17-3.48-11.65-5.88-11.77-6-.12-.12-.24-.36-.12-.6.12-.12.36-.24.6-.12,0,0,3.6,2.52,11.65,5.88.24.12.36.36.24.48-.12.24-.24.36-.36.36Z"/>
          <g>
            <path class="cls-2" d="m202.67,323.9h-.36l-5.28-2.52c-.12-.12-.36-.36-.12-.6.12-.12.36-.24.6-.12l5.28,2.52c.12.12.36.36.12.6-.12.12-.24.12-.24.12Z"/>
            <path class="cls-2" d="m200.15,325.7h0c-.36,0-.48-.12-.48-.36l-.36-5.64c0-.24.12-.36.36-.36s.36.12.36.36l.36,5.64c.12.12,0,.24-.24.36Z"/>
          </g>
          <g>
            <path class="cls-2" d="m191.02,335.91h-.36l-5.28-2.52c-.12-.12-.36-.36-.12-.6.12-.12.36-.24.6-.12l5.28,2.52c.12.12.36.36.12.6l-.24.12Z"/>
            <path class="cls-2" d="m188.62,337.59h0c-.36,0-.48-.12-.48-.36l-.36-5.64c0-.24.12-.36.36-.36s.36.12.36.36l.36,5.64c0,.12-.12.36-.24.36Z"/>
          </g>
          <g>
            <path class="cls-2" d="m181.05,346.36h-.36l-5.28-2.52c-.12-.12-.36-.36-.12-.6.12-.12.36-.24.6-.12l5.28,2.52c.12.12.36.36.12.6-.12,0-.12.12-.24.12Z"/>
            <path class="cls-2" d="m178.53,348.04h0c-.36,0-.48-.12-.48-.36l-.36-5.64c0-.24.12-.36.36-.36s.36.12.36.36l.36,5.64c.12.24,0,.36-.24.36Z"/>
          </g>
          <path class="cls-2" d="m137.58,293.52s-6.12,27.38.48,56.92l-7.33,1.08s-7.81-38.43.36-57.88l6.48-.12Z"/>
          <g>
            <path class="cls-3" d="m140.71,330.86c0-5.16-4.2-9.37-9.37-9.37s-9.37,4.2-9.37,9.37,4.2,9.37,9.37,9.37,9.37-4.2,9.37-9.37Z"/>
            <path class="cls-2" d="m134.22,340.23c-5.16,1.56-10.69-1.32-12.13-6.48-1.56-5.16,1.32-10.69,6.48-12.13,5.16-1.56,10.69,1.32,12.13,6.48,1.56,5.16-1.44,10.57-6.48,12.13Zm-5.52-18.01c-4.68,1.44-7.45,6.48-6,11.17,1.44,4.68,6.48,7.45,11.17,6,4.68-1.44,7.45-6.48,6-11.17-1.32-4.68-6.36-7.45-11.17-6Z"/>
          </g>
          <g>
            <path class="cls-3" d="m124.38,331.59l7.09-.6-1.56-2.76"/>
            <path class="cls-2" d="m131.46,331.23h0l-7.08.6c-.24,0-.36-.12-.36-.36s.12-.36.36-.36l6.36-.6-1.32-2.28c-.12-.12-.12-.36.12-.6.12-.12.36-.12.6.12l1.56,2.76c.12.12.12.24,0,.36,0,.24-.12.36-.24.36Z"/>
          </g>
        </g>
        <path class="cls-2" d="m32.94,354.46c-1.14,0-2.36-.15-3.52-.63-1.96-.69-3.98-2.67-3.98-5.1,0-2.63,2.14-4.85,5.87-6.09,2.27-.76,4.2-.82,5.76-.2,1.12.45,2.07,1.41,2.53,2.58.39.99.38,2.01-.03,2.88-.14.3-.44.49-.77.49s-.73,0-.92.06c-.45.15-.93-.09-1.07-.54-.15-.44.09-.93.54-1.07.26-.09.54-.12.83-.14.05-.4-.04-.78-.15-1.06-.29-.73-.89-1.35-1.58-1.63-1.47-.59-3.31-.2-4.6.23-1.42.47-4.71,1.85-4.71,4.48,0,1.62,1.49,3.02,2.89,3.52,1.43.59,3.09.67,5.41.29,2.39-.35,5.42-1,7.7-2.84,1.76-1.59,2.95-4.66,1.74-6.8-.93-1.7-3.03-2.75-6.27-3.14-3.19-.39-6.64-.07-10.25.95-.45.13-.92-.14-1.05-.59-.13-.45.14-.92.59-1.05,3.82-1.08,7.49-1.41,10.91-1,3.81.46,6.35,1.8,7.55,4,1.64,2.9.21,6.82-2.12,8.92-2.64,2.14-5.95,2.85-8.54,3.23-.77.13-1.73.25-2.75.25Z"/>
      </g>
      <path class="cls-3" d="m75.02,108.95l9.26-2.94-9.26-3.16c-2.77-.73-4.89-2.96-5.48-5.76l-2.94-13.9-3.15,13.6c-.66,2.87-2.93,5.09-5.81,5.7l-8.71,3,8.41,2.97c2.95.68,5.2,3.05,5.74,6.03l2.43,13.45,3.54-13.46c.75-2.85,3.08-5,5.98-5.52Z"/>
      <path class="cls-2" d="m291.8,330.82l10.39-3.3-10.39-3.55c-3.11-.82-5.49-3.32-6.15-6.46l-3.3-15.6-3.54,15.27c-.75,3.22-3.29,5.71-6.52,6.4l-9.78,3.37,9.44,3.33c3.31.77,5.84,3.43,6.44,6.77l2.73,15.09,3.98-15.11c.84-3.2,3.46-5.61,6.71-6.2Z"/>
      <path class="cls-2" d="m222.93,64.78l5.92-1.88-5.92-2.02c-1.77-.47-3.13-1.89-3.51-3.68l-1.88-8.9-2.02,8.7c-.43,1.84-1.88,3.26-3.72,3.65l-5.58,1.92,5.38,1.9c1.89.44,3.33,1.95,3.67,3.86l1.56,8.61,2.27-8.61c.48-1.82,1.97-3.2,3.83-3.54Z"/>
      <path class="cls-2" d="m142.17,73.02c-.36-2.08-1.53-3.61-2.61-3.42s-1.66,2.02-1.3,4.1c.36,2.08,1.53,3.61,2.61,3.42,1.08-.19,1.66-2.02,1.3-4.1Z"/>
      <path class="cls-2" d="m171.88,67.08c-.36-2.08-1.53-3.61-2.61-3.42-1.08.19-1.66,2.02-1.3,4.1.36,2.08,1.53,3.61,2.61,3.42s1.66-2.02,1.3-4.1Z"/>
      <path class="cls-2" d="m141.47,60.76c.27.75.04,1.66-.56,2.19-1.53,1.34-4.41,2.17-6.34,2.75-.69.21-1.45.38-2.12.12-2.2-.84-1.63-3.23-.17-4.33,1.31-.99,2.99-1.57,4.55-2.02.85-.25,1.75-.42,2.62-.26.87.16,1.72.71,2.02,1.55Z"/>
      <path class="cls-2" d="m163.95,55.85c-.12.79.28,1.64.97,2.04,1.76,1.02,4.75,1.28,6.75,1.48.72.07,1.49.1,2.11-.29,2-1.25.98-3.48-.67-4.28-1.48-.72-3.23-.96-4.85-1.11-.88-.08-1.8-.08-2.62.25-.83.33-1.55,1.03-1.68,1.91Z"/>
      <path class="cls-2" d="m161.65,83.33c-.21,0-.43-.08-.59-.24-.34-.33-.35-.86-.02-1.2,1.52-1.57,2.41-3.26,2.19-3.53-.95-1.13-5.3-7.29-6-9.98-.12-.45.15-.92.61-1.04.45-.12.92.15,1.04.61.57,2.19,4.49,7.92,5.67,9.32,1.44,1.73-1.37,4.88-2.27,5.8-.17.17-.39.26-.61.26Z"/>
      <g>
        <g>
          <path class="cls-1" d="m283.21,120.44c6.11,9.51,7.04,21.97-3.58,34.25l-4.79-15.53-6.43,9.66-6.3-9.45s-5.93,8.09-3.58,16.79c0,0-14.96-15.94-5.43-33.28l30.11-2.44Z"/>
          <path class="cls-2" d="m258.53,157.01c-.23,0-.45-.09-.62-.27-.15-.16-15.27-16.59-5.56-34.27.14-.25.39-.41.68-.44l30.11-2.44c.31-.02.61.12.78.39,7.27,11.32,5.94,24.17-3.65,35.26-.2.23-.51.34-.82.28-.3-.06-.55-.29-.64-.58l-4.27-13.82-5.44,8.17c-.16.24-.42.38-.71.38h0c-.28,0-.55-.14-.71-.38l-5.59-8.37c-1.42,2.38-4.46,8.49-2.81,14.86.06.11.09.24.09.37,0,.47-.37.89-.86.85h0Zm-4.9-33.32c-6.61,12.53-.05,24.37,3.53,29.38-.5-7.59,4.04-13.89,4.26-14.19.16-.22.42-.36.7-.35.28,0,.53.15.69.38l5.6,8.39,5.73-8.6c.18-.27.5-.42.83-.37.32.05.59.28.69.59l4.33,14.03c10.89-13.54,6.63-25.41,2.78-31.61l-29.14,2.36Z"/>
        </g>
        <g>
          <g>
            <g>
              <g>
                <g>
                  <path class="cls-8" d="m251.94,98.6c-1.85-.02-12.98,12.09-11.61,34.47l1.48.02s1.94-10.02,12.57-9.91l6.17-9.87-8.61-14.7Z"/>
                  <path class="cls-2" d="m242.52,133.94l-2.98-.03-.05-.79c-.99-16.13,4.52-28.08,9.54-33.42,1.22-1.29,2.2-1.95,2.91-1.95h.49l.25.42,8.87,15.15-6.69,10.71h-.65c-9.66,0-11.49,8.84-11.56,9.21l-.13.69Zm-1.38-1.71h.03c.69-2.33,3.61-9.74,12.75-9.9l5.65-9.04-8-13.66c-2.42,1.6-11.37,12.97-10.42,32.6Z"/>
                </g>
                <path class="cls-2" d="m254.6,123.57h-.22c-3.12-.04-5.78.83-7.9,2.56-3.44,2.81-4.28,6.99-4.29,7.03l-.06.32-2.16-.02-.02-.36c-1.21-19.84,7.41-31.58,10.53-34.13.62-.51,1.1-.75,1.47-.75h.22s8.84,15.1,8.84,15.1l-6.41,10.26Zm-8.6,1.96c2.21-1.81,4.96-2.73,8.18-2.73l5.93-9.49-8.35-14.26c-.16.07-.42.23-.78.52-3.02,2.47-11.34,13.83-10.27,33.13h.81c.27-1.07,1.36-4.6,4.49-7.16Z"/>
              </g>
              <path class="cls-2" d="m238.57,133.6l5.22.06c.36,0,.65-.28.65-.64h0c0-.36-.28-.65-.64-.65l-5.22-.06c-.36,0-.65.28-.65.64h0c0,.36.28.65.64.65Z"/>
            </g>
            <g>
              <g>
                <g>
                  <path class="cls-8" d="m284.28,98.76c1.87.02,12.85,12.49,10.98,35.06l-1.5-.02s-1.74-10.16-12.49-10.27l-6.02-10.11,9.02-14.67Z"/>
                  <path class="cls-2" d="m296.05,134.67l-2.99-.03-.12-.7c-.07-.39-1.77-9.47-11.66-9.57h-.48s-6.52-10.96-6.52-10.96l9.54-15.51h.48c.71.01,1.66.67,2.84,1.97,1.11,1.21,10.75,12.48,8.98,34.02l-.06.79Zm-1.61-1.71h.04c1.38-19.74-7.34-31.4-9.85-33.14l-8.37,13.61,5.51,9.26c9.23.35,12.02,7.91,12.67,10.27Z"/>
                </g>
                <path class="cls-2" d="m295.62,134.21l-2.18-.02-.05-.32c-.07-.4-1.83-9.84-12.11-9.95h-.22s-6.25-10.49-6.25-10.49l9.25-15.05h.22c.75.01,1.89,1.14,2.51,1.82,1.09,1.2,10.62,12.33,8.86,33.67l-.03.36Zm-1.54-.79h.83c1.6-20.77-7.63-31.55-8.69-32.72-.88-.97-1.47-1.37-1.76-1.5l-8.74,14.22,5.79,9.72c9.67.22,12.16,8.53,12.58,10.27Z"/>
              </g>
              <path class="cls-2" d="m297.04,134.39l-5.27-.06c-.36,0-.65-.3-.65-.66h0c0-.36.3-.65.66-.65l5.27.06c.36,0,.65.3.65.66h0c0,.36-.3.65-.66.65Z"/>
            </g>
            <g>
              <g>
                <path class="cls-3" d="m246.62,52.49c.61-23.3,23.07-44.93,23.07-44.93h.35s22,22.11,22.11,45.42c.11,23.31-7.92,70.91-7.92,70.91l-15.42-.16h-.35s-15.42-.17-15.42-.17c0,0-7.02-47.76-6.42-71.06Z"/>
                <path class="cls-2" d="m284.94,124.74l-32.63-.35-.11-.72c-.07-.48-7.03-48.1-6.43-71.21.61-23.38,22.4-44.63,23.33-45.52l.25-.24h1.04s.25.26.25.26c.91.91,22.24,22.62,22.35,46.01.11,23.11-7.85,70.58-7.94,71.06l-.12.72Zm-31.16-2.03l29.72.32c1-6.04,7.9-48.63,7.79-70.05-.1-20.92-18.42-41.18-21.44-44.38-3.09,3.13-21.84,23.01-22.38,43.92-.56,21.41,5.44,64.14,6.3,70.2Z"/>
              </g>
              <path class="cls-2" d="m284.46,124.18c-.07.06-.15.09-.25.09l-31.18-.33c-.19,0-.35-.14-.38-.33-.07-.48-7.02-48.06-6.42-71.13.6-23.19,22.96-44.98,23.18-45.2.07-.07.17-.11.27-.11h.35c.1,0,.2.05.27.12.22.22,22.11,22.49,22.22,45.68.11,23.07-7.85,70.5-7.93,70.98-.02.1-.07.18-.14.23Zm-31.09-1.01l30.52.32c.71-4.24,7.97-48.52,7.86-70.52-.11-22.04-20.21-43.3-21.89-45.03h-.03c-1.71,1.7-22.26,22.53-22.84,44.56-.57,21.99,5.75,66.41,6.37,70.67Z"/>
            </g>
            <g>
              <g>
                <path class="cls-5" d="m255.39,25.96c6.52-10.91,14.3-18.4,14.3-18.4h.35s7.24,7.29,13.44,17.91c-3.85,1.77-13.07,4.55-28.08.5Z"/>
                <path class="cls-2" d="m270,28.9c-4.62,0-9.61-.71-14.83-2.12-.26-.07-.47-.26-.57-.5-.1-.25-.08-.53.06-.75,6.51-10.88,14.36-18.5,14.44-18.58.16-.15.37-.26.6-.24h.35c.22,0,.44.1.59.25.07.07,7.39,7.49,13.57,18.07.12.21.15.45.08.68-.07.23-.24.42-.45.52-2.64,1.22-7.18,2.66-13.83,2.66Zm-13.29-3.47c4.67,1.18,9.14,1.78,13.29,1.78,5.66,0,9.69-1.09,12.26-2.13-5.1-8.53-10.83-14.81-12.4-16.47-1.65,1.67-7.76,8.09-13.14,16.83Z"/>
              </g>
              <path class="cls-2" d="m283.72,25.76s-.05.04-.08.05c-4.17,1.92-13.41,4.55-28.35.52-.12-.03-.21-.12-.26-.23-.05-.11-.04-.24.03-.34,6.48-10.83,14.28-18.41,14.36-18.48.07-.07.17-.11.27-.11h.35c.1,0,.2.05.27.12.07.07,7.35,7.45,13.5,17.98.05.09.07.21.03.31-.02.07-.07.14-.12.18Zm-27.73-.04c13.97,3.66,22.74,1.4,26.94-.43-5.64-9.55-12.14-16.4-13.05-17.34h-.03c-.96.95-7.92,7.97-13.86,17.77Z"/>
            </g>
            <g>
              <g>
                <path class="cls-5" d="m287.14,104.94c-1.58,10.99-2.92,18.94-2.92,18.94l-15.42-.16h-.35s-15.42-.17-15.42-.17c0,0-1.14-7.77-2.47-18.58l36.57-.03Z"/>
                <path class="cls-2" d="m284.22,124.73h0l-31.18-.33c-.42,0-.77-.31-.83-.73-.01-.08-1.16-7.91-2.47-18.6-.03-.24.05-.48.21-.67.16-.18.39-.29.63-.29l36.57-.03h0c.25,0,.48.11.64.29.16.19.23.43.2.68-1.56,10.88-2.91,18.88-2.92,18.96-.07.41-.42.71-.84.71Zm-30.44-2.02l29.72.32c.35-2.11,1.43-8.71,2.66-17.24l-34.63.03c1.03,8.35,1.94,14.8,2.24,16.89Z"/>
              </g>
              <path class="cls-2" d="m284.46,124.18c-.07.06-.15.09-.25.09l-31.18-.33c-.19,0-.35-.14-.38-.33-.01-.08-1.16-7.9-2.47-18.59-.01-.11.02-.22.09-.3.07-.08.18-.13.29-.13l36.57-.03c.11,0,.22.05.29.13s.11.2.09.31c-1.56,10.87-2.91,18.87-2.92,18.95-.02.1-.07.18-.14.23Zm-31.09-1.01l30.52.32c.26-1.58,1.44-8.76,2.8-18.17l-35.68.03c1.14,9.23,2.14,16.25,2.37,17.81Z"/>
            </g>
            <g>
              <g>
                <g>
                  <path class="cls-8" d="m268.23,100.73h.07s1.37.02,1.37.02h.07s5.54,12.29-.37,35.2h-.65s-.21,0-.21,0h-.65c-5.43-23.04.37-35.21.37-35.21Z"/>
                  <path class="cls-2" d="m270.03,136.81l-2.85-.03-.15-.65c-5.44-23.06.19-35.25.43-35.76l.23-.49,2.53.03.3.49c.23.51,5.6,12.83-.33,35.76l-.17.64Zm-1.5-1.71h.18c4.87-19.41,1.35-31.03.45-33.5h-.37c-.95,2.44-4.72,13.99-.26,33.5Z"/>
                </g>
                <path class="cls-2" d="m269.67,136.34l-2.12-.02-.07-.29c-5.4-22.9.34-35.33.4-35.45l.11-.22,2.01.02.1.23c.06.12,5.53,12.68-.35,35.45l-.08.29Zm-1.51-.79h.91c5.27-20.64,1.1-32.66.41-34.42h-1.01c-.73,1.73-5.15,13.66-.32,34.42Z"/>
              </g>
              <path class="cls-2" d="m265.97,136.73l5.05.05c.34,0,.63-.27.63-.62h0c0-.34-.27-.63-.62-.63l-5.05-.05c-.34,0-.63.27-.63.62h0c0,.34.27.63.62.63Z"/>
            </g>
          </g>
          <g>
            <g>
              <path class="cls-7" d="m276.79,49.75c-4.61-4.33-11.86-4.1-16.19.51-4.33,4.61-4.1,11.86.51,16.19,4.61,4.33,11.86,4.1,16.19-.51,4.33-4.61,4.1-11.86-.51-16.19Z"/>
              <path class="cls-2" d="m268.95,70.4h0c-3.14,0-6.13-1.18-8.42-3.33-2.4-2.25-3.77-5.3-3.88-8.58-.1-3.28,1.08-6.41,3.33-8.81,2.32-2.47,5.59-3.88,8.97-3.88,3.14,0,6.13,1.18,8.42,3.33,4.95,4.64,5.19,12.45.55,17.39-2.32,2.47-5.59,3.88-8.97,3.88Zm0-22.91c-2.96,0-5.71,1.19-7.73,3.35-1.94,2.07-2.96,4.76-2.87,7.59.09,2.83,1.28,5.46,3.34,7.4,1.97,1.85,4.55,2.87,7.26,2.87,2.96,0,5.71-1.19,7.73-3.35,4-4.26,3.79-10.99-.47-14.99-1.97-1.85-4.55-2.87-7.26-2.87Z"/>
            </g>
            <path class="cls-2" d="m276.42,67.25s0,0,0,0c-4.57,3.74-11.27,3.51-15.58-.54-4.76-4.47-4.99-11.97-.52-16.73.36-.38.75-.74,1.15-1.07,4.57-3.74,11.28-3.5,15.59.55,4.76,4.47,4.99,11.97.52,16.73-.36.38-.75.73-1.15,1.06Zm-14.47-17.74c-.38.31-.74.65-1.07,1-4.18,4.45-3.93,11.5.52,15.68,4.03,3.79,10.32,4.04,14.6.54h0c.38-.31.71-.68,1.05-1.04,4.18-4.45,3.94-11.48-.51-15.66-4.03-3.79-10.31-4.02-14.59-.53Z"/>
          </g>
          <path class="cls-3" d="m265.35,54.72c-1.41-1.32-3.62-1.25-4.95.16-1.32,1.41-1.25,3.62.16,4.95,1.41,1.32,3.62,1.25,4.95-.16,1.32-1.41,1.25-3.62-.16-4.95Z"/>
          <path class="cls-3" d="m265.86,60c-.96-.9-2.47-.85-3.37.11s-.85,2.47.11,3.37c.96.9,2.47.85,3.37-.11.9-.96.85-2.47-.11-3.37Z"/>
        </g>
      </g>
      <path class="cls-2" d="m158.29,97.1c-7.86,0-13.6-5.44-13.67-5.52-.34-.33-.34-.86-.02-1.2.33-.34.86-.35,1.2-.02.4.39,9.97,9.41,21.13,2.44.4-.25.92-.13,1.17.27.25.4.13.92-.27,1.17-3.35,2.1-6.6,2.86-9.54,2.86Z"/>
      <path class="cls-2" d="m143.72,93.09c-.19,0-.38-.06-.54-.19-.36-.3-.42-.83-.12-1.19l2.33-2.86c.3-.36.83-.42,1.19-.12.36.3.42.83.12,1.19l-2.33,2.86c-.17.21-.41.31-.66.31Z"/>
      <path class="cls-2" d="m116.24,94.79c-.33,0-.64-.19-.78-.51-1.88-4.28-6.35-5.5-9.7-4.83-2.04.41-4.23,1.7-4.27,4.08,0,.47-.42.82-.86.83-.47,0-.84-.39-.83-.86.05-2.79,2.26-5.04,5.64-5.71,3.99-.81,9.32.67,11.59,5.81.19.43,0,.93-.44,1.12-.11.05-.23.07-.34.07Z"/>
      <path class="cls-2" d="m108.6,94.58c-.13,0-.26-.03-.38-.09-.42-.21-.59-.72-.38-1.14l2.33-4.67c.21-.42.72-.59,1.14-.38.42.21.59.72.38,1.14l-2.33,4.67c-.15.3-.45.47-.76.47Z"/>
      <path class="cls-2" d="m184.88,77.18c-.14,0-.28-.03-.41-.11-.41-.23-.56-.74-.33-1.15.15-.27,1.53-2.69,3.63-3.18.92-.21,1.85-.02,2.69.56.39.27.48.8.21,1.18-.27.38-.8.48-1.18.21-.45-.31-.87-.41-1.33-.3-1.16.27-2.22,1.79-2.53,2.35-.16.28-.45.44-.74.44Z"/>
      <path class="cls-3" d="m131.15,19.71c1.42-1.45,3.44-2.86,5.31-2.09,1.08.44,1.75,1.5,2.59,2.31,2.15,2.08,5.7,2.53,8.3,1.04,1.51-.86,2.64-2.26,4.05-3.28,1.46-1.05,3.22-1.68,5.01-1.79.67-.04,1.38,0,1.97.32,1.43.78,1.55,2.8,1.17,4.38-.6,2.51-2.04,4.86-4.19,6.28-2.15,1.43-5.02,1.82-7.37.76-1.17-.53-2.17-1.38-3.38-1.82-2.37-.87-5.01,0-7.28,1.1s-4.52,2.46-7.04,2.62c-.57.03-1.17,0-1.66-.28-.91-.52-1.22-1.7-1.17-2.75.12-2.64,1.82-4.93,3.67-6.81Z"/>
    </g>
  </g>
</svg>