<svg width="380" height="320" viewBox="0 0 380 320" fill="none" xmlns="http://www.w3.org/2000/svg">
<path d="M135.494 83.4153C129.003 77.7081 122.688 71.4294 115.922 66.4481C93.4173 49.8516 61.5884 47.9749 39.221 64.8031C23.1462 76.8894 13.2417 96.9458 8.72085 117.659C-1.58079 164.791 2.29855 238.622 40.7865 270.811C48.6216 277.368 57.7777 281.77 66.995 285.639C96.8537 298.158 128.423 310.63 160.305 315.071C180.817 317.928 202.856 315.558 219.908 302.807C242.841 285.655 248.813 256.47 256.739 229.362C265.452 199.591 282.833 173.572 296.732 146.449C305.911 128.54 314.082 108.885 312.974 88.4043C311.859 67.9232 298.557 46.9324 279.832 44.963C270.958 44.0286 262.192 47.3262 253.959 51.0564C238.114 58.2387 222.955 67.2436 208.835 77.8702C195.494 87.91 181.466 99.9577 165.277 98.946C153.921 98.2355 144.544 91.3776 135.494 83.423V83.4153Z" fill="#4257FF"/>
<path d="M248.289 134.501C272.764 109.749 272.764 69.618 248.289 44.8659C223.814 20.1138 184.132 20.1138 159.657 44.8659C135.181 69.618 135.181 109.749 159.657 134.501C184.132 159.253 223.814 159.253 248.289 134.501Z" fill="#5669FF"/>
<path d="M203.956 153.74C190.699 153.74 177.465 149.377 166.69 141.445C155.548 133.251 147.507 121.86 143.452 108.499C138.48 92.15 140.107 74.8198 148.018 59.7061C155.937 44.5924 169.202 33.4946 185.368 28.467C191.439 26.5826 197.709 25.625 204.002 25.625C217.258 25.625 230.493 29.9884 241.268 37.9198C252.409 46.1138 260.451 57.5128 264.506 70.8657C274.769 104.622 255.96 140.526 222.589 150.898C216.518 152.782 210.248 153.74 203.963 153.74H203.956ZM203.994 26.9379C197.831 26.9379 191.691 27.8724 185.743 29.7259C169.905 34.6531 156.915 45.5192 149.156 60.3239C141.397 75.1287 139.809 92.1036 144.681 108.121C152.738 134.626 176.556 152.427 203.948 152.435C210.103 152.435 216.243 151.5 222.192 149.647C254.884 139.484 273.303 104.314 263.253 71.2518C255.197 44.7469 231.378 26.9379 203.986 26.9379H203.994Z" fill="black"/>
<path d="M229.155 129.018C250.637 114.952 256.778 85.9375 242.869 64.2119C228.961 42.4862 200.271 36.2766 178.788 50.3423C157.305 64.408 151.165 93.4227 165.074 115.148C178.982 136.874 207.672 143.084 229.155 129.018Z" fill="white"/>
<path d="M203.963 137.215C183.215 137.215 165.17 123.724 159.068 103.652C155.38 91.5191 156.586 78.6605 162.459 67.4468C168.331 56.2332 178.175 48.0006 190.172 44.2705C194.677 42.8726 199.328 42.1621 203.994 42.1621C224.742 42.1621 242.787 55.654 248.889 75.7258C252.577 87.8584 251.371 100.717 245.498 111.931C239.626 123.144 229.782 131.377 217.785 135.107C213.28 136.505 208.629 137.215 203.963 137.215ZM203.994 43.4673C199.458 43.4673 194.929 44.1546 190.554 45.5216C178.885 49.1513 169.316 57.1522 163.604 68.057C157.892 78.9617 156.724 91.465 160.305 103.266C166.239 122.789 183.78 135.903 203.963 135.903C208.499 135.903 213.02 135.215 217.404 133.848C229.072 130.218 238.641 122.218 244.353 111.313C250.065 100.408 251.233 87.9048 247.652 76.1042C241.718 56.5807 224.169 43.4673 203.994 43.4673Z" fill="black"/>
<path d="M233.378 105.185C241.845 88.7585 235.54 68.5014 219.298 59.9394C203.055 51.3774 183.025 57.7528 174.558 74.1792C166.092 90.6056 172.396 110.863 188.639 119.425C204.882 127.987 224.912 121.611 233.378 105.185Z" fill="#5669FF"/>
<path d="M203.963 123.892C189.026 123.892 176.044 114.184 171.653 99.7345C168.996 90.9999 169.866 81.7479 174.097 73.6775C178.328 65.607 185.407 59.6836 194.044 56.996C197.289 55.992 200.634 55.4746 203.994 55.4746C218.931 55.4746 231.913 65.1823 236.304 79.6318C241.787 97.657 231.745 116.825 213.921 122.37C210.684 123.374 207.331 123.892 203.971 123.892H203.963ZM203.986 56.7875C200.756 56.7875 197.533 57.2818 194.418 58.2471C186.117 60.8266 179.305 66.5261 175.235 74.2876C171.172 82.0491 170.332 90.9458 172.89 99.3483C177.113 113.242 189.599 122.579 203.963 122.579C207.194 122.579 210.409 122.085 213.532 121.119C230.668 115.79 240.328 97.3558 235.059 80.0179C230.836 66.1245 218.351 56.7875 203.986 56.7875Z" fill="black"/>
<path d="M222.891 98.1505C227.506 87.5897 222.781 75.2453 212.339 70.5786C201.896 65.9119 189.69 70.6901 185.075 81.2509C180.461 91.8118 185.185 104.156 195.628 108.823C206.071 113.49 218.277 108.711 222.891 98.1505Z" fill="white"/>
<path d="M203.971 111.25C194.555 111.25 186.369 105.133 183.604 96.02C181.932 90.5136 182.474 84.6828 185.139 79.5934C187.805 74.504 192.272 70.7739 197.709 69.0748C199.756 68.4415 201.863 68.1172 203.979 68.1172C213.394 68.1172 221.581 74.2337 224.345 83.3467C227.797 94.7071 221.466 106.793 210.233 110.292C208.186 110.925 206.079 111.25 203.963 111.25H203.971ZM203.986 69.4301C202.001 69.4301 200.015 69.7313 198.099 70.3337C192.99 71.9246 188.79 75.4308 186.292 80.2112C183.788 84.9917 183.276 90.4672 184.849 95.6416C187.446 104.199 195.136 109.944 203.979 109.944C205.964 109.944 207.95 109.643 209.866 109.048C220.42 105.766 226.361 94.4136 223.116 83.7483C220.512 75.1914 212.829 69.4455 203.986 69.4455V69.4301Z" fill="black"/>
<path d="M203.971 100.106C209.661 100.106 214.273 95.4415 214.273 89.6877C214.273 83.9339 209.661 79.2695 203.971 79.2695C198.282 79.2695 193.669 83.9339 193.669 89.6877C193.669 95.4415 198.282 100.106 203.971 100.106Z" fill="#5669FF"/>
<path d="M203.971 100.762C199.137 100.762 194.929 97.6192 193.509 92.9391C191.737 87.1006 194.991 80.8914 200.756 79.0997C201.802 78.7754 202.887 78.6055 203.979 78.6055C208.813 78.6055 213.02 81.7487 214.441 86.4288C215.304 89.2553 215.021 92.2518 213.646 94.8699C212.28 97.4879 209.981 99.4032 207.186 100.276C206.14 100.6 205.055 100.77 203.963 100.77L203.971 100.762ZM203.971 79.9184C203.009 79.9184 202.054 80.0651 201.13 80.3508C196.044 81.934 193.173 87.4096 194.738 92.553C195.991 96.677 199.702 99.4495 203.963 99.4495C204.918 99.4495 205.88 99.3028 206.804 99.0171C209.271 98.2525 211.294 96.5612 212.501 94.252C213.708 91.9506 213.96 89.3017 213.196 86.8149C211.944 82.6909 208.232 79.9184 203.971 79.9184Z" fill="black"/>
<path d="M142.619 52.6875L140.344 41.7364L122.772 30.4688L127.774 45.9145L142.619 52.6875Z" fill="white"/>
<path d="M142.619 53.344C142.528 53.344 142.436 53.3286 142.352 53.2823L127.507 46.5093C127.339 46.4321 127.216 46.293 127.155 46.1154L122.153 30.6696C122.069 30.4071 122.153 30.1213 122.375 29.9514C122.589 29.7815 122.887 29.7661 123.123 29.9128L140.695 41.1805C140.84 41.2732 140.947 41.4276 140.985 41.5975L143.261 52.5486C143.314 52.788 143.223 53.0428 143.032 53.1973C142.917 53.29 142.772 53.344 142.627 53.344H142.619ZM128.301 45.4358L141.726 51.5601L139.771 42.1381L123.956 31.998L128.301 45.4358Z" fill="black"/>
<path d="M142.665 52.5162L132.829 57.6519L113.097 50.987L128.095 45.1562L142.665 52.5162Z" fill="white"/>
<path d="M132.829 58.3092C132.761 58.3092 132.692 58.3015 132.623 58.2783L112.89 51.6135C112.631 51.5285 112.455 51.2814 112.448 51.0034C112.448 50.7254 112.608 50.4782 112.86 50.3778L127.858 44.547C128.026 44.4853 128.217 44.493 128.377 44.5702L142.948 51.9379C143.169 52.046 143.307 52.2699 143.307 52.5171C143.307 52.7642 143.169 52.9882 142.955 53.104L133.12 58.2397C133.028 58.2861 132.921 58.3092 132.822 58.3092H132.829ZM115.013 50.9493L132.776 56.95L141.229 52.5325L128.057 45.8754L115.013 50.9493Z" fill="black"/>
<path d="M199.863 88.3208C199.519 88.3981 199.152 88.3594 198.824 88.1664L127.453 47.1656C126.758 46.764 126.514 45.8758 126.911 45.1731C127.308 44.4703 128.186 44.2309 128.881 44.6247L200.252 85.6255C200.947 86.0271 201.191 86.9153 200.794 87.618C200.588 87.9887 200.244 88.2282 199.863 88.3208Z" fill="black"/>
<path d="M205.643 90.8706L196.113 73.4941L195.334 84.0745L186.544 89.6736L205.643 90.8706Z" fill="white"/>
<path d="M205.643 91.527C205.643 91.527 205.62 91.527 205.605 91.527L186.506 90.3222C186.224 90.3067 185.987 90.1059 185.918 89.8279C185.85 89.5499 185.964 89.2642 186.201 89.1097L194.716 83.6959L195.472 73.4477C195.494 73.1619 195.701 72.9148 195.976 72.853C196.258 72.7912 196.541 72.9225 196.678 73.1774L206.208 90.5539C206.323 90.7624 206.315 91.0172 206.193 91.2258C206.071 91.4188 205.865 91.5347 205.643 91.5347V91.527ZM188.591 89.1406L204.506 90.1446L196.602 75.7337L195.983 84.1207C195.968 84.3292 195.853 84.5146 195.685 84.6304L188.599 89.1406H188.591Z" fill="black"/>
<path d="M38.6178 100.916L45.6663 98.6536L38.6178 96.2208C36.5101 95.6571 34.8912 93.9426 34.4406 91.7879L32.2032 81.084L29.7977 91.5562C29.2936 93.765 27.5678 95.4794 25.3685 95.9428L18.7324 98.252L25.1394 100.538C27.3845 101.063 29.1027 102.893 29.5151 105.179L31.3631 115.536L34.0588 105.172C34.6316 102.978 36.4032 101.318 38.6102 100.916H38.6178Z" fill="white"/>
<path d="M274.578 46.7485L278.213 45.5824L274.578 44.3313C273.494 44.0455 272.661 43.1574 272.425 42.0453L271.271 36.5234L270.034 41.9217C269.775 43.057 268.881 43.9451 267.751 44.1845L264.33 45.3739L267.629 46.5555C268.782 46.8258 269.668 47.768 269.882 48.9496L270.836 54.2861L272.226 48.9418C272.524 47.8143 273.433 46.9571 274.57 46.7485H274.578Z" fill="black"/>
<path d="M279.847 184.934L284.811 183.343L279.847 181.628C278.366 181.234 277.228 180.022 276.907 178.508L275.334 170.971L273.639 178.346C273.28 179.898 272.066 181.111 270.523 181.435L265.85 183.065L270.363 184.671C271.944 185.042 273.158 186.332 273.44 187.946L274.746 195.244L276.648 187.946C277.052 186.401 278.297 185.235 279.855 184.949L279.847 184.934Z" fill="black"/>
<path d="M196.999 131.423C202.192 123.306 207.369 135.168 210.095 142.173C212.814 149.17 230.974 176.022 236.411 176.524C241.84 177.026 257.068 185.537 250.393 189.406C243.727 193.283 210.462 182.27 210.462 182.27L195.265 157.41C195.265 157.41 191.806 139.547 196.999 131.423Z" fill="black"/>
<path d="M45.9107 318.726L15.7007 317.977L21.3364 256.889L43.5434 273.192L51.5388 295.21L45.9107 318.718V318.726Z" fill="white"/>
<path d="M45.9107 319.374H45.8954L15.6854 318.625C15.5097 318.625 15.3341 318.54 15.2196 318.401C15.0974 318.262 15.0439 318.084 15.0592 317.906L20.6949 256.818C20.7178 256.587 20.8629 256.378 21.0768 256.286C21.2906 256.185 21.5349 256.216 21.7259 256.355L43.9328 272.658C44.0397 272.735 44.1161 272.843 44.1619 272.959L52.1573 294.977C52.2031 295.101 52.2108 295.232 52.1802 295.356L46.5521 318.872C46.4834 319.165 46.2238 319.374 45.9259 319.374H45.9107ZM16.4108 317.335L45.4066 318.053L50.8667 295.247L43.0088 273.6L21.8786 258.085L16.4108 317.327V317.335Z" fill="black"/>
<path d="M191.455 149.563C224.926 128.889 291.279 64.0322 291.279 64.0322C296.205 51.9304 310.676 29.9588 319.305 37.3342C319.305 37.3342 323.375 32.4765 328.011 33.1793C332.302 33.828 333.265 38.9637 333.265 38.9637C333.265 38.9637 338.74 33.8434 343.33 36.6932C346.01 38.3536 346.98 42.5626 346.98 42.5626L370.813 16.8299C376.625 12.5591 382.848 20.6064 376.961 30.2832C371.989 38.4694 353.349 60.9508 354.609 63.4452C356.388 66.9746 357.243 81.0303 351.485 90.6839C345.727 100.345 319.565 109.443 319.565 109.443C319.565 109.443 248.927 180.362 224.002 196.117C215.449 192.665 157.984 170.245 191.455 149.555V149.563Z" fill="white"/>
<path d="M224.002 196.774C223.918 196.774 223.841 196.758 223.757 196.727L223.2 196.503C196.098 185.606 181.321 174.478 180.466 164.307C180 158.8 183.582 153.657 191.111 149C223.551 128.959 287.82 66.4808 290.722 63.6542C294.823 53.6608 306.193 35.2031 315.418 35.2031C316.8 35.2031 318.076 35.6201 319.221 36.4542C320.321 35.3112 323.406 32.4615 327.064 32.4615C327.407 32.4615 327.759 32.4846 328.095 32.5387C331.585 33.0638 333.058 36.1684 333.608 37.8211C334.868 36.8558 337.449 35.1799 340.26 35.1799C341.489 35.1799 342.627 35.5043 343.658 36.1375C345.659 37.3809 346.766 39.8368 347.27 41.2887L370.348 16.3824C370.348 16.3824 370.409 16.3283 370.439 16.2974C371.592 15.4479 372.852 15 374.074 15C376.052 15 377.816 16.1353 378.908 18.1123C380.764 21.4718 380.244 26.1518 377.518 30.6311C375.64 33.728 371.867 38.7788 367.881 44.1307C362.703 51.0813 354.868 61.5845 355.204 63.1908C357.075 66.9055 357.847 81.3164 352.043 91.0318C346.392 100.516 322.222 109.212 319.916 110.022C316.8 113.142 248.606 181.351 224.345 196.681C224.238 196.75 224.124 196.781 224.002 196.781V196.774ZM315.426 36.5082C307.545 36.5082 296.503 52.9271 291.882 64.2797C291.852 64.3647 291.798 64.4419 291.737 64.5037C291.073 65.1524 224.949 129.646 191.798 150.12C184.719 154.491 181.352 159.225 181.764 164.198C182.329 170.925 190.065 181.776 223.688 195.291L223.94 195.391C248.767 179.505 318.412 109.69 319.114 108.988C319.183 108.918 319.267 108.864 319.359 108.833C319.618 108.74 345.369 99.7046 350.936 90.3599C356.503 81.0307 355.823 67.2994 354.044 63.7546C353.165 62.0092 357.274 56.1939 366.85 43.343C370.821 38.0219 374.571 32.9943 376.419 29.9438C379.336 25.1556 379.03 21.0239 377.778 18.7533C376.923 17.201 375.571 16.3129 374.074 16.3129C373.135 16.3129 372.18 16.6527 371.256 17.3246L347.461 43.0109C347.301 43.1885 347.049 43.258 346.819 43.1963C346.59 43.1345 346.407 42.9491 346.354 42.7097C346.346 42.6711 345.407 38.7479 342.994 37.2496C342.176 36.7399 341.26 36.4851 340.275 36.4851C336.915 36.4851 333.738 39.412 333.708 39.4429C333.532 39.6051 333.288 39.6592 333.066 39.582C332.845 39.5047 332.677 39.3194 332.631 39.08C332.623 39.0336 331.699 34.3922 327.919 33.8207C327.644 33.7821 327.362 33.7589 327.079 33.7589C323.184 33.7589 319.832 37.713 319.801 37.7516C319.572 38.0297 319.16 38.0605 318.885 37.8289C317.839 36.9407 316.709 36.5005 315.426 36.5005V36.5082Z" fill="black"/>
<path d="M345.025 78.3897C344.91 78.3897 344.796 78.3588 344.689 78.2893C344.383 78.0963 344.292 77.6947 344.475 77.3858C344.521 77.3163 348.927 70.0567 353.982 61.9323C354.173 61.6234 354.57 61.5307 354.876 61.7237C355.181 61.9168 355.273 62.3184 355.082 62.6273C350.034 70.7518 345.628 78.0036 345.582 78.0731C345.46 78.2739 345.246 78.382 345.032 78.382L345.025 78.3897Z" fill="black"/>
<path d="M342.596 48.795C342.459 48.795 342.321 48.7486 342.199 48.656C341.917 48.432 341.863 48.0227 342.077 47.7369L342.36 47.3662C343.406 45.9916 344.704 44.2771 346.537 41.9988C346.766 41.7208 347.171 41.6745 347.446 41.9062C347.721 42.1378 347.766 42.5472 347.537 42.8252C345.72 45.088 344.422 46.7947 343.383 48.1694L343.1 48.5401C342.971 48.71 342.78 48.795 342.589 48.795H342.596Z" fill="black"/>
<path d="M323.139 43.6435C323.1 43.6435 323.062 43.6435 323.024 43.6358C322.673 43.5663 322.436 43.2265 322.505 42.8712C322.688 41.8672 324.192 41.3035 328.125 40.0523C330.179 39.3959 332.509 38.6545 333.41 37.9903C333.7 37.7741 334.105 37.8359 334.318 38.1293C334.532 38.4228 334.464 38.8321 334.181 39.0484C333.112 39.8438 330.775 40.5852 328.522 41.3035C326.781 41.8595 324.154 42.6936 323.78 43.1724C323.704 43.4581 323.444 43.6512 323.154 43.6512L323.139 43.6435Z" fill="black"/>
<path d="M312.188 47.1417C312.119 47.1417 312.058 47.134 311.989 47.1108C311.646 47.0027 311.462 46.632 311.569 46.2845C312.104 44.6163 317.541 38.1368 319.519 36.2679C319.779 36.0208 320.191 36.0362 320.435 36.2988C320.68 36.5614 320.664 36.9784 320.405 37.2255C318.32 39.2026 313.188 45.4736 312.806 46.6861C312.715 46.9641 312.463 47.1417 312.188 47.1417Z" fill="black"/>
<path d="M333.181 65.0827C332.944 65.0827 332.715 64.9515 332.6 64.7275C332.44 64.4031 332.562 64.0093 332.883 63.8471L338.847 60.7425C339.168 60.5726 339.557 60.7039 339.718 61.0282C339.878 61.3526 339.756 61.7465 339.435 61.9086L333.471 65.0132C333.379 65.0596 333.272 65.0827 333.173 65.0827H333.181Z" fill="black"/>
<path d="M336.923 66.5879C336.625 66.5879 336.357 66.3794 336.289 66.0782L334.907 59.8304C334.83 59.4752 335.052 59.1276 335.395 59.0504C335.747 58.9732 336.09 59.1971 336.167 59.5447L337.549 65.7925C337.625 66.1477 337.404 66.4953 337.06 66.5725C337.014 66.5802 336.968 66.5879 336.915 66.5879H336.923Z" fill="black"/>
<path d="M319.557 61.1062C319.32 61.1062 319.091 60.9749 318.977 60.7509C318.816 60.4266 318.939 60.0327 319.259 59.8705L325.223 56.7659C325.544 56.596 325.934 56.7273 326.094 57.0517C326.254 57.376 326.132 57.7699 325.811 57.9321L319.847 61.029C319.756 61.0753 319.649 61.0985 319.55 61.0985L319.557 61.1062Z" fill="black"/>
<path d="M323.299 62.6115C323.001 62.6115 322.734 62.403 322.665 62.1018L321.291 55.8617C321.214 55.5064 321.436 55.1589 321.779 55.0817C322.131 55.0044 322.474 55.2284 322.551 55.5759L323.925 61.816C324.002 62.1713 323.78 62.5188 323.437 62.596C323.391 62.6037 323.345 62.6115 323.299 62.6115Z" fill="black"/>
<path d="M306.483 57.9089C306.247 57.9089 306.018 57.7776 305.903 57.5537C305.743 57.2293 305.865 56.8354 306.186 56.6733L312.15 53.5687C312.47 53.3988 312.86 53.53 313.02 53.8544C313.181 54.1788 313.058 54.5726 312.738 54.7348L306.774 57.8394C306.682 57.8857 306.575 57.9089 306.476 57.9089H306.483Z" fill="black"/>
<path d="M310.225 59.4142C309.928 59.4142 309.66 59.2057 309.592 58.9045L308.217 52.6644C308.141 52.3091 308.362 51.9616 308.706 51.8844C309.057 51.8072 309.401 52.0311 309.477 52.3787L310.852 58.6187C310.928 58.974 310.707 59.3215 310.363 59.3988C310.317 59.4065 310.271 59.4142 310.225 59.4142Z" fill="black"/>
<path d="M371.684 27.9135C371.684 27.9135 371.646 27.9135 371.623 27.9135C371.462 27.898 367.705 27.4887 364.781 23.5809C364.567 23.2952 364.62 22.8782 364.903 22.6619C365.185 22.4457 365.598 22.4997 365.811 22.7932C367.889 25.5657 370.47 26.3535 371.394 26.5465L375.128 21.3336C375.334 21.0401 375.739 20.9706 376.029 21.1868C376.319 21.3954 376.38 21.8047 376.174 22.0981L372.203 27.6432C372.081 27.8131 371.882 27.9135 371.676 27.9135H371.684Z" fill="black"/>
<path d="M113.891 180.347C129.21 170.671 135.494 165.411 161.481 156.013C187.461 146.606 198.396 130.836 198.396 130.836C198.396 130.836 201.856 151.989 211.691 166.647C221.535 181.305 250.355 188.642 250.355 188.642C250.355 188.642 234.968 200.736 229.301 206.621C221.947 214.251 191.279 222.862 192.913 241.667C194.555 260.472 197.663 315.598 197.663 315.598C50.7064 318.595 45.8037 318.881 45.8037 318.881L47.1096 283.147L14.1123 283.873L7.53723 263.654C7.53723 263.654 13.8373 263.314 21.9626 234.716C31.6075 200.782 45.4754 182.34 89.874 178.525C89.874 178.525 98.5796 190.024 113.898 180.34L113.891 180.347Z" fill="black"/>
<path d="M81.9778 138.149C81.9778 138.149 75.0134 132.704 70.1336 135.268C65.2692 137.825 65.9717 149 71.8137 150.413C77.6479 151.826 83.6884 146.621 83.6884 146.621L81.9778 138.149Z" fill="white"/>
<path d="M73.9061 151.316C73.1348 151.316 72.3788 151.231 71.6609 151.053C68.8507 150.374 66.8194 147.562 66.3536 143.716C65.9488 140.349 66.8652 136.256 69.8358 134.688C70.798 134.186 71.89 133.924 73.089 133.924C77.5869 133.924 82.1764 137.476 82.375 137.631C82.4971 137.723 82.5811 137.862 82.6117 138.017L84.3223 146.489C84.3681 146.721 84.2841 146.96 84.1084 147.122C83.9099 147.292 79.1829 151.316 73.9061 151.316ZM73.089 135.237C72.0962 135.237 71.2028 135.445 70.4315 135.847C68.3696 136.936 67.2241 140.102 67.6365 143.554C67.9496 146.134 69.2478 149.122 71.9588 149.779C72.5773 149.926 73.2264 150.003 73.8984 150.003C77.9916 150.003 81.8862 147.199 82.963 146.358L81.3822 138.527C80.4964 137.878 76.6552 135.237 73.0813 135.237H73.089Z" fill="black"/>
<path d="M68.4918 106.538C66.1856 111.519 68.698 120.941 72.2413 129.143C75.7694 137.275 72.0504 112.229 72.0504 112.229L76.6781 104.059L68.4918 106.538Z" fill="black"/>
<path d="M69.1791 113.714C70.7522 111.142 75.3341 104.392 80.7789 105.419C87.4532 106.686 87.0638 110.13 98.5567 106.802C109.149 103.72 109.614 95.1632 114.83 108.624C115.426 111.42 116.128 114.818 116.793 118.463C118.503 127.8 117.633 132.04 117.617 132.357L124.444 128.487L125.475 113.93C126.483 99.3026 115.563 89.8189 100.955 89.4096C100.641 89.3864 100.244 89.3864 99.9236 89.3633C71.4318 89.5255 69.3776 110.864 69.3776 110.864C69.1256 111.698 69.0951 112.717 69.1867 113.721L69.1791 113.714Z" fill="white"/>
<path d="M63.4517 109.913C69.2707 112.037 68.8202 114.323 68.6598 114.74C68.7209 114.648 68.8965 114.308 69.1944 113.783C70.7675 111.211 75.3494 104.461 80.7942 105.488C87.4685 106.755 87.0791 110.199 98.572 106.871C109.156 103.789 109.63 95.2322 114.845 108.693C115.441 111.481 116.144 114.887 116.808 118.532C118.519 127.869 117.648 132.109 117.625 132.426L120.756 130.657C122.077 128.842 124.979 125.39 128.499 124.425L129.072 107.828C133.876 100.183 135.708 96.4602 130.431 92.5061C124.979 88.4284 125.46 85.9107 116.724 85.0226C108.003 84.1499 106.713 71.523 96.2658 73.2452C85.819 74.9674 86.9798 89.0308 79.16 88.3743C71.3555 87.7951 64.8797 82.8911 60.6262 89.7258C56.365 96.4911 57.1363 107.566 63.4594 109.913H63.4517Z" fill="black"/>
<path d="M120.748 130.58L124.437 128.48L128.354 126.255L128.4 124.363C124.964 125.313 122.054 128.765 120.748 130.58Z" fill="black"/>
<path d="M86.4986 180.005L91.0042 176.26L89.5914 162.953C72.0733 161.285 72.3788 141.453 72.058 132.015C71.7067 124.076 69.538 118.284 69.1943 113.797C70.7675 111.225 75.3494 104.476 80.7942 105.503C87.4685 106.769 87.079 110.214 98.572 106.885C109.156 103.804 109.63 95.2467 114.845 108.708C115.441 111.496 116.144 114.901 116.808 118.547C118.519 127.884 117.648 132.123 117.625 132.44L120.756 130.672C122.077 128.857 124.979 125.405 128.499 124.439C129.324 124.2 130.248 124.115 131.111 124.177C137.136 124.856 140.634 136.68 135.181 140.364C131.478 142.866 126.506 142.31 123.635 141.669L123.513 143.577L126.3 165.757L134.891 167.656C134.891 167.656 125.995 193.428 93.9213 191.814C80.4582 191.134 86.4986 180.021 86.4986 180.021V180.005Z" fill="white"/>
<path d="M96.7697 192.524C95.8228 192.524 94.8606 192.501 93.8908 192.455C89.515 192.231 86.6208 190.902 85.2997 188.501C83.2302 184.755 85.8266 179.89 85.9335 179.689C85.9717 179.619 86.0252 179.55 86.0863 179.496L90.3245 175.974L89.0034 163.54C72.2718 161.571 71.7373 143.299 71.4547 133.436C71.4394 132.942 71.4242 132.471 71.4089 132.023C71.2027 127.351 70.3627 123.466 69.6296 120.045C69.1256 117.705 68.6903 115.689 68.5452 113.836C68.5376 113.697 68.5681 113.558 68.6368 113.442C70.63 110.191 74.7079 104.73 79.6716 104.73C80.084 104.73 80.504 104.769 80.9087 104.846C83.0164 105.248 84.4444 105.858 85.7121 106.399C87.2546 107.055 88.591 107.627 90.7598 107.627C92.6995 107.627 95.1279 107.186 98.3887 106.244C101.756 105.263 104.04 103.734 105.872 102.506C107.384 101.495 108.583 100.691 109.782 100.691C111.745 100.691 113.226 102.723 115.449 108.453C115.464 108.484 115.472 108.522 115.479 108.553C116.243 112.137 116.884 115.365 117.442 118.408C118.358 123.412 118.694 127.907 118.412 131.228L120.321 130.154C121.795 128.154 124.719 124.787 128.331 123.791C129.21 123.536 130.218 123.435 131.165 123.513C134.807 123.922 137.304 127.729 138.175 131.328C138.954 134.572 138.679 138.788 135.548 140.904C133.623 142.202 131.187 142.858 128.324 142.858C127.018 142.858 125.643 142.719 124.238 142.449L124.17 143.538L126.888 165.193L135.029 166.992C135.212 167.031 135.365 167.147 135.456 167.309C135.548 167.471 135.563 167.672 135.502 167.842C135.418 168.089 126.636 192.517 96.7697 192.517V192.524ZM87.0179 180.423C86.6743 181.11 84.8644 185.025 86.4375 187.867C87.5296 189.844 90.0649 190.949 93.9595 191.142C94.9064 191.188 95.8533 191.211 96.7774 191.211C122.909 191.211 132.356 172.028 134.013 168.112L126.17 166.382C125.903 166.321 125.704 166.097 125.666 165.826L122.879 143.646C122.879 143.607 122.879 143.561 122.879 143.523L123.001 141.615C123.016 141.422 123.108 141.252 123.261 141.136C123.413 141.02 123.604 140.982 123.788 141.02C125.361 141.368 126.888 141.545 128.331 141.545C130.943 141.545 133.127 140.959 134.838 139.808C137.411 138.07 137.602 134.44 136.93 131.629C136.029 127.899 133.616 125.096 131.058 124.81C130.905 124.802 130.737 124.795 130.561 124.795C129.92 124.795 129.278 124.887 128.69 125.049C125.254 125.992 122.375 129.552 121.291 131.042C121.237 131.12 121.168 131.181 121.084 131.228L117.953 132.996C117.747 133.112 117.488 133.104 117.289 132.981C117.09 132.85 116.976 132.626 116.991 132.386C116.991 132.355 116.999 132.286 117.014 132.185C117.48 128.926 117.182 124.123 116.182 118.655C115.632 115.635 114.998 112.438 114.234 108.885C112.341 103.997 111.05 102.004 109.798 102.004C108.988 102.004 107.942 102.707 106.606 103.603C104.796 104.815 102.321 106.468 98.7629 107.503C95.3799 108.484 92.8446 108.939 90.7751 108.939C88.339 108.939 86.827 108.291 85.2233 107.611C83.9557 107.071 82.6498 106.514 80.6873 106.144C80.3589 106.082 80.0229 106.051 79.6869 106.051C75.441 106.051 71.7525 110.924 69.874 113.959C70.0267 115.674 70.4391 117.581 70.9125 119.782C71.6609 123.258 72.5086 127.196 72.7224 131.985C72.7377 132.44 72.7529 132.919 72.7682 133.413C73.0431 142.974 73.5548 160.768 89.6678 162.305C89.9732 162.336 90.2176 162.575 90.2482 162.884L91.6609 176.198C91.6838 176.414 91.5998 176.638 91.4318 176.777L87.0255 180.438L87.0179 180.423Z" fill="black"/>
<path d="M81.2142 129.274C80.9317 127.722 80.0229 126.595 79.1905 126.741C78.3505 126.896 77.8923 128.278 78.1749 129.831C78.4574 131.383 79.3585 132.518 80.1986 132.364C81.0462 132.209 81.4968 130.834 81.2142 129.274Z" fill="black"/>
<path d="M102.322 126.108C102.039 124.564 101.138 123.429 100.298 123.575C99.4578 123.737 99.0073 125.112 99.2898 126.672C99.5647 128.217 100.473 129.352 101.306 129.205C102.146 129.051 102.612 127.668 102.322 126.108Z" fill="black"/>
<path d="M94.1046 117.674C94.2727 118.192 94.8759 118.477 95.4563 118.601C98.2436 119.257 101.184 119.412 104.086 118.941C104.612 118.84 105.071 118.755 105.575 118.508C106.354 118.053 106.629 116.979 106.323 116.168C106.04 115.512 105.407 115.01 104.742 114.817C104.063 114.546 103.352 114.531 102.642 114.508C99.9542 114.377 96.976 114.469 94.937 116.184C94.3719 116.523 93.929 117.072 94.1123 117.666L94.1046 117.674Z" fill="black"/>
<path d="M75.0668 122.262C76.7774 122.177 78.7705 121.096 80 120.942C81.0844 120.818 83.3372 121.104 83.2684 119.474C83.0012 118.424 82.0084 117.744 81.031 117.536C80.2138 117.366 79.4426 117.436 78.5873 117.521C76.8156 117.698 73.8526 117.853 72.8446 119.613C72.6079 120.046 72.4781 120.617 72.7148 121.042C73.2875 122.038 74.1276 122.355 75.0592 122.255L75.0668 122.262Z" fill="black"/>
<path d="M89.6067 140.125C89.5151 140.125 89.4234 140.101 89.3318 140.063C89.202 140.001 86.2085 138.557 85.5823 136.116C85.2157 134.703 85.9565 132.741 86.7354 130.664C87.247 129.305 87.7739 127.907 87.9114 126.795C87.9572 126.432 88.278 126.192 88.6369 126.223C88.9881 126.27 89.2402 126.594 89.202 126.957C89.0416 128.216 88.4841 129.699 87.9496 131.127C87.2776 132.919 86.575 134.773 86.8347 135.784C87.2318 137.321 89.1638 138.541 89.8816 138.873C90.2023 139.028 90.3474 139.414 90.1947 139.746C90.0878 139.986 89.8511 140.125 89.6067 140.125Z" fill="black"/>
<path d="M88.7972 162.067C92.8751 162.877 107.186 157.363 107.186 157.363C107.186 157.363 100.435 169.851 90.378 170.708L88.7972 162.059V162.067Z" fill="black"/>
<path d="M125.506 136.697C125.254 136.697 125.017 136.55 124.91 136.303C124.223 134.72 123.795 131.175 127.056 129.098C128.27 128.325 129.485 128.071 130.683 128.341C132.73 128.812 133.906 130.689 133.96 130.766C134.15 131.075 134.059 131.476 133.753 131.669C133.448 131.862 133.051 131.77 132.86 131.461C132.654 131.129 130.745 128.287 127.751 130.202C124.62 132.195 126.04 135.631 126.102 135.778C126.239 136.11 126.094 136.496 125.766 136.635C125.682 136.674 125.59 136.689 125.506 136.689V136.697Z" fill="black"/>
<path d="M128.56 134.008C128.446 134.008 128.324 133.977 128.217 133.908L125.277 132.023C124.971 131.83 124.887 131.429 125.078 131.12C125.269 130.811 125.666 130.718 125.972 130.919L128.912 132.803C129.217 132.996 129.301 133.398 129.11 133.707C128.988 133.908 128.774 134.008 128.56 134.008Z" fill="black"/>
<path d="M105.216 92.9936C105.62 92.6846 105.941 92.2213 106.338 91.8351C107.155 91.1323 108.499 91.1941 109.309 90.4141C110.057 89.804 110.225 88.5915 109.675 87.7574C109.118 86.8461 107.889 86.599 106.85 86.4832C105.727 86.375 104.643 86.4214 103.666 85.819C102.52 85.093 102.039 83.7724 101.283 82.6603C99.8855 80.5674 97.2891 79.3241 94.7385 79.494C93.2646 79.6175 91.8137 80.2817 90.9278 81.4633C90.0496 82.6526 90.0649 84.4521 91.0424 85.5255C92.1191 86.6608 93.9061 86.5604 95.525 86.4137C97.1516 86.2592 98.8469 86.1048 100.069 87.1319C100.817 87.7806 101.138 88.7383 101.397 89.7036C101.665 90.6767 101.917 91.6498 102.604 92.3835C103.291 93.1171 104.46 93.5264 105.223 92.9936H105.216Z" fill="white"/>
<path d="M67.7129 114.169C67.7129 114.169 67.6441 114.169 67.6136 114.162C63.215 113.451 57.0447 110.748 54.1352 105.458C51.9969 101.573 51.9817 97.0324 54.0741 91.9739C59.9236 77.8796 67.8732 80.5286 74.2573 82.6524C79.4807 84.3978 82.1229 82.8146 86.9263 79.9339C87.7663 79.4319 88.6598 78.8991 89.6296 78.3353C89.9351 78.1577 90.3322 78.2658 90.5078 78.5824C90.6835 78.8991 90.5766 79.2929 90.2635 79.4706C89.2936 80.0266 88.4078 80.5518 87.583 81.0537C82.795 83.9267 79.6334 85.8188 73.8832 83.8958C67.3692 81.7256 60.6567 79.4937 55.2654 92.4759C53.3257 97.156 53.3257 101.311 55.2654 104.825C57.9534 109.706 63.7037 112.208 67.8198 112.872C68.1711 112.926 68.4078 113.266 68.3543 113.621C68.3009 113.946 68.026 114.169 67.7205 114.169H67.7129Z" fill="black"/>
<path d="M99.6564 146.567C98.6025 148.428 96.7239 149.973 94.9828 150.436C92.1802 151.185 87.8198 150.876 85.9565 148.297C85.2386 147.308 84.0321 144.937 85.3914 143.995C85.6281 143.833 85.9412 143.841 86.2238 143.849C89.3853 143.988 92.4246 143.748 95.105 141.81C95.7847 141.339 96.4338 140.798 97.2203 140.528C97.9992 140.257 98.9691 140.335 99.5036 140.976C100.916 142.675 100.68 144.768 99.664 146.559L99.6564 146.567Z" fill="white"/>
<path d="M92.1344 151.448C89.1486 151.448 86.7049 150.444 85.4372 148.691C85.2768 148.467 83.887 146.49 84.1619 144.837C84.2612 144.258 84.559 143.779 85.0248 143.455C85.3685 143.215 85.7503 143.192 86.01 143.192C86.094 143.192 86.1703 143.192 86.2467 143.192C86.7049 143.215 87.1554 143.223 87.5983 143.223C90.6606 143.223 92.8523 142.621 94.7232 141.277C94.8759 141.169 95.021 141.068 95.1585 140.968C95.7236 140.566 96.304 140.149 96.9989 139.902C97.3425 139.786 97.7167 139.717 98.0756 139.717C98.8698 139.717 99.5495 140.01 99.9924 140.543C101.436 142.273 101.52 144.582 100.214 146.876C99.0913 148.861 97.0523 150.544 95.1432 151.054C94.2192 151.301 93.173 151.432 92.1268 151.432L92.1344 151.448ZM86.01 144.505C85.819 144.505 85.7656 144.536 85.7503 144.544C85.5747 144.667 85.4754 144.829 85.4372 145.061C85.2921 145.903 85.9794 147.231 86.4758 147.918C87.9267 149.926 90.9126 150.143 92.1268 150.143C93.0661 150.143 93.9977 150.027 94.8148 149.811C96.4109 149.386 98.1291 147.957 99.0913 146.25C99.6869 145.2 100.466 143.169 98.9996 141.408C98.74 141.099 98.3047 141.045 98.0756 141.045C97.8542 141.045 97.6327 141.084 97.4189 141.153C96.892 141.339 96.4109 141.678 95.9069 142.041C95.7618 142.15 95.609 142.25 95.4639 142.358C93.3792 143.864 90.9508 144.544 87.5983 144.544C87.1325 144.544 86.6591 144.528 86.1856 144.513C86.1245 144.513 86.0634 144.513 86.0023 144.513L86.01 144.505Z" fill="black"/>
<path d="M47.0103 283.842C47.0103 283.842 46.9569 283.842 46.9263 283.842C46.5598 283.796 46.3001 283.464 46.3459 283.093C49.6755 255.484 48.5682 239.103 48.5605 238.941C48.5376 238.57 48.8125 238.246 49.1791 238.215C49.5533 238.184 49.8664 238.47 49.8969 238.841C49.9045 239.003 51.0195 255.514 47.6823 283.255C47.6441 283.595 47.354 283.85 47.018 283.85L47.0103 283.842Z" fill="black"/>
<path d="M48.6903 252.711C48.5453 252.711 48.4078 252.665 48.2856 252.572C46.2696 250.997 42.8102 243.9 42.4208 243.096C42.2604 242.764 42.3979 242.355 42.7262 242.193C43.0546 242.031 43.4593 242.17 43.6197 242.502C44.6354 244.61 47.5983 250.325 49.1027 251.499C49.3929 251.731 49.4464 252.155 49.2249 252.449C49.0951 252.619 48.8965 252.711 48.698 252.711H48.6903Z" fill="black"/>
<path d="M174.418 247.182C174.089 247.182 173.807 246.942 173.753 246.602C172.761 239.582 175.678 223.248 180.374 214.892C180.557 214.568 180.962 214.452 181.283 214.637C181.604 214.823 181.718 215.232 181.535 215.556C177.075 223.48 174.112 239.659 175.074 246.409C175.128 246.78 174.876 247.12 174.509 247.174C174.479 247.174 174.448 247.174 174.41 247.174L174.418 247.182Z" fill="black"/>
<path d="M96.029 199.639C91.7678 199.639 87.7357 198.96 84.536 197.284C79.916 194.874 77.625 190.75 77.7243 185.043C77.7243 184.672 78.0297 184.348 78.4039 184.379C78.7705 184.379 79.0683 184.696 79.0607 185.066C78.9767 190.217 81.0233 193.932 85.147 196.087C95.0744 201.269 114.273 196.18 120.489 191.561C120.787 191.337 121.207 191.407 121.42 191.708C121.642 192.009 121.573 192.434 121.275 192.65C116.67 196.071 105.773 199.647 96.0213 199.647L96.029 199.639Z" fill="black"/>
<path d="M1.51965 145.316C1.4891 142.767 3.51278 140.682 6.00228 140.659C8.49178 140.636 10.5384 142.713 10.5613 145.262L10.6529 167.149L12.1649 167.11L12.0504 135.886C12.0351 132.905 14.3872 130.473 17.3043 130.465C20.2214 130.465 22.6117 132.874 22.6193 135.855L22.7262 167.017L24.0626 166.994L23.887 129.492C23.8717 126.511 26.2314 124.078 29.1409 124.07C32.058 124.07 34.4483 126.48 34.4635 129.461L34.6315 166.894H35.7846L35.6319 135.871C35.6166 132.882 37.9687 130.457 40.8858 130.449C43.803 130.449 46.1856 132.859 46.1932 135.832L46.3536 168.044C46.3536 172.153 45.2539 181.212 47.4379 181.783C51.1722 182.679 52.6308 177.381 56.4796 170.176C60.3284 162.97 64.8186 164.662 66.5368 167.079C67.247 168.06 61.4662 190.711 57.5029 200.851C53.8755 210.08 54.6315 211.408 49.6831 218.737L50.3322 318.703L8.18632 319.328L7.11721 221.379C0.244353 211.779 0.58036 198.627 0.687271 186.479C0.595633 186.185 1.65711 180.262 1.68765 179.953L1.51201 145.316H1.51965Z" fill="white"/>
<path d="M8.17105 320C8.00305 320 7.84268 319.931 7.7205 319.815C7.59832 319.691 7.52959 319.529 7.52195 319.352L6.45284 221.611C-0.198554 212.135 -0.0840063 199.655 0.0305412 187.584V186.518C0.0152682 186.186 0.129816 185.298 0.824738 181.236C0.939285 180.571 1.02329 180.069 1.0462 179.915L0.870557 145.324C0.855284 143.919 1.3822 142.59 2.35967 141.586C3.32951 140.582 4.62008 140.026 5.99465 140.011C8.86597 140.011 11.1798 142.366 11.2104 145.262L11.2944 166.485H11.5158L11.4089 135.902C11.4013 134.273 12.0199 132.736 13.1501 131.585C14.265 130.45 15.7388 129.824 17.3043 129.824C20.5422 129.824 23.1768 132.458 23.2608 135.725L23.2302 129.515C23.2226 127.886 23.8412 126.349 24.9714 125.198C26.0863 124.063 27.5601 123.437 29.1256 123.43C32.4093 123.43 35.0745 126.14 35.0974 129.477L35.1203 134.489C35.3646 133.392 35.9068 132.388 36.7087 131.57C37.8236 130.434 39.2974 129.809 40.8629 129.809C44.139 129.809 46.8041 132.52 46.827 135.848L46.9874 168.06C46.9874 169.033 46.9263 170.284 46.8652 171.605C46.7201 174.609 46.4223 180.857 47.583 181.166C47.7969 181.22 48.0107 181.243 48.2169 181.243C50.2482 181.243 51.6075 178.463 53.677 174.254C54.3261 172.941 55.0515 171.443 55.8916 169.883C58.3276 165.319 60.9393 164.361 62.6957 164.361C64.4521 164.361 66.0023 165.241 67.0485 166.716C67.2318 166.971 67.7892 167.744 64.3833 180.718C62.7262 187.043 60.1985 195.716 58.0909 201.114C56.9225 204.08 56.197 206.265 55.6166 208.018C54.3719 211.764 53.6235 214.042 50.3169 218.962L50.966 318.726C50.966 319.089 50.6835 319.383 50.3245 319.383L8.17869 320.008H8.17105V320ZM1.32875 186.394C1.32875 186.394 1.32875 186.456 1.32875 186.487V187.599C1.20656 199.531 1.09201 211.872 7.62123 221.016C7.69759 221.124 7.74341 221.256 7.74341 221.395L8.80488 318.687L49.6525 318.085L49.0111 218.769C49.0111 218.637 49.0493 218.506 49.1256 218.398C52.4246 213.509 53.1195 211.417 54.3795 207.609C54.9675 205.841 55.693 203.632 56.8767 200.635C60.8782 190.387 66.0939 169.419 65.9259 167.404C65.2845 166.554 64.1237 165.674 62.688 165.674C60.672 165.674 58.7171 167.342 57.0218 170.508C56.197 172.053 55.4716 173.536 54.8301 174.841C52.5468 179.49 51.0424 182.556 48.2092 182.556C47.9038 182.556 47.583 182.518 47.2623 182.44C45.2157 181.907 45.2615 177.776 45.5594 171.543C45.6205 170.238 45.6816 169.01 45.6816 168.068L45.5212 135.856C45.5059 133.245 43.4212 131.122 40.8706 131.122C39.6334 131.122 38.488 131.616 37.6174 132.496C36.7316 133.4 36.2428 134.605 36.2505 135.887L36.4032 166.91C36.4032 167.087 36.3345 167.249 36.2123 167.373C36.0901 167.496 35.9221 167.566 35.7541 167.566H34.601C34.2421 167.566 33.9519 167.273 33.9519 166.917L33.7839 129.484C33.7686 126.866 31.6838 124.743 29.1256 124.743C27.8961 124.743 26.743 125.237 25.8725 126.117C24.9866 127.021 24.4979 128.226 24.5055 129.508L24.6812 167.01C24.6812 167.373 24.3986 167.659 24.0473 167.666L22.711 167.69C22.5277 167.674 22.3673 167.628 22.2451 167.504C22.1229 167.381 22.0542 167.211 22.0542 167.041L21.9473 135.879C21.9473 133.269 19.8549 131.137 17.2967 131.137C16.0672 131.137 14.9141 131.631 14.0435 132.512C13.1577 133.415 12.669 134.62 12.6766 135.902L12.7911 167.126C12.7911 167.481 12.5086 167.775 12.1573 167.782L10.6453 167.821C10.4696 167.821 10.3016 167.759 10.1795 167.635C10.0573 167.512 9.9809 167.342 9.9809 167.164L9.88927 145.278C9.86636 143.1 8.13287 141.331 6.01756 141.331C4.95609 141.339 3.98625 141.764 3.26078 142.513C2.52768 143.27 2.13058 144.266 2.14585 145.324L2.32149 179.961C2.32149 179.961 2.32149 180.008 2.32149 180.031C2.31386 180.139 2.25276 180.471 2.08476 181.475C1.85567 182.811 1.32875 185.923 1.31347 186.418L1.32875 186.394ZM23.2608 136.96L23.3601 166.353H23.3982L23.2608 136.96Z" fill="black"/>
<path d="M40.9928 186.857C40.9928 186.857 26.323 190.572 24.4521 204.898Z" fill="white"/>
<path d="M24.4521 205.554C24.4521 205.554 24.3986 205.554 24.3681 205.554C24.0168 205.508 23.7648 205.176 23.8106 204.821C25.7197 190.225 40.6873 186.27 40.84 186.232C41.1913 186.147 41.5349 186.355 41.6266 186.711C41.7106 187.066 41.5044 187.421 41.1531 187.506C41.008 187.545 26.8881 191.298 25.0936 204.998C25.0477 205.331 24.7728 205.57 24.4521 205.57V205.554Z" fill="black"/>
<path d="M40.6873 172.586L8.99579 172.686Z" fill="white"/>
<path d="M8.98815 173.335C8.62924 173.335 8.33905 173.042 8.33905 172.679C8.33905 172.316 8.62924 172.022 8.98815 172.022L40.6796 171.922C41.0386 171.922 41.3287 172.215 41.3287 172.578C41.3287 172.941 41.0386 173.235 40.6796 173.235L8.98815 173.335Z" fill="black"/>
<path d="M263.154 218.991C259.404 215.871 255.472 214.659 251.47 215.369C247.766 216.033 244.689 218.265 242.421 220.497L243.093 210.759L166.995 210.156L167.507 219.663C165.3 217.478 162.337 215.331 158.778 214.643C154.784 213.871 150.836 215.022 147.041 218.08C142.566 221.687 140.664 226.907 141.68 232.784C143.1 240.994 149.882 248.5 158.557 251.466C165.926 253.984 169.767 256.926 171.699 258.942C175.556 268.078 183.131 275.191 192.486 278.334C197.579 280.048 200.947 284.968 200.901 290.405L200.855 296.629C200.809 302.337 196.197 306.932 190.554 306.885C187.094 306.855 184.269 309.673 184.246 313.164L184.231 314.794L224.246 315.11L224.261 313.481C224.292 309.982 221.504 307.125 218.053 307.102C212.409 307.055 207.866 302.391 207.911 296.683L207.957 290.459C207.995 285.03 211.439 280.157 216.556 278.527C225.811 275.577 233.402 268.765 237.449 259.899C239.259 257.915 243.169 254.779 251.126 252.2C259.847 249.373 266.743 241.975 268.293 233.788C269.401 227.927 267.575 222.675 263.161 218.999L263.154 218.991ZM159.809 247.689C152.57 245.218 146.705 238.8 145.544 232.089C145.01 228.992 145.254 224.59 149.485 221.185C152.371 218.852 155.158 217.987 158.014 218.543C162.81 219.47 166.46 224.212 167.858 226.282L168.973 247.164C169.065 248.887 169.294 250.578 169.622 252.223C167.186 250.694 163.994 249.118 159.817 247.689H159.809ZM264.422 233.031C263.154 239.719 257.19 246.045 249.92 248.4C245.567 249.813 242.276 251.396 239.786 252.933C240.16 251.242 240.42 249.504 240.542 247.728L241.955 227.239C243.139 225.463 247.041 220.196 252.173 219.285C255.036 218.775 257.801 219.686 260.657 222.065C264.826 225.533 265.01 229.942 264.429 233.031H264.422Z" fill="white"/>
<path d="M224.246 315.767L184.231 315.45C184.055 315.45 183.895 315.381 183.772 315.257C183.65 315.133 183.582 314.963 183.589 314.794L183.604 313.164C183.635 309.341 186.735 306.229 190.508 306.229H190.638C195.876 306.229 200.168 301.92 200.214 296.622L200.26 290.397C200.298 285.169 197.098 280.573 192.287 278.959C182.818 275.77 175.12 268.618 171.157 259.312C169.24 257.343 165.475 254.524 158.351 252.084C149.462 249.041 142.505 241.333 141.039 232.892C139.977 226.768 141.97 221.323 146.636 217.562C150.569 214.396 154.723 213.184 158.9 213.994C161.619 214.527 164.261 215.902 166.774 218.088L166.354 210.195C166.346 210.017 166.407 209.84 166.529 209.708C166.651 209.577 166.85 209.484 167.003 209.507L243.1 210.11C243.276 210.11 243.452 210.187 243.574 210.318C243.696 210.45 243.757 210.627 243.742 210.813L243.184 218.914C245.804 216.643 248.553 215.238 251.363 214.728C255.548 213.987 259.695 215.261 263.574 218.489C268.186 222.327 270.088 227.795 268.935 233.904C267.346 242.314 260.267 249.921 251.333 252.817C243.757 255.273 239.908 258.208 237.999 260.262C233.845 269.283 226.109 276.164 216.754 279.145C211.921 280.689 208.645 285.23 208.606 290.459L208.561 296.683C208.522 302.02 212.784 306.399 218.06 306.445C219.908 306.461 221.634 307.202 222.932 308.53C224.223 309.859 224.933 311.619 224.918 313.488L224.903 315.118C224.903 315.481 224.612 315.767 224.254 315.767H224.246ZM184.88 314.145L223.604 314.454V313.481C223.62 311.967 223.047 310.538 222.001 309.457C220.947 308.376 219.542 307.773 218.045 307.766C212.05 307.719 207.209 302.746 207.262 296.683L207.308 290.459C207.354 284.667 210.989 279.616 216.365 277.909C225.407 275.028 232.875 268.364 236.869 259.629C236.9 259.567 236.938 259.505 236.984 259.459C238.969 257.281 243.001 254.153 250.935 251.574C259.435 248.817 266.163 241.619 267.659 233.665C268.721 228.05 266.98 223.023 262.749 219.509C259.16 216.528 255.395 215.354 251.585 216.026C248.599 216.558 245.666 218.227 242.871 220.976C242.68 221.169 242.39 221.215 242.146 221.1C241.901 220.984 241.756 220.729 241.772 220.459L242.398 211.415L167.675 210.828L168.148 219.632C168.163 219.902 168.011 220.15 167.766 220.265C167.522 220.374 167.239 220.327 167.048 220.134C164.368 217.477 161.543 215.848 158.648 215.284C154.853 214.551 151.065 215.663 147.438 218.59C143.162 222.042 141.336 227.038 142.314 232.668C143.696 240.646 150.309 247.952 158.763 250.84C166.239 253.397 170.179 256.409 172.165 258.478C172.218 258.532 172.264 258.602 172.295 258.679C176.098 267.692 183.528 274.627 192.692 277.708C198.037 279.508 201.596 284.605 201.55 290.405L201.504 296.629C201.459 302.645 196.579 307.542 190.638 307.542H190.554C187.438 307.542 184.926 310.067 184.895 313.172V314.145H184.88ZM239.786 253.59C239.656 253.59 239.519 253.551 239.412 253.466C239.198 253.312 239.099 253.049 239.16 252.787C239.534 251.095 239.786 249.373 239.901 247.682L241.313 227.193C241.321 227.077 241.359 226.969 241.42 226.869C242.864 224.706 246.789 219.57 252.058 218.636C255.12 218.095 258.053 219.045 261.069 221.555C265.483 225.231 265.682 229.888 265.063 233.147C263.757 240.067 257.61 246.593 250.118 249.018C246.254 250.269 242.894 251.775 240.122 253.489C240.015 253.551 239.901 253.59 239.786 253.59ZM242.589 227.463L241.191 247.774C241.1 249.056 240.939 250.346 240.71 251.628C243.307 250.168 246.331 248.871 249.721 247.774C256.777 245.488 262.566 239.372 263.788 232.908C264.338 229.996 264.17 225.841 260.244 222.575C257.533 220.32 254.96 219.462 252.279 219.933C247.507 220.775 243.765 225.733 242.589 227.463ZM169.614 252.879C169.5 252.879 169.378 252.848 169.271 252.779C166.575 251.087 163.322 249.582 159.595 248.307C152.142 245.759 146.102 239.14 144.903 232.205C144.338 228.938 144.605 224.281 149.072 220.675C152.127 218.211 155.082 217.308 158.121 217.902C163.169 218.883 166.972 223.833 168.377 225.919C168.446 226.019 168.484 226.135 168.484 226.251L169.599 247.133C169.683 248.755 169.897 250.423 170.233 252.091C170.286 252.346 170.179 252.609 169.966 252.763C169.859 252.841 169.729 252.879 169.599 252.879H169.614ZM156.357 219.038C154.227 219.038 152.112 219.91 149.882 221.702C145.903 224.907 145.674 229.062 146.178 231.981C147.3 238.468 152.99 244.67 160.008 247.072C163.276 248.191 166.201 249.481 168.713 250.925C168.515 249.666 168.377 248.423 168.309 247.203L167.201 226.506C165.811 224.482 162.337 220.057 157.877 219.192C157.365 219.092 156.854 219.045 156.35 219.045L156.357 219.038Z" fill="black"/>
<path d="M165.048 211.515L165.071 208.542C165.073 208.194 165.35 207.919 165.694 207.921L244.897 208.55C245.241 208.553 245.514 208.833 245.511 209.181L245.488 212.154C245.485 212.502 245.208 212.777 244.865 212.775L165.661 212.146C165.318 212.143 165.045 211.863 165.048 211.515Z" fill="#4257FF"/>
<path d="M244.864 213.423H244.857L165.651 212.797C165.315 212.797 164.994 212.658 164.758 212.411C164.521 212.164 164.391 211.839 164.391 211.5L164.414 208.526C164.414 207.823 164.987 207.252 165.682 207.252L244.895 207.878C245.598 207.878 246.163 208.464 246.155 209.167L246.132 212.141C246.132 212.843 245.559 213.415 244.864 213.415V213.423ZM165.682 208.565V211.515L244.834 212.11L244.857 209.16L165.682 208.565Z" fill="black"/>
<path d="M202.436 234.931L193.906 242.399L188.881 236.453L202.749 224.799L211.096 224.868L210.767 267.568L202.176 267.499L202.428 234.931H202.436Z" fill="#4257FF"/>
<path d="M210.767 268.217L202.176 268.147C201.818 268.147 201.527 267.846 201.535 267.483L201.772 236.368L194.326 242.886C194.196 243.002 194.021 243.056 193.853 243.04C193.677 243.025 193.517 242.948 193.41 242.809L188.385 236.862C188.27 236.731 188.217 236.553 188.232 236.383C188.247 236.206 188.331 236.043 188.461 235.935L202.329 224.281C202.444 224.181 202.612 224.15 202.749 224.127L211.096 224.196C211.455 224.196 211.745 224.498 211.737 224.861L211.409 267.56C211.409 267.738 211.34 267.9 211.218 268.024C211.096 268.147 210.935 268.209 210.76 268.209L210.767 268.217ZM202.833 266.842L210.126 266.896L210.447 225.509L202.986 225.448L189.805 236.522L193.975 241.465L202.008 234.429C202.199 234.259 202.474 234.221 202.703 234.329C202.932 234.437 203.085 234.669 203.078 234.931L202.833 266.842Z" fill="black"/>
<path d="M80.3055 62.8803C79.9847 62.8803 79.7098 62.6409 79.664 62.3088L77.7778 47.7821C77.732 47.4191 77.984 47.0947 78.3352 47.0484C78.6865 47.0021 79.0149 47.2569 79.0607 47.6122L80.9469 62.1389C80.9927 62.4942 80.7407 62.8263 80.3895 62.8726C80.3589 62.8726 80.3284 62.8726 80.3055 62.8726V62.8803Z" fill="black"/>
<path d="M68.2169 64.0239C67.9496 64.0239 67.6976 63.854 67.6059 63.5837L63.8259 52.5013C63.7113 52.1615 63.887 51.7831 64.2306 51.6672C64.5666 51.5437 64.9408 51.729 65.0553 52.0766L68.8354 63.1589C68.95 63.4987 68.7743 63.8771 68.4307 63.993C68.362 64.0161 68.2856 64.0316 68.2169 64.0316V64.0239Z" fill="black"/>
<path d="M57.2585 70.141C57.0752 70.141 56.8919 70.0638 56.7621 69.9093L50.714 62.6498C50.4849 62.3718 50.5154 61.9624 50.7903 61.723C51.0653 61.4913 51.47 61.5222 51.7067 61.8003L57.7548 69.0598C57.9839 69.3378 57.9534 69.7471 57.6785 69.9865C57.5563 70.0869 57.4112 70.141 57.2585 70.141Z" fill="black"/>
</svg>
