<svg width="353" height="298" viewBox="0 0 353 298" fill="none" xmlns="http://www.w3.org/2000/svg">
<path d="M126.345 17.5654C131.443 12.7169 137.395 9.29483 144.2 7.96724C152.52 6.34281 161.371 7.42302 169.167 11.6119C177.253 15.9575 182.995 24.6569 191.194 28.8046C199.433 32.977 208.711 31.9298 217.53 30.8083C229.079 29.3406 240.765 28.2686 252.25 26.537C262.857 24.9373 273.657 22.3975 283.789 28.5572C301.193 39.1532 305.816 66.8263 303.472 87.7543C301.402 106.2 294.831 123.319 288.645 140.305C282.46 157.292 276.492 174.872 275.759 193.491C274.978 213.125 279.931 234.053 273.142 251.831C268.213 264.727 257.719 273.509 246.508 278.036C235.297 282.563 223.264 283.388 211.409 284.163C201.302 284.831 191.194 285.49 181.086 286.158C164.987 287.214 148.726 288.269 132.772 285.053C116.817 281.838 100.959 273.946 89.8851 259.623C79.1252 245.704 73.7694 226.969 70.9506 208.392C68.9693 195.347 68.2364 181.155 73.5922 169.694C80.7038 154.48 96.908 147.578 103.101 131.787C109.383 115.766 103.238 96.7918 103.641 78.989C104.132 57.1869 111.735 31.4927 126.369 17.5737L126.345 17.5654Z" fill="#4257FF"/>
<path d="M266.908 83.5737L272.054 81.8998L266.908 80.1022C265.37 79.6899 264.186 78.42 263.864 76.8203L262.229 68.9043L260.473 76.6472C260.103 78.2799 258.846 79.5415 257.243 79.8878L252.395 81.5947L257.074 83.2851C258.709 83.6727 259.966 85.025 260.264 86.7154L261.617 94.3676L263.59 86.7071C264.009 85.0827 265.305 83.8623 266.916 83.5655L266.908 83.5737Z" fill="#F6FCFF"/>
<path d="M293.026 163.137C296.441 158.882 311.26 165.652 323.84 166.518C336.42 167.392 342.501 169.462 342.501 173.395C342.501 177.328 329.172 181.69 329.172 181.69L307.105 174.813L293.026 163.129V163.137Z" fill="#333333"/>
<path d="M311.703 143.858C311.703 143.858 311.655 143.841 311.631 143.833C311.365 143.726 311.236 143.412 311.349 143.132C319.185 123.606 302.796 114.544 302.095 114.164C301.837 114.024 301.741 113.702 301.878 113.439C302.014 113.175 302.337 113.076 302.578 113.216C302.755 113.315 320.514 123.095 312.315 143.536C312.219 143.783 311.953 143.915 311.711 143.849L311.703 143.858Z" fill="#333333"/>
<path d="M338.909 112.475C338.861 112.475 338.804 112.458 338.756 112.442C338.522 112.351 315.609 103 307.04 100.436C306.766 100.353 306.605 100.057 306.686 99.7679C306.766 99.4875 307.048 99.3309 307.33 99.4051C315.948 101.978 338.901 111.345 339.135 111.444C339.4 111.551 339.529 111.865 339.424 112.137C339.336 112.359 339.118 112.491 338.901 112.475H338.909Z" fill="#333333"/>
<path d="M336.396 152.203C338.112 146.926 347.188 118.486 346.826 109.918C346.56 103.586 327.368 98.1515 314.723 95.2572C317.011 87.5143 319.588 78.3531 320.965 72.078L323.703 59.6103C324.46 56.1552 322.342 52.725 318.968 51.9498C315.577 51.15 312.243 53.3434 311.486 56.7984L308.747 69.2662C307.241 76.1103 304.117 86.9618 301.676 95.1005C300.009 96.7662 297.577 99.2977 295.137 102.233C293.397 95.0511 291.448 88.5286 289.612 85.5683C287.751 82.5833 283.885 81.701 280.97 83.6058C278.054 85.5106 277.193 89.4686 279.053 92.4536C280.656 95.0263 283.491 106.653 285.939 118.948C283.273 131.003 288.444 141.805 290.86 145.969C291.432 159.938 291.77 174.244 291.851 187.85C298.487 194.381 309.263 197.184 317.921 198.125C324.396 198.57 330.791 198.85 337.169 199.015C337.169 197.671 337.177 196.31 337.177 194.925C337.177 179.332 336.807 164.242 336.396 152.195V152.203Z" fill="#F6FCFF"/>
<path d="M337.169 200.095H337.153C330.469 200.095 324.162 199.443 317.872 199.015C311.196 198.297 298.922 195.889 291.375 188.452C291.247 188.32 291.166 188.097 291.166 187.907C291.085 174.425 290.747 159.995 290.183 146.208C287.743 141.945 282.621 131.093 285.238 118.964C282.508 105.317 279.858 95.0671 278.473 92.8489C276.419 89.5423 277.37 85.1308 280.599 83.0281C281.719 82.3024 283.008 81.9149 284.32 81.9149C286.712 81.9149 288.903 83.1435 290.183 85.205C291.754 87.7282 293.534 92.9644 295.475 100.773C297.601 98.2912 299.639 96.172 301.072 94.7372C303.456 86.78 306.581 75.9366 308.079 69.1173L310.817 56.6495C311.534 53.3759 314.305 51.0918 317.558 51.0918C318.082 51.0918 318.605 51.1495 319.121 51.2732C322.85 52.1308 325.209 55.9404 324.364 59.7665L321.626 72.2342C320.498 77.3549 318.468 84.9246 315.585 94.7372C336.549 99.594 347.285 104.69 347.502 109.885C347.865 118.494 338.973 146.447 337.081 152.302C337.588 167.375 337.854 181.715 337.854 194.925C337.854 196.31 337.854 197.671 337.846 199.015C337.846 199.204 337.773 199.567 337.637 199.699C337.508 199.823 337.339 200.087 337.161 200.087L337.169 200.095ZM292.527 187.553C299.8 194.537 311.574 196.739 317.985 197.431C324.009 197.844 330.074 198.124 336.485 198.297C336.485 197.184 336.485 196.063 336.485 194.925C336.485 181.69 336.219 167.326 335.704 152.219C335.704 152.137 335.712 152.054 335.736 151.972C337.532 146.431 346.488 118.362 346.133 109.934C345.948 105.589 334.439 100.485 314.562 95.9246C314.377 95.8834 314.216 95.7597 314.119 95.5948C314.023 95.4299 313.999 95.2237 314.055 95.0423C317.003 85.0566 319.153 77.0581 320.289 71.9126L323.027 59.4449C323.703 56.3692 321.811 53.3099 318.815 52.6173C318.396 52.5183 317.977 52.4689 317.558 52.4689C314.949 52.4689 312.726 54.3077 312.154 56.9299L309.416 69.3976C307.902 76.2994 304.721 87.2912 302.329 95.2897C302.296 95.4051 302.232 95.5041 302.151 95.5866C300.541 97.1863 298.108 99.7177 295.652 102.678C295.483 102.876 295.225 102.967 294.975 102.909C294.726 102.851 294.533 102.653 294.468 102.398C292.43 94.0033 290.602 88.4704 289.032 85.9389C288.001 84.2815 286.237 83.3002 284.32 83.3002C283.265 83.3002 282.226 83.6053 281.332 84.1907C278.739 85.8812 277.974 89.4186 279.625 92.0738C281.413 94.9434 284.401 107.766 286.608 118.807C286.624 118.906 286.624 119.005 286.608 119.104C283.99 130.945 289.12 141.59 291.448 145.614C291.504 145.713 291.536 145.829 291.545 145.944C292.108 159.698 292.455 174.079 292.535 187.553H292.527Z" fill="#333333"/>
<path d="M324.493 87.2756C327.062 88.1744 328.834 90.2936 329.349 92.619C331.065 91.2749 333.537 90.8214 335.953 91.6707C338.684 92.6272 340.568 94.9443 340.939 97.451C340.995 97.8056 340.995 98.1684 340.979 98.5313C342.517 97.1377 344.877 96.6265 347.188 97.4346C349.637 98.2921 351.32 100.37 351.658 102.613C351.771 103.396 351.723 104.204 351.481 104.988L346.238 121.875C345.304 124.885 341.865 126.386 338.555 125.223C336.235 124.407 334.616 122.494 334.173 120.383C332.611 122.733 329.422 123.764 326.321 122.675C323.752 121.776 321.972 119.674 321.448 117.34C319.733 118.676 317.268 119.121 314.86 118.272C312.066 117.291 310.27 114.875 309.964 112.31C311.22 103.949 313.443 98.0118 316.906 87.4323C318.38 86.8798 322.785 86.6819 324.493 87.2756Z" fill="#F6FCFF"/>
<path d="M340.818 126.319C339.98 126.319 339.143 126.171 338.329 125.891C336.308 125.181 334.697 123.664 333.9 121.792C332.611 123.07 330.791 123.804 328.826 123.804C327.908 123.804 326.989 123.648 326.095 123.334C323.736 122.501 321.875 120.671 321.054 118.436C319.193 119.5 316.809 119.698 314.635 118.931C311.727 117.909 309.625 115.344 309.279 112.384C309.279 112.318 309.279 112.26 309.279 112.194C310.366 104.971 312.146 99.5944 314.844 91.464C315.287 90.1199 315.754 88.7099 316.254 87.2009C316.318 86.9947 316.471 86.8381 316.664 86.7638C317.703 86.3763 319.733 86.2031 321.279 86.2031C322.133 86.2031 323.703 86.2526 324.702 86.6072C327.054 87.4318 328.914 89.2706 329.728 91.5135C331.588 90.4415 333.988 90.2436 336.163 91.0105C339.006 92.0082 341.124 94.4408 341.583 97.2279C343.258 96.2631 345.417 96.0734 347.398 96.7743C350.007 97.6896 351.94 99.9408 352.319 102.513C352.456 103.429 352.391 104.336 352.117 105.21L346.874 122.097C346.085 124.629 343.645 126.328 340.81 126.328L340.818 126.319ZM334.173 119.681C334.214 119.681 334.262 119.681 334.302 119.698C334.568 119.747 334.785 119.962 334.842 120.234C335.253 122.196 336.767 123.854 338.78 124.563C339.449 124.802 340.133 124.918 340.826 124.918C343.105 124.918 344.974 123.639 345.594 121.66L350.837 104.773C351.038 104.113 351.094 103.421 350.99 102.711C350.684 100.65 349.113 98.8358 346.979 98.0937C345.006 97.401 342.839 97.7803 341.446 99.0502C341.245 99.2316 340.947 99.2811 340.705 99.1574C340.455 99.042 340.302 98.7781 340.31 98.506C340.318 98.1926 340.318 97.8628 340.278 97.5495C339.932 95.2241 338.152 93.1791 335.744 92.3298C333.658 91.5959 331.355 91.9258 329.776 93.1709C329.591 93.3193 329.349 93.3523 329.132 93.2698C328.914 93.1874 328.745 92.9977 328.697 92.7668C328.206 90.5652 326.522 88.7099 324.291 87.9265C323.703 87.7204 322.616 87.5967 321.311 87.5967C319.846 87.5967 318.315 87.7534 317.462 87.976C317.011 89.3613 316.576 90.6641 316.165 91.9093C313.507 99.9325 311.744 105.251 310.672 112.31C310.995 114.693 312.718 116.771 315.102 117.603C317.18 118.337 319.475 118.007 321.054 116.779C321.239 116.639 321.481 116.597 321.698 116.68C321.915 116.762 322.077 116.952 322.133 117.183C322.616 119.368 324.316 121.223 326.554 122.007C327.303 122.271 328.077 122.403 328.842 122.403C330.831 122.403 332.611 121.495 333.618 119.986C333.747 119.789 333.956 119.681 334.181 119.681H334.173Z" fill="#333333"/>
<path d="M321.674 117.504C321.618 117.586 321.497 117.619 321.384 117.586C321.239 117.545 321.15 117.397 321.183 117.265L324.815 103.659C324.847 103.527 324.992 103.461 325.137 103.502C325.282 103.544 325.371 103.692 325.338 103.824L321.706 117.43C321.706 117.43 321.682 117.479 321.666 117.504H321.674Z" fill="#333333"/>
<path d="M336.211 115.213C336.155 115.295 336.042 115.328 335.929 115.295C335.784 115.254 335.696 115.105 335.728 114.982L339.658 99.5041C339.69 99.3722 339.835 99.298 339.98 99.3474C340.125 99.3887 340.214 99.5371 340.182 99.6608L336.251 115.138C336.251 115.138 336.235 115.196 336.211 115.213Z" fill="#333333"/>
<path d="M334.391 120.539C334.334 120.613 334.23 120.654 334.117 120.621C333.972 120.58 333.875 120.448 333.9 120.308L334.334 118.098C334.367 117.966 334.504 117.884 334.649 117.925C334.794 117.966 334.89 118.098 334.866 118.238L334.431 120.448C334.431 120.448 334.407 120.514 334.391 120.539Z" fill="#333333"/>
<path d="M320.909 111.057C320.909 111.057 320.909 111.107 320.909 111.131L319.636 116.161C319.62 116.235 319.564 116.293 319.483 116.326C319.362 116.367 316.56 117.357 313.451 115.79C313.314 115.716 313.25 115.559 313.314 115.436C313.378 115.312 313.54 115.262 313.676 115.337C316.197 116.607 318.573 116.038 319.121 115.873L320.337 111.082C318.009 107.858 313.91 107.924 313.032 107.973L311.905 112.121C311.872 112.261 311.719 112.327 311.566 112.277C311.421 112.228 311.325 112.08 311.365 111.948L312.533 107.643C312.557 107.553 312.638 107.478 312.742 107.47C312.799 107.47 318.066 106.909 320.86 110.925C320.885 110.966 320.909 111.016 320.909 111.057Z" fill="#333333"/>
<path d="M333.328 114.94C333.328 114.94 333.328 114.989 333.328 115.014L332.055 120.044C332.039 120.118 331.983 120.176 331.902 120.209C331.781 120.25 328.979 121.24 325.87 119.673C325.733 119.599 325.669 119.442 325.733 119.318C325.797 119.195 325.958 119.145 326.095 119.219C328.616 120.489 330.992 119.92 331.54 119.755L332.756 114.965C330.428 111.74 326.329 111.806 325.451 111.856L324.324 116.004C324.291 116.144 324.138 116.21 323.985 116.16C323.84 116.111 323.744 115.962 323.784 115.83L324.952 111.526C324.976 111.435 325.056 111.361 325.161 111.353C325.218 111.353 330.485 110.792 333.279 114.808C333.304 114.849 333.328 114.899 333.328 114.94Z" fill="#333333"/>
<path d="M345.795 117.743C345.795 117.743 345.795 117.792 345.795 117.817L344.587 122.575C344.571 122.649 344.514 122.707 344.442 122.732C344.329 122.773 341.671 123.713 338.724 122.229C338.595 122.163 338.539 122.006 338.595 121.891C338.651 121.767 338.812 121.726 338.941 121.792C341.333 122.996 343.58 122.46 344.104 122.303L345.255 117.768C343.049 114.717 339.167 114.774 338.337 114.824L337.274 118.749C337.242 118.881 337.097 118.947 336.96 118.897C336.815 118.856 336.734 118.708 336.767 118.584L337.87 114.502C337.894 114.412 337.967 114.346 338.071 114.337C338.12 114.337 343.113 113.81 345.763 117.611C345.787 117.652 345.803 117.693 345.811 117.743H345.795Z" fill="#333333"/>
<path d="M301.87 113.447C301.87 113.447 315.964 121.05 317.679 137.492Z" fill="#F6FCFF"/>
<path d="M317.679 138.193C317.333 138.193 317.035 137.929 317.003 137.566C315.344 121.676 301.692 114.14 301.555 114.065C301.225 113.884 301.096 113.463 301.266 113.117C301.443 112.779 301.853 112.647 302.192 112.82C302.337 112.894 316.624 120.794 318.364 137.409C318.404 137.797 318.13 138.135 317.76 138.176C317.736 138.176 317.711 138.176 317.687 138.176L317.679 138.193Z" fill="#333333"/>
<path d="M32.9688 173.395C33.6051 166.955 48.2147 170.228 58.2417 167.936C68.2606 165.644 80.6313 164.77 80.6313 164.77L49.4952 181.583L32.9688 173.395Z" fill="#333333"/>
<path d="M82.3387 179.514L80.8488 171.977L76.693 150.686L73.1735 132.784L72.4245 129.073C72.4245 129.073 69.9681 121.43 64.7492 118.156C59.635 114.775 50.4617 112.483 48.3275 110.735C46.1932 108.987 39.4763 100.147 36.8105 99.1657C34.1447 98.1844 29.5621 98.6215 30.0936 104.954C30.6252 111.287 37.5595 120.564 37.5595 120.564C37.5595 120.564 22.4184 116.523 20.0747 114.775C17.731 113.134 12.5041 100.798 7.0678 101.235C1.73617 101.672 1.63147 108.764 3.12143 111.386C3.22613 111.6 2.91203 112.038 2.91203 112.038C2.91203 112.038 1.30932 113.786 1.09992 118.585C0.890523 123.392 4.82884 132.446 4.82884 132.446C4.82884 132.446 6.74565 139.109 8.0262 142.275C8.0262 142.275 11.8679 159.633 21.2506 163.343C25.8332 165.199 32.1232 166.403 37.8817 167.054L45.2429 195.329L82.3468 179.497L82.3387 179.514Z" fill="#F6FCFF"/>
<path d="M45.2348 196.038C45.1301 196.038 45.0254 196.014 44.9288 195.964C44.7516 195.874 44.6227 195.709 44.5663 195.519L37.326 167.706C30.7621 166.931 24.9714 165.619 20.9848 164.003C11.5618 160.276 7.6557 143.801 7.35771 142.498C6.11742 139.414 4.35364 133.329 4.1684 132.702C3.83819 131.935 0.18176 123.359 0.399213 118.56C0.608612 113.901 2.09857 111.922 2.35629 111.609C2.3724 111.584 2.38851 111.559 2.40461 111.535C1.43816 109.655 1.18043 106.142 2.4932 103.569C3.41939 101.755 4.98183 100.708 7.00334 100.535C11.1108 100.205 14.6947 105.796 17.5619 110.257C18.7136 112.046 19.8089 113.745 20.4532 114.19C22.0801 115.402 30.9071 118 35.8763 119.377C33.8548 116.408 29.8198 109.927 29.4091 105.004C29.2077 102.646 29.6587 100.84 30.754 99.6194C31.6722 98.597 32.993 98.0527 34.5715 98.0527C35.4011 98.0527 36.2548 98.2094 37.036 98.498C38.8884 99.1824 42.1743 102.926 45.0657 106.224C46.5798 107.948 48.0053 109.572 48.7463 110.182C49.608 110.892 52.0483 111.815 54.6255 112.788C58.1773 114.132 62.2122 115.649 65.1116 117.571C70.4754 120.935 72.9641 128.538 73.0688 128.859C73.0768 128.884 73.0849 128.909 73.0849 128.934L73.8339 132.644L83.0072 179.365C83.0716 179.695 82.9025 180.025 82.5964 180.149L45.4925 195.981C45.412 196.014 45.3153 196.038 45.2267 196.038H45.2348ZM7.3416 101.928C7.26106 101.928 7.18858 101.928 7.10804 101.937C5.56171 102.06 4.41001 102.835 3.70128 104.221C2.62207 106.34 2.83146 109.514 3.70128 111.04C3.99121 111.625 3.62074 112.236 3.44355 112.467C3.42745 112.483 3.41134 112.508 3.39523 112.524C3.38718 112.532 1.96165 114.206 1.76836 118.626C1.56702 123.211 5.40063 132.083 5.4409 132.174C5.44895 132.199 5.46506 132.232 5.47312 132.265C5.48922 132.331 7.39798 138.928 8.64632 142.02C8.66243 142.053 8.67048 142.094 8.67853 142.135C8.7188 142.308 12.5444 159.171 21.476 162.709C25.4627 164.317 31.3017 165.619 37.938 166.378C38.2199 166.411 38.4535 166.617 38.526 166.889L45.6858 194.389L81.5494 179.093L80.1722 172.125L71.756 129.263C71.5708 128.703 69.1466 121.751 64.3868 118.758C61.6001 116.919 57.4766 115.361 54.1584 114.107C51.2429 113.003 48.9315 112.137 47.9006 111.287C47.0791 110.611 45.6778 109.02 44.0589 107.173C41.5461 104.311 38.1072 100.386 36.5769 99.8256C35.9487 99.5947 35.232 99.4628 34.5715 99.4628C33.742 99.4628 32.5823 99.6524 31.7608 100.576C30.9393 101.491 30.6091 102.943 30.7701 104.889C31.2775 110.949 38.0266 120.044 38.0991 120.135C38.2763 120.374 38.2844 120.696 38.1233 120.952C37.9622 121.199 37.6642 121.314 37.3823 121.24C35.8199 120.82 22.0479 117.117 19.6639 115.344C18.8102 114.751 17.7552 113.11 16.4182 111.032C13.9457 107.189 10.5551 101.928 7.3416 101.928Z" fill="#333333"/>
<path d="M8.44495 143.703V143.596C8.8718 138.244 10.9014 135.407 14.2034 135.515C17.2961 135.622 20.0666 139.992 21.1378 144.354C22.2009 148.502 22.0962 149.376 22.0962 149.483C22.0962 149.59 21.9915 149.698 21.8868 149.59C21.7821 149.59 21.6774 149.483 21.7821 149.376C21.7821 149.376 21.8868 148.502 20.8237 144.569C19.7606 140.528 17.0947 136.166 14.2115 136.051C11.1188 135.943 9.3067 138.673 8.87985 143.695C8.87985 143.802 8.77515 143.909 8.67045 143.909C8.453 143.802 8.453 143.695 8.453 143.695L8.44495 143.703Z" fill="#333333"/>
<path d="M21.9754 149.994C21.8948 149.994 21.8223 149.969 21.7499 149.928C21.6049 149.887 21.4841 149.78 21.4277 149.648C21.3794 149.524 21.3874 149.392 21.4438 149.268C21.4438 149.005 21.3633 147.883 20.4935 144.667C19.4545 140.742 16.9015 136.512 14.2034 136.405H14.0424C10.5792 136.405 9.51611 140.388 9.22617 143.727C9.22617 144.049 8.83154 144.387 8.51744 144.23C8.14696 144.041 8.11475 143.777 8.11475 143.702V143.595C8.54965 138.145 10.6517 135.168 14.0343 135.168H14.2276C17.5538 135.292 20.3968 139.843 21.476 144.28C22.1364 146.836 22.4747 148.683 22.4505 149.483C22.4505 149.771 22.2411 149.994 21.9834 149.994H21.9754Z" fill="#363636"/>
<path d="M21.3471 146.975C21.2424 146.868 21.3471 146.761 21.4518 146.645C22.4102 145.994 29.6587 146.975 30.5124 147.083C30.6171 147.083 30.7218 147.19 30.7218 147.297C30.7218 147.404 30.6171 147.511 30.5124 147.511C27.4197 147.074 22.3055 146.637 21.6612 146.967C21.5565 147.074 21.4518 147.074 21.3391 146.967L21.3471 146.975Z" fill="#333333"/>
<path d="M30.5205 147.875C30.5205 147.875 30.4882 147.875 30.4721 147.875C28.1848 147.553 24.7056 147.215 22.8452 147.215C22.1686 147.215 21.927 147.265 21.8545 147.281C21.7257 147.388 21.6049 147.413 21.5163 147.413C21.4116 147.413 21.2666 147.38 21.1136 147.232C20.9525 147.067 20.8478 146.795 21.2183 146.415C21.2344 146.399 21.2505 146.382 21.2747 146.374C21.468 146.242 21.8545 146.094 23.1351 146.094C24.2063 146.094 26.3405 146.209 30.4158 146.737L30.5768 146.753C30.8265 146.753 31.0842 147.017 31.0842 147.322C31.0842 147.627 30.8265 147.891 30.5285 147.891L30.5205 147.875Z" fill="#363636"/>
<path d="M4.92546 132.347C4.82076 132.017 4.28921 125.47 6.63287 122.633C7.26912 121.866 8.12282 121.429 9.08928 121.322C14.3162 120.885 16.982 125.8 17.2961 128.092C17.6183 130.384 20.7109 135.95 21.2425 136.825C22.8452 137.039 27.4278 137.476 27.8547 137.913C27.9594 138.02 27.9594 138.127 27.8547 138.243C27.75 138.35 27.6453 138.35 27.5325 138.243C27.2104 138.028 23.9083 137.591 21.025 137.262C20.9552 137.262 20.8854 137.226 20.8156 137.154C20.7109 136.94 17.1914 130.714 16.7646 128.199C16.4424 126.014 13.9941 121.429 8.98458 121.759C8.13088 121.866 7.38187 122.196 6.85032 122.848C4.61136 125.577 5.24761 132.017 5.24761 132.124C5.24761 132.232 5.14291 132.339 5.03821 132.339C5.03821 132.41 5.00331 132.41 4.93351 132.339L4.92546 132.347Z" fill="#333333"/>
<path d="M27.6936 138.68C27.605 138.68 27.4681 138.655 27.3392 138.54C27.001 138.399 24.9312 138.061 20.9928 137.616C20.7995 137.616 20.719 137.558 20.574 137.41C20.5499 137.385 20.5257 137.352 20.5096 137.319C20.4935 137.295 20.4532 137.212 20.3807 137.072C18.0532 132.817 16.684 129.774 16.4344 128.265C16.1444 126.262 13.8652 121.792 9.00876 122.114C8.18727 122.221 7.55908 122.534 7.11612 123.079C5.23958 125.371 5.47314 130.508 5.58589 132.034C5.58589 132.091 5.58589 132.124 5.58589 132.133C5.58589 132.33 5.47314 132.52 5.31206 132.619C5.21542 132.776 5.04628 132.784 5.02212 132.784C4.8691 132.784 4.78051 132.693 4.68386 132.603C4.64359 132.561 4.61943 132.52 4.60333 132.471C4.49057 132.133 3.91875 125.387 6.37516 122.419C7.05974 121.603 7.98593 121.108 9.04903 120.984C9.29064 120.968 9.51615 120.951 9.73361 120.951C14.6223 120.951 17.2881 125.569 17.6344 128.051C17.9163 130.096 20.6143 135.109 21.4438 136.511C21.766 136.552 22.1848 136.602 22.6519 136.66C26.1231 137.072 27.7339 137.319 28.0963 137.682C28.3379 137.929 28.3379 138.259 28.0963 138.507C27.9513 138.663 27.7983 138.688 27.6936 138.688V138.68Z" fill="#363636"/>
<path d="M3.75766 111.824C3.65296 111.717 3.75766 111.61 3.86236 111.495C5.14292 110.728 7.16443 110.621 9.19399 111.28C11.6504 112.154 13.5672 114.01 14.4209 116.302C16.1283 120.672 17.6183 122.635 17.9404 123.072L25.4063 124.49C25.511 124.49 25.6157 124.597 25.6157 124.705C25.6157 124.812 25.511 124.919 25.4063 124.919L17.8357 123.501C17.8357 123.501 17.731 123.501 17.731 123.393C17.6263 123.286 16.0236 121.431 14.1068 116.516C13.2531 114.224 11.441 112.476 9.09734 111.709C7.28523 111.058 5.36843 111.165 4.19257 111.816C3.97512 111.923 3.87042 111.816 3.76572 111.816L3.75766 111.824Z" fill="#333333"/>
<path d="M25.3982 125.281C25.3982 125.281 25.358 125.281 25.3338 125.281L17.7632 123.863C17.6344 123.855 17.4652 123.764 17.4008 123.574C17.0626 123.17 15.5645 121.241 13.7766 116.664C12.9551 114.463 11.2074 112.789 8.97652 112.063C7.34965 111.478 5.44895 111.527 4.33752 112.145C4.09591 112.269 3.86235 112.228 3.74959 112.195C3.63684 112.195 3.5402 112.137 3.48382 112.055C3.33885 111.89 3.26637 111.626 3.61268 111.263C3.63684 111.238 3.661 111.222 3.68516 111.205C5.04626 110.389 7.2369 110.29 9.29062 110.958C11.8517 111.873 13.833 113.778 14.735 116.186C15.4759 118.074 16.6599 120.738 18.1257 122.758L25.4546 124.151C25.6882 124.151 25.9459 124.407 25.9459 124.712C25.9459 125.017 25.6882 125.281 25.3902 125.281H25.3982Z" fill="#363636"/>
<path d="M37.9864 148.616C37.8817 148.509 37.9864 148.287 38.0911 148.287C43.318 145.887 49.5033 147.52 53.6591 149.268C58.2417 151.123 61.5518 153.638 61.6565 153.638C61.7612 153.745 61.7612 153.853 61.6565 153.968C61.5518 154.075 61.4471 154.075 61.3344 153.968C61.2297 153.861 48.0053 144.254 38.1958 148.616C38.1958 148.724 38.0911 148.724 37.9864 148.616Z" fill="#333333"/>
<path d="M61.4954 154.396C61.3907 154.396 61.2458 154.363 61.0927 154.215C61.0364 154.174 52.3544 147.833 43.8898 147.833C41.9086 147.833 40.0803 148.187 38.4615 148.888C38.3166 149.094 37.9783 149.111 37.7447 148.872C37.5998 148.723 37.5595 148.492 37.6481 148.286C37.7125 148.121 37.8494 147.998 37.9944 147.965C39.7743 147.156 41.7878 146.744 43.9784 146.744C47.7315 146.744 51.3798 147.948 53.7879 148.962C57.5088 150.471 60.3518 152.376 61.431 153.093C61.6082 153.209 61.7209 153.291 61.7773 153.324C61.8256 153.341 61.8659 153.366 61.8981 153.407C62.0431 153.555 62.0753 153.712 62.0753 153.819C62.0753 153.926 62.0431 154.075 61.8981 154.231C61.7532 154.38 61.6001 154.413 61.4954 154.413V154.396Z" fill="#363636"/>
<path d="M193.014 6.91936C193.014 6.91936 197.178 -0.180336 199.731 0.0340565C202.292 0.248449 197.492 6.91112 197.492 6.91112C197.492 6.91112 203.782 1.12251 220.099 9.53331C236.416 17.9359 232.148 67.0648 236.094 73.9419C240.145 80.8189 245.155 78.9636 248.674 87.3661C252.194 95.7687 235.667 100.032 238.116 106.035C240.572 112.038 259.651 100.799 262.962 116.515C266.159 132.347 255.923 142.275 255.923 142.275L137.676 134.417C137.676 134.417 125.096 122.296 130.96 109.201C136.718 96.0985 145.996 105.82 151.859 100.032C157.722 94.2432 143.113 95.3399 142.686 86.1705C142.259 77.0011 145.03 73.9419 148.444 68.1615C151.964 62.3729 143.862 31.591 156.224 17.3999C168.482 3.20872 188.528 6.91936 188.528 6.91936C188.528 6.91936 184.687 1.89762 187.248 1.68323C189.809 1.3534 193.006 6.91936 193.006 6.91936H193.014Z" fill="#333333"/>
<path d="M342.501 173.396C324.589 175.358 304.616 167.607 288.516 161.381L286.124 185.525C285.593 187.488 284.707 186.605 284.071 184.635C282.041 178.524 278.956 169.784 276.605 164.548C266.9 142.82 264.025 131.251 245.364 121.315C226.703 111.378 193.546 121.315 193.546 121.315H182.134V121.422C182.134 121.422 148.863 111.485 130.211 121.422C111.55 131.358 108.562 142.82 98.8651 164.539C96.5215 169.776 93.4288 178.623 91.3992 184.626C90.763 186.589 88.3066 186.482 87.8797 184.412L83.0797 163.121C67.0848 169.347 51.2027 175.35 33.2829 173.379C32.7514 215.738 51.0899 269.122 77.5306 269.122C107.918 269.122 126.047 250.346 131.378 238.777C131.378 245.547 131.483 254.057 131.91 256.349C131.91 256.456 132.441 256.786 132.337 256.893C149.926 259.515 168.378 260.711 185.436 260.827C205.691 260.934 222.217 260.497 241.2 257.767C241.2 257.66 245.251 256.679 245.251 256.563C245.678 253.941 247.708 243.024 248.98 236.039C251.01 247.064 264.87 269.114 298.133 269.114C324.573 269.114 343.129 215.73 342.485 173.371L342.501 173.396Z" fill="white"/>
<path d="M298.149 269.839C268.768 269.839 253.184 252.218 249.101 239.28L248.626 241.861C247.53 247.839 246.282 254.601 245.944 256.646C245.944 257.182 245.807 257.215 243.415 257.858C242.738 258.039 241.828 258.287 241.571 258.377C241.49 258.427 241.402 258.46 241.305 258.476C223.538 261.033 208.228 261.552 190.695 261.552C188.971 261.552 187.215 261.552 185.436 261.536C167.145 261.42 148.75 260.06 132.24 257.594C131.99 257.561 131.781 257.38 131.692 257.132C131.684 257.124 131.668 257.116 131.66 257.099C131.483 256.943 131.274 256.753 131.233 256.448C130.839 254.255 130.726 247.064 130.702 241.572C124.404 252.572 107.056 269.823 77.5306 269.823C71.0634 269.823 64.8217 266.755 58.9988 260.711C51.2107 252.638 44.2683 239.099 39.4522 222.582C34.8373 206.767 32.4051 189.285 32.6064 173.371C32.6064 173.173 32.695 172.983 32.84 172.859C32.9849 172.728 33.1702 172.662 33.3635 172.686C35.6347 172.934 37.9622 173.057 40.2656 173.057C55.6081 173.057 70.0728 167.425 82.8381 162.461C83.0233 162.387 83.2246 162.404 83.4018 162.494C83.579 162.593 83.6998 162.758 83.7481 162.956L88.5482 184.247C88.7093 185.047 89.2247 185.327 89.6516 185.327C90.1509 185.327 90.5617 184.981 90.755 184.395C92.8973 178.054 95.9336 169.413 98.245 164.234C99.4289 161.596 100.508 159.105 101.531 156.747C108.868 139.835 113.306 129.618 129.905 120.778C135.51 117.793 142.936 116.284 151.972 116.284C165.913 116.284 179.524 119.937 181.956 120.622C182.013 120.605 182.077 120.597 182.15 120.597H193.465C194.77 120.218 209.017 116.186 223.651 116.186C232.679 116.186 240.089 117.695 245.694 120.68C262.164 129.445 266.537 139.571 273.786 156.343C274.873 158.85 275.993 161.447 277.241 164.243C279.544 169.38 282.621 178.021 284.731 184.395C284.965 185.121 285.19 185.533 285.335 185.748C285.375 185.657 285.416 185.542 285.464 185.377L287.848 161.29C287.872 161.076 287.985 160.878 288.17 160.763C288.347 160.647 288.573 160.631 288.774 160.705L288.975 160.787C303.037 166.222 320.538 172.991 336.654 172.991C338.635 172.991 340.584 172.884 342.437 172.686C342.63 172.67 342.815 172.728 342.96 172.859C343.105 172.991 343.186 173.173 343.194 173.371C343.701 206.94 332.361 244.45 316.809 260.612C310.93 266.722 304.656 269.823 298.149 269.823V269.839ZM248.996 235.363C249.326 235.363 249.608 235.602 249.665 235.932C251.976 248.499 267.174 268.437 298.149 268.437C304.278 268.437 310.221 265.477 315.835 259.647C331.032 243.84 342.155 207.212 341.833 174.171C340.157 174.327 338.418 174.41 336.646 174.41C320.522 174.41 303.166 167.796 289.112 162.362L286.809 185.599C286.809 185.599 286.801 185.682 286.785 185.715C286.495 186.787 286.02 187.331 285.375 187.331C284.602 187.331 283.966 186.523 283.426 184.865C281.324 178.533 278.272 169.94 275.993 164.853C274.744 162.049 273.617 159.452 272.53 156.945C265.402 140.453 261.101 130.5 245.058 121.958C239.654 119.08 232.446 117.62 223.643 117.62C208.558 117.62 193.892 121.966 193.739 122.007C193.675 122.024 193.61 122.032 193.546 122.032H182.504C182.335 122.139 182.134 122.172 181.948 122.114C181.803 122.073 167.073 117.728 151.972 117.728C143.153 117.728 135.937 119.187 130.533 122.065C114.361 130.674 110.245 140.156 102.779 157.357C101.756 159.716 100.669 162.214 99.4933 164.861C97.198 169.982 94.1859 178.574 92.0516 184.882C91.6811 186.02 90.7388 186.762 89.6596 186.762C88.4677 186.762 87.4851 185.888 87.2193 184.577L82.5964 164.086C69.9036 169.025 55.5678 174.484 40.2736 174.484C38.1716 174.484 36.0534 174.385 33.9675 174.179C33.7259 207.385 44.8482 244.063 59.9813 259.746C65.5465 265.518 71.45 268.446 77.5467 268.446C108.739 268.446 125.998 248.853 130.774 238.497C130.911 238.2 131.233 238.043 131.539 238.109C131.854 238.183 132.071 238.464 132.071 238.793C132.071 247.814 132.248 254.065 132.562 256.06C132.635 256.126 132.707 256.192 132.78 256.266C149.145 258.683 167.347 260.027 185.444 260.142C187.224 260.15 188.971 260.159 190.695 260.159C208.131 260.159 223.369 259.639 241.015 257.108C241.369 256.967 241.989 256.794 243.069 256.506C243.6 256.365 244.269 256.184 244.655 256.069C245.058 253.71 246.185 247.559 247.281 241.605L248.32 235.932C248.384 235.602 248.666 235.363 248.988 235.363H248.996Z" fill="#333333"/>
<path d="M131.386 256.142C130.96 261.815 111.558 295.879 111.558 295.879H264.991C264.991 295.879 247.829 264.437 245.477 255.928C207.092 261.494 168.813 262.038 131.386 256.142Z" fill="#333333"/>
<path d="M165.188 61.1686C165.188 61.1686 156.981 52.6507 150.152 55.1656C143.33 57.6724 142.372 72.8531 149.725 75.7968C157.086 78.7406 165.929 72.8531 165.929 72.8531L165.18 61.1686H165.188Z" fill="#F6FCFF"/>
<path d="M154.235 77.3233C152.52 77.3233 150.925 77.0264 149.475 76.4492C145.295 74.7753 143.87 69.8113 143.926 65.7295C143.991 61.219 145.867 55.9994 149.918 54.5069C150.828 54.1688 151.811 54.0039 152.826 54.0039C159.156 54.0039 165.406 60.4027 165.664 60.6831C165.776 60.8068 165.849 60.9634 165.857 61.1283L166.606 72.8128C166.622 73.0684 166.501 73.3075 166.3 73.4477C166.058 73.6044 160.396 77.3315 154.227 77.3315L154.235 77.3233ZM152.834 55.4057C151.972 55.4057 151.151 55.5459 150.385 55.8263C147.454 56.9065 145.36 60.9882 145.295 65.7543C145.247 69.366 146.447 73.7363 149.975 75.1463C151.263 75.6658 152.697 75.9214 154.235 75.9214C159.18 75.9214 163.94 73.2498 165.221 72.4747L164.52 61.4829C163.473 60.4604 158.037 55.4057 152.834 55.4057Z" fill="#333333"/>
<path d="M206.875 81.4789C206.021 83.7713 205.167 85.9565 204.209 87.8118C194.722 105.936 177.656 103.421 172.646 101.352V99.7106L172.751 90.2113L188.214 90.8628L192.797 91.0772L194.504 89.7661L200.69 84.8515L206.875 81.4707V81.4789Z" fill="#333333"/>
<path d="M228.628 52.6584C225.213 51.7843 222.233 53.0954 219.994 54.7363V54.6291C219.994 54.7006 219.96 54.772 219.89 54.8435C219.036 55.4949 218.287 56.1546 217.756 56.6988C216.153 50.1516 217.007 33.5527 210.08 25.5871C206.029 20.8952 190.566 19.6913 179.693 21.0024C171.913 21.9837 164.657 29.9575 162.418 37.7086C159.857 46.6636 158.471 56.4844 158.367 56.27C160.179 72.7536 161.459 94.0444 183.744 97.8622C188.858 98.7363 193.449 98.0766 197.5 96.5512C188.117 105.069 176.496 103.098 172.445 101.466V99.8248C172.235 105.828 171.696 114.453 170.633 115.104C168.925 116.086 162.957 117.941 162.957 117.941C162.957 117.941 165.945 134.862 190.896 133.336C215.847 131.811 215.315 115.649 215.315 115.649C215.315 115.649 207.64 114.338 206.464 112.589C205.506 111.278 206.142 97.9612 206.464 91.2985C206.891 90.9687 207.318 90.5317 207.745 90.0946C212.754 85.5099 215.525 79.6141 217.345 73.1741C220.647 74.378 226.196 75.6891 230.779 73.2813C238.027 69.4634 235.788 54.5054 228.644 52.6501L228.628 52.6584Z" fill="#F6FCFF"/>
<path d="M187.771 134.128C165.373 134.128 162.305 118.222 162.281 118.065C162.216 117.719 162.426 117.373 162.756 117.274C162.812 117.257 168.555 115.468 170.246 114.528C170.77 113.835 171.43 109.044 171.76 99.8008C171.776 99.4214 172.074 99.1246 172.445 99.1246H172.461C172.831 99.1246 173.129 99.4462 173.129 99.8255V100.98C174.313 101.4 177.052 102.2 180.853 102.2C184.413 102.2 189.35 101.458 194.142 98.2918C190.711 99.0751 187.191 99.1576 183.64 98.5474C161.822 94.8038 159.663 74.6921 157.932 58.5301L157.698 56.3367C157.682 56.1966 157.706 56.0646 157.771 55.9409C157.827 55.7018 157.956 54.9844 158.101 54.1763C158.697 50.8615 159.929 43.9679 161.781 37.4949C163.988 29.8675 171.261 21.3495 179.629 20.294C182.351 19.9642 185.395 19.791 188.432 19.791C196.936 19.791 207.229 21.1846 210.612 25.1096C215.718 30.9807 216.725 41.4117 217.449 49.0309C217.683 51.4717 217.892 53.6403 218.19 55.339C218.553 55.0174 218.956 54.6876 219.366 54.366C219.455 54.1186 219.68 53.9454 219.938 53.9125C222.862 51.884 225.882 51.2161 228.805 51.9664C232.961 53.0466 235.321 57.9529 235.804 62.3315C236.263 66.4792 235.264 71.6906 231.085 73.9005C229.28 74.8487 227.186 75.327 224.867 75.327C222.201 75.327 219.648 74.6921 217.788 74.0654C215.653 81.3135 212.593 86.5826 208.196 90.6149C207.865 90.9529 207.503 91.324 207.124 91.6456C206.883 96.7498 206.222 110.801 207.012 112.178C207.712 113.225 212.351 114.429 215.42 114.957C215.742 115.014 215.976 115.287 215.992 115.625C215.992 115.79 216.257 132.479 190.928 134.029C189.857 134.095 188.794 134.128 187.771 134.128ZM163.763 118.412C164.52 121.24 168.764 132.727 187.771 132.727C188.77 132.727 189.801 132.694 190.848 132.628C212.223 131.316 214.389 119.014 214.598 116.227C212.496 115.839 207.028 114.676 205.892 112.986C205.087 111.889 205.055 106.2 205.771 91.2663C205.779 91.0601 205.884 90.8622 206.045 90.7385C206.432 90.4417 206.826 90.0376 207.253 89.6006C211.627 85.6014 214.606 80.3322 216.676 72.9852C216.725 72.7955 216.853 72.6471 217.023 72.5564C217.192 72.4657 217.385 72.4574 217.562 72.5234C219.342 73.1666 222.048 73.9417 224.867 73.9417C226.969 73.9417 228.854 73.5129 230.456 72.6718C234.016 70.7918 234.854 66.1906 234.443 62.5129C234.008 58.6126 231.995 54.2588 228.467 53.3435C225.842 52.6673 223.119 53.327 220.437 55.2813C220.421 55.2978 220.397 55.3225 220.381 55.3472C220.357 55.372 220.333 55.3885 220.309 55.4132C219.503 56.0316 218.778 56.6666 218.247 57.2026C218.07 57.384 217.82 57.4499 217.578 57.384C217.337 57.318 217.159 57.1201 217.095 56.881C216.628 54.9679 216.37 52.2963 216.072 49.1958C215.355 41.7745 214.381 31.5991 209.565 26.0661C207.02 23.1224 198.716 21.2176 188.407 21.2176C185.427 21.2176 182.431 21.3907 179.766 21.7123C171.962 22.6936 165.148 30.725 163.07 37.9155C161.242 44.3143 160.018 51.1583 159.422 54.4484C159.253 55.3802 159.148 55.9657 159.051 56.3367L159.277 58.39C160.96 74.0819 163.054 93.6081 183.849 97.1786C188.423 97.9619 192.934 97.5331 197.25 95.9005C197.557 95.785 197.903 95.9005 198.072 96.1973C198.241 96.4859 198.185 96.857 197.935 97.0796C191.991 102.472 185.355 103.602 180.829 103.602C177.172 103.602 174.418 102.893 173.009 102.423C172.445 114.808 171.422 115.435 170.971 115.715C169.521 116.548 165.341 117.925 163.755 118.428L163.763 118.412Z" fill="#333333"/>
<path d="M221.702 79.8382C220.848 79.8382 220.317 79.5084 219.995 79.0713C218.714 77.653 219.358 74.8164 219.358 74.4866C219.463 74.0496 219.89 73.7197 220.421 73.8352C220.848 73.9424 221.17 74.3794 221.058 74.9236C220.848 75.7977 220.735 77.3232 221.267 77.8674C221.372 77.9746 221.476 78.0818 222.016 77.9746C222.338 77.8674 222.652 77.7602 222.765 77.4304C223.514 76.2265 222.974 73.7197 222.765 72.8457C222.66 72.4087 222.87 71.8644 223.401 71.7572C223.828 71.65 224.36 71.8644 224.464 72.4086C224.569 72.8457 225.527 76.3419 224.36 78.4117C223.933 79.1785 223.297 79.6155 222.443 79.7227C222.016 79.8299 221.807 79.8299 221.694 79.8299L221.702 79.8382Z" fill="white"/>
<path d="M156.015 82.0237C156.869 82.0237 157.4 81.6939 157.722 81.2569C159.003 79.8386 158.359 77.002 158.359 76.6722C158.254 76.2351 157.827 75.9053 157.296 76.0207C156.869 76.1279 156.547 76.565 156.659 77.1092C156.869 77.9833 156.982 79.5087 156.45 80.053C156.345 80.1602 156.241 80.2674 155.701 80.1602C155.379 80.053 155.065 79.9458 154.952 79.6159C154.203 78.412 154.743 75.9053 154.952 75.0312C155.057 74.5942 154.847 74.05 154.316 73.9428C153.889 73.8356 153.357 74.05 153.253 74.5942C153.148 75.0312 152.189 78.5275 153.357 80.5972C153.784 81.3641 154.42 81.8011 155.274 81.9083C155.596 82.0155 155.806 82.0155 156.023 82.0155L156.015 82.0237Z" fill="white"/>
<path d="M186.088 70.9325C185.959 70.9325 185.822 70.8912 185.709 70.817C185.291 70.5284 183.189 69.0194 183.06 67.4527C183.003 66.7518 183.334 65.6633 183.921 63.7915C184.485 62.0022 185.186 59.7675 185.411 57.8133C185.46 57.4257 185.798 57.1536 186.168 57.2031C186.547 57.2443 186.813 57.5989 186.764 57.9782C186.523 60.0644 185.798 62.365 185.218 64.2203C184.807 65.5314 184.381 66.8837 184.421 67.3373C184.477 67.9969 185.669 69.1101 186.466 69.6543C186.781 69.8687 186.869 70.3058 186.66 70.6274C186.531 70.8335 186.313 70.9407 186.088 70.9407V70.9325Z" fill="#333333"/>
<path d="M206.448 50.9108C205.916 51.2406 205.272 51.2406 204.636 51.018C204 50.8036 203.46 50.4738 202.928 50.1439C201.753 49.3771 200.367 48.94 199.087 48.6185C198.451 48.5113 197.597 48.2886 197.275 47.7444C196.848 47.093 197.275 46.1035 197.911 45.6664C198.547 45.2294 199.401 45.2294 200.15 45.3366C201.962 45.6664 203.565 46.4251 205.055 47.5218C205.586 47.9588 206.013 48.3958 206.335 48.94C206.762 49.5915 206.762 50.3583 206.44 50.9026L206.448 50.9108Z" fill="#333333"/>
<path d="M170.093 51.0176C170.625 51.3474 171.374 51.3474 171.905 51.1248C172.541 50.9104 172.968 50.4733 173.508 50.1435C174.684 49.3766 175.964 48.8324 177.35 48.5026C177.986 48.2882 178.839 48.1727 179.162 47.5213C179.588 46.8699 179.162 45.8804 178.413 45.4433C177.776 45.0063 176.923 45.1135 176.069 45.229C174.257 45.5588 172.654 46.4328 171.269 47.6285C170.737 48.0655 170.311 48.5026 169.988 49.154C169.779 49.6982 169.779 50.4651 170.093 51.0093V51.0176Z" fill="#333333"/>
<path d="M200.158 55.2812C201.044 55.2812 201.761 56.5511 201.761 58.1178C201.761 59.6846 201.044 60.9544 200.158 60.9544C199.272 60.9544 198.555 59.6846 198.555 58.1178C198.555 56.5511 199.272 55.2812 200.158 55.2812Z" fill="#333333"/>
<path d="M173.395 55.2812C174.281 55.2812 174.998 56.5511 174.998 58.1178C174.998 59.6846 174.281 60.9544 173.395 60.9544C172.509 60.9544 171.792 59.6846 171.792 58.1178C171.792 56.5511 172.509 55.2812 173.395 55.2812Z" fill="#333333"/>
<path d="M158.681 57.895C158.681 57.895 186.934 26.2391 191.097 21.6544C191.097 21.6544 182.464 37.3711 186.829 36.8268C191.202 36.2826 193.763 23.0727 193.763 23.0727C193.763 23.0727 192.378 32.3493 196.107 31.4753C199.836 30.6012 197.065 21.6462 197.065 21.6462L217.007 57.0127C217.007 57.0127 217.965 38.1297 218.07 37.5772C218.174 37.0247 214.445 24.1529 214.445 24.1529L199.409 19.024L177.341 17.7129L162.837 20.5495L158.681 57.8868V57.895Z" fill="#333333"/>
<path d="M219.141 66.3477C219.052 66.3477 218.964 66.3313 218.875 66.29C218.529 66.1416 218.368 65.7293 218.513 65.3747C221.195 58.844 228.773 57.9947 229.095 57.9617C229.474 57.9287 229.804 58.2008 229.844 58.5884C229.885 58.9759 229.611 59.314 229.232 59.3552C229.16 59.3552 222.137 60.1633 219.769 65.919C219.656 66.1828 219.407 66.3477 219.141 66.3477Z" fill="#333333"/>
<path d="M224.899 63.9485C224.754 63.9485 224.617 63.9072 224.497 63.8083L222.048 61.953C221.742 61.7221 221.678 61.2851 221.903 60.9717C222.129 60.6584 222.556 60.5924 222.862 60.8233L225.31 62.6786C225.616 62.9095 225.68 63.3465 225.455 63.6599C225.318 63.8413 225.117 63.9402 224.907 63.9402L224.899 63.9485Z" fill="#333333"/>
<path d="M159.325 66.3477C159.059 66.3477 158.802 66.1911 158.697 65.919C156.329 60.1633 149.306 59.3635 149.234 59.3552C148.855 59.314 148.581 58.9759 148.622 58.5884C148.662 58.2008 148.992 57.9287 149.371 57.9617C149.693 57.9947 157.271 58.844 159.953 65.3747C160.098 65.7293 159.937 66.1416 159.591 66.29C159.502 66.323 159.414 66.3477 159.325 66.3477Z" fill="#333333"/>
<path d="M155.057 63.9478C154.96 63.9478 154.863 63.9231 154.767 63.8818C154.428 63.7169 154.275 63.3046 154.436 62.9501L155.29 61.0947C155.451 60.7402 155.862 60.5917 156.2 60.7567C156.538 60.9216 156.691 61.3339 156.53 61.6884L155.677 63.5438C155.564 63.7994 155.314 63.9478 155.057 63.9478Z" fill="#333333"/>
<path d="M131.282 239.486C130.943 239.486 130.646 239.222 130.605 238.868C129.824 231.966 128.415 224.635 126.917 216.884C126.168 212.984 125.386 208.952 124.645 204.746C122.398 192.023 130.831 171.276 131.193 170.402C131.338 170.048 131.741 169.883 132.087 170.031C132.433 170.179 132.595 170.592 132.45 170.946C132.361 171.161 123.808 192.188 125.99 204.499C126.731 208.696 127.513 212.72 128.262 216.612C129.76 224.396 131.185 231.751 131.966 238.711C132.007 239.099 131.741 239.445 131.362 239.486C131.338 239.486 131.306 239.486 131.282 239.486Z" fill="#333333"/>
<path d="M248.143 239.486C248.143 239.486 248.086 239.486 248.062 239.486C247.683 239.445 247.418 239.09 247.458 238.711C248.247 231.751 249.665 224.396 251.163 216.612C251.912 212.72 252.693 208.696 253.434 204.499C255.608 192.179 247.055 171.153 246.975 170.946C246.83 170.592 246.991 170.179 247.337 170.031C247.683 169.883 248.086 170.048 248.231 170.402C248.594 171.276 257.026 192.031 254.779 204.746C254.038 208.952 253.257 212.984 252.508 216.876C251.01 224.635 249.6 231.966 248.819 238.868C248.779 239.222 248.481 239.486 248.143 239.486Z" fill="#333333"/>
<path d="M274.849 227.868H274.833C274.454 227.86 274.156 227.539 274.172 227.151C274.342 221.189 278.981 205.638 282.371 194.291C283.362 190.96 284.224 188.082 284.795 186.037C284.9 185.666 285.279 185.452 285.641 185.559C286.004 185.666 286.213 186.054 286.108 186.425C285.536 188.478 284.675 191.364 283.676 194.704C280.495 205.341 275.695 221.42 275.534 227.201C275.526 227.58 275.219 227.877 274.849 227.877V227.868Z" fill="#333333"/>
<path d="M107.289 225.295C106.919 225.295 106.621 224.998 106.605 224.619C106.492 220.545 101.781 212.431 97.2302 204.581C93.4771 198.117 89.9334 192.006 88.822 187.999C88.7173 187.628 88.9267 187.24 89.2891 187.133C89.6516 187.026 90.0301 187.24 90.1348 187.611C91.1979 191.446 94.7013 197.473 98.4061 203.864C103.045 211.862 107.845 220.141 107.974 224.569C107.982 224.957 107.684 225.279 107.314 225.287H107.297L107.289 225.295Z" fill="#333333"/>
<path d="M210.853 18.4307C211.981 17.6308 212.44 16.1878 213.076 14.9427C213.713 13.6976 214.88 12.4607 216.225 12.6998C216.62 12.7658 216.974 12.9554 217.321 13.1616C219.503 14.4479 221.307 16.3775 222.483 18.6533C223.248 20.1376 223.723 21.9847 222.942 23.4607C221.887 25.4479 219.213 25.7118 217.023 25.4232C215.694 25.25 214.3 24.9862 213.06 25.4892C211.248 26.2313 209.984 28.5319 208.051 28.2763C207.125 28.1526 206.367 27.4105 205.949 26.5529C205.53 25.6953 205.409 24.7223 205.28 23.774C205.151 22.7763 205.039 21.6796 205.562 20.822C206.609 19.1069 209.235 19.5686 210.853 18.4142V18.4307Z" fill="#F6FCFF"/>
<path d="M208.349 28.6554C208.236 28.6554 208.123 28.6554 208.002 28.6307C207.044 28.4987 206.158 27.7896 205.643 26.7094C205.2 25.7941 205.063 24.7469 204.942 23.8233C204.797 22.6771 204.708 21.5639 205.272 20.6404C205.949 19.5272 207.189 19.2386 208.389 18.9582C209.194 18.7686 210.032 18.5789 210.66 18.1337C211.466 17.5647 211.9 16.6164 212.368 15.6269C212.504 15.3383 212.633 15.0497 212.778 14.7776C213.076 14.2004 214.172 12.3203 215.895 12.3203C216.024 12.3203 216.153 12.3286 216.29 12.3533C216.733 12.4275 217.127 12.6419 217.498 12.8563C219.721 14.1674 221.597 16.1629 222.789 18.4882C223.369 19.6262 224.207 21.8113 223.248 23.6254C222.266 25.4807 220.107 25.8683 218.464 25.8683C217.989 25.8683 217.49 25.8353 216.99 25.7693L216.572 25.7116C215.968 25.6292 215.347 25.5467 214.751 25.5467C214.155 25.5467 213.64 25.6374 213.197 25.8188C212.537 26.0909 211.925 26.6104 211.337 27.1134C210.443 27.872 209.516 28.6554 208.357 28.6554H208.349ZM215.895 13.0212C214.832 13.0212 213.898 14.1014 213.382 15.1074C213.245 15.3795 213.117 15.6516 212.988 15.932C212.504 16.971 212.005 18.0347 211.055 18.7191C210.322 19.2468 209.42 19.453 208.55 19.6509C207.439 19.9065 206.392 20.1539 205.86 21.0197C205.417 21.7536 205.498 22.7266 205.627 23.7409C205.747 24.6479 205.868 25.5962 206.263 26.4043C206.585 27.0722 207.237 27.8226 208.099 27.938C209.13 28.0699 209.984 27.3525 210.894 26.5774C211.522 26.0415 212.174 25.489 212.939 25.1756C213.463 24.9612 214.051 24.854 214.743 24.854C215.38 24.854 216.024 24.9448 216.652 25.0272L217.071 25.0849C217.546 25.1427 218.013 25.1756 218.464 25.1756C219.922 25.1756 221.823 24.854 222.644 23.2956C223.458 21.7618 222.709 19.8323 222.185 18.8181C221.05 16.6082 219.27 14.7116 217.16 13.4665C216.797 13.2521 216.499 13.1037 216.177 13.0459C216.08 13.0295 215.992 13.0212 215.895 13.0212Z" fill="#333333"/>
<path d="M159.454 25.0934C161.902 27.3775 166.541 24.3843 168.901 26.7509C169.561 27.4188 169.884 28.3918 170.584 29.0102C171.833 30.0987 173.782 29.6617 175.151 28.7464C176.069 28.1362 176.898 27.3033 177.261 26.2396C177.623 25.1759 177.43 23.873 176.584 23.1474C175.481 22.1909 173.733 22.5125 172.541 21.6714C171.639 21.0365 171.261 19.9068 170.834 18.876C170.343 17.6804 169.739 16.5425 169.03 15.4787C168.651 14.9098 168.192 14.3243 167.556 14.1017C166.799 13.8378 165.978 14.1429 165.253 14.4892C163.416 15.388 161.749 16.6579 160.38 18.2081C159.534 19.1647 158.785 20.2614 158.512 21.523C158.238 22.7846 158.512 24.2276 159.438 25.0934H159.454Z" fill="#F6FCFF"/>
<path d="M172.421 29.9913C171.623 29.9913 170.915 29.744 170.375 29.2657C169.964 28.9029 169.674 28.4411 169.4 28.0041C169.167 27.633 168.949 27.2784 168.668 26.9981C168.063 26.3961 167.242 26.124 166.018 26.124C165.438 26.124 164.81 26.1817 164.206 26.2395C163.586 26.2972 162.941 26.3631 162.321 26.3631C161.459 26.3631 160.203 26.2559 159.228 25.3571C158.278 24.4666 157.875 22.9329 158.198 21.4486C158.447 20.3024 159.067 19.1975 160.147 17.9771C161.532 16.4021 163.255 15.091 165.124 14.1757C165.623 13.9284 166.284 13.6562 166.96 13.6562C167.21 13.6562 167.459 13.6975 167.685 13.7717C168.418 14.0273 168.909 14.6458 169.336 15.2807C170.061 16.3691 170.681 17.5318 171.172 18.744L171.301 19.0573C171.664 19.9561 172.034 20.8796 172.759 21.3909C173.266 21.7455 173.902 21.8691 174.571 22.0093C175.36 22.166 176.174 22.3309 176.826 22.8916C177.72 23.6667 178.042 25.0933 177.599 26.3714C177.253 27.3774 176.472 28.3092 175.352 29.0513C174.434 29.6615 173.363 30.0078 172.429 30.0078L172.421 29.9913ZM166.018 25.4149C166.904 25.4149 168.184 25.5303 169.143 26.4868C169.481 26.8249 169.731 27.229 169.972 27.6248C170.23 28.0453 170.48 28.4411 170.81 28.7297C171.237 29.1008 171.776 29.2904 172.413 29.2904C173.226 29.2904 174.152 28.9853 174.966 28.4411C175.658 27.9793 176.568 27.2042 176.947 26.1158C177.293 25.1098 177.06 23.9966 176.375 23.4029C175.86 22.9576 175.167 22.8257 174.434 22.6772C173.725 22.5371 172.984 22.3886 172.364 21.9516C171.47 21.3249 171.059 20.3024 170.665 19.3129L170.544 19.0078C170.069 17.8369 169.473 16.7155 168.772 15.6682C168.418 15.1323 168.007 14.6128 167.467 14.4231C166.839 14.2087 166.002 14.5138 165.422 14.7942C163.634 15.6682 161.983 16.9299 160.654 18.4306C159.663 19.5603 159.092 20.5663 158.866 21.5888C158.592 22.8339 158.914 24.1038 159.688 24.8212C160.3 25.3901 161.113 25.6458 162.313 25.6458C162.901 25.6458 163.529 25.588 164.133 25.5303C164.753 25.4726 165.398 25.4066 166.01 25.4066L166.018 25.4149Z" fill="#333333"/>
<path d="M187.344 85.8823C187.087 85.8823 186.829 85.8741 186.571 85.8493C183.334 85.5937 178.654 83.1282 178.316 79.1619C178.227 78.1724 178.646 77.2324 179.371 76.7624C179.903 76.4243 180.491 76.3831 180.893 76.3831C181.095 76.3831 181.296 76.3913 181.497 76.4078C181.94 76.4326 182.319 76.4408 182.697 76.4408C185.275 76.4408 187.787 75.9543 190.179 75.006L190.501 74.8741C191.114 74.6267 191.75 74.3628 192.451 74.2639C192.644 74.2309 192.845 74.2227 193.046 74.2227C193.876 74.2227 194.593 74.4783 195.116 74.973C195.914 75.7152 196.22 76.9356 195.994 78.5023C195.382 82.8561 191.822 85.8906 187.336 85.8906L187.344 85.8823ZM180.893 77.7849C180.523 77.7849 180.273 77.8343 180.096 77.9498C179.806 78.1312 179.637 78.5847 179.677 79.0382C179.951 82.1964 183.986 84.2414 186.676 84.4558C190.743 84.7774 194.102 82.1469 194.649 78.2961C194.754 77.5375 194.762 76.5315 194.198 76.0038C193.86 75.6904 193.248 75.5585 192.652 75.6492C192.112 75.7316 191.573 75.946 191.009 76.1769L190.671 76.3089C187.747 77.4715 184.622 77.991 181.473 77.8096C181.24 77.7931 181.062 77.7849 180.885 77.7849H180.893Z" fill="#333333"/>
<path d="M246.87 62.3652L262.438 57.7311C264.717 59.908 267.415 61.6561 270.484 62.8188C283.603 67.7745 298.431 60.1636 303.601 45.8158C308.772 31.4679 302.329 15.8173 289.209 10.8615C276.089 5.90571 261.262 13.5167 256.092 27.8645C253.957 33.785 253.804 39.92 255.278 45.4447L246.87 62.3652Z" fill="#F6FCFF"/>
<path d="M278.755 65.0279C275.848 65.0279 272.981 64.5084 270.25 63.4694C267.295 62.3562 264.613 60.6823 262.261 58.5054L247.063 63.0324C246.806 63.1148 246.524 63.0241 246.347 62.8097C246.169 62.5953 246.137 62.2985 246.266 62.0429L254.553 45.3615C253.055 39.5399 253.361 33.4049 255.455 27.6163C259.547 16.27 269.791 8.64258 280.946 8.64258C283.853 8.64258 286.72 9.16207 289.451 10.201C302.9 15.2805 309.537 31.3682 304.245 46.0541C300.154 57.4005 289.91 65.0279 278.755 65.0279ZM262.438 57.0294C262.607 57.0294 262.776 57.0954 262.905 57.219C265.184 59.4042 267.818 61.0616 270.717 62.1583C273.303 63.1313 276.001 63.6261 278.755 63.6261C289.338 63.6261 299.067 56.3697 302.965 45.5676C307.998 31.6073 301.725 16.3277 288.975 11.5121C286.39 10.5391 283.692 10.0444 280.938 10.0444C270.355 10.0444 260.626 17.3008 256.736 28.1028C254.714 33.7018 254.441 39.6388 255.939 45.2543C255.987 45.4192 255.963 45.6006 255.89 45.7573L248.199 61.2348L262.253 57.0541C262.317 57.0376 262.382 57.0294 262.446 57.0294H262.438Z" fill="#5669FF"/>
<path d="M120.594 55.2821C120.594 32.4575 102.425 13.9867 80.0676 14.2588C58.4592 14.5227 40.8455 32.5812 40.5475 54.6966C40.3784 67.0242 45.5167 78.1314 53.8041 85.7588C60.2632 91.7041 64.0969 100.074 64.0969 108.971V110.043H97.0289V109.235C97.0289 100.206 100.903 91.7124 107.434 85.6516C115.529 78.1479 120.586 67.321 120.586 55.2821H120.594Z" fill="white"/>
<path d="M97.037 110.735H64.1049C63.7264 110.735 63.4203 110.421 63.4203 110.034V108.962C63.4203 100.427 59.7478 92.1568 53.3531 86.2692C44.6227 78.2295 39.7019 66.7182 39.871 54.6793C40.177 32.267 58.2095 13.8127 80.0676 13.5488H80.5589C103.013 13.5488 121.279 32.267 121.279 55.273C121.279 67.0233 116.406 78.279 107.902 86.162C101.434 92.165 97.7215 100.568 97.7215 109.226V110.034C97.7215 110.421 97.4155 110.735 97.037 110.735ZM64.7895 109.333H96.3524V109.226C96.3524 100.18 100.226 91.3899 106.983 85.1313C115.198 77.5121 119.91 66.6275 119.91 55.2812C119.91 33.0421 102.256 14.9506 80.5589 14.9506H80.0837C58.9585 15.2063 41.5301 33.0421 41.2401 54.704C41.0791 66.3389 45.8308 77.4626 54.2712 85.2385C60.9559 91.3899 64.7895 100.04 64.7895 108.97V109.341V109.333Z" fill="#333333"/>
<path d="M64.3384 116.869H96.7067V118.065C96.7067 124.67 91.4717 130.03 85.0206 130.03H76.0325C69.5814 130.03 64.3464 124.67 64.3464 118.065V116.869H64.3384Z" fill="#4257FF"/>
<path d="M86.7844 130.73H74.2607C68.4136 130.73 63.6538 125.857 63.6538 119.87V116.168H97.3912V119.87C97.3912 125.857 92.6314 130.73 86.7844 130.73ZM65.023 117.57V119.879C65.023 125.09 69.1707 129.337 74.2607 129.337H86.7844C91.8744 129.337 96.0221 125.09 96.0221 119.879V117.57H65.023Z" fill="#333333"/>
<path d="M97.9712 99.8008H63.2028C60.6408 99.8008 58.5638 101.927 58.5638 104.55V105.26C58.5638 107.883 60.6408 110.009 63.2028 110.009H97.9712C100.533 110.009 102.61 107.883 102.61 105.26V104.55C102.61 101.927 100.533 99.8008 97.9712 99.8008Z" fill="#4257FF"/>
<path d="M97.9712 110.702H63.2028C60.2632 110.702 57.8793 108.253 57.8793 105.251V104.55C57.8793 101.54 60.2713 99.0996 63.2028 99.0996H97.9712C100.911 99.0996 103.295 101.549 103.295 104.55V105.251C103.295 108.261 100.903 110.702 97.9712 110.702ZM63.2028 100.493C61.0203 100.493 59.2404 102.307 59.2404 104.55V105.251C59.2404 107.486 61.0122 109.308 63.2028 109.308H97.9712C100.154 109.308 101.934 107.494 101.934 105.251V104.55C101.934 102.316 100.162 100.493 97.9712 100.493H63.2028Z" fill="#333333"/>
<path d="M97.9712 110.002H63.2028C60.6408 110.002 58.5638 112.128 58.5638 114.752V115.461C58.5638 118.084 60.6408 120.21 63.2028 120.21H97.9712C100.533 120.21 102.61 118.084 102.61 115.461V114.752C102.61 112.128 100.533 110.002 97.9712 110.002Z" fill="#4257FF"/>
<path d="M97.9712 120.911H63.2028C60.2632 120.911 57.8793 118.462 57.8793 115.46V114.759C57.8793 111.749 60.2713 109.309 63.2028 109.309H97.9712C100.911 109.309 103.295 111.758 103.295 114.759V115.46C103.295 118.47 100.903 120.911 97.9712 120.911ZM63.2028 110.702C61.0203 110.702 59.2404 112.516 59.2404 114.759V115.46C59.2404 117.695 61.0122 119.517 63.2028 119.517H97.9712C100.154 119.517 101.934 117.703 101.934 115.46V114.759C101.934 112.524 100.162 110.702 97.9712 110.702H63.2028Z" fill="#333333"/>
<path d="M76.4675 99.833L75.0984 99.767C75.9118 82.9537 75.2514 70.6838 73.7856 62.0998C67.6245 61.9184 62.5506 61.3082 60.7062 60.3847C57.3558 58.7108 56.8968 54.0931 57.8874 50.5144C59.0633 46.2677 61.9707 43.7527 65.2969 44.0908C69.7909 44.5526 73.0769 50.4072 74.9615 60.7145C78.0622 60.7722 81.4126 60.731 84.7388 60.5743C86.4623 60.4919 88.1053 60.3764 89.6677 60.2445C90.7953 52.6913 92.4141 46.7048 94.7175 45.3277C98.1404 43.2827 102.296 43.8105 105.3 46.6635C108.055 49.2857 108.86 53.0211 107.354 56.1793C106.009 58.9994 99.0504 60.698 90.8678 61.5309C89.1523 74.1388 88.5161 91.3067 88.4275 99.8165L87.0583 99.8C87.0986 96.4851 87.4046 76.5384 89.4584 61.6628C84.7549 62.0751 79.7455 62.2235 75.2031 62.1411C76.7494 71.5331 77.2085 84.3142 76.4595 99.8412L76.4675 99.833ZM64.6929 45.4514C61.7693 45.4514 59.917 48.321 59.2082 50.8937C58.3384 54.0271 58.7814 57.8614 61.3103 59.1231C62.9452 59.9394 67.6808 60.4919 73.536 60.6733C71.5547 50.2917 68.3171 45.7977 65.168 45.4761C65.007 45.4596 64.8539 45.4514 64.7009 45.4514H64.6929ZM99.0746 45.4761C97.8987 45.4761 96.6585 45.7812 95.4101 46.5234C93.5255 47.6448 92.1161 53.0294 91.0772 60.0961C99.5739 59.2385 105.163 57.5893 106.13 55.5526C107.37 52.9634 106.677 49.8712 104.374 47.6778C103.126 46.4904 101.217 45.4761 99.0746 45.4761Z" fill="#5669FF"/>
<path d="M73.4796 104.443H63.9116C62.9693 104.443 62.2042 104.17 62.2042 103.206C62.2042 102.241 62.9693 101.969 63.9116 101.969H73.4796C74.4219 101.969 75.187 102.241 75.187 103.206C75.187 104.17 74.4219 104.443 73.4796 104.443Z" fill="#F6FCFF"/>
<path d="M73.4796 117.636H63.9116C62.9693 117.636 62.2042 116.952 62.2042 115.987C62.2042 115.022 62.9693 114.338 63.9116 114.338H73.4796C74.4219 114.338 75.187 115.022 75.187 115.987C75.187 116.952 74.4219 117.636 73.4796 117.636Z" fill="#F6FCFF"/>
<path d="M63.6538 48.4621C69.9344 48.4621 75.0258 43.2493 75.0258 36.819C75.0258 30.3886 69.9344 25.1758 63.6538 25.1758C57.3733 25.1758 52.2819 30.3886 52.2819 36.819C52.2819 43.2493 57.3733 48.4621 63.6538 48.4621Z" fill="#F6FCFF"/>
<path d="M54.5853 53.1545C57.6633 53.1545 60.1586 50.5998 60.1586 47.4483C60.1586 44.2969 57.6633 41.7422 54.5853 41.7422C51.5073 41.7422 49.0121 44.2969 49.0121 47.4483C49.0121 50.5998 51.5073 53.1545 54.5853 53.1545Z" fill="#F6FCFF"/>
<path d="M197.669 248.927C197.669 248.927 195.608 243.732 198.241 222.969H301.998C301.998 222.969 293.735 230.761 300.855 248.927H197.669Z" fill="#F6FCFF"/>
<path d="M300.871 249.627C300.871 249.627 300.863 249.627 300.855 249.627H197.669C197.387 249.627 197.138 249.454 197.033 249.19C196.944 248.968 194.939 243.591 197.557 222.878C197.597 222.531 197.895 222.268 198.233 222.268H301.99C302.272 222.268 302.522 222.441 302.627 222.713C302.731 222.985 302.659 223.29 302.449 223.48C302.369 223.554 294.669 231.181 301.435 248.547C301.507 248.654 301.547 248.786 301.547 248.926C301.547 249.314 301.241 249.627 300.863 249.627H300.871ZM198.177 248.226H299.856C294.669 234.232 298.503 226.473 300.517 223.661H198.845C196.767 240.384 197.798 246.642 198.185 248.226H198.177Z" fill="#333333"/>
<path d="M198.813 249.891L199.288 223.307C199.288 223.307 189.406 227.999 189.688 236.17C189.97 244.342 198.813 249.883 198.813 249.883V249.891Z" fill="#333333"/>
<path d="M301.998 247.5H199.385C198.885 247.5 198.41 247.632 197.983 247.847C196.751 246.404 193.087 241.637 193.353 236.302C193.514 233.169 195.084 230.233 198.008 227.545C198.426 227.751 198.894 227.875 199.377 227.875H301.99C303.883 227.875 305.413 226.127 305.413 224.197C305.413 222.268 303.883 220.52 301.99 220.52H298.608C266.691 220.52 234.588 221.518 202.695 220.429C202.083 220.404 201.463 220.38 200.851 220.38C198.531 220.363 196.147 220.627 194.102 221.748C189.535 224.247 186.748 230.959 186.515 236.014C186.233 242 188.359 248.366 193.055 252.151C198.604 256.628 207.318 255.557 213.994 255.35C241.506 254.509 269.034 254.872 296.53 254.872H301.998C303.891 254.872 305.421 253.124 305.421 251.194C305.421 249.265 303.891 247.517 301.998 247.517V247.5Z" fill="#4257FF"/>
<path d="M206.263 256.299C202.002 256.299 196.598 255.886 192.636 252.687C188.126 249.05 185.524 242.643 185.838 235.964C186.08 230.736 188.955 223.76 193.787 221.113C195.591 220.124 197.79 219.662 200.698 219.662H200.867C201.358 219.662 201.849 219.679 202.349 219.703L202.735 219.72C212.915 220.066 223.683 220.231 236.626 220.231C246.967 220.231 257.485 220.124 267.657 220.025C277.813 219.918 288.323 219.819 298.632 219.819H302.015C304.237 219.819 306.122 221.823 306.122 224.197C306.122 226.572 304.245 228.576 302.015 228.576H199.401C198.982 228.576 198.571 228.502 198.169 228.362C195.583 230.844 194.198 233.523 194.053 236.335C193.82 241.019 196.848 245.323 198.201 246.997C198.596 246.865 198.99 246.791 199.401 246.791H302.015C304.237 246.791 306.122 248.795 306.122 251.17C306.122 253.544 304.245 255.548 302.015 255.548H296.546C290.232 255.548 283.91 255.532 277.587 255.507C271.265 255.49 264.943 255.466 258.621 255.466C246.371 255.466 230.231 255.532 214.035 256.018C213.197 256.043 212.327 256.084 211.441 256.125C209.766 256.2 208.035 256.282 206.279 256.282L206.263 256.299ZM200.698 221.064C198.024 221.064 196.034 221.468 194.432 222.35C190.203 224.667 187.433 231.124 187.207 236.038C186.917 242.272 189.318 248.234 193.489 251.598C197.122 254.534 202.228 254.905 206.271 254.905C208.002 254.905 209.718 254.831 211.377 254.757C212.271 254.715 213.149 254.674 213.994 254.649C230.207 254.155 246.363 254.097 258.621 254.097C264.943 254.097 271.273 254.113 277.595 254.138C283.918 254.155 290.232 254.179 296.546 254.179H302.015C303.472 254.179 304.753 252.786 304.753 251.203C304.753 249.619 303.472 248.226 302.015 248.226H199.401C199.03 248.226 198.66 248.317 198.306 248.498C198.032 248.638 197.693 248.572 197.492 248.333C196.292 246.931 192.41 241.909 192.7 236.294C192.869 232.987 194.512 229.879 197.581 227.05C197.79 226.861 198.08 226.82 198.33 226.943C198.676 227.116 199.038 227.199 199.409 227.199H302.023C303.48 227.199 304.761 225.805 304.761 224.222C304.761 222.639 303.48 221.245 302.023 221.245H298.64C288.339 221.245 277.837 221.353 267.681 221.451C257.509 221.55 246.983 221.658 236.642 221.658C223.683 221.658 212.899 221.493 202.711 221.146L202.324 221.13C201.841 221.113 201.366 221.097 200.883 221.097H200.722L200.698 221.064Z" fill="#333333"/>
<path d="M236.263 232.55H198.386C198.008 232.55 197.702 232.237 197.702 231.849C197.702 231.462 198.008 231.148 198.386 231.148H236.263C236.642 231.148 236.948 231.462 236.948 231.849C236.948 232.237 236.642 232.55 236.263 232.55Z" fill="#333333"/>
<path d="M265.901 233.152H244.414C244.035 233.152 243.729 232.838 243.729 232.451C243.729 232.063 244.035 231.75 244.414 231.75H265.901C266.28 231.75 266.586 232.063 266.586 232.451C266.586 232.838 266.28 233.152 265.901 233.152Z" fill="#333333"/>
<path d="M297.786 232.65H283.459C283.08 232.65 282.774 232.337 282.774 231.949C282.774 231.561 283.08 231.248 283.459 231.248H297.786C298.165 231.248 298.471 231.561 298.471 231.949C298.471 232.337 298.165 232.65 297.786 232.65Z" fill="#333333"/>
<path d="M297.915 238.173H246.661C246.282 238.173 245.976 237.86 245.976 237.472C245.976 237.085 246.282 236.771 246.661 236.771H297.915C298.294 236.771 298.6 237.085 298.6 237.472C298.6 237.86 298.294 238.173 297.915 238.173Z" fill="#333333"/>
<path d="M223.119 237.671H197.605C197.226 237.671 196.92 237.358 196.92 236.97C196.92 236.583 197.226 236.27 197.605 236.27H223.119C223.498 236.27 223.804 236.583 223.804 236.97C223.804 237.358 223.498 237.671 223.119 237.671Z" fill="#333333"/>
<path d="M203.984 244.408H197.017C196.638 244.408 196.332 244.094 196.332 243.707C196.332 243.319 196.638 243.006 197.017 243.006H203.984C204.362 243.006 204.668 243.319 204.668 243.707C204.668 244.094 204.362 244.408 203.984 244.408Z" fill="#333333"/>
<path d="M299.55 245.208H281.695C281.316 245.208 281.01 244.895 281.01 244.508C281.01 244.12 281.316 243.807 281.695 243.807H299.55C299.929 243.807 300.235 244.12 300.235 244.508C300.235 244.895 299.929 245.208 299.55 245.208Z" fill="#333333"/>
<path d="M312.074 286.306C312.074 286.306 314.627 280.229 311.365 255.92H182.842C182.842 255.92 193.079 265.04 184.252 286.306H312.066H312.074Z" fill="#F6FCFF"/>
<path d="M312.074 287.007H184.26C184.034 287.007 183.817 286.891 183.688 286.693C183.559 286.495 183.543 286.248 183.632 286.034C192.169 265.468 182.496 256.53 182.399 256.447C182.182 256.258 182.109 255.944 182.206 255.672C182.303 255.4 182.56 255.219 182.842 255.219H311.365C311.703 255.219 311.993 255.474 312.042 255.821C315.287 280.047 312.807 286.33 312.702 286.578C312.597 286.833 312.348 286.998 312.074 286.998V287.007ZM185.283 285.605H311.574C312.025 283.865 313.387 276.477 310.769 256.612H184.405C186.845 259.729 191.903 268.849 185.283 285.605Z" fill="#333333"/>
<path d="M310.664 289.266L310.068 256.34C310.068 256.34 322.31 262.153 321.964 272.279C321.618 282.405 310.664 289.274 310.664 289.274V289.266Z" fill="#333333"/>
<path d="M182.85 286.306H309.964C310.584 286.306 311.164 286.463 311.695 286.735C313.217 284.946 317.76 279.041 317.43 272.437C317.236 268.561 315.279 264.916 311.663 261.593C311.14 261.849 310.568 261.997 309.964 261.997H182.85C180.507 261.997 178.614 259.837 178.614 257.437C178.614 255.038 180.507 252.877 182.85 252.877H187.038C226.574 252.877 266.336 254.114 305.848 252.762C306.613 252.737 307.37 252.704 308.135 252.696C311.003 252.679 313.966 253.001 316.495 254.386C322.157 257.487 325.596 265.799 325.894 272.057C326.24 279.47 323.607 287.353 317.792 292.045C310.922 297.595 300.122 296.267 291.851 296.012C257.767 294.973 223.667 295.418 189.616 295.418H182.842C180.499 295.418 178.606 293.257 178.606 290.858C178.606 288.458 180.499 286.298 182.842 286.298L182.85 286.306Z" fill="white"/>
<path d="M301.435 297.034C299.26 297.034 297.118 296.935 295.048 296.844C293.945 296.795 292.865 296.745 291.826 296.712C271.756 296.102 251.751 296.02 236.569 296.02C228.741 296.02 220.913 296.044 213.084 296.069C205.256 296.094 197.436 296.119 189.616 296.119H182.842C180.176 296.119 177.921 293.711 177.921 290.858C177.921 288.005 180.176 285.597 182.842 285.597H309.956C310.479 285.597 310.995 285.688 311.494 285.877C313.145 283.849 317.035 278.407 316.737 272.461C316.56 268.907 314.804 265.526 311.518 262.401C311.011 262.591 310.487 262.69 309.956 262.69H182.842C180.176 262.69 177.921 260.282 177.921 257.429C177.921 254.576 180.176 252.168 182.842 252.168H187.03C199.804 252.168 212.811 252.3 225.399 252.424C238.003 252.547 251.034 252.679 263.839 252.679C279.875 252.679 293.212 252.482 305.816 252.044L306.235 252.028C306.863 252.003 307.491 251.987 308.119 251.979H308.329C311.905 251.979 314.595 252.539 316.809 253.751C322.745 257 326.265 265.584 326.571 272.008C326.957 280.229 323.752 288.112 318.211 292.581C313.338 296.514 306.686 297.017 301.435 297.017V297.034ZM236.569 294.626C251.759 294.626 271.781 294.709 291.867 295.319C292.914 295.352 293.993 295.401 295.104 295.451C297.158 295.541 299.292 295.64 301.435 295.64C306.468 295.64 312.823 295.17 317.365 291.501C322.568 287.304 325.572 279.866 325.201 272.09C324.92 266.046 321.658 258.006 316.165 254.997C314.16 253.9 311.671 253.389 308.329 253.389H308.127C307.515 253.389 306.895 253.413 306.283 253.438L305.864 253.455C293.236 253.892 279.883 254.089 263.839 254.089C251.026 254.089 237.987 253.958 225.383 253.834C212.802 253.702 199.796 253.578 187.03 253.578H182.842C180.95 253.578 179.291 255.384 179.291 257.437C179.291 259.491 180.95 261.296 182.842 261.296H309.956C310.431 261.296 310.906 261.181 311.357 260.958C311.607 260.835 311.905 260.876 312.106 261.065C315.875 264.529 317.897 268.347 318.098 272.395C318.444 279.289 313.668 285.465 312.195 287.188C311.993 287.428 311.655 287.494 311.381 287.353C310.914 287.122 310.431 286.999 309.948 286.999H182.834C180.942 286.999 179.282 288.805 179.282 290.858C179.282 292.911 180.942 294.717 182.834 294.717H189.607C197.428 294.717 205.248 294.692 213.076 294.667C220.905 294.643 228.733 294.618 236.569 294.618V294.626Z" fill="#333333"/>
<path d="M311.188 267.621H264.274C263.896 267.621 263.59 267.307 263.59 266.92C263.59 266.532 263.896 266.219 264.274 266.219H311.188C311.566 266.219 311.872 266.532 311.872 266.92C311.872 267.307 311.566 267.621 311.188 267.621Z" fill="#333333"/>
<path d="M254.183 268.371H227.565C227.187 268.371 226.88 268.057 226.88 267.67C226.88 267.282 227.187 266.969 227.565 266.969H254.183C254.561 266.969 254.867 267.282 254.867 267.67C254.867 268.057 254.561 268.371 254.183 268.371Z" fill="#333333"/>
<path d="M205.812 267.746H188.069C187.691 267.746 187.385 267.432 187.385 267.045C187.385 266.657 187.691 266.344 188.069 266.344H205.812C206.19 266.344 206.496 266.657 206.496 267.045C206.496 267.432 206.19 267.746 205.812 267.746Z" fill="#333333"/>
<path d="M251.388 274.589H187.9C187.521 274.589 187.215 274.276 187.215 273.888C187.215 273.501 187.521 273.188 187.9 273.188H251.388C251.767 273.188 252.073 273.501 252.073 273.888C252.073 274.276 251.767 274.589 251.388 274.589Z" fill="#333333"/>
<path d="M312.154 273.97H280.551C280.173 273.97 279.867 273.657 279.867 273.269C279.867 272.882 280.173 272.568 280.551 272.568H312.154C312.533 272.568 312.839 272.882 312.839 273.269C312.839 273.657 312.533 273.97 312.154 273.97Z" fill="#333333"/>
<path d="M312.887 282.306H304.262C303.883 282.306 303.577 281.993 303.577 281.605C303.577 281.218 303.883 280.904 304.262 280.904H312.887C313.266 280.904 313.572 281.218 313.572 281.605C313.572 281.993 313.266 282.306 312.887 282.306Z" fill="#333333"/>
<path d="M207.994 283.304H185.87C185.492 283.304 185.186 282.991 185.186 282.603C185.186 282.216 185.492 281.902 185.87 281.902H207.994C208.373 281.902 208.679 282.216 208.679 282.603C208.679 282.991 208.373 283.304 207.994 283.304Z" fill="#333333"/>
<path d="M212.327 235.809V271.505L221.042 266.574L229.53 272.206V235.809C229.53 235.809 211.981 236.163 212.327 235.809Z" fill="white"/>
<path d="M229.53 272.906C229.401 272.906 229.273 272.865 229.16 272.791L221.017 267.381L212.657 272.106C212.448 272.222 212.19 272.222 211.981 272.098C211.772 271.974 211.643 271.743 211.643 271.496V235.899C211.643 235.899 211.643 235.849 211.643 235.824C211.643 235.635 211.715 235.445 211.844 235.305C212.037 235.107 212.335 235.041 212.593 235.156C212.609 235.156 212.625 235.173 212.641 235.181C212.907 235.214 213.777 235.264 216.636 235.264C221.67 235.264 229.442 235.107 229.514 235.107C229.699 235.123 229.877 235.173 230.005 235.305C230.134 235.437 230.207 235.618 230.207 235.808V272.205C230.207 272.461 230.07 272.7 229.852 272.824C229.748 272.881 229.635 272.906 229.522 272.906H229.53ZM221.041 265.872C221.17 265.872 221.299 265.914 221.412 265.988L228.846 270.919V236.525C226.816 236.566 220.792 236.665 216.636 236.665C214.776 236.665 213.68 236.649 213.012 236.616V270.317L220.711 265.963C220.816 265.905 220.929 265.872 221.041 265.872Z" fill="#333333"/>
<path d="M229.53 272.403C229.53 272.403 229.458 272.395 229.426 272.37L221.042 266.796L212.432 271.669C212.368 271.702 212.295 271.702 212.239 271.669C212.182 271.636 212.142 271.57 212.142 271.496V235.857C212.142 235.857 212.142 235.833 212.142 235.816C212.142 235.759 212.166 235.701 212.207 235.66C212.263 235.602 212.343 235.585 212.424 235.618C212.448 235.627 212.464 235.643 212.488 235.66C212.682 235.693 213.479 235.759 216.66 235.759C221.694 235.759 229.474 235.602 229.554 235.602C229.611 235.602 229.659 235.618 229.699 235.66C229.74 235.701 229.756 235.75 229.756 235.8V272.197C229.756 272.271 229.716 272.337 229.651 272.37C229.619 272.387 229.587 272.395 229.554 272.395L229.53 272.403ZM221.042 266.367C221.042 266.367 221.114 266.375 221.146 266.4L229.329 271.834V236.014C228.073 236.039 221.219 236.163 216.628 236.163C213.986 236.163 212.947 236.121 212.521 236.072V271.158L220.945 266.392C220.945 266.392 221.009 266.367 221.042 266.367Z" fill="white"/>
<path d="M229.53 273.104C229.361 273.104 229.192 273.054 229.055 272.964L221.009 267.62L212.754 272.288C212.472 272.444 212.142 272.436 211.876 272.271C211.611 272.106 211.441 271.809 211.441 271.496V235.899C211.441 235.899 211.441 235.841 211.441 235.816C211.441 235.593 211.53 235.338 211.707 235.165C211.957 234.909 212.351 234.827 212.682 234.975C212.682 234.975 212.69 234.975 212.698 234.975C212.972 235 213.849 235.049 216.636 235.049C221.251 235.049 228.137 234.917 229.474 234.893C229.49 234.893 229.538 234.893 229.554 234.893C229.78 234.893 229.989 234.992 230.15 235.148C230.32 235.321 230.416 235.552 230.416 235.791V272.189C230.416 272.518 230.239 272.824 229.957 272.98C229.828 273.054 229.683 273.087 229.538 273.087L229.53 273.104ZM221.042 265.666C221.211 265.666 221.38 265.716 221.517 265.806L228.644 270.539V236.715C226.196 236.756 220.591 236.855 216.628 236.855C214.816 236.855 213.801 236.839 213.205 236.814V269.962L220.615 265.765C220.752 265.691 220.897 265.65 221.042 265.65V265.666Z" fill="#333333"/>
<path d="M279.891 38.0222L272.57 39.5395L268.406 18.529L275.727 17.0117L279.891 38.0222ZM281.848 44.6766C282.081 45.864 281.872 46.9525 281.204 47.942C280.535 48.9315 279.609 49.5499 278.417 49.7973C277.281 50.0365 276.218 49.8303 275.211 49.1871C274.205 48.544 273.593 47.6452 273.359 46.4825C273.126 45.3198 273.343 44.2396 274.011 43.2336C274.672 42.2276 275.59 41.6092 276.75 41.3618C277.942 41.1144 279.029 41.3123 280.02 41.9555C281.01 42.5987 281.622 43.5057 281.848 44.6684V44.6766Z" fill="#333333"/>
<path d="M290.506 47.5469C290.385 48.4128 289.974 49.0972 289.29 49.6084C288.605 50.1114 287.824 50.3011 286.954 50.1774C286.124 50.0537 285.448 49.6496 284.924 48.9652C284.393 48.2808 284.191 47.514 284.312 46.6646C284.433 45.8236 284.836 45.1391 285.52 44.6197C286.213 44.1002 286.978 43.9105 287.824 44.0342C288.694 44.1661 289.386 44.5702 289.902 45.2546C290.417 45.939 290.618 46.7059 290.498 47.5469H290.506ZM290.755 42.5417L285.424 41.7501L287.59 26.4375L292.922 27.2291L290.755 42.5417Z" fill="#333333"/>
<path d="M89.5227 279.429L95.5389 277.474L89.5147 275.372C87.7106 274.885 86.3334 273.401 85.9468 271.537L84.0381 262.277L81.9844 271.331C81.5495 273.244 80.0756 274.72 78.2071 275.124L72.5372 277.12L78.0058 279.099C79.9226 279.552 81.3884 281.136 81.7427 283.115L83.3213 292.07L85.6247 283.106C86.116 281.21 87.6301 279.775 89.5147 279.429H89.5227Z" fill="#333333"/>
<path d="M135.703 24.5491L140.197 23.0896L135.703 21.5229C134.358 21.1601 133.327 20.0551 133.046 18.6616L131.62 11.7598L130.09 18.5131C129.768 19.9397 128.664 21.0446 127.271 21.3415L123.043 22.834L127.126 24.31C128.552 24.6481 129.647 25.8272 129.913 27.3032L131.088 33.9824L132.804 27.295C133.166 25.885 134.302 24.813 135.703 24.5491Z" fill="#333333"/>
</svg>
