<svg width="310" height="320" viewBox="0 0 310 320" fill="none" xmlns="http://www.w3.org/2000/svg">
<path d="M283.041 51.8003C288.584 60.5772 292.521 70.4305 295.335 80.3997C306.746 120.732 296.976 157.189 265.968 186.186C248.716 202.324 229.424 216.036 212.606 232.654C198.321 246.771 186.265 266.163 165.825 272.506C148.888 277.764 130.616 272.365 113.713 266.983C98.4252 262.114 83.1377 257.246 67.8416 252.377C61.6518 250.406 55.4194 248.419 49.7738 245.264C40.2084 239.915 32.8452 231.511 26.4854 222.734C3.12041 190.458 -7.93288 149.878 6.40238 111.839C13.417 93.2256 24.7933 69.5197 41.977 57.8862C58.2593 46.8654 79.3966 45.1763 98.6378 45.1514C121.484 45.1266 145.47 46.7495 166.003 37.0038C184.335 28.3098 198.194 19.0941 219.552 18.8291C238.003 18.5972 256.776 24.2691 270.448 36.6478C275.371 41.1108 279.529 46.2444 283.041 51.8003Z" fill="#4257FF"/>
<path d="M221.686 65.3378L230.767 62.5309L221.678 59.5087C218.957 58.8131 216.883 56.6852 216.296 54.0024L213.413 40.7129L210.319 53.7126C209.664 56.4533 207.445 58.5813 204.613 59.1609L196.06 62.0258L204.316 64.8576C207.207 65.5117 209.426 67.7805 209.953 70.6205L212.342 83.4712L215.82 70.604C216.551 67.8798 218.847 65.8264 221.686 65.3213V65.3378Z" fill="white"/>
<path d="M29.9884 165.461L36.0252 163.598L29.9884 161.594C28.1859 161.13 26.8 159.714 26.4089 157.934L24.4958 149.107L22.4382 157.744C22.0046 159.565 20.5251 160.973 18.6461 161.362L12.9579 163.266L18.442 165.154C20.3636 165.585 21.8345 167.092 22.1831 168.988L23.7646 177.533L26.0773 168.98C26.5619 167.175 28.0839 165.8 29.9799 165.469L29.9884 165.461Z" fill="white"/>
<path d="M299.085 184.389L304.458 182.725L299.085 180.936C297.478 180.522 296.245 179.263 295.905 177.682L294.196 169.824L292.368 177.516C291.985 179.139 290.667 180.398 288.992 180.737L283.933 182.435L288.814 184.116C290.523 184.505 291.832 185.846 292.147 187.527L293.558 195.128L295.616 187.519C296.049 185.912 297.401 184.687 299.085 184.397V184.389Z" fill="#333333"/>
<path d="M63.0888 58.9779L70.8942 56.5601L63.0888 53.9684C60.7507 53.3722 58.9651 51.5423 58.4635 49.2405L55.9892 37.8223L53.3279 48.9921C52.7668 51.3436 50.8537 53.1735 48.4305 53.6703L41.0758 56.1295L48.1669 58.5639C50.6497 59.1269 52.5542 61.0727 53.0134 63.5153L55.0625 74.561L58.0468 63.5071C58.676 61.1721 60.6486 59.4001 63.0888 58.9696V58.9779Z" fill="#333333"/>
<path d="M250.51 188.9C250.51 188.9 236.583 202.562 231.481 206.288C226.371 210.014 213.482 208.276 213.482 208.276C213.482 208.276 209.553 225.233 208.907 228.959C208.363 232.18 211.628 241.437 208.202 246.894C195.847 226.599 192.021 197.901 192.021 197.901L218.592 169.326L247.832 184.537C249.532 187.244 250.493 188.9 250.493 188.9H250.51Z" fill="white"/>
<path d="M208.21 247.25C208.066 247.267 207.963 247.184 207.895 247.077C195.643 226.948 191.707 198.232 191.673 197.951C191.656 197.851 191.69 197.744 191.766 197.669L218.371 169.095C218.481 168.979 218.66 168.946 218.804 169.02L248.07 184.231C248.138 184.264 248.189 184.314 248.214 184.372C250.374 187.071 250.859 188.735 250.876 188.801C250.91 188.926 250.876 189.05 250.782 189.141C250.646 189.273 236.762 202.861 231.703 206.562C229.458 208.202 225.581 209.03 220.165 209.03C217.197 209.03 214.646 208.765 213.762 208.665C213.227 210.992 209.851 225.623 209.264 229.018C209.094 230.02 209.324 231.709 209.587 233.655C210.14 237.72 210.888 243.293 208.508 247.077C208.44 247.184 208.329 247.242 208.202 247.242L208.21 247.25ZM192.412 198.017C192.744 200.335 196.749 227.006 208.202 246.191C210.072 242.63 209.383 237.53 208.873 233.754C208.601 231.742 208.372 230.011 208.559 228.902C209.196 225.209 213.099 208.367 213.133 208.193C213.176 208.011 213.354 207.895 213.533 207.92C213.567 207.92 216.551 208.317 220.165 208.317C223.778 208.317 228.642 207.912 231.269 205.991C235.996 202.538 248.555 190.308 250.111 188.793C249.923 188.296 249.286 186.864 247.636 184.794L218.694 169.749L192.395 198.001L192.412 198.017Z" fill="white"/>
<path d="M205.013 211.887C205.013 211.887 223.192 218.718 234.194 203.814L211.866 199.773L205.005 211.887H205.013Z" fill="white"/>
<path d="M66.5835 157.736L67.0256 157.164C64.7129 155.45 62.1962 154.324 59.7645 153.24C55.1901 151.195 50.8793 149.257 48.8897 143.726C46.8066 137.913 47.1637 129.666 52.8689 125.286C53.7107 124.64 54.6629 124.036 55.5897 123.456C58.3445 121.717 61.1929 119.912 62.1112 116.584C62.9954 113.388 61.3969 110.365 59.8495 107.434C59.2033 106.209 58.5316 104.942 58.0555 103.683C55.4792 96.8441 58.8972 88.2991 65.8353 84.2336C69.7124 81.9649 73.9977 81.2445 78.1469 80.549C81.3524 80.0107 84.6684 79.456 87.8228 78.1891C94.9564 75.3242 95.9852 69.4619 97.0821 63.2519C97.2266 62.4404 97.3711 61.629 97.5242 60.801C98.7911 54.2349 99.7604 47.5197 100.398 40.8377L99.6668 40.7715C99.0291 47.4287 98.0683 54.119 96.8015 60.6685C96.6399 61.4965 96.4954 62.3162 96.3593 63.1277C95.2625 69.3957 94.3102 74.8109 87.5422 77.5267C84.4728 78.7605 81.1908 79.3069 78.0194 79.8451C73.8021 80.549 69.4488 81.2776 65.4527 83.6209C58.2255 87.8603 54.6714 96.7779 57.3667 103.932C57.8514 105.232 58.5316 106.515 59.1948 107.766C60.7508 110.705 62.2132 113.479 61.4054 116.402C60.5552 119.465 57.8259 121.196 55.1901 122.86C54.2548 123.456 53.2855 124.069 52.4183 124.731C46.3985 129.352 45.9564 137.715 48.1925 143.966C50.2756 149.787 54.7395 151.782 59.4499 153.894C61.8476 154.97 64.3218 156.08 66.575 157.744L66.5835 157.736Z" fill="white"/>
<path d="M141.38 11.1035C141.38 11.1035 110.507 11.2443 100.313 36.4819C90.1184 61.7196 104.564 81.9892 91.8189 86.1293C79.0736 90.2693 75.2475 89.0273 65.9032 97.7131C56.5589 106.399 77.7982 118.397 64.6278 125.021C51.4574 131.637 52.3077 148.188 61.2268 153.156C70.146 158.124 171.683 141.159 171.683 141.159C171.683 141.159 161.344 141.225 171.113 135.437C180.883 129.641 199.155 122.611 195.329 115.581C191.503 108.552 171.964 106.275 183.434 95.1049C192.31 86.4605 185.984 66.3482 182.158 58.0764C178.332 49.8046 200.498 19.2511 141.372 11.1201L141.38 11.1035Z" fill="#333333"/>
<path d="M250.51 188.902C250.51 188.902 236.583 202.564 231.481 206.29C226.371 210.016 213.482 208.277 213.482 208.277C213.482 208.277 209.553 225.235 208.907 228.961C208.363 232.182 211.628 241.439 208.201 246.895C207.666 247.748 205.455 259.655 204.545 260.284L108.467 250.704C108.467 250.704 102.09 246.97 100.491 239.824C98.9015 232.678 96.9884 211.87 96.9884 211.87L92.5246 223.363C92.5246 223.363 79.7708 227.404 66.6854 220.573C53.6086 213.734 47.5463 204.104 40.2171 199.45C32.8794 194.789 34.7925 189.821 34.7925 189.821C34.7925 189.821 35.7447 190.756 46.594 174.908C57.4347 159.06 67 133.599 73.0623 129.244C79.1246 124.905 100.815 120.235 105.916 117.445C111.018 114.646 113.254 109.363 122.19 109.678C131.118 109.992 157.586 108.742 157.586 108.742C161.412 109.264 167.797 109.877 170.875 113.197C173.962 116.509 187.353 120.136 196.502 121.378C205.642 122.628 216.058 132.672 222.112 140.736C226.941 147.17 242.739 173.931 247.84 184.53C248.691 187.237 250.502 188.893 250.502 188.893L250.51 188.902Z" fill="white"/>
<path d="M204.741 261.021L204.469 260.996L108.237 251.399L108.101 251.317C107.829 251.159 101.435 247.342 99.7941 239.981C98.5613 234.442 97.1584 221.02 96.5632 214.967L93.0771 223.934L92.7455 224.042C92.584 224.092 88.8259 225.259 83.2652 225.259C77.1944 225.259 71.5062 223.893 66.3452 221.202C58.3188 217.004 52.9792 211.837 48.2688 207.283C45.2504 204.36 42.6401 201.835 39.8173 200.046C32.0885 195.128 34.0271 189.804 34.1121 189.58L34.5032 188.554L34.9369 188.976C35.7106 188.355 38.3294 185.705 45.9901 174.527C50.9641 167.257 55.717 157.851 59.9173 149.554C64.9168 139.668 69.2275 131.131 72.6371 128.689C76.2846 126.072 85.2208 123.414 93.1026 121.063C98.4592 119.465 103.518 117.966 105.559 116.84C107.047 116.028 108.263 115.002 109.555 113.917C112.573 111.383 115.694 108.758 122.207 108.99C123.151 109.023 124.341 109.04 125.752 109.04C136.525 109.04 157.339 108.063 157.552 108.055H157.62L158.555 108.179C162.466 108.692 168.376 109.479 171.419 112.741C174.183 115.714 186.996 119.39 196.604 120.698C205.812 121.957 216.041 131.669 222.545 140.339C227.502 146.938 243.317 174.022 248.197 184.248L248.223 184.306C249.592 186.856 250.901 188.446 250.918 188.462L251.326 188.951L250.876 189.398C250.306 189.961 236.931 203.143 231.847 206.853C229.543 208.533 225.589 209.386 220.113 209.386C217.41 209.386 215.105 209.171 214.017 209.055C213.311 212.143 210.174 225.822 209.613 229.085C209.451 230.028 209.681 231.701 209.936 233.622C210.497 237.737 211.262 243.384 208.814 247.268C208.635 247.615 208.108 249.925 207.64 251.971C206.084 258.769 205.591 260.433 204.962 260.863L204.741 261.021ZM108.713 250.033L204.18 259.547C204.69 258.396 205.642 254.239 206.229 251.664C207.002 248.261 207.326 246.936 207.581 246.539C209.757 243.078 209.026 237.721 208.499 233.812C208.227 231.776 207.98 230.012 208.176 228.861C208.814 225.151 212.572 208.831 212.733 208.136L212.878 207.507L213.532 207.598C213.532 207.598 216.525 207.995 220.096 207.995C225.181 207.995 228.939 207.217 230.963 205.743C235.452 202.464 246.99 191.211 249.388 188.852C248.869 188.156 247.9 186.773 246.888 184.885L246.803 184.712C241.871 174.428 226.261 147.7 221.363 141.175C215.326 133.118 205.157 123.29 196.391 122.098C187.642 120.914 173.715 117.328 170.331 113.693C167.644 110.812 162.05 110.067 158.343 109.578L157.535 109.471C156.217 109.529 136.236 110.456 125.735 110.456C124.307 110.456 123.1 110.439 122.139 110.406C116.196 110.208 113.424 112.526 110.482 114.993C109.189 116.078 107.855 117.196 106.248 118.082C104.062 119.274 99.1735 120.731 93.5023 122.421C85.731 124.739 76.9138 127.364 73.4703 129.831C70.3499 132.075 66.1071 140.471 61.1927 150.184C56.9754 158.522 52.2055 167.969 47.172 175.314C39.0521 187.163 36.3738 189.796 35.362 190.383C35.1239 191.46 34.8008 195.194 40.5825 198.879C43.5244 200.75 46.1857 203.317 49.2636 206.298C53.906 210.786 59.1606 215.87 66.9999 219.976C71.9484 222.56 77.4155 223.868 83.2397 223.868C87.6525 223.868 90.943 223.081 91.9463 222.808L97.3964 208.773L97.677 211.821C97.694 212.028 99.6071 232.67 101.172 239.691C102.557 245.91 107.795 249.47 108.679 250.033H108.713Z" fill="#333333"/>
<path d="M115.89 113.502C115.89 113.502 114.929 113.187 116.204 112.095C117.48 111.01 157.033 109.768 161.021 110.389C165.009 111.01 164.958 113.709 164.958 113.709L115.89 113.502Z" fill="white"/>
<path d="M165.646 61.6365C165.646 61.6365 172.244 55.0787 177.779 57.0162C183.323 58.9538 184.063 70.5873 178.111 72.856C172.151 75.1165 165.009 70.579 165.009 70.579L165.655 61.6448L165.646 61.6365Z" fill="white"/>
<path d="M174.472 74.1898C169.43 74.1898 164.805 71.2834 164.609 71.1592C164.388 71.0185 164.269 70.7784 164.286 70.5217L164.932 61.5875C164.941 61.4219 165.017 61.2646 165.136 61.1486C165.349 60.9334 170.416 55.957 175.611 55.957C176.462 55.957 177.269 56.0895 178.035 56.3545C181.393 57.5302 182.949 61.604 182.992 65.1148C183.034 68.3109 181.844 72.1943 178.375 73.5108C177.184 73.9579 175.875 74.1898 174.472 74.1898ZM165.757 70.1988C166.905 70.8529 170.62 72.7904 174.472 72.7904C175.696 72.7904 176.827 72.5917 177.848 72.2108C180.628 71.151 181.58 67.8638 181.546 65.1479C181.495 61.5626 179.846 58.499 177.541 57.6958C176.938 57.4888 176.292 57.3812 175.611 57.3812C171.53 57.3812 167.279 61.1072 166.352 61.9766L165.757 70.2153V70.1988Z" fill="#333333"/>
<path d="M173.571 90.0865C169.166 90.0865 165.57 86.5923 165.57 82.295C165.57 77.9976 169.158 74.5117 173.571 74.5117C177.983 74.5117 181.563 78.0059 181.563 82.295C181.563 86.5841 177.975 90.0865 173.571 90.0865ZM173.571 76.176C170.102 76.176 167.279 78.925 167.279 82.3033C167.279 85.6815 170.102 88.4305 173.571 88.4305C177.04 88.4305 179.862 85.6815 179.862 82.3033C179.862 78.925 177.04 76.176 173.571 76.176Z" fill="white"/>
<path d="M158.275 109.14C157.127 108.503 156.668 99.3617 156.498 93.9382C174.217 89.2351 174.515 74.2482 174.387 55.9244C174.379 55.2289 174.379 54.5582 174.362 53.8958C172.219 47.1309 162.96 40.9623 160.332 39.7617C157.348 38.3872 151.022 30.5211 151.022 30.5211C150.844 36.9051 160.817 44.2743 161.2 44.5476C160.996 44.4813 157.595 43.2642 154.355 40.4489C151.022 37.5426 148.378 30.1816 148.378 30.1816C149.092 39.9356 119.597 57.804 118.015 63.451C118.015 63.451 115.796 60.5281 113.628 55.9906C111.485 54.8563 109.054 54.169 106.656 54.7652C99.9559 56.446 97.7792 69.984 104.496 73.2629C110.261 76.0781 117.59 73.1304 119.563 72.2361C120.566 75.159 121.918 77.9659 123.601 80.5576C124.146 88.4816 125.2 105.646 124.299 106.872C123.125 108.47 115.881 113.521 115.881 113.521C115.881 113.521 158.904 171.994 160.613 170.123C176.402 152.884 164.949 113.728 164.949 113.728C164.949 113.728 159.899 110.068 158.258 109.157L158.275 109.14Z" fill="white"/>
<path d="M160.511 170.852C159.737 170.852 158.309 170.852 136.517 142.244C125.846 128.243 115.405 114.051 115.303 113.91C115.192 113.761 115.15 113.57 115.175 113.388C115.209 113.206 115.311 113.041 115.465 112.933C117.454 111.55 122.811 107.683 123.712 106.45C124.095 105.63 124.095 98.4179 122.887 80.7731C121.382 78.4298 120.115 75.8796 119.129 73.1803C117.276 73.9503 113.781 75.1509 110.074 75.1509C107.872 75.1509 105.882 74.7286 104.165 73.8841C100.305 72.0045 99.3692 67.3842 99.7688 63.6913C100.211 59.6258 102.456 55.08 106.46 54.0781C108.748 53.5068 111.29 53.9457 113.96 55.3616C114.096 55.4361 114.206 55.5437 114.266 55.6845C115.66 58.5908 117.08 60.8347 117.888 62.0436C119.461 59.6009 123.669 56.0985 128.788 51.8342C137.367 44.6885 148.046 35.7957 147.638 30.2232C147.613 29.8755 147.859 29.5608 148.216 29.4863C148.573 29.4118 148.922 29.6105 149.041 29.9417C149.066 30.0162 151.66 37.1702 154.814 39.9192C155.086 40.1593 155.367 40.3829 155.639 40.5982C152.927 37.783 150.172 34.0321 150.274 30.4965C150.274 30.1984 150.478 29.9417 150.767 29.8506C151.056 29.7596 151.371 29.8506 151.558 30.0825C153.284 32.2353 158.283 38.0562 160.604 39.1243C163.13 40.2753 172.772 46.5847 175.016 53.689C175.033 53.7469 175.05 53.8132 175.05 53.8794C175.059 54.3348 175.067 54.7902 175.067 55.2539V55.9163C175.195 73.1057 175.305 89.343 157.203 94.4683C157.518 103.899 158.173 107.94 158.649 108.561C160.349 109.522 165.153 112.999 165.357 113.148C165.485 113.239 165.578 113.372 165.621 113.521C166.089 115.135 176.997 153.249 161.123 170.579C160.962 170.761 160.723 170.86 160.477 170.86L160.511 170.852ZM116.893 113.662C132.716 135.148 156.6 166.695 160.366 169.312C174.685 153.075 165.213 117.33 164.329 114.125C163.376 113.438 159.312 110.523 157.909 109.745C157.365 109.447 156.234 108.818 155.766 93.955C155.758 93.6321 155.979 93.3422 156.302 93.2512C173.885 88.5895 173.783 73.4452 173.656 55.9246V55.2622C173.647 54.8399 173.639 54.4176 173.63 54.0036C171.505 47.4872 162.305 41.4345 160.018 40.3912C157.884 39.4058 154.287 35.4728 152.161 32.9971C154.04 38.3957 161.531 43.9019 161.616 43.9682C161.905 44.1752 161.999 44.5478 161.837 44.8541C161.676 45.1605 161.31 45.3095 160.97 45.2019C160.936 45.1936 157.339 43.9765 153.879 40.9625C151.668 39.0332 149.781 35.3238 148.701 32.8563C146.677 38.8014 137.758 46.2369 129.757 52.9024C124.375 57.3819 119.291 61.6213 118.729 63.6251C118.653 63.8817 118.44 64.0805 118.168 64.1301C117.896 64.1798 117.616 64.0722 117.454 63.8569C117.361 63.7327 115.235 60.9092 113.092 56.4876C110.831 55.3284 108.722 54.9724 106.851 55.4361C104.012 56.1482 101.699 59.6009 101.231 63.8403C100.874 67.0696 101.639 71.0688 104.836 72.6338C106.35 73.3707 108.118 73.7516 110.099 73.7516C114.087 73.7516 117.845 72.2446 119.274 71.5988C119.461 71.516 119.673 71.516 119.86 71.5988C120.047 71.6816 120.192 71.8306 120.26 72.0211C121.263 74.9356 122.598 77.6846 124.222 80.1852C124.29 80.2846 124.324 80.4005 124.333 80.5164C126.05 105.713 125.217 106.855 124.902 107.286C123.856 108.71 118.738 112.386 116.901 113.686L116.893 113.662Z" fill="#333333"/>
<path d="M140.037 60.7092C140.054 58.9373 139.263 57.4966 138.277 57.4883C137.29 57.4883 136.474 58.9125 136.466 60.6761C136.449 62.448 137.239 63.8888 138.226 63.8971C139.212 63.8971 140.028 62.4729 140.037 60.7092Z" fill="#333333"/>
<path d="M164.864 60.7092C164.881 58.9373 164.09 57.4966 163.104 57.4883C162.118 57.4883 161.301 58.9125 161.293 60.6761C161.276 62.448 162.067 63.8888 163.053 63.8971C164.039 63.8971 164.856 62.4729 164.864 60.7092Z" fill="#333333"/>
<path d="M112.31 88.5792C107.906 88.5792 104.318 85.085 104.318 80.7876C104.318 76.4903 107.906 72.9961 112.31 72.9961C116.714 72.9961 120.311 76.4903 120.311 80.7876C120.311 85.085 116.723 88.5792 112.31 88.5792ZM112.31 74.6604C108.841 74.6604 106.018 77.4094 106.018 80.7876C106.018 84.1659 108.841 86.9149 112.31 86.9149C115.779 86.9149 118.602 84.1659 118.602 80.7876C118.602 77.4094 115.779 74.6604 112.31 74.6604Z" fill="white"/>
<path d="M38.0913 195.734C36.2803 193.763 35.1154 191.486 37.1305 190.244C39.1541 189.002 72.7476 200.702 90.3989 220.168C90.3989 220.168 91.5722 224.101 81.0461 220.061C70.52 216.02 38.0913 195.726 38.0913 195.726V195.734Z" fill="#333333"/>
<path d="M169.71 249.859C169.608 249.859 169.515 249.843 169.421 249.801C169.056 249.644 168.894 249.23 169.056 248.874C173.562 238.996 169.166 227.47 166.803 221.268C166.565 220.639 166.343 220.068 166.165 219.571C164.992 216.333 165.944 211.456 167.049 205.801C167.831 201.785 168.724 197.239 168.988 192.586C169.574 182.344 162.619 173.277 161.871 172.333L121.144 145.679C120.948 145.547 120.821 145.332 120.821 145.1V130.287L101.41 119.614C101.061 119.423 100.942 118.993 101.138 118.653C101.333 118.314 101.775 118.198 102.124 118.388L121.901 129.26C122.13 129.384 122.266 129.616 122.266 129.873V144.719L162.772 171.223C162.832 171.265 162.883 171.315 162.934 171.364C163.266 171.77 171.071 181.333 170.433 192.652C170.161 197.397 169.26 202.001 168.469 206.058C167.398 211.506 166.48 216.209 167.525 219.091C167.704 219.579 167.916 220.142 168.155 220.763C170.416 226.692 175.118 239.029 170.374 249.429C170.255 249.694 169.991 249.843 169.71 249.843V249.859Z" fill="#333333"/>
<path d="M162.373 172.514C162.152 172.514 161.939 172.415 161.795 172.233C161.557 171.927 161.616 171.479 161.939 171.248C174.387 162.082 177.397 140.33 177.686 137.978L171.411 126.154C171.283 125.914 171.309 125.616 171.479 125.401L178.281 116.914C178.528 116.607 178.978 116.558 179.293 116.79C179.607 117.03 179.667 117.468 179.42 117.775L172.899 125.914L179.063 137.523C179.131 137.647 179.157 137.78 179.14 137.92C179.038 138.914 176.402 162.363 162.806 172.365C162.679 172.465 162.526 172.506 162.373 172.506V172.514Z" fill="#333333"/>
<path d="M213.541 208.98C213.465 208.98 213.396 208.972 213.32 208.947C212.937 208.831 212.733 208.434 212.852 208.061C215.505 200.088 217.546 189.125 212.189 182.17C206.39 174.643 205.693 167.207 205.668 166.901C205.634 166.512 205.931 166.172 206.322 166.139C206.731 166.106 207.071 166.396 207.105 166.777C207.105 166.851 207.802 174.13 213.345 181.325C219.068 188.76 216.985 200.204 214.221 208.492C214.119 208.79 213.839 208.98 213.533 208.98H213.541Z" fill="#333333"/>
<path d="M96.9883 212.583C96.8863 212.583 96.7758 212.558 96.6737 212.516C96.3166 212.351 96.1636 211.928 96.3336 211.581L104.309 195.426C104.479 195.078 104.913 194.929 105.27 195.095C105.627 195.261 105.78 195.683 105.61 196.031L97.6345 212.185C97.507 212.433 97.2519 212.583 96.9798 212.583H96.9883Z" fill="#333333"/>
<path d="M118.041 219.729C117.667 219.729 117.352 219.455 117.327 219.083C117.293 218.694 117.59 218.354 117.981 218.321C139.51 216.5 153.199 206.754 153.335 206.654C153.658 206.423 154.109 206.489 154.347 206.795C154.585 207.11 154.517 207.549 154.202 207.781C154.066 207.88 140.071 217.857 118.109 219.72C118.092 219.72 118.066 219.72 118.049 219.72L118.041 219.729Z" fill="#333333"/>
<path d="M74.0232 183.08C73.7086 183.08 73.411 182.873 73.326 182.558L66.3284 157.353C66.2264 156.981 66.456 156.592 66.8386 156.492C67.2212 156.393 67.6208 156.617 67.7229 156.989L74.7204 182.194C74.8225 182.566 74.5929 182.955 74.2103 183.055C74.1508 183.071 74.0827 183.08 74.0232 183.08Z" fill="#333333"/>
<path d="M70.197 179.354C69.8654 179.354 69.5678 179.13 69.4913 178.808L65.9797 163.895C65.8947 163.514 66.1328 163.142 66.5239 163.051C66.9065 162.959 67.2976 163.2 67.3911 163.58L70.9027 178.493C70.9877 178.874 70.7496 179.246 70.3585 179.337C70.3075 179.346 70.248 179.354 70.197 179.354Z" fill="#333333"/>
<path d="M162.109 185.457C160.451 185.457 159.099 184.008 159.099 182.22C159.099 180.431 160.451 178.982 162.109 178.982C163.767 178.982 165.119 180.431 165.119 182.22C165.119 184.008 163.767 185.457 162.109 185.457ZM162.109 180.382C161.251 180.382 160.545 181.201 160.545 182.212C160.545 183.222 161.251 184.042 162.109 184.042C162.968 184.042 163.674 183.222 163.674 182.212C163.674 181.201 162.968 180.382 162.109 180.382Z" fill="#333333"/>
<path d="M163.648 205.387C161.99 205.387 160.638 203.938 160.638 202.15C160.638 200.361 161.99 198.912 163.648 198.912C165.306 198.912 166.658 200.361 166.658 202.15C166.658 203.938 165.306 205.387 163.648 205.387ZM163.648 200.311C162.79 200.311 162.084 201.131 162.084 202.141C162.084 203.152 162.79 203.971 163.648 203.971C164.507 203.971 165.213 203.152 165.213 202.141C165.213 201.131 164.507 200.311 163.648 200.311Z" fill="#333333"/>
<path d="M165.774 247.217C164.116 247.217 162.764 245.768 162.764 243.98C162.764 242.191 164.116 240.742 165.774 240.742C167.432 240.742 168.784 242.191 168.784 243.98C168.784 245.768 167.432 247.217 165.774 247.217ZM165.774 242.142C164.915 242.142 164.209 242.961 164.209 243.971C164.209 244.982 164.915 245.801 165.774 245.801C166.633 245.801 167.338 244.982 167.338 243.971C167.338 242.961 166.633 242.142 165.774 242.142Z" fill="#333333"/>
<path d="M161.897 228.481C160.239 228.481 158.887 227.032 158.887 225.243C158.887 223.455 160.239 222.006 161.897 222.006C163.555 222.006 164.907 223.455 164.907 225.243C164.907 227.032 163.555 228.481 161.897 228.481ZM161.897 223.405C161.038 223.405 160.332 224.225 160.332 225.235C160.332 226.245 161.038 227.065 161.897 227.065C162.755 227.065 163.461 226.245 163.461 225.235C163.461 224.225 162.755 223.405 161.897 223.405Z" fill="#333333"/>
<path d="M208.627 175.935C208.627 175.935 208.584 175.935 208.567 175.935C208.167 175.902 207.878 175.563 207.904 175.174L208.542 167.722C208.576 167.332 208.924 167.043 209.324 167.084C209.723 167.117 210.013 167.457 209.987 167.846L209.349 175.298C209.315 175.662 209.001 175.944 208.627 175.944V175.935Z" fill="#333333"/>
<path d="M278.169 148.909C281.629 139.346 286.569 122.446 286.297 116.393C286.042 110.614 267.711 105.662 255.578 103.021C257.771 95.9582 260.28 87.6036 261.597 81.8821L264.242 70.5135C264.973 67.3588 262.949 64.2372 259.71 63.5251C256.462 62.7965 253.265 64.792 252.542 67.9467L249.915 79.3152C248.47 85.5584 245.468 95.4531 243.13 102.88C241.531 104.396 239.202 106.706 236.855 109.388C235.189 102.839 233.318 96.8856 231.558 94.1863C229.772 91.4621 226.065 90.6589 223.268 92.3978C220.471 94.1366 219.646 97.7467 221.432 100.471C222.97 102.814 225.683 113.421 228.038 124.632C224.765 138.725 233.845 150.946 233.845 150.946L234.168 204.212C233.174 205.048 232.289 205.76 231.584 206.282C226.474 210.008 213.533 208.269 213.533 208.269C213.533 208.269 209.579 225.227 208.933 228.953C208.389 232.174 211.645 241.431 208.21 246.887C214.757 257.643 223.693 265.874 235.724 266.379C275.55 268.068 278.279 240.942 278.432 209.743L278.16 148.893L278.169 148.909Z" fill="white"/>
<path d="M239.185 267.207C238.054 267.207 236.889 267.166 235.707 267.116C224.798 266.661 215.344 259.97 207.606 247.269C207.47 247.045 207.47 246.764 207.606 246.54C209.783 243.079 209.069 237.714 208.542 233.805C208.27 231.769 208.031 230.013 208.227 228.854C208.865 225.145 212.674 208.816 212.835 208.129C212.92 207.773 213.269 207.533 213.635 207.591C213.669 207.591 216.644 207.988 220.241 207.988C225.36 207.988 229.135 207.21 231.158 205.736C231.753 205.297 232.527 204.684 233.454 203.906L233.139 151.187C231.966 149.531 224.271 138.038 227.307 124.641C224.696 112.204 222.154 102.881 220.828 100.861C218.838 97.8135 219.765 93.7563 222.885 91.8188C223.965 91.1481 225.215 90.792 226.49 90.792C228.803 90.792 230.929 91.9264 232.17 93.8225C233.667 96.1161 235.367 100.852 237.221 107.923C239.227 105.704 241.14 103.808 242.501 102.517C244.779 95.2633 247.781 85.3934 249.218 79.1751L251.845 67.8065C252.542 64.7926 255.22 62.6895 258.366 62.6895C258.868 62.6895 259.378 62.7474 259.88 62.8551C263.485 63.6499 265.764 67.1607 264.947 70.6797L262.303 82.0565C260.951 87.894 258.392 96.3728 256.496 102.525C276.536 106.946 286.807 111.608 287.02 116.386C287.292 122.563 282.352 139.479 278.891 149.051L279.164 209.793C279.002 241.208 275.882 267.232 239.176 267.232L239.185 267.207ZM209.06 246.896C216.491 258.935 225.47 265.154 235.767 265.584C236.923 265.634 238.071 265.551 239.185 265.551C255.748 265.551 266.112 260.384 271.809 249.049C277.131 238.467 277.65 223.828 277.718 209.694L277.446 148.877C277.446 148.794 277.463 148.728 277.489 148.653C281.043 138.833 285.838 122.165 285.574 116.411C285.396 112.469 274.411 107.832 255.425 103.701C255.229 103.659 255.059 103.543 254.957 103.369C254.855 103.204 254.829 102.997 254.889 102.815C256.802 96.646 259.506 87.7532 260.9 81.7253L263.544 70.3485C264.182 67.583 262.397 64.8257 259.557 64.2047C259.166 64.1136 258.766 64.0722 258.366 64.0722C255.901 64.0722 253.792 65.7282 253.248 68.0963L250.621 79.4649C249.158 85.7743 246.123 95.7932 243.827 103.08C243.793 103.196 243.725 103.295 243.64 103.378C242.101 104.835 239.771 107.137 237.416 109.836C237.238 110.035 236.966 110.126 236.702 110.068C236.438 110.01 236.234 109.811 236.166 109.555C234.219 101.904 232.468 96.8613 230.954 94.5595C229.976 93.069 228.31 92.1831 226.49 92.1831C225.487 92.1831 224.509 92.4646 223.659 92.9862C221.202 94.5098 220.479 97.6976 222.044 100.091C223.761 102.715 226.635 114.415 228.744 124.492C228.761 124.591 228.761 124.691 228.744 124.79C225.572 138.419 234.347 150.417 234.432 150.541C234.517 150.657 234.568 150.806 234.568 150.947L234.891 204.212C234.891 204.419 234.797 204.61 234.644 204.751C233.582 205.653 232.697 206.357 232.017 206.854C229.713 208.535 225.751 209.388 220.233 209.388C217.512 209.388 215.182 209.172 214.085 209.056C213.371 212.145 210.2 225.823 209.638 229.086C209.477 230.03 209.698 231.694 209.962 233.623C210.497 237.614 211.22 243.038 209.052 246.905L209.06 246.896Z" fill="#333333"/>
<path d="M252.755 147.353C252.755 147.353 252.704 147.336 252.687 147.328C252.432 147.229 252.313 146.939 252.415 146.69C259.931 128.88 244.218 120.616 243.538 120.269C243.291 120.144 243.198 119.846 243.325 119.606C243.453 119.366 243.768 119.275 243.997 119.399C244.167 119.49 261.198 128.408 253.333 147.055C253.239 147.278 252.984 147.402 252.755 147.344V147.353Z" fill="#333333"/>
<path d="M278.849 118.727C278.798 118.727 278.756 118.711 278.705 118.694C278.483 118.611 256.513 110.083 248.291 107.748C248.027 107.673 247.874 107.4 247.951 107.143C248.027 106.887 248.299 106.738 248.572 106.812C256.836 109.164 278.849 117.709 279.07 117.792C279.325 117.891 279.453 118.172 279.351 118.421C279.266 118.628 279.062 118.744 278.849 118.727Z" fill="#333333"/>
<path d="M265.015 95.7413C267.481 96.561 269.173 98.4903 269.666 100.618C271.316 99.3928 273.679 98.9788 276.001 99.7571C278.619 100.635 280.422 102.746 280.779 105.023C280.83 105.346 280.83 105.677 280.822 106.009C282.301 104.733 284.563 104.27 286.773 105.007C289.12 105.793 290.736 107.689 291.059 109.726C291.169 110.447 291.127 111.184 290.889 111.896L285.855 127.297C284.954 130.046 281.663 131.412 278.492 130.352C276.264 129.607 274.717 127.86 274.292 125.939C272.795 128.083 269.743 129.019 266.767 128.025C264.31 127.206 262.592 125.285 262.099 123.165C260.45 124.382 258.094 124.788 255.782 124.018C253.103 123.123 251.377 120.921 251.088 118.578C252.296 110.952 254.421 105.537 257.746 95.882C259.157 95.377 263.383 95.1948 265.015 95.7413Z" fill="white"/>
<path d="M280.669 131.421C279.861 131.421 279.053 131.288 278.262 131.023C276.332 130.378 274.793 129.02 274.011 127.339C272.761 128.481 271.035 129.127 269.165 129.127C268.281 129.127 267.388 128.978 266.529 128.697C264.267 127.943 262.482 126.287 261.683 124.259C259.897 125.203 257.618 125.376 255.535 124.681C252.729 123.745 250.697 121.377 250.357 118.661C250.357 118.595 250.357 118.537 250.357 118.471C251.403 111.872 253.112 106.97 255.697 99.5509C256.122 98.3254 256.573 97.0337 257.049 95.6592C257.117 95.4522 257.278 95.2949 257.482 95.2204C258.486 94.8644 260.441 94.707 261.929 94.707C262.932 94.707 264.318 94.7733 265.237 95.0796C267.49 95.8331 269.267 97.4891 270.066 99.526C271.86 98.5738 274.139 98.3999 276.222 99.0955C278.943 100.006 280.966 102.201 281.442 104.726C283.049 103.873 285.107 103.724 286.986 104.353C289.511 105.198 291.382 107.268 291.747 109.636C291.884 110.481 291.815 111.317 291.552 112.12L286.518 127.521C285.753 129.856 283.389 131.429 280.635 131.429L280.669 131.421ZM274.3 125.244C274.343 125.244 274.394 125.244 274.436 125.261C274.717 125.31 274.946 125.525 275.006 125.799C275.397 127.571 276.826 129.061 278.739 129.699C279.376 129.914 280.022 130.022 280.677 130.022C282.837 130.022 284.605 128.871 285.184 127.099L290.217 111.698C290.413 111.102 290.455 110.481 290.362 109.851C290.072 107.997 288.576 106.365 286.552 105.686C284.682 105.065 282.633 105.405 281.315 106.548C281.102 106.738 280.788 106.779 280.533 106.655C280.269 106.539 280.108 106.274 280.116 106.001C280.125 105.72 280.125 105.421 280.082 105.14C279.75 103.045 278.067 101.19 275.78 100.429C273.799 99.7662 271.613 100.064 270.117 101.182C269.921 101.331 269.666 101.364 269.428 101.281C269.199 101.199 269.029 101.008 268.969 100.776C268.51 98.7891 266.903 97.1165 264.786 96.4127C264.225 96.2223 263.196 96.1146 261.946 96.1146C260.56 96.1146 259.123 96.2554 258.307 96.4541C257.873 97.7044 257.465 98.8802 257.074 100.006C254.523 107.318 252.84 112.161 251.811 118.587C252.117 120.74 253.758 122.603 256.011 123.356C257.984 124.018 260.161 123.72 261.657 122.611C261.853 122.462 262.108 122.429 262.337 122.512C262.567 122.594 262.737 122.785 262.796 123.017C263.255 124.987 264.871 126.66 266.997 127.372C267.711 127.612 268.442 127.728 269.165 127.728C271.044 127.728 272.744 126.917 273.697 125.55C273.833 125.352 274.054 125.244 274.292 125.244H274.3Z" fill="#333333"/>
<path d="M262.32 123.314C262.261 123.389 262.15 123.422 262.048 123.389C261.912 123.347 261.827 123.215 261.861 123.099L265.347 110.687C265.381 110.563 265.517 110.505 265.653 110.546C265.789 110.588 265.874 110.72 265.84 110.836L262.354 123.248C262.354 123.248 262.337 123.298 262.32 123.314Z" fill="#251D1B"/>
<path d="M276.264 121.229C276.205 121.304 276.103 121.337 275.992 121.304C275.856 121.262 275.771 121.138 275.797 121.014L279.572 106.897C279.597 106.772 279.742 106.714 279.878 106.747C280.014 106.789 280.099 106.913 280.073 107.037L276.298 121.155C276.298 121.155 276.281 121.204 276.264 121.229Z" fill="#251D1B"/>
<path d="M274.513 126.088C274.462 126.154 274.36 126.196 274.249 126.163C274.113 126.129 274.02 126.005 274.045 125.881L274.462 123.869C274.487 123.745 274.623 123.678 274.759 123.712C274.895 123.745 274.989 123.869 274.963 123.993L274.547 126.005C274.547 126.005 274.53 126.063 274.513 126.088Z" fill="#251D1B"/>
<path d="M261.589 117.435C261.589 117.435 261.589 117.485 261.589 117.502L260.365 122.089C260.348 122.155 260.297 122.213 260.22 122.238C260.11 122.279 257.414 123.182 254.43 121.749C254.294 121.683 254.243 121.534 254.294 121.426C254.353 121.31 254.515 121.269 254.642 121.335C257.066 122.494 259.336 121.973 259.863 121.824L261.028 117.452C258.792 114.512 254.863 114.57 254.022 114.62L252.942 118.404C252.908 118.528 252.763 118.595 252.619 118.553C252.474 118.512 252.389 118.371 252.423 118.255L253.546 114.33C253.571 114.248 253.648 114.181 253.75 114.173C253.801 114.173 258.86 113.66 261.538 117.328C261.563 117.369 261.58 117.411 261.58 117.452L261.589 117.435Z" fill="#251D1B"/>
<path d="M273.493 120.978C273.493 120.978 273.493 121.028 273.493 121.045L272.268 125.632C272.251 125.698 272.2 125.756 272.124 125.781C272.013 125.822 269.318 126.725 266.333 125.292C266.197 125.226 266.146 125.077 266.197 124.969C266.257 124.853 266.418 124.812 266.546 124.878C268.969 126.037 271.239 125.516 271.767 125.367L272.931 120.995C270.695 118.055 266.767 118.113 265.925 118.163L264.845 121.947C264.811 122.071 264.667 122.138 264.522 122.096C264.378 122.055 264.293 121.914 264.327 121.798L265.449 117.873C265.475 117.79 265.551 117.724 265.653 117.716C265.704 117.716 270.763 117.203 273.442 120.871C273.467 120.912 273.484 120.953 273.484 120.995L273.493 120.978Z" fill="#251D1B"/>
<path d="M285.447 123.537C285.447 123.537 285.447 123.579 285.447 123.604L284.291 127.942C284.274 128.009 284.223 128.058 284.155 128.083C284.044 128.125 281.493 128.977 278.67 127.619C278.543 127.553 278.492 127.421 278.543 127.313C278.602 127.205 278.747 127.164 278.875 127.23C281.162 128.332 283.321 127.835 283.823 127.694L284.928 123.554C282.811 120.772 279.087 120.822 278.288 120.871L277.268 124.456C277.234 124.572 277.097 124.639 276.961 124.597C276.825 124.556 276.749 124.423 276.774 124.307L277.837 120.59C277.863 120.507 277.931 120.449 278.024 120.441C278.075 120.441 282.862 119.96 285.396 123.421C285.421 123.455 285.438 123.496 285.438 123.537H285.447Z" fill="#251D1B"/>
<path d="M234.355 222.833C233.956 222.833 233.633 222.518 233.633 222.129V201.421C233.633 201.031 233.956 200.717 234.355 200.717C234.755 200.717 235.078 201.031 235.078 201.421V222.129C235.078 222.518 234.755 222.833 234.355 222.833Z" fill="#333333"/>
<path d="M232.179 224.383C179.48 218.049 184.735 246.499 171.352 252.353C129.681 270.577 122.819 302.969 156.608 310.901C216.67 325.002 260.118 299.707 272.77 284.571C284.41 270.644 294.154 231.827 232.179 224.375V224.383ZM200.337 252.486C199.878 254.315 198.441 255.822 196.732 256.708C195.023 257.594 193.059 257.917 191.12 257.992C187.762 258.108 184.233 257.42 181.614 255.367C180.696 254.647 179.863 253.678 179.812 252.535C179.786 251.873 180.024 251.227 180.356 250.647C180.943 249.621 181.827 248.768 182.822 248.105C186.503 245.638 191.375 245.729 195.763 246.557C196.723 246.739 197.701 246.963 198.526 247.484C200.141 248.528 200.805 250.656 200.345 252.486H200.337Z" fill="white"/>
<path d="M191.418 315.736C179.948 315.736 168.18 314.337 156.447 311.588C143.183 308.475 135.377 301.536 134.468 292.047C133.116 277.863 147.477 262.032 171.054 251.715C174.761 250.092 177.006 246.581 179.599 242.507C185.202 233.714 192.183 222.768 218.133 222.768C222.435 222.768 227.188 223.074 232.264 223.687C264.446 227.553 275.933 239.833 279.903 249.454C285.166 262.197 280.184 276.82 273.331 285.025C264.446 295.649 235.894 315.745 191.409 315.745L191.418 315.736ZM218.133 224.167C192.991 224.167 186.248 234.741 180.823 243.244C178.103 247.508 175.756 251.193 171.649 252.99C148.641 263.058 134.612 278.335 135.905 291.914C136.746 300.758 144.161 307.257 156.778 310.222C168.401 312.946 180.05 314.329 191.409 314.329C232.17 314.329 262.065 296.27 272.209 284.123C278.807 276.232 283.61 262.172 278.56 249.968C273.076 236.678 256.998 228.067 232.085 225.078C227.069 224.473 222.367 224.167 218.124 224.167H218.133ZM190.397 258.703C187.812 258.703 184.105 258.215 181.164 255.913C179.863 254.894 179.148 253.735 179.089 252.559C179.055 251.847 179.267 251.085 179.718 250.299C180.322 249.247 181.223 248.312 182.405 247.517C185.644 245.339 190.168 244.776 195.89 245.861C196.902 246.051 197.973 246.291 198.908 246.896C200.719 248.063 201.587 250.431 201.025 252.659C200.541 254.571 199.095 256.277 197.055 257.337C195.448 258.165 193.509 258.612 191.137 258.695C190.89 258.703 190.635 258.711 190.389 258.711L190.397 258.703ZM190.618 246.73C187.642 246.73 185.16 247.384 183.23 248.676C182.235 249.347 181.478 250.117 180.985 250.986C180.67 251.541 180.517 252.054 180.534 252.501C180.577 253.454 181.393 254.29 182.065 254.82C184.684 256.873 188.042 257.304 190.397 257.304C190.627 257.304 190.865 257.304 191.094 257.295C193.246 257.221 194.98 256.824 196.392 256.095C198.041 255.234 199.257 253.826 199.64 252.327C200.056 250.696 199.418 248.908 198.126 248.08C197.403 247.616 196.494 247.417 195.626 247.252C193.824 246.912 192.14 246.738 190.618 246.738V246.73Z" fill="#333333"/>
<path d="M202.59 232.239C204.384 231.08 206.373 229.987 208.525 230.045C211.603 230.12 214.153 232.48 217.18 232.993C220.003 233.465 223.268 232.364 225.547 234.053C227.409 235.436 227.63 238.292 226.422 240.246C225.215 242.209 222.936 243.335 220.632 243.765C218.328 244.196 215.964 244.014 213.618 243.923C211.586 243.848 209.239 243.691 208.031 242.093C207.776 241.761 207.589 241.372 207.3 241.074C206.884 240.652 206.305 240.428 205.744 240.221C204.29 239.683 202.785 239.112 201.697 238.027C200.609 236.942 200.048 235.195 200.804 233.871C201.204 233.167 201.901 232.687 202.59 232.239Z" fill="#333333"/>
<path d="M152.629 279.023C154.423 277.863 156.413 276.77 158.564 276.828C161.642 276.903 164.193 279.263 167.219 279.776C170.042 280.248 173.307 279.147 175.586 280.836C177.448 282.219 177.669 285.075 176.462 287.029C175.254 288.992 172.976 290.118 170.672 290.548C168.367 290.979 166.004 290.797 163.657 290.706C161.625 290.631 159.278 290.474 158.071 288.876C157.816 288.545 157.629 288.156 157.34 287.857C156.923 287.435 156.345 287.212 155.784 287.005C154.33 286.466 152.825 285.895 151.736 284.81C150.648 283.726 150.087 281.979 150.844 280.654C151.243 279.95 151.94 279.47 152.629 279.023Z" fill="#333333"/>
<path d="M245.324 237.044C243.98 236.87 242.68 236.448 241.336 236.357C239.993 236.266 238.505 236.58 237.655 237.607C236.685 238.774 236.821 240.447 236.464 241.904C236.082 243.453 235.104 244.794 234.424 246.243C233.743 247.692 233.378 249.464 234.211 250.839C235.129 252.337 237.17 252.817 238.947 252.594C240.724 252.37 242.373 251.609 244.116 251.195C247.415 250.416 250.867 250.913 254.26 250.797C254.94 250.772 255.697 250.69 256.148 250.193C256.479 249.828 256.573 249.307 256.632 248.827C256.913 246.699 256.955 244.488 256.284 242.443C255.612 240.397 254.149 238.518 252.1 237.731C249.983 236.911 247.594 237.334 245.341 237.044H245.324Z" fill="white"/>
<path d="M238.114 253.347C236.099 253.347 234.407 252.544 233.582 251.195C232.749 249.828 232.808 247.965 233.752 245.953C233.99 245.448 234.262 244.951 234.526 244.479C235.036 243.56 235.52 242.683 235.75 241.739C235.852 241.325 235.912 240.878 235.98 240.414C236.133 239.288 236.294 238.129 237.085 237.168C237.901 236.183 239.253 235.645 240.894 235.645C241.056 235.645 241.217 235.645 241.379 235.661C242.195 235.719 242.986 235.885 243.751 236.042C244.321 236.166 244.865 236.282 245.417 236.348C246.2 236.448 246.99 236.456 247.832 236.473C249.329 236.489 250.884 236.514 252.355 237.077C254.447 237.88 256.173 239.809 256.964 242.235C257.576 244.098 257.695 246.226 257.338 248.917C257.261 249.497 257.142 250.151 256.675 250.665C256.054 251.352 255.11 251.476 254.277 251.501C253.877 251.517 253.478 251.517 253.078 251.517C252.364 251.517 251.641 251.501 250.918 251.484C250.213 251.468 249.507 251.451 248.801 251.451C247.543 251.451 245.893 251.501 244.278 251.882C243.623 252.039 242.986 252.246 242.305 252.461C241.26 252.801 240.18 253.149 239.032 253.289C238.726 253.331 238.42 253.347 238.114 253.347ZM240.894 237.052C240.205 237.052 238.938 237.185 238.207 238.054C237.672 238.7 237.544 239.627 237.408 240.596C237.34 241.085 237.272 241.581 237.153 242.07C236.872 243.188 236.328 244.181 235.792 245.142C235.529 245.622 235.282 246.069 235.061 246.533C234.628 247.452 234.024 249.182 234.815 250.474C235.376 251.393 236.609 251.94 238.105 251.94C238.352 251.94 238.598 251.923 238.836 251.898C239.84 251.774 240.809 251.459 241.838 251.128C242.509 250.913 243.207 250.689 243.921 250.516C245.681 250.102 247.441 250.044 248.784 250.044C249.499 250.044 250.221 250.06 250.935 250.077C251.641 250.093 252.347 250.11 253.053 250.11C253.435 250.11 253.818 250.11 254.2 250.093C254.728 250.077 255.306 250.019 255.569 249.729C255.765 249.514 255.833 249.116 255.884 248.735C256.207 246.251 256.105 244.314 255.561 242.658C254.898 240.637 253.495 239.039 251.794 238.385C250.57 237.913 249.218 237.897 247.79 237.88C246.948 237.872 246.072 237.855 245.205 237.748C244.593 237.673 243.997 237.541 243.419 237.425C242.671 237.267 241.965 237.118 241.251 237.069C241.124 237.06 240.996 237.052 240.86 237.052H240.894Z" fill="#333333"/>
<path d="M246.973 270.525C247.858 269.39 248.444 268.065 249.184 266.832C251.046 263.735 254.217 261.11 257.891 260.986C261.564 260.862 265.33 264.091 264.718 267.627C264.25 270.293 261.734 272.089 260.246 274.375C259.106 276.122 258.562 278.184 257.508 279.98C255.501 283.375 251.267 285.627 247.364 284.683C243.462 283.74 240.741 279.119 242.493 275.6C243.496 273.58 245.587 272.313 246.982 270.525H246.973Z" fill="#4257FF"/>
<path d="M249.184 285.604C248.504 285.604 247.832 285.521 247.177 285.364C244.95 284.826 242.994 283.203 241.948 281.025C241.021 279.096 240.979 277.001 241.829 275.287C242.492 273.962 243.547 272.96 244.575 271.983C245.239 271.354 245.868 270.758 246.387 270.087C246.939 269.383 247.364 268.588 247.823 267.76C248.062 267.33 248.3 266.891 248.555 266.469C250.808 262.71 254.294 260.399 257.865 260.275C260.11 260.201 262.465 261.252 263.97 262.991C265.194 264.407 265.713 266.088 265.432 267.736C265.092 269.681 263.8 271.163 262.558 272.596C261.955 273.283 261.334 274.004 260.858 274.74C260.28 275.626 259.863 276.595 259.429 277.622C259.047 278.516 258.647 279.444 258.137 280.321C256.275 283.476 252.678 285.596 249.201 285.596L249.184 285.604ZM258.095 261.683H257.916C254.294 261.807 251.352 264.606 249.805 267.181C249.558 267.587 249.337 268.009 249.107 268.423C248.648 269.267 248.172 270.145 247.551 270.94C246.965 271.693 246.268 272.356 245.596 272.993C244.618 273.921 243.691 274.798 243.139 275.9C242.475 277.233 242.518 278.881 243.266 280.429C244.116 282.201 245.757 283.567 247.534 283.998C248.07 284.13 248.623 284.196 249.192 284.196C252.177 284.196 255.263 282.358 256.879 279.626C257.346 278.831 257.712 277.986 258.095 277.092C258.537 276.057 258.996 274.981 259.642 273.995C260.178 273.176 260.832 272.422 261.462 271.693C262.635 270.344 263.74 269.069 264.012 267.504C264.225 266.278 263.825 265.003 262.873 263.902C261.683 262.527 259.855 261.683 258.103 261.683H258.095Z" fill="#333333"/>
<path d="M219.4 294.092C216.534 294.953 213.541 295.815 210.591 295.309C207.641 294.804 204.792 292.445 204.869 289.53C204.945 286.615 207.683 284.529 210.157 282.881L218.915 277.068C221.024 275.669 223.209 274.237 225.708 273.765C228.217 273.293 231.142 274.021 232.468 276.141C233.522 277.83 233.352 279.958 233.157 281.929C232.859 284.86 232.417 288.073 230.181 290.052C228.837 291.244 227.035 291.799 225.3 292.32C223.336 292.908 221.372 293.496 219.4 294.092Z" fill="white"/>
<path d="M212.419 296.162C211.747 296.162 211.092 296.104 210.463 295.997C207.292 295.45 204.061 292.875 204.146 289.505C204.222 286.383 206.884 284.197 209.749 282.293L218.507 276.48C220.556 275.122 222.885 273.574 225.572 273.069C226.108 272.97 226.652 272.92 227.205 272.92C229.773 272.92 231.975 273.988 233.089 275.777C234.313 277.739 234.058 280.198 233.879 281.995C233.548 285.183 233.038 288.47 230.674 290.573C229.186 291.898 227.239 292.477 225.521 292.991L219.621 294.763C217.427 295.417 214.944 296.162 212.427 296.162H212.419ZM227.205 274.328C226.746 274.328 226.295 274.369 225.853 274.452C223.455 274.907 221.262 276.364 219.323 277.648L210.565 283.46C208.023 285.15 205.659 287.054 205.591 289.546C205.523 292.121 208.202 294.183 210.718 294.614C211.254 294.705 211.832 294.754 212.419 294.754C214.723 294.754 217.095 294.042 219.187 293.413L225.088 291.641C226.661 291.169 228.446 290.631 229.696 289.521C231.686 287.758 232.128 284.885 232.442 281.846C232.655 279.768 232.757 277.938 231.856 276.497C231.005 275.131 229.262 274.319 227.205 274.319V274.328Z" fill="#333333"/>
<path d="M190.389 295.309C185.559 291.574 182.983 290.399 174.855 281.017C174.395 280.487 173.97 279.974 173.562 279.477C173.171 276.107 176.368 272.977 181.665 278.906C188.595 286.656 192.446 286.159 194.249 285.902C196.043 285.654 198.1 282.648 194.759 278.152C191.477 273.722 180.704 261.128 169.345 257.402C169.345 257.402 157.637 252.641 139.493 252.07L78.4954 237.663L86.1477 218.196C86.1477 218.196 76.3698 203.284 42.3427 194.176C42.3427 194.176 27.5143 220.366 23.5181 244.568C22.0982 253.146 22.0302 261.476 24.4789 268.307C26.3324 273.466 33.5936 277.457 43.6861 280.545C55.3005 284.097 70.6646 286.457 85.8501 288.014L85.9351 288.188C85.9351 288.188 125.412 294.307 128.601 294.588C131.789 294.87 147.868 312.324 151.515 315.711C155.171 319.097 159.712 316.862 159.712 316.862C159.712 316.862 170.306 324.471 173.222 312.763C173.222 312.763 180.526 317.499 184.726 315.437C188.926 313.376 188.348 309.774 188.348 309.774C188.348 309.774 195.133 313.243 198.925 308.457C202.717 303.68 195.346 299.126 190.397 295.3L190.389 295.309Z" fill="white"/>
<path d="M166.565 320C163.521 320 160.613 318.303 159.627 317.665C159.023 317.897 157.79 318.294 156.294 318.294C154.27 318.294 152.493 317.599 151.013 316.224C150.07 315.347 148.352 313.591 146.176 311.372C141.134 306.214 130.633 295.483 128.524 295.301C125.353 295.019 87.4231 289.14 85.8076 288.892C85.6546 288.867 85.51 288.793 85.408 288.693C67.7907 286.872 53.6851 284.354 43.465 281.233C32.1907 277.788 25.5757 273.516 23.7902 268.556C21.5285 262.263 21.1969 254.157 22.7954 244.478C26.7661 220.424 41.552 194.118 41.6965 193.853C41.858 193.572 42.1981 193.431 42.5212 193.514C76.4208 202.589 86.3348 217.211 86.7429 217.832C86.8704 218.023 86.8874 218.255 86.8109 218.462L79.4477 237.183L139.578 251.383C157.603 251.963 169.498 256.716 169.609 256.765C182.881 261.112 194.827 277.076 195.337 277.755C197.803 281.076 197.361 283.419 196.885 284.52C196.383 285.663 195.414 286.466 194.342 286.615C193.985 286.665 193.484 286.731 192.88 286.731C189.385 286.731 185.542 284.321 181.112 279.378C178.715 276.695 177.082 276.29 176.317 276.29C175.764 276.29 175.297 276.488 174.94 276.886C174.438 277.432 174.191 278.293 174.251 279.221C174.608 279.66 174.991 280.115 175.399 280.579C182.039 288.238 184.854 290.324 188.425 292.966C189.181 293.529 189.972 294.108 190.831 294.771C191.383 295.193 191.962 295.632 192.557 296.071C196.136 298.745 200.192 301.784 200.643 305.137C200.821 306.454 200.43 307.721 199.486 308.905C198.015 310.76 195.975 311.704 193.441 311.704C191.673 311.704 190.057 311.232 189.054 310.859C188.909 312.25 188.161 314.552 185.041 316.084C184.233 316.481 183.289 316.68 182.218 316.68C178.953 316.68 175.271 314.809 173.647 313.873C172.083 318.915 168.962 320.008 166.548 320.008L166.565 320ZM159.712 316.167C159.865 316.167 160.018 316.216 160.137 316.299C160.171 316.324 163.376 318.593 166.565 318.593C169.523 318.593 171.53 316.581 172.516 312.606C172.576 312.383 172.737 312.2 172.959 312.118C173.18 312.035 173.426 312.06 173.622 312.184C173.673 312.217 178.417 315.264 182.235 315.264C183.068 315.264 183.799 315.115 184.403 314.817C188.093 313.004 187.642 309.923 187.634 309.89C187.591 309.625 187.702 309.369 187.923 309.211C188.144 309.054 188.433 309.037 188.68 309.162C188.705 309.17 190.941 310.296 193.45 310.296C195.516 310.296 197.165 309.534 198.356 308.044C199.061 307.15 199.35 306.255 199.223 305.311C198.857 302.538 195.048 299.689 191.69 297.18C191.094 296.733 190.508 296.294 189.947 295.864C189.096 295.21 188.314 294.63 187.566 294.075C184.071 291.492 181.053 289.256 174.31 281.473C173.843 280.935 173.418 280.421 173.01 279.925C172.924 279.817 172.873 279.693 172.856 279.569C172.695 278.178 173.078 276.82 173.885 275.95C174.523 275.255 175.373 274.89 176.343 274.89C178.103 274.89 180.135 276.124 182.226 278.459C186.307 283.021 189.896 285.332 192.905 285.332C193.407 285.332 193.824 285.274 194.164 285.224C194.589 285.166 195.218 284.802 195.584 283.974C196.196 282.566 195.694 280.604 194.198 278.583C193.705 277.921 182.022 262.313 169.132 258.082C168.971 258.016 157.271 253.346 139.484 252.783C139.433 252.783 139.382 252.783 139.34 252.766L78.3424 238.359C78.1383 238.309 77.9683 238.185 77.8747 238.003C77.7812 237.82 77.7642 237.613 77.8407 237.423L85.357 218.304C83.801 216.234 73.0453 203.251 42.7253 195.012C40.7017 198.705 27.8884 222.684 24.2493 244.693C22.6848 254.14 22.9994 262.015 25.1761 268.084C26.8001 272.605 33.1004 276.579 43.9157 279.883C54.1102 283.005 68.2499 285.505 85.9351 287.327C86.1137 287.344 86.2752 287.426 86.3943 287.559C90.2714 288.155 125.701 293.636 128.669 293.901C131.109 294.117 138.523 301.503 147.23 310.404C149.39 312.614 151.099 314.353 152.017 315.206C153.224 316.324 154.661 316.887 156.311 316.887C158.045 316.887 159.388 316.249 159.397 316.241C159.499 316.191 159.61 316.167 159.72 316.167H159.712Z" fill="#333333"/>
<path d="M188.34 310.088C188.272 310.088 188.212 310.072 188.153 310.031C188.067 309.973 179.412 303.878 174.336 298.099C174.225 297.966 174.234 297.776 174.37 297.66C174.506 297.552 174.702 297.561 174.821 297.693C179.846 303.415 188.433 309.459 188.527 309.525C188.671 309.625 188.705 309.824 188.603 309.956C188.544 310.039 188.442 310.088 188.348 310.088H188.34Z" fill="#333333"/>
<path d="M173.222 313.079C173.163 313.079 173.112 313.062 173.061 313.037C165.689 308.773 161.863 303.341 161.829 303.292C161.727 303.151 161.769 302.961 161.914 302.861C162.058 302.762 162.254 302.803 162.356 302.944C162.39 302.994 166.148 308.318 173.392 312.508C173.545 312.599 173.596 312.789 173.503 312.93C173.443 313.029 173.341 313.079 173.231 313.079H173.222Z" fill="#333333"/>
<path d="M159.712 317.178C159.644 317.178 159.567 317.153 159.508 317.103C153.989 312.649 151.855 310.024 151.77 309.916C151.66 309.784 151.685 309.585 151.821 309.478C151.957 309.37 152.161 309.395 152.272 309.527C152.289 309.552 154.457 312.21 159.916 316.615C160.052 316.723 160.069 316.921 159.958 317.054C159.899 317.128 159.805 317.17 159.712 317.17V317.178Z" fill="#333333"/>
<path d="M171.964 287.286C171.887 287.286 171.811 287.261 171.751 287.203L168.248 284.115C168.121 283.999 168.104 283.8 168.223 283.676C168.342 283.552 168.546 283.543 168.673 283.651L172.176 286.74C172.304 286.856 172.321 287.054 172.202 287.178C172.142 287.245 172.049 287.278 171.964 287.278V287.286Z" fill="#333333"/>
<path d="M169.685 288.031C169.685 288.031 169.634 288.031 169.617 288.031C169.447 287.989 169.336 287.824 169.379 287.658L170.391 283.369C170.433 283.203 170.603 283.104 170.773 283.137C170.943 283.179 171.054 283.344 171.011 283.51L170 287.799C169.966 287.94 169.838 288.039 169.685 288.039V288.031Z" fill="#333333"/>
<path d="M160.154 293.645C160.077 293.645 160.001 293.621 159.941 293.563L156.438 290.474C156.311 290.358 156.294 290.16 156.413 290.035C156.532 289.911 156.736 289.903 156.863 290.011L160.366 293.099C160.494 293.215 160.511 293.414 160.392 293.538C160.332 293.604 160.239 293.637 160.154 293.637V293.645Z" fill="#333333"/>
<path d="M157.875 294.39C157.875 294.39 157.824 294.39 157.807 294.39C157.637 294.349 157.526 294.183 157.569 294.017L158.581 289.728C158.623 289.563 158.793 289.463 158.963 289.497C159.133 289.538 159.244 289.704 159.201 289.869L158.189 294.158C158.155 294.299 158.028 294.398 157.875 294.398V294.39Z" fill="#333333"/>
<path d="M149.968 299.302C149.891 299.302 149.815 299.277 149.755 299.219L146.252 296.13C146.124 296.015 146.107 295.816 146.227 295.692C146.346 295.567 146.55 295.559 146.677 295.667L150.18 298.755C150.308 298.871 150.325 299.07 150.206 299.194C150.146 299.26 150.053 299.293 149.968 299.293V299.302Z" fill="#333333"/>
<path d="M147.697 300.046C147.697 300.046 147.646 300.046 147.629 300.046C147.459 300.005 147.349 299.839 147.391 299.674L148.403 295.385C148.446 295.219 148.616 295.12 148.786 295.153C148.956 295.194 149.066 295.36 149.024 295.525L148.012 299.815C147.978 299.955 147.85 300.055 147.697 300.055V300.046Z" fill="#333333"/>
<path d="M128.643 249.47C128.643 249.47 117.556 268.729 115.728 292.567L109.751 291.715C109.751 291.715 112.625 260.962 123.627 248.07L128.652 249.47H128.643Z" fill="#333333"/>
<path d="M116.848 283.443C120.92 282.507 123.442 278.534 122.48 274.568C121.519 270.603 117.439 268.147 113.367 269.083C109.295 270.019 106.773 273.992 107.734 277.958C108.695 281.923 112.775 284.379 116.848 283.443Z" fill="white"/>
<path d="M115.116 283.95C110.763 283.95 107.225 280.505 107.225 276.266C107.225 272.027 110.763 268.582 115.116 268.582C119.469 268.582 123.006 272.027 123.006 276.266C123.006 280.505 119.469 283.95 115.116 283.95ZM115.116 269.195C111.111 269.195 107.863 272.366 107.863 276.258C107.863 280.149 111.12 283.321 115.116 283.321C119.112 283.321 122.368 280.149 122.368 276.258C122.368 272.366 119.112 269.195 115.116 269.195Z" fill="#333333"/>
<path d="M109.538 275.147L115.116 276.256L114.529 273.797" fill="white"/>
<path d="M115.116 276.57C115.116 276.57 115.073 276.57 115.056 276.57L109.479 275.461C109.309 275.427 109.198 275.262 109.232 275.096C109.266 274.931 109.436 274.823 109.606 274.856L114.699 275.875L114.223 273.887C114.181 273.722 114.291 273.556 114.461 273.515C114.64 273.473 114.801 273.581 114.844 273.747L115.43 276.206C115.456 276.305 115.43 276.421 115.345 276.496C115.286 276.554 115.201 276.587 115.116 276.587V276.57Z" fill="#333333"/>
<path d="M158.02 92.5386C151.201 93.9048 143.191 94.0125 133.668 88.8457C133.668 88.8457 143.514 102.549 156.617 102.334L156.506 95.064L158.02 92.5303V92.5386Z" fill="#333333"/>
<path d="M153.046 71.1094C152.706 71.1094 152.399 70.8693 152.34 70.5298C152.272 70.1489 152.527 69.7846 152.918 69.7101C153.352 69.6356 153.802 69.263 154.117 68.7247C154.466 68.1286 154.585 67.4496 154.423 67.0191C153.955 65.8019 152.442 61.695 152.382 59.8816C152.365 59.4925 152.68 59.1695 153.08 59.153C153.479 59.1364 153.811 59.4428 153.828 59.832C153.87 61.1071 154.908 64.2369 155.783 66.5305C156.098 67.3503 155.937 68.4598 155.375 69.4203C154.84 70.3311 154.04 70.9355 153.182 71.0928C153.139 71.0928 153.097 71.1011 153.054 71.1011L153.046 71.1094Z" fill="#333333"/>
<path d="M115.269 68.2609C114.971 68.2609 114.691 68.0787 114.589 67.7889C113.194 63.9387 111.018 61.6865 108.722 61.7693C107.259 61.819 106.027 62.8788 105.576 64.4686C105.474 64.8412 105.074 65.0648 104.692 64.9571C104.309 64.8578 104.08 64.4686 104.19 64.096C104.811 61.9018 106.571 60.4362 108.679 60.3617C111.621 60.2706 114.342 62.8623 115.958 67.317C116.094 67.6813 115.89 68.087 115.515 68.2112C115.439 68.236 115.354 68.2526 115.277 68.2526L115.269 68.2609Z" fill="#333333"/>
<path d="M109.53 66.6792C109.368 66.6792 109.207 66.6295 109.07 66.5136C108.764 66.2652 108.722 65.8181 108.977 65.52L111.681 62.357C111.936 62.0589 112.395 62.0175 112.701 62.2659C113.007 62.5143 113.05 62.9614 112.795 63.2595L110.091 66.4225C109.946 66.5881 109.742 66.6792 109.538 66.6792H109.53Z" fill="#333333"/>
<path d="M174.472 65.8356C174.361 65.8356 174.242 65.8108 174.132 65.7528C173.783 65.5707 173.647 65.0076 173.834 64.6599C174.285 63.8401 175.866 61.0332 177.456 61.0332C177.796 61.0332 178.443 61.2982 178.893 62.1345C179.08 62.4822 178.944 62.9707 178.587 63.1529C178.239 63.3351 177.796 63.2357 177.609 62.8879C177.516 62.7058 177.448 62.6892 177.448 62.6892C177.082 62.6892 175.96 63.8815 175.101 65.4465C174.974 65.6866 174.719 65.8274 174.463 65.8274L174.472 65.8356Z" fill="#333333"/>
<path d="M152.442 79.9936C146.609 79.9936 142.741 75.9364 142.554 75.7294C142.29 75.4396 142.307 75.0007 142.605 74.7358C142.894 74.4708 143.353 74.4956 143.625 74.7772C143.837 75.0007 148.828 80.2172 155.86 78.0561C156.243 77.9402 156.642 78.1472 156.761 78.5198C156.88 78.8924 156.668 79.2815 156.285 79.3974C154.933 79.8114 153.641 79.9853 152.442 79.9853V79.9936Z" fill="#333333"/>
<path d="M141.899 77.3268C141.763 77.3268 141.635 77.2937 141.516 77.2191C141.176 77.0121 141.083 76.5733 141.295 76.2504L143.353 73.0874C143.565 72.7562 144.016 72.6651 144.348 72.8721C144.688 73.0791 144.781 73.5179 144.569 73.8409L142.511 77.0038C142.375 77.2191 142.137 77.3268 141.899 77.3268Z" fill="#333333"/>
<path d="M140.003 54.5567C138.693 54.5567 137.384 54.2172 136.092 54.4077C135.734 54.4573 135.377 54.5567 135.012 54.5567C134.646 54.5567 134.264 54.4656 134.017 54.2007C133.626 53.7618 133.796 53.0332 134.229 52.6357C134.663 52.2383 135.275 52.0892 135.862 51.9733C137.239 51.7084 138.71 51.5593 140.028 52.0561C140.504 52.23 140.964 52.5115 141.21 52.9338C141.457 53.3644 141.431 53.9688 141.04 54.2917C140.759 54.5236 140.368 54.5567 139.994 54.5567H140.003Z" fill="#333333"/>
<path d="M160.281 54.5567C161.591 54.5567 162.9 54.2172 164.192 54.4077C164.549 54.4573 164.907 54.5567 165.272 54.5567C165.638 54.5567 166.02 54.4656 166.267 54.2007C166.658 53.7618 166.488 53.0332 166.054 52.6357C165.621 52.2383 165.009 52.0892 164.422 51.9733C163.045 51.7084 161.574 51.5593 160.256 52.0561C159.78 52.23 159.32 52.5115 159.074 52.9338C158.827 53.3644 158.853 53.9688 159.244 54.2917C159.524 54.5236 159.916 54.5567 160.29 54.5567H160.281Z" fill="#333333"/>
<path d="M252.244 98.4418C276.715 86.4357 295.573 74.8353 294.383 72.5169C293.184 70.1985 272.378 78.0562 247.917 90.0623C223.446 102.068 204.588 113.669 205.778 115.987C206.968 118.306 227.783 110.448 252.244 98.4418Z" fill="#333333"/>
<path d="M206.994 117.089C206.637 117.089 205.54 117.089 205.132 116.303C204.741 115.558 203.942 114.001 216.831 106.06C224.807 101.15 235.733 95.2465 247.585 89.4339C268.875 78.9928 288.04 71.4082 293.167 71.4082C293.524 71.4082 294.621 71.4082 295.029 72.1948C295.42 72.94 296.22 74.4967 283.33 82.4373C275.354 87.3473 264.429 93.251 252.576 99.0637C230.946 109.67 212.206 117.089 206.994 117.089ZM206.467 115.632C206.56 115.657 206.722 115.682 206.994 115.682C211.917 115.682 230.81 108.163 251.921 97.8134C278.16 84.9378 293.048 75.0432 293.694 72.8655C293.601 72.8407 293.439 72.8158 293.167 72.8158C288.244 72.8158 269.343 80.3341 248.24 90.6842C221.992 103.56 207.113 113.454 206.467 115.632Z" fill="#333333"/>
<path d="M271.044 88.706C285.651 80.6992 295.242 74.1828 294.375 72.5102C293.507 70.8376 282.429 74.4726 267.124 81.1298L271.044 88.6978V88.706Z" fill="white"/>
<path d="M271.044 89.4096C270.976 89.4096 270.899 89.4013 270.831 89.3764C270.644 89.3185 270.483 89.1943 270.397 89.0204L266.478 81.4524C266.393 81.2785 266.376 81.0798 266.444 80.8976C266.512 80.7155 266.648 80.5664 266.826 80.4919C280.09 74.7207 289.69 71.4004 293.159 71.4004C293.516 71.4004 294.613 71.4004 295.021 72.187C295.497 73.1061 295.089 74.5468 288.925 78.7945C284.758 81.6677 278.696 85.3026 271.392 89.3102C271.282 89.3681 271.163 89.4013 271.035 89.4013L271.044 89.4096ZM268.11 81.4772L271.35 87.737C287.122 79.0429 293.261 74.1742 293.686 72.866C293.592 72.8411 293.431 72.8163 293.159 72.8163C289.987 72.8163 280.652 76.0455 268.11 81.4855V81.4772Z" fill="#333333"/>
<path d="M285.897 73.7425L288.304 78.3876C288.304 78.3876 292.929 81.3022 298.269 78.6774C303.608 76.0526 308.429 64.0134 308.429 64.0134C308.429 64.0134 294.817 63.3758 290.242 65.6197C285.668 67.8636 285.906 73.7342 285.906 73.7342L285.897 73.7425Z" fill="#333333"/>
<path d="M308.421 64.0216C308.421 64.0216 296.322 63.4586 291.11 65.2802C291.28 66.2986 292.054 67.2509 293.057 67.6566C294.46 68.2196 296.109 67.905 297.453 67.2095C297.725 67.0687 298.031 66.9114 298.32 66.9942C298.796 67.1349 298.83 67.8305 298.532 68.2113C298.235 68.6005 297.742 68.791 297.342 69.0642C296.662 69.5362 296.177 70.331 296.237 71.1425C296.296 71.9539 296.968 72.724 297.801 72.7902C299.264 72.9061 300.42 71.0597 301.84 71.4157C302.767 71.6476 303.073 72.5832 303.345 73.5768C306.312 69.2546 308.412 64.0133 308.412 64.0133L308.421 64.0216Z" fill="#4257FF"/>
<path d="M303.353 74.2893C303.353 74.2893 303.277 74.2893 303.234 74.281C302.954 74.2313 302.724 74.0326 302.656 73.7676C302.384 72.7575 302.154 72.2276 301.67 72.1116C301.228 72.004 300.709 72.3269 300.139 72.683C299.459 73.1052 298.685 73.5855 297.75 73.511C296.585 73.4199 295.607 72.4097 295.522 71.2091C295.446 70.1907 295.99 69.1556 296.925 68.5098C297.061 68.4104 297.214 68.3276 297.359 68.2448C297.614 68.0958 297.835 67.9633 297.963 67.806C297.98 67.7894 297.988 67.7646 297.997 67.7398C297.937 67.7729 297.861 67.8143 297.801 67.8391C296.084 68.7251 294.239 68.9072 292.785 68.3194C291.543 67.8226 290.608 66.6716 290.395 65.4048C290.336 65.0736 290.54 64.7424 290.863 64.6347C294.128 63.4921 299.91 63.252 304.178 63.252C306.644 63.252 308.438 63.3348 308.463 63.3348C308.693 63.343 308.905 63.4672 309.033 63.6577C309.16 63.8481 309.186 64.0882 309.101 64.2952C309.016 64.5105 306.933 69.6607 303.957 73.9912C303.821 74.1899 303.591 74.3058 303.353 74.3058V74.2893ZM298.15 66.2659C298.286 66.2659 298.413 66.2825 298.541 66.3239C298.94 66.4481 299.247 66.7461 299.383 67.1519C299.544 67.6404 299.442 68.2283 299.119 68.6423C298.83 69.0149 298.447 69.2384 298.107 69.4372C297.988 69.5034 297.869 69.5697 297.759 69.6525C297.24 70.0085 296.925 70.5798 296.959 71.1097C296.993 71.6065 297.419 72.0702 297.861 72.1034H297.929C298.362 72.1034 298.847 71.8053 299.349 71.4906C299.961 71.1097 300.658 70.6792 301.466 70.6792C301.653 70.6792 301.831 70.704 302.01 70.7454C302.767 70.9359 303.226 71.4327 303.523 71.9957C305.309 69.1639 306.695 66.1665 307.341 64.6927C306.584 64.6678 305.47 64.6513 304.161 64.6513C298.779 64.6513 294.511 65.0405 291.985 65.7443C292.249 66.299 292.742 66.7875 293.32 67.0194C294.383 67.4417 295.786 67.2843 297.104 66.5971C297.367 66.4646 297.725 66.2742 298.133 66.2742L298.15 66.2659Z" fill="#333333"/>
<path d="M179.217 16.3455C184.259 11.2698 176.946 2.27765 164.15 5.10115C151.354 7.92466 111.732 15.6748 103.476 14.8716C95.2202 14.0685 89.9316 27.5733 100.432 35.2241L99.667 38.7183C99.667 38.7183 115.278 40.1259 117.973 40.6889C120.668 41.252 154.848 40.8628 179.217 16.3538V16.3455Z" fill="#4257FF"/>
<path d="M120.226 41.5079C119.112 41.5079 118.236 41.4583 117.828 41.3755C115.21 40.829 99.7605 39.4296 99.6074 39.4214C99.4034 39.4048 99.2163 39.2972 99.0888 39.1398C98.9697 38.9742 98.9187 38.7755 98.9612 38.5768L99.6329 35.5214C93.6897 30.9674 93.137 24.7408 94.5059 20.7332C95.9684 16.4524 99.5564 13.8028 103.544 14.1837C103.918 14.2168 104.369 14.2417 104.888 14.2417C115.295 14.2417 150.895 7.31951 163.989 4.42976C165.655 4.06544 167.296 3.875 168.869 3.875C174.574 3.875 179.336 6.34246 180.994 10.1596C182.031 12.5525 181.572 14.9869 179.727 16.8499C155.894 40.829 123.806 41.5162 120.218 41.5162L120.226 41.5079ZM100.543 38.0883C103.808 38.3863 115.745 39.5042 118.117 39.9927C118.347 40.0424 119.036 40.1003 120.218 40.1003C132.988 40.1003 159.669 34.9915 178.689 15.8563C180.135 14.399 180.483 12.5691 179.667 10.6895C178.494 7.9902 174.693 5.26605 168.869 5.26605C167.398 5.26605 165.868 5.43993 164.303 5.7877C151.167 8.68572 115.405 15.6327 104.888 15.6327C104.318 15.6327 103.816 15.6161 103.4 15.5747C100.092 15.2518 97.1162 17.5206 95.8748 21.1638C94.5739 24.9809 95.1946 30.5286 100.866 34.6603C101.087 34.8259 101.197 35.0992 101.138 35.3724L100.543 38.0883Z" fill="#333333"/>
<path d="M129.077 15.6068C128.669 15.524 128.312 15.259 128.125 14.8616C127.7 13.9756 124.077 6.09297 126.11 1.50581C126.407 0.826841 127.223 0.520478 127.904 0.810281C128.601 1.10008 128.915 1.88669 128.618 2.55738C127.3 5.52992 129.604 11.6406 130.607 13.7438C130.922 14.4144 130.624 15.201 129.944 15.5074C129.664 15.6316 129.366 15.6565 129.085 15.5985L129.077 15.6068Z" fill="#4257FF"/>
<path d="M129.358 16.3449C129.213 16.3449 129.069 16.3283 128.924 16.3035C128.286 16.171 127.734 15.7487 127.462 15.1691C127.028 14.2583 123.278 6.11897 125.438 1.23373C125.77 0.488524 126.526 0 127.36 0C127.649 0 127.929 0.0579605 128.184 0.173882C129.239 0.612725 129.723 1.81334 129.273 2.84007C128.193 5.27441 129.919 10.6399 131.254 13.4551C131.738 14.4736 131.279 15.6825 130.233 16.1544C129.953 16.2786 129.664 16.3449 129.358 16.3449ZM127.36 1.40761C127.105 1.40761 126.866 1.55665 126.764 1.7885C125.208 5.29925 127.3 11.4762 128.771 14.5729C128.856 14.7551 129.026 14.8793 129.222 14.9207C129.358 14.9455 129.502 14.9373 129.63 14.8793C129.953 14.7302 130.089 14.3576 129.944 14.043C129.91 13.9685 126.237 6.15209 127.946 2.2853C128.082 1.97066 127.938 1.59805 127.606 1.45729C127.521 1.42417 127.436 1.40761 127.351 1.40761H127.36Z" fill="#333333"/>
</svg>
