<?xml version="1.0" encoding="UTF-8"?>
<svg id="_레이어_2" data-name="레이어 2" xmlns="http://www.w3.org/2000/svg" viewBox="0 0 452.86 379.11">
  <defs>
    <style>
      .cls-1 {
        fill: #f2cf63;
      }

      .cls-1, .cls-2, .cls-3, .cls-4, .cls-5, .cls-6, .cls-7, .cls-8, .cls-9 {
        stroke-width: 0px;
      }

      .cls-2 {
        fill: #363636;
      }

      .cls-3 {
        fill: #a2bff9;
      }

      .cls-4 {
        fill: #2b2b2b;
      }

      .cls-5 {
        fill: #333;
      }

      .cls-6 {
        fill: #fff;
      }

      .cls-7 {
        fill: #fc5e71;
      }

      .cls-8 {
        fill: #f2c9cc;
      }

      .cls-9 {
        fill: #f29199;
      }
    </style>
  </defs>
  <g id="_迹_1" data-name="卵迹_1">
    <g>
      <path class="cls-8" d="m229.75,105.11c13.36,15.12,38.14,16.11,56.51,20.22,24.26,5.43,48.52,10.85,72.79,16.28,6.97,1.56,14.15,3.21,19.93,7.4,27.43,19.9,12.38,65.93-8.18,84.23-16.17,14.4-36.77,22.56-56.01,32.49-37.24,19.22-68.16,46.42-109.22,58.16C123.84,347.27-.36,326.54,0,219.06c.1-29.12,13.84-58.53,37.9-74.92,9.65-6.57,20.69-11.02,29.89-18.22,27.52-21.55,7.89-59.33,24.72-86.03,12.96-20.56,41.54-23.81,63.62-24.44,14.63-.42,30.55.64,41.66,10.17,23.31,19.99,12.29,57.23,31.96,79.51Z"/>
      <g>
        <path class="cls-6" d="m231.19,31.7l5.51-1.75-5.51-1.88c-1.65-.43-2.91-1.76-3.26-3.42l-1.75-8.27-1.88,8.09c-.4,1.71-1.74,3.03-3.46,3.39l-5.18,1.78,5,1.76c1.75.41,3.09,1.82,3.41,3.59l1.45,8,2.11-8.01c.45-1.69,1.83-2.97,3.55-3.29Z"/>
        <path class="cls-5" d="m225.53,43.84s-.02,0-.03,0c-.4-.02-.73-.31-.8-.7l-1.45-8c-.26-1.44-1.35-2.58-2.77-2.91-.03,0-.06-.02-.09-.03l-5-1.76c-.34-.12-.57-.44-.57-.8,0-.36.23-.68.57-.8l5.18-1.78s.07-.02.1-.03c1.38-.29,2.49-1.37,2.81-2.75l1.88-8.09c.09-.39.43-.66.83-.66h0c.4,0,.74.28.82.67l1.75,8.27c.29,1.36,1.3,2.43,2.65,2.78l5.56,1.9c.35.12.58.45.57.81,0,.37-.24.69-.59.8l-5.5,1.75s-.07.02-.11.03c-1.39.25-2.53,1.3-2.88,2.67l-2.11,8.01c-.1.37-.44.63-.82.63Zm-4.62-13.25c2.06.5,3.63,2.16,4.01,4.25l.76,4.23,1.13-4.3c.52-1.99,2.16-3.51,4.17-3.89l3-.95-3.07-1.05c-1.91-.5-3.4-2.06-3.82-4.05l-.96-4.52-1.01,4.36c-.46,2-2.05,3.57-4.05,4.02l-2.83.97,2.66.94Z"/>
      </g>
      <path class="cls-5" d="m40.96,153.83l7.4-2.35-7.4-2.53c-2.21-.58-3.91-2.36-4.38-4.6l-2.35-11.11-2.52,10.87c-.53,2.29-2.34,4.07-4.65,4.56l-6.97,2.4,6.72,2.37c2.36.55,4.16,2.44,4.59,4.82l1.94,10.75,2.83-10.76c.6-2.28,2.46-4,4.78-4.42Z"/>
      <path class="cls-5" d="m387.09,149.34l6.27-1.99-6.27-2.14c-1.87-.49-3.31-2-3.71-3.9l-1.99-9.41-2.14,9.21c-.45,1.94-1.98,3.45-3.93,3.86l-5.9,2.03,5.69,2.01c1.99.46,3.52,2.07,3.89,4.08l1.65,9.11,2.4-9.11c.51-1.93,2.09-3.39,4.05-3.74Z"/>
      <g>
        <g>
          <path class="cls-7" d="m356.88,27.79c-16,.04-29.79,8.88-37.21,21.84-7.48-12.93-21.31-21.71-37.31-21.67-23.83.05-43.1,19.42-43.05,43.24.05,23.83,34.94,55.32,80.65,105.72,43.04-46.19,80.22-82.26,80.17-106.09-.05-23.83-19.42-43.1-43.25-43.05Z"/>
          <path class="cls-5" d="m319.96,177.78h0c-.24,0-.46-.1-.62-.28-9.04-9.96-17.49-19.01-25.66-27.76-33.22-35.57-55.17-59.08-55.21-78.53-.06-24.26,19.64-44.04,43.89-44.09h.1c15.05,0,29.17,7.96,37.21,20.87,7.99-12.98,22.12-21,37.22-21.04h.1c24.2,0,43.94,19.69,43.99,43.89.05,21.19-28.49,51.49-64.62,89.86-5.12,5.43-10.41,11.05-15.78,16.81-.16.17-.39.27-.62.27Zm-37.5-148.96h-.1c-23.32.05-42.25,19.07-42.2,42.39.04,18.78,22.99,43.36,54.75,77.37,7.99,8.56,16.24,17.39,25.06,27.1,5.16-5.53,10.24-10.92,15.15-16.14,35.87-38.09,64.2-68.17,64.16-88.69-.05-23.27-19.03-42.2-42.3-42.2h-.1c-14.96.03-28.94,8.24-36.48,21.42-.15.26-.43.43-.73.43h0c-.3,0-.58-.16-.73-.42-7.58-13.11-21.56-21.25-36.48-21.25Z"/>
        </g>
        <circle class="cls-6" cx="281.06" cy="56.72" r="18.04"/>
        <circle class="cls-6" cx="266.63" cy="71.15" r="11.25"/>
      </g>
      <g>
        <path class="cls-6" d="m113.83,110.14l-15.66-19.67c1.71-4.52,2.58-9.4,2.4-14.47-.78-21.68-20.18-38.58-43.33-37.75-23.15.83-41.3,19.08-40.52,40.76.78,21.68,20.18,38.58,43.33,37.75,9.55-.34,18.25-3.66,25.12-8.95l28.67,2.33Z"/>
        <path class="cls-4" d="m58.41,117.63c-23.08,0-41.77-16.95-42.55-38.6-.79-22.11,17.75-40.79,41.34-41.64.56-.02,1.11-.03,1.66-.03,23.08,0,41.77,16.95,42.55,38.6.18,4.89-.59,9.72-2.28,14.35l15.36,19.3c.21.27.24.63.09.93-.16.3-.48.46-.82.45l-28.34-2.31c-7.26,5.5-16.02,8.59-25.34,8.92-.56.02-1.11.03-1.67.03Zm.45-78.56c-.53,0-1.07,0-1.6.03-22.65.81-40.46,18.7-39.7,39.88.76,21.22,19.56,37.74,42.46,36.93,9.09-.33,17.6-3.36,24.63-8.77.17-.13.38-.19.59-.17l26.71,2.18-14.44-18.14c-.19-.23-.24-.55-.13-.83,1.73-4.56,2.51-9.31,2.34-14.14-.74-20.73-18.69-36.96-40.85-36.96Z"/>
      </g>
      <g>
        <circle class="cls-1" cx="58.48" cy="76.01" r="27.88" transform="translate(-37.41 74.21) rotate(-51.35)"/>
        <path class="cls-4" d="m68.99,68.67c-.49-4.36-1.95-7.77-3.28-7.63-1.32.15-2,3.8-1.52,8.16.49,4.36,1.95,7.77,3.28,7.63,1.32-.15,2-3.8,1.52-8.16Z"/>
        <path class="cls-4" d="m50.61,70.72c-.49-4.36-1.95-7.77-3.28-7.63s-2,3.8-1.52,8.16c.49,4.36,1.95,7.77,3.28,7.63s2-3.8,1.52-8.16Z"/>
        <g>
          <path class="cls-6" d="m41.19,83.06s17.57,6.41,35.97-4c0,0-2.85,15.56-16.98,17.13-14.12,1.57-19-13.13-19-13.13Z"/>
          <path class="cls-4" d="m58.1,97.16c-12.99,0-17.68-13.69-17.72-13.83-.1-.31-.02-.65.21-.88.23-.23.58-.3.88-.19.05.02,5.32,1.9,12.95,1.9s15.47-1.97,22.32-5.84c.29-.16.64-.14.91.05.27.19.4.52.34.84-.03.16-3.14,16.2-17.72,17.82-.73.08-1.46.12-2.17.12Zm-15.44-12.76c1.61,3.41,6.25,11.06,15.44,11.06.65,0,1.32-.04,1.99-.11,10.64-1.18,14.57-10.59,15.78-14.63-6.64,3.41-13.85,5.14-21.44,5.14-5.35,0-9.53-.87-11.76-1.47Z"/>
        </g>
      </g>
      <path class="cls-4" d="m134.3,122.73c.72-6.8,3.47-12.15,9.55-12.29s44.26-.43,46.72.43c2.46.87,8.53,12.29,8.53,12.29l-20.54,5.79h-46.57l2.31-6.22Z"/>
      <path class="cls-5" d="m185.21,120.27s13.45,2.17,17.36,4.77c3.9,2.6,9.55,239.51,9.55,239.51,0,0-59.01,19.96-88.51-3.47l6.36-234.88,17.36-5.79,37.89-.14Z"/>
      <g>
        <path class="cls-3" d="m138.57,129.6c-.65-6.94.43-15.62,5.21-16.92l-.65-5.42c-9.98.65-13.16,13.45-13.16,13.45,0,0-34.71,8.1-62.48,26.61-27.77,18.51-43.97,105.29-43.97,105.29l47.64.66,7.08,113.24c19.17,6.43,38.44,11.43,58.47,11.74,2.26-84.18,2.35-243.45,1.86-248.65Z"/>
        <path class="cls-5" d="m137.53,379.11h-.84c-21.9-.35-42.89-6.49-58.73-11.8l-.54-.18-7.06-113.02-47.86-.66.18-.99c.66-3.56,16.58-87.34,44.33-105.84,25.79-17.19,57.92-25.53,62.27-26.61.73-2.48,4.35-12.97,13.79-13.59l.8-.05.83,6.95-.71.19c-4.08,1.11-5.24,9.09-4.58,16.02.43,4.62.43,163.36-1.86,248.75l-.02.84Zm-58.49-13.23c15.45,5.16,35.72,11.03,56.84,11.5,2.27-85.55,2.27-243.11,1.84-247.7-.65-6.97.34-15.54,5.13-17.58l-.47-3.92c-8.63,1.22-11.56,12.61-11.59,12.73l-.13.5-.51.12c-.35.08-34.89,8.28-62.2,26.49-25.57,17.05-41.5,94.09-43.41,103.75l47.41.66,7.09,113.45Z"/>
      </g>
      <g>
        <path class="cls-3" d="m321.39,242.34c-8.14-22.79-31.91-84.51-56.05-101.38-12.58-8.8-62.77-21.98-62.77-21.98,0,0-3.21-10.32-16.72-11.67l.45,5.16s6.72.87,7.59,6.72c.63,4.25,5.82,164.65,8.63,252.52,20.16-1.3,40.34-3.34,58.98-10.47l-.13-66.55c-.04-22.58,51.86-42.13,51.86-42.13.13-.02.25-.03.37-.04,3.64-.44,7.26-.98,10.75-1.63,0,0-1.05-3.2-2.95-8.53Z"/>
        <path class="cls-5" d="m201.7,372.6l-.03-.88c-5.02-157.37-8.17-249.37-8.62-252.42-.76-5.14-6.61-5.97-6.86-6.01l-.68-.09-.6-6.86,1.02.1c12.26,1.22,16.43,9.73,17.28,11.81,5.22,1.38,50.53,13.54,62.61,22,24.06,16.81,47.43,76.79,56.37,101.79,1.88,5.28,2.95,8.52,2.96,8.55l.3.92-.95.18c-3.3.62-6.93,1.17-10.8,1.64l-.27.03c-2.51.96-51.25,20.02-51.21,41.3l.13,67.14-.55.21c-19.46,7.45-40.78,9.34-59.23,10.53l-.87.06Zm-14.61-260.85c1.85.43,6.86,2.06,7.64,7.31.63,4.24,5.65,159.11,8.61,251.74,17.95-1.17,38.52-3.08,57.31-10.16l-.13-65.96c-.04-22.9,50.27-42.12,52.41-42.93l.18-.05.38-.04c3.47-.42,6.74-.91,9.74-1.45-.44-1.31-1.35-3.97-2.64-7.59-8.88-24.85-32.08-84.44-55.74-100.97-12.31-8.61-62-21.73-62.5-21.86l-.46-.12-.14-.45c-.12-.39-3.07-9.3-14.97-10.96l.3,3.48Z"/>
      </g>
      <path class="cls-4" d="m199.1,255.77c-.08,0-.17-.01-.25-.04-.45-.14-.7-.62-.56-1.06l14.94-48-11.44-25.16c-.12-.26-.1-.57.06-.81l15.67-24.21c-1.45-3.44-11.54-27.41-16.59-38.32-.2-.43-.01-.93.41-1.13.43-.2.93-.01,1.13.41,5.44,11.74,16.68,38.52,16.79,38.79.11.26.08.55-.07.79l-15.66,24.2,11.38,25.03c.09.19.1.4.04.6l-15.04,48.31c-.11.36-.45.6-.81.6Z"/>
      <path class="cls-4" d="m138.06,256.35c-.37,0-.71-.24-.82-.62l-13.31-46.86c-.04-.16-.04-.32,0-.48l7.67-25.55-15.56-15.84c-.22-.22-.3-.54-.21-.84.09-.3,9.01-29.68,13.3-45.68.12-.45.58-.72,1.04-.6.45.12.72.59.6,1.04-3.99,14.9-11.99,41.35-13.17,45.25l15.56,15.84c.22.22.3.54.21.84l-7.74,25.8,13.24,46.62c.13.45-.13.92-.58,1.05-.08.02-.16.03-.23.03Z"/>
      <path class="cls-2" d="m77.83,326.42c-1.01,0-1.97-.07-2.84-.15-1.67-.13-4.13-.47-6.08-1.9-1.76-1.15-3.26-3.59-2.67-5.98.64-2.58,3.28-4.25,7.25-4.56,2.41-.19,4.34.21,5.72,1.21.99.71,1.69,1.89,1.86,3.15.14,1.06-.11,2.07-.72,2.82-.21.26-.55.37-.86.29-.33-.08-.71-.18-.92-.16-.47.04-.88-.31-.91-.78s.31-.88.78-.91c.28-.02.57.01.85.06.16-.39.15-.79.11-1.1-.11-.79-.55-1.56-1.17-2-1.3-.94-3.22-1-4.59-.89-1.51.12-5.1.68-5.74,3.28-.4,1.6.73,3.35,1.99,4.18,1.27.93,2.88,1.42,5.26,1.6,2.45.23,5.58.34,8.28-.93,2.13-1.14,4.05-3.88,3.37-6.29-.5-1.9-2.32-3.45-5.42-4.62-3.05-1.16-6.53-1.68-10.33-1.56-.47.05-.86-.35-.88-.82-.01-.47.35-.86.82-.88,4.03-.14,7.72.43,10.98,1.67,3.64,1.38,5.81,3.32,6.46,5.77.91,3.25-1.45,6.75-4.25,8.25-2.08.98-4.31,1.25-6.35,1.25Z"/>
      <circle class="cls-4" cx="128.16" cy="279.9" r="4.54"/>
      <path class="cls-4" d="m132.91,315.08c0-2.51-2.03-4.54-4.54-4.54s-4.54,2.03-4.54,4.54,2.03,4.54,4.54,4.54,4.54-2.03,4.54-4.54Z"/>
      <circle class="cls-4" cx="126.64" cy="349.36" r="4.54"/>
      <g>
        <g>
          <path class="cls-6" d="m182.87,66.1s3.89-9.18,10.02-9.19c6.12-.01,11.31,11.74,6.39,16.24-4.92,4.51-13.61,2.42-13.61,2.42l-2.8-9.47Z"/>
          <path class="cls-4" d="m190.32,76.9c-2.71,0-4.76-.49-4.85-.51-.29-.07-.53-.29-.62-.58l-2.8-9.47c-.06-.19-.04-.39.03-.57.17-.4,4.19-9.69,10.8-9.71,3.75,0,6.84,3.64,8.25,7.25,1.29,3.31,1.63,7.8-1.28,10.47-2.82,2.58-6.74,3.12-9.53,3.12Zm-3.98-2.06c.72.14,2.21.36,3.98.36,2.49,0,5.97-.46,8.38-2.68,2.28-2.08,1.93-5.81.84-8.6-1.41-3.63-4.15-6.17-6.65-6.17-4.94.01-8.44,6.94-9.12,8.4l2.57,8.68Z"/>
        </g>
        <path class="cls-4" d="m178.17,25.58c5.11,4.01,7.87,15.57,8.85,26.29.98,10.71-9.27-18.23-9.27-18.23l-9.36-6.18,9.79-1.87Z"/>
        <g>
          <path class="cls-6" d="m188.79,54.83c-5.07-10.67-5.43-19.47-9.01-24.25,0,0-14.13-21.69-43.5-5.91-.36.19-.7.39-1.05.59-14.8,8.63-20.69,24.96-11.49,40.05l7.91,12.98c-2.71-.55-5.65-.52-7.95,1.12-5.78,4.12-2.74,18.7,4.93,19.63,5.23.63,10.05-2.8,12.58-5.06l1.22,1.99,2.81,28.06c34.62,20.39,41.79-2.42,41.79-2.42l-2.2-21.8c19.47-11.03,8.88-34.6,3.96-44.96Z"/>
          <path class="cls-4" d="m170.07,133.34h0c-7.08,0-15.57-2.89-25.25-8.59-.23-.14-.39-.38-.41-.65l-2.79-27.86-.6-.98c-2.42,2-6.54,4.69-11.1,4.69-.46,0-.93-.03-1.38-.08-4.48-.54-7.15-4.96-8.15-8.92-1.1-4.31-.65-9.76,2.83-12.24,1.78-1.27,4.05-1.78,6.77-1.53l-6.97-11.43c-4.27-7-5.55-14.53-3.72-21.8,1.98-7.85,7.49-14.75,15.5-19.42.35-.2.71-.4,1.07-.6,7.23-3.89,14.19-5.86,20.68-5.86,15.9,0,23.62,11.56,23.94,12.05,1.9,2.53,2.93,6.19,4.14,10.43,1.17,4.11,2.49,8.77,4.93,13.92,4.43,9.33,16.13,33.99-3.83,45.79l2.15,21.26c.01.11,0,.23-.03.34-.04.11-3.77,11.49-17.77,11.49Zm-24.02-9.84c9.26,5.4,17.34,8.14,24.02,8.14,12.01,0,15.62-8.8,16.1-10.14l-2.18-21.62c-.03-.33.13-.66.43-.82,19.25-10.91,7.89-34.85,3.61-43.86-2.51-5.28-3.85-10.01-5.03-14.19-1.2-4.24-2.16-7.6-3.89-9.92-.11-.16-7.59-11.32-22.55-11.32-6.21,0-12.89,1.9-19.87,5.66-.35.19-.69.38-1.02.57-7.62,4.44-12.84,10.97-14.71,18.37-1.72,6.81-.5,13.9,3.52,20.5l7.91,12.98c.18.29.16.65-.03.93-.19.28-.53.41-.86.34-3.03-.62-5.51-.29-7.29.98-2.41,1.71-3.3,6.01-2.17,10.44.87,3.41,3.09,7.22,6.71,7.66.39.05.78.07,1.18.07,4.53,0,8.67-3.08,10.74-4.92.19-.17.44-.24.69-.2s.47.18.6.4l1.22,1.99c.07.11.11.23.12.36l2.76,27.63Z"/>
        </g>
        <path class="cls-4" d="m185.02,98.92c-5.3,2.69-17.37,3.33-22.96,2.23,0,0,16.74,6.43,24.22,5.12l-1.27-7.35Z"/>
        <path class="cls-4" d="m126.43,77.79l-12.87-22.35,25.07-11.01s-7.05,9.68-3.43,20.96c1.4,4.37,2.76,7.65,3.91,10.03,1.03,2.15-.83,4.55-3.17,4.12l-9.51-1.75Z"/>
        <path class="cls-4" d="m125.7,89.36c-.06,0-.13,0-.19-.02-.46-.1-.74-.56-.64-1.02.05-.21,1.26-5.26,6.11-6.22,4.95-.98,7.93,5.16,8.06,5.42.2.42.02.93-.4,1.13-.42.2-.93.02-1.13-.4-.03-.05-2.53-5.21-6.2-4.48-3.78.74-4.78,4.89-4.78,4.93-.09.39-.44.66-.83.66Z"/>
        <path class="cls-4" d="m132.61,88.36c-.09,0-.18-.01-.27-.04-.45-.15-.69-.63-.54-1.07l1.39-4.2c.15-.45.62-.69,1.07-.54.45.15.69.63.54,1.07l-1.39,4.2c-.12.36-.45.58-.81.58Z"/>
        <g>
          <path class="cls-6" d="m170.34,61.16s4.39,5.39,4.82,6.41c.43,1.02-1.43,4.15-1.43,4.15"/>
          <path class="cls-4" d="m173.72,72.57c-.15,0-.3-.04-.43-.12-.4-.24-.53-.76-.29-1.16.82-1.37,1.47-2.99,1.37-3.4-.23-.55-2.57-3.58-4.69-6.19-.3-.36-.24-.9.12-1.19.36-.3.9-.24,1.19.12.75.92,4.49,5.54,4.94,6.62.54,1.28-.86,3.86-1.48,4.91-.16.27-.44.41-.73.41Z"/>
        </g>
        <g>
          <path class="cls-6" d="m182.84,87.69s2.81,3.33.38,6.6"/>
          <path class="cls-4" d="m183.22,95.14c-.18,0-.35-.05-.51-.17-.38-.28-.45-.81-.17-1.19,2.01-2.7-.32-5.52-.34-5.55-.3-.36-.26-.89.1-1.2.36-.3.89-.26,1.2.1,1.12,1.33,2.65,4.64.41,7.66-.17.22-.42.34-.68.34Z"/>
        </g>
        <path class="cls-4" d="m155.97,48.75c.34.56.05,1.29-.26,1.87-1.6,2.96-3.77,5.61-6.37,7.75-.46.38-.95.75-1.53.9-.99.26-2.13-.27-2.58-1.2-.36-.76-.27-1.67.06-2.44s.87-1.43,1.41-2.08c2.01-2.4,4.35-4.9,7.45-5.34.66-.09,1.46-.02,1.81.55Z"/>
        <path class="cls-4" d="m168.73,45.41c.12.57.74.86,1.29,1.05,2.81.95,5.81,1.34,8.77,1.16.52-.03,1.07-.09,1.53-.34.8-.43,1.21-1.46.94-2.32-.22-.71-.83-1.24-1.51-1.54-.68-.3-1.43-.4-2.16-.49-2.74-.34-5.76-.54-8.02,1.04-.48.34-.96.86-.84,1.44Z"/>
        <path class="cls-4" d="m191.63,15.22c1.17,7.55-2.78,16.18-6.97,18.86-.66.42-1.33.71-1.98.8-4.79.75-16.16-7.93-31.9-1.36-14.89,6.24-9.26,18.12-28.86,23.7-1.11.32-2.3.61-3.58.88-6.26,1.33-12.64-17.24-6.22-22.21,6.41-4.98,11.85-2.74,16.76-10.55,4.9-7.81-.2-15.56,7.12-19.55,7.33-3.98,22.56-10.11,24.2-1.27,1.63,8.86,9.04,11.83,14.02,6.8,4.99-5.04,16.05-4.85,17.4,3.89Z"/>
        <g>
          <path class="cls-6" d="m155.8,14.32c4.49-.81,7.47,4.28,11.7,4.28,2.4,0,4.43-1.64,6.6-2.64,2.28-1.05,5.63-1.06,6.52,1.42.42,1.17.05,2.48-.78,3.41-1.43,1.59-3.59,1.91-5.62,1.85-1.69-.05-3.37-.33-5.05-.2-3.04.23-5.88,1.75-8.72,3.03-4.75,2.13-10.15-2.1-8.86-7.14.14-.53.35-1.05.65-1.55.77-1.28,2.08-2.19,3.55-2.45Z"/>
          <path class="cls-4" d="m157.84,26.45c-2.13,0-4.19-1.01-5.5-2.71-1.24-1.6-1.65-3.56-1.15-5.52.15-.59.39-1.16.7-1.67.83-1.38,2.27-2.36,3.84-2.65.35-.06.7-.09,1.05-.09,2.11,0,3.9,1.15,5.63,2.26,1.68,1.08,3.27,2.1,5.1,2.1,1.61,0,3.06-.8,4.58-1.64.6-.33,1.22-.67,1.84-.96.99-.46,2.12-.71,3.17-.71,1.96,0,3.39.86,3.93,2.37.46,1.27.13,2.74-.86,3.83-1.21,1.35-3.01,2-5.51,2-.15,0-.29,0-.44,0-.62-.02-1.24-.07-1.86-.11-1.04-.08-2.11-.16-3.16-.08-2.5.19-4.94,1.32-7.29,2.4-.43.2-.86.4-1.28.59-.89.4-1.83.6-2.79.6Zm-1.07-11.8c-.3,0-.6.03-.89.08-1.34.24-2.56,1.08-3.26,2.25-.27.45-.47.92-.6,1.44-.44,1.7-.08,3.4,1,4.79,1.67,2.16,4.75,2.98,7.27,1.85.42-.19.85-.39,1.28-.58,2.42-1.12,4.93-2.28,7.59-2.48,1.1-.08,2.21,0,3.29.09.6.05,1.21.09,1.81.11.14,0,.28,0,.42,0,2.24,0,3.84-.56,4.87-1.72.77-.85,1.04-2.02.69-2.98-.56-1.57-2.2-1.81-3.13-1.81s-1.93.22-2.81.63c-.6.28-1.2.61-1.79.93-1.56.86-3.16,1.75-4.99,1.75-2.08,0-3.85-1.14-5.56-2.24-1.7-1.09-3.3-2.12-5.17-2.12Z"/>
        </g>
        <path class="cls-4" d="m111.21,44.37c-.18,0-.37-.06-.53-.18-2.88-2.28-3.84-6.62-2.19-9.9,1.78-3.52,5.56-5.05,9.62-6.43,3.37-1.15,7.08-2.63,8.49-5.72.82-1.8.69-4.06-.35-5.75-1.03-1.69-2.98-2.84-4.96-2.93-.47-.02-.83-.42-.81-.89.02-.47.41-.82.89-.81,2.57.12,4.99,1.55,6.34,3.74,1.34,2.19,1.51,5.01.44,7.34-1.69,3.7-5.79,5.36-9.49,6.62-3.71,1.26-7.16,2.64-8.65,5.59-1.28,2.54-.51,6.04,1.72,7.8.37.29.43.82.14,1.19-.17.21-.42.32-.67.32Z"/>
        <path class="cls-4" d="m181.76,56.88c-.59-1.78-1.86-2.96-2.83-2.64-.97.32-1.28,2.03-.69,3.81s1.86,2.96,2.83,2.64c.97-.32,1.28-2.03.69-3.81Z"/>
        <path class="cls-4" d="m158.85,66.22c-.59-1.78-1.86-2.96-2.83-2.64-.97.32-1.28,2.03-.69,3.81s1.86,2.96,2.83,2.64,1.28-2.03.69-3.81Z"/>
        <g>
          <path class="cls-6" d="m162.76,79.64s9.97,6.37,19.1-2.33"/>
          <path class="cls-4" d="m171.09,82.71c-5,0-8.72-2.31-8.78-2.35-.39-.25-.51-.77-.26-1.17.25-.4.77-.51,1.17-.26.39.24,9.54,5.89,18.06-2.23.34-.32.88-.31,1.2.03.32.34.31.88-.03,1.2-3.87,3.69-7.92,4.79-11.36,4.79Z"/>
        </g>
        <g>
          <line class="cls-6" x1="163.61" y1="77.62" x2="161.59" y2="81.44"/>
          <path class="cls-4" d="m161.59,82.29c-.13,0-.27-.03-.4-.1-.41-.22-.57-.73-.35-1.15l2.02-3.82c.22-.42.73-.57,1.15-.35.41.22.57.73.35,1.15l-2.02,3.82c-.15.29-.45.45-.75.45Z"/>
        </g>
      </g>
      <g>
        <g>
          <path class="cls-4" d="m138.01,280.19c2.37-4.02,4.73-8.07,7.09-12.1-13.27-13.66-28.48-25.38-44.65-36.14l-7.33,7.62c16.14,12.56,30.86,26.1,44.89,40.62Z"/>
          <path class="cls-4" d="m138.01,281.04c-.23,0-.45-.09-.61-.26-14.88-15.41-29.54-28.67-44.8-40.54-.19-.15-.31-.37-.33-.61-.02-.24.07-.48.23-.65l7.33-7.62c.28-.3.74-.35,1.08-.12,18.2,12.11,32.85,23.97,44.79,36.26.27.27.32.69.12,1.02l-2.63,4.49c-1.49,2.54-2.97,5.08-4.46,7.61-.13.23-.37.38-.63.41-.03,0-.07,0-.1,0Zm-43.63-41.56c14.8,11.57,29.03,24.45,43.46,39.32,1.3-2.21,2.6-4.43,3.9-6.65l2.3-3.93c-11.64-11.91-25.88-23.42-43.47-35.17l-6.19,6.43Z"/>
        </g>
        <g>
          <path class="cls-6" d="m93.12,239.57l-14.2,14.77-.82-.02-32.85-.76-16.51-.38s-24.84,90.93,15.04,99.21c43.8,9.1,69.47-30.13,94.24-72.2-14.03-14.53-28.75-28.07-44.89-40.62Z"/>
          <path class="cls-4" d="m56.22,354.57s0,0,0,0c-4.09,0-8.34-.45-12.63-1.34-6.87-1.43-12.32-5.35-16.18-11.65-16.21-26.46-.19-86.09.5-88.61.1-.38.42-.63.84-.62l49.81,1.15,13.95-14.5c.3-.31.79-.35,1.13-.08,15.33,11.92,30.04,25.24,44.98,40.7.26.27.31.69.12,1.02-23.81,40.46-46.46,73.95-82.52,73.95Zm-26.85-100.52c-1.71,6.61-15.47,62.24-.52,86.64,3.61,5.89,8.68,9.55,15.08,10.88,4.18.87,8.31,1.31,12.28,1.31,35,0,57.3-32.8,80.73-72.55-14.53-15.01-28.86-27.97-43.75-39.61l-13.67,14.22c-.16.17-.4.26-.63.26l-.82-.02-48.7-1.12Z"/>
        </g>
        <g>
          <path class="cls-6" d="m198.93,224.04c3.24-2.78,4.08-7.57,1.78-11.32-.9-1.49-2.19-2.61-3.64-3.32l.3-.16c.66-.34,1.25-.74,1.79-1.2,3.02-2.59,4.01-6.98,2.14-10.7-2.2-4.36-7.52-6.13-11.89-3.92l-27.03,13.6,22.09-13.49c.42-.26.8-.54,1.15-.85,3.24-2.78,4.08-7.57,1.79-11.32-2.55-4.17-8-5.49-12.18-2.94l-31.02,18.93c-1.61.82-4.93,2.5-10.58,5.46-2.79,1.47,9.51-17.09,6.47-27.2-3.25-10.84-12.63-8.15-13.86.84-1.46,10.77-11.54,29.96-13.32,33.33-2.37,4.5-6.66,10.89-8.42,17.95l-4.06,4.22c16.17,10.76,31.38,22.48,44.65,36.14,2.31-3.93,4.62-7.86,6.96-11.73,1.55-1.17,3.13-2.28,4.71-3.31.06,0,.12-.02.17-.03l38.92-9.32c1.06-.25,2-.75,2.77-1.41,1.83-1.57,2.74-4.09,2.14-6.59-.86-3.58-4.44-5.77-8.01-4.91l-7.67,1.84,12.68-7.74c.42-.26.8-.54,1.16-.85Z"/>
          <path class="cls-4" d="m145.1,268.94c-.23,0-.45-.09-.61-.26-11.86-12.2-26.42-23.99-44.51-36.03-.21-.14-.35-.36-.37-.61-.03-.25.06-.5.23-.68l3.91-4.06c1.41-5.51,4.29-10.57,6.62-14.66.67-1.17,1.29-2.27,1.82-3.27,3.54-6.72,11.92-23.41,13.23-33.05.68-5.01,3.95-8.65,7.78-8.65,3.4,0,6.29,2.87,7.74,7.68,2.08,6.91-2.49,17.15-5.23,23.27-.44.99-.89,2-1.21,2.78,3.59-1.88,6.66-3.45,9.35-4.82l30.96-18.9c1.52-.93,3.27-1.42,5.05-1.42,3.41,0,6.51,1.74,8.29,4.65,2.49,4.08,1.67,9.3-1.96,12.41-.37.33-.78.63-1.26.93l-4.43,2.7,8.53-4.29c1.37-.69,2.83-1.04,4.36-1.04,3.69,0,7.01,2.05,8.67,5.34,2.01,4,1.04,8.83-2.35,11.73-.31.26-.62.5-.95.72,1.08.76,1.99,1.73,2.68,2.87,2.49,4.08,1.67,9.3-1.95,12.41-.39.34-.81.64-1.27.93l-8.09,4.94,2.44-.58c.58-.14,1.17-.21,1.76-.21,3.47,0,6.46,2.36,7.27,5.75.66,2.74-.27,5.59-2.42,7.43-.91.78-1.99,1.33-3.12,1.6l-38.92,9.32s-.03,0-.05.01c-1.45.94-2.92,1.98-4.39,3.08-2.46,4.09-4.85,8.14-6.87,11.58-.13.23-.37.38-.63.41-.03,0-.07,0-.1,0Zm-43.34-37.13c17.42,11.65,31.56,23.08,43.17,34.9,1.92-3.26,4.13-7.01,6.4-10.78.06-.09.13-.17.22-.24,1.59-1.2,3.19-2.32,4.76-3.34.1-.07.22-.11.35-.13.02,0,.07-.01.09-.02l38.92-9.32c.88-.21,1.71-.63,2.41-1.23,1.66-1.42,2.38-3.63,1.87-5.74-.63-2.62-2.94-4.45-5.62-4.45-.46,0-.91.05-1.36.16l-7.67,1.84c-.41.1-.82-.12-.98-.5-.16-.39-.01-.83.34-1.05l12.68-7.74c.38-.24.72-.49,1.05-.77,2.99-2.57,3.67-6.87,1.61-10.24-.78-1.3-1.92-2.33-3.29-3-.29-.14-.47-.43-.48-.75,0-.32.18-.62.46-.76l.3-.16c.59-.31,1.12-.66,1.62-1.09,2.79-2.39,3.59-6.37,1.94-9.67-1.37-2.72-4.11-4.4-7.15-4.4-1.25,0-2.46.29-3.59.86l-27.03,13.6c-.41.2-.9.05-1.12-.35-.22-.4-.09-.9.3-1.14l22.09-13.49c.39-.24.73-.49,1.04-.76,3-2.57,3.68-6.88,1.62-10.24-1.47-2.4-4.03-3.84-6.84-3.84-1.47,0-2.91.41-4.16,1.18l-31.02,18.93c-3.06,1.55-6.51,3.33-10.63,5.49-.23.12-.44.18-.65.18h0c-.34,0-.65-.17-.84-.45-.45-.7-.08-1.61,1.59-5.35,2.46-5.52,7.05-15.79,5.15-22.09-1.22-4.05-3.5-6.47-6.11-6.47s-5.45,2.47-6.09,7.18c-1.34,9.91-9.83,26.81-13.41,33.61-.54,1.02-1.17,2.14-1.85,3.32-2.3,4.04-5.17,9.08-6.5,14.45-.04.14-.11.28-.21.38l-3.36,3.49Z"/>
        </g>
        <g>
          <g>
            <path class="cls-4" d="m146.52,208.67c.04.07.06.15.05.23-.02.2-.21.34-.4.32l-5.32-.67c-.2-.02-.34-.21-.32-.41.02-.2.21-.34.4-.32l5.32.67c.12.01.21.08.27.18Z"/>
            <path class="cls-4" d="m146.21,209.64h-.1s-5.32-.67-5.32-.67c-.21-.03-.4-.13-.52-.3-.13-.17-.19-.38-.16-.58.05-.39.38-.69.78-.69h.1s5.33.68,5.33.68c.24.03.46.17.58.38.09.15.13.33.1.5-.05.39-.38.69-.78.69Z"/>
          </g>
          <g>
            <path class="cls-4" d="m142.23,211.19c.04.07.1.12.18.15.19.08.4-.01.47-.2l2-4.98c.08-.19-.02-.4-.2-.47-.19-.08-.4.01-.47.2l-2,4.98c-.04.11-.03.23.02.32Z"/>
            <path class="cls-4" d="m142.55,211.8h0c-.1,0-.2-.02-.3-.06-.16-.06-.3-.18-.38-.33-.13-.21-.14-.47-.05-.7l2-4.98c.16-.39.63-.59,1.03-.44.19.08.35.23.43.42s.09.41,0,.61l-2,4.98c-.12.3-.41.49-.73.49Z"/>
          </g>
        </g>
        <g>
          <g>
            <path class="cls-4" d="m152.17,223.26c.04.07.06.15.05.23-.02.2-.21.34-.4.32l-5.32-.67c-.2-.02-.34-.21-.32-.41.02-.2.21-.34.4-.32l5.32.67c.12.01.21.08.27.18Z"/>
            <path class="cls-4" d="m151.86,224.23h-.1s-5.32-.67-5.32-.67c-.21-.03-.4-.13-.52-.3-.13-.17-.19-.38-.16-.58.05-.39.38-.69.78-.69h.1s5.32.67,5.32.67c.24.03.46.17.58.38.09.15.12.33.1.5-.05.39-.38.69-.78.69Z"/>
          </g>
          <g>
            <path class="cls-4" d="m147.88,225.79c.04.07.1.12.18.15.19.08.4-.01.47-.2l2-4.98c.08-.19-.02-.4-.2-.47-.19-.08-.4.01-.47.2l-2,4.98c-.04.11-.03.23.02.32Z"/>
            <path class="cls-4" d="m148.2,226.39h0c-.1,0-.2-.02-.29-.06-.16-.06-.3-.18-.39-.33-.13-.21-.14-.47-.05-.69l2-4.98c.16-.4.63-.6,1.03-.44.19.08.35.23.43.42.08.19.08.41,0,.61l-2,4.98c-.12.3-.41.49-.73.49Z"/>
          </g>
        </g>
        <g>
          <g>
            <path class="cls-4" d="m159.12,235.5c.04.07.06.15.05.23-.02.2-.21.34-.4.32l-5.32-.67c-.2-.02-.34-.21-.32-.41.02-.2.21-.34.4-.32l5.32.67c.12.01.21.08.27.18Z"/>
            <path class="cls-4" d="m158.81,236.47h-.1s-5.32-.67-5.32-.67c-.21-.02-.39-.13-.52-.3-.13-.17-.19-.38-.16-.59.05-.39.38-.69.78-.69h.1s5.32.67,5.32.67c.24.03.46.17.58.38.09.15.12.33.1.5-.05.39-.38.69-.78.69Z"/>
          </g>
          <g>
            <path class="cls-4" d="m154.83,238.02c.04.07.1.12.18.15.19.08.4-.01.47-.2l2-4.98c.08-.19-.02-.4-.2-.47-.19-.08-.4.01-.47.2l-2,4.98c-.04.11-.03.23.02.32Z"/>
            <path class="cls-4" d="m155.15,238.63h0c-.1,0-.2-.02-.3-.06-.16-.06-.3-.18-.39-.33-.12-.21-.14-.46-.05-.69l2-4.98c.16-.39.63-.59,1.03-.44.19.08.35.23.43.42s.09.41,0,.61l-2,4.98c-.12.3-.41.49-.73.49Z"/>
          </g>
        </g>
        <g>
          <path class="cls-4" d="m130.75,180.79c-1.28-.31-2.71-.72-2.8-.74-.23-.07-.37-.31-.3-.54.07-.23.28-.39.54-.3.03.01,3.11.89,4.21,1.03.44-.67.93-4.97.09-7.07-.21-.53-.47-.82-.76-.79-.25,0-.44-.19-.44-.43,0-.24.19-.44.43-.44.4,0,.97.16,1.4.97,1.08,1.99.79,7.06,0,8.27-.24.37-.53.4-.68.39-.36-.03-1-.17-1.68-.33Z"/>
          <path class="cls-4" d="m132.48,181.55h-.08c-.35-.04-.94-.15-1.75-.35-1.16-.28-2.44-.64-2.81-.74-.23-.07-.42-.21-.53-.41-.11-.2-.14-.43-.08-.65.13-.47.62-.74,1.08-.59.19.06,2.63.74,3.83.96.33-1.05.67-4.65-.05-6.44-.19-.47-.33-.53-.33-.53h0c-.51,0-.89-.37-.89-.85,0-.23.08-.45.24-.61.16-.17.38-.26.61-.26.52,0,1.25.21,1.78,1.19,1.16,2.13.84,7.4-.03,8.71-.33.51-.76.58-.99.58Zm-4.44-1.95c.39.14,1.66.5,2.81.77.96.23,1.41.3,1.62.32v.42s.01-.42.01-.42c.02,0,.04,0,.08-.02l-.22-.03c-1.15-.15-4.28-1.05-4.3-1.05Zm3.67-7.68c.5.02.88.38,1.16,1.09.85,2.11.44,6.61-.13,7.46l-.11.17s.08-.07.12-.14c.73-1.11,1-5.99-.01-7.83-.27-.49-.62-.74-1.03-.74Z"/>
        </g>
        <g>
          <path class="cls-4" d="m197.61,209s.04.05.06.08c.08.17.02.36-.14.44l-26.54,13.4c-.16.09-.36,0-.44-.14-.08-.17-.02-.36.14-.44l26.54-13.4c.13-.07.29-.04.39.06Z"/>
          <path class="cls-4" d="m170.84,223.38c-.27,0-.53-.15-.67-.39-.11-.21-.12-.41-.05-.61.06-.19.2-.34.38-.43l26.54-13.39c.25-.14.65-.09.88.14.06.06.09.12.12.16.11.21.12.42.06.61-.06.19-.2.34-.38.43l-26.54,13.39c-.09.05-.21.08-.33.08Z"/>
        </g>
        <g>
          <path class="cls-4" d="m185.36,231.83s.04.06.07.09c.07.17,0,.36-.16.44l-11.28,5.13c-.18.07-.35,0-.44-.16-.07-.17,0-.36.16-.44l11.28-5.13c.14-.06.28-.03.37.07Z"/>
          <path class="cls-4" d="m173.85,237.94c-.27,0-.52-.15-.67-.39-.19-.42-.02-.87.34-1.04l11.29-5.13c.34-.14.64-.06.85.16.06.06.09.11.11.15.2.44.04.89-.33,1.06l-11.29,5.13c-.11.05-.21.06-.31.06Z"/>
        </g>
        <g>
          <path class="cls-4" d="m186.13,188.82c-.09.07-.2.11-.32.07-.19-.05-.3-.25-.25-.44,1.03-3.79-2.91-6.03-3.81-6.49l-7.12,4.53c-.21,2.72,3.73,6.96,3.77,7.01.14.15.13.37-.01.5h-.01c-.14.14-.36.12-.49-.01-.18-.19-4.38-4.71-3.94-7.75.02-.1.07-.2.16-.25l7.43-4.73c.1-.06.23-.07.34-.02.05.02,5.66,2.65,4.37,7.4-.02.07-.06.13-.11.18Z"/>
          <path class="cls-4" d="m178.14,194.53c-.21,0-.42-.09-.57-.24-.18-.19-4.52-4.81-4.05-8.1.05-.25.18-.45.36-.55l7.42-4.73c.23-.14.52-.16.75-.04.04.01,5.99,2.76,4.59,7.9-.03.14-.12.28-.25.39-.19.17-.47.23-.71.16-.41-.12-.65-.54-.55-.95.87-3.19-2.13-5.21-3.38-5.9l-6.72,4.28c.01,2.52,3.63,6.43,3.66,6.47.3.32.28.81-.03,1.11-.17.15-.35.21-.54.21Z"/>
        </g>
        <g>
          <path class="cls-4" d="m198.41,205.26c-.09.07-.2.11-.32.07-.19-.05-.3-.25-.25-.44,1.03-3.79-2.91-6.03-3.81-6.49l-7.12,4.53c-.21,2.72,3.73,6.96,3.77,7.01.14.15.13.37-.01.5h-.01c-.14.14-.36.12-.49-.01-.18-.19-4.38-4.71-3.94-7.75.02-.1.07-.2.16-.25l7.43-4.73c.1-.06.23-.07.34-.02.05.02,5.66,2.65,4.37,7.4-.02.07-.06.13-.11.18Z"/>
          <path class="cls-4" d="m190.42,210.97c-.21,0-.42-.09-.57-.25-.18-.19-4.53-4.8-4.05-8.1.05-.26.18-.45.36-.56l7.41-4.72c.23-.14.52-.15.76-.04.03.01,5.99,2.76,4.59,7.89-.03.14-.12.28-.24.39-.2.17-.47.23-.72.16-.41-.12-.65-.53-.54-.95.87-3.19-2.13-5.21-3.38-5.9l-6.72,4.28c.01,2.52,3.62,6.43,3.66,6.47.3.32.28.81-.03,1.1-.17.15-.35.21-.54.21Z"/>
        </g>
        <g>
          <path class="cls-4" d="m199.84,222.32c-.09.06-.22.08-.33.03-.18-.08-.26-.29-.18-.47,1.56-3.6-2.02-6.39-2.84-6.97l-7.69,3.47c-.6,2.67,2.69,7.43,2.69,7.43.15.21.11.43-.05.54h-.01c-.16.11-.37.07-.48-.09-.15-.21-3.66-5.29-2.79-8.24.03-.09.1-.19.19-.23l8.03-3.62c.11-.05.24-.04.34.03.05.03,5.22,3.43,3.26,7.95-.03.07-.08.12-.14.16Z"/>
          <path class="cls-4" d="m191.23,226.83c-.25,0-.49-.12-.64-.33-.15-.22-3.79-5.41-2.85-8.6.09-.24.24-.42.44-.5l8.01-3.61c.25-.11.53-.08.75.07.03.02,5.53,3.59,3.41,8.47-.06.14-.16.26-.3.35-.21.14-.49.16-.73.05-.39-.18-.57-.62-.4-1.02,1.31-3.03-1.36-5.46-2.5-6.32l-7.26,3.27c-.28,2.08,1.81,5.65,2.66,6.89.14.19.2.42.16.64-.03.2-.15.37-.31.49-.15.1-.3.14-.45.14Z"/>
        </g>
        <g>
          <path class="cls-4" d="m197.6,242.93c-.09.04-.2.03-.29-.03-.14-.1-.18-.29-.08-.43,1.93-2.84-.69-5.83-1.3-6.47l-7.19,1.72c-.96,2.2,1.1,6.83,1.12,6.88.07.16,0,.34-.15.41h-.01c-.15.07-.33,0-.4-.15-.09-.21-2.28-5.15-1.05-7.55.04-.07.12-.14.2-.16l7.5-1.8c.1-.02.21,0,.29.08.04.03,3.93,3.81,1.5,7.38-.04.05-.09.09-.14.11Z"/>
          <path class="cls-4" d="m189.57,245.47c-.29,0-.55-.17-.67-.43-.1-.21-2.38-5.31-1.04-7.91.12-.21.3-.34.5-.38l7.66-1.81c.19,0,.38.08.52.22.02.02,4.18,4.05,1.55,7.92-.07.12-.19.21-.34.27-.23.09-.49.06-.69-.08-.33-.23-.42-.68-.2-1.01,1.6-2.35-.25-4.83-1.09-5.77l-6.73,1.61c-.57,1.77.68,5.23,1.19,6.34.17.37,0,.81-.37.98-.12.05-.21.07-.3.07Z"/>
        </g>
        <path class="cls-4" d="m46.66,291.06c-.2,0-.4-.07-.57-.22-.35-.31-.38-.85-.06-1.2l32.25-35.87c.31-.35.85-.38,1.2-.06.35.31.38.85.06,1.2l-32.25,35.87c-.17.19-.4.28-.63.28Z"/>
        <path class="cls-4" d="m53.95,346.66c-2.86,0-6.1-.82-8.8-2.06-5.5-2.53-8.86-6.64-8.96-10.98-.01-.47.36-.86.83-.87.46,0,.86.36.87.83.09,3.68,3.07,7.23,7.98,9.48,4.85,2.23,10.17,2.56,12.37.76.94-.77,1.23-1.88.88-3.4-.81-3.49-9.05-9.3-13.56-8.74-.97.12-2.26.57-2.21,3.1.02,1.17.71,2.37,1.85,3.22.96.72,2.2,1.2,3.91,1.54,1.56.3,3.6.21,4.19-1.06.12-.25.12-.59.02-.83-.05-.12-.12-.19-.2-.22-.45-.14-.69-.62-.55-1.07.14-.45.62-.7,1.07-.55.55.18.99.59,1.24,1.16.3.69.29,1.55-.04,2.23-1.01,2.15-3.79,2.44-6.05,2-1.97-.38-3.43-.97-4.6-1.84-1.55-1.16-2.5-2.86-2.53-4.54-.07-3.78,2.28-4.64,3.69-4.82,4.99-.63,14.36,5.47,15.42,10.04.63,2.72-.44,4.28-1.46,5.1-1.31,1.07-3.22,1.52-5.35,1.52Z"/>
        <g>
          <polygon class="cls-4" points="78.1 254.32 66.04 267.94 42.03 254.05 45.24 253.57 78.1 254.32"/>
          <path class="cls-4" d="m66.04,268.79c-.15,0-.29-.04-.42-.11l-24.01-13.88c-.31-.18-.48-.54-.41-.89.07-.35.35-.63.71-.68l3.21-.49s.1-.01.15,0l32.85.76c.33,0,.63.21.76.51.13.3.08.65-.14.9l-12.05,13.61c-.17.19-.4.29-.64.29Zm-21.49-14.26l21.31,12.33,10.38-11.73-30.95-.71-.74.11Z"/>
        </g>
        <g>
          <g>
            <path class="cls-6" d="m124.66,265.08c-4.76,1.38-9.74-1.35-11.13-6.11-1.38-4.76,1.35-9.74,6.11-11.13,4.76-1.38,9.74,1.35,11.13,6.11,1.38,4.76-1.35,9.74-6.11,11.13Z"/>
            <path class="cls-4" d="m122.15,266.28c-4.34,0-8.22-2.91-9.43-7.09-1.51-5.2,1.49-10.67,6.69-12.18.9-.26,1.82-.39,2.75-.39,4.34,0,8.22,2.91,9.43,7.09,1.51,5.2-1.49,10.67-6.69,12.18-.9.26-1.82.39-2.75.39Zm0-17.96c-.77,0-1.53.11-2.27.33-4.3,1.25-6.79,5.77-5.54,10.07,1,3.45,4.21,5.86,7.8,5.86.77,0,1.53-.11,2.27-.32,4.3-1.25,6.79-5.77,5.54-10.07-1-3.45-4.21-5.86-7.8-5.86Z"/>
          </g>
          <g>
            <polyline class="cls-6" points="118.97 256.58 124.52 256.25 122.92 260.75"/>
            <path class="cls-4" d="m122.92,261.6c-.09,0-.19-.02-.28-.05-.44-.16-.67-.64-.52-1.08l1.17-3.29-4.27.25c-.46.03-.87-.33-.9-.8-.03-.47.33-.87.8-.9l5.55-.32c.29-.02.56.11.73.34.17.23.22.53.12.79l-1.6,4.49c-.12.35-.45.56-.8.56Z"/>
          </g>
        </g>
      </g>
      <g>
        <line class="cls-6" x1="261.75" y1="255.54" x2="260.33" y2="220.74"/>
        <path class="cls-4" d="m261.75,256.39c-.45,0-.83-.36-.85-.81l-1.41-34.8c-.02-.47.35-.86.81-.88.46-.05.86.34.88.81l1.41,34.8c.02.47-.35.86-.81.88-.01,0-.02,0-.03,0Z"/>
      </g>
      <g>
        <line class="cls-6" x1="78.84" y1="254.05" x2="77.97" y2="228.88"/>
        <path class="cls-4" d="m78.84,254.9c-.46,0-.83-.36-.85-.82l-.87-25.17c-.02-.47.35-.86.82-.88.46-.05.86.35.88.82l.87,25.17c.02.47-.35.86-.82.88,0,0-.02,0-.03,0Z"/>
      </g>
      <g>
        <line class="cls-6" x1="69.94" y1="233.44" x2="78.41" y2="242.12"/>
        <path class="cls-4" d="m78.41,242.97c-.22,0-.44-.09-.61-.26l-8.46-8.68c-.33-.34-.32-.87.01-1.2.34-.33.87-.32,1.2.02l8.46,8.68c.33.34.32.87-.02,1.2-.16.16-.38.24-.59.24Z"/>
      </g>
      <g>
        <line class="cls-6" x1="63.73" y1="149.77" x2="75.44" y2="173.2"/>
        <path class="cls-4" d="m75.44,174.05c-.31,0-.61-.17-.76-.47l-11.71-23.43c-.21-.42-.04-.93.38-1.14.42-.21.93-.04,1.14.38l11.71,23.43c.21.42.04.93-.38,1.14-.12.06-.25.09-.38.09Z"/>
      </g>
      <g>
        <line class="cls-6" x1="268.95" y1="144.13" x2="257.24" y2="171.47"/>
        <path class="cls-4" d="m257.24,172.32c-.11,0-.22-.02-.33-.07-.43-.18-.63-.68-.45-1.11l11.71-27.33c.18-.43.68-.63,1.11-.45.43.18.63.68.45,1.11l-11.71,27.33c-.14.32-.45.51-.78.51Z"/>
      </g>
      <g>
        <g>
          <path class="cls-6" d="m448.86,190.95c-.21.16-.08.72-.08.72,0,0,1.02,2.47-.79,7.57-1.52,4.3-7.39,10.49-9.19,12.32h0c-.33.34-.52.53-.52.53,0,0-.05.07-.14.19-.83,1.04-4.96,6.16-7.34,8.7,0,0-.13.19-.37.52-.18.25-.43.59-.74.98-3.13,4.07-12.41,14.98-21.75,14.9-5.58-.05-12.64-1.38-18.9-3.07-14.47,29.87-59.47,91.27-95.73,86.67-14.34-1.82-24.62-12.75-31.93-26.31l-.08-40.91s26.71,1.76,51.94-1.22l.08.34.3-.38,7.79-10.16,35.26-45.99,8.28-13.02.02-.03,2.47-3.46s5.9-6.82,12.78-8.11c6.88-1.29,17.7.22,20.73-.75,3.01-.96,13.91-7.29,17.17-7.14,3.27.16,7.96,2.48,4.74,8.89-3.22,6.42-14.49,13.09-14.49,13.09,0,0,17.82,2.22,21.01,1.45,3.18-.76,13.95-11.31,19.49-8.55,5.55,2.77,2.65,10.19,0,12.22Z"/>
          <path class="cls-4" d="m297.22,322.41c-1.36,0-2.71-.25-4.03-.42-12.94-1.65-23.89-10.73-32.57-26.83-.07-.12-.1-.3-.1-.44l-.08-40.93c0-.24.1-.47.27-.63.17-.16.4-.24.64-.23.08,0,7.93.51,18.94.51,12.07,0,23.11-.58,32.84-1.73,0,0,.01,0,.02,0l42.83-55.86,8.24-12.96,2.51-3.53c.3-.35,6.22-7.12,13.32-8.45,2.06-.39,4.61-.57,8.03-.57,1.69,0,3.34.04,4.95.08,1.39.03,2.69.07,3.85.07,1.22,0,2.94-.03,3.8-.31,1.01-.32,3.11-1.36,5.35-2.46,4.49-2.21,9.58-4.72,11.96-4.72h.16c2.04.1,4.67.98,5.93,3.13,1.09,1.86.93,4.21-.46,6.99-2.47,4.92-9.31,9.87-12.77,12.15,4.01.46,12.1,1.32,16.28,1.32,1.23,0,1.79-.07,2.05-.14.86-.21,2.7-1.48,4.65-2.83,3.98-2.76,8.94-6.2,12.93-6.2.92,0,1.76.19,2.49.55,2.13,1.06,3.37,2.85,3.6,5.17.31,3.21-1.39,6.72-3.23,8.3h0c.18.53.92,3.22-.81,8.09-1.53,4.33-7.07,10.28-9.39,12.63l-.61.64c-1.48,1.84-5.13,6.34-7.35,8.71-.06.08-.18.25-.35.49-.16.24-.42.65-.72,1.05-3.55,4.61-12.77,15.35-22.34,15.35h-.1c-6.55,0-14.11-1.7-18.44-2.84-15.04,30.62-57.01,86.84-92.26,86.84h0Zm-35-27.96c8.39,15.48,18.88,24.14,31.19,25.7,1.24.16,2.53.25,3.82.25h0c19.35,0,39.7-17.63,53.37-32.4,17.81-19.25,31.43-41.16,37.68-54.05.18-.37.59-.63.99-.52,7.07,1.92,13.71,2.97,18.69,2.97h.09c9.07,0,18.35-11.09,20.97-14.51.31-.4.55-.68.72-.92.24-.33.36-.49.37-.49.02-.04.05-.06.08-.09,2.17-2.31,5.83-6.82,7.3-8.65l.13-.17s.05-.06.07-.08l.52-.52c1.75-1.78,7.54-7.89,9-12.01,1.65-4.66.81-6.95.8-6.97-.01-.03-.03-.08-.04-.11-.08-.33-.2-1.15.39-1.6,1.52-1.18,3.05-4.33,2.79-6.97-.17-1.74-1.07-3.02-2.67-3.82-.5-.25-1.07-.37-1.73-.37-3.46,0-8.37,3.41-11.96,5.9-2.26,1.57-4.05,2.81-5.22,3.09-.52.12-1.32.18-2.45.18-5.77,0-18.33-1.55-18.86-1.62-.36-.04-.65-.31-.73-.67s.09-.72.4-.9c.11-.07,11.09-6.62,14.16-12.74,1.12-2.23,1.29-3.68.51-5.02-.91-1.57-3.02-1.93-4.54-1.93h0c-2.06,0-7.39,2.27-11.29,4.19-2.39,1.18-4.46,2.02-5.58,2.38-.84.27-2.13.3-4.31.3-1.17,0-2.49-.08-3.9-.11-1.59-.04-3.24-.1-4.9-.1-3.31,0-5.76.16-7.72.53-6.5,1.22-12.24,7.76-12.3,7.82l-2.42,3.4-8.28,13.01-43.39,56.59c-.2.26-.53.38-.86.31-.17-.04-.32-.13-.44-.25-9.63,1.11-20.53,1.67-32.4,1.67-8.91,0-15.77-.33-18.14-.46l.07,39.79Z"/>
        </g>
        <g>
          <g>
            <path class="cls-4" d="m427.33,211.57c-3.3-1.23-8.1,2.21-11.13,6.25-.64.86-1.15,1.57-1.55,2.16-1.56-1.13-8.77-2.98-9.64-3.19-.13-.03-.26.05-.3.18-.03.13.05.26.18.3,3.29.83,8.58,2.37,9.49,3.12-1.17,1.77-1.27,2.28-1.28,2.35-.01.13.08.25.22.27.13.01.25-.08.27-.22,0-.03.19-.93,3-4.67,2.85-3.8,7.53-7.22,10.57-6.08,3.28,1.23,4.18,4.89,2.52,10.31-.04.13.03.27.16.3.07.02.14.01.2-.03.05-.03.09-.08.1-.14,1.75-5.71.75-9.58-2.81-10.91Z"/>
            <path class="cls-2" d="m413.34,223.42s-.06,0-.07,0c-.17-.02-.33-.1-.45-.24-.11-.14-.17-.31-.15-.49.02-.21.2-.77,1.11-2.18-1.3-.68-5.39-1.93-9.01-2.84-.36-.09-.57-.45-.48-.81.08-.3.34-.51.65-.51.03,0,.13.01.16.02.78.2,7.26,1.84,9.42,3.03.4-.57.84-1.18,1.33-1.84,2.49-3.32,6.55-6.67,10-6.67.58,0,1.12.09,1.62.28,3.8,1.42,4.89,5.48,3.07,11.43-.05.15-.15.28-.28.37-.11.07-.23.1-.36.1h0s-.16-.02-.2-.03c-.35-.11-.55-.48-.44-.83,1.59-5.18.78-8.65-2.26-9.79-.35-.13-.73-.19-1.14-.19-2.98,0-6.72,3.18-8.94,6.13-2.66,3.54-2.92,4.47-2.93,4.51-.03.29-.31.55-.66.55Z"/>
          </g>
          <g>
            <path class="cls-4" d="m438.61,199.14c-5.46-2.65-10.26,1.32-11.61,3.54-1.33,2.18-6.99,6.77-7.8,7.42-1.75-.49-6.86-1.89-7.49-1.72-.13.04-.2.17-.17.3.04.13.17.2.3.17.42-.09,4.1.84,7.34,1.75.08.02.16,0,.22-.04.27-.21,6.54-5.22,8.01-7.62,1.28-2.1,5.83-5.86,10.98-3.35.87.42,1.47,1.12,1.79,2.08,1.24,3.75-2.1,10.26-2.13,10.32-.06.12-.02.27.1.33.08.04.17.03.24,0,.04-.02.07-.05.09-.09.14-.27,3.47-6.76,2.16-10.7-.36-1.09-1.05-1.89-2.04-2.37Z"/>
            <path class="cls-2" d="m438.27,212.76c-.11,0-.21-.03-.31-.08-.16-.08-.27-.22-.33-.39-.05-.17-.04-.35.04-.51.03-.07,3.28-6.46,2.1-10-.28-.85-.81-1.47-1.57-1.84-1.08-.52-2.19-.79-3.31-.79-3.42,0-6.18,2.44-7.12,3.98-1.47,2.41-7.44,7.2-8.11,7.74-.12.09-.26.15-.41.15-.04,0-.15-.02-.18-.03-3.46-.97-6.61-1.74-7.15-1.74-.02,0-.08.01-.14.01-.3,0-.56-.2-.64-.48-.1-.35.1-.72.46-.82.08-.02.17-.03.28-.03,1.07,0,5.26,1.14,7.24,1.69,1.15-.93,6.31-5.16,7.54-7.17,1.09-1.79,4.3-4.62,8.27-4.62,1.32,0,2.63.31,3.89.92,1.1.53,1.86,1.41,2.26,2.62,1.36,4.11-2.04,10.75-2.19,11.03-.06.11-.14.2-.24.26-.11.07-.23.1-.35.1Z"/>
          </g>
          <g>
            <path class="cls-4" d="m448.3,190.97c-1.07-1.39-3.21-2.32-5.58-2.44-2.95-.15-5.77.95-7.74,3.02-3.64,3.83-6.08,5.29-6.52,5.54l-8.6-1.74c-.13-.03-.26.06-.29.19-.03.13.06.26.19.29l8.69,1.75c.05.01.11,0,.16-.02.11-.05,2.65-1.38,6.73-5.68,1.87-1.97,4.55-3.01,7.36-2.87,2.23.11,4.24.98,5.22,2.25.08.1.22.12.32.06,0,0,.01,0,.02-.01.11-.08.13-.24.04-.34Z"/>
            <path class="cls-2" d="m428.5,198.01s-.11,0-.14-.01l-8.69-1.75c-.17-.03-.32-.13-.42-.28-.1-.15-.14-.33-.1-.5.06-.31.34-.54.65-.54.03,0,.1,0,.13.01l8.45,1.7c.68-.4,2.98-1.9,6.29-5.38,2.03-2.14,4.99-3.32,8.07-3.15,2.49.13,4.75,1.13,5.9,2.61.11.14.16.32.13.49-.02.18-.11.33-.25.44-.43.28-.73.14-.94-.12-.91-1.18-2.79-1.98-4.91-2.09-2.68-.14-5.26.88-7.03,2.74-4.03,4.24-6.57,5.62-6.84,5.76-.1.05-.2.07-.31.07Z"/>
          </g>
          <g>
            <path class="cls-4" d="m379.38,209.12c-5.65.02-10.28,1.15-10.33,1.16-.13.03-.21.16-.18.29.03.13.16.21.29.18.18-.05,18.31-4.4,26.9,4.34.08.08.21.1.3.04.02,0,.03-.02.04-.03.1-.09.1-.25,0-.34-4.6-4.68-11.81-5.64-17.04-5.62Z"/>
            <path class="cls-2" d="m396.25,215.58c-.18,0-.35-.07-.48-.2-4.34-4.41-11.25-5.33-16.29-5.33-5.62,0-10.17,1.1-10.21,1.11-.03,0-.13.02-.16.02-.31,0-.57-.21-.65-.51-.04-.17-.02-.35.08-.51.09-.15.24-.4.41-.44.04-.01,4.73-1.31,10.43-1.31h.12c5.28,0,12.55,1.14,17.22,5.89.26.26.25.76,0,1.01-.02.02-.09.11-.12.13-.1.06-.22.13-.35.13Z"/>
          </g>
        </g>
      </g>
      <g>
        <path class="cls-9" d="m385.3,350.84h-98.22c-4.12,0-7.39-3.32-7.39-7.39v-50.8c0-4.12,3.32-7.39,7.39-7.39h98.22c4.12,0,7.39,3.32,7.39,7.39v50.8c.05,4.07-3.27,7.39-7.39,7.39Z"/>
        <rect class="cls-7" x="292.12" y="333.03" width="17.8" height="11.7"/>
        <rect class="cls-7" x="317.49" y="323.43" width="17.8" height="21.11"/>
        <rect class="cls-7" x="341.95" y="310.91" width="17.8" height="33.63"/>
        <rect class="cls-7" x="366.45" y="298.16" width="17.8" height="46.38"/>
        <path class="cls-7" d="m290.14,328.85c-.92,0-1.8-.52-2.21-1.41-.56-1.22-.03-2.66,1.19-3.22l60.3-27.76c1.22-.56,2.66-.03,3.22,1.19.56,1.22.03,2.66-1.19,3.22l-60.3,27.76c-.33.15-.67.22-1.01.22Z"/>
        <path class="cls-7" d="m350.82,308.04c-.31,0-.63-.06-.94-.19-1.24-.52-1.82-1.94-1.3-3.18l2.59-6.17-6.53-1.27c-1.32-.26-2.17-1.53-1.92-2.85.26-1.32,1.53-2.17,2.85-1.92l9.46,1.85c.72.14,1.33.6,1.68,1.24.34.64.38,1.41.1,2.08l-3.75,8.92c-.39.93-1.29,1.49-2.24,1.49Z"/>
      </g>
      <g>
        <line class="cls-6" x1="313.23" y1="252.54" x2="297.82" y2="268.7"/>
        <path class="cls-4" d="m297.82,269.55c-.21,0-.42-.08-.59-.23-.34-.32-.35-.86-.03-1.2l15.4-16.16c.32-.34.86-.35,1.2-.03.34.32.35.86.03,1.2l-15.41,16.16c-.17.17-.39.26-.61.26Z"/>
      </g>
    </g>
  </g>
</svg>