<?xml version="1.0" encoding="UTF-8"?>
<svg id="_레이어_2" data-name="레이어 2" xmlns="http://www.w3.org/2000/svg" viewBox="0 0 363.21 367.4">
  <defs>
    <style>
      .cls-1 {
        fill: #f2cf63;
      }

      .cls-1, .cls-2, .cls-3, .cls-4, .cls-5, .cls-6, .cls-7, .cls-8, .cls-9, .cls-10, .cls-11 {
        stroke-width: 0px;
      }

      .cls-2 {
        fill: #a2bff9;
      }

      .cls-3 {
        fill: #2b2b2b;
      }

      .cls-4 {
        fill: #333;
      }

      .cls-12 {
        opacity: .23;
      }

      .cls-5 {
        fill: #fff;
      }

      .cls-6 {
        fill: #e50513;
      }

      .cls-7 {
        fill: #4a253f;
      }

      .cls-8 {
        fill: #fc5e71;
      }

      .cls-9 {
        fill: #f2c9cc;
      }

      .cls-10 {
        fill: #ccd7f2;
      }

      .cls-11 {
        fill: #f29199;
      }
    </style>
  </defs>
  <g id="_迹_1" data-name="卵迹_1">
    <g>
      <path class="cls-9" d="m135.97,11.23c-6.93-.43-13.85-.3-20.74.71-13.17,1.94-26.36,7.8-35.55,17.61-11.82,12.63-8.37,31.76-23.13,42.73-6.96,5.17-15.55,7.54-23.31,11.41C1.03,99.73.9,139.49,15.12,168.34c6.17,12.52,13.32,26,15.03,40.39,1.9,16-5.69,31.46,1.5,47.02,7.21,15.6,22.27,27.9,39.55,30.03,11.68,1.43,23.57-1.25,35.25.18,33.4,4.1,55.81,39.83,89.01,45.28,17.82,2.92,36.95-4.15,48.58-17.96,8.56-10.17,13.2-23.51,23.14-32.34,9.82-8.72,22.15-10.45,34.16-14.45,12.53-4.17,24.81-9.87,34.47-19.06,11.26-10.71,18.24-25.79,19.25-41.3,1.01-15.51-3.92-31.32-13.46-43.59-10.61-13.65-29.94-19.79-38.31-34.39-8.26-14.41-6.82-32.1-5.39-48,1.7-18.93,1.94-40.78-12.18-53.5-8.6-7.75-20.82-10.17-32.4-10.15-12.88.02-24.91,3.69-37.63,4.47-13.78.85-27.56-1.33-41.07-3.84-12.79-2.38-25.74-5.09-38.67-5.88Z"/>
      <path class="cls-5" d="m58.87,137.6c-1.1,2.85-3.8,4.81-5.07,7.6-1.26,2.78-.94,5.98-.58,9.01.58.09,1.15.19,1.73.28-.8-3,1.28-6.09,3.87-7.81,2.59-1.72,5.67-2.52,8.41-3.97,5.14-2.73,8.92-7.88,10-13.6,1.08-5.72-.57-11.89-4.36-16.3-4.02-4.69-10.09-7.28-14.01-12.06-5.91-7.21-5.56-17.93-1.97-26.53,2.61-6.25,6.78-12.07,7.32-18.82.16-1.99-.07-4.15-1.34-5.7-1.73-2.11-4.78-2.44-7.51-2.48-3.35-.04-6.74.13-9.96,1.05-6.15,1.75-11.19,6.03-16.41,9.72-6.25,4.43-13.07,8.19-18.44,13.66C4.24,78.09.22,86.97.54,95.98c.32,9.01,5.32,17.94,13.31,22.1,9.89,5.16,21.96,2.56,32.86,4.91,3.53.76,7.06,2.12,9.59,4.69,2.54,2.57,3.87,6.55,2.57,9.92Z"/>
      <path class="cls-4" d="m37.02,153.72l6.36-2.02-6.36-2.17c-1.9-.5-3.36-2.03-3.77-3.96l-2.02-9.55-2.17,9.34c-.46,1.97-2.01,3.5-3.99,3.91l-5.99,2.06,5.78,2.04c2.02.47,3.57,2.1,3.94,4.14l1.67,9.24,2.43-9.25c.51-1.96,2.12-3.44,4.11-3.8Z"/>
      <path class="cls-4" d="m329.28,218.58l6.36-2.02-6.36-2.17c-1.9-.5-3.36-2.03-3.77-3.96l-2.02-9.55-2.17,9.34c-.46,1.97-2.01,3.5-3.99,3.91l-5.99,2.06,5.78,2.04c2.02.47,3.57,2.1,3.94,4.14l1.67,9.24,2.43-9.25c.51-1.96,2.12-3.44,4.11-3.8Z"/>
      <path class="cls-4" d="m252.07,18.71l4.58-1.45-4.58-1.56c-1.37-.36-2.42-1.46-2.71-2.85l-1.45-6.88-1.56,6.73c-.33,1.42-1.45,2.52-2.88,2.82l-4.31,1.48,4.16,1.47c1.46.34,2.58,1.51,2.84,2.98l1.2,6.66,1.75-6.66c.37-1.41,1.52-2.48,2.96-2.73Z"/>
      <g>
        <g>
          <path class="cls-5" d="m252.83,93.39l27.08-7.36c3.96,3.46,8.65,6.24,13.99,8.08,22.82,7.87,48.62-4.22,57.61-27,9-22.79-2.21-47.64-25.04-55.51-22.82-7.87-48.62,4.22-57.61,27-3.71,9.4-3.98,19.15-1.41,27.92l-14.63,26.87Z"/>
          <path class="cls-3" d="m308.3,97.37c-5.02,0-9.95-.82-14.67-2.45-5.16-1.78-9.84-4.45-13.93-7.95l-26.64,7.24c-.33.09-.68-.03-.89-.29-.21-.27-.24-.63-.08-.93l14.46-26.56c-2.62-9.23-2.09-18.95,1.53-28.13,7.07-17.91,24.76-29.94,44.01-29.94,5.02,0,9.95.82,14.67,2.45,11.15,3.84,19.96,11.77,24.81,22.32,4.96,10.77,5.22,22.95.74,34.3-7.07,17.91-24.76,29.94-44.01,29.94Zm-28.38-12.18c.2,0,.4.07.56.21,4,3.5,8.62,6.16,13.71,7.92,4.54,1.56,9.29,2.36,14.11,2.36,18.56,0,35.62-11.6,42.43-28.87,4.31-10.92,4.06-22.62-.7-32.97-4.66-10.13-13.12-17.74-23.83-21.43-4.54-1.56-9.28-2.36-14.11-2.36-18.56,0-35.62,11.6-42.43,28.87-3.53,8.94-4.01,18.41-1.38,27.37.06.22.04.45-.07.64l-13.67,25.12,25.16-6.84c.07-.02.15-.03.22-.03Z"/>
        </g>
        <ellipse class="cls-4" cx="290.63" cy="53.24" rx="7.06" ry="6.6"/>
        <ellipse class="cls-4" cx="311.8" cy="53.24" rx="7.06" ry="6.6"/>
        <ellipse class="cls-4" cx="332.97" cy="53.24" rx="7.06" ry="6.6"/>
      </g>
      <g>
        <path class="cls-4" d="m90.43,153.24c.67,1.1,1.37,2.22,2.43,2.96,1.1.77,2.47,1.02,3.79,1.22,23.19,3.55,46.66-2.79,70.1-3.52,12.88-.4,25.76.91,38.65.72,13.22-.19,26.37-1.95,39.48-3.71,1.67-6.4,3.34-12.79,5.01-19.19.76-2.93,1.52-6.08.46-8.91-1.45-3.89-5.88-5.98-7.57-9.77-1.97-4.43.36-9.59-.23-14.4-.64-5.23-4.65-9.48-5.86-14.61-1.23-5.18.47-10.86-1.46-15.81-1.23-3.15-3.81-5.64-4.96-8.82-.86-2.39-.84-4.98-1.01-7.52-.41-6.28-1.99-12.42-3.57-18.51-1.18-4.57-2.38-9.2-4.67-13.33-5.84-10.56-17.91-16.27-29.8-18.31-5.9-1.01-11.91-1.29-17.89-1.56-4.43-.2-8.92-.4-13.27.5-8.18,1.7-15.39,7.5-18.81,15.12-1.92,4.28-2.79,9.2-6.02,12.6-1.92,2.02-4.61,3.42-5.83,5.92-1.49,3.04-.36,6.75-1.36,9.98-2.18,7.08-13.28,9.03-14.14,16.39-.48,4.12,2.7,7.87,2.82,12.02.15,5.29-4.5,9.29-8.58,12.65-1.61,1.33-3.25,2.75-4.09,4.66-1.23,2.79-.54,6.03-1.17,9.01-1.38,6.52-8.64,10.45-10.31,16.9-.96,3.72.1,7.72-.76,11.47-1.07,4.66-4.98,8.38-5.63,13.12-.62,4.52,1.86,8.83,4.24,12.73Z"/>
        <g>
          <path class="cls-1" d="m217.43,94.97c-5.44,0-9.86-4.43-9.86-9.87s4.43-9.86,9.86-9.86,9.87,4.43,9.87,9.86-4.43,9.87-9.87,9.87Zm0-18.03c-4.5,0-8.17,3.66-8.17,8.17s3.66,8.17,8.17,8.17,8.17-3.66,8.17-8.17-3.66-8.17-8.17-8.17Z"/>
          <path class="cls-1" d="m210.51,91.74c-.27,0-.53-.12-.69-.35-.27-.38-.18-.91.2-1.18l6.92-4.95c.28-.2.64-.21.93-.04l6.61,3.93c.4.24.54.76.3,1.16-.24.4-.76.54-1.16.3l-6.13-3.65-6.47,4.63c-.15.11-.32.16-.49.16Z"/>
          <path class="cls-1" d="m218.23,95.17c-.47,0-1-.38-1-.85v-17.82c0-.47.53-.85,1-.85s1,.38,1,.85v17.82c0,.47-.53.85-1,.85Z"/>
        </g>
        <g>
          <path class="cls-2" d="m231.23,366.22h38.26c-.38-19.17-1.38-39.39-3.77-48.69-5.23-20.29-21.86-46.37-21.86-46.37l-109.05,1.77s-18.79,21.05-29.22,41.77c-13.3,26.43-6.65,40.59-6.65,40.59l-.69,10.04c14.51.75,29.05.52,43.58.33,16.18-.21,32.34.13,48.53.27,13.05.11,26.11.16,39.15.62.5-.21,1.07-.33,1.72-.33Z"/>
          <path class="cls-4" d="m229.66,367.4h-.18c-11.36-.41-22.92-.5-34.11-.59l-5.02-.04c-4.43-.04-8.87-.09-13.3-.14-7.95-.09-16.17-.19-24.26-.19-3.91,0-7.49.02-10.95.07l-1.27.02c-6.28.08-12.78.17-19.18.17-8.91,0-16.28-.17-23.19-.52l-.86-.04.74-10.69c-.81-1.94-5.87-16.04,6.75-41.12,10.36-20.59,29.16-41.74,29.35-41.95l.25-.28h.37s109.52-1.78,109.52-1.78l.25.4c.17.26,16.76,26.42,21.96,46.62,2.04,7.9,3.31,24.35,3.8,48.89l.02.87h-39.13c-.51,0-.98.09-1.4.26l-.17.07Zm-76.86-2.66c8.1,0,16.32.1,24.28.19,4.43.05,8.86.11,13.29.14l5.01.04c11.14.09,22.65.18,33.98.58.58-.21,1.21-.32,1.87-.32h37.39c-.49-23.93-1.75-39.95-3.73-47.63-4.78-18.57-19.4-42.36-21.5-45.73l-108.19,1.76c-2.24,2.55-19.23,22.2-28.85,41.31-12.97,25.76-6.71,39.71-6.64,39.85l.09.2-.65,9.39c6.64.32,13.74.48,22.24.48,6.38,0,12.87-.09,19.15-.17l1.27-.02c3.47-.05,7.06-.07,10.98-.07Z"/>
        </g>
        <path class="cls-4" d="m134.74,365.33h-.01c-.47,0-.84-.39-.84-.86.02-1.33.07-2.66.12-4.01.12-3.27.23-6.64-.05-9.88-.86-9.88-.12-20.18,2.21-30.6,2.31-10.33,6.09-20.66,11.24-30.69.21-.42.73-.58,1.14-.37.42.21.58.73.37,1.14-5.08,9.9-8.81,20.09-11.09,30.29-2.29,10.25-3.02,20.37-2.17,30.08.29,3.34.17,6.77.05,10.09-.05,1.33-.09,2.66-.11,3.97,0,.46-.39.84-.85.84Z"/>
        <g>
          <line class="cls-8" x1="253.43" y1="284.31" x2="154.43" y2="283.88"/>
          <path class="cls-4" d="m253.43,284.7h0l-99.01-.2c-.47,0-.85-.93-.85-1.4,0-.47.38-1.39.85-1.39h0l99.01,1.1c.47,0,.85.49.85.95,0,.47-.38.95-.85.95Z"/>
        </g>
        <path class="cls-4" d="m227.23,285.3c-.47,0-1-.38-1-.85v-12.73c0-.47.53-.85,1-.85s1,.38,1,.85v12.73c0,.47-.53.85-1,.85Z"/>
        <path class="cls-4" d="m216.23,366.78c-.47,0-1-.38-1-.85v-80.63c0-.47.53-.85,1-.85s1,.38,1,.85v80.63c0,.47-.53.85-1,.85Z"/>
        <g>
          <polyline class="cls-2" points="230.74 285.18 230.95 336.84 216.25 358.68 229.22 358.24"/>
          <path class="cls-4" d="m216.25,358.7c-.31,0-.59.24-.74-.03-.15-.28-.14-.42.04-.68l14.55-21.51-.22-51.67c0-.47.38-1.11.85-1.11h0c.47,0,.85.69.85,1.16l.22,51.82c0,.17-.05.41-.14.56l-13.77,20.49,11.31-.36c.45-.05.86.36.88.83.02.47-.35.46-.82.47l-12.97.03h-.03Z"/>
        </g>
        <path class="cls-4" d="m250.34,228.68s20.18,7.79,32.39-9.2l-24.78-4.6-7.61,13.8Z"/>
        <g>
          <path class="cls-8" d="m289.97,203.25l6.41-5.69c-5.31-9.31-24.3-46.51-26.8-49.94-6.73-9.21-18.53-20.65-28.67-22.07-10.15-1.41-38.94-13.8-43.19-14.39,0,0-29.39.52-39.29,1.06-10.9.6-58.92,23.48-61.51,25.09-18.16,11.24-9.4,31.78-19.02,51.23-9.73,19.67-11.46,43.67-11.46,43.67l59.07,9.56s7.08,10.63,8.85,18.77c1.76,8.14,8.84,12.39,8.84,12.39l108.32-1.77c.98-.7,1.75-1.55,2.33-2.5,3.88-6.22.25-16.82.85-20.51.71-4.25,5.11-23.57,5.11-23.57,0,0,16.66,3.96,20.02-2.27,7.61-14.09,10.13-19.06,10.13-19.06Z"/>
          <path class="cls-4" d="m143.2,273.7c-.15,0-.31,0-.44-.08-.3-.18-7.41-4.52-9.23-12.92-1.55-7.13-7.37-16.37-8.53-18.16l-58.7-9.49c-.43-.07-.74-.46-.71-.9.02-.24,1.85-24.39,11.54-43.98,3.76-7.61,4.66-15.33,5.53-22.8,1.3-11.21,2.53-21.79,13.81-28.77,2.99-1.85,50.77-24.6,61.91-25.21,9.8-.54,39.02-1.06,39.32-1.07.04,0,.09,0,.13,0,1.76.25,7.12,2.26,13.91,4.82,10.34,3.89,23.2,8.73,29.28,9.57,9.89,1.38,21.81,12.25,29.24,22.41,1.45,1.98,7.84,14.15,14.6,27.03,5.11,9.74,9.94,18.93,12.25,22.98.2.35.13.79-.17,1.06l-6.29,5.59c-.47.92-3.23,6.28-10.07,18.94-1.42,2.62-4.91,3.95-10.37,3.95,0,0,0,0,0,0-4.05,0-8.07-.73-9.76-1.08-.85,3.73-4.3,19.03-4.91,22.71-.17,1.07.07,2.96.35,5.14.62,4.74,1.46,11.22-1.32,15.68-.66,1.07-1.52,1.99-2.56,2.74-.14.1-.31.12-.48.12l-108.32,1.74h-.01Zm-75.85-42.2l58.29,9.43c.23.04.44.17.57.37.29.44,7.19,10.85,8.97,19.06,1.51,6.95,7.13,10.98,8.25,11.72l107.79-1.77c.76-.58,1.4-1.29,1.9-2.1,2.47-3.95,1.67-10.08,1.08-14.56-.3-2.32-.56-4.32-.35-5.64.71-4.23,4.94-22.84,5.12-23.63.05-.22.19-.41.38-.53.19-.12.42-.16.64-.11.05.01,5.19,1.22,10.21,1.22,3.29,0,7.51-.53,8.87-3.06,7.51-13.91,10.09-18.99,10.12-19.04.05-.1.11-.18.19-.25l5.9-5.24c-2.44-4.33-7.06-13.14-11.94-22.43-6.44-12.26-13.09-24.94-14.47-26.82-7.22-9.87-18.7-20.41-28.1-21.73-6.26-.87-19.22-5.74-29.64-9.66-6.34-2.39-11.84-4.45-13.49-4.72-1.61.03-29.65.54-39.18,1.06-10.47.58-57.87,22.96-61.11,24.96-10.58,6.55-11.71,16.27-13.02,27.53-.88,7.61-1.8,15.49-5.69,23.36-8.57,17.34-10.91,38.32-11.3,42.58Z"/>
        </g>
        <g>
          <path class="cls-5" d="m204.34,57.61s8.6-8.79,15.83-6.19c7.23,2.6,8.2,18.19.43,21.22-7.77,3.03-17.1-3.06-17.1-3.06l.84-11.97Z"/>
          <path class="cls-4" d="m215.85,73.96c-6.44,0-12.36-3.81-12.61-3.98l-.23-.15.87-12.42.12-.12c.27-.28,6.75-6.81,13.33-6.81,1.05,0,2.06.17,3,.51,4.17,1.5,6.1,6.76,6.16,11.3.06,4.12-1.42,9.12-5.72,10.8-1.49.58-3.15.88-4.92.88Zm-11.86-4.62c1.15.7,6.4,3.68,11.86,3.68,1.65,0,3.19-.27,4.57-.81,3.85-1.5,5.17-6.1,5.12-9.91-.06-4.22-1.79-9.08-5.54-10.42-.84-.3-1.74-.45-2.68-.45-5.72,0-11.62,5.52-12.53,6.41l-.81,11.51Z"/>
        </g>
        <g>
          <path class="cls-5" d="m196.4,89.76s.26,20.8,2.08,21.84c1.82,1.04,7.81,3.28,7.81,3.28,0,0,13.1,23.42-13.21,24.31-19.21.65-43.04-24.36-43.04-24.36,0,0,9.44-4.02,10.74-5.84s-1.09-34.51-1.09-34.51l36.7,15.27Z"/>
          <path class="cls-4" d="m192.33,140.05c-19.22,0-41.95-23.63-42.91-24.64-.19-.2-.27-.48-.22-.76.06-.27.24-.5.5-.61,3.57-1.52,9.54-4.36,10.38-5.55.76-1.75-.35-21.76-1.24-33.95-.02-.29.11-.58.35-.75.24-.17.55-.21.82-.09l36.7,15.27c.31.13.52.43.52.77.12,9.44.79,19.87,1.71,21.15,1.81,1.01,7.57,3.17,7.63,3.19.19.07.35.21.44.38.25.45,6.08,11.05,1.83,18.58-2.47,4.37-7.77,6.72-15.75,6.99-.25,0-.51.01-.77.01Zm-40.82-24.94c4.36,4.32,24.36,23.24,40.82,23.24.24,0,.48,0,.71-.01,7.35-.25,12.17-2.31,14.33-6.12,3.44-6.09-.84-15.01-1.69-16.66-1.26-.48-5.99-2.29-7.63-3.23-1.82-1.04-2.37-12.41-2.5-22l-34.92-14.53c.76,10.54,2.11,31.9.83,33.69-1.16,1.62-7.17,4.4-9.96,5.63Z"/>
        </g>
        <path class="cls-4" d="m202.83,99.47l-.17-11.49-21.03.83-8.2-6.42-6.66-3.3c9.05,25.72,30.16,22.7,36.06,20.39Z"/>
        <path class="cls-5" d="m213.44,24.39s-.59-26.43-36.42-21.74c-.43.06-.86.12-1.28.19-18.31,3.03-30.47,16.9-26.81,35.09l2.93,15c-2.9-2.23-6.82-4.31-10.67-3.32-7.44,1.92-9.85,17.35-2.39,21.09,6.4,3.21,14.53-.15,16.73-1.17,2.26,6.74,6.04,12.9,11.37,17.65,6.06,5.4,14.53,9.82,25.3,8.03,23.92-3.97,24.31-21.94,24.15-44.26-.09-12.4-1.07-20.54-2.91-26.56Z"/>
        <path class="cls-4" d="m153.8,59.52c1.75-6.43,34.48-26.8,33.7-37.91,0,0,9.94,9.36,13.26,10.92,3.31,1.56,16.22,10.49,16.07,19.37,0,0,8.89-13.52,7.14-23.66-1.75-10.14-11.14-27.7-34.85-27.97C166.27,0,149.8,8.02,145.32,24.98c-4.48,16.96,8.48,34.53,8.48,34.53Z"/>
        <path class="cls-5" d="m154.55,16.98c-1.61-1.39-4.15-.6-5.86.67-2.32,1.72-4.06,4.22-4.86,7-.18.62-.3,1.33.06,1.87.22.33.58.52.95.67,4.41,1.83,10.07-1.48,13.99,1.24,2.43,1.68,3.19,5.13,5.67,6.73,2.32,1.5,5.62.83,7.58-1.12,1.96-1.95,2.68-4.89,2.45-7.64-.05-.57-.14-1.17-.49-1.63-.32-.42-.81-.67-1.3-.89-2.79-1.26-5.84-1.94-8.91-1.99-2.55-.04-5.53.17-7.18-1.77-.82-.96-1.14-2.31-2.1-3.14Z"/>
        <path class="cls-4" d="m259.81,225.42c-.09,0-.17-.01-.26-.04-.45-.14-.69-.62-.55-1.07,2.94-9.08,5.2-21.55-.73-29.46-6.44-8.59-7.22-17.07-7.25-17.43-.04-.47.31-.88.77-.92.46-.04.88.31.92.77,0,.08.78,8.37,6.91,16.55,6.37,8.49,4.05,21.54.98,31-.12.36-.45.59-.81.59Z"/>
        <path class="cls-4" d="m153.83,237.67c-.44,0-.81-.33-.84-.78-.04-.47.3-.88.77-.92,23.91-2.08,39.06-13.17,39.21-13.29.37-.28.91-.2,1.19.17.28.38.2.91-.17,1.19-.15.12-15.7,11.5-40.08,13.62-.02,0-.05,0-.07,0Z"/>
        <path class="cls-4" d="m104.98,195.9c-.37,0-.72-.25-.82-.63l-7.76-28.72c-.12-.45.15-.92.6-1.04.45-.12.92.15,1.04.6l7.76,28.72c.12.45-.15.92-.6,1.04-.07.02-.15.03-.22.03Z"/>
        <path class="cls-4" d="m100.73,191.65c-.39,0-.74-.27-.83-.66l-3.89-16.99c-.1-.46.18-.91.64-1.02.45-.11.91.18,1.02.64l3.89,16.99c.1.46-.18.91-.64,1.02-.06.01-.13.02-.19.02Z"/>
        <path class="cls-4" d="m254.36,187.76s-.05,0-.07,0c-.47-.04-.81-.45-.77-.92l.71-8.5c.04-.47.44-.82.92-.77.47.04.81.45.77.92l-.71,8.5c-.04.44-.41.78-.84.78Z"/>
        <path class="cls-4" d="m282.91,241.21c-.47,0-.85-.38-.85-.85v-23.6c0-.47.38-.85.85-.85s.85.38.85.85v23.6c0,.47-.38.85-.85.85Z"/>
        <path class="cls-4" d="m190.22,80.13c-6.23,0-10.67-4.52-10.72-4.58-.32-.34-.31-.87.02-1.2.34-.32.87-.31,1.2.02.26.26,6.34,6.43,14.1,3.08.43-.19.93.01,1.12.44.19.43-.01.93-.44,1.12-1.85.8-3.62,1.11-5.27,1.11Z"/>
        <path class="cls-4" d="m179.13,76.9c-.47,0-.85-.41-.85-.88,0-1.16,1.47-2.14,2.1-2.5.4-.24.92-.1,1.16.31.24.4.1.92-.31,1.16-.58.34-1.19.87-1.26,1.09,0,.47-.38.82-.85.82Z"/>
        <path class="cls-4" d="m207.68,90.39c-.26,0-.51-.12-.68-.34-.28-.37-.21-.91.17-1.19,9.32-7.01,9.49-31.14,9.32-38.37-.01-.47.36-.86.83-.87.48-.04.86.36.87.83.22,9.53-.3,32.48-10,39.77-.15.12-.33.17-.51.17Z"/>
        <path class="cls-4" d="m149.43,64.94c-.43,0-.8,0-.84-.44-.41-3.82-5.52-8.8-8.04-8.8h-.08c-.46,0-.83-.52-.85-.98-.01-.47.36-1.02.82-1.02h.09c3.57,0,9.27,6.03,9.74,10.47.05.47-.29.8-.75.85-.03,0-.06-.08-.09-.08Z"/>
        <path class="cls-4" d="m142.3,60c-.41,0-.78-.3-.84-.72-.07-.46.25-.9.71-.96l4.43-.66c.47-.06.9.25.96.71.07.46-.25.9-.71.96l-4.43.66s-.08,0-.13,0Z"/>
        <path class="cls-4" d="m191.1,68.33c-.4,0-.76-.29-.83-.7-.08-.46.22-.9.68-.99.69-.13,3.26-1.92,3.25-3.2,0-.9-.73-2.71-1.36-4.31-.52-1.31-1.01-2.55-1.22-3.49-.1-.46.19-.91.65-1.01.46-.1.91.19,1.01.65.17.8.66,2.03,1.13,3.22.76,1.9,1.47,3.7,1.48,4.91.03,2.41-3.47,4.68-4.64,4.89-.05,0-.1.01-.15.01Z"/>
        <g>
          <path class="cls-1" d="m143.93,94.97c-5.44,0-9.86-4.43-9.86-9.87s4.43-9.86,9.86-9.86,9.87,4.43,9.87,9.86-4.43,9.87-9.87,9.87Zm0-18.03c-4.5,0-8.17,3.66-8.17,8.17s3.66,8.17,8.17,8.17,8.17-3.66,8.17-8.17-3.66-8.17-8.17-8.17Z"/>
          <path class="cls-1" d="m137.01,91.74c-.27,0-.53-.12-.69-.35-.27-.38-.18-.91.2-1.18l6.92-4.95c.28-.2.64-.21.93-.04l6.61,3.93c.4.24.54.76.3,1.16-.24.4-.76.54-1.16.3l-6.13-3.65-6.47,4.63c-.15.11-.32.16-.49.16Z"/>
          <path class="cls-1" d="m144.23,95.17c-.47,0-1-.38-1-.85v-17.82c0-.47.53-.85,1-.85s1,.38,1,.85v17.82c0,.47-.53.85-1,.85Z"/>
        </g>
        <g>
          <ellipse class="cls-11" cx="175.81" cy="55.44" rx="9.26" ry="12.04"/>
          <path class="cls-4" d="m175.81,68.33c-5.57,0-10.11-5.78-10.11-12.89s4.54-12.89,10.11-12.89,10.11,5.78,10.11,12.89-4.54,12.89-10.11,12.89Zm0-24.08c-4.64,0-8.41,5.02-8.41,11.19s3.77,11.19,8.41,11.19,8.41-5.02,8.41-11.19-3.77-11.19-8.41-11.19Z"/>
        </g>
        <g>
          <ellipse class="cls-11" cx="205.21" cy="55.44" rx="9.26" ry="12.04"/>
          <path class="cls-4" d="m205.21,68.33c-5.57,0-10.11-5.78-10.11-12.89s4.54-12.89,10.11-12.89,10.11,5.78,10.11,12.89-4.54,12.89-10.11,12.89Zm0-24.08c-4.64,0-8.41,5.02-8.41,11.19s3.77,11.19,8.41,11.19,8.41-5.02,8.41-11.19-3.77-11.19-8.41-11.19Z"/>
        </g>
        <path class="cls-4" d="m185.56,54.91l-.96-1.4c7.95-5.44,12.06.15,12.1.21l-1.38.98.69-.49-.69.5c-.13-.18-3.23-4.27-9.75.2Z"/>
        <rect class="cls-4" x="159.47" y="48.53" width="1.7" height="12.53" transform="translate(89.25 208.59) rotate(-84.06)"/>
        <rect class="cls-4" x="214.26" y="51.73" width="5.8" height="1.7" transform="translate(8.24 131.78) rotate(-34.37)"/>
        <g>
          <path class="cls-5" d="m259.27,225.08l-1.67,4.71-15.18-21.25c-.78-8.16-2.55-15.86-3.28-18.82.18-8.86.12-19.32-.99-23.38-.89-3.25-4.25-5.18-7.5-4.28-.72.2-1.37.52-1.94.93l-.26-13.47c-.07-3.37-2.85-6.05-6.22-5.98-1.4.03-2.66.52-3.67,1.31v-.76c-.04-3.37-2.79-6.08-6.16-6.05-2.53.04-4.75,1.66-5.64,3.93-.47-.18-.97-.3-1.5-.35-3.35-.34-6.35,2.1-6.7,5.45l-.28,2.73-.18.4s.06,0,.14.02l-3.32,32.38c-2.13,3.38-4.14,8.86-3.89,10.59l3.38,23.25s9.27,7.07,19.62,12.26l-5.76,5.54s45.71,80.41,77.57,66.87c37.37-15.88,7.32-91.02,4.78-98.34-6.52,6.81-25.53,19.75-31.35,22.34Z"/>
          <path class="cls-3" d="m278.2,303.46c-31.17,0-69.06-66.02-70.66-68.83-.19-.34-.13-.76.15-1.03l4.9-4.71c-9.87-5.1-18.59-11.73-18.68-11.8-.18-.13-.29-.33-.32-.55l-3.38-23.25c-.3-2.07,1.87-7.7,3.91-10.99l3.25-31.72c-.12-.23-.13-.51-.02-.75l.12-.27.27-2.59c.39-3.8,3.75-6.6,7.63-6.21.31.03.63.09.95.17,1.19-2.23,3.54-3.71,6.08-3.74,3.62,0,6.58,2.71,6.97,6.18.88-.42,1.85-.65,2.85-.67h.14c3.76,0,6.88,3.06,6.95,6.82l.24,12.06c.29-.13.59-.23.9-.31.6-.17,1.22-.25,1.84-.25,3.12,0,5.87,2.11,6.7,5.12.93,3.39,1.27,11.3,1.02,23.51.74,3.01,2.46,10.57,3.25,18.61l14.1,19.74,1.12-3.18c.08-.22.24-.4.45-.49,5.84-2.6,24.7-15.49,31.08-22.15.2-.21.5-.3.79-.24.29.06.52.27.62.55.14.39.35.97.62,1.72,19.5,53.09,17.42,87.78-5.87,97.67-2.5,1.06-5.19,1.6-7.98,1.6Zm-68.85-69.1c3.84,6.58,40.16,67.41,68.85,67.41,2.56,0,5.02-.49,7.31-1.47,30.13-12.81,16.03-65.35,4.94-95.53-.06-.17-.12-.33-.18-.48-7.1,6.85-24.31,18.58-30.32,21.41l-1.55,4.37c-.11.3-.37.51-.68.56-.32.04-.63-.09-.81-.35l-15.18-21.25c-.09-.12-.14-.26-.15-.41-.78-8.11-2.54-15.78-3.26-18.7-.02-.07-.03-.15-.02-.22.25-11.94-.08-19.94-.96-23.14-.62-2.28-2.71-3.88-5.06-3.88-.47,0-.94.06-1.39.19-.6.16-1.16.43-1.68.8-.26.18-.59.21-.88.07-.28-.14-.46-.43-.47-.74l-.26-13.47c-.06-2.84-2.41-5.15-5.25-5.15h-.1c-1.16.02-2.25.41-3.16,1.13-.25.2-.6.24-.89.1-.29-.14-.48-.43-.48-.76v-.76c-.03-2.87-2.39-5.21-5.26-5.21-2.17.03-4.12,1.39-4.9,3.39-.17.43-.65.65-1.08.49-.43-.16-.87-.26-1.29-.3-2.95-.3-5.47,1.82-5.77,4.69l-.28,2.73c0,.07-.02.14-.05.2,0,.07.01.14,0,.21l-3.32,32.38c-.01.13-.06.26-.13.37-2.15,3.4-3.97,8.61-3.77,10.02l3.33,22.9c1.61,1.2,10.03,7.37,19.21,11.97.25.12.42.36.46.63s-.05.55-.25.74l-5.28,5.08Z"/>
        </g>
        <path class="cls-4" d="m65.94,232.29c2.31-4.61,17.58-5.48,22.48-6.92,4.9-1.44,42.51,3.75,46.98,6.34,4.47,2.59,4.76,5.76,2.02,6.63s-62.55-4.47-62.55-4.47l-8.94-1.59Z"/>
        <g>
          <g>
            <path class="cls-5" d="m226.96,163.26c-.94-3.42-4.47-5.45-7.89-4.5-.76.21-1.44.55-2.04.98l-.28-14.17c-.07-3.55-3-6.36-6.54-6.3-1.47.03-2.8.54-3.86,1.38v-.8c-.04-3.55-2.94-6.4-6.48-6.37-2.67.04-5,1.74-5.93,4.13-.5-.18-1.02-.32-1.58-.37-3.52-.36-6.68,2.2-7.04,5.73l-3.83,37.37c-2.24,3.55-4.79,10.52-4.52,12.34l-2.55,22.01c-.12,1-1.23,7.48-1.96,8.16l-39.2,31.76,2.13-22.18c-11.53-9.11-30.64-12.77-59.2-3.88-3.47,32.42,2.15,74.53,20.31,87.33,50.73,35.74,120.54-76.04,120.81-76.14,19.47-7.05,12.43-44.86,10.69-51.88.19-9.32.13-20.32-1.04-24.59Z"/>
            <path class="cls-3" d="m118.32,323.77s0,0,0,0c-8.03,0-15.53-2.42-22.32-7.2-18.17-12.8-24.21-54.96-20.67-88.12.04-.34.27-.62.59-.72,10.95-3.41,21.07-5.13,30.07-5.13,12.16,0,22.22,3.08,29.91,9.16.23.18.35.46.32.75l-1.94,20.16,37.57-30.43c.52-.82,1.55-6.26,1.71-7.65l2.53-21.91c-.2-2.28,2.42-9.15,4.55-12.62l3.81-37.17c.41-3.97,3.92-6.91,7.97-6.49.34.03.68.1,1.03.18,1.23-2.35,3.7-3.91,6.38-3.95,3.81,0,6.92,2.87,7.3,6.52.94-.46,1.97-.7,3.04-.73h.14c3.93,0,7.19,3.2,7.27,7.13l.25,12.75c.32-.14.66-.26,1-.36.63-.17,1.28-.26,1.93-.26,3.26,0,6.14,2.2,7,5.36.97,3.57,1.33,11.88,1.07,24.73.59,2.49,10.15,44.67-11,52.68-.09.13-.22.33-.38.58-12.8,19.41-57.79,82.75-99.14,82.75Zm-41.36-94.58c-3.37,32.59,2.47,73.63,20.02,85.99,6.49,4.57,13.67,6.89,21.34,6.89,40.5,0,85.04-62.75,97.72-81.99q.69-1.05.97-1.15c17.1-6.19,13.13-38.83,10.16-50.88-.02-.07-.03-.15-.02-.22.26-12.56-.09-20.98-1.01-24.35-.66-2.42-2.87-4.11-5.36-4.11-.5,0-.99.07-1.48.2-.63.17-1.23.46-1.78.85-.26.18-.6.21-.88.07-.28-.14-.46-.43-.47-.74l-.28-14.17c-.06-3.01-2.56-5.46-5.57-5.46h-.11c-1.23.03-2.39.44-3.35,1.2-.25.2-.6.24-.89.1-.29-.14-.48-.43-.48-.76v-.8c-.03-3.05-2.53-5.52-5.58-5.52-2.3.03-4.37,1.47-5.19,3.59-.17.43-.65.65-1.08.49-.46-.17-.92-.28-1.37-.32-3.11-.32-5.8,1.93-6.11,4.97l-3.83,37.37c-.01.13-.06.26-.13.37-2.26,3.58-4.62,10.26-4.4,11.76.01.07.01.15,0,.22l-2.55,22.01c0,.07-1.09,7.62-2.22,8.68l-39.25,31.8c-.27.21-.63.25-.94.09-.3-.16-.48-.49-.44-.83l2.09-21.71c-7.34-5.65-16.92-8.51-28.5-8.51-8.68,0-18.44,1.65-29.03,4.89Z"/>
          </g>
          <path class="cls-4" d="m191.33,174.25s-.05,0-.08,0c-.47-.04-.81-.46-.76-.92.03-.29,2.8-29.54,2.62-35.64-.01-.47.36-.86.82-.87h.03c.46,0,.83.36.85.82.18,6.2-2.51,34.65-2.63,35.85-.04.44-.41.77-.84.77Z"/>
          <path class="cls-4" d="m205.66,179.1l-1.7-.07s1.31-33.19,1.52-38.43c.02-.47.38-.85.88-.81.47.02.83.41.81.88-.21,5.24-1.52,38.43-1.52,38.43Z"/>
          <path class="cls-4" d="m215.48,185.56h-.02c-.47-.01-.84-.4-.83-.87.06-2.32.65-22.74,1.43-25.37.13-.45.61-.7,1.06-.57.45.14.7.61.57,1.06-.55,1.82-1.12,15.91-1.36,24.93-.01.46-.39.83-.85.83Z"/>
          <path class="cls-4" d="m189.06,147.41c-1.79,0-4.01-.27-4.34-.31-.47-.06-.8-.48-.74-.95.06-.46.48-.8.95-.74,1.35.17,3.6.36,4.85.28.09-2.29.02-4.79-.25-5.27-.41-.42-1.24-.73-1.5-.79-.45-.12-.72-.59-.6-1.04s.59-.72,1.04-.6c.15.04,1.48.41,2.34,1.32.8.85.79,4.37.63,7.17-.02.37-.28.69-.64.78-.43.11-1.06.15-1.74.15Z"/>
          <path class="cls-4" d="m198.28,146.61c-2.27,0-4.38-.46-4.51-.49-.46-.1-.75-.56-.64-1.01.1-.46.56-.74,1.01-.64.04,0,3.7.81,6.23.26.09-3.02.12-6.2.03-7.15-.63-.25-2.45-.57-3.51-.4-.47.07-.9-.25-.97-.71-.07-.46.25-.9.71-.97,1.39-.21,4.62.16,5.24,1.11.17.25.44.68.18,8.8-.01.36-.24.67-.58.78-.96.32-2.09.42-3.18.42Z"/>
          <path class="cls-4" d="m209.02,148.81c-1.75,0-3.05-.42-3.14-.45-.45-.15-.69-.63-.54-1.07.15-.45.62-.69,1.07-.54h0s2.43.77,4.85.06l-.45-4.56c-.45-.42-.98-.8-1.19-.83-.46.03-.86-.33-.88-.79-.03-.47.34-.87.81-.9.99-.05,2.21,1.05,2.68,1.54.13.14.22.32.24.51l.54,5.53c.04.37-.18.73-.53.87-1.2.48-2.41.64-3.47.64Z"/>
          <path class="cls-4" d="m220.57,168.96c-1.75,0-3.98-.18-4.32-.21-.47-.04-.81-.45-.77-.92.04-.47.46-.81.92-.77,1.62.14,4.41.29,5.42.15.4-.86.19-4.42-.13-5.53-.62-.17-1.94-.48-2.87-.69-.46-.1-.74-.56-.64-1.02.1-.46.55-.74,1.02-.64.47.11,2.86.65,3.36.83,1.36.48,1.16,5.89,1.15,5.94-.07,1.06-.28,2.49-1.36,2.73-.4.09-1.04.12-1.77.12Z"/>
          <path class="cls-4" d="m183.63,195.16c-.11,0-.22-.02-.33-.07-.43-.18-.63-.68-.45-1.11l2.93-6.88c.18-.43.68-.63,1.11-.45.43.18.63.68.45,1.11l-2.93,6.88c-.14.32-.45.52-.78.52Z"/>
          <path class="cls-4" d="m187.15,195.62c-.31,0-.6-.16-.75-.45l-4.1-7.79c-.22-.42-.06-.93.36-1.15.41-.22.93-.06,1.15.36l4.1,7.79c.22.42.06.93-.36,1.15-.13.07-.26.1-.39.1Z"/>
          <path class="cls-4" d="m196.86,198.77c-.11,0-.22-.02-.33-.07-.43-.18-.63-.68-.45-1.11l2.93-6.88c.18-.43.68-.63,1.11-.45.43.18.63.68.45,1.11l-2.93,6.88c-.14.32-.45.52-.78.52Z"/>
          <path class="cls-4" d="m200.37,199.23c-.31,0-.6-.17-.75-.45l-4.1-7.79c-.22-.42-.06-.93.36-1.15.41-.22.93-.06,1.15.36l4.1,7.79c.22.42.06.93-.36,1.15-.13.07-.26.1-.39.1Z"/>
          <path class="cls-4" d="m209.48,201.34c-.11,0-.22-.02-.33-.07-.43-.18-.63-.68-.45-1.11l2.93-6.88c.18-.43.68-.63,1.11-.45.43.18.63.68.45,1.11l-2.93,6.88c-.14.32-.45.52-.78.52Z"/>
          <path class="cls-4" d="m213,201.8c-.3,0-.6-.17-.75-.45l-4.1-7.79c-.22-.42-.06-.93.36-1.15s.93-.06,1.15.36l4.1,7.79c.22.42.06.93-.36,1.15-.13.07-.26.1-.39.1Z"/>
          <path class="cls-4" d="m123.91,261.51c-.28,0-.55-.14-.71-.39-.25-.39-.14-.92.25-1.17l10.91-7.03c.39-.25.92-.14,1.17.25.25.39.14.92-.25,1.17l-10.91,7.03c-.14.09-.3.14-.46.14Z"/>
        </g>
        <g>
          <path class="cls-2" d="m257.6,229.79c11.68,10.42,30.71,20.8,35.32,27.72"/>
          <path class="cls-3" d="m292.92,258.36c-.27,0-.54-.13-.71-.38-2.5-3.75-9.69-8.76-17.3-14.07-6.25-4.36-12.71-8.87-17.88-13.48-.35-.31-.38-.85-.07-1.2.31-.35.85-.38,1.2-.07,5.09,4.54,11.51,9.02,17.72,13.35,8.08,5.64,15.06,10.51,17.74,14.52.26.39.15.92-.24,1.18-.15.1-.31.14-.47.14Z"/>
        </g>
        <g>
          <path class="cls-4" d="m188.72,250.72h0c-1.53,0-3.03-.52-4.23-1.48-2.94-2.33-3.43-6.62-1.1-9.56,1.3-1.63,3.24-2.57,5.33-2.57,1.53,0,3.03.52,4.23,1.48,1.42,1.13,2.32,2.75,2.53,4.55.21,1.81-.3,3.58-1.43,5.01-1.3,1.63-3.24,2.57-5.33,2.57Zm0-11.91c-1.57,0-3.03.7-4,1.93-1.75,2.2-1.38,5.42.82,7.17.91.72,2.01,1.11,3.17,1.11h0c1.57,0,3.03-.7,4-1.93.85-1.07,1.23-2.4,1.07-3.76-.15-1.36-.83-2.57-1.9-3.42-.91-.72-2.01-1.11-3.17-1.11Z"/>
          <path class="cls-4" d="m190.19,249.94c-.34,0-.66-.21-.79-.55l-1.61-4.23-5.06-.26c-.47-.02-.83-.42-.8-.89.02-.47.43-.83.89-.8l5.61.28c.34.02.63.23.75.55l1.8,4.74c.17.44-.05.93-.49,1.09-.1.04-.2.06-.3.06Z"/>
          <path class="cls-4" d="m185.31,249.32c-.18,0-.37-.06-.53-.18-.37-.29-.43-.83-.14-1.19l6.99-8.8c.29-.37.83-.43,1.19-.14.37.29.43.83.14,1.19l-6.99,8.8c-.17.21-.42.32-.67.32Z"/>
          <g>
            <path class="cls-1" d="m183.34,240.11c.85-1.08.67-2.64-.4-3.49-1.08-.85-2.64-.67-3.49.4-.85,1.08-.67,2.64.4,3.49,1.08.85,2.64.67,3.49-.4Z"/>
            <path class="cls-4" d="m181.39,241.89h0c-.75,0-1.49-.26-2.07-.72-.7-.55-1.14-1.35-1.24-2.23-.1-.89.15-1.76.7-2.45.64-.8,1.59-1.26,2.61-1.26.75,0,1.48.26,2.07.72,1.44,1.14,1.68,3.25.54,4.69-.64.8-1.59,1.26-2.61,1.26Zm0-4.97c-.5,0-.97.23-1.28.62-.27.34-.39.77-.34,1.2.05.44.27.82.61,1.1.29.23.64.36,1.02.36h0c.5,0,.97-.23,1.28-.62.56-.71.44-1.74-.26-2.3-.29-.23-.64-.36-1.02-.36Z"/>
          </g>
          <g>
            <path class="cls-1" d="m179.27,236.88c.85-1.08.67-2.64-.4-3.49-1.08-.85-2.64-.67-3.49.4-.85,1.08-.67,2.64.4,3.49,1.08.85,2.64.67,3.49-.4Z"/>
            <path class="cls-4" d="m177.33,238.67h0c-.75,0-1.49-.26-2.07-.72-1.44-1.14-1.68-3.25-.54-4.69.64-.8,1.59-1.26,2.61-1.26.75,0,1.49.26,2.07.72.7.55,1.14,1.35,1.24,2.23.1.89-.15,1.76-.7,2.45-.64.8-1.59,1.26-2.61,1.26Zm0-4.97c-.5,0-.97.23-1.28.62-.56.71-.44,1.74.26,2.3.29.23.64.36,1.02.36h0c.5,0,.97-.23,1.28-.62.27-.34.39-.77.34-1.2-.05-.44-.27-.82-.61-1.1-.29-.23-.64-.36-1.02-.36Z"/>
          </g>
          <g>
            <path class="cls-1" d="m174.53,233.11c.85-1.08.67-2.64-.4-3.49-1.08-.85-2.64-.67-3.49.4-.85,1.08-.67,2.64.4,3.49s2.64.67,3.49-.4Z"/>
            <path class="cls-4" d="m172.59,234.9h0c-.75,0-1.49-.26-2.07-.72-1.44-1.14-1.68-3.25-.54-4.69.64-.8,1.59-1.26,2.61-1.26.75,0,1.49.26,2.07.72,1.44,1.14,1.68,3.25.54,4.69-.64.8-1.59,1.26-2.61,1.26Zm0-4.97c-.5,0-.97.23-1.28.62-.56.71-.44,1.74.26,2.3.29.23.64.36,1.02.36h0c.5,0,.97-.23,1.28-.62.56-.71.44-1.74-.26-2.3-.29-.23-.64-.36-1.02-.36Z"/>
          </g>
          <g>
            <path class="cls-1" d="m169.79,229.35c.85-1.08.67-2.64-.4-3.49-1.08-.85-2.64-.67-3.49.4s-.67,2.64.4,3.49c1.08.85,2.64.67,3.49-.4Z"/>
            <path class="cls-4" d="m167.85,231.14h0c-.75,0-1.48-.26-2.07-.72-1.44-1.14-1.68-3.25-.54-4.69.64-.8,1.59-1.26,2.61-1.26.75,0,1.48.26,2.07.72,1.44,1.14,1.68,3.25.54,4.69-.64.8-1.59,1.26-2.61,1.26Zm0-4.97c-.5,0-.97.23-1.28.62-.56.71-.44,1.74.26,2.3.29.23.64.36,1.02.36h0c.5,0,.97-.23,1.28-.62.56-.71.44-1.74-.26-2.3-.29-.23-.64-.35-1.02-.35Z"/>
          </g>
          <g>
            <path class="cls-1" d="m197.56,251.4c.85-1.08.67-2.64-.4-3.49-1.08-.85-2.64-.67-3.49.4-.85,1.08-.67,2.64.4,3.49,1.08.85,2.64.67,3.49-.4Z"/>
            <path class="cls-4" d="m195.61,253.19h0c-.75,0-1.48-.26-2.07-.72-1.44-1.14-1.68-3.25-.54-4.69.64-.8,1.59-1.26,2.61-1.26.75,0,1.49.26,2.07.72.7.55,1.14,1.35,1.24,2.23.1.89-.15,1.76-.7,2.45-.64.8-1.59,1.26-2.61,1.26Zm0-4.97c-.5,0-.97.23-1.28.62-.56.71-.44,1.74.26,2.3.69.55,1.76.42,2.3-.26.27-.34.39-.77.34-1.2-.05-.44-.27-.82-.61-1.1-.29-.23-.64-.36-1.02-.36Z"/>
          </g>
          <g>
            <path class="cls-1" d="m202.3,255.16c.85-1.08.67-2.64-.4-3.49-1.08-.85-2.64-.67-3.49.4-.85,1.08-.67,2.64.4,3.49,1.08.85,2.64.67,3.49-.4Z"/>
            <path class="cls-4" d="m200.35,256.95h0c-.75,0-1.49-.26-2.07-.72-1.44-1.14-1.68-3.25-.54-4.69.64-.8,1.59-1.26,2.61-1.26.75,0,1.49.26,2.07.72,1.44,1.14,1.68,3.25.54,4.69-.64.8-1.59,1.26-2.61,1.26Zm0-4.97c-.5,0-.97.23-1.28.62-.56.71-.44,1.74.26,2.3.69.55,1.76.42,2.3-.26.56-.71.44-1.74-.26-2.3-.29-.23-.64-.36-1.02-.36Z"/>
          </g>
          <g>
            <path class="cls-1" d="m207.03,258.93c.85-1.08.67-2.64-.4-3.49-1.08-.85-2.64-.67-3.49.4-.85,1.08-.67,2.64.4,3.49,1.08.85,2.64.67,3.49-.4Z"/>
            <path class="cls-4" d="m205.09,260.72h0c-.75,0-1.48-.26-2.07-.72-1.44-1.14-1.68-3.25-.54-4.69.64-.8,1.59-1.26,2.61-1.26.75,0,1.48.26,2.07.72,1.44,1.14,1.68,3.25.54,4.69-.64.8-1.59,1.26-2.61,1.26Zm0-4.97c-.5,0-.97.23-1.28.62-.56.71-.44,1.74.26,2.3.29.23.64.36,1.02.36h0c.5,0,.97-.23,1.28-.62.56-.71.44-1.74-.26-2.3-.29-.23-.64-.35-1.02-.35Z"/>
          </g>
        </g>
        <path class="cls-4" d="m175.9,59.37c-1.67,0-3.31-1.05-4.86-3.12-.28-.37-.21-.91.17-1.19.37-.28.91-.21,1.19.17,1.28,1.71,2.51,2.51,3.68,2.44,1.81-.14,3.09-2.45,3.1-2.47.22-.41.73-.57,1.15-.35.41.22.57.74.35,1.15-.07.13-1.71,3.15-4.47,3.36-.1,0-.21.01-.31.01Z"/>
        <path class="cls-4" d="m206.17,59.37c-1.67,0-3.31-1.05-4.86-3.12-.28-.37-.21-.91.17-1.19.37-.28.91-.21,1.19.17,1.28,1.7,2.52,2.52,3.68,2.44,1.83-.14,3.1-2.45,3.11-2.47.22-.41.74-.57,1.15-.35.41.22.57.73.35,1.15-.07.13-1.71,3.15-4.47,3.36-.1,0-.21.01-.31.01Z"/>
        <path class="cls-4" d="m176.94,50.09c-1.44.59-2.97,1.01-4.52.98-.42,0-.85-.05-1.2-.27-1.59-.97.31-2.25,1.22-2.57,1.34-.47,3.55-1.04,4.9-.35.37.19.68.54.73.96.09.65-.48.98-.99,1.2-.05.02-.09.04-.14.06Z"/>
        <path class="cls-4" d="m202.87,50.09c1.44.59,2.97,1.01,4.52.98.42,0,.85-.05,1.2-.27,1.59-.97-.31-2.25-1.22-2.57-1.34-.47-3.55-1.04-4.9-.35-.37.19-.68.54-.73.96-.09.65.48.98.99,1.2.05.02.09.04.14.06Z"/>
      </g>
      <g>
        <path class="cls-4" d="m53.88,338.66c-.47,0-.85-.38-.85-.85v-167.15c0-.47.38-.85.85-.85s.85.38.85.85v167.15c0,.47-.38.85-.85.85Z"/>
        <rect class="cls-4" x="52.21" y="152.73" width="3.33" height="90.87" rx=".15" ry=".15"/>
        <g>
          <path class="cls-11" d="m106.52,329.72c-2.06-4.02-12.09-3.45-22.36-1.42.06-10.78-1.31-21.25-5.77-22.52-3.59-1.02-8.61,4.1-13.36,10.94-2.67-11.07-6.81-21.95-11.71-22.05-4.65-.1-9.03,9.55-12.13,19.91-4.27-5.72-8.61-9.7-11.82-8.79-4.46,1.27-5.83,11.73-5.77,22.52-10.27-2.03-20.31-2.6-22.36,1.42-3.98,7.76,23.29,29.68,31.05,33.65,7.39,3.79,35.79,3.79,43.18,0,7.76-3.98,35.03-25.9,31.05-33.65Z"/>
          <path class="cls-4" d="m53.87,367.06c-7.86,0-17.75-.77-21.98-2.94-6.71-3.44-35.96-25.94-31.42-34.8,1.17-2.29,4.45-3.45,9.74-3.45,3.43,0,7.64.47,12.53,1.39.03-9.6,1.2-20.83,6.39-22.3,3.02-.86,6.98,1.75,11.72,7.79,2.83-8.99,7.14-18.93,12.39-18.93h.09c5.51.12,9.55,11.04,12.07,20.9,5.41-7.43,9.88-10.7,13.22-9.76,5.19,1.47,6.36,12.71,6.39,22.3,4.89-.92,9.1-1.39,12.53-1.39,5.29,0,8.57,1.16,9.74,3.45,4.54,8.86-24.71,31.36-31.42,34.8-4.22,2.16-14.12,2.94-21.98,2.94Zm-43.66-39.48c-4.54,0-7.38.87-8.23,2.53-3.51,6.85,22.29,28.21,30.69,32.51,3.26,1.67,11.58,2.75,21.2,2.75s17.94-1.08,21.2-2.75c8.4-4.3,34.2-25.66,30.69-32.51-.85-1.65-3.69-2.53-8.23-2.53-3.55,0-8,.52-13.22,1.56l-1.02.2v-1.04c.07-12.65-1.85-20.76-5.15-21.7-2.72-.77-7.2,3.07-12.43,10.6l-1.08,1.55-.44-1.84c-3.21-13.33-7.28-21.33-10.9-21.4-3.47,0-7.68,7.22-11.3,19.3l-.48,1.62-1.01-1.35c-4.56-6.11-8.47-9.17-10.91-8.48-3.29.93-5.22,9.05-5.15,21.7v1.04s-1.01-.2-1.01-.2c-5.22-1.03-9.67-1.56-13.22-1.56Z"/>
        </g>
        <path class="cls-7" d="m58.08,367.06c-.4,0-.75-.28-.83-.68-.09-.46.21-.91.67-1,2.71-.54,4.8-2,6.41-4.48,6.35-9.79,2.65-31.77-.13-44-.1-.46.18-.91.64-1.02.46-.1.91.18,1.02.64,2.83,12.49,6.59,34.98-.11,45.3-1.84,2.84-4.36,4.59-7.5,5.22-.06.01-.11.02-.17.02Z"/>
        <path class="cls-7" d="m43.24,366.58c-.06,0-.13,0-.19-.02-8.73-2.02-9.61-19.09-2.69-52.16.1-.46.54-.76,1-.66.46.1.75.55.66,1-8.22,39.28-3.77,48.95,1.41,50.16.46.11.74.56.63,1.02-.09.39-.44.66-.83.66Z"/>
        <path class="cls-7" d="m68.27,337.41c-.44,0-.81-.33-.84-.78-.2-2.33,14.81-8.53,16.44-9.13.44-.16.93.07,1.09.51.16.44-.07.93-.51,1.09-6.17,2.26-14.39,6.6-15.36,7.7-.09.33-.38.58-.75.61-.02,0-.05,0-.07,0Z"/>
        <path class="cls-7" d="m37.46,337.41c-.24,0-.48-.1-.65-.3-.04-.05-4.48-5.26-13.46-7.99-.45-.14-.7-.61-.57-1.06.14-.45.61-.7,1.06-.57,9.5,2.88,14.08,8.3,14.27,8.53.3.36.25.89-.11,1.19-.16.13-.35.2-.54.2Z"/>
      </g>
      <g>
        <path class="cls-6" d="m308.68,18.35c-.56.03-1.11.12-1.66.18.55-.09,1.1-.15,1.66-.18Z"/>
        <path class="cls-7" d="m325.43,65.7c0,8.62-6.86,15.64-15.41,15.9-.93,0-1.85-.05-2.74-.14-.12-.02-.25-.04-.37-.05-7.56-1.25-13.31-7.79-13.31-15.71s5.75-14.48,13.3-15.72c-7.55-1.25-13.3-7.81-13.3-15.71,0-.49.71-.99.76-1.48.04-.47.88-.93.88-1.39v-.05c0-.32-.57-.63-.48-.93,0-.04-.34-.05-.33-.07.04-.19-.08-.39-.03-.56.12-.42.18-.83.34-1.21.12-.35.22-.69.38-1,.65-1.39,1.46-2.67,2.46-3.82.28-.32.53-.6.83-.88.23-.23.47-.46.73-.67.16-.16.33-.3.49-.42.65-.53,1.35-1,2.09-1.41.35-.21.7-.39,1.07-.56.05-.02.14-.05.21-.09.39-.18.77-.33,1.16-.48.07-.02.14-.05.21-.07.37-.12.74-.23,1.11-.33.07-.02.16-.04.23-.05.4-.11.83-.19,1.25-.25.02-.02.04-.02.05-.02.04,0,.07-.02.12-.02.53-.05,1.02-.12,1.55-.16.28-.02.55-.02.83-.02,8.79,0,15.92,7.14,15.92,15.94,0,7.9-5.75,14.46-13.3,15.71,7.55,1.25,13.3,7.83,13.3,15.72Z"/>
        <g>
          <path class="cls-4" d="m310.51,18.3c-.33,0-.67,0-1,.04,8.79,0,15.92,7.14,15.92,15.94,0,7.9-5.75,14.46-13.3,15.71-.84-.14-1.72-.21-2.62-.21s-1.78.07-2.62.21c-7.55,1.25-13.3,7.83-13.3,15.72s5.75,14.46,13.31,15.71c.12.02.25.04.37.05.74.11,1.48.16,2.23.16.18,0,.33,0,.51-.02.16.02.33.02.49.02,17.48,0,31.66-14.18,31.66-31.66s-14.18-31.66-31.66-31.66Z"/>
          <path class="cls-4" d="m310.51,82.04c-.16,0-.33,0-.49-.02-.94.08-1.86-.01-2.8-.15l-.37-.05c-7.93-1.31-13.68-8.09-13.68-16.13s5.74-14.83,13.65-16.14c1.69-.28,3.61-.29,5.31-.01,7.46-1.27,12.87-7.68,12.87-15.28,0-8.55-6.95-15.51-15.49-15.51l-.04-.85c.35-.04.7-.04,1.05-.04,17.69,0,32.08,14.39,32.08,32.08s-14.39,32.08-32.08,32.08Zm-.49-.87h.04c.14.02.3.02.45.02,17.22,0,31.24-14.01,31.24-31.24,0-15.42-11.23-28.26-25.94-30.79,5.89,2.47,10.05,8.31,10.05,15.1,0,8.03-5.74,14.82-13.65,16.12h-.07s-.07,0-.07,0c-1.63-.27-3.47-.27-5.1,0-7.5,1.24-12.94,7.68-12.94,15.31s5.45,14.05,12.96,15.29l.36.05c.74.1,1.44.12,2.21.15.15,0,.28,0,.43-.02h.04Z"/>
        </g>
        <g>
          <path class="cls-5" d="m309.51,18.33c-.28,0-.55,0-.83.02-.53.04-1.02.11-1.55.16-.05,0-.09.02-.12.02,0,0,0,0-.01,0-15.82,1.75-28.15,15.14-28.15,31.43s12.26,29.67,28.05,31.45c-7.56-1.25-13.31-7.79-13.31-15.71s5.75-14.48,13.3-15.72c.84.14,1.72.21,2.62.21s1.78-.07,2.62-.21c7.55-1.25,13.3-7.81,13.3-15.71,0-8.79-7.12-15.94-15.92-15.94Zm-3.28.35c.25-.05.51-.11.76-.16-.01,0-.02,0-.04.01-.25.03-.48.09-.73.14Z"/>
          <path class="cls-4" d="m306.91,82.26s-.06,0-.1,0c-16.42-1.85-28.81-15.73-28.81-32.29s12.4-30.42,28.85-32.27c.02,0,.03,0,.05,0,.04,0,.1-.02.17-.02l.51-.06c.35-.04.69-.08,1.04-.1.3-.02.58-.02.88-.02,9.25,0,16.77,7.53,16.77,16.78,0,8.24-5.89,15.2-14.01,16.54-1.72.29-3.64.3-5.38.02-7.22,1.26-12.45,7.49-12.45,14.86s5.28,13.63,12.55,14.86c.44.04.78.4.78.85,0,.47-.38.85-.85.85,0,0-.01,0-.02,0Zm-.88-62.74c-15.08,2.2-26.32,15.1-26.32,30.45,0,12.66,7.63,23.66,18.74,28.37-3.53-3.09-5.7-7.62-5.7-12.63,0-8.25,5.89-15.22,14.01-16.56.09-.01.19-.01.28,0,1.59.26,3.37.27,4.96,0,7.29-1.21,12.59-7.46,12.59-14.87,0-8.32-6.76-15.09-15.07-15.09-.27,0-.51,0-.77.02-.33.02-.64.06-.96.09l-.56.06s0,0-.01,0c-.05.01-.09.02-.14.03-.06,0-.12.02-.18.03l-.48.1c-.13.03-.26.02-.38,0Z"/>
        </g>
        <path class="cls-4" d="m313.7,32.26c0-2.61-2.12-4.73-4.73-4.73s-4.73,2.12-4.73,4.73,2.12,4.73,4.73,4.73,4.73-2.12,4.73-4.73Z"/>
        <path class="cls-5" d="m313.7,63.92c0-2.61-2.12-4.73-4.73-4.73s-4.73,2.12-4.73,4.73,2.12,4.73,4.73,4.73,4.73-2.12,4.73-4.73Z"/>
      </g>
      <path class="cls-9" d="m31.99,108.65c-2.9-1.37-5.42-3.58-7.11-6.31-2.32-3.74-3.07-8.42-2.04-12.7.87-3.62,3.24-7.11,6.78-8.26,2.54-.82,5.47-.29,7.56,1.36,2.89,2.29,2.93,5.77,3.74,9.05,1.07,4.35,4.69,7.76,5.19,12.28.62,5.63-6.63,6.7-10.77,5.75-1.16-.26-2.28-.66-3.35-1.17Z"/>
      <g>
        <g>
          <path class="cls-5" d="m80.73,27.01c0-4.59-3.72-8.31-8.31-8.31s-8.31,3.72-8.31,8.31,3.72,16.47,8.31,16.47,8.31-11.88,8.31-16.47Z"/>
          <path class="cls-4" d="m72.42,44.32c-5.56,0-9.15-12.87-9.15-17.32,0-5.05,4.11-9.16,9.15-9.16s9.15,4.11,9.15,9.16c0,4.45-3.6,17.32-9.15,17.32Zm0-24.78c-4.11,0-7.46,3.35-7.46,7.46,0,4.78,3.82,15.62,7.46,15.62s7.46-10.84,7.46-15.62c0-4.11-3.35-7.46-7.46-7.46Z"/>
        </g>
        <g>
          <path class="cls-5" d="m80.73,68.47c0,4.59-3.72,8.31-8.31,8.31s-8.31-3.72-8.31-8.31,3.72-16.47,8.31-16.47,8.31,11.88,8.31,16.47Z"/>
          <path class="cls-4" d="m72.42,77.62c-5.05,0-9.15-4.11-9.15-9.16,0-4.45,3.6-17.32,9.15-17.32s9.15,12.87,9.15,17.32c0,5.05-4.11,9.16-9.15,9.16Zm0-24.78c-3.64,0-7.46,10.84-7.46,15.62,0,4.11,3.35,7.46,7.46,7.46s7.46-3.35,7.46-7.46c0-4.78-3.82-15.62-7.46-15.62Z"/>
        </g>
        <g>
          <path class="cls-5" d="m93.44,56.04c4.59,0,8.31-3.72,8.31-8.31s-3.72-8.31-8.31-8.31-16.47,3.72-16.47,8.31,11.88,8.31,16.47,8.31Z"/>
          <path class="cls-4" d="m93.44,56.89c-4.45,0-17.32-3.6-17.32-9.15s12.87-9.16,17.32-9.16c5.05,0,9.16,4.11,9.16,9.16s-4.11,9.15-9.16,9.15Zm0-16.61c-4.78,0-15.62,3.82-15.62,7.46s10.84,7.46,15.62,7.46c4.11,0,7.46-3.35,7.46-7.46s-3.35-7.46-7.46-7.46Z"/>
        </g>
        <g>
          <path class="cls-5" d="m51.98,56.04c-4.59,0-8.31-3.72-8.31-8.31s3.72-8.31,8.31-8.31,16.47,3.72,16.47,8.31-11.88,8.31-16.47,8.31Z"/>
          <path class="cls-4" d="m51.98,56.89c-5.05,0-9.16-4.11-9.16-9.15s4.11-9.16,9.16-9.16c4.45,0,17.32,3.6,17.32,9.16s-12.87,9.15-17.32,9.15Zm0-16.61c-4.11,0-7.46,3.35-7.46,7.46s3.35,7.46,7.46,7.46c4.78,0,15.62-3.82,15.62-7.46s-10.84-7.46-15.62-7.46Z"/>
        </g>
        <g>
          <path class="cls-5" d="m93.24,38.52c3.24-3.24,3.24-8.5,0-11.75s-8.5-3.24-11.75,0-9.02,14.28-5.77,17.52,14.28-2.53,17.52-5.77Z"/>
          <path class="cls-4" d="m78.61,46.1h0c-1.51,0-2.68-.41-3.48-1.21-3.93-3.93,2.62-15.57,5.77-18.72,1.73-1.73,4.03-2.68,6.47-2.68s4.74.95,6.47,2.68,2.68,4.03,2.68,6.47-.95,4.74-2.68,6.47c-2.81,2.81-10.44,6.98-15.23,6.98Zm8.76-20.91c-1.99,0-3.86.77-5.27,2.18-3.38,3.38-8.34,13.75-5.77,16.32.47.47,1.24.71,2.29.71,4.17,0,11.47-3.92,14.03-6.48,1.41-1.41,2.18-3.28,2.18-5.27s-.77-3.86-2.18-5.27c-1.41-1.41-3.28-2.18-5.27-2.18Z"/>
        </g>
        <g>
          <path class="cls-5" d="m63.93,67.84c-3.24,3.24-8.5,3.24-11.75,0-3.24-3.24-3.24-8.5,0-11.75,3.24-3.24,14.28-9.02,17.52-5.77,3.24,3.24-2.53,14.28-5.77,17.52Z"/>
          <path class="cls-4" d="m58.05,71.12c-2.45,0-4.74-.95-6.47-2.68-1.73-1.73-2.68-4.03-2.68-6.47s.95-4.74,2.68-6.47c2.81-2.81,10.44-6.98,15.23-6.98,1.51,0,2.68.41,3.49,1.21,3.93,3.93-2.62,15.57-5.77,18.72-1.73,1.73-4.03,2.68-6.47,2.68Zm8.76-20.91c-4.17,0-11.47,3.92-14.03,6.48-1.41,1.41-2.18,3.28-2.18,5.27s.78,3.86,2.18,5.27c1.41,1.41,3.28,2.18,5.27,2.18s3.86-.78,5.27-2.18c3.38-3.38,8.34-13.75,5.77-16.32-.47-.47-1.24-.71-2.29-.71Z"/>
        </g>
        <g>
          <path class="cls-5" d="m52.18,38.52c-3.24-3.24-3.24-8.5,0-11.75,3.24-3.24,8.5-3.24,11.75,0,3.24,3.24,9.02,14.28,5.77,17.52-3.24,3.24-14.28-2.53-17.52-5.77Z"/>
          <path class="cls-4" d="m66.81,46.1c-4.79,0-12.42-4.17-15.23-6.98-1.73-1.73-2.68-4.03-2.68-6.47s.95-4.74,2.68-6.47,4.03-2.68,6.47-2.68,4.74.95,6.47,2.68c3.15,3.15,9.7,14.79,5.77,18.72-.8.8-1.97,1.21-3.48,1.21Zm-8.76-20.91c-1.99,0-3.86.77-5.27,2.18-1.41,1.41-2.18,3.28-2.18,5.27s.78,3.86,2.18,5.27c2.56,2.56,9.87,6.48,14.03,6.48,1.05,0,1.81-.24,2.28-.71,1.13-1.13.89-4.06-.64-7.84-1.49-3.69-3.71-7.06-5.13-8.48-1.41-1.41-3.28-2.18-5.27-2.18Z"/>
        </g>
        <g>
          <path class="cls-5" d="m81.5,67.84c3.24,3.24,8.5,3.24,11.75,0s3.24-8.5,0-11.75-14.28-9.02-17.52-5.77,2.53,14.28,5.77,17.52Z"/>
          <path class="cls-4" d="m87.37,71.12c-2.45,0-4.74-.95-6.47-2.68-3.15-3.15-9.7-14.79-5.77-18.72.8-.8,1.97-1.21,3.49-1.21,4.79,0,12.42,4.17,15.23,6.98,1.73,1.73,2.68,4.03,2.68,6.47s-.95,4.74-2.68,6.47c-1.73,1.73-4.03,2.68-6.47,2.68Zm-8.76-20.91c-1.05,0-1.81.24-2.29.71-2.57,2.57,2.39,12.94,5.77,16.32,1.41,1.41,3.28,2.18,5.27,2.18s3.86-.78,5.27-2.18c1.41-1.41,2.18-3.28,2.18-5.27s-.77-3.86-2.18-5.27c-2.56-2.56-9.86-6.48-14.03-6.48Z"/>
        </g>
        <g>
          <circle class="cls-1" cx="72.42" cy="47.06" r="8.31"/>
          <path class="cls-4" d="m72.42,56.21c-5.05,0-9.15-4.11-9.15-9.15s4.11-9.15,9.15-9.15,9.15,4.11,9.15,9.15-4.11,9.15-9.15,9.15Zm0-16.61c-4.11,0-7.46,3.35-7.46,7.46s3.35,7.46,7.46,7.46,7.46-3.35,7.46-7.46-3.35-7.46-7.46-7.46Z"/>
        </g>
      </g>
      <g>
        <g>
          <path class="cls-5" d="m329.71,132.24c0-4.86-3.94-8.8-8.8-8.8s-8.8,3.94-8.8,8.8,3.94,17.45,8.8,17.45,8.8-12.59,8.8-17.45Z"/>
          <path class="cls-3" d="m320.91,150.53c-5.75,0-9.65-13.73-9.65-18.3,0-5.32,4.33-9.65,9.65-9.65s9.65,4.33,9.65,9.65c0,4.56-3.9,18.3-9.65,18.3Zm0-26.25c-4.38,0-7.95,3.57-7.95,7.95,0,5.08,4.07,16.6,7.95,16.6s7.95-11.52,7.95-16.6c0-4.38-3.57-7.95-7.95-7.95Z"/>
        </g>
        <g>
          <path class="cls-5" d="m329.71,176.16c0,4.86-3.94,8.8-8.8,8.8s-8.8-3.94-8.8-8.8,3.94-17.45,8.8-17.45,8.8,12.59,8.8,17.45Z"/>
          <path class="cls-3" d="m320.91,185.81c-5.32,0-9.65-4.33-9.65-9.65,0-4.56,3.9-18.3,9.65-18.3s9.65,13.73,9.65,18.3c0,5.32-4.33,9.65-9.65,9.65Zm0-26.25c-3.88,0-7.95,11.52-7.95,16.6,0,4.38,3.57,7.95,7.95,7.95s7.95-3.57,7.95-7.95c0-5.08-4.07-16.6-7.95-16.6Z"/>
        </g>
        <g>
          <path class="cls-5" d="m343.18,163c4.86,0,8.8-3.94,8.8-8.8s-3.94-8.8-8.8-8.8-17.45,3.94-17.45,8.8,12.59,8.8,17.45,8.8Z"/>
          <path class="cls-3" d="m343.18,163.85c-4.56,0-18.3-3.9-18.3-9.65s13.73-9.65,18.3-9.65c5.32,0,9.65,4.33,9.65,9.65s-4.33,9.65-9.65,9.65Zm0-17.6c-5.08,0-16.6,4.07-16.6,7.95s11.52,7.95,16.6,7.95c4.38,0,7.95-3.57,7.95-7.95s-3.57-7.95-7.95-7.95Z"/>
        </g>
        <g>
          <path class="cls-5" d="m299.26,163c-4.86,0-8.8-3.94-8.8-8.8s3.94-8.8,8.8-8.8,17.45,3.94,17.45,8.8-12.59,8.8-17.45,8.8Z"/>
          <path class="cls-3" d="m299.26,163.85c-5.32,0-9.65-4.33-9.65-9.65s4.33-9.65,9.65-9.65c4.56,0,18.3,3.9,18.3,9.65s-13.73,9.65-18.3,9.65Zm0-17.6c-4.38,0-7.95,3.57-7.95,7.95s3.57,7.95,7.95,7.95c5.08,0,16.6-4.07,16.6-7.95s-11.52-7.95-16.6-7.95Z"/>
        </g>
        <g>
          <path class="cls-5" d="m342.97,144.44c3.44-3.44,3.44-9.01,0-12.44s-9.01-3.44-12.44,0c-3.44,3.44-9.55,15.12-6.11,18.56,3.44,3.44,15.12-2.68,18.56-6.11Z"/>
          <path class="cls-3" d="m327.47,152.41h0c-1.59,0-2.82-.43-3.66-1.26-2.25-2.25-1.08-6.79.29-10.2,1.49-3.7,3.89-7.63,5.82-9.56,1.82-1.82,4.25-2.83,6.82-2.83s5,1,6.82,2.83c1.82,1.82,2.83,4.24,2.83,6.82s-1,5-2.83,6.82c-2.97,2.97-11.04,7.38-16.1,7.38Zm9.28-22.15c-2.12,0-4.12.83-5.62,2.33-1.51,1.51-3.87,5.08-5.45,9-1.63,4.03-1.88,7.15-.67,8.36.51.51,1.33.77,2.46.77h0c4.43,0,12.18-4.16,14.9-6.88,1.5-1.5,2.33-3.5,2.33-5.62s-.83-4.12-2.33-5.62c-1.5-1.5-3.5-2.33-5.62-2.33Z"/>
        </g>
        <g>
          <path class="cls-5" d="m311.91,175.49c-3.44,3.44-9.01,3.44-12.44,0-3.44-3.44-3.44-9.01,0-12.44,3.44-3.44,15.12-9.55,18.56-6.11,3.44,3.44-2.68,15.12-6.11,18.56Z"/>
          <path class="cls-3" d="m305.69,178.92c-2.58,0-5-1-6.82-2.83-3.76-3.76-3.76-9.88,0-13.64,2.97-2.97,11.04-7.38,16.1-7.38,1.59,0,2.82.43,3.66,1.26,4.07,4.07-2.89,16.53-6.12,19.76-1.82,1.82-4.25,2.83-6.82,2.83Zm9.28-22.15c-4.43,0-12.19,4.16-14.9,6.88-3.1,3.1-3.1,8.14,0,11.24,1.5,1.5,3.5,2.33,5.62,2.33s4.12-.83,5.62-2.33c3.59-3.59,8.86-14.62,6.12-17.36-.51-.51-1.34-.77-2.46-.77Z"/>
        </g>
        <g>
          <path class="cls-5" d="m299.47,144.44c-3.44-3.44-3.44-9.01,0-12.44,3.44-3.44,9.01-3.44,12.44,0s9.55,15.12,6.11,18.56c-3.44,3.44-15.12-2.68-18.56-6.11Z"/>
          <path class="cls-3" d="m314.97,152.41c-5.06,0-13.13-4.41-16.1-7.38-1.82-1.82-2.83-4.25-2.83-6.82s1-5,2.83-6.82c1.82-1.82,4.25-2.83,6.82-2.83s5,1,6.82,2.83c1.93,1.93,4.33,5.86,5.82,9.56,1.38,3.41,2.55,7.94.29,10.2-.84.84-2.07,1.26-3.66,1.26Zm-9.28-22.15c-2.12,0-4.12.83-5.62,2.33-1.5,1.5-2.33,3.5-2.33,5.62s.83,4.12,2.33,5.62c2.72,2.72,10.47,6.88,14.9,6.88,1.12,0,1.95-.26,2.46-.77,1.21-1.21.96-4.34-.67-8.36-1.58-3.91-3.94-7.49-5.45-9-1.5-1.5-3.5-2.33-5.62-2.33Z"/>
        </g>
        <g>
          <path class="cls-5" d="m330.52,175.49c3.44,3.44,9.01,3.44,12.44,0s3.44-9.01,0-12.44-15.12-9.55-18.56-6.11c-3.44,3.44,2.68,15.12,6.11,18.56Z"/>
          <path class="cls-3" d="m336.75,178.92c-2.58,0-5-1-6.82-2.83-3.23-3.23-10.18-15.69-6.12-19.76.84-.84,2.07-1.26,3.66-1.26,5.06,0,13.13,4.41,16.1,7.38,3.76,3.76,3.76,9.88,0,13.64-1.82,1.82-4.25,2.83-6.82,2.83Zm-9.28-22.15c-1.12,0-1.95.26-2.46.77-2.74,2.74,2.52,13.77,6.12,17.36,1.5,1.5,3.5,2.33,5.62,2.33s4.12-.83,5.62-2.33c3.1-3.1,3.1-8.14,0-11.24-2.72-2.72-10.47-6.88-14.9-6.88Z"/>
        </g>
        <g>
          <circle class="cls-1" cx="320.91" cy="153.48" r="8.8" transform="translate(56.84 391.81) rotate(-67.63)"/>
          <path class="cls-4" d="m320.91,163.13c-5.32,0-9.65-4.33-9.65-9.65s4.33-9.65,9.65-9.65,9.65,4.33,9.65,9.65-4.33,9.65-9.65,9.65Zm0-17.6c-4.38,0-7.95,3.57-7.95,7.95s3.57,7.95,7.95,7.95,7.95-3.57,7.95-7.95-3.57-7.95-7.95-7.95Z"/>
        </g>
      </g>
      <g>
        <path class="cls-4" d="m299.56,262.59c-4.95-3.23-5.33-4.2-2.55-7.81,2.78-3.6,9.76-6.45,14.56-4.35,4.8,2.1,6.83,5.03,3.83,8.03-3,3-2.25,3.3-8.63,4.05s-7.21.08-7.21.08Z"/>
        <g>
          <path class="cls-10" d="m328.31,311.6c6.08-1.8,17.79-5.18,15.54-15.31-2.25-10.13-8.78-13.96-21.84-14.64-13.06-.68-45.8,1.25-43.46,23.87,1.35,13.06,49.76,6.08,49.76,6.08Z"/>
          <path class="cls-4" d="m302.71,314.31s0,0,0,0c-16,0-24.41-2.93-25.01-8.7-.58-5.59.88-10.36,4.34-14.19,8.72-9.67,27.84-10.72,35.66-10.72,1.51,0,2.97.04,4.35.11,13.82.72,20.37,5.15,22.63,15.3,2.4,10.82-10.01,14.5-15.97,16.26l-.15.05s-.08.02-.12.03c-.13.02-13.13,1.87-25.72,1.87Zm14.99-31.92c-7.59,0-26.13.99-34.4,10.16-3.12,3.46-4.43,7.79-3.91,12.88.49,4.7,8.55,7.18,23.32,7.18,12.04,0,24.45-1.71,25.42-1.85l.09-.03c5.89-1.75,16.86-4.99,14.8-14.27-2.08-9.38-7.99-13.3-21.06-13.97-1.35-.07-2.79-.11-4.26-.11Z"/>
        </g>
        <path class="cls-4" d="m263.53,343.5c.87-13.9,27.02-31.82,58.84-33.03,31.82-1.2,40.83,15.01,40.83,26.42s-16.21,27.02-42.03,28.82c-25.82,1.8-58.24-12.61-57.64-22.22Z"/>
        <g>
          <path class="cls-5" d="m323.3,344.65c.3-.52.6-1.04.9-1.56,7.48-12.59,20.09-20.87,33.01-21.73-.25-.28-.51-.56-.78-.84-12.96,1.14-25.51,9.5-33,22.11-.31.52-.61,1.04-.91,1.57-1.25,2.18-2.54,4.44-4.39,6.14-4.8,4.42-12.28,4.24-17.48,3.72-2.96-.3-5.96-.84-7.94-2.75-1.81-1.75-2.07-4-1.98-5.57.19-3.11,1.95-6.36,4.49-8.28,3.7-2.8,8.46-3.74,13.07-4.66.84-.17,1.68-.33,2.52-.51,9.57-2.04,16.13-5.6,20.05-10.9,2.02-2.73,3.63-7.08,1.92-10.67-.34-.03-.68-.06-1.03-.09,0,0,.01.02.02.02,1.92,3.3.32,7.56-1.63,10.2-3.78,5.11-10.17,8.57-19.51,10.56-.83.18-1.67.34-2.51.51-4.71.93-9.58,1.9-13.44,4.82-2.74,2.07-4.64,5.58-4.84,8.95-.15,2.52.62,4.69,2.25,6.27,2.18,2.11,5.36,2.69,8.48,3,5.38.53,13.12.71,18.18-3.96,1.94-1.79,3.27-4.11,4.56-6.35Z"/>
          <path class="cls-5" d="m269.46,351.85c.84-.66,1.67-1.36,2.45-2.15,4.16-4.22,6.89-9.52,9.52-14.64l8.99-17.48c-.44.19-.88.39-1.31.58l-8.48,16.49c-2.6,5.06-5.29,10.3-9.36,14.42-.81.82-1.67,1.55-2.55,2.22.24.19.5.38.75.56Z"/>
        </g>
        <g>
          <path class="cls-5" d="m359.79,346.65c1.4-2.1,2.37-4.21,2.9-6.26.15-.94.22-1.9.11-2.87-.3-2.66-1.87-4.88-4-5.64-1.52-.55-3.18-.33-4.6-.05-6.34,1.27-12.27,4.55-16.72,9.23-2.32,2.45-4.24,5.26-6.1,7.98l-11.4,16.73c.38-.02.76-.03,1.13-.06l11.02-16.16c1.83-2.69,3.73-5.47,6-7.87,4.32-4.55,10.08-7.74,16.24-8.97,1.3-.26,2.8-.46,4.12.01,2.06.74,3.2,2.99,3.41,4.89.25,2.2-.39,4.39-1.12,6.43-.31.88-.65,1.74-1.01,2.6Z"/>
          <path class="cls-5" d="m338.23,362.06c-.11.08-.22.16-.33.24.86-.3,1.69-.63,2.52-.97,3.14-3.08,5.23-7.18,5.81-11.56.02-.12-.02-.25-.1-.35-.08-.1-.2-.15-.32-.16-3.64-.18-7.45,1.64-10.55,4.96-2.25,2.4-3.92,5.28-5.55,8.06-.32.56-.65,1.12-.98,1.67-.18.3-.36.58-.54.87.4-.07.8-.13,1.19-.21.04-.07.08-.13.13-.2.33-.56.66-1.12.98-1.67,1.6-2.74,3.25-5.57,5.43-7.9,2.78-2.97,6.16-4.65,9.35-4.68-.75,4.67-3.29,8.99-7.03,11.91Z"/>
        </g>
        <g class="cls-12">
          <path class="cls-5" d="m344.67,340.42c-2.47-.11-5.01-.39-7.18-1.72-.95-.58-1.79-1.35-2.68-2.03-2.86-2.21-6.19-3.61-9.62-4.06-3.24-.42-6.82-.09-9.44-2.31-3.21-2.71-3.29-9-.14-11.8,1.04-.93,2.31-1.47,3.57-1.92,10.25-3.66,21.92-1.78,30.88,4.97,2.39,1.8,4.69,4.09,5.57,7.19,1.09,3.87-.55,8.49-3.7,10.41-2.18,1.33-4.78,1.39-7.25,1.28Z"/>
        </g>
        <g>
          <path class="cls-2" d="m326.28,276.7c2.18-4.2-6.3-16.21-20.94-15.54-14.64.68-19.36,12.16-10.81,18.24,8.56,6.08,28.82,2.93,31.75-2.7Z"/>
          <path class="cls-4" d="m307.88,283.55h0c-5.79,0-10.7-1.23-13.84-3.46-3.8-2.7-5.39-6.63-4.25-10.51,1.55-5.27,7.64-8.91,15.51-9.27,10.41-.48,17.64,5.2,20.57,10.02,1.6,2.63,2.02,5.09,1.16,6.75-2.18,4.2-11.5,6.46-19.15,6.46Zm-1.36-21.57c-.38,0-.76,0-1.14.03-7.14.33-12.62,3.49-13.96,8.05-.93,3.15.42,6.38,3.61,8.65,2.85,2.03,7.42,3.15,12.86,3.15h0c8.14,0,16.06-2.49,17.65-5.55.57-1.09.14-3.04-1.1-5.09-2.59-4.26-8.83-9.24-17.9-9.24Z"/>
        </g>
        <g>
          <path class="cls-4" d="m298.24,273.17l.44.08c4.3.8,8.66,1.16,12.76,1.46.4.03.86.07,1.29-.1.47-.18.77-.51.88-.97.28-1.21-.88-3.12-1.54-3.82-1.16-1.25-2.77-2.05-4.3-2.75-1.26-.58-2.58-1.07-3.85-1.55-1.16-.43-2.36-.88-3.51-1.4-.88-.39-2.2-.85-3.6-.98-.47.22-.91.46-1.33.71.88.26,1.77.55,2.48,1.12.73.58,1.34,1.6,1.06,2.59-.32,1.15-1.76,1.71-2.88,1.52-1.32-.23-2.42-1.22-3.14-1.96-.22-.23-.43-.48-.56-.76-.1.12-.22.23-.32.35.16.27.35.52.55.72.76.78,1.93,1.83,3.38,2.08,1.32.22,2.99-.41,3.39-1.84.33-1.19-.37-2.4-1.22-3.07-.66-.52-1.45-.83-2.22-1.07h.09c1.58,0,3.13.55,4.12.99,1.16.52,2.37.97,3.54,1.41,1.27.47,2.58.96,3.82,1.54,1.56.72,3.05,1.46,4.16,2.65.62.67,1.66,2.43,1.43,3.41-.07.31-.27.53-.6.65-.34.13-.73.1-1.1.07-4.08-.3-8.43-.66-12.71-1.45l-.44-.08c-2.72-.5-6.04-1.13-7.61-3.56-.07.17-.15.33-.21.5,1.72,2.38,5.02,3.01,7.74,3.5Z"/>
          <path class="cls-4" d="m315.93,278.66c.3.02.63.03.98.03.88,0,1.86-.11,2.65-.64.9-.6,1.51-1.75,1.66-3.14.23-2.14-.56-4.5-2.16-6.46-1.59-1.95-3.71-3.29-5.39-4.25-2.15-1.23-4.39-2.22-6.67-3.03-.47-.01-.94-.02-1.42,0,2.7.85,5.34,1.99,7.87,3.43,1.64.93,3.72,2.25,5.26,4.14,1.53,1.88,2.28,4.11,2.06,6.13-.14,1.26-.67,2.29-1.46,2.82-.9.61-2.05.6-3.35.53-4.81-.25-9.77-.51-14.62-1.36-4.21-.74-7.84-1.85-11.03-3.36.04.19.05.37.1.56,3.16,1.45,6.74,2.53,10.86,3.25,4.87.85,9.85,1.11,14.67,1.37Z"/>
        </g>
        <path class="cls-5" d="m311.29,295.31c.46,1.47,1.24,2.82,2.21,3.7,1.53,1.4,3.76,1.71,5.83,1.75,4.86.08,10.25-1.28,13.12-5.52,2.5-3.7,1.93-8.18-2.82-9.41-4.77-1.23-14.17-1.71-17.67,2.76-1.35,1.73-1.41,4.4-.68,6.73Z"/>
        <g class="cls-12">
          <path class="cls-5" d="m313.42,275.92c1.93.03,3.87.02,5.75-.39.5-.11,1-.25,1.44-.5,1.46-.85,1.89-3.07.84-4.39,0-1-.49-1.99-1.27-2.62-.39-.31-.83-.53-1.29-.72-1.87-.81-3.97-1.24-5.97-.83-2,.41-3.87,1.76-4.54,3.68-.68,1.92.09,4.35,1.92,5.25.96.47,2.06.51,3.13.52Z"/>
        </g>
        <g class="cls-12">
          <path class="cls-5" d="m307.09,256.68c1.35.26,2.75.18,4.12.08,1.51-.1,2.73-1.03,2.45-2.7-.38-2.25-4.97-2.54-6.65-2.46-.72.03-1.45.14-2.1.46-3.28,1.62-.03,4.16,2.09,4.6.03,0,.06.01.09.02Z"/>
        </g>
      </g>
    </g>
  </g>
</svg>