<?xml version="1.0" encoding="UTF-8"?>
<svg id="_레이어_2" data-name="레이어 2" xmlns="http://www.w3.org/2000/svg" viewBox="0 0 412.74 348.73">
  <defs>
    <style>
      .cls-1 {
        fill: #4d4d4d;
      }

      .cls-1, .cls-2, .cls-3, .cls-4, .cls-5, .cls-6, .cls-7, .cls-8, .cls-9 {
        stroke-width: 0px;
      }

      .cls-2 {
        fill: #666;
      }

      .cls-3 {
        fill: #f2cf63;
      }

      .cls-4 {
        fill: #a2bff9;
      }

      .cls-5 {
        fill: #333;
      }

      .cls-6 {
        fill: #fff;
      }

      .cls-7 {
        fill: #251d1b;
      }

      .cls-8 {
        fill: #fc5e71;
      }

      .cls-9 {
        fill: #ccd7f2;
      }
    </style>
  </defs>
  <g id="_迹_1" data-name="卵迹_1">
    <g>
      <path class="cls-9" d="m379.19,146.71c-9,18.92-23.91,36.69-22.97,57.62.49,10.87,5.32,20.98,8.49,31.39,3.17,10.41,4.48,22.43-1.45,31.54-6.01,9.23-17.61,12.81-28.34,15.32-80,18.69-163.63,14.73-245.09,4.04-13.26-1.74-26.9-3.79-38.34-10.7-12.34-7.45-20.91-19.84-27.38-32.71-14.04-27.93-19.84-59.37-21.56-90.58-1.05-19.03-.57-38.54,5.84-56.49,8.44-23.63,27.08-43.1,49.65-54.04,22.58-10.94,48.79-13.58,73.46-8.98,25.01,4.66,48.96,16.5,74.39,15.77,37.85-1.09,71.33-29.86,109.17-28.42,27.92,1.06,53.8,19.86,65.71,45.14,11.91,25.28,10.43,55.87-1.57,81.11Z"/>
      <g>
        <path class="cls-5" d="m198.01,14s19.12-14.5,47.11,3c27.99,17.5,31.31,38.29,31.27,63.38-.06,40.23,15.14,23.86,21.24,34.34,9.87,16.96-4.43,28.31-5.68,35.31-1.25,7,22.95,13.41,16.7,25.91-6.25,12.5-102.9,30.78-102.9,30.78l-113.48-25.74s-33.24-17.25-26.99-52.49c6.25-35.24,41.24-15.25,53.74-26.99,12.5-11.75,4.99-61.99,30.49-77.98,25.5-16,41.5-11,41.5-11,0,0-1-12.5,1.5-12.5s1.25,10.75,1.25,10.75c0,0,3.25-8.5,5.5-8s-1.25,11.25-1.25,11.25Z"/>
        <path class="cls-6" d="m258.31,94.15c1.29-5.52,8.29-7.02,11.54-4.02,3.25,3,3.15,23.91-10.8,24.58l-.74-20.56Z"/>
        <g>
          <g>
            <path class="cls-3" d="m157.37,159.87c-18,4-75.48-22.5-94.48,9-19,31.49,1,41.99-11.5,55.49-12.5,13.5-23.5,28.49-22.5,48.99,1,20.5,1.5,22.5-5.5,31.49-7,9-21.5,31.49-22.5,42.99h410.92s-1.5-36.49-9-49.99c-7.5-13.5-26.99-18.5-33.99-30.99-7-12.5-11.5-44.99-20.5-48.49-9-3.5-14-2-14-2,0,0-10-63.49-52.49-59.49-42.49,4-51.99,12.5-65.49,11.5-13.5-1-58.99-8.5-58.99-8.5Z"/>
            <path class="cls-5" d="m411.83,348.73s-.01,0-.02,0H.9c-.25,0-.49-.11-.66-.29-.17-.19-.26-.44-.23-.69,1.05-12.05,16.02-34.89,22.68-43.47,6.44-8.28,6.34-10.13,5.46-27.9l-.15-2.99c-1.02-20.95,10.32-36.24,22.73-49.65,5.2-5.61,4.48-10.53,3.49-17.34-1.3-8.94-2.92-20.07,7.9-38,6.52-10.82,18.06-16.07,35.28-16.07,11.29,0,23.34,2.21,33.96,4.15,8.54,1.56,15.91,2.91,21.44,2.91,1.7,0,3.18-.14,4.37-.4.11-.02.23-.03.34,0,.45.07,45.6,7.5,58.91,8.49.71.05,1.41.08,2.12.08,4.96,0,9.69-1.28,16.24-3.06,9.76-2.65,23.12-6.27,46.97-8.52,18.17-1.7,33.36,8.77,43.77,30.16,6.21,12.76,8.88,25.67,9.53,29.17.56-.08,1.36-.16,2.37-.16,2.33,0,6.17.41,11.23,2.38,5.89,2.29,9.61,14.84,13.54,28.14,2.32,7.84,4.72,15.95,7.41,20.75,3.32,5.93,9.54,10.11,16.12,14.54,6.86,4.61,13.95,9.38,17.88,16.46,7.32,13.18,8.97,47.1,9.1,50.21.02.07.03.14.03.22,0,.5-.4.9-.9.9Zm-409.92-1.8h408.96c-.3-5.78-2.19-36.69-8.84-48.65-3.72-6.7-10.63-11.34-17.31-15.84-6.46-4.35-13.15-8.84-16.68-15.15-2.79-4.98-5.11-12.82-7.57-21.12-3.47-11.72-7.4-25-12.47-26.97-4.8-1.87-8.4-2.26-10.58-2.26-1.84,0-2.83.28-2.84.28-.25.07-.52.04-.74-.1-.22-.14-.37-.36-.41-.62-.09-.59-9.74-58.91-47.8-58.91-1.22,0-2.47.06-3.72.18-23.7,2.23-36.98,5.83-46.67,8.46-6.68,1.81-11.51,3.12-16.71,3.12-.76,0-1.5-.03-2.26-.08-12.97-.96-55.84-7.98-58.9-8.48-1.31.27-2.81.41-4.59.41-5.69,0-13.14-1.36-21.76-2.94-10.55-1.93-22.52-4.12-33.64-4.12-16.53,0-27.57,4.97-33.74,15.2-10.49,17.39-8.92,28.16-7.66,36.81.98,6.75,1.83,12.58-3.95,18.82-12.14,13.12-23.25,28.05-22.26,48.33l.15,2.99c.88,17.59,1.01,20.3-5.84,29.1-7.1,9.12-20.55,30.24-22.19,41.54Z"/>
          </g>
          <path class="cls-5" d="m411.83,348.68s0,0-.02,0H.9c-.24,0-.47-.1-.63-.28s-.24-.41-.22-.65c1.05-12.04,16.01-34.87,22.67-43.44,6.45-8.29,6.35-10.15,5.47-27.93l-.15-3c-1.02-20.93,10.32-36.21,22.72-49.61,5.21-5.63,4.49-10.56,3.5-17.38-1.3-8.93-2.92-20.05,7.89-37.97,6.51-10.8,18.04-16.05,35.24-16.05,11.28,0,23.33,2.21,33.96,4.15,8.54,1.56,15.91,2.91,21.45,2.91,1.73,0,3.17-.13,4.38-.4.11-.02.22-.02.32,0,.45.07,45.61,7.5,58.91,8.49.71.05,1.42.08,2.13.08,4.96,0,9.7-1.28,16.25-3.06,9.75-2.65,23.11-6.27,46.96-8.51,1.3-.12,2.61-.18,3.88-.18,16.41,0,30.19,10.48,39.84,30.31,6.24,12.81,8.9,25.78,9.53,29.2.56-.08,1.37-.17,2.41-.17,2.33,0,6.16.41,11.21,2.38,5.86,2.28,9.58,14.82,13.51,28.1,2.32,7.84,4.72,15.95,7.42,20.76,3.33,5.94,9.55,10.13,16.13,14.56,6.85,4.61,13.94,9.38,17.86,16.44,7.33,13.19,8.96,47.15,9.1,50.2.02.07.02.13.02.21,0,.47-.38.85-.85.85Zm-409.98-1.7h409.07c-.29-5.65-2.18-36.72-8.85-48.72-3.73-6.71-10.64-11.36-17.32-15.85-6.46-4.35-13.14-8.84-16.67-15.14-2.79-4.98-5.11-12.81-7.57-21.11-3.47-11.73-7.41-25.02-12.5-27-4.81-1.87-8.41-2.26-10.59-2.26-1.85,0-2.84.28-2.85.28-.23.07-.49.03-.7-.1-.21-.13-.35-.34-.39-.59-.09-.59-9.74-58.95-47.85-58.95-1.22,0-2.47.06-3.72.18-23.71,2.23-36.98,5.83-46.68,8.46-6.68,1.81-11.51,3.12-16.7,3.12-.75,0-1.51-.03-2.25-.08-12.98-.96-55.92-7.99-58.9-8.48-1.3.27-2.81.41-4.59.41-5.69,0-13.13-1.36-21.75-2.94-10.56-1.93-22.52-4.12-33.65-4.12-16.55,0-27.6,4.98-33.78,15.23-10.5,17.4-8.93,28.18-7.66,36.84.98,6.74,1.83,12.56-3.94,18.78-12.15,13.12-23.26,28.07-22.27,48.37l.15,2.99c.89,17.97,1.01,20.27-5.83,29.06-7.11,9.14-20.6,30.33-22.21,41.62Z"/>
        </g>
        <g>
          <path class="cls-6" d="m258.6,134.87c-6.5,14-32.24,20.45-32.24,20.45l-5.5,19.05s7.5,11-14,15.5-49.49-29.99-49.49-29.99c0,0,6-2.5,10.5-13,4.5-10.5,0-26.49,0-26.49-21,4.5-27.49-15-20-27.49,5.24-8.73,13.65-6.49,18.24-4.34l1.09,3.92s5.34,9.67,7.67,8.34c2.33-1.34,5.33-15,9.67-33.33,4.33-18.33,14.66-20,14.66-20,0,0,.34,16.34,10.67,16,10.33-.33,8.67-20.33,8.67-20.33,0,0,2-1,3.33,3.33,1.33,4.34,4.33,15,10.67,15s5.07-8.48,5.01-8.98c.29.48,5.49,8.92,11.32,6.98,6-2,2.67-14.33,2.67-14.33,0,0,.03.03.1.1,9.33,9.28,13.67,22.45,11.79,35.47-.64,4.4-1.26,8.27-1.56,11.17-1,9.5,3.25,28.99-3.25,42.99Z"/>
          <path class="cls-5" d="m202.85,191.12c-20.97,0-45.12-29.46-46.14-30.71-.17-.21-.23-.48-.16-.74.07-.26.25-.47.5-.58.05-.02,5.76-2.55,10.04-12.55,3.78-8.82.96-21.89.16-25.17-9.38,1.77-16.96-1.17-20.79-7.92-3.51-6.21-3.25-14.45.68-21,2.67-4.45,6.41-6.7,11.11-6.7,3.21,0,6.25,1.1,8.22,2.03.23.1.39.3.46.54l1.06,3.82c2.14,3.85,5.2,7.94,6.39,7.94,1.85-1.04,4.89-13.96,8.1-27.63l1.22-5.17c4.41-18.67,14.91-20.57,15.35-20.64.24-.04.49.03.68.19.19.16.3.39.31.64,0,.15.43,15.17,9.5,15.17.09,0,.19,0,.29,0,1.74-.06,3.17-.73,4.35-2.05,4.47-5.01,3.51-17.23,3.5-17.35-.03-.35.16-.68.47-.83.09-.04.42-.19.9-.19,1.09,0,2.61.7,3.63,4.03l.16.51c1.26,4.16,4.22,13.89,9.7,13.89,1.22,0,2.16-.38,2.85-1.16,1.8-2.03,1.42-6.07,1.32-6.85-.05-.4.19-.78.57-.91.38-.13.8.01,1.01.36.17.28,4.2,6.86,8.82,6.86.51,0,1.01-.08,1.5-.25,4.29-1.43,2.98-10.08,2.12-13.3-.1-.37.06-.76.39-.96.33-.19.75-.14,1.03.12l.1.1c9.46,9.41,13.95,22.94,12.04,36.2-.17,1.17-.34,2.3-.5,3.39-.45,3.03-.84,5.64-1.06,7.75-.3,2.9-.11,6.74.11,11.2.5,9.91,1.12,22.24-3.44,32.06-6.18,13.31-28.65,19.8-32.33,20.79l-5.26,18.22c.58,1.02,1.99,4.06.62,7.47-1.68,4.18-6.85,7.2-15.36,8.98-1.34.28-2.75.42-4.19.42Zm-44.15-31c4.05,4.76,25.85,29.29,44.15,29.29,1.32,0,2.61-.13,3.84-.39,7.81-1.63,12.69-4.38,14.13-7.95,1.32-3.27-.64-6.2-.66-6.23-.14-.21-.18-.47-.11-.72l5.5-19.05c.08-.29.32-.52.61-.59.25-.06,25.43-6.51,31.68-19.98,4.38-9.44,3.77-21.54,3.28-31.26-.23-4.53-.43-8.43-.11-11.46.23-2.15.62-4.78,1.07-7.82.16-1.08.33-2.21.5-3.38,1.7-11.79-1.87-23.8-9.62-32.68.62,4.01.9,10.79-3.83,12.37-.66.22-1.35.33-2.04.33-3.65,0-6.78-3.06-8.61-5.33-.1,1.75-.53,3.85-1.82,5.31-1.02,1.15-2.4,1.73-4.12,1.73-6.74,0-9.84-10.19-11.33-15.09l-.15-.51c-.5-1.63-1.11-2.44-1.61-2.71.15,3.09.25,12.95-3.98,17.69-1.49,1.67-3.36,2.55-5.56,2.62-.12,0-.23,0-.34,0-9.23,0-10.86-11.96-11.14-15.73-2.55.94-9.67,4.8-13.04,19.07l-1.22,5.17c-4.34,18.45-6.53,27.37-8.85,28.71-.28.16-.58.24-.91.24-2.79,0-6.78-6.81-7.93-8.9-.03-.06-.06-.12-.08-.18l-.98-3.54c-1.82-.81-4.43-1.71-7.15-1.71-4.06,0-7.31,1.98-9.65,5.88-3.56,5.94-3.83,13.69-.66,19.29,2.77,4.89,7.76,7.58,14.05,7.58,1.79,0,3.71-.22,5.7-.64.44-.1.88.17,1,.6.19.67,4.53,16.41-.04,27.06-3.54,8.26-7.99,11.72-9.96,12.92Z"/>
        </g>
        <path class="cls-5" d="m238.79,150c-13.31,4.37-34.94.03-50.37-10.27,0,0,20.91,26.72,34.54,27.31l3.38-11.71,12.44-5.32Z"/>
        <g>
          <path class="cls-5" d="m163.87,109.23c-.38,0-.72-.25-.82-.64-.83-3.19-3.59-11.82-6.31-13.39-.43-.25-.71-.22-.89-.17-1.31.36-2.46,1.57-3.24,3.41-1.29,3.06-1.19,6.89.26,9.52.23.41.08.93-.34,1.16-.41.23-.93.08-1.16-.34-1.69-3.07-1.82-7.49-.34-11.01.99-2.33,2.53-3.89,4.36-4.39.72-.2,1.46-.09,2.19.34,3.83,2.21,6.78,13.19,7.11,14.43.12.45-.15.92-.61,1.04-.07.02-.14.03-.22.03Z"/>
          <path class="cls-5" d="m162.29,104.21c-.06,0-.12,0-.19-.02l-4.93-1.1c-.46-.1-.75-.56-.65-1.02.1-.46.57-.74,1.02-.65l4.93,1.1c.46.1.75.56.65,1.02-.09.4-.44.67-.83.67Z"/>
        </g>
        <path class="cls-6" d="m146.49,44.07c1.5,1.93,4.15,2.61,6.6,2.57,5.22-.07,10.48-2.76,15.46-1.22,2.88.89,5.18,3.09,7.97,4.23,3,1.23,6.69,1.06,9.24-.95,2.55-2,3.55-5.97,1.78-8.69-1.75-2.69-5.36-3.42-8.57-3.43-3.21,0-6.55.46-9.53-.75-3.8-1.55-6.07-5.43-9.39-7.85-.87-.63-1.85-1.18-2.92-1.28-.98-.1-1.96.19-2.88.56-4.23,1.73-7.54,5.53-8.67,9.96-.59,2.31-.54,4.96.92,6.84Z"/>
        <g>
          <path class="cls-5" d="m210.31,94.22c0-2.94-1.48-5.33-3.3-5.33s-3.3,2.39-3.3,5.33,1.48,5.33,3.3,5.33,3.3-2.39,3.3-5.33Z"/>
          <path class="cls-5" d="m248.42,94.22c0-2.94-1.48-5.33-3.3-5.33s-3.3,2.39-3.3,5.33,1.48,5.33,3.3,5.33,3.3-2.39,3.3-5.33Z"/>
          <path class="cls-5" d="m214.11,81.41c.12-1.37-.95-3.14-1.88-3.73-1-.64-2.23-.8-3.42-.82-4.21-.07-8.43,1.44-11.64,4.17-3.52,2.99,4.42,2.91,5.89,2.83,2.94-.15,5.87-.39,8.79-.72.5-.06,1.02-.12,1.45-.39.51-.32.75-.8.8-1.34Z"/>
          <path class="cls-5" d="m236.62,86.84c-.55-1.26-.09-3.28.61-4.14.75-.92,1.87-1.46,2.99-1.86,3.98-1.39,8.46-1.29,12.36.28,4.29,1.73-3.27,4.16-4.7,4.55-2.84.78-5.69,1.48-8.57,2.09-.49.1-1.01.21-1.5.09-.59-.14-.97-.52-1.19-1.02Z"/>
          <g>
            <path class="cls-6" d="m237.18,120.38c2.42,1.12,2.09,4.75-.81,6.25-2.9,1.5-12.52,3.12-12.52,3.12"/>
            <path class="cls-5" d="m223.85,130.6c-.41,0-.77-.29-.84-.71-.08-.46.23-.9.7-.98.09-.02,9.52-1.62,12.27-3.04,1.22-.63,1.98-1.79,1.96-2.96,0-.47-.17-1.32-1.12-1.77-.43-.2-.61-.71-.41-1.13.2-.42.7-.61,1.13-.41,1.29.6,2.07,1.82,2.1,3.27.04,1.81-1.09,3.58-2.88,4.5-2.98,1.54-12.37,3.14-12.77,3.21-.05,0-.1.01-.14.01Z"/>
          </g>
          <g>
            <line class="cls-6" x1="231.32" y1="131.5" x2="229.35" y2="135.37"/>
            <path class="cls-5" d="m229.35,136.23c-.13,0-.26-.03-.38-.09-.42-.21-.59-.73-.37-1.15l1.97-3.87c.21-.42.73-.59,1.15-.37.42.21.59.73.37,1.14l-1.97,3.87c-.15.3-.45.47-.76.47Z"/>
          </g>
          <path class="cls-5" d="m230.69,113.56c-.36,0-.69-.23-.81-.58-.15-.45.09-.93.54-1.08,1.28-.43,2.65-1.7,3.32-3.09.42-.87.53-1.69.31-2.31-.3-.84-1.04-1.66-1.82-2.53-1.18-1.31-2.39-2.66-2.39-4.42,0-.47.38-.85.85-.85s.85.38.85.85c0,1.1.95,2.16,1.96,3.28.86.95,1.74,1.94,2.16,3.1.38,1.07.25,2.33-.38,3.63-.88,1.8-2.61,3.39-4.32,3.96-.09.03-.18.04-.27.04Z"/>
        </g>
        <g>
          <path class="cls-5" d="m311.03,240.71c21.55-8.85,30.8-14.1,29.05-18.1-1.75-4-9-2.5-12.75,0s-20.42,10.39-31.58,15.07c-11.16,4.68-27.66,3.93-29.66,5.43s-.58,5.83,8.16,4.92,36.78-7.31,36.78-7.31Z"/>
          <g>
            <path class="cls-6" d="m322.59,196.48c-2.69-6.75-12.44-36.62-17.27-43.11-4.83-6.49-11.99-13.13-33.89-19.94-21.91-6.81-21.47-3.76-21.47-3.76-8.53,10.06,10.26,20.35,10.26,20.35-8.05,2.06-8.16,9.51-8.16,9.51-9.3,1.27-11.58,10.5-11.58,10.5-9.2,5.73-9.06,30.12-3.92,36.21,5.14,6.09,11.57,1.92,11.57,1.92-1.69,14.72,22.96,28.63,22.96,28.63,0,0,.77,3.79,2.35,9.99,22.68-2.58,39.53-2.11,56.57-17.62,0,0-5.93-28.98-7.41-32.68Z"/>
            <path class="cls-5" d="m273.43,247.63c-.38,0-.73-.26-.82-.64-1.28-5.04-2.04-8.54-2.28-9.65-3-1.75-23.18-14.04-23.14-27.76-.98.4-2.39.83-4.02.83-2.8,0-5.24-1.22-7.27-3.62-3.21-3.81-4.59-13.98-3.15-23.15,1.08-6.83,3.55-11.83,6.99-14.15.53-1.69,3.32-9.2,11.53-10.69.25-1.85,1.43-6.76,6.91-9-3.2-2.03-10.05-7.02-11.15-12.96-.5-2.68.22-5.22,2.14-7.55.05-.14.13-.27.23-.39.44-.51,1.29-.75,2.66-.75,3.45,0,10.05,1.51,19.61,4.48,20.79,6.46,28.76,12.77,34.32,20.25,3.67,4.94,9.98,22.68,14.15,34.43,1.42,4,2.55,7.17,3.23,8.87,1.49,3.73,7.21,31.64,7.45,32.82.06.29-.04.6-.26.8-14.96,13.61-29.64,15.07-48.23,16.91-2.84.28-5.78.57-8.82.92-.03,0-.06,0-.1,0Zm-25.3-40.32c.16,0,.31.04.45.13.28.17.43.49.4.82-1.6,13.99,22.29,27.66,22.53,27.79.21.12.37.33.41.57,0,.04.73,3.55,2.15,9.23,2.79-.31,5.49-.58,8.11-.84,18.12-1.8,32.47-3.22,46.89-16.15-.78-3.78-5.94-28.73-7.27-32.06-.69-1.74-1.82-4.91-3.25-8.93-4.14-11.65-10.39-29.25-13.92-33.98-4.32-5.81-10.83-12.6-33.46-19.64-11.7-3.64-16.85-4.4-19.1-4.4-.8,0-1.18.1-1.32.16-.03.08-.08.16-.14.23-1.69,1.99-2.31,4.05-1.9,6.3,1.27,6.85,11.81,12.69,11.92,12.75.31.17.48.51.44.85-.04.35-.3.63-.63.72-7.3,1.86-7.52,8.42-7.52,8.7,0,.42-.32.77-.74.83-8.63,1.18-10.85,9.77-10.87,9.86-.05.22-.19.4-.38.52-3.16,1.97-5.46,6.64-6.49,13.15-1.36,8.6-.11,18.38,2.77,21.79,1.69,2,3.69,3.01,5.97,3.01,2.5,0,4.47-1.24,4.49-1.26.14-.09.3-.14.46-.14Z"/>
          </g>
          <g>
            <path class="cls-5" d="m286.34,159.23c-.14,0-.28-.03-.41-.1-8.75-4.78-16.94-7.4-25.79-8.26-.47-.04-.81-.46-.77-.93.04-.47.47-.81.93-.77,9.08.88,17.49,3.56,26.45,8.45.41.23.56.74.34,1.16-.15.28-.45.44-.75.44Z"/>
            <path class="cls-5" d="m273.71,168.5c-.17,0-.34-.05-.49-.16-6.6-4.71-21.19-7.95-21.34-7.98-.46-.1-.75-.55-.65-1.01.1-.46.56-.75,1.01-.65.61.13,15.08,3.35,21.96,8.26.38.27.47.8.2,1.19-.17.23-.43.36-.69.36Z"/>
            <path class="cls-5" d="m257.12,175.98c-.12,0-.25-.03-.37-.09-.11-.05-10.87-5.23-16.24-5.01-.44.05-.87-.34-.89-.82-.02-.47.35-.87.82-.89.13,0,.26,0,.4,0,5.89,0,16.21,4.97,16.65,5.19.42.21.6.71.39,1.14-.15.3-.45.48-.77.48Z"/>
            <path class="cls-5" d="m248.12,209.02c-.47,0-.85-.38-.85-.84-.08-8.77,4.15-20.01,4.33-20.48.17-.44.66-.66,1.1-.49.44.17.66.66.49,1.1-.04.11-4.29,11.42-4.22,19.86,0,.47-.37.85-.84.86h0Z"/>
            <path class="cls-5" d="m250.86,193.15c-.34,0-.67-.21-.8-.55l-1.51-3.99c-.17-.44.05-.93.49-1.1.44-.16.93.06,1.1.49l1.51,3.99c.17.44-.05.93-.49,1.1-.1.04-.2.05-.3.05Z"/>
            <path class="cls-5" d="m261.03,138.95c-.1,0-.21-.02-.31-.06l-8.52-3.3c-.37-.14-.59-.52-.53-.92l.27-1.82c.07-.46.49-.79.97-.72.46.07.79.5.72.97l-.17,1.15,7.34,2.84c2.43-2.81,2.45-5.4,2.45-5.43,0-.47.38-.85.85-.85h0c.47,0,.85.38.85.85,0,.14-.03,3.57-3.3,7.02-.16.17-.39.27-.62.27Z"/>
            <path class="cls-5" d="m308.66,176.78c-.22,0-.44-.08-.61-.25l-7.59-7.69c-.33-.33-.33-.87,0-1.2.33-.33.87-.33,1.2,0l7.59,7.69c.33.33.33.87,0,1.2-.17.16-.38.25-.6.25Z"/>
            <path class="cls-5" d="m304.96,177.5s-.04,0-.07,0c-.47-.04-.82-.44-.78-.91l.69-9.07c.04-.47.44-.83.91-.78.47.04.82.44.78.91l-.69,9.07c-.03.45-.41.79-.85.79Z"/>
            <path class="cls-5" d="m295.75,186.47c-.22,0-.44-.08-.61-.25l-7.59-7.69c-.33-.33-.33-.87,0-1.2.33-.33.87-.33,1.2,0l7.59,7.69c.33.33.33.87,0,1.2-.17.16-.38.25-.6.25Z"/>
            <path class="cls-5" d="m292.05,187.19s-.04,0-.06,0c-.47-.04-.82-.44-.78-.91l.69-9.07c.04-.47.45-.82.91-.78.47.04.82.44.78.91l-.69,9.07c-.03.45-.41.79-.85.79Z"/>
            <path class="cls-5" d="m284.28,195c-.22,0-.44-.08-.61-.25l-7.59-7.69c-.33-.33-.33-.87,0-1.2.33-.33.87-.33,1.2,0l7.59,7.69c.33.33.33.87,0,1.2-.17.16-.38.25-.6.25Z"/>
            <path class="cls-5" d="m280.58,195.72s-.04,0-.07,0c-.47-.04-.82-.44-.78-.91l.69-9.07c.04-.47.43-.82.91-.78.47.04.82.44.78.91l-.69,9.07c-.03.45-.41.79-.85.79Z"/>
            <path class="cls-5" d="m278.19,239.68s-.07,0-.1,0c-.24-.03-5.97-.73-8.27-2.46-.38-.28-.45-.82-.17-1.19.28-.37.82-.45,1.19-.17,1.61,1.21,5.92,1.95,7.45,2.13.47.06.8.48.74.95-.05.43-.42.75-.84.75Z"/>
          </g>
        </g>
        <path class="cls-5" d="m265.3,348.68c-.38,0-.72-.25-.82-.63-.12-.45.15-.92.6-1.04,4.72-1.27,3.74-16.77,3.22-25.09-.16-2.53-.3-4.71-.3-6.24,0-2.8.59-7.09,1.28-12.06,1.13-8.19,2.42-17.48,1.41-22.77-.59-3.11-2.03-8.28-3.56-13.75-2.84-10.2-5.78-20.74-5.07-23.92,1.17-5.28,9.15-5.2,9.48-5.2.47,0,.84.4.84.87,0,.46-.39.84-.85.84,0,0,.01,0-.05,0-.55,0-6.92.09-7.75,3.86-.61,2.77,2.53,14.04,5.05,23.09,1.53,5.51,2.98,10.71,3.59,13.89,1.07,5.57-.24,15-1.39,23.32-.65,4.71-1.27,9.15-1.27,11.83,0,1.48.14,3.64.29,6.14.67,10.64,1.59,25.21-4.47,26.85-.07.02-.15.03-.22.03Z"/>
        <path class="cls-5" d="m327.93,220.08c-.29,0-.57-.14-.73-.4-.25-.4-.12-.92.27-1.17.06-.04,1.53-.94,6.54-2.94.43-.18.93.04,1.11.47.17.44-.04.93-.47,1.11-4.82,1.93-6.26,2.8-6.28,2.81-.14.08-.29.13-.44.13Z"/>
        <path class="cls-5" d="m125.37,348.68c-.39,0-.75-.28-.83-.68-.1-.5-2.5-12.41,2.58-22.07,4.65-8.84,8.44-22.3,6.42-32.45-1.77-8.85,1.38-20.9,3.91-30.59.39-1.49.76-2.92,1.1-4.26.11-.46.57-.74,1.03-.62.46.11.73.58.62,1.03-.34,1.35-.71,2.79-1.1,4.28-2.49,9.51-5.58,21.36-3.89,29.83,2.11,10.55-1.79,24.46-6.58,33.57-4.79,9.11-2.44,20.81-2.42,20.93.09.46-.2.91-.66,1.01-.06.01-.12.02-.17.02Z"/>
        <path class="cls-5" d="m201.83,200.61c-26.71,0-52.9-38.26-54.13-40.07-.26-.39-.16-.92.23-1.18.39-.26.92-.16,1.18.23.33.49,33.23,48.55,61.6,37.7,9.44-3.61,15.59-8.84,18.29-15.54,3.63-9.04-.37-17.7-.41-17.78-.2-.43-.02-.93.41-1.13.43-.2.93-.02,1.13.41.18.38,4.36,9.42.45,19.15-2.88,7.17-9.36,12.72-19.26,16.5-3.14,1.2-6.32,1.74-9.49,1.74Z"/>
        <path class="cls-5" d="m209.11,312.19c-.09,0-.19-.01-.28-.05-.44-.15-.68-.64-.53-1.08l7.22-21c.15-.45.64-.68,1.08-.53.44.15.68.64.53,1.08l-7.22,21c-.12.35-.45.57-.8.57Z"/>
        <path class="cls-5" d="m211.01,334.69c-.07,0-.13,0-.2-.02-.46-.11-.74-.57-.63-1.03l7.85-32.99c.11-.46.57-.74,1.03-.63.46.11.74.57.63,1.03l-7.85,32.99c-.09.39-.44.65-.83.65Z"/>
        <path class="cls-3" d="m160.61,114.71h0c-1.79,0-3.25,1.46-3.25,3.25v7.78c0,1.79,1.46,3.25,3.25,3.25h0c1.79,0,3.25-1.46,3.25-3.25v-7.78c0-1.79-1.46-3.25-3.25-3.25Z"/>
      </g>
      <path class="cls-8" d="m137.09,176.92c-.54.8-1.09,1.63-1.28,2.58-.19.95.07,2.05.87,2.59.91.62,2.16.3,3.15-.18,3.67-1.77,6.21-5.67,6.34-9.75.05-1.4-.23-2.93-1.26-3.88-.78-.72-1.87-1-2.92-1.21-3.97-.8-8.05-1.06-12.09-.77-.92.9-.41,2.59.67,3.31,1.07.71,2.45.73,3.74.71-1.62.87-3.24,1.74-4.85,2.62-.26.14-.52.28-.7.52-.24.33-.26.77-.28,1.17-.03,1.03-.02,2.16.65,2.93.92,1.07,2.61.94,3.93.46,1.32-.48,2.63-1.23,4.03-1.11Z"/>
      <path class="cls-8" d="m158.12,200.48c-.02.97-.03,1.96.32,2.86s1.16,1.69,2.13,1.71c1.1.02,1.98-.91,2.55-1.85,2.13-3.48,2.15-8.13.06-11.63-.72-1.2-1.78-2.33-3.16-2.58-1.05-.18-2.11.17-3.11.56-3.77,1.47-7.34,3.47-10.58,5.9-.29,1.26,1.06,2.4,2.35,2.42s2.45-.72,3.53-1.42c-.89,1.61-1.78,3.22-2.67,4.83-.14.26-.29.52-.31.81-.03.41.19.79.4,1.14.53.88,1.15,1.82,2.13,2.11,1.35.4,2.7-.63,3.55-1.75s1.54-2.46,2.79-3.11Z"/>
      <path class="cls-8" d="m188.38,216.35c.18.95.38,1.92.91,2.73.53.81,1.49,1.41,2.44,1.23,1.08-.21,1.75-1.3,2.11-2.34,1.36-3.84.41-8.4-2.36-11.38-.95-1.03-2.22-1.91-3.63-1.86-1.07.04-2.03.61-2.92,1.2-3.38,2.23-6.46,4.92-9.12,7.97-.02,1.29,1.54,2.13,2.8,1.88,1.26-.25,2.25-1.21,3.16-2.13-.53,1.76-1.07,3.52-1.6,5.27-.09.28-.17.57-.13.86.06.4.35.73.63,1.03.7.75,1.5,1.55,2.52,1.62,1.4.11,2.51-1.17,3.11-2.45.6-1.27,1-2.72,2.08-3.62Z"/>
      <path class="cls-8" d="m224.13,209.34c.94.21,1.91.42,2.86.25.95-.17,1.89-.81,2.1-1.75.24-1.08-.5-2.12-1.31-2.87-2.98-2.77-7.54-3.72-11.38-2.36-1.32.47-2.64,1.28-3.15,2.59-.39.99-.25,2.11-.06,3.16.7,3.99,1.94,7.88,3.68,11.54,1.18.53,2.56-.57,2.84-1.83.27-1.26-.22-2.55-.69-3.74,1.4,1.19,2.8,2.38,4.2,3.57.22.19.46.38.74.46.39.11.81-.03,1.19-.17.97-.35,2.02-.76,2.49-1.67.66-1.24-.08-2.77-1.01-3.83-.93-1.06-2.1-2-2.5-3.35Z"/>
      <path class="cls-6" d="m342.25,149.46l7.53-2.39-7.54-2.57c-2.25-.59-3.98-2.41-4.46-4.69l-2.39-11.32-2.57,11.07c-.54,2.33-2.39,4.14-4.73,4.64l-7.09,2.44,6.85,2.42c2.4.56,4.24,2.49,4.67,4.91l1.98,10.95,2.88-10.96c.61-2.32,2.51-4.07,4.87-4.5Z"/>
      <path class="cls-5" d="m41.17,148.17l5.84-1.85-5.84-1.99c-1.75-.46-3.09-1.87-3.46-3.63l-1.85-8.77-1.99,8.58c-.42,1.81-1.85,3.21-3.67,3.6l-5.5,1.89,5.31,1.87c1.86.43,3.28,1.93,3.62,3.81l1.53,8.49,2.24-8.49c.47-1.8,1.94-3.16,3.77-3.49Z"/>
      <path class="cls-5" d="m300.5,24.95l8.15-2.59-8.15-2.78c-2.44-.64-4.3-2.6-4.82-5.07l-2.59-12.24-2.78,11.97c-.59,2.52-2.58,4.48-5.12,5.02l-7.67,2.64,7.4,2.61c2.59.6,4.58,2.69,5.05,5.31l2.14,11.84,3.12-11.85c.66-2.51,2.71-4.4,5.26-4.86Z"/>
      <g>
        <path class="cls-5" d="m364.86,175.27h5.82c8.03,0,14.55,6.52,14.55,14.55v5.13h-34.93v-5.13c0-8.03,6.52-14.55,14.55-14.55Z"/>
        <path class="cls-5" d="m328.36,330.32h78.82c2.78,0,5.03,2.25,5.03,5.03v11.84h-88.88v-11.84c0-2.78,2.25-5.03,5.03-5.03Z"/>
        <g>
          <rect class="cls-2" x="327.55" y="323.84" width="80.45" height="6.81" rx="3.02" ry="3.02"/>
          <path class="cls-5" d="m405.27,331.55h-75.01c-2,0-3.62-1.62-3.62-3.62v-1.38c0-2,1.62-3.62,3.62-3.62h75.01c2,0,3.62,1.62,3.62,3.62v1.38c0,2-1.62,3.62-3.62,3.62Zm-75.01-6.81c-1,0-1.82.82-1.82,1.82v1.38c0,1,.82,1.82,1.82,1.82h75.01c1,0,1.82-.82,1.82-1.82v-1.38c0-1-.82-1.82-1.82-1.82h-75.01Z"/>
        </g>
        <path class="cls-5" d="m382.04,242.42v-18.5h-28.55v18.5c0,28.02-5.8,55.74-17.03,81.41h0s62.61,0,62.61,0h0c-11.23-25.67-17.03-53.39-17.03-81.41Z"/>
        <polygon class="cls-5" points="385.45 194.41 350.09 194.41 353.82 221.01 381.72 221.01 385.45 194.41"/>
        <g>
          <rect class="cls-2" x="346.9" y="218.52" width="41.74" height="6.81" rx="3.02" ry="3.02"/>
          <path class="cls-5" d="m385.92,226.23h-36.3c-2,0-3.62-1.62-3.62-3.62v-1.38c0-1.99,1.62-3.62,3.62-3.62h36.3c2,0,3.62,1.62,3.62,3.62v1.38c0,2-1.62,3.62-3.62,3.62Zm-36.3-6.81c-1,0-1.82.82-1.82,1.82v1.38c0,1,.82,1.82,1.82,1.82h36.3c1,0,1.82-.82,1.82-1.82v-1.38c0-1-.82-1.82-1.82-1.82h-36.3Z"/>
        </g>
        <g>
          <rect class="cls-2" x="346.9" y="190.62" width="41.74" height="6.81" rx="3.02" ry="3.02"/>
          <path class="cls-5" d="m385.92,198.34h-36.3c-2,0-3.62-1.62-3.62-3.62v-1.38c0-2,1.62-3.62,3.62-3.62h36.3c2,0,3.62,1.62,3.62,3.62v1.38c0,1.99-1.62,3.62-3.62,3.62Zm-36.3-6.81c-1,0-1.82.82-1.82,1.82v1.38c0,1,.82,1.82,1.82,1.82h36.3c1,0,1.82-.82,1.82-1.82v-1.38c0-1-.82-1.82-1.82-1.82h-36.3Z"/>
        </g>
        <g>
          <circle class="cls-2" cx="367.77" cy="167.81" r="7.57"/>
          <path class="cls-5" d="m367.77,176.28c-4.67,0-8.47-3.8-8.47-8.47s3.8-8.47,8.47-8.47,8.47,3.8,8.47,8.47-3.8,8.47-8.47,8.47Zm0-15.14c-3.68,0-6.67,2.99-6.67,6.67s2.99,6.67,6.67,6.67,6.67-2.99,6.67-6.67-2.99-6.67-6.67-6.67Z"/>
        </g>
      </g>
      <g>
        <g>
          <path class="cls-5" d="m84.69,193.67l1.17-6.79s-11.7-3.75-25.05-1.87c-13.34,1.87-33.71,18.26-38.15,47.05-4.45,28.79,13.34,68.82,13.81,70.69.47,1.87,48.22-109.08,48.22-109.08Z"/>
          <g>
            <path class="cls-6" d="m76.73,190.39s23.17,7.96,24.58,9.6.23,3.51,1.64,4.68c1.4,1.17,29.49,26.22,29.49,26.22,0,0-1.4,5.85-.7,7.72.7,1.87,1.4,4.45.7,6.09-.7,1.64-3.75,2.57-4.45,4.21-.7,1.64-2.34,2.34-5.15,3.28s-8.43,3.75-14.04,0c-5.62-3.75-7.96-8.43-12.41-8.66-4.45-.23-17.09,6.09-25.98,1.87,0,0,0,1.17,3.75,4.92,3.75,3.75,41.67,30.66,30.2,73.5H33.19s5.85-12.41.94-28.09c-4.92-15.68-17.09-54.77-1.64-80.99,15.45-26.22,31.37-25.28,31.37-25.28,0,0,3.75-18.49,12.64-20.6l.23,21.54Z"/>
            <path class="cls-5" d="m104.35,324.71H33.19c-.31,0-.59-.16-.76-.42-.17-.26-.19-.59-.05-.87.06-.12,5.64-12.3.89-27.44-4.72-15.06-17.26-55.07-1.55-81.72,13.76-23.34,28.16-25.52,31.41-25.71.81-3.52,4.73-18.59,13.16-20.59.27-.07.55,0,.76.17.22.17.34.43.35.7l.23,20.9c6.09,2.1,22.97,8.02,24.37,9.66.89,1.04.97,2.14,1.03,3.02.06.8.1,1.23.5,1.55,1.4,1.17,28.37,25.21,29.52,26.24.25.22.35.56.28.88-.52,2.16-1.18,6.02-.73,7.2,1.11,2.96,1.34,5.23.69,6.76-.45,1.06-1.51,1.79-2.54,2.49-.82.56-1.66,1.14-1.91,1.72-.87,2.04-2.91,2.85-5.69,3.78-.31.1-.66.23-1.04.37-1.8.66-4.27,1.57-7.09,1.57-2.41,0-4.67-.69-6.71-2.04-2.23-1.48-3.94-3.1-5.46-4.53-2.29-2.15-4.09-3.86-6.5-3.98-1.28-.06-3.46.51-6.02,1.17-3.67.96-8.24,2.15-12.69,2.15-1.9,0-3.61-.21-5.18-.64.52.65,1.26,1.49,2.34,2.57.32.32.98.88,1.81,1.59,25.99,22.15,35.62,46.63,28.62,72.78-.11.39-.46.67-.87.67Zm-69.81-1.8h69.12c6.46-25.16-3.03-48.81-28.22-70.27-.9-.76-1.54-1.32-1.92-1.69-3.62-3.62-4.01-5.09-4.01-5.55,0-.31.16-.6.42-.76.26-.17.59-.18.87-.05,1.94.92,4.18,1.36,6.84,1.36,4.22,0,8.67-1.16,12.24-2.09,2.72-.71,5.03-1.31,6.57-1.23,3.07.16,5.18,2.16,7.64,4.47,1.46,1.38,3.12,2.94,5.22,4.34,1.76,1.17,3.62,1.74,5.71,1.74,2.5,0,4.79-.84,6.47-1.46.4-.15.76-.28,1.09-.39,2.76-.92,4.08-1.54,4.61-2.78.45-1.06,1.52-1.79,2.54-2.49.82-.56,1.66-1.14,1.91-1.72.45-1.05.2-2.98-.72-5.42-.67-1.79.17-6.04.55-7.72-3.43-3.06-27.79-24.77-29.07-25.84-1-.83-1.08-1.93-1.14-2.81-.05-.75-.1-1.39-.6-1.98-1.05-1.02-13.25-5.57-24.19-9.33-.36-.12-.6-.46-.61-.84l-.22-20.31c-7.46,3.17-10.84,19.37-10.87,19.54-.09.44-.49.76-.94.72h-.15c-1.61,0-16.16.69-30.38,24.84-15.3,25.96-2.93,65.41,1.72,80.26,4.11,13.1.91,23.85-.45,27.46Z"/>
          </g>
          <path class="cls-5" d="m90.07,206.31s6.32-3.51,8.19-1.4,0,5.38-1.17,5.38-7.02-3.98-7.02-3.98Z"/>
          <path class="cls-5" d="m128,236.27s-.47-5.38-3.04-4.68c-2.57.7-.94,3.75,3.04,4.68Z"/>
          <path class="cls-5" d="m69.94,187.58s1.87-10.77,4.68-14.75c0,0-.23,16.39-.94,16.62s-3.75-1.87-3.75-1.87Z"/>
          <path class="cls-5" d="m80.09,266.33c-3.41-4.44-7.32-8.48-10.77-12.89-6.62-8.45-11.55-18.22-14.41-28.57,4,7.37,10.46,13.37,18.09,16.84,4.91,2.23,10.29,3.39,15.68,3.45-5.55,1.42-12.52,2.86-18.04.24,0,0,0,1.17,3.75,4.92,3.75,3.75,41.67,30.66,30.2,73.5h-10.02c3.22-20.05-2.09-41.38-14.47-57.49Z"/>
        </g>
        <g>
          <path class="cls-6" d="m22.08,329.43h96.47v15.86c0,1.35-1.1,2.45-2.45,2.45H24.53c-1.35,0-2.45-1.1-2.45-2.45v-15.86h0Z" transform="translate(140.64 677.17) rotate(180)"/>
          <path class="cls-5" d="m118.55,348.64H22.08c-.5,0-.9-.4-.9-.9v-16.1c0-1.71,1.39-3.11,3.11-3.11h92.05c1.71,0,3.11,1.39,3.11,3.11v16.1c0,.5-.4.9-.9.9Zm-95.57-1.8h94.67v-15.2c0-.72-.59-1.31-1.31-1.31H24.29c-.72,0-1.31.59-1.31,1.31v15.2Z"/>
        </g>
        <g>
          <rect class="cls-9" x="26.66" y="322.39" width="87.32" height="7.39" rx=".49" ry=".49" transform="translate(140.64 652.18) rotate(180)"/>
          <path class="cls-5" d="m113.53,330.69H27.11c-.74,0-1.35-.6-1.35-1.35v-6.5c0-.74.6-1.35,1.35-1.35h86.42c.74,0,1.35.6,1.35,1.35v6.5c0,.74-.6,1.35-1.35,1.35Zm-85.97-1.8h85.51v-5.59H27.56v5.59Z"/>
        </g>
        <path class="cls-7" d="m91.95,196.06s-.05,0-.08-.01l-15.21-5.45c-.09-.03-.15-.12-.15-.21-.06-4.62-.25-18.95-.24-21.27-1.26.47-8.29,3.64-10.81,15.26-.03.12-.15.2-.27.17-.12-.03-.2-.15-.17-.27,2.66-12.26,10.72-15.67,11.48-15.67.01,0,.02,0,.03,0,.12.02.22.16.19.28-.04.42.14,14.05.24,21.33l15.07,5.39c.12.04.18.17.14.29-.03.09-.12.15-.21.15Z"/>
        <path class="cls-7" d="m99.46,329.98h-62.88c-.12,0-.23-.1-.23-.23s.1-.23.23-.23h62.88c.12,0,.23.1.23.23s-.1.23-.23.23Z"/>
        <path class="cls-7" d="m35.47,316.34s-.03,0-.05,0c-.12-.03-.2-.15-.17-.27,2.03-8.97-1.97-21-5.5-31.62-1.71-5.14-3.32-9.99-3.97-13.78-.02-.12.06-.24.18-.26s.24.06.26.18c.64,3.76,2.25,8.59,3.95,13.71,3.55,10.67,7.57,22.77,5.51,31.87-.02.1-.12.17-.22.17Z"/>
        <path class="cls-5" d="m128,249.81c-.08,0-.17-.01-.25-.04-1.08-.31-10.64-3.07-12.73-4.4-.42-.27-.54-.82-.28-1.24.27-.42.82-.54,1.24-.28,1.58,1.01,9.38,3.36,12.26,4.19.48.14.75.64.62,1.11-.11.39-.47.65-.87.65Z"/>
        <path class="cls-7" d="m115.61,254.29c-5.18,0-8.32-2.71-10.36-4.47l-.46-.39c-.1-.08-.11-.22-.03-.32.08-.09.22-.11.32-.03l.46.4c2.48,2.14,6.62,5.71,14.18,3.82.12-.04.24.04.27.16s-.04.24-.16.27c-1.54.39-2.94.55-4.22.55Z"/>
      </g>
      <g>
        <g>
          <g>
            <circle class="cls-6" cx="292.56" cy="283.51" r="13.02"/>
            <path class="cls-5" d="m292.56,297.42c-7.67,0-13.92-6.24-13.92-13.92s6.24-13.92,13.92-13.92,13.92,6.24,13.92,13.92-6.24,13.92-13.92,13.92Zm0-26.04c-6.68,0-12.12,5.44-12.12,12.12s5.44,12.12,12.12,12.12,12.12-5.44,12.12-12.12-5.44-12.12-12.12-12.12Z"/>
          </g>
          <g>
            <path class="cls-6" d="m268.99,339.92h47.73v3.71c0,1.8-1.46,3.27-3.27,3.27h-41.2c-1.8,0-3.27-1.46-3.27-3.27v-3.71h0Z" transform="translate(585.7 686.83) rotate(180)"/>
            <path class="cls-5" d="m316.72,347.8h-47.73c-.5,0-.9-.4-.9-.9v-4.04c0-2.12,1.72-3.84,3.84-3.84h41.85c2.12,0,3.84,1.72,3.84,3.84v4.04c0,.5-.4.9-.9.9Zm-46.83-1.8h45.93v-3.14c0-1.12-.92-2.04-2.04-2.04h-41.85c-1.13,0-2.04.92-2.04,2.04v3.14Z"/>
          </g>
          <g>
            <rect class="cls-9" x="271.25" y="337.24" width="43.2" height="2.82" rx="1.28" ry="1.28" transform="translate(585.7 677.3) rotate(180)"/>
            <path class="cls-5" d="m313.3,340.96h-40.9c-1.13,0-2.05-.92-2.05-2.05v-.52c0-1.13.92-2.05,2.05-2.05h40.9c1.13,0,2.05.92,2.05,2.05v.52c0,1.13-.92,2.05-2.05,2.05Zm-40.9-2.82c-.14,0-.25.12-.25.25v.52c0,.14.11.25.25.25h40.9c.14,0,.25-.12.25-.25v-.52c0-.14-.11-.25-.25-.25h-40.9Z"/>
          </g>
          <g>
            <path class="cls-6" d="m285.19,303.56v-7.65h15.33v7.65c0,11.59,3.11,23.06,9.15,33.68h-33.62c6.03-10.62,9.15-22.09,9.15-33.68Z"/>
            <path class="cls-5" d="m309.68,338.14s-.01,0-.02,0h-33.62c-.32,0-.62-.17-.78-.45-.16-.28-.16-.62,0-.9,5.99-10.55,9.03-21.73,9.03-33.24v-7.65c0-.5.4-.9.9-.9h15.33c.5,0,.9.4.9.9v7.65c0,11.46,3.01,22.59,8.95,33.1.13.16.21.36.21.58,0,.5-.4.9-.9.9Zm-32.11-1.8h30.56c-5.65-10.43-8.52-21.45-8.52-32.78v-6.75h-13.53v6.75c0,11.33-2.86,22.35-8.52,32.78Z"/>
          </g>
          <g>
            <rect class="cls-9" x="281.64" y="293.67" width="22.41" height="2.82" rx="1.28" ry="1.28" transform="translate(585.7 590.16) rotate(180)"/>
            <path class="cls-5" d="m302.91,297.39h-20.11c-1.13,0-2.05-.92-2.05-2.05v-.52c0-1.13.92-2.05,2.05-2.05h20.11c1.13,0,2.05.92,2.05,2.05v.52c0,1.13-.92,2.05-2.05,2.05Zm-20.11-2.82c-.14,0-.25.12-.25.25v.52c0,.14.11.25.25.25h20.11c.14,0,.25-.12.25-.25v-.52c0-.14-.11-.25-.25-.25h-20.11Z"/>
          </g>
        </g>
        <path class="cls-6" d="m291.14,276.74c0-1.82-1.48-3.3-3.3-3.3s-3.3,1.48-3.3,3.3,1.48,3.3,3.3,3.3,3.3-1.48,3.3-3.3Z"/>
        <path class="cls-6" d="m285.4,280.52c0-.63-.51-1.15-1.15-1.15s-1.15.51-1.15,1.15.51,1.15,1.15,1.15,1.15-.51,1.15-1.15Z"/>
      </g>
      <g>
        <g>
          <circle class="cls-5" cx="172.79" cy="261.06" r="17.63" transform="translate(-86.75 85.99) rotate(-22.5)"/>
          <path class="cls-5" d="m140.86,337.45h64.63v6.18c0,1.8-1.46,3.27-3.27,3.27h-58.1c-1.8,0-3.27-1.46-3.27-3.27v-6.18h0Z" transform="translate(346.36 684.36) rotate(180)"/>
          <rect class="cls-1" x="143.93" y="333.82" width="58.5" height="3.82" rx="1.15" ry="1.15"/>
          <path class="cls-5" d="m162.8,288.21v-10.36h20.76v10.36c0,15.7,4.22,31.23,12.38,45.61h0s-45.52,0-45.52,0h0c8.17-14.38,12.38-29.91,12.38-45.61Z"/>
          <rect class="cls-1" x="158" y="274.82" width="30.35" height="3.82" rx="1.15" ry="1.15"/>
        </g>
        <path class="cls-6" d="m170.86,251.9c0-2.47-2-4.47-4.47-4.47s-4.47,2-4.47,4.47,2,4.47,4.47,4.47,4.47-2,4.47-4.47Z"/>
        <path class="cls-6" d="m163.09,257.01c0-.86-.7-1.55-1.55-1.55s-1.55.7-1.55,1.55.7,1.55,1.55,1.55,1.55-.7,1.55-1.55Z"/>
      </g>
      <path class="cls-4" d="m365.62,93.08c-1.82,0-7.14-1.96-8.34-3.15l.02,15.55c0,2.01-1.62,3.64-3.63,3.64l-42.77.06c-2.01,0-3.64-1.62-3.64-3.63l-.02-14.24c.84.39,1.78.61,2.77.61,3.64,0,6.59-2.96,6.59-6.6,0-3.64-2.96-6.59-6.6-6.59-.99,0-1.92.23-2.76.62l-.02-16.57c0-2.01,1.62-3.64,3.63-3.64l17.46-.02c-2.19,1.13-3.7,3.39-3.7,6.02,0,3.75,3.05,6.79,6.8,6.79s6.79-3.05,6.79-6.8c0-2.63-1.52-4.89-3.72-6.02l19.14-.02c2.01,0,3.64,1.62,3.64,3.63l.02,17.88c1.19-1.19,4.51-5,6.33-5,3.64,0,9.44,5.73,9.45,9.37,0,3.64-3.79,8.11-7.43,8.12Z"/>
      <path class="cls-4" d="m56.64,17.6c0,2.48,1,4.73,2.62,6.36l-21.23-.03c-2.74,0-4.97,2.22-4.97,4.96l-.08,58.38c0,2.74,2.22,4.97,4.96,4.97l19.44.02c-.53-1.15-.83-2.43-.83-3.77,0-4.97,4.04-9,9.01-8.99,4.97,0,9,4.04,8.99,9.01,0,1.35-.31,2.62-.84,3.77l22.62.03c2.74,0,4.97-2.22,4.97-4.96l.03-23.84c-1.54,2.99-4.63,5.05-8.22,5.05-5.12,0-9.27-4.16-9.26-9.29,0-5.12,4.16-9.27,9.29-9.26,3.6,0,6.68,2.08,8.21,5.07l.03-26.12c0-2.74-2.22-4.97-4.96-4.97l-24.41-.03c1.63-1.63,2.63-3.87,2.64-6.35,0-4.97-4.02-9.01-8.99-9.01-4.97,0-9.01,4.02-9.01,8.99Z"/>
    </g>
  </g>
</svg>