<?xml version="1.0" encoding="UTF-8"?>
<svg id="_레이어_2" data-name="레이어 2" xmlns="http://www.w3.org/2000/svg" viewBox="0 0 393.45 349.51">
  <defs>
    <style>
      .cls-1 {
        fill: #f2cf63;
      }

      .cls-1, .cls-2, .cls-3, .cls-4, .cls-5, .cls-6, .cls-7 {
        stroke-width: 0px;
      }

      .cls-2 {
        fill: #333;
      }

      .cls-3 {
        fill: #fff;
      }

      .cls-4 {
        fill: #4a253f;
      }

      .cls-5 {
        fill: #fc5e71;
      }

      .cls-6 {
        fill: #ccd7f2;
      }

      .cls-7 {
        fill: #f29199;
      }
    </style>
  </defs>
  <g id="_迹_1" data-name="卵迹_1">
    <g>
      <path class="cls-6" d="m140.17,260.75c9.78,9.39,15.68,21.98,22.06,33.95,12.1,22.69,29.31,45.98,54.59,50.7,8.8,1.64,17.89.83,26.66-.94,43.44-8.73,80.97-42.3,94.48-84.5,7.09-22.15,7.87-45.77,7.78-69.02-.1-27.12-1.3-54.21-2.49-81.3-.42-9.45-.83-18.9-1.25-28.35-.18-4.16-.39-8.44-2.11-12.23-1.79-3.96-5.08-7.04-8.53-9.67-12.86-9.8-29.31-14.78-45.44-13.75-13.61.86-29.65,5.03-39.14-4.76-8.49-8.76-6.61-24.67-16.17-32.26-3.11-2.47-7.04-3.66-10.9-4.61-30.45-7.54-62.94-3.8-92.6,6.42-26.57,9.16-52.69,24.84-65.16,50.03-3.17,6.41-5.4,13.5-4.83,20.63.42,5.19,2.29,10.13,3.98,15.05,3.71,10.8,6.65,22.39,4.31,33.57-2.32,11.09-9.57,20.53-12.92,31.35-4.25,13.76-1.75,29.13,5.24,41.73,6.98,12.6,18.15,22.56,30.69,29.64,17.2,9.71,37.5,14.65,51.74,28.34Z"/>
      <path class="cls-2" d="m271.66,21.13l7.1-2.25-7.1-2.42c-2.12-.56-3.75-2.27-4.21-4.42l-2.25-10.66-2.42,10.43c-.51,2.2-2.25,3.9-4.46,4.37l-6.69,2.3,6.45,2.28c2.26.52,3.99,2.34,4.4,4.63l1.86,10.32,2.72-10.33c.57-2.18,2.36-3.84,4.59-4.24Z"/>
      <path class="cls-2" d="m59.47,45.74l7.1-2.25-7.1-2.42c-2.12-.56-3.75-2.27-4.21-4.42l-2.25-10.66-2.42,10.43c-.51,2.2-2.25,3.9-4.46,4.37l-6.69,2.3,6.45,2.28c2.26.52,3.99,2.34,4.4,4.63l1.86,10.32,2.72-10.33c.57-2.18,2.36-3.84,4.59-4.24Z"/>
      <path class="cls-2" d="m40.55,173.11l4.25-1.35-4.25-1.45c-1.27-.33-2.24-1.36-2.52-2.64l-1.35-6.38-1.45,6.24c-.31,1.32-1.35,2.34-2.67,2.62l-4,1.38,3.86,1.36c1.35.31,2.39,1.4,2.64,2.77l1.12,6.17,1.63-6.18c.34-1.31,1.41-2.3,2.74-2.54Z"/>
      <g>
        <g>
          <g>
            <path class="cls-5" d="m381.66,113.3c-.93-8.34,4.63-15.51,1.85-19.34s-10.01-5.82-21.23-5.52c-11.21.3-42.57,5.86-42.88,14.21-.31,8.34,3.57,7.14,4.32,10.66.75,3.52,1.39,12.13,1.39,12.13l56.54-12.13Z"/>
            <path class="cls-2" d="m325.12,126.28c-.18,0-.36-.06-.51-.17-.2-.15-.32-.37-.34-.62,0-.09-.65-8.6-1.37-12.02-.22-1.02-.74-1.52-1.46-2.21-1.38-1.32-3.09-2.96-2.88-8.66.36-9.54,33.65-14.75,43.71-15.02,11.36-.3,18.94,1.74,21.94,5.87,1.69,2.33.81,5.48-.22,9.12-.89,3.18-1.91,6.79-1.48,10.63.05.43-.24.83-.67.92l-56.54,12.13c-.06.01-.12.02-.18.02Zm39.34-37.02c-.7,0-1.41.01-2.15.03-12.41.33-41.79,6.3-42.05,13.39-.19,4.94,1.11,6.17,2.36,7.37.8.76,1.62,1.55,1.95,3.08.61,2.87,1.14,8.91,1.33,11.27l54.86-11.77c-.26-3.86.72-7.38,1.6-10.51.94-3.35,1.68-6,.48-7.67-2.47-3.4-8.82-5.2-18.37-5.2Z"/>
          </g>
          <g>
            <path class="cls-2" d="m362.29,102.3c12.42-3.14,16.2-4.53,16.05-7.08-.15-2.55-8.75-1.14-13.95-1.27-5.2-.12-38.31,1.18-40.89,8.34-2.57,7.17,25.26,1.9,25.26,1.9l13.53-1.9Z"/>
            <g>
              <path class="cls-3" d="m386.53,18.5c-3.16-.67-6.29,1.23-6.99,4.23-.38,1.66-1.01,3.88-1.75,6.36.7-5.64,1.22-11.13,1.16-14.8-.05-3.08-2.71-5.54-5.95-5.5-3.23.05-5.82,2.57-5.77,5.64.05,3.08-.39,7.83-1.02,12.85.23-7.99.18-15.57-.55-19.18-.61-3.02-3.69-5-6.87-4.43-3.16.57-5.26,3.49-4.65,6.52.6,2.97.56,10.95.23,19.83-.22-2.01-.64-3.83-1.28-5.47-.91-2.34-2.23-4.31-4-5.9-1.87-1.68-3.53-3.07-6.07-3.6-2.09-.43-4.27-.31-6.37.11-3.63.72-7.37,2.57-8.85,5.95-1.06,2.41-.55,5.67,2.14,6.72,1.11.43,2.35.43,3.53.26.64-.09,5.59-1.58,5.93-.91.86,1.74,1.88,6.08.93,12.65-.83,4.26-1.43,6.3-3.2,10.14-.01.01-3.82,5.44-4.94,3.7-1.12-1.74-1.19-9.37-1.52-13.84-.34-4.47-5.69-8.17-9.21-2.16-3.53,6.01-2.41,15.74-.24,28.2,2.16,12.46,5.95,14.4,10.32,18.77,0,.28,1.81,15.74,1.61,19.57,16.08,0,29.53,0,38.99-5.91v-12.25c6.57-7.66,11.14-27.6,10.74-34.85,2.2-6.45,6.64-19.7,8.11-26.05.7-3-1.3-5.98-4.46-6.65Z"/>
              <path class="cls-2" d="m333.16,105.05c-.23,0-.46-.1-.62-.26-.16-.17-.24-.4-.23-.63.16-2.99-.99-13.64-1.42-17.64-.09-.79-.13-1.23-.16-1.49-.51-.5-1-.96-1.49-1.42-3.72-3.5-6.93-6.52-8.85-17.58-2.07-11.9-3.47-22.28.35-28.77,1.72-2.94,3.72-3.55,5.09-3.55,2.84,0,5.45,2.78,5.7,6.08.08,1.09.15,2.36.22,3.69.19,3.58.44,8.47,1.14,9.7.62-.15,2.24-1.8,3.52-3.61,1.75-3.82,2.31-5.83,3.1-9.88.82-5.62.15-9.79-.72-11.81-.92.01-2.96.53-4.07.81-.62.16-.93.24-1.11.26-1.54.23-2.85.12-3.96-.31-1.27-.49-2.22-1.43-2.75-2.71-.65-1.56-.59-3.48.14-5.14,1.4-3.19,4.85-5.53,9.47-6.45,2.46-.48,4.71-.52,6.7-.11,2.71.56,4.46,1.99,6.47,3.8,1.73,1.56,3.09,3.5,4.04,5.77.14-6.83,0-11.43-.4-13.43-.33-1.64,0-3.31.96-4.71,1.01-1.48,2.56-2.48,4.37-2.81.41-.07.84-.11,1.26-.11,3.21,0,5.98,2.19,6.6,5.21.2.97.35,2.24.46,3.81,1.03-2.21,3.34-3.77,6.03-3.81,0,0,.09,0,.09,0,3.65,0,6.67,2.84,6.72,6.33.03,1.66-.06,3.78-.26,6.32,1.2-1.86,3.35-3.08,5.72-3.08.49,0,.98.05,1.45.15,1.8.38,3.33,1.42,4.29,2.93.91,1.43,1.2,3.11.82,4.74-1.44,6.2-5.66,18.87-8.08,25.98.31,7.19-4.04,26.93-10.75,35.04v11.94c0,.29-.15.56-.4.72-9.66,6.03-23.46,6.03-39.44,6.03Zm-7.33-69.66c-1.33,0-2.59.94-3.63,2.71-3.52,5.99-2.07,16.49-.14,27.62,1.82,10.51,4.7,13.21,8.34,16.64.57.53,1.15,1.08,1.74,1.67.17.17.26.39.25.63,0,.07.08.7.18,1.67.44,4.07,1.41,13.15,1.44,17.02,15.12,0,28.21-.1,37.27-5.53v-11.78c0-.2.07-.4.2-.55,6.39-7.44,10.92-27.27,10.54-34.25,0-.11,0-.22.04-.32,2.4-7.05,6.65-19.79,8.09-25.96.27-1.18.06-2.4-.6-3.44-.71-1.12-1.86-1.9-3.21-2.18-.36-.08-.73-.12-1.1-.12-2.33,0-4.38,1.56-4.88,3.71-.36,1.55-.95,3.71-1.77,6.42-.13.42-.55.68-.99.59-.43-.09-.72-.5-.67-.94.82-6.55,1.21-11.49,1.15-14.68-.04-2.57-2.3-4.66-5.03-4.66-2.83.04-5.04,2.19-5,4.78.04,2.77-.3,7.13-1.02,12.97-.06.45-.46.78-.91.74-.45-.03-.8-.42-.78-.87.27-9.52.09-15.91-.53-18.99-.45-2.23-2.53-3.85-4.93-3.85-.32,0-.64.03-.95.09-1.36.25-2.52.99-3.27,2.09-.69,1.02-.94,2.23-.7,3.42.69,3.39.52,12.76.25,20.02-.02.45-.37.8-.82.82-.47.04-.83-.31-.87-.76-.21-1.94-.62-3.71-1.22-5.25-.86-2.22-2.13-4.09-3.77-5.57-1.87-1.69-3.38-2.92-5.68-3.4-1.77-.37-3.79-.33-6.03.11-1.92.38-6.58,1.67-8.24,5.46-.54,1.23-.59,2.69-.12,3.81.35.85.96,1.45,1.8,1.78.83.32,1.86.39,3.1.21.14-.02.48-.11.94-.23,1.35-.34,3.4-.86,4.52-.86.25,0,1.03,0,1.35.64,1.09,2.2,1.93,6.81,1.01,13.15-.83,4.26-1.42,6.34-3.27,10.37-.02.04-.05.09-.07.13-.51.74-3.15,4.41-5.04,4.41-.54,0-1.01-.26-1.31-.73-.9-1.4-1.16-5.1-1.44-10.58-.07-1.32-.13-2.58-.21-3.65-.18-2.4-2.05-4.51-4.01-4.51Z"/>
            </g>
            <path class="cls-2" d="m358.22,78.39s-.05,0-.07-.01c-.26-.06-.43-.31-.36-.56,4.36-17.87-12.12-23.32-12.83-23.55-.26-.08-.39-.34-.31-.59.09-.24.37-.38.62-.29.18.06,18.04,5.94,13.47,24.64-.06.23-.28.37-.52.36Z"/>
            <path class="cls-2" d="m378.75,47.6s-.1,0-.14,0c-.23-.05-22.79-4.82-31.09-5.81-.27-.03-.46-.26-.43-.52.03-.25.27-.43.55-.4,8.34.99,30.95,5.78,31.18,5.82.26.06.43.3.37.55-.05.2-.23.35-.44.36Z"/>
            <path class="cls-2" d="m372.66,46.3c-.07.02-.15.02-.23,0-.21-.06-.32-.27-.26-.47l5.19-16.12c.06-.2.28-.31.49-.25.21.06.32.27.26.47l-5.19,16.12c-.04.12-.14.21-.26.25Z"/>
            <path class="cls-2" d="m362.59,43.67c-.06.02-.12.02-.19,0-.21-.04-.35-.24-.3-.44l3.41-15.79c.04-.2.25-.33.46-.29.21.04.35.24.3.44l-3.41,15.79c-.03.14-.14.24-.27.28Z"/>
            <path class="cls-2" d="m352.76,42.09c-.06.02-.11.02-.17,0-.21-.03-.36-.22-.32-.42l1.76-10.65c.03-.2.23-.34.44-.31.21.03.36.22.32.42l-1.76,10.65c-.02.15-.13.26-.27.3Z"/>
          </g>
          <g>
            <path class="cls-3" d="m167.63,133.8c-10.75-.57-15.84,4.46-17.23,7.73s-6.02,5.6-6.02,5.6c0,0-32.44,2.86-47.74,16.95-15.29,14.1-46.35,89.94-57.01,132.58-10.66,42.64-10.66,51.28-10.66,51.28h101.5l45.68-26.72-8.52-187.43Z"/>
            <path class="cls-2" d="m130.46,347.95H28.97c-.47,0-.85-.25-.85-.72,0-.35.12-8.87,10.68-51.13,10.86-43.44,41.73-118.37,57.25-132.67,14.92-13.76,45.23-16.88,48.07-17.14.75-.4,4.36-2.44,5.49-5.09,1.62-3.83,6.88-8.29,16.36-8.29.55,0,1.12.02,1.71.05.44.02.78.37.8.81l8.52,187.14c.01.32-.15.62-.42.77l-45.68,26.29c-.13.08-.28-.02-.43-.02Zm-100.59-1h100.36l45.04-26.27-8.46-185.95c-9.21-.27-14.17,3.74-15.64,7.2-1.5,3.53-6.23,5.9-6.43,6-.1.05-.2.06-.31.07-.32.03-32.33,2.99-47.24,16.73-14.93,13.76-46.08,89.38-56.76,132.08-8.75,34.99-10.3,46.15-10.58,50.15Z"/>
          </g>
          <g>
            <path class="cls-3" d="m200.01,136.01s7.07,2.78,12.17,2.78,7.49,5.1,7.49,5.1c0,0,9.75-4.63,29.68-3.94,19.93.7,79.1,54.19,79.1,54.19l-7-78.98,7.87.68c15.94,1.38,31.99-.82,46.97-6.44l8.89-3.33s23.45,143.05-13.01,163.73c-40.33,22.88-88.65-28.12-88.65-28.12,0,0-2.32,29.21-6.49,44.97-4.17,15.76,17.77,60.7,17.77,60.7h-46.81l-47.97-211.34Z"/>
            <path class="cls-2" d="m294.81,348.19h-46.83c-.4,0-.74-.27-.83-.66l-47.97-211.34c-.07-.31.04-.63.27-.83.24-.2.57-.26.86-.15.07.03,6.98,2.72,11.85,2.72,4.41,0,6.94,3.35,7.86,4.87,2.42-.96,10.71-3.78,25.28-3.78,1.33,0,2.69.02,4.05.07,18.4.64,68.24,44.24,78.03,52.97l-6.81-76.84c-.02-.25.07-.5.24-.67.18-.18.43-.27.67-.25l7.87.68c3.05.26,6.14.4,9.2.4,12.82,0,25.4-2.28,37.4-6.78l8.89-3.33c.24-.09.5-.07.72.06.22.13.37.35.41.6.06.36,5.89,36.25,7.18,74.22,1.74,51.23-5.19,81.64-20.61,90.39-7.04,3.99-14.79,6.02-23.05,6.02-29.94,0-58.92-26.69-65.33-32.97-.59,6.66-2.82,29.92-6.36,43.29-3.93,14.85,16.32,57.24,17.64,59.97.11.14.17.32.17.51,0,.47-.38.85-.85.85Zm-46.15-1.7h44.78c-3.55-7.46-21.1-45.46-17.24-60.07,4.1-15.5,6.44-44.53,6.46-44.82.03-.33.25-.62.56-.73.31-.11.67-.03.9.22.32.34,32.37,33.76,65.4,33.76,7.96,0,15.43-1.95,22.21-5.79,33.93-19.25,14.75-148.93,12.75-161.83l-7.91,2.97c-12.19,4.57-24.97,6.89-37.99,6.89-3.11,0-6.25-.14-9.34-.4l-6.86-.59,6.91,77.97c.03.35-.15.68-.47.83-.31.16-.69.1-.95-.13-.59-.53-59.16-53.29-78.56-53.97-1.34-.05-2.69-.07-3.99-.07-16.78,0-25.2,3.89-25.29,3.93-.2.1-.44.11-.65.03-.21-.08-.39-.23-.48-.44-.02-.04-2.24-4.61-6.72-4.61-3.82,0-8.61-1.47-10.99-2.3l47.47,209.16Z"/>
          </g>
          <path class="cls-2" d="m263.68,226.94c12.78,26.78,4.9,61.82,4.9,67.41s18.66,53.6,18.66,53.6h-39.05l-7.15-72.37,22.65-48.64Z"/>
          <g>
            <path class="cls-1" d="m215.61,149.35c9.42,16.05,41.61,48.78,46.83,74.12,5.22,25.34-7.76,57.52-7.76,63.53s-.62,60.95-.62,60.95h-123.59s14.81-29.4,23.47-61.97c8.66-32.57,3.7-59.97,0-80.64-3.7-20.67,0-56.24,0-56.24l61.68.25Z"/>
            <path class="cls-2" d="m254.05,347.95h-123.59c-.3,0-.57-.02-.72-.27-.15-.25-.17-.5-.03-.76.15-.29,14.87-29.37,23.41-61.48,8.56-32.18,3.64-59.64.06-79.71l-.07-.39c-3.67-20.55-.05-56.16,0-56.51.05-.43.41-.87.84-.87h0l61.68.44c.3,0,.58.22.73.48,2.94,5.01,8.11,11.67,14.08,19.34,13.02,16.72,29.23,37.54,32.84,55.08,3.86,18.74-2.05,40.72-5.57,53.85-1.21,4.51-2.17,8.08-2.17,9.58,0,5.94-.62,59.99-.62,60.53,0,.47-.38.71-.85.71Zm-122.22-1h121.38c.08-7,.62-54.49.62-60.02,0-1.72.93-5.31,2.23-10.12,3.49-12.98,9.33-34.77,5.55-53.11-3.54-17.15-19.61-37.81-32.52-54.39-5.85-7.51-10.93-14.04-13.96-19.1l-60.43-.33c-.5,5.28-3.27,36.51.07,55.16l.07.4c3.62,20.22,8.57,48.13-.09,80.68-7.59,28.53-20.03,54.82-22.92,60.82Z"/>
          </g>
          <path class="cls-2" d="m165.05,128.85c-2.66-11.8-5.71-11.42-14.46-19.41-8.75-7.99-25.88-19.41-18.65-48.33,7.23-28.92,17.51-31.59,36.15-36.53,18.65-4.95,37.3.38,46.81-.38,9.51-.76,24.74,6.85,20.55,20.93-4.19,14.08-10.66,17.51-10.66,17.51l-59.75,66.22Z"/>
          <g>
            <path class="cls-3" d="m219.1,36.28s5.42,4.57,7.99,14.27c2.57,9.7,2.87,13.11,4.04,20.54.56,3.57,8.24,7.65,8.81,10.5.57,2.85-4,7.2-4,7.2,0,0,4,25.12-9.7,30.54s-20.84,6.85-20.84,6.85l-.44,14.1c-.08,2.53,1.36,4.85,3.66,5.91l6.77,3.11s6.56,14.56-5.14,21.69c-11.7,7.14-56.51-21.98-56.51-21.98l3.6-2.43c4.41-2.98,7.29-7.76,7.86-13.05l1.38-12.77s12.56-17.41,13.13-20.55c0,0-11.42,1.14-13.99-7.99-2.57-9.13,6.56-15.98,10.85-15.98s7.99,3.43,7.99,3.43c0,0,31.11-19.98,34.54-43.38Z"/>
            <path class="cls-2" d="m205.33,172.97c-16.1,0-50.6-22.29-52.06-23.24-.24-.16-.38-.42-.39-.7,0-.28.14-.55.37-.71l3.6-2.43c4.22-2.85,6.95-7.38,7.49-12.44l1.38-12.77c.02-.15.07-.29.16-.41,4.44-6.16,10.92-15.61,12.59-19.16-3.37,0-11.38-.86-13.58-8.66-1.09-3.89-.27-7.91,2.32-11.33,2.48-3.27,6.49-5.73,9.34-5.73,3.65,0,6.84,2.24,8.05,3.21,4.06-2.74,30.55-21.35,33.64-42.45.04-.3.25-.56.54-.67.29-.11.61-.05.85.14.23.19,5.66,4.85,8.27,14.7,2.16,8.17,2.74,11.99,3.54,17.28.16,1.04.32,2.14.51,3.34.25,1.6,2.53,3.61,4.54,5.38,2.11,1.86,3.94,3.48,4.26,5.09.57,2.85-2.79,6.53-3.93,7.67.49,3.52,3.03,25.75-10.29,31.03-11.44,4.53-18.26,6.27-20.32,6.75l-.42,13.44c-.07,2.19,1.17,4.2,3.16,5.11l6.77,3.11c.19.09.34.24.42.42.07.15,6.73,15.33-5.47,22.77-1.36.83-3.16,1.25-5.36,1.25Zm-50.05-23.97c6.07,3.83,36,22.27,50.05,22.28h0c1.88,0,3.38-.34,4.47-1,10.06-6.14,5.73-18.32,4.92-20.34l-6.47-2.97c-2.61-1.2-4.24-3.83-4.15-6.7l.44-14.1c.01-.39.3-.73.68-.81.07-.01,7.24-1.48,20.69-6.81,12.92-5.11,9.22-29.37,9.18-29.62-.04-.28.05-.56.25-.75,1.64-1.56,4.1-4.68,3.75-6.42-.21-1.05-2.08-2.7-3.72-4.15-2.33-2.06-4.74-4.18-5.09-6.39-.19-1.21-.36-2.31-.51-3.35-.82-5.43-1.37-9.02-3.51-17.1-1.77-6.69-4.94-10.88-6.61-12.73-4.55,22.78-33.38,41.53-34.63,42.34-.32.21-.75.17-1.03-.09-.03-.03-3.53-3.2-7.42-3.2-2.04,0-5.59,1.89-7.99,5.06-1.6,2.11-3.25,5.53-2.04,9.85,1.88,6.7,8.99,7.42,11.96,7.42.69,0,1.12-.04,1.12-.04.27-.03.53.07.71.27.18.2.26.46.21.73-.57,3.15-11.35,18.22-13.15,20.71l-1.36,12.55c-.6,5.56-3.6,10.53-8.23,13.66l-2.53,1.71Z"/>
          </g>
          <path class="cls-2" d="m228.61,117.05c-12.18,4.76-37.87,2.47-37.87,2.47,0,0,5.99,11.23,13.8,14.27l.86-7.61,15.98-5.14,7.23-4Z"/>
          <path class="cls-2" d="m224.82,71.36c-.4-2.5-1.72-4.37-2.94-4.18s-1.89,2.38-1.49,4.89,1.72,4.37,2.94,4.18c1.22-.2,1.89-2.38,1.49-4.89Z"/>
          <g>
            <path class="cls-3" d="m164.79,35.63c3.92-.64,7.06,3.04,10.7,4.63,9.22,4.01,20.31-5.89,29.43-1.68.86.4,1.74,1,1.98,1.92.17.62.02,1.27-.16,1.89-1.23,4.3-3.92,8.18-7.53,10.84-1.17.86-2.47,1.61-3.92,1.79-3.67.45-6.61-2.76-9.8-4.64-3.16-1.86-7.04-2.47-10.63-1.67-3.23.73-6.15,2.53-9.41,3.12-3.26.59-7.31-.65-8.16-3.85-.49-1.84.22-3.77.98-5.52,1.31-3.01,3.27-6.29,6.51-6.82Z"/>
            <path class="cls-2" d="m194.6,55.48c-2.54,0-4.72-1.57-6.84-3.08-.81-.58-1.64-1.18-2.47-1.67-2.17-1.28-4.68-1.96-7.25-1.96-1.04,0-2.07.11-3.07.34-1.49.33-2.95.92-4.36,1.48-1.62.65-3.3,1.32-5.07,1.64-.54.1-1.11.15-1.68.15-2.9,0-6.18-1.33-6.97-4.31-.54-2,.24-4.04,1-5.8,1.2-2.75,3.22-6.48,6.83-7.07.32-.05.65-.08.97-.08,2.36,0,4.46,1.38,6.49,2.72,1.12.74,2.28,1.5,3.47,2.02,1.46.63,3.03.94,4.82.94,3.08,0,6.37-.94,9.54-1.85,3.22-.92,6.56-1.87,9.74-1.87,1.98,0,3.73.36,5.34,1.11,1.23.57,1.98,1.31,2.22,2.19.19.71.04,1.43-.16,2.11-1.26,4.41-3.99,8.34-7.68,11.06-.95.7-2.42,1.66-4.11,1.87-.26.03-.51.05-.76.05Zm-16.57-7.55c2.72,0,5.38.72,7.68,2.07.86.51,1.71,1.12,2.54,1.71,2.3,1.64,4.46,3.19,7,2.88,1.14-.14,2.32-.69,3.72-1.71,3.54-2.61,6.16-6.38,7.37-10.61.15-.52.3-1.13.15-1.66-.17-.63-.76-1.18-1.75-1.64-1.5-.69-3.13-1.03-4.99-1.03-3.06,0-6.34.94-9.5,1.84-3.23.92-6.58,1.88-9.78,1.88-1.9,0-3.59-.33-5.16-1.01-1.25-.54-2.44-1.33-3.6-2.09-2.01-1.33-3.92-2.58-6.02-2.58-.28,0-.56.02-.84.07-3.21.52-5.07,4-6.19,6.57-.71,1.62-1.42,3.5-.96,5.24.68,2.54,3.58,3.68,6.15,3.68.52,0,1.04-.05,1.53-.13,1.68-.3,3.32-.96,4.91-1.59,1.44-.58,2.93-1.17,4.49-1.52,1.06-.24,2.15-.36,3.25-.36Z"/>
          </g>
          <path class="cls-2" d="m267.02,245.95h-.04c-.47,0-.83-.77-.81-1.24l1.5-36.87-22.09-28.58c-.12-.15-.17-.42-.17-.61v-21.79c-3-1-17.27-5.71-26.39-12.28-.38-.27-.47-.8-.2-1.18.27-.38.8-.47,1.18-.19,9.85,7.09,26.48,12.17,26.64,12.23.36.11.76.44.76.81v22.12l21.95,28.5c.12.16.11.35.1.56l-1.56,37.36c-.02.46-.43,1.17-.89,1.17Z"/>
          <path class="cls-2" d="m283.72,242.52s-.09,0-.13,0c-.46-.07-.78-.5-.71-.97,3.03-19.7-3.02-49.73-3.08-50.03-.09-.46.2-.91.66-1,.46-.09.91.2,1,.66.06.3,6.17,30.63,3.1,50.63-.06.42-.43.72-.84.72Z"/>
          <path class="cls-2" d="m283.29,209.46c-.16,0-.33-.05-.47-.14-.39-.26-.49-.79-.23-1.18l6.61-9.89c.26-.39.79-.49,1.18-.23.39.26.49.79.23,1.18l-6.61,9.89c-.16.24-.43.38-.71.38Z"/>
          <path class="cls-2" d="m95.24,348.19c-.06,0-.13,0-.19-.02-.46-.11-.74-.56-.63-1.02,2.75-11.85,27.1-109.79,27.35-110.78.11-.46.57-.73,1.03-.62.46.11.73.57.62,1.03-.25.99-24.59,98.92-27.34,110.76-.09.39-.44.66-.83.66Z"/>
          <g>
            <line class="cls-3" x1="127.68" y1="241.68" x2="119.52" y2="248.91"/>
            <path class="cls-2" d="m119.52,249.75c-.23,0-.47-.1-.64-.29-.31-.35-.28-.89.07-1.2l8.16-7.23c.35-.31.89-.28,1.2.07.31.35.28.89-.07,1.2l-8.16,7.23c-.16.14-.36.21-.56.21Z"/>
          </g>
          <g>
            <path class="cls-3" d="m99.41,168.72s19.47,5.21,23.17,25.41"/>
            <path class="cls-2" d="m122.58,194.98c-.4,0-.76-.29-.83-.7-3.56-19.42-22.37-24.69-22.56-24.74-.45-.12-.72-.59-.6-1.04.12-.45.59-.72,1.04-.6.2.05,20.03,5.58,23.79,26.08.09.46-.22.9-.68.99-.05.01-.1.01-.15.01Z"/>
          </g>
          <g>
            <path class="cls-3" d="m148.78,143.88c-3.94,14.37-15.07,24.84-15.07,24.84l12.51,25.41-7.22,32.81s16.74,37.98,11.98,69"/>
            <path class="cls-2" d="m150.98,296.79s-.09,0-.13-.01c-.46-.07-.78-.5-.71-.97,4.66-30.41-11.75-68.15-11.92-68.53-.07-.16-.09-.35-.05-.52l7.16-32.52-12.38-25.14c-.16-.33-.09-.74.18-.99.11-.1,11-10.49,14.83-24.45.12-.45.59-.72,1.04-.59.45.12.72.59.59,1.04-3.55,12.95-12.68,22.63-14.85,24.79l12.24,24.86c.09.17.11.37.07.56l-7.17,32.54c1.45,3.41,16.47,39.64,11.93,69.21-.06.42-.43.72-.84.72Z"/>
          </g>
          <path class="cls-2" d="m346.37,128.38c-13.66,0-23.8-2.08-23.99-2.12-.46-.1-.75-.55-.65-1.01.1-.46.55-.75,1.01-.65.36.08,36.55,7.5,64.17-6.07.42-.21.93-.03,1.14.39.21.42.03.93-.39,1.14-13.43,6.6-28.82,8.34-41.28,8.34Z"/>
          <path class="cls-2" d="m213.05,63.35c-.35-.67.04-1.49.5-2.09,1.91-2.48,5.26-3.76,8.33-3.19.78.15,1.57.42,2.11,1,.54.58.75,1.52.31,2.17-.48.72-1.46.83-2.31.97-1.65.27-3.23.86-4.8,1.4-.85.3-1.74.58-2.64.53-.59-.04-1.22-.27-1.5-.79Z"/>
          <path class="cls-2" d="m229.14,99.35c-8.59,0-12.86-6.75-12.91-6.83-.25-.4-.12-.92.28-1.17.4-.25.92-.12,1.17.28.21.34,5.16,8.08,15.49,5.5.45-.11.92.16,1.03.62.11.45-.16.92-.62,1.03-1.59.4-3.07.57-4.44.57Z"/>
          <path class="cls-2" d="m215.62,93.63c-.27,0-.53-.13-.7-.37-.27-.39-.17-.91.22-1.18l3.1-2.15c.38-.27.91-.17,1.18.22.27.39.17.91-.22,1.18l-3.1,2.15c-.15.1-.32.15-.48.15Z"/>
          <path class="cls-2" d="m182.93,91.85c-.41,0-.77-.3-.84-.71-1.14-6.94-9.85-7.57-9.94-7.57-.47-.03-.82-.43-.79-.9.03-.47.43-.81.9-.79.1,0,10.16.73,11.51,8.99.08.46-.24.9-.7.97-.05,0-.09.01-.14.01Z"/>
          <path class="cls-2" d="m176.2,89.04c-.3,0-.59-.16-.75-.44-.23-.41-.07-.93.34-1.15l4.04-2.21c.41-.22.93-.07,1.15.34.23.41.07.93-.34,1.15l-4.04,2.21c-.13.07-.27.1-.41.1Z"/>
          <path class="cls-2" d="m159.49,31.47s-.24-19.69-12.32-24.75c-12.08-5.06-14.04,10.29-14.04,10.29,0,0-10.73-18.97-30.57-8.51s4.07,29.05,4.07,29.05c0,0-7.96,1.06-11.94,8.77-3.98,7.71,16.32,12.9,16.32,12.9,0,0-6.98,14.84,4.11,17.02,11.09,2.19,24.56-12.1,24.56-12.1l19.82-32.68Z"/>
          <path class="cls-2" d="m183.39,278.32c-.42,0-.78-.31-.84-.73-.06-.47.26-.89.72-.96,23.27-3.22,40.39-27.36,40.56-27.6.27-.38.8-.48,1.18-.21.38.27.48.8.21,1.18-.17.25-17.73,24.99-41.72,28.31-.04,0-.08,0-.12,0Z"/>
          <path class="cls-2" d="m187.38,111.98c-.17,0-.35-.05-.5-.16-2.25-1.65-2.42-4.89-1.43-7.1.98-2.21,2.88-3.79,4.78-5.17l.51-.37c1.17-.84,2.27-1.63,3.15-2.64,2.68-3.07,2.7-8.08.05-11.17-.59-.69-1.31-1.31-2.06-1.96-1.45-1.25-2.95-2.54-3.6-4.47-.86-2.56.29-5.62,2.62-6.98.41-.24.93-.1,1.16.31.24.41.1.93-.31,1.16-1.63.95-2.47,3.18-1.86,4.97.5,1.49,1.76,2.57,3.1,3.73.77.66,1.56,1.35,2.24,2.14,3.18,3.71,3.15,9.71-.06,13.39-1.01,1.16-2.24,2.04-3.43,2.9l-.5.36c-1.71,1.24-3.41,2.65-4.23,4.49-.73,1.63-.6,3.96.88,5.04.38.28.46.81.18,1.19-.17.23-.42.35-.69.35Z"/>
        </g>
        <g>
          <g>
            <path class="cls-7" d="m372.1,51.66c-.67-2.62-2.31-4.82-4.63-6.19l-3.74-2.22h0s-23.85-14.17-23.85-14.17c-.22.25-.42.5-.58.74-5.5,5.5-1.18,14.61-4.13,19.96l21.99,13.06c.79.47,1.63.83,2.51,1.07,4.36,1.19,9.03-.7,11.34-4.59,1.38-2.32,1.77-5.04,1.11-7.65Z"/>
            <path class="cls-2" d="m362.29,65.1h0c-.97,0-1.93-.13-2.86-.38-.95-.26-1.86-.65-2.72-1.15l-22.69-13.48.4-.72c1.14-2.07,1.09-4.89,1.03-7.86-.08-4.14-.17-8.82,3.19-12.23.16-.23.35-.48.59-.76l.46-.54,28.21,16.76c2.51,1.49,4.3,3.88,5.02,6.71.72,2.84.3,5.78-1.2,8.3-1.96,3.31-5.58,5.36-9.43,5.36Zm-26.03-15.66l21.32,12.67c.72.43,1.49.76,2.3.98.79.21,1.6.32,2.41.32,3.26,0,6.31-1.73,7.97-4.53,1.26-2.13,1.62-4.62,1.01-7.01-.61-2.4-2.12-4.41-4.24-5.67l-26.96-16.02s-.05.07-.07.11l-.11.13c-2.91,2.91-2.83,7.05-2.75,11.06.06,2.9.11,5.65-.88,7.97Z"/>
          </g>
          <g>
            <path class="cls-6" d="m339.3,29.81c.16-.24.36-.49.58-.74l-41.33-24.56c-.18-.11-.4-.14-.6-.09-.2.05-.38.18-.49.36l-5.38,9.06-4.53,7.63,47.62,28.3c2.95-5.35-1.36-14.46,4.13-19.96Z"/>
            <path class="cls-2" d="m335.16,50.62c-.15,0-.3-.04-.43-.12l-47.62-28.3c-.19-.11-.33-.3-.39-.52-.06-.22-.02-.45.09-.64l9.92-16.69c.22-.37.59-.65,1.01-.75.42-.11.87-.04,1.25.18l41.33,24.56c.22.13.36.34.4.59.04.25-.03.5-.19.69-.22.25-.39.47-.51.66-.03.05-.07.09-.11.13-2.91,2.91-2.83,7.05-2.75,11.06.06,3.21.12,6.24-1.24,8.71-.11.2-.3.35-.52.41-.07.02-.15.03-.22.03Zm-46.46-29.44l46.09,27.38c.76-1.97.71-4.45.66-7.06-.08-4.12-.17-8.79,3.16-12.2l-40.5-24.06-9.41,15.94Z"/>
          </g>
          <g>
            <g>
              <path class="cls-6" d="m282.56,11.28h21.1c.64,0,1.16.52,1.16,1.16v1.43c0,.64-.52,1.16-1.16,1.16h-21.1c-.64,0-1.16-.52-1.16-1.16v-1.43c0-.64.52-1.16,1.16-1.16Z" transform="translate(132.08 258.42) rotate(-59.28)"/>
              <path class="cls-2" d="m288.33,24.6h0c-.36,0-.71-.1-1.02-.28l-1.23-.73c-.46-.27-.79-.71-.92-1.23-.13-.52-.06-1.06.22-1.52l10.78-18.14c.54-.91,1.84-1.25,2.75-.7l1.23.73c.46.27.79.71.92,1.23.13.52.06,1.06-.22,1.52l-10.78,18.14c-.36.61-1.02.98-1.73.98Zm9.55-21.19c-.09,0-.21.04-.27.15l-10.78,18.14c-.06.1-.04.19-.03.24.01.05.05.13.14.19l1.23.73s.1.04.16.04h0c.09,0,.21-.04.27-.15l10.78-18.14c.06-.1.04-.19.03-.24-.01-.05-.05-.13-.14-.19l-1.23-.73s-.1-.04-.16-.04Z"/>
            </g>
            <path class="cls-4" d="m287.34,24.27l-1.23-.73c-.93-.55-1.23-1.75-.68-2.68l10.78-18.14c.54-.9,1.77-1.22,2.68-.68l1.23.73c.45.27.77.69.89,1.2.13.51.05,1.03-.21,1.48l-10.78,18.14c-.45.75-1.35,1.12-2.2.89-.17-.05-.33-.11-.48-.2Zm10.23-20.74l-10.78,18.14c-.1.17-.04.4.13.5l1.23.73c.18.1.4.04.5-.13l10.78-18.14c.07-.11.05-.22.04-.28-.01-.06-.05-.16-.17-.22l-1.23-.73s-.06-.03-.09-.04c-.16-.04-.33.03-.41.17Z"/>
          </g>
          <path class="cls-3" d="m283.92,14.88c-.98-.58-1.31-1.86-.72-2.84.58-.98,1.86-1.31,2.84-.72.98.58,1.31,1.86.72,2.84-.58.98-1.86,1.31-2.84.72Z"/>
          <path class="cls-3" d="m281.26,6.96c-.36-.22-.48-.68-.27-1.05.22-.36.68-.48,1.05-.27.36.22.48.68.27,1.05-.22.36-.68.48-1.05.27Z"/>
        </g>
      </g>
      <g>
        <polygon class="cls-2" points="269.72 101.47 271.06 100.02 286.41 114.31 290.74 111.3 289.05 91 291.02 90.84 292.8 112.27 286.23 116.83 269.72 101.47"/>
        <g>
          <path class="cls-5" d="m265.38,105.91c3.44,1.61,7.54.13,9.15-3.31,1.61-3.44.13-7.54-3.31-9.15-3.44-1.61-7.54-.13-9.15,3.31-1.61,3.44-.13,7.54,3.31,9.15Z"/>
          <path class="cls-2" d="m268.3,107.41h0c-1.14,0-2.24-.25-3.28-.73-3.86-1.81-5.52-6.42-3.71-10.28,1.27-2.7,4.02-4.45,7-4.45,1.14,0,2.24.25,3.28.73,1.87.88,3.28,2.43,3.99,4.37.7,1.94.6,4.04-.27,5.91-1.27,2.7-4.02,4.45-7,4.45Zm0-13.76c-2.33,0-4.48,1.36-5.47,3.47-1.41,3.01-.11,6.61,2.9,8.02.81.38,1.67.57,2.56.57,2.33,0,4.48-1.36,5.47-3.47.68-1.46.76-3.1.21-4.61-.55-1.52-1.65-2.73-3.11-3.41-.81-.38-1.67-.57-2.56-.57Z"/>
        </g>
        <g>
          <path class="cls-7" d="m287.3,122.21c3.44,1.61,7.54.13,9.15-3.31,1.61-3.44.13-7.54-3.31-9.15s-7.54-.13-9.15,3.31c-1.61,3.44-.13,7.54,3.31,9.15Z"/>
          <path class="cls-2" d="m290.22,123.71h0c-1.14,0-2.24-.25-3.28-.73-3.86-1.81-5.52-6.42-3.71-10.28,1.27-2.7,4.02-4.45,7-4.45,1.14,0,2.24.25,3.28.73,1.87.88,3.28,2.43,3.99,4.37.7,1.94.6,4.04-.27,5.91-1.27,2.7-4.02,4.45-7,4.45Zm0-13.76c-2.33,0-4.48,1.36-5.47,3.47-1.41,3.01-.11,6.61,2.9,8.02.81.38,1.67.57,2.56.57,2.33,0,4.48-1.36,5.47-3.47.68-1.46.76-3.1.21-4.61-.55-1.52-1.65-2.73-3.11-3.41-.81-.38-1.67-.57-2.56-.57Z"/>
        </g>
        <g>
          <path class="cls-1" d="m286.5,92.94c3.44,1.61,7.54.13,9.15-3.31,1.61-3.44.13-7.54-3.31-9.15-3.44-1.61-7.54-.13-9.15,3.31-1.61,3.44-.13,7.54,3.31,9.15Z"/>
          <path class="cls-2" d="m289.42,94.44c-1.14,0-2.24-.25-3.28-.73-1.87-.88-3.28-2.43-3.99-4.37-.7-1.94-.6-4.04.27-5.91,1.27-2.7,4.02-4.45,7-4.45,1.14,0,2.24.25,3.28.73,1.87.88,3.28,2.43,3.99,4.37.7,1.94.6,4.04-.27,5.91-1.27,2.7-4.02,4.45-7,4.45Zm0-13.77c-2.33,0-4.48,1.36-5.47,3.47-.68,1.46-.76,3.1-.21,4.61.55,1.52,1.65,2.73,3.11,3.41.81.38,1.67.57,2.56.57,2.33,0,4.48-1.36,5.47-3.47.68-1.46.76-3.1.21-4.61-.55-1.52-1.65-2.73-3.11-3.41-.81-.38-1.67-.57-2.56-.57Z"/>
        </g>
      </g>
      <g>
        <polygon class="cls-2" points="88.75 130.61 87 128.8 106.25 110.18 102.7 104.45 76.69 105.24 76.62 102.73 104.07 101.89 109.46 110.58 88.75 130.61"/>
        <g>
          <path class="cls-5" d="m94.13,136.45c2.29-4.28.68-9.61-3.6-11.9-4.28-2.29-9.61-.68-11.9,3.6-2.29,4.28-.68,9.61,3.6,11.9s9.61.68,11.9-3.6Z"/>
          <path class="cls-2" d="m86.37,141.94h0c-1.57,0-3.14-.4-4.54-1.14-4.69-2.51-6.46-8.36-3.95-13.05,1.68-3.14,4.94-5.09,8.51-5.09,1.57,0,3.14.39,4.54,1.14,4.69,2.51,6.46,8.36,3.95,13.05-1.68,3.14-4.94,5.09-8.51,5.09Zm.02-17.58c-2.94,0-5.63,1.61-7.01,4.2-2.07,3.86-.6,8.68,3.26,10.75,1.15.62,2.44.94,3.74.94,2.94,0,5.63-1.61,7.01-4.2,2.07-3.86.6-8.68-3.26-10.75-1.15-.61-2.44-.94-3.74-.94Z"/>
        </g>
        <g>
          <path class="cls-7" d="m116.39,109.58c2.29-4.28.68-9.61-3.6-11.9s-9.61-.68-11.9,3.6-.68,9.61,3.6,11.9,9.61.68,11.9-3.6Z"/>
          <path class="cls-2" d="m108.63,115.07h0c-1.57,0-3.14-.39-4.54-1.14-2.27-1.21-3.93-3.24-4.68-5.7-.75-2.46-.49-5.07.73-7.34,1.68-3.14,4.94-5.09,8.51-5.09,1.57,0,3.14.39,4.54,1.14,4.69,2.51,6.46,8.36,3.95,13.05-1.68,3.14-4.94,5.09-8.51,5.09Zm.01-17.58c-2.94,0-5.63,1.61-7.01,4.2-1,1.87-1.21,4.02-.6,6.05.62,2.03,1.98,3.7,3.85,4.7,1.15.62,2.44.94,3.74.94,2.94,0,5.63-1.61,7.01-4.2,2.07-3.86.6-8.68-3.26-10.75-1.15-.62-2.44-.94-3.74-.94Z"/>
        </g>
        <g>
          <path class="cls-1" d="m78.99,108.63c2.29-4.28.68-9.61-3.6-11.9s-9.61-.68-11.9,3.6-.68,9.61,3.6,11.9c4.28,2.29,9.61.68,11.9-3.6Z"/>
          <path class="cls-2" d="m71.23,114.13h0c-1.57,0-3.14-.39-4.54-1.14-4.69-2.51-6.46-8.36-3.95-13.05,1.68-3.14,4.94-5.09,8.51-5.09,1.57,0,3.14.39,4.54,1.14,2.27,1.21,3.93,3.24,4.68,5.7.75,2.46.49,5.07-.73,7.34-1.68,3.14-4.94,5.09-8.51,5.09Zm.01-17.58c-2.94,0-5.63,1.61-7.01,4.2-2.07,3.86-.6,8.68,3.26,10.75,1.15.62,2.44.94,3.74.94,2.94,0,5.62-1.61,7.01-4.2,1-1.87,1.21-4.02.6-6.05-.61-2.03-1.98-3.7-3.85-4.7-1.15-.62-2.44-.94-3.74-.94Z"/>
        </g>
      </g>
      <g>
        <g>
          <path class="cls-6" d="m67.56,264.28c-4.37-1.85-7.07-6.29-7.04-11.03l.31-52.63h.66c1.23.01,2.25-.99,2.26-2.23,0-1.23-1-2.25-2.23-2.26l-24.27-.14c-1.23,0-2.25,1-2.26,2.23,0,1.23,1,2.25,2.23,2.26h.92s-.31,52.68-.31,52.68c-.03,4.77-2.85,9.11-7.25,10.97-17.65,7.44-30.13,25.27-29.73,45.3.24,12.02,4.91,22.96,12.44,31.26,4.51,4.97,10.98,7.73,17.69,7.77l35.27.2c6.76.04,13.29-2.7,17.88-7.66,7.84-8.48,12.66-19.8,12.73-32.26.12-19.97-12-37.13-29.31-44.46Z"/>
          <path class="cls-2" d="m66.41,349.51h-.15l-35.27-.21c-7.03-.04-13.71-2.97-18.31-8.04C4.74,332.53.24,321.23,0,309.45c-.39-19.77,11.76-38.3,30.25-46.1,4.06-1.71,6.71-5.72,6.73-10.19l.3-51.83h-.07c-.82,0-1.6-.33-2.18-.92-.58-.59-.9-1.37-.89-2.19,0-1.69,1.4-3.07,3.09-3.07l24.29.14c.82,0,1.6.33,2.18.92.58.59.9,1.37.89,2.19,0,1.64-1.3,2.98-2.92,3.07l-.3,51.79c-.03,4.53,2.53,8.55,6.52,10.24,18.24,7.72,29.94,25.48,29.83,45.24-.07,12.2-4.67,23.86-12.96,32.83-4.66,5.04-11.35,7.94-18.36,7.94Zm-29.16-152.66c-.77,0-1.4.62-1.4,1.38,0,.37.14.72.4.99.26.27.61.41.98.42h.92c.47,0,.85.39.84.86l-.31,52.67c-.03,5.16-3.08,9.77-7.77,11.75-17.85,7.53-29.59,25.41-29.21,44.5.23,11.37,4.57,22.27,12.22,30.7,4.29,4.72,10.51,7.45,17.07,7.49l35.41.21c6.54,0,12.78-2.69,17.12-7.39,8-8.65,12.44-19.91,12.51-31.69.11-19.08-11.19-36.22-28.79-43.67-4.62-1.96-7.59-6.59-7.56-11.81l.31-52.63c0-.23.09-.44.25-.6.16-.16.37-.25.6-.25h.66c.77,0,1.4-.62,1.4-1.38,0-.37-.14-.72-.4-.99-.26-.27-.61-.41-.98-.42l-24.27-.14Z"/>
        </g>
        <path class="cls-3" d="m55.16,202.05h0c1.26,0,2.29,1.05,2.29,2.31l-.3,52.05c0,1.26-1.05,2.29-2.31,2.29h0c-1.26,0-2.29-1.05-2.29-2.31l.3-52.05c0-1.26,1.05-2.29,2.31-2.29Z"/>
        <g>
          <path class="cls-5" d="m88.76,306.16c.23,1.74.34,3.51.33,5.31-.06,10.27-4.06,19.6-10.57,26.59-3.81,4.1-9.24,6.35-14.86,6.32l-29.3-.17c-5.58-.03-10.94-2.3-14.69-6.4-6.26-6.84-10.14-15.86-10.34-25.77-.04-2.15.12-4.27.43-6.34l79.01.46Z"/>
          <path class="cls-2" d="m63.77,345.22h-.12l-29.3-.17c-5.88-.03-11.46-2.47-15.32-6.67-6.62-7.23-10.37-16.58-10.56-26.32-.04-2.08.11-4.26.44-6.48.06-.42.42-.72.84-.72h0l79.01.46c.42,0,.78.32.84.74.23,1.79.35,3.61.34,5.42-.06,10.1-3.89,19.75-10.8,27.17-3.9,4.19-9.5,6.59-15.36,6.59Zm-53.29-38.67c-.24,1.87-.35,3.71-.32,5.47.19,9.34,3.78,18.29,10.12,25.21,3.53,3.86,8.66,6.09,14.07,6.12l29.42.17c5.39,0,10.54-2.2,14.12-6.05,6.62-7.11,10.29-16.35,10.35-26.02,0-1.49-.07-2.98-.23-4.46l-77.52-.45Z"/>
        </g>
        <circle class="cls-3" cx="70.86" cy="287.57" r="12.86" transform="translate(-146.32 86.2) rotate(-33.32)"/>
        <path class="cls-3" d="m79.16,301.81c.02-2.67,2.2-4.83,4.87-4.81,2.67.02,4.83,2.2,4.81,4.87-.02,2.67-2.2,4.83-4.87,4.81-2.67-.02-4.83-2.2-4.81-4.87Z"/>
      </g>
      <g>
        <g>
          <g>
            <path class="cls-6" d="m356.19,283.69v-55.87h-19.93v55.87l-31.07,54.38c-2.46,4.3.65,9.66,5.61,9.66h70.86c4.96,0,8.07-5.36,5.61-9.66l-31.07-54.38Z"/>
            <path class="cls-2" d="m381.66,348.58h-70.86c-2.63,0-5-1.36-6.32-3.64-1.32-2.28-1.33-5-.02-7.29l30.96-54.18v-55.65c0-.47.38-.85.85-.85h19.93c.47,0,.85.38.85.85v55.65l30.96,54.18c1.31,2.29,1.3,5.01-.02,7.29-1.32,2.28-3.68,3.64-6.32,3.64Zm-44.55-119.91v55.02c0,.15-.04.29-.11.42l-31.07,54.38c-1,1.76-1,3.85.02,5.6,1.01,1.75,2.83,2.79,4.85,2.79h70.86c2.02,0,3.84-1.04,4.85-2.79,1.02-1.75,1.02-3.84.02-5.6l-31.07-54.38c-.07-.13-.11-.27-.11-.42v-55.02h-18.23Z"/>
          </g>
          <path class="cls-2" d="m361.5,300.28h-30.87l-20.46,35.8c-2.15,3.77.57,8.45,4.9,8.45h61.98c4.34,0,7.05-4.68,4.9-8.45l-20.46-35.8Z"/>
          <g>
            <path class="cls-6" d="m335.61,225.7h21.52c.93,0,1.68.75,1.68,1.68v1.06c0,.93-.75,1.68-1.68,1.68h-21.52c-.93,0-1.68-.75-1.68-1.68v-1.06c0-.93.75-1.68,1.68-1.68Z"/>
            <path class="cls-2" d="m357.38,230.96h-22.02c-1.25,0-2.27-1.02-2.27-2.27v-1.56c0-1.25,1.02-2.27,2.27-2.27h22.02c1.25,0,2.27,1.02,2.27,2.27v1.56c0,1.25-1.02,2.27-2.27,2.27Zm-22.02-4.41c-.32,0-.57.26-.57.57v1.56c0,.31.26.58.57.58h22.02c.31,0,.57-.26.57-.58v-1.56c0-.32-.26-.57-.57-.57h-22.02Z"/>
          </g>
        </g>
        <path class="cls-3" d="m349.73,326.96c0-.81-.66-1.47-1.47-1.47s-1.47.66-1.47,1.47.66,1.47,1.47,1.47,1.47-.66,1.47-1.47Z"/>
        <circle class="cls-3" cx="337.6" cy="313.36" r="5.88"/>
        <circle class="cls-3" cx="358.37" cy="312.44" r="2.02"/>
        <path class="cls-3" d="m337.97,335.97c0-1.73-1.4-3.12-3.12-3.12s-3.12,1.4-3.12,3.12,1.4,3.12,3.12,3.12,3.12-1.4,3.12-3.12Z"/>
        <path class="cls-2" d="m362.33,212.49c0-1.87-1.52-3.38-3.39-3.38s-3.39,1.52-3.39,3.38,1.52,3.39,3.39,3.39,3.39-1.52,3.39-3.39Z"/>
        <path class="cls-2" d="m345.59,195.92c0-1.57-1.28-2.85-2.85-2.85s-2.85,1.28-2.85,2.85,1.28,2.85,2.85,2.85,2.85-1.28,2.85-2.85Z"/>
        <circle class="cls-2" cx="342.02" cy="214.45" r="6.06"/>
      </g>
    </g>
  </g>
</svg>