<?xml version="1.0" encoding="UTF-8"?>
<svg id="_레이어_2" data-name="레이어 2" xmlns="http://www.w3.org/2000/svg" viewBox="0 0 374.2 373.22">
  <defs>
    <style>
      .cls-1 {
        fill: #f2cf63;
      }

      .cls-1, .cls-2, .cls-3, .cls-4, .cls-5, .cls-6, .cls-7, .cls-8, .cls-9, .cls-10 {
        stroke-width: 0px;
      }

      .cls-2 {
        fill: #2b2b2b;
      }

      .cls-3 {
        fill: #333;
      }

      .cls-4 {
        fill: #290a43;
      }

      .cls-5 {
        fill: #fff;
      }

      .cls-6 {
        fill: #f29c50;
      }

      .cls-7 {
        fill: #1a194e;
      }

      .cls-8 {
        fill: #ffecbb;
      }

      .cls-9 {
        fill: #fc5e71;
      }

      .cls-10 {
        fill: #f29199;
      }
    </style>
  </defs>
  <g id="_迹_1" data-name="卵迹_1">
    <g>
      <path class="cls-8" d="m36.19,273.25c-.99.85-1.93,1.76-2.82,2.75-14.96,16.59-16.22,49.83-3.97,68.07,5.86,8.73,14.89,14.89,24.38,19.42,27.74,13.24,61.04,12.58,89.05.49,31.29-13.51,48.68-46.14,82.85-54.63,10.47-2.6,21.39-2.63,32.09-3.96,34.6-4.31,66.48-23.76,87.86-51.06,23.63-30.18,32.05-73.6,27.29-111.46-3.62-28.79-17.76-61.29-42.54-78.14-27.46-18.67-66.43-12.95-97.76-12.35-15.55.3-23.69-2.61-34.56-12.88-26.74-25.28-74.29-24.19-106-9.29-27.02,12.69-44.24,39.12-43.67,69.02.79,41.47,35.92,71.52,34.63,113.4-.46,15.02-6,30.46-16.51,41.39-8.49,8.83-21.26,11.46-30.32,19.26Z"/>
      <g>
        <g>
          <path class="cls-3" d="m160.25,108.04c-.41,0-.8-.21-1.01-.6-.31-.56-.11-1.26.45-1.57,2.1-1.16,7.33-4.94,6.35-8.43-.3-1.06-.63-2.07-.96-3.05-1.3-3.92-2.53-7.62-.33-11.54,1.07-1.9,2.17-3.02,3.13-4.01,1.38-1.42,2.58-2.64,3.68-6.02.2-.6.85-.94,1.46-.74.61.2.94.85.74,1.46-1.27,3.9-2.78,5.43-4.23,6.92-.95.97-1.85,1.89-2.77,3.53-1.71,3.03-.73,5.97.51,9.68.34,1.01.69,2.06.99,3.15,1.67,5.96-7.09,10.86-7.46,11.07-.18.1-.37.14-.56.14Z"/>
          <path class="cls-3" d="m240.46,114.11c-.56,0-1.06-.41-1.14-.99-.09-.63.35-1.22.98-1.31.57-.08.92-.32,1.14-.81,1.1-2.38-1.06-8.96-5.03-15.31-3.02-4.83-2.06-6.95-.24-10.02.99-1.67,2.21-3.74,2.87-7.18.12-.62.71-1.03,1.35-.92.63.12,1.04.72.92,1.35-.73,3.84-2.07,6.1-3.15,7.93-1.52,2.57-2.22,3.74.21,7.62,2.84,4.53,7.12,13.32,5.17,17.51-.55,1.19-1.56,1.93-2.9,2.12-.06,0-.11.01-.17.01Z"/>
          <path class="cls-3" d="m115.95,210.37c-9.64-.72-23.2-14.6-25.5-19.27s30.41,4.83,30.41,4.83l-4.9,14.44Z"/>
          <path class="cls-3" d="m258.28,67.31c11.98-.68,23.99-6.6,35.62,9.43,11.63,16.03-2.42,30.67,6.26,40.95,8.67,10.28,19.97-2.13,36.15,4.69,16.18,6.83,26.98,38.32-2.53,50.88-29.51,12.56-72-17.12-78.9-31.63-6.9-14.51-8.89-16.26-1.59-28.2,7.3-11.93,12.78-10.66,10.85-21.64-1.93-10.99-12.64-14.04-12.64-14.04l6.79-10.44Z"/>
          <path class="cls-3" d="m228.37,4.52s10.18-1.05,17.33,3.87c7.15,4.91,22.13,32.19,16.36,55.75s-28.11,26.52-33.04,37.01l-57.76-38.29s-5.75-25.17-1.83-37.97c3.92-12.8,33.2-34.29,58.94-20.37Z"/>
          <g>
            <path class="cls-9" d="m340.71,227.93s-1.38.72-3.64,1.84c-5.68,2.81-16.93,8.16-25.87,10.96-12.5,3.92-28.16,8.16-32.66,10.13-1.82.79-3.8,1.48-5.51,2.01-2.53.8-4.48,1.26-4.48,1.26l-1.03,26.67-1.4,36.26.58,1.17c-24.63-.54-49.26-3.06-73.89-5.72-25.47-2.75-50.92-5.66-76.39-6.69.85-1.65,1.64-2.95,2.35-3.8l.82-56.87s-9.16-12.28-8.11-21.26c1.05-8.97,5.35-19.93,5.35-19.93,0,0-10.72-.81-18.68-6.34-7.95-5.53-14.66-9.56-14.66-9.56,0,0,26.69-43.25,37.2-50.67,7.4-5.23,40.97-11.29,60.24-14.42,8.04,17.34,41.12,17.61,55.72,1.98,24.62,8.45,57.54,18.8,73.51,34.96,17.36,17.55,30.56,68.02,30.56,68.02Z"/>
            <path class="cls-3" d="m266.71,319.47h-.04c-24.29-1-48.85-3.21-73.96-5.92l-6.02-.75c-23.05-2.5-46.88-5.14-70.32-6.08-.29-.01-.55-.19-.7-.45-.15-.25-.15-.57-.02-.83.84-1.63,1.58-2.86,2.26-3.72l.81-56.29c-1.31-1.81-9.11-13.01-8.1-21.63.87-7.47,3.91-16.14,5.01-19.1-3-.37-11.35-1.77-17.98-6.37-7.84-5.45-14.55-9.49-14.62-9.53-.19-.12-.33-.31-.39-.53-.05-.22-.02-.45.1-.65,1.09-1.77,26.9-43.48,37.43-50.92,7.55-5.34,41.2-11.42,60.59-14.57.38-.06.75.14.91.48,3.68,7.94,13.56,12.88,25.77,12.88,11.38,0,22.05-4.16,28.55-11.12.23-.24.58-.33.9-.22,1.84.63,3.73,1.27,5.65,1.93,23.73,8.08,53.27,18.14,68.19,33.24,17.33,17.51,30.23,66.33,30.78,68.4.1.38-.08.78-.43.97,0,0-1.39.72-3.66,1.85-5.9,2.92-17.12,8.23-25.99,11.01-4.68,1.47-9.73,2.96-14.61,4.4-7.81,2.31-15.2,4.49-17.97,5.7-2.05.89-4.18,1.6-5.6,2.04-1.7.54-3.13.92-3.91,1.12l-2.4,62.07.42.84c.11.14.17.52.17.71,0,.47-.38,1.04-.85,1.04Zm-148.91-14.44c23.05.99,46.44,3.53,69.08,5.99l6.02.65c24.6,2.66,48.65,5.09,72.42,5.68-.04-.1-.05-.21-.05-.32l2.43-62.93c.01-.38.28-.71.65-.79.02,0,1.95-.46,4.42-1.24,1.39-.43,3.45-1.12,5.43-1.98,2.87-1.25,9.95-3.35,18.16-5.77,4.87-1.44,9.91-2.93,14.58-4.39,8.76-2.75,19.89-8.02,25.75-10.91,1.37-.68,2.41-1.21,3.02-1.52-1.62-5.97-14.22-50.87-30.16-66.98-14.64-14.81-43.96-24.8-67.53-32.82-1.75-.59-3.46-1.18-5.14-1.75-6.85,7.06-17.79,11.26-29.41,11.26-12.59,0-22.86-5.07-27.03-13.28-19.33,3.15-52.07,9.09-59.26,14.18-9.51,6.72-32.97,44.01-36.52,49.7,1.96,1.2,7.6,4.71,13.98,9.15,7.67,5.34,18.15,6.18,18.25,6.19.27.02.51.17.65.39.14.23.17.51.07.76-.04.11-4.27,10.96-5.3,19.71-1,8.53,7.86,20.53,7.95,20.65.11.15.17.33.17.52l-.82,56.87c0,.19-.07.38-.2.53-.48.57-1.02,1.4-1.62,2.47Z"/>
          </g>
          <g>
            <path class="cls-3" d="m180.03,122.21c8.32-1.47,14.41-3.06,14.41-3.06l36.73,2.14c2.04.78,4.41,2.19,6.59,3-14.97,17.36-49.48,17.15-57.72-2.08Z"/>
            <path class="cls-3" d="m207.46,136.7c-12.69,0-22.99-5.21-26.88-13.59-.05-.1-.05-.22,0-.33.05-.1.15-.17.26-.19,8.02-1.31,13.65-2.12,13.71-2.13l35.9,1.94s.07.01.1.02c1.99.71,4.06,1.42,6.19,2.16.12.04.21.14.24.26.03.12,0,.25-.09.34-6.73,7.21-17.73,11.51-29.44,11.51Zm-26.01-13.46c3.92,7.86,13.82,12.73,26.01,12.73,11.29,0,21.9-4.05,28.52-10.87-1.92-.66-3.8-1.32-5.61-1.96l-35.77-1.94s-5.38.78-13.14,2.04Z"/>
          </g>
          <g>
            <path class="cls-5" d="m180.92,59.4s-9.15-9.66-17.01-6.99c-7.87,2.68-9.21,19.52-.86,22.95s18.56-2.99,18.56-2.99l-.69-12.97Z"/>
            <path class="cls-7" d="m168.46,77.21s0,0,0,0c-2.07,0-4-.36-5.74-1.07-4.78-1.96-6.34-7.55-6.2-12.12.15-5.03,2.41-10.82,7.1-12.42,1-.34,2.07-.51,3.18-.51,7.33,0,14.42,7.41,14.72,7.72.14.15.22.34.23.54l.69,12.97c.02.31-.14.6-.4.76-.27.17-6.64,4.12-13.59,4.12Zm-1.65-24.42c-.92,0-1.81.14-2.63.42-3.34,1.14-5.79,5.6-5.95,10.86-.12,4,1.16,8.86,5.15,10.49,1.53.62,3.24.94,5.09.94,5.48,0,10.76-2.76,12.27-3.61l-.64-12.13c-1.21-1.2-7.34-6.98-13.28-6.98Z"/>
          </g>
          <path class="cls-3" d="m190.99,111.86c.7-6.87,1.22-14.41,1.22-14.41l33.61-10.07c-5.96,13.87-20.02,19.56-34.83,24.48Z"/>
          <path class="cls-3" d="m216.86,53.82c-.33-.01-.65-.14-.9-.39-.13-.12-2.9-2.7-8.08-1.98-.75.1-1.45-.42-1.55-1.17-.1-.75.42-1.45,1.17-1.55,6.59-.91,10.23,2.59,10.38,2.74.54.53.55,1.4.01,1.94-.28.29-.66.42-1.03.41Z"/>
          <path class="cls-3" d="m186.45,49.71c-.31.1-.66.08-.98-.07-.16-.07-3.63-1.59-8.29.78-.67.34-1.5.08-1.85-.6-.35-.68-.08-1.5.6-1.85,5.93-3.02,10.51-.91,10.71-.82.69.33.98,1.15.65,1.83-.17.36-.49.62-.84.73Z"/>
          <path class="cls-3" d="m249.32,58.67l-2.51,6.81-5.54-.38-5.74-.39s-1.33-1.12-3.61-3.47c3.49-2.69,9.37-6.18,14.62-4.33,1.04.37,1.97.97,2.78,1.76Z"/>
          <g>
            <path class="cls-5" d="m247.16,80.74c-4.05,1.61-8.48,1.01-12.07-.1-1.02,2.19-2.35,4.31-3.84,6.29-.82,5.7-4.3,31.64-.8,35.86,3.94,4.74-43.96,11.47-39.99-.7.48-1.49,1.09-5.8,1.56-10.45,10.46-3.47,20.54-7.34,27.66-14.19-.25.14-.5.27-.74.38-9.86,4.57-19.73,7.36-32.53,3.7-18.73-5.34-17.58-31.92-15.22-45.12.42-2.32,5.22-13.39,9.02-14.99,4.95-2.09,26.22-17.49,26.22-17.49,10.61,20.52,21.15,32.82,26.5,38.33,3.49-2.69,9.37-6.18,14.62-4.33.86.3,1.64.77,2.34,1.36,4.93,5.71,4.6,18.57-2.72,21.47Z"/>
            <path class="cls-3" d="m205.15,129.82c-5.54,0-12.63-.68-14.98-3.92-.85-1.17-1.02-2.54-.52-4.08.43-1.33,1.03-5.36,1.52-10.27.03-.33.26-.61.58-.72,7.49-2.48,15.75-5.47,22.45-10.06-4.74,1.83-10.16,3.29-16.28,3.29-3.86,0-7.71-.56-11.75-1.72-21.79-6.22-17.01-39.48-15.83-46.09.39-2.17,5.19-13.8,9.53-15.63,4.8-2.03,25.84-17.25,26.05-17.4.2-.15.45-.2.69-.14.24.06.44.22.56.44,10.25,19.82,20.39,31.89,25.83,37.59,2.96-2.18,7.17-4.57,11.41-4.57,1.19,0,2.34.19,3.41.57.92.32,1.8.83,2.61,1.51.03.03.07.06.1.09,3.07,3.56,4.31,9.74,3.01,15.04-.94,3.84-3.09,6.59-6.06,7.77-3.39,1.35-7.47,1.39-11.93.13-.92,1.85-2.09,3.74-3.48,5.61-2.2,15.38-3.34,32.1-.96,34.98.46.55.55,1.22.26,1.84-1.49,3.18-15.55,5.73-26.21,5.74Zm-12.35-17.55c-.4,3.88-1,8.42-1.54,10.08-.33,1.01-.24,1.84.28,2.56,1.48,2.04,6.44,3.22,13.61,3.22,12.62,0,24.29-3.21,24.68-4.78-3.71-4.44-.49-29.09.58-36.54.02-.14.08-.28.16-.39,1.55-2.06,2.81-4.12,3.75-6.14.18-.39.61-.58,1.02-.45,4.35,1.35,8.31,1.39,11.51.12,2.44-.97,4.23-3.31,5.03-6.6,1.15-4.7.06-10.35-2.6-13.48-.64-.53-1.32-.92-2.02-1.16-.89-.31-1.84-.47-2.84-.47-4.07,0-8.22,2.54-10.98,4.67-.34.26-.83.23-1.13-.08-5.29-5.44-15.66-17.52-26.19-37.66-3.97,2.86-21.1,15.12-25.59,17.01-3.37,1.42-8.13,12.22-8.52,14.36-1.14,6.35-5.77,38.34,14.62,44.15,3.89,1.11,7.58,1.65,11.29,1.65,8.11,0,14.99-2.68,20.65-5.31.22-.1.45-.22.68-.35.37-.21.84-.11,1.1.24.25.34.21.82-.09,1.12-7.34,7.06-17.97,11.05-27.46,14.21Z"/>
          </g>
          <path class="cls-3" d="m268.54,254.71c-.28,0-.53-.2-.57-.49l-5.78-37.29c-.05-.32.17-.61.48-.66.31-.05.61.17.66.48l5.78,37.29c.05.32-.17.61-.48.66-.03,0-.06,0-.09,0Z"/>
          <path class="cls-3" d="m265.01,232.4h0c-2.86-.01-6.43-11.04-7.45-14.42-.09-.3.08-.63.38-.72.31-.09.63.08.72.39,1.98,6.53,4.98,13.59,6.36,13.6.32,0,.57.26.57.58s-.26.57-.58.57Z"/>
          <path class="cls-3" d="m267.26,187.18c-.11,0-.23-.03-.32-.1-.26-.18-.33-.54-.15-.8,11.03-16.19,31.12-24.89,31.32-24.98.3-.13.63,0,.76.3.13.3-.01.63-.3.76-.2.09-19.98,8.67-30.82,24.57-.11.16-.29.25-.48.25Z"/>
          <path class="cls-3" d="m116.82,204.55c-.06,0-.13,0-.19-.03-.3-.1-.46-.43-.36-.73,2.65-7.74,3.71-16.32,3.72-16.41.04-.32.34-.53.64-.5.32.04.54.32.5.64-.01.09-1.08,8.79-3.78,16.64-.08.24-.31.39-.55.39Z"/>
          <path class="cls-3" d="m124.08,156.11h0c-.32,0-.58-.26-.57-.58.01-2.08-3.74-10.88-5.19-14.09-.13-.29,0-.63.29-.76.29-.14.63,0,.76.29.54,1.21,5.31,11.86,5.29,14.57,0,.32-.26.57-.58.57Z"/>
          <path class="cls-3" d="m220.57,248.34c-7.39,0-16.55-1.84-26.91-7.76-.28-.16-.37-.51-.22-.79.16-.28.51-.37.79-.21,26.73,15.26,45.09,2.9,45.27,2.78.26-.18.62-.12.8.14.18.26.12.62-.15.8-.12.08-7.48,5.04-19.59,5.04Z"/>
          <path class="cls-3" d="m345.15,164.94c-.29,0-.59-.11-.81-.34-.45-.45-.45-1.18,0-1.63,11.82-11.87,9.55-24.45,7.15-30.89-3.51-9.43-11.48-16.93-18.53-17.45-4.27-.32-8.3-.13-11.86.04-6,.28-10.74.5-13.33-1.9-1.24-1.15-1.87-2.76-1.94-4.94-.25-8.37-2.61-23.56-8.08-31.04-5.42-7.42-13.6-13.43-36.57-7.28-.61.16-1.25-.2-1.41-.82-.16-.62.2-1.25.82-1.42,24.31-6.51,33.12.07,39.03,8.15,6.23,8.53,8.3,24.88,8.53,32.34.05,1.52.44,2.61,1.2,3.31,1.89,1.75,6.2,1.55,11.66,1.29,3.62-.17,7.73-.36,12.14-.03,7.89.58,16.71,8.73,20.52,18.95,4.42,11.84,1.62,23.99-7.67,33.33-.23.23-.52.34-.82.34Z"/>
          <path class="cls-3" d="m211.66,58.65c0-2.23-.82-4.03-1.84-4.03s-1.84,1.81-1.84,4.03.82,4.03,1.84,4.03,1.84-1.81,1.84-4.03Z"/>
          <path class="cls-3" d="m183.51,57.8c0-2.23-.82-4.03-1.84-4.03s-1.84,1.81-1.84,4.03.82,4.03,1.84,4.03,1.84-1.81,1.84-4.03Z"/>
          <path class="cls-3" d="m194.2,84.01c-3.23,0-5.7-.72-5.91-.78-.45-.13-.7-.61-.57-1.06.14-.45.61-.7,1.06-.57.1.03,9.7,2.81,15.48-3.07.33-.33.87-.34,1.2-.01.33.33.34.87.01,1.2-3.38,3.45-7.77,4.29-11.27,4.29Z"/>
          <path class="cls-3" d="m205.59,80.58c-.33,0-.65-.2-.79-.53-.26-.64-.86-.85-.88-.86-.44-.15-.68-.63-.54-1.07.14-.44.61-.68,1.05-.55.14.04,1.37.46,1.93,1.83.18.43-.03.93-.46,1.11-.11.04-.22.06-.32.06Z"/>
          <path class="cls-5" d="m234.5,24.7c-.67.57-1,1.42-1.31,2.24-.84,2.23-1.67,4.47-2.51,6.7-.23.6-.46,1.22-.9,1.69-.44.47-1.04.74-1.62,1-1.4.62-2.94,1.26-4.41.85-1.54-.42-2.56-1.85-3.43-3.19-1.03-1.58-2.07-3.21-2.54-5.03-.47-1.83-.29-3.92.92-5.38,1.45-1.74,3.96-2.15,6.23-2.06s4.56.55,6.78.06c.74-.16,1.49-.46,1.96-1.05.56-.7.62-1.66.83-2.53.63-2.56,2.94-4.61,5.56-4.93,2.61-.32,5.36,1.11,6.59,3.44.54,1.03.8,2.18,1.06,3.31.1.46.21.93.14,1.39-.18,1.24-1.52,2-2.77,2.1s-2.49-.26-3.74-.31c-1.64-.07-3.25.38-4.83.82-.7.2-1.43.41-1.99.88Z"/>
          <path class="cls-3" d="m193.65,70.21c-.15,0-.3-.04-.44-.12-.69-.41-2.98-1.86-3.46-3.02-.34-.82.19-2.02,1.32-4.43.75-1.59,1.6-3.4,1.74-4.5.06-.47.49-.79.95-.73.47.06.79.49.73.95-.18,1.37-1.05,3.22-1.88,5.01-.52,1.12-1.23,2.63-1.26,3.12.27.47,1.63,1.5,2.75,2.17.4.24.53.76.29,1.16-.16.26-.44.41-.73.41Z"/>
          <path class="cls-3" d="m205.62,50.15c-.18.39-.24.89.03,1.21.15.18.37.27.59.34.6.18,1.25.16,1.88.14,2.09-.07,4.18-.13,6.26-.2.14,0,.29-.01.41-.08.21-.13.26-.39.29-.63.06-.41.1-.89-.19-1.19-.1-.11-.24-.18-.37-.25-1.57-.79-3.32-1.2-5.08-1.18-1.5.01-3.2.49-3.83,1.85Z"/>
          <path class="cls-3" d="m185.96,50.15c.18.39.24.89-.03,1.21-.15.18-.37.27-.59.34-.6.18-1.25.16-1.88.14-2.09-.07-4.18-.13-6.26-.2-.14,0-.29-.01-.41-.08-.21-.13-.26-.39-.29-.63-.06-.41-.1-.89.19-1.19.1-.11.24-.18.37-.25,1.57-.79,3.32-1.2,5.08-1.18,1.5.01,3.2.49,3.83,1.85Z"/>
          <path class="cls-3" d="m235.34,72.88c-.08,0-.17-.01-.25-.04-.45-.14-.7-.61-.56-1.06,1.15-3.74,3.1-6.21,5.79-7.35,4.18-1.77,8.55.4,8.74.49.42.21.58.72.37,1.14-.21.42-.72.59-1.14.38-.04-.02-3.87-1.91-7.32-.44-2.2.94-3.82,3.05-4.81,6.28-.11.36-.45.6-.81.6Z"/>
          <path class="cls-3" d="m242.97,71.09c-.2,0-.4-.07-.56-.21l-3.73-3.25c-.35-.31-.39-.84-.08-1.2.31-.35.84-.39,1.2-.08l3.73,3.25c.35.31.39.84.08,1.2-.17.19-.4.29-.64.29Z"/>
          <path class="cls-3" d="m169.89,65c-.34,0-.66-.21-.79-.54-.68-1.74-1.66-2.85-2.91-3.3-2.06-.74-4.29.5-4.32.51-.41.23-.93.09-1.16-.32-.23-.41-.09-.92.32-1.16.12-.07,2.91-1.64,5.71-.64,1.75.62,3.07,2.06,3.94,4.29.17.44-.05.93-.48,1.1-.1.04-.21.06-.31.06Z"/>
        </g>
        <g>
          <g>
            <path class="cls-6" d="m107.53,116.62h0s0,0,0,0c-21.29,13.74-45.9,21.47-71.23,22.38l-19.85.71v118.06c0,27.14,15.86,52.9,43.37,70.48l47.7,30.47,47.7-30.47c27.51-17.57,43.37-43.34,43.37-70.48v-118.06l-19.85-.71c-25.32-.9-49.93-8.64-71.23-22.38Z"/>
            <path class="cls-3" d="m107.53,359.57c-.16,0-.32-.04-.46-.13l-47.7-30.47c-27.81-17.76-43.76-43.71-43.76-71.19v-118.06c0-.46.36-.83.82-.85l19.85-.71c25.16-.9,49.64-8.59,70.79-22.24.28-.18.64-.18.92,0,21.15,13.65,45.63,21.35,70.8,22.24l19.85.71c.46.02.82.39.82.85v118.06c0,27.48-15.95,53.43-43.76,71.19l-47.7,30.47c-.14.09-.3.13-.46.13ZM17.31,140.53v117.24c0,26.89,15.66,52.32,42.98,69.76l47.24,30.18,47.24-30.18c27.31-17.45,42.98-42.87,42.98-69.76v-117.24l-19.03-.68c-25.28-.9-49.89-8.58-71.19-22.22-21.31,13.63-45.91,21.32-71.19,22.22l-19.03.68Z"/>
          </g>
          <g>
            <path class="cls-1" d="m107.53,149.15h0c-15.91,10.27-34.3,16.05-53.22,16.72l-14.83.53v88.22c0,20.28,11.85,39.53,32.41,52.67l35.64,22.77,35.64-22.77c20.56-13.13,32.41-32.39,32.41-52.67v-88.22l-14.83-.53c-18.92-.68-37.31-6.45-53.22-16.72Z"/>
            <path class="cls-3" d="m107.53,330.91c-.16,0-.32-.04-.46-.13l-35.64-22.77c-20.85-13.31-32.8-32.77-32.8-53.38v-88.22c0-.46.36-.83.82-.85l14.83-.53c18.76-.67,37.02-6.41,52.79-16.59.28-.18.64-.18.92,0,15.78,10.18,34.03,15.92,52.79,16.59l14.83.53c.46.02.82.39.82.85v88.22c0,20.61-11.96,40.07-32.8,53.38l-35.64,22.77c-.14.09-.3.13-.46.13ZM40.33,167.22v87.4c0,20.02,11.67,38.95,32.02,51.95l35.19,22.48,35.19-22.48c20.35-13,32.02-31.93,32.02-51.95v-87.4l-14.01-.5c-18.89-.67-37.27-6.4-53.19-16.56-15.93,10.16-34.31,15.89-53.19,16.56l-14.01.5Z"/>
          </g>
        </g>
        <g>
          <g>
            <path class="cls-5" d="m10.01,189.26l27.72.57c4.95.11,8.87,4.19,8.77,9.14-.08,4.1-2.93,7.47-6.72,8.45,3.92,1.02,6.78,4.6,6.7,8.83-.07,3.24-1.86,6.01-4.46,7.53,2.81,1.56,4.71,4.55,4.64,7.99-.09,4.16-3.01,7.56-6.88,8.49,2.57,1.38,4.3,4.09,4.24,7.21-.09,4.43-3.76,7.95-8.19,7.86l-24.85-.51c-1.15-.02-2.24-.29-3.22-.75-2.79-1.3-4.7-4.16-4.64-7.45.06-3.1,1.89-5.72,4.49-7-.48-.13-.96-.28-1.4-.49-3.12-1.45-5.25-4.65-5.17-8.31.07-3.25,1.87-6.03,4.49-7.54-2.82-1.56-4.74-4.53-4.67-7.97.08-4.1,2.93-7.46,6.72-8.44-.52-.14-1.04-.3-1.52-.53-3.12-1.45-5.25-4.65-5.17-8.3.1-4.94,4.19-8.87,9.14-8.77Z"/>
            <path class="cls-7" d="m35.99,256.16h-.18s-24.85-.52-24.85-.52c-1.24-.03-2.44-.3-3.56-.83-3.19-1.49-5.2-4.72-5.13-8.23.06-2.69,1.33-5.16,3.42-6.78-3.43-1.67-5.58-5.19-5.5-9.02.06-2.98,1.46-5.71,3.8-7.51C1.43,221.4-.06,218.44,0,215.28c.07-3.57,2.13-6.78,5.22-8.42-3.25-1.73-5.27-5.15-5.19-8.86.11-5.29,4.51-9.6,9.8-9.6h.2s27.72.57,27.72.57c5.4.12,9.71,4.6,9.6,10-.07,3.58-2.14,6.79-5.23,8.43,3.22,1.7,5.29,5.08,5.21,8.85-.06,2.97-1.45,5.69-3.77,7.49,2.53,1.88,4.02,4.85,3.95,8.02-.08,3.83-2.4,7.21-5.84,8.73,2.06,1.71,3.25,4.25,3.2,6.97-.1,4.79-4.08,8.69-8.87,8.69Zm-26.16-66.06c-4.38,0-8.01,3.56-8.1,7.94-.07,3.21,1.77,6.16,4.68,7.52.38.18.82.33,1.37.47.37.1.64.44.63.82,0,.39-.26.72-.64.82-3.51.91-6.01,4.05-6.08,7.64-.06,2.98,1.56,5.74,4.23,7.21.27.15.44.43.44.73,0,.31-.16.59-.42.74-2.49,1.44-4.01,3.99-4.07,6.82-.07,3.21,1.77,6.16,4.68,7.52.4.19.85.32,1.27.44.34.09.59.39.62.74.03.35-.15.68-.47.84-2.43,1.2-3.97,3.6-4.02,6.26-.06,2.84,1.57,5.46,4.15,6.66.91.42,1.87.65,2.88.67l25,.52c3.88,0,7.1-3.15,7.18-7.03.06-2.68-1.4-5.15-3.79-6.44-.31-.17-.48-.51-.44-.86.05-.35.3-.63.64-.72,3.59-.86,6.15-4.02,6.23-7.68.06-2.99-1.55-5.76-4.2-7.23-.27-.15-.43-.43-.44-.73,0-.31.16-.59.42-.74,2.47-1.44,3.99-3.99,4.04-6.81.08-3.75-2.42-7.04-6.06-7.99-.37-.1-.64-.44-.63-.82,0-.39.26-.72.64-.82,3.51-.91,6.01-4.05,6.09-7.64.09-4.47-3.47-8.18-7.94-8.27l-27.89-.57Z"/>
          </g>
          <g>
            <path class="cls-7" d="m39.88,207.74c.14-.04.25-.17.25-.33,0-.19-.15-.35-.34-.35l-32.21-.56c-.19,0-.35.15-.35.34,0,.19.15.35.34.35l32.21.56s.07,0,.1-.01Z"/>
            <path class="cls-7" d="m39.78,208.18h-.02l-32.21-.56c-.42,0-.76-.36-.76-.78.01-.42.36-.76.77-.76l32.23.56c.42,0,.76.36.76.78,0,.35-.23.64-.56.73-.06.02-.14.03-.21.03Zm0-.85v.42s0-.42,0-.42h0Z"/>
          </g>
          <g>
            <path class="cls-7" d="m42.11,224.1c.14-.04.24-.16.25-.31.01-.19-.13-.35-.33-.37l-19.73-1.13c-.19-.01-.35.14-.36.32-.01.19.13.35.33.37l19.73,1.13s.08,0,.12-.01Z"/>
            <path class="cls-7" d="m42.01,224.54h-.04s-19.73-1.13-19.73-1.13c-.21-.01-.4-.1-.53-.26-.14-.15-.21-.35-.19-.56.03-.41.36-.72.76-.72l19.78,1.13c.43.03.75.39.73.82-.02.32-.24.6-.55.69-.07.02-.14.03-.22.03Z"/>
          </g>
          <g>
            <path class="cls-7" d="m31.95,240.62c.13-.04.24-.16.25-.31.01-.19-.13-.36-.32-.37l-22.36-1.52c-.19-.02-.36.13-.37.32-.01.19.13.36.32.37l22.36,1.52s.08,0,.12-.01Z"/>
            <path class="cls-7" d="m31.86,241.05h-.08s-22.33-1.53-22.33-1.53c-.2-.01-.39-.11-.53-.26-.14-.16-.2-.35-.19-.56.02-.4.36-.72.76-.72l22.42,1.53c.2.01.39.11.53.26.14.16.2.35.19.56-.02.32-.24.6-.55.69-.07.02-.14.03-.21.03Z"/>
          </g>
          <g>
            <path class="cls-7" d="m39.87,240.58c.13-.04.23-.15.25-.29.02-.19-.11-.36-.3-.38l-3.13-.36c-.19-.02-.36.11-.38.3-.02.19.11.36.3.38l3.13.36s.09,0,.14-.01Z"/>
            <path class="cls-7" d="m39.78,241.02h-.09s-3.13-.37-3.13-.37c-.42-.05-.72-.44-.68-.85.04-.39.37-.68.77-.68h.09s3.13.37,3.13.37c.42.05.72.44.68.85-.03.31-.25.56-.55.65-.07.02-.14.03-.22.03Z"/>
          </g>
          <g>
            <path class="cls-7" d="m34.65,202.76s.06,0,.09,0l6.18-.18c.09,0,.18-.05.23-.12.09-.11,2.11-2.85,1.29-6.5-.04-.16-.21-.26-.36-.23-.17.04-.27.2-.23.36.67,2.96-.74,5.33-1.1,5.88l-5.89.18c-2.97-3.2-1.6-7.52-1.26-8.44l5.13-.23c.17,0,.3-.15.29-.32,0-.17-.15-.3-.32-.29l-5.32.24c-.12,0-.22.07-.27.18-.02.06-2.32,5.49,1.41,9.38.04.04.09.07.14.08Z"/>
            <path class="cls-7" d="m34.73,203.19l-.18-.02c-.12-.03-.24-.1-.33-.19-3.87-4.02-1.6-9.6-1.5-9.84.12-.27.37-.44.65-.44l5.32-.24h0c.42,0,.74.31.76.7,0,.19-.06.38-.19.52-.13.14-.31.23-.51.23l-4.83.22c-.39,1.2-1.28,4.83,1.14,7.59l5.47-.16c.43-.71,1.5-2.82.93-5.37-.09-.39.16-.78.55-.87l.15-.02c.34,0,.63.23.71.56.88,3.9-1.34,6.83-1.37,6.86-.13.17-.34.28-.56.29l-6.2.18Z"/>
          </g>
          <g>
            <path class="cls-7" d="m33.68,220.07s.06,0,.09,0l6.18-.18c.09,0,.18-.05.23-.12.09-.11,2.11-2.85,1.29-6.5-.04-.16-.21-.26-.36-.23-.17.04-.27.2-.23.36.67,2.96-.74,5.33-1.1,5.88l-5.89.18c-2.97-3.2-1.6-7.52-1.26-8.44l5.13-.23c.17,0,.3-.15.29-.32,0-.17-.15-.3-.32-.29l-5.32.24c-.12,0-.22.07-.27.18-.02.06-2.32,5.49,1.41,9.38.04.04.09.07.14.08Z"/>
            <path class="cls-7" d="m33.78,220.5h0s-.12,0-.21-.03c-.11-.03-.23-.1-.32-.19-3.86-4.01-1.6-9.6-1.5-9.83.12-.27.37-.44.64-.45l5.32-.24h0c.42,0,.74.31.76.7,0,.19-.06.38-.19.52-.13.14-.31.23-.51.24l-4.84.22c-.39,1.2-1.28,4.83,1.14,7.6l5.47-.16c.43-.71,1.5-2.82.93-5.37-.09-.39.16-.78.55-.87l.16-.02c.34,0,.63.23.71.56.88,3.88-1.27,6.74-1.37,6.86-.13.17-.34.28-.56.29l-6.19.18Z"/>
          </g>
          <g>
            <path class="cls-7" d="m33.76,235.76s.06,0,.09,0l6.18-.18c.09,0,.18-.05.23-.12.09-.11,2.11-2.85,1.29-6.5-.04-.16-.21-.26-.36-.23-.17.04-.27.2-.23.36.67,2.96-.74,5.33-1.1,5.88l-5.89.17c-2.97-3.2-1.6-7.52-1.27-8.44l5.13-.23c.17,0,.3-.15.29-.32,0-.17-.15-.3-.32-.29l-5.32.24c-.12,0-.22.07-.27.18-.02.06-2.33,5.49,1.41,9.38.04.04.09.07.14.08Z"/>
            <path class="cls-7" d="m33.85,236.19h0s-.12,0-.2-.03c-.12-.03-.23-.1-.32-.19-3.87-4.03-1.6-9.6-1.5-9.84.12-.26.37-.43.64-.44l5.32-.24h0c.42,0,.74.31.76.7,0,.19-.06.38-.19.52-.13.14-.31.23-.51.24l-4.84.22c-.39,1.2-1.28,4.83,1.14,7.6l5.47-.16c.43-.71,1.5-2.83.93-5.37-.09-.39.16-.78.55-.87l.16-.02c.34,0,.63.23.71.56.88,3.89-1.34,6.83-1.37,6.86-.13.17-.34.28-.56.29l-6.19.18Z"/>
          </g>
          <g>
            <path class="cls-7" d="m31.5,252.41s.06,0,.09,0l6.18-.18c.09,0,.18-.05.23-.12.09-.11,2.11-2.85,1.29-6.5-.04-.16-.21-.26-.36-.23-.17.04-.27.2-.23.36.67,2.96-.74,5.33-1.1,5.88l-5.89.18c-2.97-3.2-1.6-7.52-1.27-8.44l5.13-.23c.17,0,.3-.15.29-.32,0-.17-.15-.3-.32-.29l-5.32.24c-.12,0-.22.07-.27.18-.02.06-2.33,5.49,1.41,9.38.04.04.09.07.14.08Z"/>
            <path class="cls-7" d="m31.58,252.84l-.19-.03c-.12-.03-.23-.1-.33-.19-3.87-4.02-1.59-9.6-1.5-9.83.11-.26.37-.43.64-.44l5.32-.24h0c.42,0,.74.31.76.7,0,.19-.06.38-.19.52-.13.14-.31.23-.51.24l-4.84.22c-.39,1.2-1.28,4.83,1.14,7.59l5.47-.16c.43-.71,1.5-2.82.93-5.37-.09-.39.16-.78.55-.87l.16-.02c.34,0,.63.23.71.56.88,3.89-1.34,6.83-1.37,6.86-.13.17-.34.28-.56.29l-6.2.18Z"/>
          </g>
        </g>
        <g>
          <path class="cls-3" d="m69.24,199.55l37.45-21.62,37.48,21.62v43.25l-37.48,21.65-37.45-21.65v-43.25Z"/>
          <g>
            <path class="cls-5" d="m103.66,243.16c-2.15,0-4.21-.94-5.62-2.59l-15.68-18.51c-2.62-3.09-2.24-7.74.85-10.39,3.12-2.62,7.74-2.24,10.39.85l9.86,11.65,17.09-21.62c2.53-3.21,7.15-3.74,10.33-1.21,3.18,2.53,3.74,7.15,1.21,10.33l-22.68,28.69c-1.35,1.74-3.44,2.77-5.65,2.8h-.09Z"/>
            <path class="cls-4" d="m103.75,244h-.09c-2.41,0-4.69-1.05-6.26-2.88l-15.68-18.51c-2.91-3.44-2.49-8.63.95-11.58,1.49-1.25,3.38-1.94,5.31-1.94,2.41,0,4.7,1.05,6.27,2.89l9.19,10.86,16.45-20.81c1.57-1.99,3.91-3.13,6.43-3.13,1.86,0,3.62.62,5.09,1.78,3.55,2.83,4.15,7.99,1.34,11.52l-22.68,28.68c-1.5,1.92-3.85,3.09-6.3,3.12h0Zm-15.78-33.22c-1.54,0-3.03.55-4.21,1.54-2.72,2.33-3.06,6.46-.75,9.19l15.68,18.51c1.25,1.45,3.06,2.29,4.97,2.29h.08c1.94-.03,3.8-.95,4.99-2.47l22.69-28.69c2.23-2.8,1.75-6.89-1.07-9.14-1.16-.92-2.55-1.41-4.03-1.41-2,0-3.86.9-5.1,2.48l-17.74,22.44-10.53-12.44c-1.25-1.45-3.06-2.29-4.98-2.29Z"/>
          </g>
        </g>
        <g>
          <g>
            <path class="cls-5" d="m336.12,229.77c-5.68,2.81-16.93,8.16-25.87,10.96-12.5,3.92-28.16,8.16-32.66,10.13-1.82.79-3.8,1.48-5.51,2.01l9.77,34.54-15.28-6.61-33.47-14.47c-2.46-2.25-10.57-9.25-20.76-13.9-14.02-8.08-28.22-17.1-30.66-20.17-2.54-3.19-7.18-3.71-10.37-1.17-3.18,2.54-3.71,7.18-1.17,10.37,2.53,3.17,8.91,7.78,16.08,12.42-.13.05-.25.09-.39.14-2.98.96-6.18,1.33-10.33,1.59l-40.24.31c-4.25.03-7.69,3.51-7.64,7.76.03,3.35,2.19,6.18,5.19,7.21l-5.24.12c-4.25.1-7.61,3.67-7.52,7.87.1,4.25,3.62,7.62,7.87,7.52l2.44-.05c-2.41,1.32-4.04,3.88-4.01,6.82.03,4.25,3.51,7.67,7.76,7.64l13.17-.1c-2.3,1.36-3.83,3.88-3.77,6.79.09,4.25,3.61,7.63,7.86,7.54l23.32-.49s.05.01.08.01c5.37.4,12.22.01,19.1-.71,31.02,14.84,110.98,68.27,145.9,36.06,19.7-18.16,12.17-74.15-3.64-120.13Z"/>
            <path class="cls-7" d="m310.47,360.47h0c-31.02,0-71.44-21.7-98.18-36.21-7.26-3.94-13.54-7.24-18.59-9.66-7.8.81-14.23,1.1-19.01.74-.02,0-.05.02-.08.02l-23.42.5c-4.62,0-8.45-3.75-8.55-8.36-.04-2.23.78-4.34,2.23-5.94l-10.77.08c-4.74,0-8.58-3.69-8.62-8.37-.02-2.23.83-4.81,2.31-5.81h-.07c-4.61,0-8.44-3.86-8.54-8.47-.1-4.71,3.65-8.69,8.35-8.8l2.21-.08c-1.84-1.58-2.98-3.92-3-6.44-.02-2.28.84-4.43,2.44-6.06,1.61-1.63,3.75-2.55,6.04-2.57l40.24-.31c3.32-.21,6.15-.5,8.74-1.16-7.66-5.03-12.62-8.93-14.75-11.6-2.82-3.55-2.24-8.74,1.3-11.56,1.47-1.17,3.24-1.79,5.12-1.79,2.52,0,4.87,1.13,6.44,3.1,2.12,2.66,14.63,10.87,30.42,19.97,10.14,4.62,18.36,11.7,20.8,13.91l46.99,20.32-9.29-32.82c-.13-.44.13-.91.57-1.04,1.38-.43,3.45-1.12,5.42-1.98,2.87-1.25,9.95-3.35,18.16-5.77,4.87-1.44,9.91-2.93,14.58-4.39,8.76-2.75,19.89-8.02,25.75-10.91.22-.11.47-.12.7-.02.23.09.4.28.48.51,16.14,46.93,23.45,102.34,3.41,120.82-7.46,6.88-17.51,10.16-29.87,10.16Zm-116.61-47.48c.13,0,.25.03.37.08,5.12,2.45,11.49,5.91,18.88,9.91,26.59,14.42,66.78,36.21,97.37,36.22,11.91,0,21.58-3.34,28.72-9.92,19.24-17.74,11.68-73.57-3.56-118.32-6.08,2.99-16.67,7.93-25.12,10.59-4.68,1.47-9.73,2.96-14.61,4.4-7.81,2.31-15.19,4.49-17.96,5.7-1.7.74-3.45,1.35-4.81,1.79l9.55,33.75c.09.32-.01.65-.26.87-.25.22-.6.27-.9.14l-48.76-21.09c-.09-.04-.17-.09-.24-.15-2.26-2.06-10.4-9.13-20.54-13.75-13.56-7.81-28.35-17.12-30.97-20.42-1.25-1.56-3.11-2.46-5.11-2.46-1.49,0-2.9.49-4.07,1.42-2.81,2.24-3.28,6.36-1.04,9.18,2.16,2.7,7.5,6.82,15.87,12.23.27.17.42.49.38.81-.04.32-.25.59-.55.7-.14.05-.27.1-.42.15-3.11,1-6.47,1.38-10.54,1.63l-40.28.31c-1.84.01-3.56.74-4.84,2.05-1.28,1.3-1.97,3.03-1.95,4.85.02,2.89,1.88,5.47,4.62,6.42.39.13.62.53.56.93-.06.41-.41.71-.82.72l-5.24.12c-3.77.09-6.78,3.23-6.7,7,.08,3.69,3.15,6.7,6.85,6.7l2.6-.06c.38.02.74.25.84.63.1.38-.07.78-.41.96-2.23,1.22-3.59,3.54-3.57,6.06.03,3.75,3.1,6.61,6.85,6.61l13.23-.29h0c.38,0,.72.44.82.81.1.37-.06.86-.39,1.05-2.12,1.25-3.4,3.61-3.36,6.09.08,3.7,3.15,6.73,6.85,6.73h.15s23.32-.47,23.32-.47c.04,0,.08,0,.12,0,.02,0,.08.01.11.02,1.34.1,2.91.15,4.6.15,3.99,0,8.8-.29,14.28-.87.03,0,.06,0,.09,0Z"/>
          </g>
          <g>
            <path class="cls-7" d="m165.81,271.34c0,.21-.17.39-.39.41-5.99.59-24.58.23-32.39-.32-.23-.02-.41-.21-.4-.45h0c.02-.25.22-.43.46-.41,7.78.55,26.29.91,32.24.32.24-.02.44.15.47.38,0,.02,0,.04,0,.06Z"/>
            <path class="cls-7" d="m155,272.48c-7.5,0-16.95-.27-22-.63-.46-.03-.81-.42-.79-.89.03-.47.41-.82.85-.82,5.09.36,14.5.63,21.96.63,4.73,0,8.28-.1,10.27-.3.5-.03.89.33.93.76v.13c-.01.41-.34.76-.77.8-2.57.25-7.11.31-10.46.31Zm-21.94-1.48c5.03.36,14.46.63,21.94.63,4.78,0,8.37-.11,10.38-.3-2.54.25-7.03.3-10.35.3-7.48,0-16.92-.27-21.96-.63Z"/>
          </g>
          <g>
            <path class="cls-7" d="m168.4,285.59c0,.22-.18.39-.4.41-7.82.55-27.12,1.19-37.76.94-.24,0-.42-.2-.42-.44h0c0-.24.2-.42.44-.42,10.62.25,29.88-.39,37.68-.94.23-.02.44.16.46.4,0,0,0,.03,0,.05Z"/>
            <path class="cls-7" d="m135.68,287.42c-2.04,0-3.87-.02-5.45-.06-.23,0-.44-.1-.6-.26-.16-.16-.24-.38-.24-.61.02-.48.39-.83.85-.83,1.59.04,3.41.06,5.43.06,10.71,0,25.59-.52,32.24-1h0c.5,0,.87.35.9.79v.09c-.02.44-.36.79-.79.82-6.67.47-21.6,1-32.35,1Zm-5.43-.91c1.57.04,3.4.06,5.43.06,10.73,0,25.63-.53,32.29-1-6.66.47-21.57.99-32.3.99-2.03,0-3.85-.02-5.43-.06Z"/>
          </g>
          <g>
            <path class="cls-7" d="m175.3,299.37c0,.22-.18.4-.4.41-6.16.37-27.46,1.15-27.68,1.16-.24,0-.43-.18-.44-.41-.03-.23.18-.43.41-.44.21,0,21.51-.79,27.66-1.16.23-.01.44.17.45.4,0,.02,0,.03,0,.04Z"/>
            <path class="cls-7" d="m147.21,301.37c-.46,0-.83-.36-.85-.82-.03-.18.04-.4.19-.57.16-.19.39-.3.63-.31.2,0,21.5-.79,27.65-1.16h0c.5,0,.87.35.9.8v.02s0,.07,0,.07c-.02.44-.36.79-.8.81-6.18.37-27.49,1.15-27.69,1.16h-.03Zm27.67-2.01c-6.16.36-27.47,1.15-27.67,1.16v.43s0-.42,0-.42c.2,0,21.49-.79,27.67-1.16Z"/>
          </g>
          <g>
            <path class="cls-7" d="m186.62,273.53s-.01.09-.03.14c-.08.22-.33.33-.55.24l-7.02-2.73c-.22-.09-.33-.34-.24-.55.08-.22.33-.33.55-.24l7.02,2.73c.18.07.28.24.27.42Z"/>
            <path class="cls-7" d="m186.19,274.36c-.11,0-.21-.02-.31-.06l-7.02-2.73c-.22-.08-.38-.25-.48-.46-.09-.21-.09-.44,0-.65.16-.42.68-.65,1.1-.48l7.02,2.73c.34.13.56.47.54.83,0,.1-.03.19-.06.28-.12.31-.44.53-.79.53Zm-7.02-3.58l7.02,2.74v.43s0-.42,0-.42c0,0,0,0,0,0l-7.02-2.74Z"/>
          </g>
          <g>
            <path class="cls-7" d="m186.19,270.37c0,.14-.08.27-.21.35l-6.15,3.59c-.2.12-.47.05-.58-.15-.12-.2-.05-.47.15-.58l6.15-3.59c.2-.12.47-.05.58.15.04.07.06.15.06.23Z"/>
            <path class="cls-7" d="m179.61,274.79c-.3,0-.59-.16-.74-.42-.11-.19-.15-.43-.09-.65.06-.22.2-.41.4-.52l6.14-3.59c.38-.23.94-.09,1.16.31.08.13.12.3.12.46-.01.29-.17.56-.42.7l-6.15,3.59c-.13.08-.28.12-.43.12Zm6.15-4.44l-6.15,3.58v.43s0-.42,0-.42c0,0,0,0,0,0l6.15-3.59Z"/>
          </g>
          <g>
            <path class="cls-7" d="m190.4,288.53s-.01.09-.03.14c-.08.22-.33.33-.55.24l-7.02-2.73c-.22-.08-.33-.33-.24-.55.08-.22.33-.33.55-.24l7.02,2.73c.18.07.28.24.27.42Z"/>
            <path class="cls-7" d="m189.97,289.37c-.11,0-.21-.02-.31-.06l-7.02-2.73c-.21-.08-.38-.25-.47-.46-.09-.21-.09-.44,0-.65.16-.42.68-.65,1.1-.48l7.02,2.73c.34.13.56.47.54.83,0,.1-.02.19-.06.28-.12.31-.44.53-.79.53Zm-7.02-3.58l7.02,2.74v.43s0-.42,0-.42c0,0,0,0,0,0l-7.02-2.73Z"/>
          </g>
          <g>
            <path class="cls-7" d="m189.96,285.37c0,.14-.08.27-.21.35l-6.15,3.59c-.2.12-.47.05-.58-.15-.12-.2-.05-.46.15-.58l6.15-3.59c.2-.12.47-.05.58.15.04.07.06.15.06.23Z"/>
            <path class="cls-7" d="m183.39,289.8c-.3,0-.58-.16-.74-.42-.11-.19-.15-.42-.09-.64.06-.22.2-.41.4-.52l6.15-3.59c.38-.23.94-.09,1.16.31.08.13.12.3.12.46-.01.29-.17.55-.42.7l-6.15,3.59c-.13.08-.28.12-.43.12Zm6.15-4.44l-6.15,3.58h0s6.15-3.58,6.15-3.58Z"/>
          </g>
          <g>
            <path class="cls-7" d="m194.37,305.69s-.01.09-.03.14c-.08.22-.33.33-.55.24l-7.02-2.73c-.22-.08-.34-.34-.24-.55.08-.22.33-.33.55-.24l7.02,2.73c.18.07.28.24.27.42Z"/>
            <path class="cls-7" d="m193.94,306.52c-.11,0-.21-.02-.31-.06l-7.02-2.73c-.21-.08-.39-.25-.48-.46-.09-.21-.09-.44,0-.65.16-.41.67-.64,1.1-.47l7.02,2.73c.34.13.56.47.54.83,0,.1-.03.2-.06.28-.12.31-.44.53-.79.53Zm-7.02-3.58l7.02,2.73v.43s0-.42,0-.42h0s-7.02-2.73-7.02-2.73Z"/>
          </g>
          <g>
            <path class="cls-7" d="m193.93,302.53c0,.14-.08.27-.21.35l-6.15,3.59c-.2.12-.47.05-.58-.15-.12-.2-.05-.46.15-.58l6.15-3.59c.2-.12.47-.05.58.15.04.07.06.15.06.23Z"/>
            <path class="cls-7" d="m187.36,306.95c-.3,0-.58-.16-.74-.42-.11-.2-.15-.43-.09-.65.06-.22.2-.4.4-.52l6.15-3.59c.38-.23.94-.08,1.16.31.08.13.12.3.12.47-.01.29-.17.55-.42.7l-6.15,3.59c-.13.08-.28.12-.43.12Zm6.15-4.44l-6.15,3.58h0s6.15-3.58,6.15-3.58Z"/>
          </g>
          <g>
            <path class="cls-7" d="m133.29,279.69c-.04,1.02-.3,2.01-.92,2.77-.06.07-.15.12-.25.13l-5.21.36c-.06,0-.12,0-.17-.03-.03-.01-3.16-1.47-2.83-5.3.02-.2.18-.34.38-.33.2.02.33.19.33.38,0,.07-.01.14-.01.2-.13,2.92,1.92,4.14,2.35,4.37l4.96-.35c1.46-1.97.16-5.88-.21-6.86l-4.36.15c-.2,0-.36-.15-.37-.34-.04-.21.15-.36.34-.37l4.61-.16c.15,0,.28.08.34.22.06.15,1.12,2.75,1.02,5.16Z"/>
            <path class="cls-7" d="m126.88,283.37c-.11,0-.22-.02-.32-.07-.03-.01-3.44-1.59-3.08-5.73.03-.4.37-.72.78-.72.46.03.78.38.78.8v.22c-.12,2.48,1.48,3.61,2.01,3.92l4.63-.32c1.06-1.7.13-4.88-.27-6.02l-4.05.14h0c-.45,0-.79-.33-.8-.75-.03-.14.02-.35.15-.51.14-.18.37-.28.6-.29l4.61-.16h0c.34,0,.62.19.75.48.05.11,1.16,2.83,1.05,5.34-.05,1.25-.4,2.27-1.02,3.02-.14.16-.34.27-.55.28l-5.26.37Z"/>
          </g>
          <g>
            <path class="cls-7" d="m141.29,264.53c-.04,1.02-.3,2.01-.92,2.77-.06.07-.15.12-.25.13l-5.21.36c-.06,0-.12,0-.17-.03-.03-.01-3.16-1.47-2.83-5.3.02-.2.18-.34.38-.33.2.02.33.19.33.38,0,.07,0,.14-.01.2-.13,2.92,1.92,4.14,2.35,4.37l4.96-.35c1.46-1.97.16-5.88-.21-6.86l-4.36.15c-.2,0-.36-.15-.37-.34-.04-.21.15-.36.34-.37l4.61-.16c.15,0,.28.08.34.22.06.15,1.12,2.75,1.02,5.16Z"/>
            <path class="cls-7" d="m134.88,268.22c-.11,0-.21-.02-.31-.07-.04-.02-3.44-1.61-3.08-5.73.03-.4.37-.72.78-.72.46.03.78.39.78.8v.22c-.12,2.48,1.48,3.61,2.01,3.92l4.63-.32c1.06-1.7.13-4.88-.27-6.02l-4.05.14h0c-.45,0-.79-.33-.8-.75-.03-.15.02-.35.15-.52.14-.17.37-.28.6-.29l4.61-.15h0c.34,0,.62.19.74.48.05.11,1.16,2.81,1.05,5.34-.05,1.25-.4,2.27-1.02,3.02-.14.16-.34.27-.55.28l-5.27.37Z"/>
          </g>
          <g>
            <path class="cls-7" d="m138.87,294.32c-.04,1.02-.3,2.01-.92,2.77-.06.07-.15.12-.25.13l-5.21.36c-.06,0-.12,0-.17-.03-.03-.01-3.16-1.47-2.83-5.3.02-.2.19-.34.38-.33.2.02.33.19.33.38,0,.07,0,.14-.01.2-.13,2.92,1.92,4.14,2.35,4.37l4.96-.35c1.46-1.97.16-5.88-.21-6.86l-4.36.15c-.2,0-.36-.15-.37-.34-.04-.22.15-.36.34-.37l4.61-.16c.15,0,.28.08.34.22.06.15,1.12,2.75,1.02,5.16Z"/>
            <path class="cls-7" d="m132.46,298.01c-.11,0-.22-.02-.32-.07-.04-.02-3.44-1.59-3.08-5.73.03-.4.37-.72.78-.72.46.03.78.39.78.8v.22c-.12,2.48,1.48,3.61,2.01,3.92l4.63-.32c1.06-1.7.12-4.88-.27-6.02l-4.05.14h0c-.45,0-.79-.33-.8-.75-.03-.15.02-.35.15-.51.14-.17.37-.28.6-.29l4.61-.15h0c.34,0,.62.19.74.48.05.11,1.16,2.8,1.05,5.34-.05,1.25-.4,2.27-1.02,3.02-.14.17-.34.27-.55.28l-5.26.37Z"/>
          </g>
          <g>
            <path class="cls-7" d="m156.17,309.35c-.04,1.02-.3,2.01-.92,2.77-.06.07-.15.12-.25.13l-5.21.36c-.06,0-.12,0-.17-.03-.03-.01-3.16-1.47-2.83-5.3.02-.2.18-.34.38-.33.2.02.33.19.33.38,0,.07,0,.14-.01.2-.13,2.92,1.92,4.14,2.35,4.37l4.96-.35c1.46-1.97.16-5.88-.21-6.86l-4.36.15c-.2,0-.36-.15-.37-.34-.04-.21.15-.36.34-.37l4.61-.16c.15,0,.28.08.34.22.06.15,1.12,2.75,1.02,5.16Z"/>
            <path class="cls-7" d="m149.76,313.03c-.11,0-.22-.02-.32-.07-.04-.02-3.44-1.59-3.08-5.73.03-.4.37-.72.78-.72.46.03.78.39.78.8v.22c-.12,2.48,1.48,3.61,2.01,3.92l4.63-.33c1.06-1.7.13-4.88-.27-6.02l-4.05.14h0c-.45,0-.79-.33-.8-.75-.03-.14.02-.35.15-.51.14-.18.37-.28.6-.29l4.61-.16h0c.34,0,.62.19.74.48.05.11,1.16,2.8,1.05,5.34-.05,1.26-.4,2.27-1.02,3.02-.14.17-.34.27-.55.28l-5.26.37Z"/>
          </g>
          <g>
            <path class="cls-7" d="m184.41,235.53c-.02.48-.27,2.79-3.08,4.85-.14.1-.33.11-.48.02l-6.12-3.83c-.09-.06-.16-.15-.19-.26-.04-.16-1.02-4,.77-5.93.16-.17.43-.19.6-.02.18.16.19.43.02.6-1.29,1.4-.76,4.27-.6,4.98l5.72,3.58c2.47-1.93,2.53-3.95,2.5-4.06.04-.25.19-.43.42-.43.24,0,.43.18.43.42,0,.01,0,.04,0,.09Z"/>
            <path class="cls-7" d="m181.07,240.88c-.16,0-.31-.04-.45-.13l-6.12-3.83c-.19-.12-.32-.3-.37-.51,0-.03-1.14-4.16.87-6.33.3-.33.87-.35,1.2-.05.16.15.26.36.27.59.01.23-.07.45-.23.62-1.06,1.15-.69,3.61-.53,4.43l5.31,3.32c2.09-1.74,2.11-3.48,2.11-3.5l-.02-.08.02-.03c.07-.47.41-.79.84-.79.48,0,.85.37.86.84v.11c-.02.48-.28,2.99-3.26,5.17-.15.11-.32.16-.5.16Zm-5.45-10.22c-1.64,1.76-.68,5.49-.67,5.53l6.12,3.84s0,0,0,0c1-.73,1.65-1.49,2.08-2.17-.4.63-.99,1.32-1.85,1.98l-.23.18-6.12-3.83-.04-.17c-.19-.87-.69-3.83.71-5.36Z"/>
          </g>
        </g>
      </g>
      <path class="cls-3" d="m317.44,346.55c-2.19,0-4.36-.31-6.47-.91-2.78-.79-4.54-2.11-5.25-3.9-.81-2.05-.13-4.59,1.86-6.97,3.82-4.58,10.17-7.05,16.99-6.61.47.03.82.43.79.9-.03.47-.43.82-.9.79-6.29-.4-12.11,1.84-15.58,6.01-.75.89-2.39,3.2-1.58,5.26.5,1.28,1.9,2.25,4.14,2.9,2.37.68,4.83.95,7.29.81,2.79-.16,4.9-.91,6.29-2.23,1.43-1.36,2.14-3.93.91-5.57-.65-.86-1.78-1.44-3.11-1.58-1.34-.14-2.75.14-3.95.44-.89.22-1.9.51-2.59,1.12-.77.68-.87,1.68-.28,2.67.24.4.11.92-.29,1.16-.4.24-.92.11-1.16-.29-1.01-1.69-.77-3.57.61-4.81.98-.88,2.22-1.24,3.32-1.51,1.34-.33,2.94-.65,4.54-.48,1.8.19,3.37,1.01,4.29,2.25,1.83,2.44.85,5.96-1.1,7.82-1.68,1.6-4.16,2.51-7.36,2.69-.46.03-.92.04-1.38.04Z"/>
      <path class="cls-5" d="m146.34,96.96l7.5-2.38-7.5-2.56c-2.24-.59-3.96-2.4-4.44-4.66l-2.38-11.26-2.56,11.02c-.54,2.32-2.37,4.12-4.71,4.62l-7.06,2.43,6.81,2.4c2.39.55,4.22,2.47,4.65,4.89l1.97,10.89,2.87-10.9c.61-2.31,2.5-4.05,4.84-4.48Z"/>
      <path class="cls-3" d="m186.96,341.95l6.65-2.11-6.65-2.27c-1.99-.52-3.52-2.13-3.94-4.14l-2.11-9.99-2.27,9.78c-.48,2.06-2.11,3.66-4.18,4.1l-6.27,2.16,6.05,2.13c2.12.49,3.74,2.2,4.13,4.34l1.75,9.67,2.55-9.68c.54-2.05,2.21-3.6,4.3-3.97Z"/>
      <path class="cls-3" d="m327.11,67.47l6.65-2.11-6.65-2.27c-1.99-.52-3.52-2.13-3.94-4.14l-2.11-9.99-2.27,9.78c-.48,2.06-2.11,3.66-4.18,4.1l-6.27,2.16,6.05,2.13c2.12.49,3.74,2.2,4.13,4.34l1.75,9.67,2.55-9.68c.54-2.05,2.21-3.6,4.3-3.97Z"/>
      <g>
        <path class="cls-10" d="m99.91,29.64c-9.62.02-17.9,5.34-22.36,13.13-4.49-7.77-12.8-13.05-22.42-13.02-14.32.03-25.9,11.67-25.87,25.98.03,14.32,20.99,33.24,48.46,63.53,25.86-27.75,48.2-49.43,48.17-63.75-.03-14.32-11.67-25.9-25.99-25.87Z"/>
        <path class="cls-2" d="m76.45,94.26h-.01c-.4,0-.73-.29-.82-.67l-8.62-40.78-5.16,32.36c-.07.42-.43.73-.85.72l-36.4-.67c-.47,0-.84-.4-.83-.86,0-.46.39-.83.85-.83h.02l35.67.66,5.77-36.16c.06-.4.41-.7.82-.72.39.02.77.27.85.67l8.8,41.63,6.61-26.89c.09-.37.42-.64.81-.65.38-.01.72.24.83.61l5.26,18,38.09.7c.47,0,.84.4.83.86,0,.47-.38.88-.86.83l-38.72-.71c-.37,0-.69-.25-.8-.61l-4.55-15.57-6.75,27.43c-.09.38-.43.65-.82.65Z"/>
      </g>
    </g>
  </g>
</svg>