<?xml version="1.0" encoding="UTF-8"?>
<svg id="_레이어_2" data-name="레이어 2" xmlns="http://www.w3.org/2000/svg" viewBox="0 0 363.59 386.47">
  <defs>
    <style>
      .cls-1 {
        fill: #f2cf63;
      }

      .cls-1, .cls-2, .cls-3, .cls-4, .cls-5, .cls-6, .cls-7, .cls-8, .cls-9, .cls-10, .cls-11, .cls-12, .cls-13 {
        stroke-width: 0px;
      }

      .cls-2 {
        fill: #333;
      }

      .cls-3 {
        fill: #fff;
      }

      .cls-4 {
        fill: #251d1b;
      }

      .cls-5 {
        fill: #382621;
      }

      .cls-6 {
        fill: #42210b;
      }

      .cls-7 {
        fill: #ffe6a1;
      }

      .cls-8 {
        fill: #ffecbb;
      }

      .cls-9 {
        fill: #fc5e71;
      }

      .cls-10 {
        fill: #ffaf5f;
      }

      .cls-11 {
        fill: #ecb3ad;
      }

      .cls-12 {
        fill: #ccd7f2;
      }

      .cls-13 {
        fill: #f29199;
      }
    </style>
  </defs>
  <g id="_迹_1" data-name="卵迹_1">
    <g>
      <path class="cls-8" d="m332.89,62.56c6.52,10.6,11.15,22.5,14.46,34.54,13.42,48.71,1.93,92.74-34.54,127.76-20.29,19.49-42.98,36.05-62.76,56.12-16.8,17.05-30.98,40.47-55.02,48.13-19.92,6.35-41.41-.17-61.29-6.67-17.98-5.88-35.96-11.76-53.95-17.64-7.28-2.38-14.61-4.78-21.25-8.59-11.25-6.46-19.91-16.61-27.39-27.21C3.67,230.02-9.33,181.01,7.53,135.07c8.25-22.48,21.63-51.11,41.84-65.16,19.15-13.31,44.01-15.35,66.64-15.38,26.87-.03,55.08,1.93,79.23-9.84,21.56-10.5,37.86-21.63,62.98-21.95,21.7-.28,43.78,6.57,59.86,21.52,5.79,5.39,10.68,11.59,14.81,18.3Z"/>
      <path class="cls-3" d="m260.73,78.91l10.68-3.39-10.69-3.65c-3.2-.84-5.64-3.41-6.33-6.65l-3.39-16.05-3.64,15.7c-.77,3.31-3.38,5.88-6.71,6.58l-10.06,3.46,9.71,3.42c3.4.79,6.01,3.53,6.63,6.96l2.81,15.52,4.09-15.54c.86-3.29,3.56-5.77,6.9-6.38Z"/>
      <path class="cls-3" d="m35.27,199.83l7.1-2.25-7.1-2.42c-2.12-.56-3.75-2.27-4.21-4.42l-2.25-10.66-2.42,10.43c-.51,2.2-2.25,3.9-4.46,4.37l-6.69,2.3,6.45,2.28c2.26.52,3.99,2.34,4.4,4.63l1.86,10.32,2.72-10.33c.57-2.18,2.36-3.84,4.59-4.24Z"/>
      <path class="cls-2" d="m351.76,222.69l6.32-2.01-6.32-2.16c-1.89-.5-3.34-2.02-3.74-3.93l-2.01-9.49-2.15,9.29c-.45,1.96-2,3.48-3.97,3.89l-5.95,2.05,5.74,2.03c2.01.47,3.55,2.09,3.92,4.12l1.66,9.18,2.42-9.19c.51-1.94,2.1-3.42,4.08-3.77Z"/>
      <path class="cls-2" d="m74.2,71.23l9.18-2.92-9.18-3.13c-2.75-.72-4.85-2.93-5.44-5.71l-2.91-13.79-3.13,13.49c-.66,2.84-2.91,5.05-5.76,5.65l-8.65,2.97,8.34,2.94c2.92.68,5.16,3.03,5.7,5.98l2.41,13.34,3.51-13.35c.74-2.82,3.06-4.96,5.93-5.48Z"/>
      <g>
        <g>
          <g>
            <path class="cls-11" d="m294.63,228.14s-16.38,16.5-22.38,21c-6.01,4.5-21.17,2.4-21.17,2.4,0,0-4.62,20.48-5.38,24.98-.64,3.89,3.2,15.07-.83,21.66-14.53-24.51-19.03-59.17-19.03-59.17l31.25-34.51,34.39,18.37h0c2,3.27,3.13,5.27,3.13,5.27Z"/>
            <path class="cls-6" d="m244.88,298.61c-.17.02-.29-.08-.37-.21-14.41-24.31-19.04-58.99-19.08-59.33-.02-.12.02-.25.11-.34l31.29-34.51c.13-.14.34-.18.51-.09l34.42,18.37c.08.04.14.1.17.17,2.54,3.26,3.11,5.27,3.13,5.35.04.15,0,.3-.11.41-.16.16-16.49,16.57-22.44,21.04-2.64,1.98-7.2,2.98-13.57,2.98-3.49,0-6.49-.32-7.53-.44-.63,2.81-4.6,20.48-5.29,24.58-.2,1.21.07,3.25.38,5.6.65,4.91,1.53,11.64-1.27,16.21-.08.13-.21.2-.36.2Zm-18.58-59.46c.39,2.8,5.1,35.01,18.57,58.18,2.2-4.3,1.39-10.46.79-15.02-.32-2.43-.59-4.52-.37-5.86.75-4.46,5.34-24.8,5.38-25.01.05-.22.26-.36.47-.33.04,0,3.55.48,7.8.48s9.97-.49,13.06-2.81c5.56-4.17,20.33-18.94,22.16-20.77-.22-.6-.97-2.33-2.91-4.83l-34.04-18.17-30.93,34.12Z"/>
          </g>
          <path class="cls-5" d="m241.12,255.9s21.38,8.25,34.32-9.75l-26.26-4.88-8.07,14.63Z"/>
          <path class="cls-5" d="m78.31,190.5l.52-.69c-2.72-2.07-5.68-3.43-8.54-4.74-5.38-2.47-10.45-4.81-12.79-11.49-2.45-7.02-2.03-16.98,4.68-22.27.99-.78,2.11-1.51,3.2-2.21,3.24-2.1,6.59-4.28,7.67-8.3,1.04-3.86-.84-7.51-2.66-11.05-.76-1.48-1.55-3.01-2.11-4.53-3.03-8.26.99-18.58,9.15-23.49,4.56-2.74,9.6-3.61,14.48-4.45,3.77-.65,7.67-1.32,11.38-2.85,8.39-3.46,9.6-10.54,10.89-18.04.17-.98.34-1.96.52-2.96,1.49-7.93,2.63-16.04,3.38-24.11l-.86-.08c-.75,8.04-1.88,16.12-3.37,24.03-.19,1-.36,1.99-.52,2.97-1.29,7.57-2.41,14.11-10.37,17.39-3.61,1.49-7.47,2.15-11.2,2.8-4.96.85-10.08,1.73-14.78,4.56-8.5,5.12-12.68,15.89-9.51,24.53.57,1.57,1.37,3.12,2.15,4.63,1.83,3.55,3.55,6.9,2.6,10.43-1,3.7-4.21,5.79-7.31,7.8-1.1.72-2.24,1.46-3.26,2.26-7.08,5.58-7.6,15.68-4.97,23.23,2.45,7.03,7.7,9.44,13.24,11.99,2.82,1.3,5.73,2.64,8.38,4.65Z"/>
          <path class="cls-2" d="m166.28,13.41s-36.31.17-48.3,30.65c-11.99,30.48,5,54.96-9.99,59.96-14.99,5-19.49,3.5-30.48,13.99-10.99,10.49,13.99,24.98-1.5,32.98-15.49,7.99-14.49,27.98-4,33.98,10.49,6,129.91-14.49,129.91-14.49,0,0-12.16.08-.67-6.91,11.49-7,32.98-15.49,28.48-23.98s-27.48-11.24-13.99-24.73c10.44-10.44,3-34.73-1.5-44.72s21.57-46.89-47.97-56.71Z"/>
          <g>
            <path class="cls-13" d="m294.63,228.14s-16.38,16.5-22.38,21c-6.01,4.5-21.17,2.4-21.17,2.4,0,0-4.62,20.48-5.38,24.98-.64,3.89,3.2,15.07-.83,21.66-.63,1.03-3.23,15.41-4.3,16.17l-113-11.57s-7.5-4.51-9.38-13.14c-1.87-8.63-4.12-33.76-4.12-33.76l-5.25,13.88s-15,4.88-30.39-3.37c-15.38-8.26-22.51-19.89-31.13-25.51-8.63-5.63-6.38-11.63-6.38-11.63,0,0,1.12,1.13,13.88-18.01,12.75-19.14,24-49.89,31.13-55.15,7.13-5.24,32.64-10.88,38.64-14.25,6-3.38,8.63-9.76,19.14-9.38,10.5.38,41.63-1.13,41.63-1.13,4.5.63,12.01,1.37,15.63,5.38,3.63,4,19.38,8.38,30.14,9.88,10.75,1.51,23,13.64,30.12,23.38,5.68,7.77,24.26,40.09,30.26,52.89h0c1,3.27,3.13,5.27,3.13,5.27Z"/>
            <path class="cls-2" d="m240.8,315.24l-.32-.03-113.18-11.59-.16-.1c-.32-.19-7.84-4.8-9.77-13.69-1.45-6.69-3.1-22.9-3.8-30.21l-4.1,10.83-.39.13c-.19.06-4.61,1.47-11.15,1.47-7.14,0-13.83-1.65-19.9-4.9-9.44-5.07-15.72-11.31-21.26-16.81-3.55-3.53-6.62-6.58-9.94-8.74-9.09-5.94-6.81-12.37-6.71-12.64l.46-1.24.51.51c.91-.75,3.99-3.95,13-17.45,5.85-8.78,11.44-20.14,16.38-30.16,5.88-11.94,10.95-22.25,14.96-25.2,4.29-3.16,14.8-6.37,24.07-9.21,6.3-1.93,12.25-3.74,14.65-5.1,1.75-.98,3.18-2.22,4.7-3.53,3.55-3.06,7.22-6.23,14.88-5.95,1.11.04,2.51.06,4.17.06,12.67,0,37.15-1.18,37.4-1.19h.08s1.1.15,1.1.15c4.6.62,11.55,1.57,15.13,5.51,3.25,3.59,18.32,8.03,29.62,9.61,10.83,1.52,22.86,13.25,30.51,23.72,5.83,7.97,24.43,40.68,30.17,53.03l.03.07c1.61,3.08,3.15,5,3.17,5.02l.48.59-.53.54c-.67.68-16.4,16.6-22.38,21.08-2.71,2.03-7.36,3.06-13.8,3.06-3.18,0-5.89-.26-7.17-.4-.83,3.73-4.52,20.25-5.18,24.19-.19,1.14.08,3.16.38,5.48.66,4.97,1.56,11.79-1.32,16.48-.21.42-.83,3.21-1.38,5.68-1.83,8.21-2.41,10.22-3.15,10.74l-.26.19Zm-112.94-13.27l112.28,11.49c.6-1.39,1.72-6.41,2.41-9.52.91-4.11,1.29-5.71,1.59-6.19,2.56-4.18,1.7-10.65,1.08-15.37-.32-2.46-.61-4.59-.38-5.98.75-4.48,5.17-24.19,5.36-25.03l.17-.76.77.11s3.52.48,7.72.48c5.98,0,10.4-.94,12.78-2.72,5.28-3.96,18.85-17.55,21.67-20.4-.61-.84-1.75-2.51-2.94-4.79l-.1-.21c-5.8-12.42-24.16-44.7-29.92-52.58-7.1-9.73-19.06-21.6-29.37-23.04-10.29-1.43-26.67-5.76-30.65-10.15-3.16-3.48-9.74-4.38-14.1-4.97l-.95-.13c-1.55.07-25.05,1.19-37.4,1.19-1.68,0-3.1-.02-4.23-.06-6.99-.24-10.25,2.56-13.71,5.54-1.52,1.31-3.09,2.66-4.98,3.73-2.57,1.44-8.32,3.2-14.99,5.24-9.14,2.8-19.51,5.97-23.56,8.95-3.67,2.71-8.66,12.85-14.44,24.58-4.96,10.07-10.57,21.48-16.49,30.35-9.55,14.31-12.7,17.49-13.89,18.2-.28,1.3-.66,5.81,6.14,10.26,3.46,2.26,6.59,5.36,10.21,8.96,5.46,5.42,11.64,11.56,20.86,16.52,5.82,3.12,12.25,4.7,19.1,4.7,5.19,0,9.06-.95,10.24-1.28l6.41-16.95.33,3.68c.02.25,2.27,25.18,4.11,33.66,1.63,7.51,7.79,11.81,8.83,12.49Z"/>
          </g>
          <path class="cls-5" d="m136.3,137.08s-1.13-.38.37-1.7c1.5-1.31,48.02-2.81,52.71-2.06,4.69.75,4.63,4.01,4.63,4.01l-57.71-.25Z"/>
          <g>
            <path class="cls-3" d="m194.82,74.44s7.76-7.92,14.27-5.58c6.52,2.34,7.39,16.39.39,19.13-7.01,2.73-15.41-2.75-15.41-2.75l.76-10.79Z"/>
            <path class="cls-2" d="m205.2,89.6c-5.93,0-11.37-3.51-11.6-3.66-.26-.17-.4-.46-.38-.77l.76-10.79c.01-.2.1-.39.24-.53.25-.26,6.21-6.27,12.32-6.27,1,0,1.95.16,2.85.48,3.95,1.42,5.78,6.34,5.83,10.58.05,3.86-1.35,8.55-5.43,10.14-1.4.54-2.94.82-4.59.82Zm-10.25-4.82c1.35.79,5.72,3.13,10.25,3.13,1.44,0,2.77-.24,3.97-.7,3.27-1.28,4.39-5.25,4.35-8.53-.06-4.33-2-8.03-4.71-9-.71-.25-1.47-.38-2.27-.38-4.8,0-9.8,4.5-10.89,5.55l-.7,9.95Z"/>
          </g>
          <path class="cls-1" d="m204.14,108.8c-5.18,0-9.41-4.22-9.41-9.41s4.22-9.4,9.41-9.4,9.4,4.22,9.4,9.4-4.22,9.41-9.4,9.41Zm0-16.8c-4.08,0-7.4,3.32-7.4,7.4s3.32,7.4,7.4,7.4,7.4-3.32,7.4-7.4-3.32-7.4-7.4-7.4Z"/>
          <g>
            <path class="cls-3" d="m186.15,131.81c-1.35-.77-1.89-11.81-2.09-18.36,20.84-5.68,21.19-23.78,21.04-45.91-.01-.84-.01-1.65-.03-2.45-2.52-8.17-13.41-15.62-16.5-17.07-3.51-1.66-10.95-11.16-10.95-11.16-.21,7.71,11.52,16.61,11.97,16.94-.24-.08-4.24-1.55-8.05-4.95-3.92-3.51-7.03-12.4-7.03-12.4.84,11.78-33.85,33.36-35.71,40.18,0,0-2.61-3.53-5.16-9.01-2.52-1.37-5.38-2.2-8.2-1.48-7.88,2.03-10.44,18.38-2.54,22.34,6.78,3.4,15.4-.16,17.72-1.24,1.18,3.53,2.77,6.92,4.75,10.05.64,9.57,1.88,30.3.82,31.78-1.38,1.93-9.9,8.03-9.9,8.03,0,0,50.6,70.62,52.61,68.36,18.57-20.82,5.1-68.11,5.1-68.11,0,0-5.94-4.42-7.87-5.52Z"/>
            <path class="cls-2" d="m188.78,206.34h0c-.91,0-2.59,0-28.22-34.55-12.55-16.91-24.83-34.05-24.95-34.22-.13-.18-.18-.41-.15-.63.04-.22.16-.42.34-.55,2.34-1.67,8.64-6.34,9.7-7.83.45-.99.45-9.7-.97-31.01-1.77-2.83-3.26-5.91-4.42-9.17-2.18.93-6.29,2.38-10.65,2.38-2.59,0-4.93-.51-6.95-1.53-4.54-2.27-5.64-7.85-5.17-12.31.52-4.91,3.16-10.4,7.87-11.61,2.69-.69,5.68-.16,8.82,1.55.16.09.29.22.36.39,1.64,3.51,3.31,6.22,4.26,7.68,1.85-2.95,6.8-7.18,12.82-12.33,10.09-8.63,22.65-19.37,22.17-26.1-.03-.42.26-.8.68-.89.42-.09.83.15.97.55.03.09,3.08,8.73,6.79,12.05.32.29.65.56.97.82-3.19-3.4-6.43-7.93-6.31-12.2,0-.36.24-.67.58-.78.34-.11.71,0,.93.28,2.03,2.6,7.91,9.63,10.64,10.92,2.97,1.39,14.31,9.01,16.95,17.59.02.07.04.15.04.23.01.55.02,1.1.02,1.66v.8c.15,20.76.28,40.37-21.01,46.56.37,11.39,1.14,16.27,1.7,17.02,2,1.16,7.65,5.36,7.89,5.54.15.11.26.27.31.45.55,1.95,13.38,47.98-5.29,68.91-.19.22-.47.34-.76.34Zm-51.3-69.07c18.61,25.95,46.7,64.05,51.13,67.21,16.84-19.61,5.7-62.78,4.66-66.65-1.12-.83-5.9-4.35-7.55-5.29-.64-.36-1.97-1.12-2.52-19.07-.01-.39.25-.74.63-.85,20.68-5.63,20.56-23.92,20.41-45.08v-.8c-.01-.51-.02-1.02-.03-1.52-2.5-7.87-13.32-15.18-16.01-16.44-2.51-1.19-6.74-5.94-9.24-8.93,2.21,6.52,11.02,13.17,11.12,13.25.34.25.45.7.26,1.07-.19.37-.62.55-1.02.42-.04-.01-4.27-1.48-8.34-5.12-2.6-2.33-4.82-6.81-6.09-9.79-2.38,7.18-12.87,16.16-22.28,24.21-6.33,5.41-12.31,10.53-12.97,12.95-.09.31-.34.55-.66.61-.32.06-.65-.07-.84-.33-.11-.15-2.61-3.56-5.13-8.9-2.66-1.4-5.14-1.83-7.34-1.27-3.34.86-6.06,5.03-6.61,10.15-.42,3.9.48,8.73,4.24,10.62,1.78.89,3.86,1.35,6.19,1.35,4.69,0,9.11-1.82,10.79-2.6.22-.1.47-.1.69,0,.22.1.39.28.47.51,1.18,3.52,2.75,6.84,4.66,9.86.08.12.12.26.13.4,2.02,30.43,1.04,31.81.67,32.33-1.23,1.72-7.25,6.16-9.41,7.73Z"/>
          </g>
          <path class="cls-2" d="m164.7,73.32c.02-2.14-.91-3.88-2.07-3.89-1.16,0-2.12,1.72-2.13,3.85-.02,2.14.91,3.88,2.07,3.89,1.16,0,2.12-1.72,2.13-3.85Z"/>
          <path class="cls-2" d="m193.9,73.32c.02-2.14-.91-3.88-2.07-3.89-1.16,0-2.12,1.72-2.13,3.85-.02,2.14.91,3.88,2.07,3.89,1.16,0,2.12-1.72,2.13-3.85Z"/>
          <path class="cls-1" d="m132.09,106.98c-5.18,0-9.4-4.22-9.4-9.41s4.22-9.41,9.4-9.41,9.41,4.22,9.41,9.41-4.22,9.41-9.41,9.41Zm0-16.81c-4.08,0-7.4,3.32-7.4,7.4s3.32,7.4,7.4,7.4,7.4-3.32,7.4-7.4-3.32-7.4-7.4-7.4Z"/>
          <path class="cls-2" d="m44.8,236.39c-2.13-2.38-3.5-5.13-1.13-6.63,2.38-1.5,41.89,12.63,62.65,36.14,0,0,1.38,4.75-11-.13-12.38-4.88-50.52-29.39-50.52-29.39Z"/>
          <path class="cls-2" d="m199.6,301.76c-.12,0-.23-.02-.34-.07-.43-.19-.62-.69-.43-1.12,5.3-11.93.13-25.85-2.65-33.34-.28-.76-.54-1.45-.75-2.05-1.38-3.91-.26-9.8,1.04-16.63.92-4.85,1.97-10.34,2.28-15.96.69-12.37-7.49-23.32-8.37-24.46l-47.9-32.19c-.23-.16-.38-.42-.38-.7v-17.89l-22.83-12.89c-.41-.23-.55-.75-.32-1.16.23-.41.75-.55,1.16-.32l23.26,13.13c.27.15.43.43.43.74v17.93l47.64,32.01c.07.05.13.11.19.17.39.49,9.57,12.04,8.82,25.71-.32,5.73-1.38,11.29-2.31,16.19-1.26,6.58-2.34,12.26-1.11,15.74.21.59.46,1.27.74,2.02,2.66,7.16,8.19,22.06,2.61,34.62-.14.32-.45.5-.78.5Z"/>
          <path class="cls-2" d="m190.97,208.35c-.26,0-.51-.12-.68-.34-.28-.37-.21-.91.17-1.19,14.64-11.07,18.18-37.34,18.52-40.18l-7.38-14.28c-.15-.29-.12-.65.08-.91l8-10.25c.29-.37.82-.43,1.19-.15.37.29.44.82.15,1.19l-7.67,9.83,7.25,14.02c.08.15.11.31.09.48-.12,1.2-3.22,29.52-19.21,41.6-.15.12-.33.17-.51.17Z"/>
          <path class="cls-2" d="m251.15,252.39c-.09,0-.17-.01-.26-.04-.45-.14-.69-.62-.55-1.07,3.12-9.63,5.52-22.87-.78-31.27-6.82-9.09-7.64-18.07-7.67-18.44-.04-.47.31-.88.77-.92.48-.04.88.31.92.77,0,.09.82,8.88,7.34,17.57,6.73,8.98,4.28,22.8,1.03,32.81-.12.36-.45.59-.81.59Z"/>
          <path class="cls-2" d="m114.07,256.74c-.12,0-.25-.03-.37-.08-.42-.2-.6-.71-.4-1.13l9.38-19.51c.2-.42.71-.6,1.13-.4.42.2.6.71.4,1.13l-9.38,19.51c-.15.3-.45.48-.77.48Z"/>
          <path class="cls-2" d="m138.83,265.37c-.44,0-.81-.33-.84-.78-.04-.47.31-.88.77-.92,25.32-2.2,41.42-13.97,41.58-14.09.38-.28.91-.2,1.19.17.28.38.2.91-.17,1.19-.16.12-16.62,12.17-42.45,14.42-.02,0-.05,0-.07,0Z"/>
          <path class="cls-2" d="m87.06,221.11c-.37,0-.72-.25-.82-.63l-8.23-30.44c-.12-.45.15-.92.6-1.04.45-.12.92.15,1.04.6l8.23,30.44c.12.45-.15.92-.6,1.04-.07.02-.15.03-.22.03Z"/>
          <path class="cls-2" d="m82.56,216.61c-.39,0-.74-.27-.83-.66l-4.13-18.01c-.1-.46.18-.91.64-1.02.45-.11.91.18,1.02.64l4.13,18.01c.1.46-.18.91-.64,1.02-.06.01-.13.02-.19.02Z"/>
          <path class="cls-2" d="m190.66,223.98c-1.95,0-3.54-1.75-3.54-3.91s1.59-3.91,3.54-3.91,3.54,1.75,3.54,3.91-1.59,3.91-3.54,3.91Zm0-6.13c-1.01,0-1.84.99-1.84,2.21s.83,2.21,1.84,2.21,1.84-.99,1.84-2.21-.83-2.21-1.84-2.21Z"/>
          <path class="cls-2" d="m192.47,248.05c-1.95,0-3.54-1.75-3.54-3.91s1.59-3.91,3.54-3.91,3.54,1.75,3.54,3.91-1.59,3.91-3.54,3.91Zm0-6.13c-1.01,0-1.84.99-1.84,2.21s.83,2.21,1.84,2.21,1.84-.99,1.84-2.21-.83-2.21-1.84-2.21Z"/>
          <path class="cls-2" d="m194.97,298.57c-1.95,0-3.54-1.75-3.54-3.91s1.59-3.91,3.54-3.91,3.54,1.75,3.54,3.91-1.59,3.91-3.54,3.91Zm0-6.13c-1.01,0-1.84.99-1.84,2.21s.83,2.21,1.84,2.21,1.84-.99,1.84-2.21-.83-2.21-1.84-2.21Z"/>
          <path class="cls-2" d="m190.41,275.94c-1.95,0-3.54-1.75-3.54-3.91s1.59-3.91,3.54-3.91,3.54,1.75,3.54,3.91-1.59,3.91-3.54,3.91Zm0-6.13c-1.01,0-1.84.99-1.84,2.21s.83,2.21,1.84,2.21,1.84-.99,1.84-2.21-.83-2.21-1.84-2.21Z"/>
          <path class="cls-2" d="m245.37,212.48s-.05,0-.07,0c-.47-.04-.81-.45-.78-.92l.75-9c.04-.47.45-.82.92-.77.47.04.81.45.78.92l-.75,9c-.04.44-.41.78-.85.78Z"/>
          <g>
            <path class="cls-3" d="m327.16,179.84c4.07-11.55,9.88-31.96,9.56-39.27-.3-6.98-21.86-12.96-36.13-16.15,2.58-8.53,5.53-18.62,7.08-25.53l3.11-13.73c.86-3.81-1.52-7.58-5.33-8.44-3.82-.88-7.58,1.53-8.43,5.34l-3.09,13.73c-1.7,7.54-5.23,19.49-7.98,28.46-1.88,1.83-4.62,4.62-7.38,7.86-1.96-7.91-4.16-15.1-6.23-18.36-2.1-3.29-6.46-4.26-9.75-2.16-3.29,2.1-4.26,6.46-2.16,9.75,1.81,2.83,5,15.64,7.77,29.18-3.85,17.02,6.83,31.78,6.83,31.78l.38,64.33c-1.17,1.01-2.21,1.87-3.04,2.5-6.01,4.5-21.23,2.4-21.23,2.4,0,0-4.65,20.48-5.41,24.98-.64,3.89,3.19,15.07-.85,21.66,7.7,12.99,18.21,22.93,32.36,23.54,46.84,2.04,50.05-30.72,50.23-68.4l-.32-73.49Z"/>
            <path class="cls-2" d="m281.31,322.71h0c-1.33,0-2.7-.05-4.09-.11-12.83-.55-23.95-8.63-33.05-23.97-.16-.27-.16-.61,0-.88,2.56-4.18,1.72-10.66,1.1-15.38-.32-2.46-.6-4.58-.37-5.98.75-4.48,5.23-24.2,5.42-25.03.1-.43.51-.72.94-.65.04,0,3.54.48,7.77.48,6.02,0,10.46-.94,12.84-2.72.7-.53,1.61-1.27,2.7-2.21l-.37-63.67c-1.38-2-10.43-15.88-6.86-32.06-3.07-15.02-6.06-26.28-7.62-28.72-2.34-3.68-1.25-8.58,2.42-10.92,1.27-.81,2.74-1.24,4.24-1.24,2.72,0,5.22,1.37,6.68,3.66,1.76,2.77,3.76,8.49,5.94,17.03,2.36-2.68,4.61-4.97,6.21-6.53,2.68-8.76,6.21-20.68,7.9-28.19l3.09-13.73c.82-3.64,3.97-6.18,7.67-6.18.59,0,1.19.07,1.78.2,4.24.96,6.92,5.2,5.96,9.45l-3.11,13.74c-1.59,7.05-4.6,17.29-6.83,24.72,23.57,5.34,35.65,10.97,35.9,16.74.32,7.46-5.49,27.89-9.56,39.45l.32,73.36c-.19,37.94-3.86,69.37-47.03,69.37Zm-35.43-24.53c8.74,14.54,19.3,22.05,31.41,22.57,1.36.06,2.71-.04,4.02-.04h0c19.48,0,31.67-6.24,38.37-19.93,6.26-12.78,6.87-30.46,6.95-47.53l-.32-73.45c0-.1.02-.18.05-.27,4.18-11.86,9.82-31.99,9.51-38.94-.21-4.76-13.13-10.36-35.46-15.35-.23-.05-.43-.19-.55-.4-.12-.2-.15-.45-.08-.67,2.25-7.45,5.43-18.19,7.07-25.47l3.11-13.74c.75-3.34-1.35-6.67-4.69-7.42-.46-.11-.93-.16-1.4-.16-2.9,0-5.38,2-6.02,4.86l-3.09,13.73c-1.72,7.62-5.29,19.72-7.99,28.52-.04.14-.12.26-.22.36-1.81,1.76-4.55,4.54-7.32,7.8-.21.24-.53.35-.84.28-.31-.07-.55-.31-.63-.62-2.29-9.24-4.35-15.33-6.13-18.11-1.15-1.8-3.11-2.87-5.25-2.87-1.18,0-2.33.34-3.33.97-2.89,1.84-3.74,5.69-1.9,8.58,2.02,3.17,5.4,17.3,7.88,29.47.02.12.02.24,0,.36-3.73,16.46,6.59,30.95,6.69,31.1.1.14.16.32.16.49l.38,64.33c0,.25-.11.48-.29.65-1.25,1.09-2.29,1.94-3.09,2.54-2.71,2.03-7.37,3.06-13.86,3.06-3.2,0-5.94-.26-7.23-.4-.84,3.73-4.57,20.25-5.23,24.19-.19,1.14.07,3.15.38,5.48.63,4.82,1.48,11.37-1.07,16.04Z"/>
          </g>
          <path class="cls-2" d="m297.27,177.96s-.06-.02-.08-.03c-.3-.12-.44-.47-.32-.77,8.84-21.51-9.64-31.49-10.44-31.91-.29-.15-.4-.51-.25-.8.15-.29.52-.4.79-.25.2.11,20.23,10.88,10.98,33.4-.11.27-.41.42-.68.35Z"/>
          <path class="cls-2" d="m327.96,143.39c-.06,0-.11-.02-.17-.04-.26-.1-26.1-10.4-35.77-13.22-.31-.09-.49-.42-.4-.73.09-.31.41-.49.73-.4,9.72,2.84,35.61,13.16,35.87,13.26.3.12.45.46.33.76-.1.25-.34.39-.59.37Z"/>
          <g>
            <g>
              <path class="cls-3" d="m311.69,115.63c2.9.99,4.89,3.32,5.47,5.89,1.94-1.48,4.72-1.98,7.45-1.04,3.08,1.06,5.2,3.61,5.62,6.36.06.39.06.79.05,1.19,1.74-1.54,4.4-2.1,7-1.21,2.76.95,4.66,3.24,5.04,5.7.13.87.08,1.76-.2,2.62l-5.92,18.6c-1.06,3.32-4.93,4.97-8.66,3.69-2.62-.9-4.44-3.01-4.94-5.33-1.76,2.59-5.35,3.72-8.85,2.52-2.89-.99-4.91-3.31-5.49-5.87-1.94,1.47-4.71,1.96-7.43,1.03-3.15-1.08-5.18-3.74-5.52-6.57,1.42-9.21,3.92-15.75,7.83-27.41,1.66-.61,6.63-.83,8.55-.17Z"/>
              <path class="cls-2" d="m330.1,158.72c-.95,0-1.9-.16-2.83-.48-2.27-.78-4.08-2.42-5-4.45-1.47,1.38-3.5,2.16-5.7,2.16-1.04,0-2.09-.18-3.1-.52-2.66-.91-4.76-2.91-5.7-5.36-2.1,1.14-4.78,1.35-7.23.51-3.3-1.13-5.69-3.99-6.09-7.27,0-.08,0-.15,0-.23,1.23-7.97,3.24-13.89,6.28-22.85.5-1.48,1.03-3.04,1.59-4.7.08-.25.27-.44.51-.53,1.18-.43,3.48-.62,5.23-.62,1.18,0,2.81.08,3.89.45,2.65.91,4.74,2.91,5.68,5.37,2.11-1.15,4.79-1.36,7.24-.52,3.2,1.1,5.58,3.75,6.14,6.8,1.89-1.03,4.31-1.21,6.52-.45,2.97,1.02,5.17,3.52,5.6,6.38.16,1.02.08,2.03-.23,3l-5.92,18.6c-.9,2.82-3.68,4.72-6.92,4.72Zm-7.49-7.46c.05,0,.11,0,.16.02.33.06.6.32.67.65.46,2.14,2.14,3.94,4.39,4.71.75.26,1.51.39,2.28.39,2.54,0,4.62-1.39,5.3-3.53l5.92-18.6c.23-.72.28-1.47.17-2.23-.34-2.24-2.1-4.21-4.48-5.03-2.2-.75-4.61-.34-6.16,1.04-.25.23-.62.28-.92.13-.31-.14-.5-.46-.49-.79.01-.34.01-.7-.04-1.04-.39-2.53-2.37-4.77-5.06-5.69-2.33-.8-4.9-.44-6.66.91-.23.18-.53.22-.81.12-.27-.1-.47-.33-.54-.61-.54-2.4-2.43-4.42-4.92-5.27-.66-.23-1.87-.36-3.34-.36-1.63,0-3.32.17-4.28.41-.51,1.51-.99,2.93-1.45,4.29-3,8.83-4.98,14.68-6.19,22.44.36,2.6,2.29,4.85,4.94,5.76,2.32.8,4.88.44,6.64-.9.23-.18.53-.22.8-.12.27.1.47.33.54.61.54,2.38,2.44,4.4,4.94,5.26.84.29,1.7.43,2.55.43,2.21,0,4.21-.98,5.33-2.63.16-.24.42-.37.7-.37Z"/>
            </g>
            <path class="cls-4" d="m308.52,148.93c-.07.09-.2.13-.32.09-.16-.05-.26-.21-.22-.35l4.1-14.99c.04-.15.2-.22.36-.17.16.05.26.21.22.35l-4.1,14.99s-.02.06-.04.08Z"/>
            <path class="cls-4" d="m324.92,146.41c-.07.09-.19.13-.32.09-.16-.05-.26-.2-.23-.35l4.44-17.05c.03-.15.2-.22.36-.18.16.05.26.2.23.35l-4.44,17.05s-.02.06-.04.09Z"/>
            <path class="cls-4" d="m322.86,152.28c-.06.08-.18.13-.31.09-.16-.04-.27-.19-.24-.34l.49-2.43c.03-.15.19-.23.35-.19.16.04.27.19.24.34l-.49,2.43s-.02.07-.04.1Z"/>
            <path class="cls-4" d="m307.66,141.83s0,.06,0,.08l-1.44,5.54c-.02.08-.08.15-.17.18-.13.05-3.3,1.14-6.81-.59-.16-.08-.22-.26-.16-.39.07-.14.26-.19.41-.11,2.85,1.4,5.52.77,6.14.59l1.37-5.28c-2.63-3.55-7.25-3.48-8.24-3.42l-1.27,4.57c-.04.15-.21.23-.38.18-.17-.05-.27-.22-.23-.36l1.32-4.74c.03-.1.12-.18.24-.19.06,0,6.01-.62,9.16,3.81.03.05.05.1.05.15Z"/>
            <path class="cls-4" d="m321.66,146.11s0,.06,0,.08l-1.44,5.54c-.02.08-.08.15-.17.18-.13.05-3.3,1.14-6.81-.59-.16-.08-.22-.26-.16-.39.07-.14.26-.19.41-.11,2.85,1.4,5.52.77,6.14.59l1.37-5.28c-2.63-3.55-7.25-3.48-8.24-3.42l-1.27,4.57c-.04.15-.21.23-.38.18-.17-.05-.27-.22-.23-.36l1.32-4.74c.03-.1.12-.18.24-.19.06,0,6.01-.62,9.16,3.81.03.05.05.1.05.15Z"/>
            <path class="cls-4" d="m335.72,149.2s0,.05,0,.08l-1.36,5.24c-.02.08-.08.14-.16.17-.13.05-3.13,1.08-6.45-.56-.15-.08-.21-.24-.15-.37.07-.13.24-.18.39-.1,2.69,1.33,5.23.73,5.82.56l1.3-5c-2.49-3.36-6.87-3.3-7.81-3.24l-1.2,4.33c-.04.14-.2.22-.36.17-.16-.05-.25-.21-.22-.35l1.25-4.49c.03-.1.11-.17.22-.18.06,0,5.69-.58,8.67,3.6.03.04.05.09.05.14Z"/>
          </g>
          <path class="cls-2" d="m275.63,269.12c-.47,0-.85-.38-.85-.85v-25.01c0-.47.38-.85.85-.85s.85.38.85.85v25.01c0,.47-.38.85-.85.85Z"/>
          <g>
            <g>
              <g>
                <path class="cls-7" d="m273.07,270.99c-61.98-7.65-55.8,26.71-71.54,33.78-49.01,22.01-57.08,61.13-17.34,70.71,70.64,17.03,121.74-13.52,136.62-31.8,13.69-16.82,25.15-63.7-47.74-72.7Zm-37.45,33.94c-.54,2.21-2.23,4.03-4.24,5.1-2.01,1.07-4.32,1.46-6.6,1.55-3.95.14-8.1-.69-11.18-3.17-1.08-.87-2.06-2.04-2.12-3.42-.03-.8.25-1.58.64-2.28.69-1.24,1.73-2.27,2.9-3.07,4.33-2.98,10.06-2.87,15.22-1.87,1.13.22,2.28.49,3.25,1.12,1.9,1.26,2.68,3.83,2.14,6.04Z"/>
                <path class="cls-2" d="m225.13,381.32s0,0,0,0c-13.49,0-27.33-1.69-41.13-5.01-15.6-3.76-24.78-12.14-25.85-23.6-1.59-17.13,15.3-36.25,43.03-48.71,4.36-1.96,7-6.2,10.05-11.12,6.59-10.62,14.8-23.84,45.32-23.84,5.06,0,10.65.37,16.62,1.11,37.85,4.67,51.36,19.5,56.03,31.12,6.19,15.39.33,33.05-7.73,42.96-10.45,12.83-44.03,37.1-96.35,37.1Zm31.42-110.59c-29.57,0-37.5,12.77-43.88,23.04-3.2,5.15-5.96,9.6-10.79,11.77-27.06,12.16-43.56,30.61-42.04,47.01.99,10.68,9.71,18.53,24.55,22.11,13.67,3.29,27.37,4.96,40.73,4.96,47.94,0,83.1-21.81,95.03-36.48,7.76-9.53,13.41-26.51,7.47-41.25-6.45-16.05-25.36-26.45-54.66-30.06-5.9-.73-11.43-1.1-16.42-1.1Zm-32.62,41.71c-3.04,0-7.4-.59-10.86-3.37-1.53-1.23-2.37-2.63-2.44-4.05-.04-.86.21-1.78.74-2.73.71-1.27,1.77-2.4,3.16-3.36,3.81-2.63,9.13-3.31,15.86-2,1.19.23,2.45.52,3.55,1.25,2.13,1.41,3.15,4.27,2.49,6.96-.57,2.31-2.27,4.37-4.67,5.65-1.89,1-4.17,1.54-6.96,1.64-.29.01-.59.02-.88.02Zm.26-14.46c-3.5,0-6.42.79-8.69,2.35-1.17.81-2.06,1.74-2.64,2.79-.37.67-.55,1.29-.53,1.83.05,1.15,1.01,2.16,1.8,2.8,3.08,2.48,7.03,3,9.8,3,.27,0,.55,0,.82-.01,2.53-.09,4.57-.57,6.23-1.45,1.94-1.04,3.37-2.74,3.82-4.55.49-1.97-.26-4.13-1.78-5.13-.85-.56-1.92-.8-2.94-1-2.12-.41-4.1-.62-5.89-.62Z"/>
              </g>
              <path class="cls-2" d="m238.27,280.48c2.11-1.4,4.45-2.72,6.98-2.65,3.62.09,6.62,2.94,10.18,3.56,3.32.57,7.16-.76,9.84,1.28,2.19,1.67,2.45,5.12,1.03,7.48-1.42,2.37-4.1,3.73-6.81,4.25s-5.49.3-8.25.19c-2.39-.09-5.15-.28-6.57-2.21-.3-.4-.52-.87-.86-1.23-.49-.51-1.17-.78-1.83-1.03-1.71-.65-3.48-1.34-4.76-2.65-1.28-1.31-1.94-3.42-1.05-5.02.47-.85,1.29-1.43,2.1-1.97Z"/>
              <path class="cls-2" d="m179.51,336.98c2.11-1.4,4.45-2.72,6.98-2.65,3.62.09,6.62,2.94,10.18,3.56,3.32.57,7.16-.76,9.84,1.28,2.19,1.67,2.45,5.12,1.03,7.48-1.42,2.37-4.1,3.73-6.81,4.25-2.71.52-5.49.3-8.25.19-2.39-.09-5.15-.28-6.57-2.21-.3-.4-.52-.87-.86-1.23-.49-.51-1.17-.78-1.83-1.03-1.71-.65-3.48-1.34-4.76-2.65-1.28-1.31-1.94-3.42-1.05-5.02.47-.85,1.29-1.43,2.1-1.97Z"/>
              <g>
                <path class="cls-13" d="m288.53,286.28c-1.58-.21-3.11-.72-4.69-.83s-3.33.27-4.33,1.51c-1.14,1.41-.98,3.43-1.4,5.19-.45,1.87-1.6,3.49-2.4,5.24s-1.23,3.89-.25,5.55c1.08,1.81,3.48,2.39,5.57,2.12s4.03-1.19,6.08-1.69c3.88-.94,7.94-.34,11.93-.48.8-.03,1.69-.13,2.22-.73.39-.44.5-1.07.57-1.65.33-2.57.38-5.24-.41-7.71-.79-2.47-2.51-4.74-4.92-5.69-2.49-.99-5.3-.48-7.95-.83Z"/>
                <path class="cls-2" d="m280.05,305.97c-2.37,0-4.36-.97-5.33-2.6-.98-1.65-.91-3.9.2-6.33.28-.61.6-1.21.91-1.78.6-1.11,1.17-2.17,1.44-3.31.12-.5.19-1.04.27-1.6.18-1.36.37-2.76,1.3-3.92.96-1.19,2.55-1.84,4.48-1.84.19,0,.38,0,.57.02.96.07,1.89.27,2.79.46.67.15,1.31.29,1.96.37.92.12,1.85.13,2.84.15,1.76.02,3.59.05,5.32.73,2.46.97,4.49,3.3,5.42,6.23.72,2.25.86,4.82.44,8.07-.09.7-.23,1.49-.78,2.11-.73.83-1.84.98-2.82,1.01-.47.02-.94.02-1.41.02h0c-.84,0-1.69-.02-2.54-.04-.83-.02-1.66-.04-2.49-.04-1.48,0-3.42.06-5.32.52-.77.19-1.52.44-2.32.7-1.23.41-2.5.83-3.85,1-.36.05-.72.07-1.08.07Zm3.27-19.68c-.81,0-2.3.16-3.16,1.21-.63.78-.78,1.9-.94,3.07-.08.59-.16,1.19-.3,1.78-.33,1.35-.97,2.55-1.6,3.71-.31.58-.6,1.12-.86,1.68-.51,1.11-1.22,3.2-.29,4.76.66,1.11,2.11,1.77,3.87,1.77.29,0,.58-.02.86-.05,1.18-.15,2.32-.53,3.53-.93.79-.26,1.61-.53,2.45-.74,2.07-.5,4.14-.57,5.72-.57.84,0,1.69.02,2.53.04.83.02,1.66.04,2.49.04h0c.45,0,.9,0,1.35-.02.62-.02,1.3-.09,1.61-.44.23-.26.31-.74.37-1.2.38-3,.26-5.34-.38-7.34-.78-2.44-2.43-4.37-4.43-5.16-1.44-.57-3.03-.59-4.71-.61-.99-.01-2.02-.03-3.04-.16-.72-.09-1.42-.25-2.1-.39-.88-.19-1.71-.37-2.55-.43-.15-.01-.3-.02-.46-.02Z"/>
              </g>
              <g>
                <path class="cls-9" d="m290.47,326.72c1.04-1.37,1.73-2.97,2.6-4.46,2.19-3.74,5.92-6.91,10.24-7.06s8.75,3.75,8.03,8.02c-.55,3.22-3.51,5.39-5.26,8.15-1.34,2.11-1.98,4.6-3.22,6.77-2.36,4.1-7.34,6.82-11.93,5.68-4.59-1.14-7.79-6.72-5.73-10.97,1.18-2.44,3.64-3.97,5.28-6.13Z"/>
                <path class="cls-2" d="m293.07,344.93c-.8,0-1.59-.1-2.36-.29-2.62-.65-4.92-2.61-6.15-5.24-1.09-2.33-1.14-4.86-.14-6.93.78-1.6,2.02-2.81,3.23-3.99.78-.76,1.52-1.48,2.13-2.29.65-.85,1.15-1.81,1.69-2.81.28-.52.56-1.05.86-1.56,2.65-4.54,6.75-7.33,10.95-7.48,2.64-.09,5.41,1.18,7.18,3.28,1.44,1.71,2.05,3.74,1.72,5.73-.4,2.35-1.92,4.14-3.38,5.87-.71.83-1.44,1.7-2,2.59-.68,1.07-1.17,2.24-1.68,3.48-.45,1.08-.92,2.2-1.52,3.26-2.19,3.81-6.42,6.37-10.51,6.37Zm10.48-28.89h-.21c-4.26.15-7.72,3.53-9.54,6.64-.29.49-.55,1-.82,1.5-.54,1.02-1.1,2.08-1.83,3.04-.69.91-1.51,1.71-2.3,2.48-1.15,1.12-2.24,2.18-2.89,3.51-.78,1.61-.73,3.6.15,5.47,1,2.14,2.93,3.79,5.02,4.31.63.16,1.28.24,1.95.24,3.51,0,7.14-2.22,9.04-5.52.55-.96.98-1.98,1.43-3.06.52-1.25,1.06-2.55,1.82-3.74.63-.99,1.4-1.9,2.14-2.78,1.38-1.63,2.68-3.17,3-5.06.25-1.48-.22-3.02-1.34-4.35-1.4-1.66-3.55-2.68-5.61-2.68Z"/>
              </g>
              <g>
                <path class="cls-10" d="m258.04,355.18c-3.37,1.04-6.89,2.08-10.36,1.47s-6.82-3.46-6.73-6.98c.09-3.52,3.31-6.04,6.22-8.03l10.3-7.02c2.48-1.69,5.05-3.42,7.99-3.99,2.95-.57,6.39.31,7.95,2.87,1.24,2.04,1.04,4.61.81,6.99-.35,3.54-.87,7.42-3.5,9.81-1.58,1.44-3.7,2.11-5.74,2.74-2.31.71-4.62,1.42-6.94,2.14Z"/>
                <path class="cls-2" d="m249.83,357.68c-.79,0-1.56-.07-2.3-.2-3.73-.66-7.53-3.77-7.43-7.84.09-3.77,3.22-6.41,6.59-8.71l10.3-7.02c2.41-1.64,5.15-3.51,8.31-4.12.63-.12,1.27-.18,1.92-.18,3.02,0,5.61,1.29,6.92,3.45,1.44,2.37,1.14,5.34.93,7.51-.39,3.85-.99,7.82-3.77,10.36-1.75,1.6-4.04,2.3-6.06,2.92l-6.94,2.14c-2.58.79-5.5,1.69-8.46,1.69Zm17.39-26.37c-.54,0-1.07.05-1.59.15-2.82.55-5.4,2.31-7.68,3.86l-10.3,7.02c-2.99,2.04-5.77,4.34-5.85,7.35-.08,3.11,3.07,5.6,6.03,6.12.63.11,1.31.17,2,.17,2.71,0,5.5-.86,7.96-1.62l6.94-2.14c1.85-.57,3.95-1.22,5.42-2.56,2.34-2.13,2.86-5.6,3.23-9.27.25-2.51.37-4.72-.69-6.46-1-1.65-3.05-2.63-5.47-2.63Z"/>
              </g>
            </g>
            <g>
              <path class="cls-3" d="m223.92,356.65c-5.68-4.51-8.71-5.93-18.27-17.26-.54-.64-1.04-1.26-1.52-1.86-.46-4.07,3.3-7.85,9.53-.69,8.15,9.36,12.68,8.76,14.8,8.45,2.11-.3,4.53-3.93.6-9.36-3.86-5.35-16.53-20.56-29.89-25.06,0,0-13.77-5.75-35.11-6.44l-71.74-17.4,9-23.51s-11.5-18.01-51.52-29.01c0,0-17.44,31.63-22.14,60.86-1.67,10.36-1.75,20.42,1.13,28.67,2.18,6.23,10.72,11.05,22.59,14.78,13.66,4.29,31.73,7.14,49.59,9.02l.1.21s46.43,7.39,50.18,7.73c3.75.34,22.66,21.42,26.95,25.51,4.3,4.09,9.64,1.39,9.64,1.39,0,0,12.46,9.19,15.89-4.95,0,0,8.59,5.72,13.53,3.23,4.94-2.49,4.26-6.84,4.26-6.84,0,0,7.98,4.19,12.44-1.59,4.46-5.77-4.21-11.27-10.03-15.89Z"/>
              <path class="cls-2" d="m195.9,386.47c-3.58,0-7-2.05-8.16-2.82-.71.28-2.16.76-3.92.76-2.38,0-4.47-.84-6.21-2.5-1.11-1.06-3.13-3.18-5.69-5.86-5.93-6.23-18.28-19.19-20.76-19.41-3.73-.34-48.34-7.44-50.24-7.74-.18-.03-.35-.12-.47-.24-20.72-2.2-37.31-5.24-49.33-9.01-13.26-4.16-21.04-9.32-23.14-15.31-2.66-7.6-3.05-17.39-1.17-29.08,4.67-29.05,22.06-60.82,22.23-61.14.19-.34.59-.51.97-.41,39.87,10.96,51.53,28.62,52.01,29.37.15.23.17.51.08.76l-8.66,22.61,70.72,17.15c21.2.7,35.19,6.44,35.32,6.5,15.61,5.25,29.66,24.53,30.26,25.35,2.9,4.01,2.38,6.84,1.82,8.17-.59,1.38-1.73,2.35-2.99,2.53-.42.06-1.01.14-1.72.14-4.11,0-8.63-2.91-13.84-8.88-2.82-3.24-4.74-3.73-5.64-3.73-.65,0-1.2.24-1.62.72-.59.66-.88,1.7-.81,2.82.42.53.87,1.08,1.35,1.64,7.81,9.25,11.12,11.77,15.32,14.96.89.68,1.82,1.38,2.83,2.18.65.51,1.33,1.04,2.03,1.57,4.21,3.23,8.98,6.9,9.51,10.95.21,1.59-.25,3.12-1.36,4.55-1.73,2.24-4.13,3.38-7.11,3.38h0c-2.08,0-3.98-.57-5.16-1.02-.17,1.68-1.05,4.46-4.72,6.31-.95.48-2.06.72-3.32.72-3.84,0-8.17-2.26-10.08-3.39-1.84,6.09-5.51,7.41-8.35,7.41Zm-8.06-4.63c.18,0,.36.06.5.16.04.03,3.81,2.77,7.56,2.77,3.48,0,5.84-2.43,7-7.23.07-.27.26-.49.52-.59.26-.1.55-.07.78.08.06.04,5.64,3.72,10.13,3.72.98,0,1.84-.18,2.55-.54,4.34-2.19,3.81-5.91,3.8-5.95-.05-.32.08-.63.34-.82.26-.19.6-.21.89-.06.03.01,2.66,1.37,5.61,1.37h0c2.43,0,4.37-.92,5.77-2.72.83-1.08,1.17-2.16,1.02-3.3-.43-3.35-4.91-6.79-8.86-9.82-.7-.54-1.39-1.07-2.05-1.59-1-.79-1.92-1.49-2.8-2.16-4.11-3.12-7.66-5.82-15.59-15.22-.55-.65-1.05-1.27-1.53-1.87-.1-.13-.16-.28-.18-.43-.19-1.68.26-3.32,1.21-4.37.75-.84,1.75-1.28,2.89-1.28,2.07,0,4.46,1.49,6.92,4.31,4.8,5.51,9.02,8.3,12.56,8.3.59,0,1.08-.07,1.48-.13.5-.07,1.24-.51,1.67-1.51.72-1.7.13-4.07-1.63-6.51-.58-.8-14.32-19.65-29.48-24.76-.19-.08-13.95-5.72-34.87-6.4-.06,0-.12,0-.17-.02l-71.74-17.4c-.24-.06-.44-.21-.55-.43-.11-.22-.13-.47-.04-.7l8.84-23.09c-1.83-2.5-14.48-18.18-50.14-28.13-2.38,4.46-17.45,33.42-21.73,60-1.84,11.41-1.47,20.92,1.09,28.25,1.91,5.46,9.32,10.26,22.04,14.25,11.99,3.77,28.62,6.79,49.42,8.99.21.02.4.12.54.28,4.56.72,46.23,7.34,49.72,7.66,2.87.26,11.59,9.18,21.83,19.93,2.54,2.67,4.55,4.77,5.63,5.8,1.42,1.35,3.11,2.03,5.05,2.03,2.04,0,3.62-.77,3.63-.78.12-.06.25-.09.38-.09Z"/>
            </g>
            <path class="cls-2" d="m221.51,374.5c-.08,0-.15-.02-.22-.07-.1-.07-10.28-7.43-16.25-14.41-.13-.16-.12-.39.04-.53.16-.13.39-.12.53.04,5.91,6.91,16.01,14.21,16.12,14.29.17.12.21.36.09.52-.07.1-.19.16-.3.16Z"/>
            <path class="cls-2" d="m203.73,378.11c-.07,0-.13-.02-.19-.05-8.67-5.15-13.17-11.71-13.21-11.77-.12-.17-.07-.4.1-.52.17-.12.4-.07.52.1.04.06,4.46,6.49,12.98,11.55.18.11.24.34.13.51-.07.12-.19.18-.32.18Z"/>
            <path class="cls-2" d="m187.84,383.06c-.08,0-.17-.03-.24-.09-6.49-5.38-9-8.55-9.1-8.68-.13-.16-.1-.4.06-.53.16-.13.4-.1.53.06.02.03,2.57,3.24,8.99,8.56.16.13.18.37.05.53-.07.09-.18.14-.29.14Z"/>
            <g>
              <path class="cls-2" d="m202.25,346.96c-.09,0-.18-.03-.25-.1l-4.12-3.73c-.15-.14-.17-.38-.03-.53.14-.15.38-.16.53-.03l4.12,3.73c.15.14.17.38.03.53-.07.08-.18.12-.28.12Z"/>
              <path class="cls-2" d="m199.57,347.86s-.06,0-.08,0c-.2-.05-.33-.25-.28-.45l1.19-5.18c.05-.2.25-.32.45-.28.2.05.33.25.28.45l-1.19,5.18c-.04.17-.19.29-.37.29Z"/>
            </g>
            <g>
              <path class="cls-2" d="m188.36,354.64c-.09,0-.18-.03-.25-.1l-4.12-3.73c-.15-.14-.17-.38-.03-.53.14-.15.38-.16.53-.03l4.12,3.73c.15.14.17.38.03.53-.07.08-.18.12-.28.12Z"/>
              <path class="cls-2" d="m185.68,355.54s-.06,0-.08,0c-.2-.05-.33-.25-.28-.45l1.19-5.18c.05-.2.25-.32.45-.28.2.05.33.25.28.45l-1.19,5.18c-.04.17-.19.29-.37.29Z"/>
            </g>
            <g>
              <path class="cls-2" d="m176.38,361.47c-.09,0-.18-.03-.25-.1l-4.12-3.73c-.15-.14-.17-.38-.03-.53.14-.15.38-.16.53-.03l4.12,3.73c.15.14.17.38.03.53-.07.08-.18.12-.28.12Z"/>
              <path class="cls-2" d="m173.71,362.37s-.06,0-.08,0c-.2-.05-.33-.25-.28-.45l1.19-5.18c.05-.2.25-.32.45-.28.2.05.33.25.28.45l-1.19,5.18c-.04.17-.19.29-.37.29Z"/>
            </g>
            <path class="cls-2" d="m151.3,301.29s-13.04,23.26-15.19,52.05l-7.03-1.03s3.38-37.14,16.32-52.71l5.91,1.69Z"/>
            <g>
              <circle class="cls-3" cx="135.39" cy="333.64" r="8.91" transform="translate(-73.03 40.03) rotate(-13.28)"/>
              <path class="cls-2" d="m135.39,342.93c-5.12,0-9.28-4.16-9.28-9.28s4.16-9.28,9.28-9.28,9.28,4.16,9.28,9.28-4.16,9.28-9.28,9.28Zm0-17.82c-4.71,0-8.53,3.83-8.53,8.53s3.83,8.53,8.53,8.53,8.53-3.83,8.53-8.53-3.83-8.53-8.53-8.53Z"/>
            </g>
            <g>
              <polyline class="cls-3" points="128.83 332.3 135.39 333.64 134.7 330.67"/>
              <path class="cls-2" d="m135.39,334.02s-.05,0-.07,0l-6.56-1.34c-.2-.04-.33-.24-.29-.44.04-.2.24-.33.44-.29l5.99,1.23-.56-2.4c-.05-.2.08-.4.28-.45.21-.05.4.08.45.28l.69,2.97c.03.12,0,.26-.1.35-.07.07-.17.11-.27.11Z"/>
            </g>
          </g>
          <path class="cls-2" d="m185.85,111.76c-8.02,1.65-17.44,1.78-28.64-4.46,0,0,11.58,16.55,26.99,16.29l-.13-8.78,1.78-3.06Z"/>
          <path class="cls-2" d="m180,85.88c-.4,0-.76-.29-.83-.7-.08-.46.22-.9.68-.99.51-.09,1.04-.54,1.41-1.19.41-.72.55-1.54.36-2.06-.55-1.47-2.33-6.43-2.4-8.62-.02-.47.35-.86.82-.88.47-.02.86.35.88.82.05,1.54,1.27,5.32,2.3,8.09.37.99.18,2.33-.48,3.49-.63,1.1-1.57,1.83-2.58,2.02-.05,0-.1.01-.15.01Z"/>
          <path class="cls-2" d="m135.57,82.44c-.35,0-.68-.22-.8-.57-1.64-4.65-4.2-7.37-6.9-7.27-1.72.06-3.17,1.34-3.7,3.26-.12.45-.59.72-1.04.59-.45-.12-.72-.59-.59-1.04.73-2.65,2.8-4.42,5.28-4.51,3.46-.11,6.66,3.02,8.56,8.4.16.44-.08.93-.52,1.08-.09.03-.19.05-.28.05Z"/>
          <path class="cls-2" d="m128.82,80.53c-.19,0-.38-.06-.54-.2-.36-.3-.41-.84-.11-1.2l3.18-3.82c.3-.36.84-.41,1.2-.11.36.3.41.84.11,1.2l-3.18,3.82c-.17.2-.41.31-.65.31Z"/>
          <path class="cls-2" d="m205.2,79.51c-.13,0-.27-.03-.4-.1-.41-.22-.57-.9-.35-1.32.53-.99,2.39-4.38,4.26-4.38h0c.4,0,1.16.32,1.69,1.33.22.42.06,1.01-.36,1.23-.41.22-.93.1-1.15-.32-.11-.22-.19-.24-.19-.24-.43,0-1.75,1.44-2.76,3.33-.15.29-.45.46-.75.46Z"/>
          <path class="cls-2" d="m179.29,96.61c-6.86,0-11.41-4.9-11.63-5.15-.31-.35-.29-.88.06-1.2.34-.32.88-.29,1.2.05.25.27,6.12,6.57,14.39,3.96.45-.14.92.11,1.06.56.14.45-.11.92-.56,1.06-1.59.5-3.11.71-4.52.71Z"/>
          <path class="cls-2" d="m166.89,93.39c-.16,0-.31-.04-.45-.13-.4-.25-.51-.78-.26-1.17l2.42-3.82c.25-.4.78-.51,1.17-.26.4.25.51.78.26,1.17l-2.42,3.82c-.16.26-.44.39-.72.39Z"/>
          <path class="cls-2" d="m164.66,65.89c-1.54,0-3.08-.41-4.6-.18-.42.06-.84.18-1.27.18-.43,0-.88-.11-1.17-.43-.46-.53-.26-1.41.25-1.89.51-.48,1.23-.66,1.92-.8,1.62-.32,3.35-.5,4.9.1.56.21,1.1.55,1.39,1.06.29.52.26,1.25-.2,1.64-.33.28-.79.32-1.23.32Z"/>
          <path class="cls-2" d="m188.51,65.89c1.54,0,3.08-.41,4.6-.18.42.06.84.18,1.27.18.43,0,.88-.11,1.17-.43.46-.53.26-1.41-.25-1.89-.51-.48-1.23-.66-1.92-.8-1.62-.32-3.35-.5-4.9.1-.56.21-1.1.55-1.39,1.06-.29.52-.26,1.25.2,1.64.33.28.79.32,1.23.32Z"/>
        </g>
        <g>
          <g>
            <path class="cls-2" d="m296.67,118.89c28.78-14.5,50.96-28.51,49.56-31.31-1.41-2.8-25.88,6.69-54.65,21.19-28.78,14.5-50.96,28.51-49.56,31.31s25.88-6.69,54.65-21.19Z"/>
            <path class="cls-2" d="m243.45,141.41h0c-.42,0-1.71,0-2.19-.95-.46-.9-1.4-2.78,13.76-12.37,9.38-5.93,22.23-13.06,36.17-20.08,25.04-12.61,47.58-21.77,53.61-21.77.42,0,1.71,0,2.19.95.46.9,1.4,2.78-13.76,12.37-9.38,5.93-22.23,13.06-36.17,20.08-25.44,12.81-47.48,21.77-53.61,21.77Zm-.62-1.76c.11.03.3.06.62.06,5.79,0,28.01-9.08,52.84-21.58,30.86-15.55,48.37-27.5,49.13-30.13-.11-.03-.3-.06-.62-.06-5.79,0-28.02,9.08-52.84,21.58-30.87,15.55-48.37,27.5-49.13,30.13Z"/>
          </g>
          <g>
            <path class="cls-12" d="m318.78,107.13c17.18-9.67,28.46-17.54,27.44-19.56-1.02-2.02-14.05,2.37-32.05,10.41l4.61,9.14Z"/>
            <path class="cls-2" d="m318.78,107.98c-.08,0-.17-.01-.25-.04-.22-.07-.41-.22-.51-.43l-4.61-9.14c-.1-.21-.12-.45-.04-.67.08-.22.24-.4.45-.49,15.6-6.97,26.89-10.98,30.97-10.98.42,0,1.71,0,2.19.95.56,1.11.08,2.85-7.17,7.98-4.9,3.47-12.03,7.86-20.62,12.7-.13.07-.27.11-.42.11Zm-3.45-9.58l3.81,7.56c18.55-10.5,25.77-16.38,26.27-17.96-.11-.03-.3-.06-.62-.06-3.73,0-14.71,3.9-29.46,10.47Z"/>
          </g>
          <path class="cls-2" d="m336.25,89.06l2.83,5.61s5.44,3.52,11.72.35,11.95-17.71,11.95-17.71c0,0-16.01-.77-21.39,1.94-5.38,2.71-5.1,9.8-5.1,9.8Z"/>
          <g>
            <path class="cls-9" d="m362.74,77.32s-14.23-.68-20.36,1.52c.2,1.23,1.11,2.38,2.29,2.87,1.65.68,3.59.3,5.17-.54.32-.17.68-.36,1.02-.26.56.17.6,1.01.25,1.47-.35.47-.93.7-1.4,1.03-.8.57-1.37,1.53-1.3,2.51s.86,1.91,1.84,1.99c1.72.14,3.08-2.09,4.75-1.66,1.09.28,1.45,1.41,1.77,2.61,3.49-5.22,5.96-11.55,5.96-11.55Z"/>
            <path class="cls-2" d="m356.78,89.72s-.09,0-.14-.01c-.33-.06-.6-.3-.68-.62-.32-1.22-.59-1.86-1.16-2-.52-.13-1.13.26-1.8.69-.8.51-1.71,1.09-2.81,1-1.37-.11-2.52-1.33-2.62-2.78-.09-1.23.55-2.48,1.65-3.26.16-.12.34-.22.51-.32.3-.18.56-.34.71-.53.02-.02.03-.05.04-.08-.07.04-.16.09-.23.12-2.02,1.07-4.19,1.29-5.9.58-1.46-.6-2.56-1.99-2.81-3.52-.07-.4.17-.8.55-.93,3.84-1.38,10.64-1.67,15.66-1.67,2.9,0,5.01.1,5.04.1.27.01.52.16.67.39.15.23.18.52.08.77-.1.26-2.55,6.48-6.05,11.71-.16.24-.43.38-.71.38Zm-6.12-9.69c.16,0,.31.02.46.07.47.15.83.51.99,1,.19.59.07,1.3-.31,1.8-.34.45-.79.72-1.19.96-.14.08-.28.16-.41.26-.61.43-.98,1.12-.94,1.76.04.6.54,1.16,1.06,1.2h.08c.51,0,1.08-.36,1.67-.74.72-.46,1.54-.98,2.49-.98.22,0,.43.03.64.08.89.23,1.43.83,1.78,1.51,2.1-3.42,3.73-7.04,4.49-8.82-.89-.03-2.2-.05-3.74-.05-6.33,0-11.35.47-14.32,1.32.31.67.89,1.26,1.57,1.54,1.25.51,2.9.32,4.45-.51.31-.16.73-.39,1.21-.39Z"/>
          </g>
        </g>
        <g>
          <g>
            <path class="cls-9" d="m210.78,19.74c5.93-6.13-2.67-16.99-17.72-13.58-15.05,3.41-61.65,12.77-71.36,11.8s-15.93,15.34-3.58,24.58l-.9,4.22s18.36,1.7,21.53,2.38,43.37.21,72.03-29.39Z"/>
            <path class="cls-2" d="m141.4,50.13h0c-1.31,0-2.34-.06-2.82-.16-3.08-.66-21.25-2.35-21.43-2.36-.24-.02-.46-.15-.61-.34-.14-.2-.2-.44-.15-.68l.79-3.69c-6.99-5.5-7.64-13.02-6.03-17.86,1.72-5.17,5.94-8.37,10.63-7.91.44.04.97.07,1.58.07,12.24,0,54.11-8.36,69.51-11.85,1.96-.44,3.89-.67,5.74-.67,6.71,0,12.31,2.98,14.26,7.59,1.22,2.89.68,5.83-1.49,8.08-28.03,28.96-65.77,29.79-69.99,29.79Zm-23.15-4.13c3.84.36,17.88,1.71,20.67,2.3.27.06,1.08.13,2.47.13,15.02,0,46.4-6.17,68.77-29.28,1.7-1.76,2.11-3.97,1.15-6.24-1.38-3.26-5.85-6.55-12.7-6.55-1.73,0-3.53.21-5.37.63-15.45,3.5-57.51,11.89-69.88,11.89-.67,0-1.26-.02-1.75-.07-3.89-.39-7.39,2.35-8.85,6.75-1.53,4.61-.8,11.31,5.87,16.3.26.2.39.53.32.86l-.7,3.28Z"/>
          </g>
          <g>
            <path class="cls-9" d="m151.81,18.85c-.48-.1-.9-.42-1.12-.9-.5-1.07-4.76-10.59-2.37-16.13.35-.82,1.31-1.19,2.11-.84.82.35,1.19,1.3.84,2.11-1.55,3.59,1.16,10.97,2.34,13.51.37.81.02,1.76-.78,2.13-.33.15-.68.18-1.01.11Z"/>
            <path class="cls-2" d="m152.14,19.74c-.17,0-.34-.02-.51-.05-.75-.16-1.4-.67-1.72-1.37-.51-1.1-4.92-10.93-2.38-16.83.39-.9,1.28-1.49,2.26-1.49.34,0,.67.07.97.21,1.24.53,1.81,1.98,1.28,3.22-1.27,2.94.76,9.42,2.33,12.82.57,1.23.03,2.69-1.2,3.26-.33.15-.67.23-1.03.23Zm-2.35-18.04c-.3,0-.58.18-.7.46-1.83,4.24.63,11.7,2.36,15.44.1.22.3.37.53.42.16.03.33.02.48-.05.38-.18.54-.63.37-1.01-.04-.09-4.36-9.53-2.35-14.2.16-.38-.01-.83-.4-1-.1-.04-.2-.06-.3-.06Z"/>
          </g>
        </g>
      </g>
    </g>
  </g>
</svg>