<?xml version="1.0" encoding="UTF-8"?>
<svg id="_레이어_2" data-name="레이어 2" xmlns="http://www.w3.org/2000/svg" viewBox="0 0 370.59 365.17">
  <defs>
    <style>
      .cls-1 {
        fill: #f2cf63;
      }

      .cls-1, .cls-2, .cls-3, .cls-4, .cls-5, .cls-6, .cls-7, .cls-8 {
        stroke-width: 0px;
      }

      .cls-2 {
        fill: #333;
      }

      .cls-3 {
        fill: #fff;
      }

      .cls-4 {
        fill: #f29c50;
      }

      .cls-5 {
        fill: #fc5e71;
      }

      .cls-6 {
        fill: #f2c9cc;
      }

      .cls-7 {
        fill: #ccd7f2;
      }

      .cls-8 {
        fill: #f29199;
      }
    </style>
  </defs>
  <g id="_迹_1" data-name="卵迹_1">
    <g>
      <path class="cls-6" d="m284.71,318.55c33.7-13.02,62.11-39.35,76.1-72.84,13.15-31.48,16.47-82.43-12.01-107.11-10.81-9.37-25.31-12.9-38.9-17.39-29.38-9.69-39.97-30.34-53.08-56.64-12.81-25.68-30.24-40.22-58.95-44.22-42.42-5.91-88.32-5.39-126.06,17.38-36.87,22.25-49.04,68.83-30.55,107.31,12.46,25.94,36.54,45.95,44.21,73.68,7.46,26.97.5,56.13,19.75,79.47,15.52,18.81,41.41,24.95,65.58,28.18,33.12,4.43,67.26,5.43,99.55-3.17,4.9-1.3,9.7-2.87,14.37-4.67Z"/>
      <g>
        <path class="cls-8" d="m136.56,78.5c-8.23-.91-15.67,5.04-16.59,13.27s5.04,15.67,13.27,16.59c8.23.91,15.67-5.04,16.59-13.27s-5.04-15.67-13.27-16.59Zm9.49,16.17c-.68,6.16-6.23,10.59-12.38,9.91s-10.59-6.23-9.91-12.38c.68-6.16,6.23-10.59,12.38-9.91s10.59,6.23,9.91,12.38Z"/>
        <path class="cls-8" d="m154.13,90.24l5.47-3.99-2.35-5.7-6.35,1.26c-.09-.13-.16-.27-.25-.4-1.27-1.82-2.78-3.35-4.45-4.6l1.31-6.43-5.49-2.47-3.81,5.37c-2.19-.42-4.45-.44-6.67-.07l-3.39-5.17-5.56,2.39.99,6.09c-.13.09-.26.16-.38.26-1.76,1.32-3.24,2.9-4.44,4.65l-6.27-.78-2.03,5.86,4.96,3.13c-.41,2.34-.42,4.74-.03,7.1l-5.28,4.07,2.43,5.67,6.17-1.4c.04.06.07.12.12.18,1.25,1.79,2.73,3.3,4.37,4.54l-.85,7.14,5.66,2.04,3.29-5.59c2.23.42,4.51.43,6.77.04l3.92,5.39,5.47-2.6-1.32-6.23s.1-.06.14-.1c1.83-1.37,3.34-3.02,4.56-4.83l6.17,1.19,2.33-5.75-5.22-3.8c.34-2.13.34-4.31.02-6.47Zm-3.04,4.99c-.99,8.93-9.06,15.38-17.99,14.39-8.93-.99-15.38-9.06-14.39-17.99.99-8.93,9.06-15.38,17.99-14.39,8.93.99,15.39,9.06,14.39,17.99Z"/>
      </g>
      <g>
        <path class="cls-3" d="m98.14,179.85l-19.59,25.38-3.93-51.82c1.64-5.6,2.52-12.33,1.12-19.48,3.48-14.86,7.41-28.89,9.49-31.95,2.41-3.56,1.48-8.41-2.08-10.83-3.56-2.41-8.41-1.48-10.83,2.08-2.4,3.54-5.04,11.4-7.46,20.07-5.26-6.55-10.52-11.52-10.52-11.52,0,0-48.32,14.3-49.15,25.78-.46,6.4,4.86,22.78,9.66,36.03-.6,34.97,1.54,123.99,38.3,132.91,45.86,11.13,73.01-48.08,73.01-48.08l13.8-24.49-41.85-44.08Z"/>
        <path class="cls-2" d="m64.58,298.74h0c-3.82,0-7.73-.48-11.6-1.42-37.01-8.98-39.58-96.29-38.96-133.6-6.79-18.75-10.04-30.95-9.66-36.23.85-11.73,44.75-25.05,49.75-26.54.29-.08.6-.01.82.2.05.05,4.68,4.44,9.56,10.34,2.69-9.43,5.09-15.73,7.13-18.74,1.61-2.38,4.29-3.79,7.16-3.79,1.73,0,3.4.51,4.84,1.49,3.94,2.67,4.98,8.06,2.31,12-1.8,2.65-5.46,15.01-9.33,31.5,1.2,6.25.82,12.83-1.13,19.55l3.75,49.46,18.24-23.63c.15-.2.38-.32.63-.33.25-.02.49.08.66.26l41.85,44.08c.26.27.31.68.12,1l-13.8,24.49c-.02.06-5.81,12.56-16.3,24.87-13.95,16.38-29.88,25.04-46.05,25.04Zm-10.46-196.01c-13.61,4.07-47.43,16.06-48.07,24.89-.36,4.99,2.96,17.33,9.61,35.68.04.1.05.2.05.3-.28,16.36.02,48,5.13,76.06,6.09,33.41,17.03,52.26,32.53,56.02,3.74.91,7.51,1.37,11.2,1.37,37.93,0,60.62-48.49,60.84-48.98l13.53-24-40.74-42.9-18.98,24.59c-.21.28-.58.39-.92.29-.34-.1-.58-.4-.6-.75l-3.93-51.82c0-.1,0-.2.03-.3,1.92-6.58,2.29-13,1.1-19.08-.02-.12-.02-.24,0-.36,3.13-13.34,7.29-28.81,9.62-32.24,2.15-3.17,1.32-7.5-1.85-9.65-1.16-.78-2.5-1.2-3.89-1.2-2.31,0-4.46,1.14-5.76,3.05-2.05,3.02-4.52,9.69-7.34,19.82-.09.31-.34.54-.65.6-.31.06-.63-.05-.83-.3-4.4-5.47-8.83-9.88-10.09-11.1Z"/>
      </g>
      <path class="cls-2" d="m50.33,159.18s.06-.02.09-.03c.33-.12.5-.5.38-.84-9.07-24.01,11.63-34.44,12.52-34.88.32-.16.46-.55.3-.87-.16-.32-.56-.46-.87-.3-.23.11-22.66,11.37-13.17,36.51.12.3.43.47.74.4Z"/>
      <path class="cls-2" d="m87.61,52.74l-4.49-1.98c-2.1-.93-4.55.02-5.47,2.12l-51.99,117.71c-1.14,2.58.03,5.6,2.61,6.74l2.73,1.21c2.58,1.14,5.6-.03,6.74-2.61l51.99-117.71c.93-2.1-.02-4.55-2.12-5.47Z"/>
      <rect class="cls-2" x="68.71" y="71.83" width="13.21" height="5.36" transform="translate(36.53 -24.08) rotate(23.83)"/>
      <g>
        <rect class="cls-7" x="68.92" y="55.39" width="22.49" height="16.25" transform="translate(-10.32 111.18) rotate(-66.17)"/>
        <path class="cls-2" d="m83.06,77.93c-.12,0-.23-.02-.34-.07l-14.86-6.56c-.21-.09-.37-.26-.45-.47s-.08-.44.02-.65l9.09-20.58c.09-.21.26-.37.47-.45.21-.08.44-.08.65.01l14.86,6.56c.43.19.62.69.43,1.12l-9.09,20.58c-.09.21-.26.37-.47.45-.1.04-.2.06-.31.06Zm-13.74-7.85l13.31,5.88,8.4-19.02-13.31-5.88-8.4,19.02Z"/>
      </g>
      <rect class="cls-2" x="75.35" y="53.06" width="16.19" height="5.77" transform="translate(29.72 -28.95) rotate(23.83)"/>
      <g>
        <path class="cls-7" d="m112.88,48.07l-1.51,3.42c-.27.61-.98.88-1.59.62h0c-2.74-1.21-3.98-4.42-2.77-7.16l.09-.2-31.19-13.78-.09.2c-1.21,2.74-4.42,3.98-7.16,2.77l-1.31-.58c-.61-.27-.88-.98-.62-1.59l1.5-3.39c.35-.78,0-1.7-.79-2.04l-3.54-1.56c-.78-.35-1.7,0-2.04.79l-6.9,15.62c-.35.78,0,1.7.79,2.04l3.54,1.56c.78.35,1.7,0,2.04-.79l1.5-3.39c.27-.61.98-.88,1.59-.62l1.31.58c2.74,1.21,3.98,4.42,2.77,7.16l-.09.2,31.19,13.78.09-.2c1.21-2.74,4.42-3.98,7.16-2.77h0c.61.27.88.98.62,1.59l-1.51,3.42c-.34.77,0,1.66.77,2l3.59,1.59c.77.34,1.66,0,2-.78l6.93-15.68c.34-.77,0-1.66-.78-2l-3.59-1.59c-.77-.34-1.66,0-2,.78Z"/>
        <path class="cls-2" d="m110.94,68.31h0c-.33,0-.65-.07-.96-.2l-3.59-1.59c-1.19-.53-1.74-1.93-1.21-3.12l1.51-3.42c.05-.12.03-.22,0-.27s-.07-.15-.19-.2c-.59-.26-1.21-.39-1.85-.39-1.81,0-3.46,1.07-4.19,2.73l-.09.2c-.09.21-.26.37-.47.45-.21.08-.44.08-.65-.01l-31.19-13.78c-.21-.09-.37-.26-.45-.47-.08-.21-.08-.44.02-.65l.09-.2c1.02-2.31-.03-5.02-2.34-6.04l-1.31-.58c-.18-.08-.39,0-.47.18l-1.5,3.39c-.38.87-1.24,1.43-2.19,1.43-.33,0-.66-.07-.97-.2l-3.54-1.56c-.59-.26-1.04-.73-1.27-1.33-.23-.6-.22-1.25.04-1.83l6.9-15.62c.38-.87,1.24-1.43,2.19-1.43.33,0,.66.07.97.2l3.54,1.56c.59.26,1.03.73,1.27,1.33.23.6.22,1.25-.04,1.83l-1.5,3.39c-.05.12-.03.22,0,.27s.07.15.19.2l1.31.58c.59.26,1.21.39,1.85.39,1.81,0,3.46-1.07,4.19-2.73l.09-.2c.09-.21.26-.37.47-.45.21-.08.44-.08.65.02l31.19,13.78c.43.19.62.69.43,1.12l-.09.2c-.49,1.12-.52,2.36-.08,3.51.44,1.14,1.3,2.04,2.42,2.54.18.08.39,0,.47-.18l1.51-3.42c.38-.86,1.23-1.41,2.16-1.41.33,0,.65.07.96.2l3.59,1.59c.58.26,1.02.72,1.25,1.31.23.59.21,1.23-.04,1.81l-6.93,15.68c-.38.86-1.23,1.41-2.16,1.41Zm-6.28-10.88c.88,0,1.73.18,2.53.54.5.22.89.62,1.09,1.14.2.51.18,1.07-.04,1.57l-1.51,3.42c-.15.34,0,.73.34.88l3.59,1.59c.33.15.74-.01.88-.34l6.93-15.68c.07-.16.08-.34.01-.51-.06-.17-.19-.3-.35-.37l-3.59-1.59c-.33-.15-.74.01-.88.34l-1.51,3.42c-.44,1.01-1.7,1.49-2.71,1.05-1.53-.68-2.71-1.91-3.32-3.48-.53-1.37-.57-2.84-.11-4.22l-29.7-13.12c-1.11,1.95-3.19,3.18-5.47,3.18-.88,0-1.73-.18-2.53-.54l-1.31-.58c-.5-.22-.89-.62-1.09-1.14-.2-.51-.19-1.07.04-1.57l1.5-3.39c.08-.17.08-.36.01-.53-.07-.17-.2-.31-.37-.39l-3.54-1.56c-.35-.16-.77.02-.92.36l-6.9,15.62c-.08.17-.08.36-.01.53.07.17.2.31.37.39l3.54,1.56c.35.16.77-.01.92-.36l1.5-3.39c.44-1.01,1.7-1.5,2.71-1.05l1.31.58c2.97,1.31,4.42,4.67,3.43,7.7l29.7,13.12c1.11-1.95,3.19-3.18,5.47-3.18Z"/>
      </g>
      <path class="cls-3" d="m100.69,48.57l-24.39-10.77c-.81-.36-1.18-1.31-.82-2.12h0c.36-.81,1.31-1.18,2.12-.82l24.39,10.77c.81.36,1.18,1.31.82,2.12h0c-.36.81-1.31,1.18-2.12.82Z"/>
      <g>
        <g>
          <path class="cls-3" d="m47.95,86.11l17.06,17.84c3.04,3.19,2.65,8.62-.88,12.14-2.92,2.92-7.07,3.58-10.14,1.91,1.76,3.21,1.05,7.6-1.96,10.62-2.31,2.31-5.37,3.19-8.08,2.66.68,2.9-.22,6.26-2.67,8.72-2.96,2.96-7.19,3.6-10.27,1.84.65,2.62-.15,5.67-2.38,7.89-3.16,3.16-7.93,3.41-10.66.56l-15.29-15.99c-.71-.74-1.21-1.62-1.51-2.57-.85-2.7-.05-5.98,2.29-8.32,2.21-2.21,5.19-2.96,7.73-2.26-.21-.4-.41-.8-.54-1.24-.95-3.01-.05-6.67,2.56-9.28,2.31-2.31,5.4-3.2,8.11-2.65-.69-2.9.19-6.27,2.64-8.72,2.92-2.92,7.07-3.57,10.14-1.91-.23-.43-.44-.87-.59-1.34-.95-3.01-.05-6.67,2.55-9.28,3.52-3.52,8.85-3.8,11.89-.62Z"/>
          <path class="cls-2" d="m22.76,153.12c-2.09,0-4.01-.8-5.4-2.25l-15.29-15.99c-.78-.82-1.36-1.79-1.7-2.9-.97-3.09.01-6.69,2.5-9.17,1.88-1.88,4.46-2.9,6.94-2.75-1.01-3.38.08-7.31,2.8-10.03,2.08-2.08,4.93-3.21,7.68-3.04-.31-2.98.81-6.08,3.07-8.33,1.94-1.94,4.53-3.06,7.1-3.06.72,0,1.44.09,2.12.26-.86-3.31.24-7.08,2.88-9.72,1.96-1.96,4.57-3.08,7.15-3.08,2.31,0,4.42.88,5.95,2.48l17.06,17.84c3.35,3.51,2.95,9.49-.89,13.33-1.94,1.94-4.53,3.06-7.1,3.06-.73,0-1.45-.09-2.14-.26.87,3.28-.18,7.04-2.86,9.73-2.08,2.08-4.91,3.2-7.66,3.04.3,2.97-.83,6.07-3.09,8.33-1.95,1.95-4.54,3.06-7.11,3.06-.93,0-1.85-.15-2.7-.43.13,2.55-.89,5.16-2.83,7.1-1.77,1.77-4.13,2.79-6.48,2.79Zm-13.45-31.38c-1.89,0-3.79.82-5.23,2.26-2.05,2.04-2.86,4.97-2.08,7.46.27.85.71,1.61,1.31,2.23l15.29,15.99c1.06,1.11,2.55,1.72,4.17,1.72,1.9,0,3.82-.84,5.28-2.29,1.93-1.93,2.75-4.65,2.15-7.09-.08-.33.04-.68.31-.88.27-.2.64-.23.93-.06.99.56,2.14.86,3.34.86,2.13,0,4.28-.93,5.91-2.56,2.15-2.15,3.09-5.19,2.44-7.92-.07-.28.02-.58.22-.78.2-.21.49-.3.78-.24,2.5.49,5.33-.44,7.31-2.43,2.69-2.69,3.44-6.64,1.82-9.61-.18-.33-.12-.74.14-1.01.27-.27.68-.32,1.01-.15.96.52,2.08.8,3.23.8,2.12,0,4.28-.93,5.9-2.56,3.19-3.19,3.58-8.11.86-10.96l-17.05-17.84c-1.21-1.26-2.88-1.95-4.72-1.95-2.14,0-4.31.94-5.95,2.59-2.31,2.31-3.23,5.61-2.35,8.42.11.36.28.74.52,1.18.18.33.12.74-.15,1.01-.27.27-.68.32-1.01.15-.96-.52-2.08-.8-3.23-.8-2.12,0-4.28.93-5.9,2.56-2.14,2.14-3.07,5.18-2.42,7.93.07.28-.01.58-.22.79-.2.21-.49.3-.78.24-2.5-.51-5.35.43-7.34,2.42-2.31,2.31-3.23,5.61-2.35,8.42.12.38.3.75.48,1.09.16.3.12.66-.09.93-.21.26-.56.38-.89.29-.53-.15-1.1-.22-1.67-.22Z"/>
        </g>
        <path class="cls-2" d="m53.82,118.3c.12.06.27.03.38-.08.14-.14.15-.35.03-.47l-19.89-20.65c-.12-.12-.32-.11-.46.02-.14.14-.15.35-.03.47l19.89,20.65s.05.04.07.06Z"/>
        <path class="cls-2" d="m43.77,131.58c.11.06.26.03.37-.07.14-.13.16-.34.05-.47l-11.64-13.22c-.11-.13-.32-.12-.46,0-.14.13-.16.34-.05.47l11.64,13.22s.05.05.08.06Z"/>
        <path class="cls-2" d="m25.82,137.18c.11.06.26.03.37-.07.14-.13.17-.34.06-.47l-13.01-15.16c-.11-.14-.31-.13-.46,0-.14.13-.17.34-.06.47l13.01,15.16s.05.05.08.07Z"/>
        <path class="cls-2" d="m30.84,142.13c.11.05.25.04.36-.06.15-.12.18-.33.08-.47l-1.71-2.23c-.11-.14-.31-.15-.45-.02-.15.12-.18.33-.08.47l1.71,2.23s.06.06.09.08Z"/>
        <path class="cls-2" d="m51.9,110.22s.03.06.04.08l3.8,5.29c.06.08.15.12.25.12.16,0,3.92-.18,6.85-3.5.13-.15.13-.37,0-.48-.13-.12-.34-.09-.48.06-2.39,2.69-5.44,3.15-6.16,3.22l-3.62-5.04c1.27-4.88,6.12-6.76,7.18-7.12l3.22,4.33c.1.14.31.16.47.03.15-.13.19-.35.09-.48l-3.34-4.49c-.07-.1-.2-.14-.33-.1-.07.02-6.52,1.88-7.97,7.91-.01.06-.01.12,0,.18Z"/>
        <path class="cls-2" d="m41.12,123.92s.03.06.05.08l4.22,4.92c.06.07.16.11.26.1.16-.02,3.93-.48,6.64-3.99.12-.16.1-.37-.03-.48-.14-.11-.35-.06-.48.09-2.2,2.85-5.24,3.54-5.96,3.67l-4.02-4.69c.91-4.92,5.65-7.16,6.69-7.59l3.57,4.02c.12.13.33.13.47,0,.15-.14.16-.36.05-.48l-3.71-4.17c-.08-.09-.21-.12-.34-.08-.06.02-6.42,2.36-7.43,8.44,0,.06,0,.12.02.18Z"/>
        <path class="cls-2" d="m28.98,135.26s.03.06.05.08l4.22,4.92c.06.07.16.11.26.1.16-.02,3.93-.48,6.64-3.99.12-.16.1-.37-.03-.48-.14-.11-.35-.06-.48.09-2.2,2.85-5.24,3.54-5.96,3.67l-4.02-4.69c.91-4.92,5.65-7.16,6.69-7.59l3.57,4.02c.12.13.33.13.47,0,.15-.14.16-.36.05-.48l-3.71-4.17c-.08-.09-.21-.12-.34-.08-.06.02-6.42,2.36-7.43,8.44,0,.06,0,.12.02.18Z"/>
        <path class="cls-2" d="m16.21,145.4s.03.05.05.07l4,4.66c.06.07.15.1.25.09.15-.02,3.72-.46,6.29-3.78.11-.15.09-.35-.03-.45-.14-.1-.33-.06-.45.09-2.08,2.7-4.96,3.35-5.65,3.47l-3.81-4.44c.86-4.66,5.35-6.78,6.33-7.19l3.38,3.81c.11.13.31.12.45,0,.14-.13.16-.34.05-.46l-3.51-3.95c-.08-.09-.2-.12-.32-.07-.06.02-6.08,2.24-7.04,7.99,0,.06,0,.12.02.17Z"/>
      </g>
      <g>
        <path class="cls-2" d="m334.37,233.88h0s-.41-12.17-4.38-21.45c-3.97-9.27-9.69-32.35-17.64-49.14-7.95-16.78-63.22-35.7-63.22-35.7,0,0-1.32-7.5-3.09-10.59-1.76-3.09-8.39-2.2-8.39-2.2,0,0-29.59,3.54-39.31,0-9.72-3.53-14.57,5.3-14.57,5.3,0,0-50.34,4.53-62.27,15.57-.78.72-1.52,1.47-2.25,2.24-3.87,4.13-7.06,9.02-9.8,13.96-.3.53-.59,1.06-.87,1.59-4.2,7.85-7.31,15.62-10.23,20.49-5.3,8.83-17.48,22.56-17.48,22.56l18.42,13.87,18.28,14.14s-5.65,37.64-11.07,78.6c-4.01,32.29-3.39,58.8-3.39,58.8l164.56,2.38-3.86-113.2c10.78-1.81,78.25-12.82,70.54-17.21Z"/>
        <path class="cls-3" d="m169.65,365.17s-.09,0-.14-.01c-.46-.08-.77-.51-.7-.97l37.39-227.73c.08-.46.51-.77.97-.7.46.08.77.51.7.97l-37.39,227.73c-.07.41-.43.71-.83.71Z"/>
        <path class="cls-2" d="m237.66,117.68c4.64,0,6.18,2.21,5.52,3.97s-15.68,10.6-15.68,10.6l-31.58-5.3s-6.85-7.51-5.08-9.27c1.77-1.77,6.62-1.99,6.62-1.99l40.19,1.99Z"/>
        <path class="cls-3" d="m220.88,161.8c-.06,0-.11,0-.17-.02-.24-.05-.45-.2-.57-.41l-13.45-23.68-26.52,12.76c-.26.13-.58.11-.82-.05-.25-.16-.39-.43-.39-.73,0-.16.27-15.72,4-29.79.12-.45.59-.72,1.04-.6.45.12.72.58.6,1.03-3.04,11.45-3.75,23.92-3.91,28.01l25.98-12.5c.4-.19.88-.04,1.1.34l13.35,23.51c4.2-3.32,24.31-19.77,27.19-32.26.1-.45.56-.74,1.01-.63.46.11.74.56.63,1.01-3.34,14.48-27.55,33.04-28.58,33.83-.15.11-.33.17-.51.17Z"/>
        <path class="cls-3" d="m268.81,182.45c-.24,0-.48-.1-.65-.3-.3-.36-.25-.89.11-1.19,17.68-14.74,36.83-15.5,37.02-15.51.46-.02.86.35.87.82s-.35.86-.82.87c-.19,0-18.78.77-35.99,15.11-.16.13-.35.2-.54.2Z"/>
        <path class="cls-3" d="m257.53,245.49c-.41,0-.77-.3-.84-.72l-3.97-25.61c-.07-.46.24-.89.71-.97.46-.07.89.25.97.71l3.97,25.61c.07.46-.24.89-.71.97-.04,0-.09,0-.13,0Z"/>
        <path class="cls-3" d="m134.01,163.83c-.47,0-.85-.38-.85-.85,0-5.52-5.63-20.75-5.69-20.9-.16-.44.06-.92.5-1.09.44-.16.93.06,1.09.5.24.64,5.79,15.67,5.79,21.49,0,.47-.38.85-.85.85Z"/>
        <path class="cls-3" d="m210.62,171.72c-2.05,0-3.72-1.67-3.72-3.72s1.67-3.72,3.72-3.72,3.72,1.67,3.72,3.72-1.67,3.72-3.72,3.72Zm0-5.74c-1.12,0-2.02.91-2.02,2.02s.91,2.02,2.02,2.02,2.02-.91,2.02-2.02-.91-2.02-2.02-2.02Z"/>
        <g>
          <path class="cls-3" d="m190.96,59.98s-9.39-13.36-16.9-4.09c-7.5,9.27-.1,21.22,10.14,22.8"/>
          <path class="cls-2" d="m184.21,79.53s-.09,0-.13-.01c-5.79-.89-10.88-4.95-12.97-10.35-1.83-4.73-.99-9.76,2.29-13.82,2-2.47,4.32-3.68,6.9-3.58,6,.2,11.14,7.42,11.35,7.72.27.38.18.91-.21,1.18-.38.27-.91.18-1.18-.21-.05-.07-4.87-6.83-10.02-7-2.02-.06-3.88.93-5.52,2.96-2.93,3.63-3.65,7.94-2.03,12.14,1.87,4.84,6.44,8.48,11.64,9.28.46.07.78.5.71.97-.06.42-.43.72-.84.72Z"/>
        </g>
        <path class="cls-2" d="m188.64,27.81c-4.64,7.07-3.09,28.48-3.09,28.48l6.62-23.41-3.53-5.08Z"/>
        <g>
          <path class="cls-3" d="m257.42,84.89c-3.85,5.36-8.54,11.16-13.52,15.79l-4.24,22.03s-11.43,14.48-32.63,13.89c0,0-12.96-7.36-13.84-17.66,0,0,.59-2.08,1.32-4.77.59-2.14,1.26-4.67,1.8-6.84-4.05-1.95-7.36-4.4-9.47-7.02-.37-.46-.7-.93-1-1.39-7.36-11.7-9.57-21.19-2.06-39.74,4.36-10.77,3.17-18.11,4.68-25.4,4.74,1.38,11.44.67,16.48-.25-2.66,4.09-5.07,10.02.69,12.87,9.02,4.47,28.97-6.68,30-7.27-.91.62-11.48,7.51-9.12,11.97,2.43,4.59,26.16,1.78,26.16,1.78l1.1,31.18,3.65.84Z"/>
          <path class="cls-2" d="m208.31,137.46c-.43,0-.85,0-1.29-.02-.14,0-.27-.04-.4-.11-.55-.31-13.36-7.7-14.27-18.33,0-.1,0-.2.03-.3,0,0,.58-2.08,1.31-4.76.58-2.11,1.16-4.31,1.63-6.16-3.91-1.97-7.06-4.36-9.14-6.95-.37-.45-.73-.95-1.06-1.47-7.31-11.63-9.81-21.52-2.13-40.51,2.83-7,3.29-12.62,3.69-17.58.21-2.65.42-5.15.94-7.67.05-.23.19-.43.39-.56.2-.12.45-.15.68-.09,3.67,1.07,9.3.97,16.09-.27.33-.06.67.08.86.36.19.28.19.65,0,.93-1.56,2.4-3.26,5.82-2.53,8.49.37,1.34,1.31,2.38,2.88,3.16,1.3.64,2.94.97,4.89.97,9.68,0,23.72-7.88,24.31-8.21.4-.22.9-.1,1.14.29.24.39.13.89-.24,1.15l-.14.09c-5.14,3.46-10.12,8.11-8.71,10.78.35.66,2.15,2.18,11.35,2.18,6.74,0,13.88-.84,13.96-.85.24-.03.47.04.65.2.18.15.29.38.3.61l1.08,30.52,3.02.69c.28.06.5.26.6.53.1.27.06.56-.1.79-4.59,6.39-9.11,11.68-13.43,15.72l-4.18,21.75c-.03.13-.08.26-.17.37-.11.14-11.47,14.23-32.03,14.23Zm-1.02-1.71c19.19.46,30.3-11.89,31.59-13.42l4.19-21.81c.03-.18.12-.34.26-.46,4.07-3.78,8.32-8.69,12.66-14.63l-2.4-.55c-.37-.09-.64-.41-.66-.8l-1.07-30.26c-2.17.23-7.83.76-13.24.76-10.06,0-12.15-1.76-12.85-3.08-1.32-2.49.48-5.43,3.09-8.04-5.18,2.31-12.19,4.85-17.96,4.85-2.22,0-4.12-.39-5.65-1.14-2-.99-3.27-2.42-3.77-4.23-.62-2.26-.02-5.03,1.77-8.25-5.75.9-10.6.96-14.14.15-.38,2.14-.56,4.3-.74,6.58-.41,5.08-.88,10.84-3.81,18.08-7.45,18.41-5.17,27.57,1.99,38.97.29.46.61.9.94,1.31,2.04,2.53,5.21,4.88,9.18,6.79.36.17.55.58.46.97-.5,1.98-1.15,4.48-1.8,6.86-.61,2.27-1.13,4.1-1.27,4.63.89,9.02,11.7,15.82,13.23,16.74Z"/>
        </g>
        <g>
          <path class="cls-2" d="m223.93,71.62c.65-2.24,2.21-3.75,3.49-3.38,1.28.37,1.78,2.48,1.13,4.72-.65,2.24-2.21,3.75-3.49,3.38-1.28-.37-1.78-2.48-1.13-4.72Z"/>
          <path class="cls-2" d="m192.44,62.52c.65-2.24,2.21-3.75,3.49-3.38,1.28.37,1.78,2.48,1.13,4.72s-2.21,3.75-3.49,3.38-1.78-2.48-1.13-4.72Z"/>
          <path class="cls-2" d="m233.82,67.88c.45.06.92-.05,1.31-.34.79-.59.95-1.7.37-2.49-.16-.22-4.04-5.37-9.02-6.52-.96-.22-1.92.38-2.14,1.34-.22.96.38,1.92,1.34,2.14,3.7.85,6.93,5.13,6.96,5.17.3.4.73.64,1.19.7Z"/>
          <path class="cls-2" d="m193.7,54.97c.3.04.61,0,.91-.11.09-.03,4.02-1.54,8.57-.05.93.3,1.94-.2,2.25-1.14.31-.94-.2-1.94-1.14-2.25-5.87-1.92-10.82.06-11.02.14-.91.37-1.35,1.42-.97,2.33.25.61.8,1.01,1.41,1.09Z"/>
        </g>
        <path class="cls-2" d="m263.27,86.24l-5.85-1.34-6.09-7.06-.42-25.46s-23.04,4.59-25.46,0c-2.36-4.46,9.27-12.62,10.18-13.24-1.04.59-20.98,11.74-30,7.27-5.75-2.85-3.34-8.78-.69-12.87-5.04.92-11.75,1.63-16.48.25-5.08-1.47-7.9-5.35-4.03-13.95C194.82-3.31,237.47-1.61,251.47,2.42l-.31.23c.82.14,1.62.36,2.38.68,15.68,6.53,17,19.1,17,19.1,0,0,1.77-9.18,4.64-7.98,2.5,1.05-.54,10.78-1.36,13.22.57-1.55,2.43-5.7,5.33-3.31,3.53,2.89-3.75,8.7-3.75,8.7,13.91,26.83-3.31,44.71-12.15,53.17Z"/>
        <g>
          <path class="cls-3" d="m228.19,5.64c-2.83.41-5.64.98-8.41,1.7-2.49.65-5.33,1.79-5.94,4.29-.56,2.29,1.21,4.62,3.36,5.58,2.16.95,4.61.89,6.97.91,4.29.04,8.94.58,12.03,3.55,2.59,2.5,3.55,6.24,5.68,9.15,3.47,4.76,10.26,6.77,15.77,4.69,2.87-1.09,5.61-3.99,4.66-6.91-.64-1.97-2.74-3.11-4.78-3.49s-4.14-.2-6.18-.53c-2.78-.46-5.39-1.9-7.25-4.02-1.75-1.98-2.85-4.52-4.88-6.21-1.88-1.58-4.53-2.42-5.66-4.61-.62-1.21-.73-2.75-1.79-3.6-.97-.78-2.36-.67-3.59-.49Z"/>
          <path class="cls-2" d="m253.06,36.76h0c-4.55,0-8.97-2.18-11.53-5.68-.9-1.23-1.59-2.6-2.27-3.93-.97-1.92-1.89-3.74-3.36-5.16-3.09-2.98-7.89-3.4-11.74-3.43h-.55c-2.22-.02-4.51-.03-6.58-.95-2.23-.98-4.25-3.44-3.6-6.07.52-2.14,2.57-3.65,6.25-4.6,2.77-.72,5.61-1.29,8.45-1.71.43-.06.99-.13,1.54-.13,1,0,1.78.23,2.37.72.78.63,1.1,1.56,1.4,2.46.15.46.3.89.5,1.28.68,1.32,1.99,2.13,3.36,2.97.74.46,1.51.93,2.19,1.5,1.25,1.05,2.16,2.4,3.04,3.71.59.87,1.19,1.77,1.88,2.55,1.79,2.03,4.34,3.44,7,3.88.96.16,1.95.2,2.92.24,1.07.05,2.18.09,3.27.3,2.58.48,4.49,1.89,5.1,3.77,1.01,3.11-1.7,6.22-4.91,7.44-1.48.56-3.08.85-4.73.85Zm-23.39-30.82c-.5,0-1.02.07-1.42.13-2.81.41-5.62.98-8.36,1.69-3.35.87-5.19,2.17-5.63,3.98-.51,2.1,1.19,4.23,3.12,5.09,1.91.84,4.11.86,6.25.87h.55c4,.04,9.02.49,12.32,3.67,1.58,1.52,2.57,3.49,3.53,5.39.66,1.3,1.34,2.65,2.19,3.82,2.4,3.29,6.56,5.33,10.84,5.33,1.55,0,3.04-.27,4.43-.79,2.78-1.05,5.25-3.79,4.41-6.38-.61-1.86-2.7-2.87-4.45-3.2-1.03-.19-2.11-.24-3.15-.28-.99-.04-2.01-.09-3.02-.25-2.9-.48-5.56-1.95-7.5-4.15-.73-.82-1.35-1.75-1.95-2.64-.89-1.32-1.73-2.56-2.88-3.53-.63-.53-1.37-.99-2.09-1.43-1.42-.87-2.88-1.78-3.67-3.31-.23-.45-.39-.93-.55-1.4-.27-.82-.53-1.59-1.13-2.07-.44-.36-1.04-.53-1.84-.53Z"/>
        </g>
        <path class="cls-2" d="m205.86,94.18c-4.64,0-8.39-1.87-8.65-2.01-.42-.21-.58-.72-.37-1.14.21-.42.72-.58,1.14-.37.1.05,9.53,4.74,16.42-1.31.35-.31.89-.28,1.19.08.31.35.27.89-.08,1.19-3.1,2.73-6.58,3.56-9.66,3.56Z"/>
        <path class="cls-2" d="m216.51,92.5c-.26,0-.51-.12-.68-.34l-2.47-3.29c-.28-.37-.2-.9.17-1.18.38-.28.9-.2,1.18.17l2.47,3.29c.28.37.2.9-.17,1.18-.15.11-.33.17-.51.17Z"/>
        <g>
          <path class="cls-3" d="m251.55,75.5s16.82-3.13,15.99,8.77c-.83,11.9-13.03,15.53-21.6,9.7"/>
          <path class="cls-2" d="m254.63,97.56c-3.15,0-6.36-.98-9.17-2.89-.39-.26-.49-.79-.22-1.18s.79-.49,1.18-.22c4.24,2.89,9.5,3.4,13.73,1.35,3.88-1.88,6.2-5.58,6.54-10.41.18-2.56-.48-4.46-2.01-5.83-4.07-3.64-12.88-2.06-12.97-2.04-.46.08-.9-.22-.99-.68-.09-.46.22-.9.68-.99.39-.07,9.71-1.75,14.41,2.44,1.93,1.72,2.79,4.15,2.58,7.22-.38,5.38-3.11,9.69-7.49,11.82-1.95.95-4.09,1.41-6.26,1.41Z"/>
        </g>
        <path class="cls-2" d="m227.93,103.93s-12.08,14.17-33.42,10.23c.59-2.14,1.26-4.67,1.8-6.84-4.05-1.95-7.36-4.4-9.47-7.02.04-.03.06-.04.06-.04,8.91,8.2,21.36,10.19,41.03,3.68Z"/>
        <path class="cls-2" d="m204.89,79.89c-.2,0-.39-.07-.55-.2-.46-.38-2.57-3.66-2.57-4.62,0-.48.24-.8,2.13-3.07,1.87-2.24,4.69-5.64,5.27-7.38.15-.44.63-.69,1.07-.54.44.15.69.63.54,1.07-.68,2.05-3.51,5.45-5.58,7.93-.67.81-1.42,1.7-1.69,2.1.27.65,1.59,2.85,1.94,3.21.36.3.4.82.11,1.18-.17.2-.41.31-.65.31Z"/>
        <path class="cls-2" d="m248.16,88.09c-.09,0-.19-.02-.28-.05-.44-.16-.67-.64-.52-1.08,1.53-4.31,5.78-6.36,9.31-6.49,3.09-.13,5.61,1.16,6.55,3.32.19.43,0,.93-.44,1.12-.43.19-.93,0-1.12-.44-.66-1.51-2.54-2.38-4.94-2.3-2.96.11-6.51,1.81-7.77,5.36-.12.35-.45.57-.8.57Z"/>
        <path class="cls-2" d="m255.23,87.66c-.34,0-.67-.21-.79-.55l-1.7-4.53c-.16-.44.06-.93.5-1.09.44-.16.93.06,1.09.5l1.7,4.53c.16.44-.06.93-.5,1.09-.1.04-.2.05-.3.05Z"/>
        <path class="cls-2" d="m181.95,64.32c-.27,0-.53-.13-.7-.36-.79-1.13-2.89-3.38-3.96-2.73-.4.24-.92.11-1.16-.29-.24-.4-.11-.92.29-1.16,2.72-1.63,5.87,2.71,6.22,3.21.27.38.18.91-.21,1.18-.15.1-.32.15-.49.15Z"/>
      </g>
      <g>
        <polygon class="cls-2" points="89.81 204.51 182.77 204.51 152.52 256.94 59.57 256.94 89.81 204.51"/>
        <g>
          <polygon class="cls-1" points="181.88 214.87 94.21 215.49 70.46 256.99 70.46 362.16 198.53 362.16 198.53 258.98 181.88 214.87"/>
          <path class="cls-2" d="m198.53,363.01H70.46c-.47,0-.85-.38-.85-.85v-105.18c0-.15.04-.29.11-.42l23.75-41.5c.15-.26.43-.42.73-.43l87.67-.62h0c.35,0,.67.22.79.55l16.65,44.11c.04.1.05.2.05.3v103.18c0,.47-.38.85-.85.85Zm-127.22-1.7h126.38v-102.18l-16.39-43.41-86.59.61-23.4,40.88v104.1Z"/>
        </g>
        <g>
          <polygon class="cls-4" points="189.39 214.87 141.25 215.49 128.21 256.99 128.21 362.16 198.53 362.16 198.53 258.98 189.39 214.87"/>
          <path class="cls-2" d="m198.53,363.01h-70.33c-.47,0-.85-.38-.85-.85v-105.18c0-.09.01-.17.04-.25l13.04-41.5c.11-.35.43-.59.8-.59l48.14-.62c.37-.02.76.28.84.68l9.14,44.11c.01.06.02.11.02.17v103.18c0,.47-.38.85-.85.85Zm-69.48-1.7h68.63v-102.25l-8.98-43.34-46.82.6-12.82,40.79v104.2Z"/>
        </g>
        <g>
          <polygon class="cls-5" points="185.11 204.51 92.16 204.51 122.41 256.94 215.36 256.94 185.11 204.51"/>
          <path class="cls-2" d="m216.83,257.79h-94.91l-31.23-54.13h94.91l31.23,54.13Zm-93.93-1.7h90.99l-29.27-50.74h-90.99l29.27,50.74Z"/>
        </g>
        <g>
          <polygon class="cls-3" points="216.6 258 121.79 258 121.49 257.47 91.55 205.57 90.43 205.57 60.48 257.47 58.65 256.41 89.2 203.44 92.77 203.44 93.08 203.98 123.02 255.88 216.6 255.88 216.6 258"/>
          <path class="cls-2" d="m216.6,258.43h-94.81c-.15,0-.29-.08-.37-.21l-.31-.53-29.82-51.69h-.63l-29.82,51.69c-.06.1-.15.17-.26.2-.11.03-.22.01-.32-.04l-1.84-1.06c-.2-.12-.27-.38-.16-.58l30.55-52.97c.08-.13.22-.21.37-.21h3.57c.15,0,.29.08.37.21l.31.53,29.82,51.69h93.33c.23,0,.42.19.42.42v2.13c0,.23-.19.42-.42.42Zm-94.56-.85h94.14v-1.28h-93.15c-.15,0-.29-.08-.37-.21l-30.13-52.22h-3.08l-30.22,52.39,1.1.64,29.73-51.53c.08-.13.22-.21.37-.21h1.12c.15,0,.29.08.37.21l30.13,52.22Z"/>
        </g>
        <ellipse class="cls-2" cx="93.13" cy="282.63" rx="9.21" ry="11.16"/>
        <g>
          <path class="cls-4" d="m87.82,282.63c0-5.33,3.09-9.78,7.22-10.88-.64-.17-1.31-.28-1.99-.28-5.09,0-9.21,5-9.21,11.16s4.12,11.16,9.21,11.16c.69,0,1.35-.11,1.99-.28-4.13-1.11-7.22-5.55-7.22-10.88Z"/>
          <path class="cls-2" d="m93.05,294.64c-5.55,0-10.06-5.39-10.06-12.01s4.51-12.01,10.06-12.01c.72,0,1.44.1,2.21.31.37.1.63.44.63.82s-.26.72-.63.82c-3.82,1.02-6.59,5.25-6.59,10.06s2.77,9.04,6.59,10.06c.37.1.63.44.63.82,0,.38-.26.72-.63.82-.77.21-1.5.31-2.21.31Zm-1.36-22.18c-3.96.81-7,5.06-7,10.17s3.03,9.37,7,10.17c-2.88-2.14-4.71-5.92-4.71-10.17s1.83-8.04,4.71-10.17Z"/>
        </g>
        <g>
          <rect class="cls-4" x="55.14" y="302.02" width="38.26" height="6.64" rx="2.39" ry="2.39"/>
          <path class="cls-2" d="m91.01,309.52h-33.49c-1.78,0-3.23-1.45-3.23-3.23v-1.87c0-1.78,1.45-3.24,3.23-3.24h33.49c1.78,0,3.23,1.45,3.23,3.24v1.87c0,1.78-1.45,3.23-3.23,3.23Zm-33.49-6.64c-.85,0-1.54.69-1.54,1.54v1.87c0,.85.69,1.54,1.54,1.54h33.49c.85,0,1.54-.69,1.54-1.54v-1.87c0-.85-.69-1.54-1.54-1.54h-33.49Z"/>
        </g>
      </g>
      <g>
        <g>
          <path class="cls-3" d="m328.9,222.69s23.27,81.47-2.2,105.67c-38.6,36.67-116.52-40.23-116.52-40.23,0,0-25.98.69-31.61-11.7,0,0-3.09,6.32-10.02,3.95-6.93-2.37-18.56-21.51-14.03-30.37,0,0-2.57-8.34,4.16-13.74,0,0-3.43-5.92,1.94-11.35,0,0-19.66.78-17.69-11.18,0,0-1.79-2.19,18.68-7.19,20.47-4.99,29.25-3.14,36.12-.31s28.66,21.74,33.97,25.79c5.31,4.04,36.74,20.36,36.74,20.36l-1.55-14.98c22.65-16.87,23.35-15.61,62.01-14.74Z"/>
          <path class="cls-2" d="m300.86,339.12c-38.32,0-87.05-46.29-91.03-50.14-3.05.03-24.82-.16-31.34-10.87-1.11,1.47-3.36,3.65-6.95,3.65-1.05,0-2.15-.19-3.27-.58-4.34-1.48-10.25-8.85-13.46-16.78-2.38-5.89-2.8-11.02-1.19-14.49-.39-1.64-1.7-8.83,4.01-13.88-.68-1.61-2.01-5.97,1.15-10.28-3.6-.11-11.36-.87-14.94-5.08-1.58-1.87-2.18-4.17-1.79-6.87-.03-.17-.03-.39.05-.64.25-.74,1-2.98,19.3-7.44,8.67-2.11,15.77-3.14,21.71-3.14,7.02,0,11.48,1.45,14.93,2.87,5.24,2.16,18.6,13.16,27.44,20.44,3.01,2.48,5.39,4.44,6.73,5.46,4.56,3.47,29.07,16.34,35.22,19.56l-1.39-13.41c-.03-.3.1-.59.34-.77,17.49-13.02,22.08-15.34,40.51-15.34,4.13,0,9.08.12,14.8.26,2.25.06,4.66.12,7.23.17.37,0,.69.26.8.62.96,3.35,23.12,82.24-2.44,106.52-7.08,6.73-15.97,10.14-26.42,10.15Zm-90.69-51.84c.22,0,.44.09.6.24.51.5,51.01,49.9,90.09,49.9h0c9.99,0,18.49-3.26,25.25-9.68,23.68-22.49,4.18-96.75,2.14-104.22-2.34-.05-4.53-.11-6.6-.16-5.71-.14-10.65-.26-14.76-.26-17.77,0-22.31,2.23-39.11,14.72l1.5,14.5c.03.31-.11.61-.37.79-.26.17-.59.19-.87.05-1.29-.67-31.55-16.4-36.86-20.44-1.37-1.04-3.75-3.01-6.78-5.5-8.23-6.78-22.01-18.12-27.01-20.18-3.29-1.36-7.56-2.74-14.28-2.74-5.81,0-12.78,1.01-21.31,3.09-15.28,3.73-17.67,5.78-18.04,6.26,0,.08,0,.16,0,.24-.38,2.3.07,4.16,1.38,5.7,3.55,4.18,12.2,4.5,14.76,4.5.43,0,.67,0,.68,0,.34-.04.67.19.81.51.14.32.07.69-.17.94-4.86,4.91-1.84,10.27-1.81,10.32.21.36.12.83-.2,1.09-6.21,4.98-3.9,12.75-3.88,12.83.07.21.05.44-.06.64-1.55,3.03-1.15,7.77,1.11,13.37,2.99,7.4,8.57,14.49,12.43,15.81.94.32,1.86.49,2.72.49,4.22,0,6.18-3.85,6.26-4.01.15-.29.45-.45.78-.47.33,0,.62.2.76.5,4.85,10.67,25.93,11.21,30.1,11.21.45,0,.7,0,.71,0h.02Z"/>
        </g>
        <path class="cls-2" d="m160.78,225.76c-.37.07-.76-.11-.93-.47-.2-.42-.02-.93.4-1.13,7.58-3.61,15.47-5.46,24.85-5.84.47-.02.86.34.88.81.02.47-.34.86-.81.88-9.14.37-16.83,2.18-24.19,5.68-.06.03-.13.05-.2.07Z"/>
        <path class="cls-2" d="m179.74,233.27c-.08.02-.15.02-.23.01-7.4-.59-20.42,3.75-20.55,3.79-.44.15-.92-.09-1.07-.53-.15-.44.09-.92.53-1.07.55-.18,13.48-4.49,21.22-3.88.47.04.81.44.78.91-.03.39-.32.69-.68.76Z"/>
        <path class="cls-2" d="m154.69,250.84c-.33.07-.68-.07-.87-.37-.26-.39-.15-.91.24-1.17,4.47-2.94,15.44-3.95,15.91-3.99.47-.04.88.3.92.77.04.47-.3.87-.77.92-.11.01-11.01,1.01-15.13,3.72-.09.06-.2.1-.3.12Z"/>
        <path class="cls-2" d="m178.73,277.26c-.34.07-.7-.08-.89-.39-4.21-6.88-6.2-17.74-6.28-18.2-.08-.45.22-.89.67-.98,0,0,.01,0,.01,0,.47-.08.91.22.99.68.02.11,2.01,11.01,6.06,17.61.24.4.12.92-.28,1.16-.09.05-.18.09-.28.11Z"/>
        <path class="cls-2" d="m173.38,263.47c-.23.05-.49,0-.69-.17l-3.07-2.43c-.37-.29-.43-.82-.14-1.19.29-.37.82-.43,1.19-.14l3.07,2.43c.37.29.43.82.14,1.19-.13.16-.31.27-.5.31Z"/>
        <path class="cls-2" d="m155.79,215.98s-.01,0-.02,0l-8.27,1.43c-.39.07-.77-.14-.92-.51l-.65-1.56c-.18-.43.02-.93.46-1.11.44-.18.93.02,1.11.46l.39.94,7.03-1.21c.56-3.26-.58-5.26-.64-5.35-.24-.4-.1-.92.3-1.16.4-.24.91-.11,1.16.29.07.11,1.68,2.85.73,7.14-.07.33-.33.58-.66.65Z"/>
        <path class="cls-2" d="m211.17,223.27c-.12.02-.25.02-.38-.01l-9.61-2.47c-.45-.12-.73-.58-.61-1.03.12-.45.58-.72,1.03-.61l9.61,2.47c.45.12.73.58.61,1.03-.08.33-.35.56-.65.62Z"/>
        <path class="cls-2" d="m208.6,225.59c-.36.07-.75-.1-.92-.45l-3.74-7.47c-.21-.42-.04-.93.38-1.14.42-.21.93-.04,1.14.38l3.74,7.47c.21.42.04.93-.38,1.14-.07.03-.14.06-.21.07Z"/>
        <path class="cls-2" d="m205.59,237c-.12.02-.25.02-.38-.01l-9.61-2.47c-.45-.12-.73-.58-.61-1.03.12-.45.58-.72,1.03-.61l9.61,2.47c.45.12.73.58.61,1.03-.08.33-.35.56-.65.62Z"/>
        <path class="cls-2" d="m203.01,239.31c-.36.07-.75-.1-.92-.45l-3.74-7.47c-.21-.42-.04-.93.38-1.14.42-.21.93-.04,1.14.38l3.74,7.47c.21.42.04.93-.38,1.14-.07.03-.14.06-.21.07Z"/>
        <path class="cls-2" d="m200.58,249.14c-.12.02-.25.02-.38-.01l-9.61-2.47c-.45-.12-.73-.58-.61-1.03.12-.45.58-.72,1.03-.61l9.61,2.47c.45.12.73.58.61,1.03-.08.33-.35.56-.65.62Z"/>
        <path class="cls-2" d="m198.01,251.46c-.36.07-.75-.1-.92-.45l-3.74-7.47c-.21-.42-.04-.93.38-1.14.42-.21.93-.04,1.14.38l3.74,7.47c.21.42.04.93-.38,1.14-.07.03-.14.06-.21.07Z"/>
        <path class="cls-2" d="m211.71,288.94c-.85.17-1.66.25-2.34.18-.46-.05-.8-.47-.75-.93.05-.46.47-.8.93-.75,1.83.19,5.56-1.26,6.84-1.83.42-.19.93,0,1.12.43.19.43,0,.93-.43,1.12-.38.17-2.98,1.32-5.37,1.79Z"/>
        <path class="cls-2" d="m311.18,276.09c-.18.04-.38.01-.56-.08l-42.84-22.82c-.41-.22-.57-.73-.35-1.14.22-.41.73-.57,1.14-.35l42.84,22.82c.41.22.57.73.35,1.14-.12.23-.34.38-.58.43Z"/>
        <path class="cls-2" d="m308.2,326.39c-1.77,0-3.9-.33-5.24-1.68-.97-.97-1.36-2.29-1.17-3.92.69-5.73,7.07-9.02,13.1-9.75.46-.05.89.28.94.74.06.47-.28.89-.74.94-4.01.48-10.96,2.77-11.62,8.27-.13,1.1.09,1.93.68,2.52.97.98,3.1,1.38,5.67,1.08,1.7-.2,3.48-.48,5.01-1.22,1.39-.67,2.92-2.04,3-3.27.02-.22.06-.89-1.03-1.61-1.16-.77-2.8-.42-5,1.08-.39.26-.92.16-1.18-.23-.26-.39-.16-.91.23-1.18,1.04-.71,4.21-2.86,6.89-1.09,1.58,1.05,1.84,2.28,1.79,3.14-.14,1.98-2.15,3.82-3.96,4.69-1.76.84-3.71,1.16-5.55,1.37-.51.06-1.14.11-1.83.11Z"/>
      </g>
      <path class="cls-3" d="m342.99,168.01l7.35-2.34-7.36-2.51c-2.2-.58-3.89-2.35-4.36-4.58l-2.33-11.05-2.51,10.81c-.53,2.28-2.33,4.04-4.62,4.53l-6.93,2.38,6.68,2.36c2.34.54,4.13,2.43,4.56,4.79l1.93,10.69,2.82-10.7c.6-2.26,2.45-3.97,4.75-4.39Z"/>
      <path class="cls-2" d="m150.84,21.33l7.17-2.28-7.17-2.45c-2.14-.56-3.79-2.29-4.25-4.46l-2.28-10.77-2.44,10.53c-.51,2.22-2.27,3.94-4.5,4.41l-6.75,2.32,6.51,2.3c2.28.53,4.03,2.37,4.45,4.67l1.88,10.41,2.74-10.42c.58-2.2,2.39-3.87,4.63-4.28Z"/>
      <path class="cls-2" d="m48.54,322.54l6.32-2.01-6.32-2.16c-1.89-.5-3.34-2.02-3.74-3.93l-2.01-9.49-2.15,9.29c-.45,1.96-2,3.48-3.97,3.89l-5.95,2.05,5.74,2.03c2.01.47,3.55,2.09,3.92,4.12l1.66,9.18,2.42-9.19c.51-1.94,2.1-3.42,4.08-3.77Z"/>
      <g>
        <path class="cls-8" d="m315.24,60.37c-10.78-1.2-20.52,6.6-21.71,17.37-1.2,10.78,6.6,20.52,17.37,21.71,10.78,1.2,20.52-6.6,21.71-17.37,1.2-10.78-6.6-20.52-17.37-21.71Zm12.42,21.16c-.89,8.06-8.15,13.86-16.21,12.97-8.06-.89-13.86-8.15-12.97-16.21.89-8.06,8.15-13.86,16.21-12.97,8.06.89,13.86,8.15,12.97,16.21Z"/>
        <path class="cls-8" d="m338.24,75.74l7.16-5.23-3.07-7.47-8.31,1.65c-.12-.17-.21-.36-.33-.53-1.66-2.39-3.64-4.39-5.83-6.02l1.72-8.41-7.19-3.24-4.98,7.03c-2.87-.55-5.82-.58-8.73-.1l-4.43-6.76-7.28,3.12,1.3,7.97c-.16.12-.34.21-.5.34-2.31,1.73-4.24,3.8-5.81,6.08l-8.21-1.02-2.66,7.68,6.49,4.1c-.53,3.06-.55,6.2-.04,9.3l-6.91,5.32,3.17,7.42,8.07-1.83c.05.08.1.16.15.24,1.63,2.35,3.58,4.33,5.72,5.95l-1.11,9.35,7.41,2.67,4.31-7.31c2.91.55,5.91.57,8.86.06l5.13,7.05,7.17-3.4-1.73-8.16c.06-.04.13-.08.19-.12,2.39-1.79,4.37-3.95,5.97-6.33l8.08,1.56,3.06-7.52-6.83-4.98c.44-2.79.45-5.64.03-8.47Zm-3.97,6.53c-1.3,11.69-11.86,20.14-23.55,18.84-11.69-1.3-20.14-11.86-18.84-23.55,1.3-11.69,11.86-20.14,23.55-18.84,11.69,1.3,20.14,11.86,18.84,23.55Z"/>
      </g>
    </g>
  </g>
</svg>