<svg width="181" height="62" viewBox="0 0 181 62" fill="none" xmlns="http://www.w3.org/2000/svg">
<mask id="mask0_295_809" style="mask-type:alpha" maskUnits="userSpaceOnUse" x="-64" y="0" width="245" height="62">
<path d="M180.59 61.75V0.25H-63.2065L-1.14441e-05 61.75H180.59Z" fill="black"/>
</mask>
<g mask="url(#mask0_295_809)">
<path d="M47.343 23.444H48.822C48.822 27.32 46.102 30.091 41.682 31.332L41.104 30.227C44.997 29.122 47.343 26.895 47.343 24.039V23.444ZM41.903 23.444H48.295V24.583H41.903V23.444ZM52.171 22.458H53.582V31.23H52.171V22.458ZM48.839 26.402H52.443V27.575H48.839V26.402ZM43.671 31.876H53.582V37.622H43.671V31.876ZM52.205 33.015H45.065V36.466H52.205V33.015ZM60.7716 23.784H61.9276V26.538C61.9276 29.938 60.0916 33.253 57.6606 34.545L56.7936 33.423C59.0206 32.301 60.7716 29.343 60.7716 26.538V23.784ZM61.0266 23.784H62.1656V26.538C62.1656 29.241 63.8826 32.046 66.0586 33.134L65.1916 34.256C62.8116 32.981 61.0266 29.836 61.0266 26.538V23.784ZM67.4016 22.458H68.8296V37.826H67.4016V22.458ZM68.4896 28.68H71.3456V29.87H68.4896V28.68ZM83.4823 22.458H84.8933V37.826H83.4823V22.458ZM84.5533 28.765H87.4093V29.955H84.5533V28.765ZM72.9933 24.906H82.0543V26.062H72.9933V24.906ZM77.5833 27.337C79.7593 27.337 81.3233 28.799 81.3233 30.873C81.3233 32.947 79.7593 34.409 77.5833 34.409C75.4243 34.409 73.8433 32.947 73.8433 30.873C73.8433 28.799 75.4243 27.337 77.5833 27.337ZM77.5833 28.51C76.1893 28.51 75.1863 29.479 75.1863 30.873C75.1863 32.25 76.1893 33.236 77.5833 33.236C78.9773 33.236 79.9803 32.25 79.9803 30.873C79.9803 29.479 78.9773 28.51 77.5833 28.51ZM76.8523 22.645H78.2633V25.433H76.8523V22.645ZM100.362 22.441H101.773V37.843H100.362V22.441ZM97.438 28.357H100.702V29.513H97.438V28.357ZM89.703 32.981H90.876C93.596 32.981 95.517 32.896 97.778 32.488L97.914 33.661C95.602 34.069 93.647 34.171 90.876 34.171H89.703V32.981ZM89.669 23.886H96.537V29.275H91.097V33.338H89.703V28.119H95.143V25.042H89.669V23.886ZM120.434 22.441H121.862V37.826H120.434V22.441ZM121.471 28.68H124.31V29.853H121.471V28.68ZM116.507 24.107H117.884C117.884 28.476 115.878 32.42 110.914 34.919L110.132 33.831C114.382 31.672 116.507 28.391 116.507 24.328V24.107ZM110.846 24.107H117.238V25.263H110.846V24.107ZM137.296 22.458H138.707V37.826H137.296V22.458ZM132.791 24.107H134.185C134.185 28.561 132.179 32.454 127.045 34.97L126.297 33.831C130.734 31.689 132.791 28.425 132.791 24.345V24.107ZM126.994 24.107H133.403V25.263H126.994V24.107Z" fill="white"/>
</g>
</svg>
