<?xml version="1.0" encoding="UTF-8"?>
<svg id="_레이어_2" data-name="레이어 2" xmlns="http://www.w3.org/2000/svg" viewBox="0 0 368.95 368.79">
  <defs>
    <style>
      .cls-1 {
        fill: #c6bcc6;
      }

      .cls-1, .cls-2, .cls-3, .cls-4, .cls-5, .cls-6, .cls-7, .cls-8, .cls-9, .cls-10 {
        stroke-width: 0px;
      }

      .cls-2 {
        fill: #f2cf63;
      }

      .cls-3 {
        fill: #2b2b2b;
      }

      .cls-4 {
        fill: #333;
      }

      .cls-5 {
        fill: #fff;
      }

      .cls-6 {
        fill: #f29c50;
      }

      .cls-7 {
        fill: #fc5e71;
      }

      .cls-8 {
        fill: #f2c9cc;
      }

      .cls-9 {
        fill: #ccd7f2;
      }

      .cls-10 {
        fill: #f29199;
      }
    </style>
  </defs>
  <g id="_迹_1" data-name="卵迹_1">
    <g>
      <path class="cls-8" d="m122.09,290.07c-28.23-1.53-57.33-7.73-79.63-25.12C12.9,241.9-.07,201.08,6.44,164.18c6.52-36.91,30.73-69.38,61.85-90.26,11.58-7.77,24.1-14.08,35.49-22.12,10.14-7.15,19.32-15.63,29.72-22.39,9.55-6.21,20.03-10.9,30.82-14.52C209.26-.17,260.28,4,302.16,26.15c9.2,4.87,18.01,10.59,25.58,17.73,21.45,20.25,31.21,50.79,30.67,80.28-.27,14.62-2.88,29.2-7.68,43.01-19.2,55.17-71.97,93.14-127.77,110.42-32.53,10.07-66.86,14.32-100.86,12.48Z"/>
      <g>
        <g>
          <path class="cls-4" d="m232.98,129.63c.24-3.56-9.49,2.84-28,2.34-18.5-.49-31.55-1.69-32.03-.51-.48,1.19,1.41,9.73,1.41,9.73l48.87,4.08,9.74-15.65Z"/>
          <g>
            <path class="cls-5" d="m172.22,82.12s-7.94-9.2-15.05-6.94c-7.11,2.26-8.76,17.84-1.37,21.23,7.39,3.4,16.69-2.27,16.69-2.27l-.27-12.03Z"/>
            <path class="cls-4" d="m161.08,98.35h0c-2.06,0-3.96-.39-5.64-1.16-4.29-1.97-5.53-7.24-5.27-11.51.29-4.65,2.48-9.95,6.74-11.3.83-.26,1.71-.4,2.61-.4,6.71,0,13.07,7.28,13.34,7.59.13.15.2.34.21.54l.27,12.03c0,.3-.15.59-.41.74-.23.14-5.78,3.47-11.85,3.47Zm-1.56-22.68c-.73,0-1.43.11-2.1.32-2.98.95-5.26,4.97-5.56,9.79-.23,3.71.78,8.25,4.29,9.87,1.45.67,3.11,1.01,4.93,1.01h0c4.69,0,9.18-2.24,10.55-2.99l-.26-11.21c-1.1-1.19-6.52-6.78-11.85-6.78Z"/>
          </g>
          <path class="cls-4" d="m162.58,33.34c-4.44,6.56-3.33,21.01-.48,33.81,2.85,12.8,3.96-24.62,3.96-24.62l8.56-10.67-12.05,1.48Z"/>
          <g>
            <path class="cls-5" d="m161.15,71.24c1.9-14.28-.95-24.62,1.43-31.51,0,0,8.32-30.44,48.29-23.06.48.09.96.19,1.43.29,20.39,4.51,33.31,21.26,28.25,42.2l-4.35,18.01c2.94-1.65,6.36-2.71,9.64-1.66,8.25,2.63,10.15,20.68,1.59,24.62-5.84,2.69-12.71.49-16.49-1.18l-.67,2.77-1.08,40.1c-33.94,11.49-52.65.33-52.65.33l1.45-21.25c-24.11-7.05-18.68-35.78-16.83-49.65Z"/>
            <path class="cls-4" d="m200,147.85c-15.37,0-23.56-4.78-23.9-4.98-.27-.16-.43-.47-.41-.79l1.4-20.57c-22.79-7.18-19.1-33.7-17.1-48.01.12-.83.23-1.62.33-2.37.92-6.91.72-12.82.54-18.03-.19-5.57-.34-9.97.93-13.64.05-.2,7.13-24.79,37.2-24.79,3.79,0,7.84.39,12.04,1.17.49.09.98.19,1.46.3,10.99,2.43,19.91,8.36,25.11,16.69,4.81,7.7,6.12,16.88,3.78,26.54l-3.92,16.23c3.13-1.41,6.05-1.71,8.64-.89,4.87,1.55,7.39,7.64,7.72,12.98.3,4.91-1.13,10.96-6.03,13.21-1.93.89-4.11,1.34-6.48,1.34-3.68,0-7.21-1.07-9.77-2.12l-.41,1.71-1.08,40.01c0,.35-.24.67-.58.78-10.27,3.47-20.18,5.24-29.46,5.24Zm-22.58-6.2c1.89.97,9.69,4.5,22.58,4.5,8.93,0,18.46-1.67,28.36-4.96l1.07-39.5c0-.06,0-.12.02-.18l.67-2.77c.06-.24.22-.45.45-.56.23-.11.49-.12.72-.02,2.45,1.08,6.17,2.37,10.02,2.37,2.12,0,4.07-.4,5.77-1.18,4.13-1.9,5.32-7.22,5.05-11.57-.35-5.64-3.03-10.36-6.54-11.47-2.59-.83-5.63-.28-8.97,1.6-.29.16-.66.14-.93-.06-.27-.2-.39-.55-.31-.88l4.35-18.01c2.22-9.21.99-17.94-3.57-25.24-4.96-7.94-13.5-13.6-24.04-15.93-.46-.1-.93-.2-1.4-.28-4.1-.76-8.04-1.14-11.73-1.14-28.75,0-35.32,22.63-35.58,23.59-1.18,3.43-1.03,7.69-.85,13.08.18,5.28.39,11.26-.55,18.31-.1.75-.21,1.55-.33,2.38-2.08,14.92-5.55,39.88,16.55,46.34.38.11.64.48.61.87l-1.41,20.7Z"/>
          </g>
          <path class="cls-4" d="m195.64,55.64c.1.83.93,1.31,1.67,1.64,3.79,1.67,7.89,2.57,12,2.64.73.01,1.48,0,2.15-.31,1.15-.53,1.83-1.95,1.55-3.22-.23-1.04-1.02-1.86-1.93-2.37-.91-.5-1.93-.73-2.93-.94-3.75-.79-7.9-1.41-11.2.59-.7.43-1.41,1.13-1.31,1.97Z"/>
          <path class="cls-4" d="m166.42,59.52c2.38-.14,5.31-1.69,7.04-1.88,1.52-.16,4.7.22,4.64-2.14-.37-1.51-1.79-2.51-3.2-2.83-1.12-.25-2.29-.17-3.43-.08-2.59.21-6.7.43-8.16,3.07-.35.64-.46,1.46-.14,2.13.67,1.41,1.87,1.8,3.25,1.72Z"/>
          <path class="cls-4" d="m246.55,52.39c5.71-5.66,15.46-13.78,4.28-22.4-11.18-8.62-14.04.25-21.17-12.06-7.14-12.31-23.31-23.63-34.97-14.77-11.66,8.86-34.5-3.69-41.16,5.91-6.66,9.6-2.62,21.42,3.57,26.59,6.19,5.17,24.03,7.63,42.58,5.66,18.56-1.97,33.54,16,33.54,16l13.32-4.92Z"/>
          <path class="cls-4" d="m180.66,46.8c5.57,0,11.04-.95,16.38-1.89,6.26-1.09,12.16-2.12,17.58-1.46l.11-.98c-5.55-.68-11.53.37-17.85,1.47-7.63,1.33-15.52,2.71-23.52,1.24-14.51-2.66-22.2-15.22-21.97-22.89l-.95-.03c-.24,8.01,7.72,21.13,22.76,23.89,2.51.46,5,.65,7.46.65Z"/>
          <path class="cls-4" d="m177.98,119.94c6.81,2.48,21.5,1.49,28.11-.66,0,0-19.32,10.24-28.57,9.74l.46-9.08Z"/>
          <path class="cls-4" d="m242.08,74.66l6.61-30.74-33.2-3.44s11.79,8.61,11.79,23.05c0,5.6-.36,9.91-.8,13.1-.39,2.88,2.66,4.97,5.21,3.6l10.38-5.57Z"/>
          <path class="cls-4" d="m232.1,91.64s-.08,0-.11,0c-.46-.06-.79-.49-.73-.95.05-.34,1.2-8.43,7.17-9.13,5.86-.69,9.09,4.62,9.23,4.85.24.4.11.92-.3,1.16-.4.24-.92.11-1.16-.3-.12-.19-2.81-4.58-7.57-4.03-4.66.55-5.68,7.6-5.69,7.67-.06.43-.42.74-.84.74Z"/>
          <path class="cls-4" d="m238.53,89.09c-.26,0-.52-.12-.69-.35l-3.17-4.36c-.28-.38-.19-.91.19-1.19.38-.28.91-.19,1.19.19l3.17,4.36c.28.38.19.91-.19,1.19-.15.11-.33.16-.5.16Z"/>
          <g>
            <path class="cls-5" d="m184.56,73.39s-3.08,7.89-3.21,9.24c-.12,1.35,3.21,4.28,3.21,4.28"/>
            <path class="cls-4" d="m184.56,87.76c-.2,0-.4-.07-.56-.21-1.1-.97-3.64-3.39-3.49-4.99.13-1.4,2.74-8.14,3.26-9.47.17-.44.66-.65,1.1-.48.44.17.65.66.48,1.1-1.18,3.01-3.07,8.11-3.15,9.01-.01.51,1.38,2.21,2.92,3.57.35.31.39.85.08,1.2-.17.19-.4.29-.64.29Z"/>
          </g>
          <path class="cls-4" d="m82.26,177.89l-.05.3c-29.39,38.91-42.12,179.3-38.15,185.71h43.06l43.71,1c3.65-76.07,5.33-159.39,38.28-224.27-47.38,4.16-86.86,37.26-86.86,37.26Z"/>
          <g>
            <path class="cls-2" d="m241.08,140.95c-1.21-.3-2.44-.61-3.61-.88l-33.69,3.6-10.91-4.12-9.02,4.74-9.49-3.09c-1.89.07-3.76.21-5.62.37-32.95,64.87-34.26,147.26-37.91,223.34l79.97-.88c6.87-75.64,4.47-151.14,30.28-223.08Z"/>
            <path class="cls-4" d="m130.84,365.75c-.23,0-.45-.09-.61-.26-.16-.17-.25-.4-.24-.63.27-5.69.53-11.42.79-17.17,3.27-71.94,6.64-146.32,37.21-206.51.13-.26.39-.44.68-.46,2.14-.19,3.94-.31,5.66-.37.1-.01.2,0,.3.04l9.15,2.98,8.7-4.57c.21-.11.47-.13.69-.04l10.72,4.05,33.49-3.58c.09-.01.19,0,.28.02.92.21,1.87.45,2.82.68l.8.2c.23.06.43.21.54.42.11.21.13.46.05.69-19.43,54.15-22.92,111.62-26.29,167.19-1.11,18.23-2.25,37.09-3.94,55.68-.04.43-.4.77-.84.77l-79.97.88h0Zm38.46-223.38c-30.21,59.78-33.56,133.8-36.81,205.4-.25,5.45-.49,10.88-.75,16.28l78.3-.86c1.65-18.32,2.78-36.89,3.87-54.86,3.36-55.39,6.84-112.65,26.07-166.77-.86-.21-1.72-.43-2.54-.62l-33.55,3.59c-.13.01-.27,0-.39-.05l-10.55-3.99-8.68,4.56c-.2.11-.44.13-.66.06l-9.34-3.05c-1.52.06-3.11.16-4.96.32Z"/>
          </g>
          <g>
            <path class="cls-4" d="m173.13,364.95s1.48.26,2.61,0c.19-.04.76-75.64.74-75.84-1.75-16.13,5.98-94.08,9.29-127.37.86-8.67,1.48-14.94,1.61-16.8.01-.2-.13-.37-.33-.38-.2-.02-.37.13-.38.33-.13,1.84-.75,8.11-1.61,16.78-3.58,36.13-11.04,111.32-9.29,127.52.02.18-.55,74.72-2.64,75.76Z"/>
            <path class="cls-4" d="m174.57,365.49c-.64,0-1.21-.07-1.49-.12h-1.8l1.6-.77c1.79-2.99,2.53-71.9,2.46-75.39-1.76-16.21,5.7-91.43,9.29-127.57.83-8.33,1.48-14.91,1.61-16.76.03-.41.37-.73.77-.73.27.02.46.11.6.27.14.16.21.36.19.57-.13,1.88-.79,8.47-1.61,16.81-3.3,33.31-11.03,111.21-9.29,127.28.02.16-.14,21.48-.29,38.03-.08,9.47-.17,18.93-.25,26.02q-.14,12.16-.53,12.25c-.36.08-.79.13-1.26.13Zm-.81-.89c.46.04,1.11.06,1.58,0,.13-3.01.35-27.36.51-47.61-.06,3.22-.12,6.51-.19,9.77-.61,28.78-1.36,35.95-1.91,37.85Z"/>
          </g>
          <g>
            <path class="cls-4" d="m187.44,170.54c0-1.48,1.21-2.69,2.69-2.69,1.48,0,2.69,1.21,2.69,2.69,0,1.49-1.21,2.69-2.69,2.69-1.48,0-2.69-1.21-2.69-2.69Z"/>
            <g>
              <path class="cls-4" d="m191.07,171.88c.06,0,.12-.02.17-.07.09-.09.09-.24,0-.34l-1.96-1.96c-.09-.09-.24-.09-.34,0s-.09.24,0,.34l1.96,1.96s.11.07.17.07Z"/>
              <path class="cls-4" d="m189.12,171.88c-.06,0-.12-.02-.17-.07-.09-.09-.09-.24,0-.34l1.96-1.96c.09-.09.24-.09.34,0,.09.09.09.24,0,.34l-1.96,1.96s-.11.07-.17.07Z"/>
            </g>
          </g>
          <g>
            <path class="cls-4" d="m189.98,153.56c0-1.48,1.21-2.69,2.69-2.69,1.48,0,2.69,1.21,2.69,2.69,0,1.48-1.21,2.69-2.69,2.69-1.48,0-2.69-1.21-2.69-2.69Z"/>
            <g>
              <path class="cls-4" d="m193.62,154.91c.06,0,.12-.02.17-.07.09-.09.09-.24,0-.34l-1.96-1.96c-.09-.09-.24-.09-.34,0-.09.09-.09.24,0,.34l1.96,1.96s.11.07.17.07Z"/>
              <path class="cls-4" d="m191.66,154.91c-.06,0-.12-.02-.17-.07-.09-.09-.09-.24,0-.34l1.96-1.96c.09-.09.24-.09.34,0s.09.24,0,.34l-1.96,1.96s-.11.07-.17.07Z"/>
            </g>
          </g>
          <g>
            <path class="cls-4" d="m185.83,196.16c0-1.48,1.21-2.69,2.69-2.69,1.48,0,2.69,1.21,2.69,2.69,0,1.48-1.21,2.69-2.69,2.69-1.48,0-2.69-1.21-2.69-2.69Z"/>
            <g>
              <path class="cls-4" d="m189.47,197.5c.06,0,.12-.02.17-.07.09-.09.09-.24,0-.34l-1.96-1.96c-.09-.09-.24-.09-.34,0-.09.09-.09.24,0,.34l1.96,1.96s.11.07.17.07Z"/>
              <path class="cls-4" d="m187.51,197.5c-.06,0-.12-.02-.17-.07-.09-.09-.09-.24,0-.34l1.96-1.96c.09-.09.24-.09.34,0,.09.09.09.24,0,.34l-1.96,1.96s-.11.07-.17.07Z"/>
            </g>
          </g>
          <g>
            <path class="cls-4" d="m182.64,225.89c0-1.49,1.21-2.69,2.69-2.69,1.48,0,2.69,1.21,2.69,2.69,0,1.49-1.21,2.69-2.69,2.69-1.48,0-2.69-1.21-2.69-2.69Z"/>
            <g>
              <path class="cls-4" d="m186.27,227.24c.06,0,.12-.02.17-.07.09-.09.09-.24,0-.34l-1.96-1.96c-.09-.09-.24-.09-.34,0-.09.09-.09.24,0,.34l1.96,1.96s.11.07.17.07Z"/>
              <path class="cls-4" d="m184.32,227.23c-.06,0-.12-.02-.17-.07-.09-.09-.09-.24,0-.34l1.96-1.96c.09-.09.24-.09.34,0,.09.09.09.24,0,.34l-1.96,1.96s-.11.07-.17.07Z"/>
            </g>
          </g>
          <g>
            <path class="cls-4" d="m181.28,251.2c0-1.48,1.21-2.69,2.69-2.69,1.48,0,2.69,1.21,2.69,2.69,0,1.48-1.21,2.69-2.69,2.69-1.48,0-2.69-1.21-2.69-2.69Z"/>
            <g>
              <path class="cls-4" d="m184.92,252.55c.06,0,.12-.02.17-.07.09-.09.09-.24,0-.34l-1.96-1.96c-.09-.09-.24-.09-.34,0s-.09.24,0,.34l1.96,1.96s.11.07.17.07Z"/>
              <path class="cls-4" d="m182.96,252.54c-.06,0-.12-.02-.17-.07-.09-.09-.09-.24,0-.34l1.96-1.96c.09-.09.24-.09.34,0,.09.09.09.24,0,.34l-1.96,1.96s-.11.07-.17.07Z"/>
            </g>
          </g>
          <g>
            <path class="cls-4" d="m179.86,273.55c0-1.48,1.21-2.69,2.69-2.69,1.48,0,2.69,1.21,2.69,2.69,0,1.48-1.21,2.69-2.69,2.69-1.48,0-2.69-1.21-2.69-2.69Z"/>
            <g>
              <path class="cls-4" d="m183.5,274.9c.06,0,.12-.02.17-.07.09-.09.09-.24,0-.34l-1.96-1.96c-.09-.09-.24-.09-.34,0-.09.09-.09.24,0,.34l1.96,1.96s.11.07.17.07Z"/>
              <path class="cls-4" d="m181.54,274.9c-.06,0-.12-.02-.17-.07-.09-.09-.09-.24,0-.34l1.96-1.96c.09-.09.24-.09.34,0s.09.24,0,.34l-1.96,1.96s-.11.07-.17.07Z"/>
            </g>
          </g>
          <g>
            <path class="cls-4" d="m180.15,299.01c0-1.49,1.21-2.69,2.69-2.69,1.48,0,2.69,1.21,2.69,2.69,0,1.49-1.21,2.69-2.69,2.69-1.48,0-2.69-1.21-2.69-2.69Z"/>
            <g>
              <path class="cls-4" d="m183.78,300.36c.06,0,.12-.02.17-.07.09-.09.09-.24,0-.34l-1.96-1.96c-.09-.09-.24-.09-.34,0-.09.09-.09.24,0,.34l1.96,1.96s.11.07.17.07Z"/>
              <path class="cls-4" d="m181.83,300.36c-.06,0-.12-.02-.17-.07-.09-.09-.09-.24,0-.34l1.96-1.96c.09-.09.24-.09.34,0,.09.09.09.24,0,.34l-1.96,1.96s-.11.07-.17.07Z"/>
            </g>
          </g>
          <g>
            <path class="cls-4" d="m180.84,325.92c0-1.48,1.21-2.69,2.69-2.69s2.69,1.21,2.69,2.69c0,1.48-1.21,2.69-2.69,2.69-1.48,0-2.69-1.21-2.69-2.69Z"/>
            <g>
              <path class="cls-4" d="m184.48,327.27c.06,0,.12-.02.17-.07.09-.09.09-.24,0-.34l-1.96-1.96c-.09-.09-.24-.09-.34,0-.09.09-.09.24,0,.34l1.96,1.96s.11.07.17.07Z"/>
              <path class="cls-4" d="m182.52,327.27c-.06,0-.12-.02-.17-.07-.09-.09-.09-.24,0-.34l1.96-1.96c.09-.09.24-.09.34,0,.09.09.09.24,0,.34l-1.96,1.96s-.11.07-.17.07Z"/>
            </g>
          </g>
          <path class="cls-4" d="m329.64,178.28h0c-16.4-13.09-59.14-30.81-88.95-38.17-25.81,71.93-23.03,148.28-29.89,223.92l87.14-.96,33.22.28c16.51.14,30.11-13.06,30.32-29.56.73-57.18-14.16-144.02-31.85-155.5Z"/>
          <g>
            <path class="cls-4" d="m179.78,346.1c0-1.48,1.21-2.69,2.69-2.69,1.48,0,2.69,1.21,2.69,2.69,0,1.48-1.21,2.69-2.69,2.69-1.48,0-2.69-1.21-2.69-2.69Z"/>
            <g>
              <path class="cls-4" d="m183.41,347.45c.06,0,.12-.02.17-.07.09-.09.09-.24,0-.34l-1.96-1.96c-.09-.09-.24-.09-.34,0-.09.09-.09.24,0,.34l1.96,1.96s.11.07.17.07Z"/>
              <path class="cls-4" d="m181.46,347.45c-.06,0-.12-.02-.17-.07-.09-.09-.09-.24,0-.34l1.96-1.96c.09-.09.24-.09.34,0,.09.09.09.24,0,.34l-1.96,1.96s-.11.07-.17.07Z"/>
            </g>
          </g>
          <g>
            <path class="cls-2" d="m192.87,139.55c13.91,1.54,35.59-4.95,40.1-9.92l4.5,10.44s-17.35,32.25-20.91,31.77-17.05-29.43-23.46-30.86c-6.4-1.43-20.9,22.99-22.56,23.46-1.66.47.98-32.26,2.4-32.97,1.42-.71-1.67,5.69,19.92,8.09Z"/>
            <path class="cls-4" d="m216.65,172.69s-.16,0-.19-.01c-1.77-.24-4.13-3.82-9.48-12.56-4.55-7.42-10.78-17.59-14.05-18.32-.12-.03-.25-.04-.38-.04-4.19,0-12.52,11.54-16.99,17.74-3.29,4.56-4.06,5.56-4.77,5.76-.44.13-1.11.03-1.37-1.09-.54-2.3-.07-11.01.49-17.77,1.26-14.98,2.21-15.46,2.67-15.69.19-.1.38-.14.57-.14.73,0,1.01.62,1.19,1.03.59,1.31,2.4,5.31,18.63,7.11,1.35.15,2.83.23,4.39.23,13.41,0,31.08-5.56,34.99-9.88.19-.21.48-.31.77-.27.28.05.53.24.64.5l4.5,10.44c.1.24.09.51-.03.74-.04.08-4.34,8.05-9.03,15.92-9.73,16.3-11.63,16.3-12.54,16.3h0Zm-22.32-32.16c3.56,1.84,8.16,9.01,14.1,18.7,3.11,5.08,6.98,11.39,8.24,11.76,2.24-.46,11.81-16,19.88-30.96l-3.86-8.96c-5.45,4.43-22.02,9.56-35.32,9.56-1.05,0-2.06-.03-3.03-.1Zm-21.11-7.4c-1.15,5.11-2.66,24.78-2.28,29.75.79-.98,2.04-2.7,3.25-4.38,6.2-8.59,12.6-17,17.22-18.27-13.68-1.71-17.04-5.13-18.19-7.1Z"/>
          </g>
          <path class="cls-4" d="m171.05,156.15c.24-1.47,1.27-2.52,2.3-2.35,1.03.17,1.68,1.49,1.45,2.96-.24,1.47-1.27,2.52-2.3,2.35s-1.68-1.49-1.45-2.96Z"/>
          <g>
            <path class="cls-4" d="m214.36,162.66c0-1.48,1.21-2.69,2.69-2.69,1.48,0,2.69,1.21,2.69,2.69,0,1.48-1.21,2.69-2.69,2.69-1.48,0-2.69-1.21-2.69-2.69Z"/>
            <g>
              <path class="cls-4" d="m218,164.01c.06,0,.12-.02.17-.07.09-.09.09-.24,0-.34l-1.96-1.96c-.09-.09-.24-.09-.34,0-.09.09-.09.24,0,.34l1.96,1.96s.11.07.17.07Z"/>
              <path class="cls-4" d="m216.04,164.01c-.06,0-.12-.02-.17-.07-.09-.09-.09-.24,0-.34l1.96-1.96c.09-.09.24-.09.34,0,.09.09.09.24,0,.34l-1.96,1.96s-.11.07-.17.07Z"/>
            </g>
          </g>
          <g>
            <path class="cls-5" d="m176.73,98.15s11.27,7.37,20.95-.58"/>
            <path class="cls-4" d="m187.52,102.08c-6.22,0-11.18-3.17-11.26-3.22-.39-.26-.5-.78-.25-1.17.26-.39.78-.5,1.17-.25.44.29,10.88,6.93,19.95-.52.36-.3.9-.24,1.19.12.3.36.24.9-.12,1.19-3.55,2.91-7.31,3.86-10.7,3.86Z"/>
          </g>
          <g>
            <line class="cls-5" x1="196.56" y1="95.47" x2="199.09" y2="99.23"/>
            <path class="cls-4" d="m199.09,100.08c-.27,0-.54-.13-.7-.37l-2.54-3.76c-.26-.39-.16-.92.23-1.18.39-.26.92-.16,1.18.23l2.54,3.76c.26.39.16.92-.23,1.18-.15.1-.31.15-.47.15Z"/>
          </g>
          <g>
            <path class="cls-5" d="m181.78,106.82s-2.02,4.91,2.02,7.8"/>
            <path class="cls-4" d="m183.81,115.47c-.17,0-.34-.05-.49-.16-3.63-2.6-3.1-6.9-2.31-8.82.18-.43.67-.64,1.11-.46.43.18.64.67.46,1.11-.07.18-1.7,4.34,1.73,6.79.38.27.47.8.2,1.18-.17.23-.43.36-.69.36Z"/>
          </g>
          <path class="cls-4" d="m202.3,86.42c-6.6,0-11.98-5.83-11.98-12.99s5.37-12.99,11.98-12.99,11.98,5.83,11.98,12.99-5.37,12.99-11.98,12.99Zm0-24.28c-5.67,0-10.28,5.06-10.28,11.29s4.61,11.29,10.28,11.29,10.28-5.06,10.28-11.29-4.61-11.29-10.28-11.29Z"/>
          <path class="cls-4" d="m169.36,86.42c-6.6,0-11.98-5.83-11.98-12.99s5.37-12.99,11.98-12.99,11.98,5.83,11.98,12.99-5.37,12.99-11.98,12.99Zm0-24.28c-5.67,0-10.28,5.06-10.28,11.29s4.61,11.29,10.28,11.29,10.28-5.06,10.28-11.29-4.61-11.29-10.28-11.29Z"/>
          <path class="cls-4" d="m191.18,75.01c-.24,0-.49-.1-.65-.31-.02-.03-2.3-2.73-5.13-2.77-1.54-.04-2.99.75-4.34,2.28-.31.35-.85.39-1.2.08-.35-.31-.39-.57-.08-.92,1.67-1.9,3.54-2.58,5.55-2.58h.1c3.62,0,6.29,2.97,6.4,3.11.3.36.25.76-.11,1.05-.16.13-.35.06-.54.06Z"/>
          <path class="cls-4" d="m229.44,77.79h-16.13c-.47,0-.85-.53-.85-1s.38-1,.85-1h16.13c.47,0,.85.53.85,1s-.38,1-.85,1Z"/>
          <g>
            <path class="cls-5" d="m219.12,20.92c-6.86,1.05-13.38-2.71-18.32,3.96-2.31,3.12-4.09,6.56-8.25,7.37-2.06.4-4.21.08-6.19-.6-3.84-1.31-11.37-5.17-8.34-10.47.97-1.69,2.98-2.49,4.89-2.89,4.13-.86,8.36-.44,12.54-.4,3.29.03,7.54.57,10.25-1.76,2.93-2.52,2.97-8.88,7.94-8.6,3.53.2,7.01,3.75,8.44,6.77.95,2.01.82,4.83-1.07,5.99-.56.34-1.22.51-1.87.61Z"/>
            <path class="cls-4" d="m190.67,32.86c-1.41,0-2.91-.27-4.46-.8-1.24-.42-7.5-2.74-9.01-6.73-.54-1.43-.39-2.9.44-4.36.87-1.52,2.61-2.56,5.17-3.09,1.81-.38,3.74-.54,6.25-.54,1.16,0,2.33.03,3.49.07.96.03,1.93.06,2.88.07.49,0,.99.02,1.51.04.64.02,1.31.04,1.97.04,2.21,0,4.72-.21,6.48-1.73,1.01-.87,1.69-2.3,2.34-3.68,1.21-2.56,2.46-5.22,5.9-5.02,3.66.21,7.27,3.77,8.8,7.01,1.04,2.2.87,5.25-1.24,6.54-.68.42-1.44.57-2.03.66-.9.14-1.86.2-2.93.2-1.22,0-2.42-.09-3.59-.17-1.13-.08-2.2-.16-3.26-.16-2.79,0-5.73.47-8.28,3.92-.35.47-.69.95-1.02,1.42-1.86,2.65-3.79,5.39-7.49,6.11-.62.12-1.28.18-1.95.18Zm-1.61-14.67c-2.46,0-4.33.16-6.08.53-2.31.48-3.86,1.38-4.6,2.68-.7,1.23-.83,2.45-.38,3.63,1.06,2.82,5.24,5.11,8.49,6.22,2.15.74,4.19.94,5.97.59,3.36-.66,5.11-3.14,6.96-5.77.34-.48.68-.96,1.03-1.44,2.78-3.75,6.09-4.26,8.96-4.26,1.09,0,2.17.08,3.32.16,1.15.08,2.34.17,3.52.17,1.03,0,1.94-.06,2.8-.19.76-.12,1.28-.28,1.71-.55,1.67-1.03,1.78-3.63.91-5.45-1.45-3.06-4.88-6.34-8.09-6.53-2.85-.17-3.93,2.11-5.08,4.53-.69,1.46-1.41,2.97-2.56,3.96-1.98,1.7-4.67,1.93-7.04,1.93-.68,0-1.35-.02-2-.04-.51-.02-1.01-.03-1.49-.04-.97,0-1.93-.04-2.9-.07-1.15-.03-2.31-.07-3.47-.07Z"/>
          </g>
          <path class="cls-5" d="m216.86,275.27c-.12,0-.25-.03-.37-.08-.42-.2-.6-.71-.4-1.13l27.24-56.8-5.23-20.07c-.05-.2-.03-.4.06-.58l24.19-49.86c.2-.42.71-.6,1.13-.39.42.2.6.71.39,1.13l-24.05,49.58,5.23,20.07c.05.19.03.4-.06.58l-27.37,57.08c-.15.3-.45.48-.77.48Z"/>
          <path class="cls-5" d="m136.44,265.3c-.41,0-.77-.3-.84-.72l-8.06-53.47c-.03-.22.02-.44.15-.62l12.62-17.66,8.03-48.61c.08-.46.52-.78.98-.7.46.08.78.51.7.98l-8.06,48.8c-.02.13-.07.25-.15.35l-12.53,17.54,8.01,53.13c.07.46-.25.9-.71.97-.04,0-.09,0-.13,0Z"/>
        </g>
        <g>
          <path class="cls-5" d="m233.03,309.79s6.59,4.94,8.79,11.81l-1.1,40.91-64.25-1.37-24.16-11.53,15.38-34.6,65.35-5.22Z"/>
          <path class="cls-4" d="m240.72,363.36h-.02l-64.25-1.37c-.12,0-.24-.03-.35-.08l-24.16-11.53c-.41-.2-.6-.69-.41-1.11l15.38-34.6c.13-.28.4-.48.71-.5l65.35-5.22c.21-.02.41.04.58.17.28.21,6.83,5.19,9.09,12.23.03.09.04.19.04.28l-1.1,40.91c-.01.46-.39.83-.85.83Zm-64.05-3.07l63.23,1.35,1.07-39.92c-1.89-5.72-7.01-10.1-8.2-11.06l-64.52,5.15-14.84,33.38,23.25,11.1Z"/>
        </g>
        <g>
          <g>
            <path class="cls-5" d="m164.5,302.96l-11.02,25.4c-1.97,4.54.83,8.94,6.24,9.86,4.49.76,9.34-1.15,11.99-4.41-.54,3.79,2.15,7.13,6.77,7.91,3.54.6,7.3-.47,10.05-2.54.51,2.88,2.96,5.23,6.72,5.86,4.55.77,9.48-1.2,12.11-4.54.43,2.62,2.63,4.76,6.04,5.33,4.85.82,10.21-1.81,11.97-5.87l9.88-22.77c.46-1.06.63-2.1.54-3.09-.24-2.81-2.55-5.14-6.14-5.75-3.39-.57-7,.56-9.49,2.67.06-.47.1-.93.06-1.38-.27-3.14-2.84-5.73-6.84-6.41-3.55-.6-7.33.48-10.08,2.56-.51-2.89-2.93-5.25-6.7-5.88-4.49-.76-9.33,1.15-11.99,4.4.07-.51.11-1.01.07-1.49-.27-3.14-2.84-5.73-6.84-6.41-5.41-.91-11.39,2.02-13.36,6.55Z"/>
            <path class="cls-4" d="m215.22,346.83c-.66,0-1.32-.05-1.95-.16-3.02-.51-5.3-2.17-6.29-4.48-2.48,2.39-6.13,3.87-9.72,3.87-.73,0-1.45-.06-2.14-.18-3.48-.59-6.09-2.58-7.09-5.32-2.87,1.78-6.48,2.54-9.68,2-4.08-.69-6.94-3.35-7.46-6.68-2.45,2.11-5.8,3.37-9.16,3.37-.72,0-1.45-.06-2.14-.18-3.03-.51-5.48-2.11-6.71-4.38-1.09-2.02-1.15-4.38-.17-6.66l11.02-25.4c1.82-4.19,6.91-7.23,12.12-7.23.73,0,1.46.06,2.16.18,4.07.69,6.95,3.28,7.49,6.66,2.45-2.1,5.78-3.34,9.14-3.34.73,0,1.45.06,2.14.18,3.47.59,6.07,2.59,7.07,5.34,2.87-1.79,6.49-2.56,9.71-2.02,4.18.71,7.11,3.42,7.52,6.93,2.58-1.61,5.82-2.31,8.75-1.82,3.87.65,6.56,3.21,6.84,6.51.1,1.16-.11,2.34-.61,3.5l-9.88,22.77c-1.64,3.78-6.25,6.53-10.94,6.53Zm-7.85-7.18c.07,0,.14,0,.21.03.33.08.57.35.63.69.38,2.36,2.43,4.14,5.35,4.63.54.09,1.1.14,1.67.14,4.05,0,8-2.32,9.39-5.51l9.88-22.77c.39-.9.55-1.8.48-2.68-.21-2.5-2.35-4.46-5.43-4.98-.53-.09-1.09-.14-1.64-.14-2.59,0-5.2.95-7.16,2.62-.27.23-.65.26-.95.1-.31-.17-.48-.5-.44-.85.05-.4.09-.82.06-1.2-.24-2.84-2.65-5.06-6.14-5.65-3.16-.54-6.78.39-9.42,2.4-.24.18-.55.22-.82.11-.28-.11-.47-.35-.53-.64-.46-2.66-2.77-4.64-6-5.19-.6-.1-1.23-.15-1.86-.15-3.56,0-7.22,1.67-9.33,4.26-.24.3-.65.39-1,.24-.35-.15-.55-.52-.5-.9.07-.52.09-.93.06-1.3-.24-2.84-2.65-5.06-6.14-5.64-.61-.1-1.24-.16-1.88-.16-4.56,0-9,2.61-10.56,6.2l-11.02,25.4c-.77,1.79-.74,3.62.1,5.17.98,1.81,2.99,3.09,5.5,3.51.6.1,1.23.15,1.86.15,3.56,0,7.22-1.67,9.34-4.26.24-.3.65-.4,1-.24.35.15.55.52.5.9-.49,3.41,2.01,6.26,6.07,6.95,3.15.53,6.76-.39,9.4-2.38.23-.18.55-.22.82-.11.27.11.47.35.53.64.47,2.64,2.78,4.62,6.03,5.17.6.1,1.23.15,1.86.15,3.64,0,7.34-1.72,9.44-4.38.16-.21.41-.32.67-.32Z"/>
          </g>
          <path class="cls-4" d="m172.03,333.96c-.1.12-.29.19-.46.16-.21-.04-.31-.21-.24-.38l12.92-29.5c.08-.17.31-.29.52-.25.21.04.31.21.24.38l-12.92,29.5s-.03.06-.06.09Z"/>
          <path class="cls-4" d="m188.85,339.33c-.1.12-.28.19-.44.16-.21-.03-.33-.19-.26-.37l7.07-18.23c.06-.18.3-.29.51-.27.21.03.33.19.26.37l-7.07,18.23s-.04.07-.06.1Z"/>
          <path class="cls-4" d="m211.05,333.43c-.1.11-.27.18-.44.16-.21-.03-.33-.19-.26-.37l7.74-20.7c.06-.18.29-.3.5-.27.21.03.33.19.26.37l-7.74,20.7s-.04.07-.06.11Z"/>
          <path class="cls-4" d="m207.68,340.65c-.1.11-.26.18-.42.17-.21-.02-.34-.18-.29-.35l.92-2.93c.06-.18.28-.31.49-.29.21.02.34.18.29.35l-.92,2.93s-.04.09-.07.12Z"/>
          <path class="cls-4" d="m170.63,325.91s0,.07-.01.1l-1.89,6.78c-.03.1-.11.19-.22.25-.18.09-4.39,2.18-9.07,1.09-.21-.05-.3-.24-.21-.41.09-.18.34-.28.55-.24,3.8.88,7.36-.55,8.18-.91l1.8-6.46c-3.52-3.42-9.68-2.13-10.99-1.81l-1.67,5.61c-.05.18-.28.32-.5.3-.22-.02-.36-.18-.31-.36l1.73-5.83c.04-.13.16-.24.31-.28.08-.02,7.99-2.28,12.22,2.01.04.04.07.1.07.16Z"/>
          <path class="cls-4" d="m188.45,331.2s0,.07-.02.1l-2.51,6.72c-.04.1-.13.19-.24.24-.18.08-4.54,1.93-9.04.54-.2-.07-.27-.26-.17-.43.11-.18.36-.26.56-.2,3.66,1.12,7.31-.1,8.15-.42l2.39-6.4c-3.14-3.67-9.33-2.75-10.66-2.51l-2.18,5.56c-.07.18-.3.31-.52.27-.22-.03-.34-.21-.27-.38l2.27-5.77c.05-.13.18-.23.34-.27.08-.02,8.1-1.8,11.85,2.79.04.05.06.1.06.16Z"/>
          <path class="cls-4" d="m206.73,333.67s0,.07-.02.1l-2.51,6.72c-.04.1-.13.19-.24.24-.18.08-4.54,1.93-9.04.54-.2-.07-.27-.26-.17-.43.11-.18.36-.26.56-.2,3.66,1.12,7.31-.1,8.15-.42l2.39-6.4c-3.14-3.67-9.33-2.75-10.66-2.51l-2.18,5.56c-.07.18-.3.31-.52.27-.22-.03-.34-.21-.27-.38l2.27-5.77c.05-.13.18-.23.34-.27.08-.02,8.1-1.8,11.85,2.79.04.05.06.1.06.16Z"/>
          <path class="cls-4" d="m225.21,334.74s0,.06-.02.09l-2.38,6.36c-.03.1-.12.18-.23.23-.17.08-4.3,1.82-8.56.51-.19-.06-.26-.25-.16-.4.1-.17.34-.25.53-.19,3.46,1.06,6.92-.09,7.72-.39l2.27-6.07c-2.97-3.47-8.84-2.61-10.1-2.37l-2.07,5.27c-.07.17-.29.29-.5.26-.21-.03-.32-.2-.25-.36l2.15-5.47c.05-.12.17-.22.32-.25.08-.02,7.67-1.71,11.22,2.64.04.05.06.1.05.16Z"/>
        </g>
        <g>
          <path class="cls-5" d="m99.66,187.78c.98-6.47,3.65-26.44.24-34.4.4-15.11,1.33-29.55,2.73-32.9,1.58-4.01-.25-8.56-4.26-10.13-4.01-1.58-8.56.25-10.13,4.26-1.58,4.01-2.61,12.06-3.15,20.94-6.38-5.38-12.49-9.09-12.49-9.09,0,0-43.83,23.61-42.03,35.05.46,3.66,1.33,7.95,5.16,14.96,2.83,9.62,1.7,28.29,2.26,39.61,20.65,1.11,40.22-1.57,60.55,2.83,1.13-15.56,1.13-31.12,1.13-31.12Z"/>
          <path class="cls-4" d="m98.53,219.75c-.06,0-.12,0-.18-.02-10.67-2.31-21.04-2.63-30.66-2.63-2.79,0-5.58.03-8.38.06-2.82.03-5.65.06-8.5.06-4.98,0-9.07-.1-12.88-.3-.43-.02-.78-.37-.8-.81-.17-3.43-.19-7.52-.21-11.84-.04-9.79-.08-20.87-2-27.49-3.96-7.26-4.77-11.64-5.21-15.18-1.84-11.67,37.93-33.46,42.47-35.9.26-.14.59-.13.84.02.06.03,5.43,3.32,11.31,8.1.63-9.12,1.72-16.02,3.1-19.53,1.28-3.26,4.4-5.36,7.96-5.36,1.12,0,2.22.21,3.27.62,4.37,1.72,6.5,6.76,4.74,11.23-1.19,2.85-2.21,15.26-2.67,32.43,3.28,8.01.94,26.81-.24,34.63,0,1.11-.05,16.21-1.13,31.12-.02.25-.14.47-.34.62-.15.11-.33.17-.51.17Zm-30.84-4.35c9.42,0,19.57.31,30.06,2.47,1.05-15.03,1.06-29.94,1.06-30.09,0-.04,0-.08,0-.13.91-6.01,3.61-26.2.29-33.94-.05-.11-.07-.23-.07-.36.17-6.64.89-28.66,2.79-33.21,1.41-3.59-.29-7.64-3.79-9.01-.85-.33-1.74-.5-2.65-.5-2.86,0-5.36,1.68-6.38,4.29-1.4,3.56-2.5,10.9-3.1,20.68-.02.32-.22.6-.51.73-.3.13-.64.08-.88-.13-5.32-4.48-10.51-7.83-11.98-8.76-12.33,6.7-42.54,25.15-41.16,33.94.43,3.42,1.21,7.64,5.07,14.69.03.05.05.11.07.17,2.01,6.83,2.05,18.1,2.09,28.04.02,3.98.03,7.76.17,11,3.56.18,7.4.26,12.02.26,2.84,0,5.66-.03,8.48-.06,2.81-.03,5.6-.06,8.4-.06Z"/>
        </g>
        <path class="cls-4" d="m73.86,188.16s.17.04,0,0c.42-.25.5-.58.26-.99-13.7-21.43,4.33-35.67,5-36.2.25-.29.34-.62.05-.87-.29-.25-.62-.34-.87-.05-.21.12-19.63,15.59-5.31,38.06.29.25.62.34.87.05Z"/>
        <g>
          <path class="cls-4" d="m65.14,45.9c8.47-19.84,31.5-29.08,51.35-20.61,19.84,8.47,29.08,31.5,20.61,51.35-8.47,19.84-31.5,29.08-51.35,20.61-19.84-8.47-29.08-31.5-20.61-51.35Zm3.41,1.5c-7.65,17.94.71,38.81,18.66,46.45,17.94,7.65,38.81-.71,46.45-18.66,7.65-17.94-.71-38.81-18.66-46.45-17.93-7.68-38.81.71-46.45,18.66Z"/>
          <path class="cls-4" d="m91.13,98.31l-6.56-2.43h0l-4.43,11.96h0l6.56,2.43h0l4.43-11.96h0Z"/>
          <path class="cls-4" d="m89.64,110.03l-11.57-4.28h0l-11.47,30.97h0l11.57,4.28h0l11.47-30.97h0Z"/>
          <path class="cls-4" d="m77.86,104.27l12.91,4.78c.14.05.21.2.16.34l-.65,1.76c-.05.14-.2.21-.34.16l-12.91-4.78c-.14-.05-.21-.2-.16-.34l.65-1.76c.05-.14.2-.21.34-.16Z"/>
        </g>
        <g>
          <g>
            <path class="cls-5" d="m50.5,118.22l26.27,9.85c4.67,1.75,7.03,6.96,5.28,11.64-1.37,3.89-5.33,6.22-9.32,5.89,3.47,2.32,5,6.61,3.43,10.62-1.15,3.06-3.83,5.19-6.78,5.66,2.18,2.51,3.06,5.93,1.7,9.11-1.53,3.85-5.33,6.22-9.48,5.85,1.93,2.09,2.69,5.3,1.54,8.36-1.62,4.18-6.25,6.33-10.43,4.71l-23.54-8.78c-1.12-.47-2.02-1.06-2.89-1.81-2.26-2.18-3.14-5.59-1.99-8.66,1.11-2.9,3.74-4.86,6.65-5.17-.45-.3-.91-.59-1.15-1.01-2.55-2.43-3.51-6.22-2.11-9.57,1.15-3.06,3.83-5.19,6.78-5.66-2.18-2.51-3.06-5.93-1.86-9.15,1.37-3.89,5.33-6.22,9.32-5.89-.45-.3-.91-.59-1.32-1.05-2.55-2.43-3.51-6.22-2.11-9.57,2.08-4.59,7.34-7.11,12.01-5.36Z"/>
            <path class="cls-4" d="m55.57,191.3c-1.08,0-2.15-.2-3.17-.6l-23.53-8.78c-1.18-.49-2.18-1.12-3.15-1.97-2.61-2.52-3.48-6.27-2.23-9.59.98-2.56,3.09-4.53,5.62-5.34-2.8-2.74-3.69-6.91-2.22-10.43,1.06-2.82,3.33-4.98,6.1-5.86-1.83-2.71-2.29-5.96-1.19-8.93,1.2-3.41,4.26-5.84,7.87-6.37-2.59-2.69-3.41-6.75-1.97-10.18,1.75-3.86,5.65-6.44,9.71-6.44,1.16,0,2.3.21,3.38.61l26.27,9.85c2.47.92,4.43,2.76,5.53,5.16,1.09,2.4,1.18,5.09.26,7.56-1.2,3.41-4.27,5.84-7.89,6.36,2.55,2.71,3.38,6.61,1.99,10.16-1.07,2.84-3.34,5-6.1,5.88,1.87,2.76,2.25,6.01,1.01,8.92-1.44,3.62-4.75,6.05-8.57,6.36,1.38,2.3,1.64,5.16.64,7.81-1.35,3.47-4.7,5.8-8.35,5.8Zm-14.41-56.27c-3.52,0-6.64,2.15-7.77,5.35-1.03,2.79-.39,5.89,1.7,8.32.2.23.26.56.16.85-.11.29-.36.5-.66.55-2.71.43-5.11,2.44-6.12,5.12-1.23,2.94-.46,6.41,1.9,8.66.06.05.11.12.15.18.14.24.52.49.88.73.3.2.45.56.36.91-.08.35-.38.61-.74.64-2.64.28-4.98,2.09-5.95,4.63-1.01,2.68-.31,5.72,1.79,7.74.8.7,1.65,1.23,2.63,1.64l23.51,8.77c.84.32,1.7.49,2.57.49,2.96,0,5.68-1.89,6.77-4.71.99-2.62.46-5.49-1.37-7.48-.24-.26-.29-.64-.14-.95s.49-.5.84-.47c3.78.34,7.23-1.82,8.62-5.31,1.16-2.71.58-5.79-1.55-8.24-.2-.23-.26-.56-.16-.85.11-.29.36-.5.66-.55,2.71-.43,5.11-2.44,6.12-5.12,1.38-3.52.11-7.47-3.1-9.62-.32-.21-.46-.62-.33-.99.13-.36.49-.59.87-.57,3.75.32,7.25-1.92,8.45-5.32.77-2.07.7-4.29-.21-6.28-.9-1.99-2.53-3.51-4.57-4.28l-26.27-9.85c-.89-.33-1.83-.5-2.79-.5-3.41,0-6.68,2.18-8.15,5.42-1.21,2.89-.44,6.35,1.92,8.61.38.43.76.67,1.2.95.33.21.47.62.34.99-.13.37-.48.6-.87.57-.23-.02-.45-.03-.68-.03Z"/>
          </g>
          <g>
            <path class="cls-4" d="m72.81,145.97c.17.04.37-.08.42-.24.04-.17-.08-.37-.24-.42l-30.66-11.34c-.17-.04-.37.08-.42.24-.04.17.08.37.24.42l30.66,11.34h0Z"/>
            <path class="cls-4" d="m72.88,146.4h0s-.14-.01-.18-.02l-30.7-11.36c-.15-.04-.31-.17-.42-.35-.1-.18-.14-.39-.09-.58.08-.33.41-.57.76-.57.04,0,.14.01.18.02l30.7,11.36c.36.09.61.53.51.92-.09.33-.41.57-.76.57Z"/>
          </g>
          <g>
            <path class="cls-4" d="m69.46,162.25c.17.04.21-.12.42-.25.04-.17-.08-.37-.24-.42l-18.53-7.65c-.17-.04-.37.08-.42.25-.04.17.08.37.24.42l18.53,7.65q-.04.17,0,0Z"/>
            <path class="cls-4" d="m69.43,162.8s-.07,0-.11-.01c-.14-.04-.24-.13-.29-.26l-18.26-7.54c-.13-.03-.3-.16-.4-.34-.1-.18-.14-.39-.09-.58.08-.33.41-.57.76-.57.04,0,.14.01.18.02l18.58,7.67c.34.08.6.52.49.92-.03.11-.1.2-.2.26-.04.02-.07.05-.1.09-.05.05-.12.11-.21.16-.08.11-.21.18-.35.18Z"/>
          </g>
          <g>
            <path class="cls-4" d="m54.35,174.77c.17.04.21-.12.42-.25.04-.17-.08-.37-.24-.42l-20.84-8.96c-.17-.04-.37.08-.42.25-.04.17.08.37.24.42l20.84,8.96q-.17-.04,0,0Z"/>
            <path class="cls-4" d="m54.4,175.2s-.06,0-.1,0c-.02,0-.04,0-.06-.01h0l-.12-.03c-.07-.02-.13-.05-.18-.1l-20.59-8.85c-.13-.03-.29-.16-.4-.34-.1-.18-.14-.39-.09-.58.09-.33.41-.57.76-.57.04,0,.14.01.18.02l20.9,8.98c.13.03.29.16.4.34.1.18.14.39.09.58-.03.11-.1.2-.2.26-.04.02-.07.05-.1.09-.09.08-.24.22-.48.22Z"/>
          </g>
          <g>
            <path class="cls-4" d="m61.8,177.42c.17.04.21-.12.42-.25.04-.17.09-.33-.24-.42l-2.81-1.44c-.17-.04-.33-.09-.42.25-.04.17-.09.33.24.42l2.81,1.44h0Z"/>
            <path class="cls-4" d="m61.85,177.85h0s-.12-.01-.16-.02c-.03,0-.06-.02-.09-.03l-2.77-1.42c-.26-.08-.43-.23-.51-.44-.07-.19-.02-.37,0-.48.14-.53.51-.59.66-.59.11,0,.2.02.27.04.03,0,.06.02.09.03l2.77,1.42c.28.09.66.31.5.92-.03.11-.1.2-.2.26-.04.02-.07.05-.1.09-.09.08-.23.22-.48.22Z"/>
          </g>
        </g>
        <rect class="cls-4" x="29.21" y="205.32" width="72.71" height="46.96"/>
        <g>
          <rect class="cls-4" x="258.74" y="353.66" width="10.84" height="4.11"/>
          <rect class="cls-4" x="245.1" y="353.66" width="10.84" height="4.11"/>
          <rect class="cls-4" x="231.55" y="353.66" width="10.84" height="4.11"/>
          <rect class="cls-4" x="218.48" y="353.66" width="10.84" height="4.11"/>
          <rect class="cls-4" x="204.56" y="353.66" width="10.84" height="4.11"/>
          <rect class="cls-4" x="191.48" y="353.66" width="10.84" height="4.11"/>
          <g>
            <g>
              <path class="cls-1" d="m11.71,240.94l157.86,2.1c2.84.04,5.25,2.09,5.75,4.88l19.8,111.14c.64,3.62-2.13,6.94-5.8,6.96l-156.82.66c-2.87.01-5.33-2.03-5.85-4.85L5.8,247.92c-.67-3.67,2.17-7.03,5.9-6.98Z"/>
              <path class="cls-4" d="m32.47,367.11c-3.06,0-5.69-2.19-6.24-5.2L5.39,248c-.34-1.86.16-3.75,1.37-5.2,1.21-1.45,2.98-2.28,4.87-2.28h.09s157.86,2.1,157.86,2.1c3.04.04,5.63,2.24,6.16,5.23l19.8,111.14c.33,1.85-.17,3.73-1.37,5.18-1.2,1.44-2.97,2.27-4.84,2.28l-156.85.66Zm-20.77-125.75c-1.71,0-3.25.72-4.29,1.98-1.05,1.26-1.48,2.9-1.18,4.51l20.84,113.91c.48,2.61,2.75,4.51,5.4,4.51v.42l.02-.42,156.82-.66c1.63,0,3.16-.73,4.2-1.98,1.04-1.25,1.47-2.88,1.19-4.48l-19.8-111.14c-.46-2.59-2.71-4.49-5.34-4.53l-157.86-2.1h0Z"/>
            </g>
            <path class="cls-4" d="m195,358.94l-19.8-111.14c-.5-2.79-2.91-4.84-5.75-4.88l-157.86-2.1c-.2,0-.38.04-.57.06l153.57,2.05c2.84.04,5.25,2.09,5.75,4.88l19.8,111.14c.65,3.62-2.13,6.94-5.8,6.96l-152.2.65c.08,0,.15.02.15.02l156.9-.66c3.67-.02,6.45-3.34,5.8-6.96Z"/>
            <g>
              <path class="cls-9" d="m274.74,356.77l-85.08-1.13-19.19-107.71c-.5-2.79-2.91-4.84-5.75-4.88l-157.86-2.1c-3.73-.05-6.57,3.32-5.9,6.98l20.84,113.91c.52,2.82,2.98,4.87,5.85,4.85l139.92-.59,107.14,1.43c.23,0,.41-.18.42-.4l.13-9.83c0-.28-.22-.52-.51-.52Z"/>
              <path class="cls-4" d="m274.7,368.79h-.02l-107.14-1.64-139.91.49c-3.3,0-6.1-2.39-6.69-5.6L.11,248.1c-.36-1.98.17-3.67,1.46-5.21,1.29-1.55,3.18-2.1,5.2-2.1h.09l157.86,1.75c3.24.04,6.01,2.22,6.57,5.41l19.07,106.93,84.38,1.08c.36,0,.7.13.96.39.25.26.39.59.39.96l-.13,10.03c0,.68-.57,1.45-1.26,1.45Zm-107.15-3.54l106.72,1.42.12-9.05-84.75-1.13c-.41,0-.75-.3-.82-.7l-19.19-107.71c-.43-2.39-2.5-3.65-4.92-3.68l-157.86-1.6h0c-1.58,0-3,.16-3.96,1.32-.97,1.16-1.36,2.42-1.09,3.91l20.84,113.78c.44,2.41,2.54,4.1,4.99,4.1l139.94-.66Z"/>
            </g>
          </g>
          <rect class="cls-4" x="203.81" y="358.98" width="12.89" height="3.55"/>
          <g>
            <rect class="cls-5" x="203.81" y="359.45" width="12.89" height="1.4"/>
            <path class="cls-4" d="m217.13,361.27h-13.74v-2.25h13.74v2.25Zm-12.89-.85h12.04v-.55h-12.04v.55Z"/>
          </g>
          <circle class="cls-4" cx="265.06" cy="361.53" r="1.9"/>
          <path class="cls-4" d="m260.92,361.53c0-1.05-.85-1.9-1.9-1.9s-1.9.85-1.9,1.9.85,1.9,1.9,1.9,1.9-.85,1.9-1.9Z"/>
          <path class="cls-5" d="m81.34,311.66c3.66,1.88,8.22,1.65,11.95-.11,5.62-2.65,11.06-9.12,10.09-15.67-.93-6.35-7.06-10.52-12.99-11.7-4.17-.83-8.73-.04-12.12,2.52-7.93,5.99-5.56,20.19,2.76,24.79.1.06.21.11.31.17Z"/>
        </g>
        <path class="cls-4" d="m200.73,73.16c0-1.93-.93-3.5-2.07-3.5s-2.07,1.57-2.07,3.5.93,3.5,2.07,3.5,2.07-1.57,2.07-3.5Z"/>
        <path class="cls-4" d="m170.18,73.16c0-1.93-.93-3.5-2.07-3.5s-2.07,1.57-2.07,3.5.93,3.5,2.07,3.5,2.07-1.57,2.07-3.5Z"/>
      </g>
      <path class="cls-4" d="m219.62,302.79c-.47,0-.85-.45-.85-.91,0-.47.37-.54.84-.55l103.12-.54h0c.47,0,.85.03.85.5,0,.47-.37.75-.84.75l-103.12.75h0Z"/>
      <path class="cls-4" d="m284.55,301.79c-.44,0-.82-.34-.85-.79l-2.55-36.92c-.03-.47.32-.87.79-.91.47-.03.87.32.91.79l2.55,36.92c.03.47-.32.87-.79.91-.02,0-.04,0-.06,0Z"/>
      <path class="cls-4" d="m286.67,221.44c-.07,0-.15-.01-.23-.03-.45-.12-.72-.59-.59-1.04,9.1-32.98,43.36-37.91,43.71-37.96.46-.06.89.26.95.73.06.47-.26.89-.73.95-.33.04-33.5,4.85-42.3,36.73-.1.38-.45.62-.82.62Z"/>
      <g>
        <g>
          <path class="cls-2" d="m79.07,68.79c3.45,12.69,16.54,20.18,29.23,16.73,12.69-3.45,20.17-16.54,16.72-29.23-.89-3.28-2.43-6.22-4.45-8.71l-18.17,14.35-24.16.5c-.02,2.1.25,4.24.83,6.36Z"/>
          <path class="cls-4" d="m102.05,87.21h0c-11.09,0-20.88-7.48-23.79-18.2-.59-2.18-.88-4.4-.86-6.59,0-.46.37-.83.83-.84l23.87-.49,17.95-14.17c.37-.29.89-.23,1.19.13,2.15,2.66,3.7,5.7,4.61,9.02,3.57,13.12-4.2,26.7-17.31,30.27-2.12.58-4.31.87-6.49.87Zm-22.94-23.95c.05,1.77.31,3.55.79,5.31,2.71,9.98,11.82,16.94,22.15,16.95h0c2.03,0,4.06-.27,6.04-.81,12.21-3.32,19.45-15.97,16.12-28.19-.77-2.82-2.04-5.42-3.77-7.74l-17.5,13.82c-.15.11-.32.18-.51.18l-23.32.48Z"/>
        </g>
        <g>
          <path class="cls-7" d="m73.11,58.43l24.15-.5-6.12-22.48s-.32.07-.48.12c-10.57,2.87-17.52,12.42-17.56,22.86Z"/>
          <path class="cls-4" d="m72.26,59.29v-.87c.04-11.04,7.52-20.68,18.19-23.59.47-.13.56-.06.7-.06h.65l6.57,24.06-26.11.45Zm18.29-22.81c-9.49,2.76-16.16,11.29-16.57,21.08l22.18-.46-5.61-20.62Z"/>
        </g>
        <g>
          <path class="cls-6" d="m96.29,39.45l6.12,22.48,18.17-14.35c-5.66-7-15.04-10.44-24.29-8.13Z"/>
          <path class="cls-4" d="m102.4,62.78c-.09,0-.18-.01-.27-.04-.27-.09-.48-.31-.55-.58l-6.12-22.48c-.06-.22-.03-.46.09-.65.12-.2.31-.34.53-.39,1.97-.49,3.99-.74,6-.74,7.47,0,14.46,3.34,19.16,9.16.14.18.21.4.18.63-.03.23-.14.43-.32.57l-18.18,14.35c-.15.12-.34.18-.53.18Zm-5.06-22.7l5.55,20.39,16.48-13.01c-4.36-5.01-10.62-7.87-17.29-7.87-1.59,0-3.18.17-4.74.5Z"/>
        </g>
      </g>
      <path class="cls-4" d="m48.36,91.24l6.1-1.94-6.1-2.08c-1.82-.48-3.22-1.95-3.61-3.8l-1.94-9.16-2.08,8.96c-.44,1.89-1.93,3.35-3.83,3.76l-5.74,1.98,5.54,1.96c1.94.45,3.43,2.01,3.78,3.98l1.6,8.86,2.34-8.87c.49-1.88,2.03-3.3,3.94-3.64Z"/>
      <path class="cls-4" d="m329.24,149.36l4.13-1.31-4.14-1.41c-1.24-.33-2.18-1.32-2.45-2.57l-1.31-6.21-1.41,6.08c-.3,1.28-1.31,2.27-2.6,2.55l-3.89,1.34,3.76,1.33c1.32.31,2.32,1.36,2.56,2.69l1.09,6.01,1.58-6.01c.33-1.27,1.38-2.23,2.67-2.47Z"/>
      <path class="cls-5" d="m289.93,49.19l8.61-2.73-8.61-2.94c-2.58-.68-4.55-2.75-5.1-5.36l-2.73-12.93-2.93,12.65c-.62,2.67-2.73,4.73-5.41,5.3l-8.11,2.79,7.82,2.76c2.74.64,4.84,2.84,5.34,5.61l2.26,12.51,3.3-12.52c.7-2.65,2.86-4.65,5.56-5.14Z"/>
      <g>
        <path class="cls-10" d="m264.34,118.13s-.92-7.31,1.35-5.92c5.62,3.45,11.8-.14,12.44-1.42,3.89-7.78,2.1-30.13,12.59-30.13s5.7,20.38,11.39,24.88c5.7,4.5,13.49-16.19,21.88-16.19s10.49,15.59,17.69,15.59,9.59-7.19,17.09-8.39v21.64l-94.43-.06Z"/>
        <path class="cls-4" d="m262.37,78.35c-.16,0-.32-.06-.45-.17-.27-.25-.29-.67-.04-.94l2.43-2.65c.13-.14.3-.21.49-.21h0c.19,0,.36.08.49.22l2.21,2.43c.25.27.23.69-.04.94-.27.24-.69.22-.93-.04l-1.72-1.89-1.93,2.11c-.13.14-.31.21-.49.21Z"/>
        <path class="cls-4" d="m364.98,116.09c0-.16.06-.32.17-.45.25-.27.67-.29.94-.04l2.65,2.43c.14.13.21.3.21.49h0c0,.19-.08.36-.22.49l-2.43,2.21c-.27.25-.69.23-.94-.04-.24-.27-.23-.69.04-.93l1.89-1.72-2.11-1.93c-.14-.13-.21-.31-.21-.49Z"/>
        <path class="cls-4" d="m290.83,118.18c-.18,0-.33-.15-.33-.33v-42.7c0-.18.15-.33.33-.33s.33.15.33.33v42.7c0,.18-.15.33-.33.33Z"/>
        <path class="cls-4" d="m323.71,118.18c-.18,0-.33-.15-.33-.33v-42.7c0-.18.15-.33.33-.33s.33.15.33.33v42.7c0,.18-.15.33-.33.33Z"/>
        <path class="cls-4" d="m358.8,118.18c-.18,0-.33-.15-.33-.33v-42.7c0-.18.15-.33.33-.33s.33.15.33.33v42.7c0,.18-.15.33-.33.33Z"/>
        <path class="cls-4" d="m264.68,123.7c-.37,0-.66-.3-.66-.66v-46.34c0-.36.29-.66.66-.66s.66.3.66.66v46.34c0,.37-.29.66-.66.66Z"/>
        <path class="cls-4" d="m367.29,119.07h-107.24c-.37,0-.66-.3-.66-.66s.29-.66.66-.66h107.24c.37,0,.66.3.66.66s-.29.66-.66.66Z"/>
        <g>
          <g>
            <path class="cls-5" d="m292.06,79.38c0-.62-.5-1.12-1.12-1.12s-1.12.5-1.12,1.12.5,1.12,1.12,1.12,1.12-.5,1.12-1.12Z"/>
            <path class="cls-3" d="m290.94,80.93c-.85,0-1.55-.69-1.55-1.55s.69-1.55,1.55-1.55,1.55.69,1.55,1.55-.69,1.55-1.55,1.55Zm0-2.25c-.39,0-.7.31-.7.7s.31.7.7.7.7-.31.7-.7-.31-.7-.7-.7Z"/>
          </g>
          <path class="cls-4" d="m290.94,80.82c-.79,0-1.44-.64-1.44-1.44s.64-1.44,1.44-1.44,1.44.64,1.44,1.44-.64,1.44-1.44,1.44Zm0-2.25c-.45,0-.81.36-.81.81s.36.81.81.81.81-.36.81-.81-.36-.81-.81-.81Z"/>
        </g>
        <g>
          <g>
            <path class="cls-5" d="m324.74,88.98c0-.62-.5-1.12-1.12-1.12s-1.12.5-1.12,1.12.5,1.12,1.12,1.12,1.12-.5,1.12-1.12Z"/>
            <path class="cls-3" d="m323.62,90.53c-.85,0-1.55-.69-1.55-1.55s.69-1.55,1.55-1.55,1.55.69,1.55,1.55-.69,1.55-1.55,1.55Zm0-2.25c-.39,0-.7.31-.7.7s.31.7.7.7.7-.31.7-.7-.31-.7-.7-.7Z"/>
          </g>
          <path class="cls-4" d="m323.61,90.41c-.79,0-1.43-.64-1.43-1.44s.64-1.44,1.43-1.44,1.44.64,1.44,1.44-.64,1.44-1.44,1.44Zm0-2.25c-.45,0-.81.36-.81.81s.36.81.81.81.81-.36.81-.81-.36-.81-.81-.81Z"/>
        </g>
        <g>
          <g>
            <circle class="cls-5" cx="358.49" cy="96.37" r="1.12"/>
            <path class="cls-3" d="m358.49,97.92c-.85,0-1.55-.69-1.55-1.55s.69-1.55,1.55-1.55,1.55.69,1.55,1.55-.69,1.55-1.55,1.55Zm0-2.25c-.39,0-.7.31-.7.7s.31.7.7.7.7-.31.7-.7-.31-.7-.7-.7Z"/>
          </g>
          <path class="cls-4" d="m358.49,97.81c-.79,0-1.43-.64-1.43-1.43s.64-1.44,1.43-1.44,1.44.64,1.44,1.44-.64,1.43-1.44,1.43Zm0-2.25c-.45,0-.81.36-.81.81s.36.81.81.81.81-.36.81-.81-.36-.81-.81-.81Z"/>
        </g>
      </g>
    </g>
  </g>
</svg>