<svg width="22" height="19" viewBox="0 0 22 19" fill="none" xmlns="http://www.w3.org/2000/svg">
<mask id="mask0_436_171" style="mask-type:luminance" maskUnits="userSpaceOnUse" x="0" y="0" width="21" height="19">
<rect width="21" height="19" fill="white"/>
</mask>
<g mask="url(#mask0_436_171)">
<path fill-rule="evenodd" clip-rule="evenodd" d="M21 9.5C21 9.5 17.0625 2.96875 10.5 2.96875C3.9375 2.96875 0 9.5 0 9.5C0 9.5 3.9375 16.0313 10.5 16.0313C17.0625 16.0313 21 9.5 21 9.5ZM1.53957 9.5C2.17419 10.3727 2.9041 11.1854 3.71832 11.9261C5.4075 13.4568 7.7175 14.8438 10.5 14.8438C13.2825 14.8438 15.5912 13.4568 17.283 11.9261C18.0972 11.1854 18.8271 10.3727 19.4618 9.5C18.8271 8.62733 18.0972 7.81456 17.283 7.07393C15.5912 5.54325 13.2812 4.15625 10.5 4.15625C7.7175 4.15625 5.40882 5.54325 3.717 7.07394C2.90278 7.81457 2.17286 8.62734 1.53825 9.50001L1.53957 9.5Z" fill="#BEBEBE"/>
<path fill-rule="evenodd" clip-rule="evenodd" d="M10.5 6.53125C8.68782 6.53125 7.21875 7.8604 7.21875 9.49999C7.21874 11.1396 8.6878 12.4687 10.5 12.4688C12.3122 12.4688 13.7812 11.1396 13.7812 9.50001C13.7813 7.86042 12.3122 6.53126 10.5 6.53125H10.5ZM5.90625 9.5C5.90625 8.01512 6.78181 6.64303 8.20312 5.90058C9.62443 5.15814 11.3756 5.15814 12.7969 5.90058C14.2182 6.64302 15.0937 8.01511 15.0938 9.5C15.0938 10.9849 14.2182 12.357 12.7969 13.0994C11.3756 13.8419 9.62444 13.8419 8.20313 13.0994C6.78181 12.357 5.90625 10.9849 5.90625 9.5V9.5Z" fill="#BEBEBE"/>
</g>
<path d="M20.334 2.10938L1.33398 17.1094" stroke="#BEBEBE" stroke-width="1.5" stroke-linecap="round" stroke-linejoin="round"/>
</svg>
